<svg width="26" height="26" viewBox="0 0 26 26" fill="none" xmlns="http://www.w3.org/2000/svg">
<g id="Menu">
<path id="Vector 7 (Stroke)" fill-rule="evenodd" clip-rule="evenodd" d="M4.5166 7.58335C4.5166 7.08629 4.91955 6.68335 5.4166 6.68335H20.5833C21.0803 6.68335 21.4833 7.08629 21.4833 7.58335C21.4833 8.08041 21.0803 8.48335 20.5833 8.48335H5.4166C4.91955 8.48335 4.5166 8.08041 4.5166 7.58335Z" fill="#DE1F38"/>
<path id="Vector 8 (Stroke)" fill-rule="evenodd" clip-rule="evenodd" d="M4.5166 13C4.5166 12.5029 4.91955 12.1 5.4166 12.1H20.5833C21.0803 12.1 21.4833 12.5029 21.4833 13C21.4833 13.497 21.0803 13.9 20.5833 13.9H5.4166C4.91955 13.9 4.5166 13.497 4.5166 13Z" fill="#DE1F38"/>
<path id="Vector 9 (Stroke)" fill-rule="evenodd" clip-rule="evenodd" d="M4.5166 18.4167C4.5166 17.9196 4.91955 17.5167 5.4166 17.5167H20.5833C21.0803 17.5167 21.4833 17.9196 21.4833 18.4167C21.4833 18.9137 21.0803 19.3167 20.5833 19.3167H5.4166C4.91955 19.3167 4.5166 18.9137 4.5166 18.4167Z" fill="#DE1F38"/>
</g>
</svg>
