<svg width="20" height="22" viewBox="0 0 20 22" fill="none" xmlns="http://www.w3.org/2000/svg">
<g id="Group 186">
<path id="Rectangle 1" d="M1 10.7308C1 9.03877 1 8.19275 1.35288 7.44909C1.70576 6.70544 2.36847 6.15485 3.6939 5.05369L4.97961 3.98552C7.3753 1.99517 8.57315 1 10 1C11.4269 1 12.6247 1.99517 15.0204 3.98552L16.3061 5.05369C17.6315 6.15485 18.2942 6.70544 18.6471 7.44909C19 8.19275 19 9.03877 19 10.7308V16.0152C19 18.3651 19 19.54 18.2468 20.27C17.4937 21 16.2815 21 13.8571 21H6.14286C3.71849 21 2.50631 21 1.75315 20.27C1 19.54 1 18.3651 1 16.0152V10.7308Z" stroke="white" stroke-width="1.5"/>
<path id="Ellipse 90" d="M6.04491 15.5669C6.50217 15.9629 7.1153 16.2573 7.79199 16.4526C8.47461 16.6497 9.23508 16.75 10 16.75C10.7649 16.75 11.5254 16.6497 12.208 16.4526C12.8847 16.2573 13.4978 15.9629 13.9551 15.5669" stroke="white" stroke-width="1.5" stroke-linecap="round"/>
</g>
</svg>
