<svg width="28" height="28" viewBox="0 0 28 28" fill="none" xmlns="http://www.w3.org/2000/svg">
<g id="Paper_light">
<path id="Vector 57" d="M21 3.50001V3.50001C21.4644 3.50001 21.6966 3.50001 21.8916 3.52567C23.2378 3.7029 24.2971 4.76223 24.4743 6.10843C24.5 6.30338 24.5 6.53559 24.5 7.00001L24.5 9.5C24.5 9.9714 24.5 10.2071 24.3536 10.3536C24.3536 10.3536 24.3536 10.3536 24.3536 10.3536C24.2071 10.5 23.9714 10.5 23.5 10.5L17.5 10.5M21 3.50001V3.50001C20.5356 3.50001 20.3034 3.50001 20.1084 3.52567C18.7622 3.7029 17.7029 4.76223 17.5257 6.10843C17.5 6.30338 17.5 6.53559 17.5 7L17.5 10.5M21 3.50001L7.5 3.50001C5.61438 3.50001 4.67157 3.50001 4.08579 4.08579C3.5 4.67158 3.5 5.61439 3.5 7.50001L3.5 24.5L7 23.3333L10.5 24.5L14 23.3333L17.5 24.5L17.5 10.5" stroke="#DE1F38" stroke-width="1.6"/>
<path id="Vector 55" d="M8.16669 8.16675L12.8334 8.16675" stroke="#DE1F38" stroke-width="1.6" stroke-linecap="round"/>
<path id="Vector 58" d="M9.33331 12.8333H8.16665" stroke="#DE1F38" stroke-width="1.6" stroke-linecap="round"/>
<path id="Vector 59" d="M8.16669 17.5L11.6667 17.5" stroke="#DE1F38" stroke-width="1.6" stroke-linecap="round"/>
</g>
</svg>
