<svg width="30" height="30" viewBox="0 0 30 30" fill="none" xmlns="http://www.w3.org/2000/svg">
<g id="SNS_&#236;&#157;&#184;&#236;&#138;&#164;&#237;&#131;&#128;">
<circle id="Ellipse 179" cx="15" cy="15" r="15" fill="#999999"/>
<g id="&#235;&#161;&#156;&#234;&#179;&#160;_&#236;&#157;&#184;&#236;&#138;&#164;&#237;&#131;&#128;">
<path id="Vector" d="M15 7.62171C17.4033 7.62171 17.6875 7.63099 18.6366 7.67398C19.5139 7.71403 19.9907 7.86057 20.3077 7.98366C20.7278 8.14681 21.0277 8.3422 21.3427 8.65677C21.6578 8.97183 21.8527 9.27175 22.0158 9.69183C22.1389 10.0088 22.2855 10.4856 22.3255 11.3629C22.369 12.312 22.3778 12.5967 22.3778 14.9995C22.3778 17.4023 22.3685 17.6871 22.3255 18.6361C22.2855 19.5134 22.1389 19.9902 22.0158 20.3072C21.8527 20.7273 21.6573 21.0272 21.3427 21.3423C21.0277 21.6573 20.7278 21.8522 20.3077 22.0154C19.9907 22.1385 19.5139 22.285 18.6366 22.325C17.6875 22.3685 17.4033 22.3773 15 22.3773C12.5967 22.3773 12.312 22.368 11.3634 22.325C10.4861 22.285 10.0093 22.1385 9.69232 22.0154C9.27224 21.8522 8.97232 21.6568 8.65726 21.3423C8.3422 21.0272 8.1473 20.7273 7.98415 20.3072C7.86106 19.9902 7.71452 19.5134 7.67446 18.6361C7.63099 17.6871 7.6222 17.4023 7.6222 14.9995C7.6222 12.5967 7.63148 12.312 7.67446 11.3629C7.71452 10.4856 7.86106 10.0088 7.98415 9.69183C8.1473 9.27175 8.34269 8.97183 8.65726 8.65677C8.97183 8.34171 9.27224 8.14681 9.69232 7.98366C10.0093 7.86057 10.4861 7.71403 11.3634 7.67398C12.3125 7.6305 12.5972 7.62171 15 7.62171ZM15 6C12.5557 6 12.2494 6.01026 11.2891 6.05422C10.3312 6.09769 9.67669 6.25009 9.10421 6.47235C8.51218 6.70242 8.01053 7.01015 7.51034 7.51034C7.01015 8.01053 6.70242 8.51267 6.47235 9.10421C6.25009 9.67669 6.09769 10.3307 6.05422 11.2891C6.01026 12.249 6 12.5557 6 15C6 17.4443 6.01026 17.7506 6.05422 18.7109C6.09769 19.6688 6.25009 20.3233 6.47235 20.8958C6.70242 21.4878 7.01015 21.9895 7.51034 22.4897C8.01053 22.9899 8.51267 23.2976 9.10421 23.5277C9.67669 23.7499 10.3307 23.9023 11.2891 23.9458C12.249 23.9897 12.5557 24 15 24C17.4443 24 17.7506 23.9897 18.7109 23.9458C19.6688 23.9023 20.3233 23.7499 20.8958 23.5277C21.4878 23.2976 21.9895 22.9899 22.4897 22.4897C22.9899 21.9895 23.2976 21.4873 23.5277 20.8958C23.7499 20.3233 23.9023 19.6693 23.9458 18.7109C23.9897 17.751 24 17.4443 24 15C24 12.5557 23.9897 12.2494 23.9458 11.2891C23.9023 10.3312 23.7499 9.67669 23.5277 9.10421C23.2976 8.51218 22.9899 8.01053 22.4897 7.51034C21.9895 7.01015 21.4873 6.70242 20.8958 6.47235C20.3233 6.25009 19.6693 6.09769 18.7109 6.05422C17.751 6.01026 17.4443 6 15 6Z" fill="#333333"/>
<path id="Vector_2" d="M15 10.3789C12.4477 10.3789 10.3781 12.4481 10.3781 15.0008C10.3781 17.5535 12.4473 19.6227 15 19.6227C17.5527 19.6227 19.6219 17.5535 19.6219 15.0008C19.6219 12.4481 17.5527 10.3789 15 10.3789ZM15 18.0005C13.3431 18.0005 11.9998 16.6572 11.9998 15.0003C11.9998 13.3434 13.3431 12.0001 15 12.0001C16.6569 12.0001 18.0001 13.3434 18.0001 15.0003C18.0001 16.6572 16.6569 18.0005 15 18.0005Z" fill="#333333"/>
<path id="Vector_3" d="M19.8045 11.2762C20.401 11.2762 20.8845 10.7927 20.8845 10.1962C20.8845 9.59974 20.401 9.11621 19.8045 9.11621C19.2081 9.11621 18.7245 9.59974 18.7245 10.1962C18.7245 10.7927 19.2081 11.2762 19.8045 11.2762Z" fill="#333333"/>
</g>
</g>
</svg>
