<svg width="30" height="30" viewBox="0 0 30 30" fill="none" xmlns="http://www.w3.org/2000/svg">
<g id="SNS_&#236;&#156;&#160;&#237;&#138;&#156;&#235;&#184;&#140;">
<circle id="Ellipse 180" cx="15" cy="15" r="15" fill="#999999"/>
<path id="&#235;&#161;&#156;&#234;&#179;&#160;_&#236;&#156;&#160;&#237;&#138;&#156;&#235;&#184;&#140;" fill-rule="evenodd" clip-rule="evenodd" d="M22.8144 7.81849C23.6745 8.05138 24.3519 8.74011 24.5824 9.61316C25 11.197 25 14.5005 25 14.5005C25 14.5005 25 17.804 24.5824 19.3878C24.353 20.2609 23.6745 20.9485 22.8144 21.1825C21.254 21.6063 14.9995 21.6063 14.9995 21.6063C14.9995 21.6063 8.74498 21.6063 7.18461 21.1825C6.32342 20.9496 5.64599 20.262 5.41547 19.3878C4.99792 17.804 4.99792 14.5005 4.99792 14.5005C4.99792 14.5005 4.99792 11.1959 5.41547 9.61316C5.64599 8.73901 6.32342 8.05138 7.18461 7.81849C8.7439 7.39355 14.9995 7.39355 14.9995 7.39355C14.9995 7.39355 21.254 7.39355 22.8144 7.81849ZM18.1964 14.5004L12.9987 17.5456V11.4541L18.1964 14.5004Z" fill="#333333"/>
</g>
</svg>
