<svg width="30" height="30" viewBox="0 0 30 30" fill="none" xmlns="http://www.w3.org/2000/svg">
<g id="SNS_&#235;&#132;&#164;&#236;&#157;&#180;&#235;&#178;&#132;&#235;&#184;&#148;&#235;&#161;&#156;&#234;&#183;&#184;">
<circle id="Ellipse 181" cx="15" cy="15" r="15" fill="#999999"/>
<path id="&#235;&#161;&#156;&#234;&#183;&#184;_&#235;&#132;&#164;&#236;&#157;&#180;&#235;&#178;&#132;&#235;&#184;&#148;&#235;&#161;&#156;&#234;&#183;&#184;" fill-rule="evenodd" clip-rule="evenodd" d="M21.8403 7H8.15873C6.41425 7 5 8.43371 5 10.203V17.8014C5 19.5707 6.41425 21.0044 8.15873 21.0044H12.8716L14.4799 23.6503C14.4799 23.6503 14.4976 23.6814 14.5322 23.7257C14.6264 23.8888 14.7999 23.9991 14.9995 23.9991C15.1992 23.9991 15.3708 23.8897 15.465 23.7285C15.5052 23.6805 15.5191 23.6493 15.5191 23.6493L17.1274 21.0034H21.8403C23.5848 21.0034 24.9991 19.5697 24.9991 17.8004V10.203C24.9991 8.43371 23.5848 7 21.8403 7ZM9.44137 12.5681C9.43386 12.5681 8.89227 12.5715 8.40036 13.0554V11.0938H7.17549V16.248H8.41248V15.8446C8.41248 15.8446 8.70447 16.3772 9.44052 16.3772C9.44052 16.3772 11.1663 16.3131 11.1663 14.4533C11.1663 14.4533 11.1029 12.5687 9.44137 12.5681ZM9.17185 15.2885C8.73713 15.2885 8.3845 14.9321 8.3845 14.4929C8.3845 14.0536 8.73713 13.6983 9.17185 13.6983C9.60657 13.6983 9.95826 14.0546 9.95826 14.4929C9.95826 14.9312 9.60564 15.2885 9.17185 15.2885ZM11.561 12.1703V10.9779C13.3502 10.9779 13.2998 12.914 13.2998 12.914V16.2471H12.1197V13.1959C12.1197 12.1448 11.561 12.1703 11.561 12.1703ZM16.1852 12.5841C16.1852 12.5841 14.1618 12.5841 14.1618 14.4929C14.1618 14.4929 14.0965 16.3762 16.1852 16.3762C16.1852 16.3762 18.2553 16.3734 18.2553 14.4929C18.2553 14.4929 18.3225 12.5841 16.1852 12.5841ZM16.1852 15.2885C15.7505 15.2885 15.3979 14.9321 15.3979 14.4929C15.3979 14.0536 15.7505 13.6983 16.1852 13.6983C16.62 13.6983 16.9717 14.0546 16.9717 14.4929C16.9717 14.9312 16.619 15.2885 16.1852 15.2885ZM21.6332 13.0545V12.7085H21.6342H22.8236V16.199C22.8236 18.1512 21.0343 18.1314 21.0343 18.1314H20.5586V17.0351H20.8534C21.7191 17.0351 21.6332 16.1311 21.6332 16.1311V15.8427C21.2536 16.3423 20.5586 16.314 20.5586 16.314C18.8542 16.314 18.8738 14.4787 18.8738 14.4787C18.8738 12.5096 20.6061 12.5832 20.6061 12.5832C21.2816 12.5832 21.6332 13.0545 21.6332 13.0545ZM20.1155 14.4919C20.1155 14.9312 20.4672 15.2875 20.9019 15.2875C21.3357 15.2875 21.6883 14.9303 21.6883 14.4919C21.6883 14.0536 21.3366 13.6973 20.9019 13.6973C20.4672 13.6973 20.1155 14.0527 20.1155 14.4919Z" fill="#333333"/>
</g>
</svg>
