<svg width="28" height="28" viewBox="0 0 28 28" fill="none" xmlns="http://www.w3.org/2000/svg">
<g id="Star_light">
<path id="Star 1" d="M11.8344 7.73228C12.7521 5.44445 13.211 4.30054 14 4.30054C14.7891 4.30054 15.2479 5.44445 16.1656 7.73229L16.2083 7.83882C16.7268 9.13133 16.986 9.77759 17.5144 10.1704C18.0427 10.5632 18.7362 10.6253 20.1233 10.7495L20.374 10.772C22.6442 10.9753 23.7792 11.0769 24.0221 11.7991C24.265 12.5212 23.422 13.2881 21.7361 14.8219L21.1735 15.3339C20.3201 16.1103 19.8933 16.4985 19.6945 17.0073C19.6574 17.1022 19.6265 17.1995 19.6021 17.2984C19.4714 17.8289 19.5964 18.3921 19.8463 19.5184L19.9241 19.869C20.3833 21.9391 20.613 22.9741 20.212 23.4206C20.0622 23.5874 19.8675 23.7075 19.6511 23.7665C19.0722 23.9245 18.2504 23.2548 16.6066 21.9153C15.5272 21.0358 14.9875 20.596 14.3679 20.4971C14.1242 20.4582 13.8758 20.4582 13.6321 20.4971C13.0125 20.596 12.4728 21.0358 11.3934 21.9153C9.74966 23.2548 8.92777 23.9245 8.34887 23.7665C8.13255 23.7075 7.93782 23.5874 7.78799 23.4206C7.38703 22.9741 7.61667 21.9391 8.07596 19.869L8.15375 19.5184C8.40366 18.3921 8.52862 17.8289 8.39788 17.2984C8.3735 17.1995 8.34266 17.1022 8.30556 17.0073C8.10667 16.4985 7.67996 16.1103 6.82653 15.3339L6.26387 14.8219C4.57799 13.2881 3.73504 12.5212 3.97792 11.7991C4.22079 11.0769 5.35585 10.9753 7.62597 10.772L7.87673 10.7495C9.2638 10.6253 9.95733 10.5632 10.4857 10.1704C11.014 9.77759 11.2732 9.13133 11.7917 7.83882L11.8344 7.73228Z" stroke="#333333" stroke-width="1.6"/>
</g>
</svg>
