<svg width="88" height="40" viewBox="0 0 88 40" fill="none" xmlns="http://www.w3.org/2000/svg">
<g id="&#235;&#161;&#156;&#234;&#179;&#160;_&#235;&#185;&#132;&#235;&#185;&#132;&#237;&#129;&#144;&#235;&#170;&#176;">
<mask id="mask0_704_18522" style="mask-type:alpha" maskUnits="userSpaceOnUse" x="0" y="0" width="88" height="40">
<rect id="Rectangle 4892" width="88" height="40" fill="#D9D9D9"/>
</mask>
<g mask="url(#mask0_704_18522)">
<g id="&#235;&#185;&#132;&#235;&#185;&#132;&#237;&#129;&#144;&#235;&#170;&#176;_&#235;&#161;&#156;&#234;&#179;&#160;">
<g id="Group">
<path id="Vector" d="M32.1001 8.81543H26.9618C26.824 8.81543 26.7103 8.92976 26.7103 9.06455V11.9078C26.7103 12.0456 26.824 12.1563 26.9618 12.1563H32.1001C32.2397 12.1563 32.3511 12.0456 32.3511 11.9078V9.06455C32.3511 8.92976 32.2397 8.81543 32.1001 8.81543Z" fill="#999999"/>
<path id="Vector_2" d="M10.2562 8.81543H5.11788C4.97827 8.81543 4.86514 8.92976 4.86514 9.06455V11.9078C4.86514 12.0456 4.97827 12.1563 5.11788 12.1563H10.2562C10.3958 12.1563 10.5089 12.0456 10.5089 11.9078V9.06455C10.5089 8.92976 10.3958 8.81543 10.2562 8.81543Z" fill="#999999"/>
<path id="Vector_3" d="M20.0086 8.81543H14.8709C14.7313 8.81543 14.6176 8.92976 14.6176 9.06455V11.9078C14.6176 12.0456 14.7307 12.1563 14.8709 12.1563H20.0086C20.147 12.1563 20.2614 12.0456 20.2614 11.9078V9.06455C20.2614 8.92976 20.1476 8.81543 20.0086 8.81543Z" fill="#999999"/>
<path id="Vector_4" d="M34.296 1.25H2.92569C1.31241 1.25 0 2.56121 0 4.17028V16.0728C0 17.6867 1.31241 18.9937 2.92569 18.9937H34.296C35.9068 18.9937 37.2174 17.6867 37.2174 16.0728V4.17028C37.2174 2.5606 35.9068 1.25 34.296 1.25ZM12.322 12.5123C12.322 13.0069 11.9194 13.4101 11.4242 13.4101H3.96852C3.47328 13.4101 3.07192 13.0069 3.07192 12.5123V4.80693L4.86452 3.6973V7.3114C4.86452 7.451 4.97765 7.56232 5.11725 7.56232H11.4236C11.9194 7.56232 12.3214 7.9661 12.3214 8.46194V12.5123H12.322ZM22.0745 12.5123C22.0745 13.0069 21.6713 13.4101 21.1779 13.4101H13.7222C13.2276 13.4101 12.8244 13.0069 12.8244 12.5123V4.80693L14.6176 3.6973V7.3114C14.6176 7.451 14.7308 7.56232 14.871 7.56232H21.1797C21.6725 7.56232 22.0769 7.9661 22.0769 8.46194L22.0751 12.5123H22.0745ZM23.4862 11.434C22.9849 11.434 22.5787 11.0278 22.5787 10.5295C22.5787 10.0313 22.9849 9.6203 23.4862 9.6203C23.9874 9.6203 24.393 10.0283 24.393 10.5295C24.393 11.0308 23.9856 11.434 23.4862 11.434ZM34.1449 16.1643L32.3505 17.2757V13.664C32.3505 13.5226 32.2392 13.4101 32.0996 13.4101H25.7909C25.2974 13.4101 24.8955 13.0069 24.8955 12.5123V8.46194C24.8955 7.9667 25.2974 7.56232 25.7927 7.56232H33.2501C33.7436 7.56232 34.1449 7.9661 34.1449 8.46194V16.1643Z" fill="#999999"/>
</g>
<path id="Vector_5" d="M78.2644 9.6875L71.9936 13.564V39.7881H78.2644V9.6875Z" fill="white"/>
<path id="Vector_6" d="M87.5 9.6875L81.2292 13.564V39.7881H87.5V9.6875Z" fill="white"/>
<path id="Vector_7" d="M0.0475464 39.7881H6.31835V26.2199H15.554V39.7881H21.8248V26.2199H31.0604V39.7881H37.3312V24.6842C37.3312 22.9506 35.9255 21.5449 34.1919 21.5449H3.18686C1.45262 21.5449 0.0475464 22.9506 0.0475464 24.6842V39.7881Z" fill="white"/>
<path id="Vector_8" d="M43.4359 39.7885H65.5477C67.2813 39.7885 68.687 38.3828 68.687 36.6491V24.6852C68.687 22.9516 67.2813 21.5459 65.5477 21.5459H43.4359C41.7023 21.5459 40.2966 22.9516 40.2966 24.6852V26.2203H62.4162V28.3294H43.4359C41.7023 28.3294 40.2966 29.7351 40.2966 31.4687V36.6485C40.2966 38.3828 41.7023 39.7879 43.4359 39.7879V39.7885ZM46.5674 35.1135V33.0044H62.4162V35.1135H46.5674Z" fill="white"/>
</g>
</g>
</g>
</svg>
