<svg width="14" height="14" viewBox="0 0 14 14" fill="none" xmlns="http://www.w3.org/2000/svg">
<path fill-rule="evenodd" clip-rule="evenodd" d="M3.00065 2.99992H4.33398V2.33325H9.66732V2.99992H11.0007V2.33325H12.334V4.33325H1.66732V2.33325H3.00065V2.99992ZM1.66732 5.66658V12.3333H12.334V5.66658H1.66732ZM4.33398 0.999919H9.66732V0.333252H11.0007V0.999919H12.334C13.0704 0.999919 13.6673 1.59687 13.6673 2.33325V12.3333C13.6673 13.0696 13.0704 13.6666 12.334 13.6666H1.66732C0.930938 13.6666 0.333984 13.0696 0.333984 12.3333V2.33325C0.333984 1.59687 0.930938 0.999919 1.66732 0.999919H3.00065V0.333252H4.33398V0.999919Z" fill="#8A8797"/>
</svg>
