<svg width="163" height="115" viewBox="0 0 163 115" fill="none" xmlns="http://www.w3.org/2000/svg">
<g filter="url(#filter0_d_89_2486)">
<path d="M79.6106 1.3807e-07C78.706 6.18161e-08 77.9727 0.733342 77.9727 1.63797L77.9727 12.2847C77.9727 13.1894 78.706 13.9227 79.6106 13.9227C80.5152 13.9227 81.2486 13.1894 81.2486 12.2847L81.2486 1.63797C81.2486 0.733342 80.5152 2.14324e-07 79.6106 1.3807e-07Z" fill="#E4E3E8"/>
<path d="M67.6498 5.9755C66.894 6.41187 66.635 7.37834 67.0714 8.13416L71.18 15.2505C71.6164 16.0064 72.5829 16.2653 73.3387 15.8289C74.0945 15.3926 74.3535 14.4261 73.9171 13.6703L69.8084 6.55391C69.3721 5.79809 68.4056 5.53913 67.6498 5.9755Z" fill="#E4E3E8"/>
<path d="M91.101 5.66122C90.3451 5.22484 89.3787 5.48381 88.9423 6.23963L84.8337 13.356C84.3973 14.1118 84.6562 15.0783 85.4121 15.5147C86.1679 15.951 87.1344 15.6921 87.5707 14.9363L91.6794 7.81988C92.1157 7.06405 91.8568 6.09759 91.101 5.66122Z" fill="#E4E3E8"/>
<path d="M94.6603 24.2207H147.655C153.921 24.2207 159 29.2999 159 35.5654C159 41.8309 153.921 46.9102 147.655 46.9102H83.3574L94.6603 24.2207Z" fill="#E4E3E8"/>
<path fill-rule="evenodd" clip-rule="evenodd" d="M141.185 40.801C140.894 40.6481 140.546 40.6481 140.255 40.801L137.835 42.072C137.101 42.4573 136.244 41.8342 136.385 41.0174L136.846 38.3286C136.902 38.0039 136.794 37.6727 136.558 37.4429L134.603 35.5394C134.009 34.961 134.337 33.9524 135.157 33.8333L137.861 33.4409C138.187 33.3936 138.468 33.1892 138.614 32.8942L139.824 30.4454C140.191 29.7027 141.25 29.7027 141.617 30.4454L142.827 32.8942C142.972 33.1892 143.254 33.3936 143.58 33.4409L146.283 33.8333C147.104 33.9524 147.431 34.961 146.837 35.5394L144.882 37.4429C144.646 37.6727 144.539 38.0039 144.594 38.3286L145.056 41.0174C145.196 41.8342 144.339 42.4573 143.605 42.072L141.185 40.801Z" fill="#BCBAC3"/>
<path d="M84.5765 80.4592L54.1515 27.7658C50.7757 21.9194 52.7795 14.451 58.6259 11.0752L95.1567 74.3487C101.569 73.4434 108.179 76.4138 111.616 82.364C116.133 90.1859 113.45 100.191 105.628 104.703C97.8065 109.22 87.8015 106.537 83.2894 98.7151C79.8522 92.7649 80.5878 85.5512 84.5765 80.4544V80.4592ZM102.427 99.1536C107.184 96.4095 108.816 90.3226 106.067 85.5701C103.323 80.8128 97.2359 79.1814 92.4834 81.9302C87.7261 84.6742 86.0947 90.7611 88.8435 95.5137C91.5875 100.271 97.6744 101.902 102.427 99.1536Z" fill="#947EE4"/>
<path d="M74.0361 80.4971L104.456 27.799C107.832 21.9573 105.828 14.4842 99.982 11.1084L63.4559 74.3866C57.0437 73.4813 50.4335 76.4517 46.9964 82.4019C42.4795 90.2238 45.1623 100.229 52.9842 104.741C60.8062 109.253 70.8111 106.575 75.3233 98.753C78.7604 92.8029 78.0249 85.5891 74.0361 80.4923V80.4971ZM56.1856 99.1915C51.4283 96.4475 49.797 90.3653 52.5458 85.608C55.2945 80.8507 61.372 79.2193 66.1293 81.9681C70.8866 84.7122 72.5179 90.7943 69.7692 95.5516C67.0204 100.309 60.9429 101.94 56.1856 99.1915Z" fill="#7448F3"/>
<path d="M79.1295 62.5118C80.8168 62.5118 82.1847 61.144 82.1847 59.4566C82.1847 57.7692 80.8168 56.4014 79.1295 56.4014C77.4421 56.4014 76.0742 57.7692 76.0742 59.4566C76.0742 61.144 77.4421 62.5118 79.1295 62.5118Z" fill="#947EE4"/>
<path d="M4.75264 56.5338C3.131 50.4818 6.72254 44.2611 12.7746 42.6395L66.4498 28.2572C63.9535 36.0825 66.2478 44.6448 72.3223 50.1735L18.647 64.5558C12.595 66.1774 6.37427 62.5859 4.75264 56.5338Z" fill="#E4E3E8"/>
</g>
<defs>
<filter id="filter0_d_89_2486" x="-2.18359" y="0" width="165.184" height="114.933" filterUnits="userSpaceOnUse" color-interpolation-filters="sRGB">
<feFlood flood-opacity="0" result="BackgroundImageFix"/>
<feColorMatrix in="SourceAlpha" type="matrix" values="0 0 0 0 0 0 0 0 0 0 0 0 0 0 0 0 0 0 127 0" result="hardAlpha"/>
<feOffset dy="4"/>
<feGaussianBlur stdDeviation="2"/>
<feComposite in2="hardAlpha" operator="out"/>
<feColorMatrix type="matrix" values="0 0 0 0 0 0 0 0 0 0 0 0 0 0 0 0 0 0 0.25 0"/>
<feBlend mode="normal" in2="BackgroundImageFix" result="effect1_dropShadow_89_2486"/>
<feBlend mode="normal" in="SourceGraphic" in2="effect1_dropShadow_89_2486" result="shape"/>
</filter>
</defs>
</svg>
