<svg width="16" height="16" viewBox="0 0 16 16" fill="none" xmlns="http://www.w3.org/2000/svg">
<path d="M5.41566 8.30977L3.28036 6.17447C2.47538 5.36949 2.46933 4.06526 3.26688 3.26771C4.06443 2.47016 5.36866 2.4762 6.17365 3.28119L8.30895 5.41649C8.56116 5.6687 8.9696 5.67059 9.21948 5.42071C9.46936 5.17083 9.46747 4.76239 9.21526 4.51018L7.07996 2.37488C5.77055 1.06547 3.64944 1.05564 2.35213 2.35295C1.05481 3.65027 1.06464 5.77138 2.37405 7.08078L4.50935 9.21608C4.76156 9.46829 5.17 9.47019 5.41988 9.22031C5.66977 8.97042 5.66787 8.56198 5.41566 8.30977Z" fill="#8A8797"/>
<path d="M13.6259 8.91934L11.4906 6.78404C11.2384 6.53183 10.8299 6.52993 10.58 6.77982C10.3302 7.0297 10.3321 7.43814 10.5843 7.69035L12.7196 9.82565C13.5246 10.6306 13.5306 11.9349 12.733 12.7324C11.9355 13.53 10.6313 13.5239 9.82628 12.7189L7.69098 10.5836C7.43877 10.3314 7.03033 10.3295 6.78045 10.5794C6.53057 10.8293 6.53246 11.2377 6.78467 11.4899L8.91997 13.6252C10.2294 14.9346 12.3505 14.9445 13.6478 13.6472C14.9451 12.3498 14.9353 10.2287 13.6259 8.91934Z" fill="#8A8797"/>
<path d="M5.207 5.20731C4.95712 5.45719 4.95901 5.86563 5.21122 6.11784L9.8817 10.7883C10.1339 11.0405 10.5424 11.0424 10.7922 10.7925C11.0421 10.5427 11.0402 10.1342 10.788 9.882L6.11753 5.21153C5.86532 4.95932 5.45688 4.95742 5.207 5.20731Z" fill="#8A8797"/>
</svg>
