<svg width="154" height="43" viewBox="0 0 154 43" fill="none" xmlns="http://www.w3.org/2000/svg">
<path d="M13.9072 43C9.69865 43 6.32864 42.244 3.79719 40.7321C1.26573 39.1899 0 36.8463 0 33.7015C0 32.0383 0.300611 30.7683 0.901832 29.8913C1.50305 29.0144 2.38906 28.576 3.55986 28.576C4.41423 28.576 5.11038 28.7876 5.64831 29.211C6.18625 29.6343 6.45522 30.1786 6.45522 30.8439C6.45522 31.4487 6.40775 31.9778 6.31282 32.4314C6.31282 32.5524 6.28118 32.7641 6.21789 33.0665C6.18625 33.3688 6.17043 33.6864 6.17043 34.019C6.17043 35.3797 6.8824 36.3928 8.30635 37.058C9.76193 37.7233 11.7871 38.0559 14.3818 38.0559C17.0715 38.0559 19.1758 37.6023 20.6947 36.6951C22.2135 35.7577 22.973 34.4575 22.973 32.7943C22.973 31.7662 22.6249 30.8892 21.9288 30.1635C21.2326 29.4075 20.3624 28.7876 19.3182 28.3038C18.274 27.7897 16.8025 27.1698 14.904 26.4441C12.4674 25.5369 10.4739 24.6751 8.92339 23.8586C7.40451 23.0422 6.09132 21.9385 4.98381 20.5475C3.90794 19.1262 3.37 17.3724 3.37 15.2859C3.37 13.1087 3.97122 11.1733 5.17367 9.47996C6.40775 7.78657 8.16395 6.47117 10.4423 5.53376C12.7522 4.59634 15.4577 4.12764 18.5587 4.12764C20.8687 4.12764 22.9888 4.46027 24.919 5.12553C26.8493 5.76055 28.384 6.74332 29.5231 8.07384C30.6939 9.40436 31.2793 11.0373 31.2793 12.9726C31.2793 14.8776 30.9787 16.314 30.3775 17.2816C29.7763 18.2493 28.8903 18.7331 27.7195 18.7331C26.8967 18.7331 26.2006 18.4912 25.631 18.0074C25.0931 17.5236 24.8241 16.949 24.8241 16.2838C24.8241 15.7092 24.8716 15.18 24.9665 14.6962C25.0614 13.789 25.1089 13.2145 25.1089 12.9726C25.1089 11.7025 24.4602 10.7349 23.1628 10.0696C21.8655 9.40436 20.2517 9.07173 18.3214 9.07173C15.6001 9.07173 13.5117 9.55556 12.0561 10.5232C10.6321 11.4606 9.92015 12.7911 9.92015 14.5148C9.92015 15.6639 10.284 16.6466 11.0118 17.4631C11.7713 18.2795 12.7048 18.9599 13.8123 19.5042C14.9198 20.0485 16.4703 20.6987 18.4638 21.4546C20.8687 22.3921 22.7989 23.2387 24.2545 23.9947C25.7101 24.7507 26.9442 25.7788 27.9568 27.0791C29.001 28.3794 29.5231 29.9821 29.5231 31.8871C29.5231 35.4553 28.0992 38.2071 25.2513 40.1424C22.435 42.0475 18.6537 43 13.9072 43Z" fill="#7343FC"/>
<path d="M59.9288 32.5221C60.3402 32.5221 60.6566 32.7036 60.8781 33.0665C61.1312 33.4293 61.2578 33.9283 61.2578 34.5633C61.2578 35.7729 60.9572 36.7103 60.356 37.3755C58.9004 38.9782 57.3973 40.2936 55.8468 41.3217C54.3279 42.3499 52.5876 42.8639 50.6257 42.8639C49.0119 42.8639 47.7936 42.4255 46.9709 41.5485C46.1482 40.6413 45.7368 39.3411 45.7368 37.6477C45.7368 36.801 45.9583 35.289 46.4013 33.1118C46.8127 31.2067 47.0184 29.8913 47.0184 29.1656C47.0184 28.6818 46.8443 28.4399 46.4963 28.4399C46.0849 28.4399 45.4995 28.9539 44.7401 29.9821C43.9806 30.98 43.2212 32.3105 42.4617 33.9736C41.7023 35.6368 41.0853 37.3906 40.6106 39.2352C40.0094 41.6544 38.5222 42.8639 36.1489 42.8639C35.1996 42.8639 34.5668 42.5464 34.2503 41.9114C33.9655 41.2461 33.8231 40.0668 33.8231 38.3734C33.8231 37.4058 33.839 36.6347 33.8706 36.0601L33.9181 32.4314C33.9181 27.7746 34.4085 22.9212 35.3895 17.8713C36.4021 12.8214 37.8735 8.5879 39.8037 5.17089C41.7656 1.72363 44.1072 0 46.8285 0C48.2841 0 49.4549 0.604782 50.3409 1.81435C51.2586 2.99367 51.7174 4.53586 51.7174 6.44093C51.7174 9.49508 50.7839 12.6702 48.917 15.9662C47.05 19.2321 44.0123 23.0573 39.8037 27.442C39.7088 29.0144 39.6613 30.6322 39.6613 32.2954C40.7055 29.725 41.8605 27.6385 43.1262 26.0359C44.4236 24.403 45.6893 23.2387 46.9234 22.5432C48.1892 21.8477 49.3441 21.5 50.3884 21.5C52.4452 21.5 53.4736 22.4828 53.4736 24.4483C53.4736 25.6276 53.1255 27.7595 52.4294 30.8439C51.8281 33.4747 51.5275 35.2134 51.5275 36.0601C51.5275 37.2697 51.9863 37.8745 52.904 37.8745C53.5369 37.8745 54.2805 37.5116 55.1348 36.7859C56.0209 36.0299 57.1917 34.8203 58.6472 33.1572C59.027 32.7338 59.4541 32.5221 59.9288 32.5221ZM45.8317 4.49051C45.2622 4.49051 44.6293 5.27672 43.9332 6.84916C43.237 8.39135 42.5567 10.493 41.8922 13.154C41.2593 15.7848 40.7372 18.6575 40.3258 21.7722C42.2877 19.5647 43.9015 17.1607 45.1672 14.5601C46.4646 11.9596 47.1133 9.60091 47.1133 7.48418C47.1133 6.51653 47.0025 5.77567 46.781 5.2616C46.5595 4.74754 46.2431 4.49051 45.8317 4.49051Z" fill="#7343FC"/>
<path d="M82.0926 28.712C82.504 28.712 82.8204 28.9086 83.0419 29.3017C83.2634 29.6948 83.3742 30.1937 83.3742 30.7985C83.3742 32.25 82.9154 33.1118 81.9977 33.384C80.0991 34.019 78.0107 34.3819 75.7324 34.4726C75.1311 37.0127 73.9445 39.0538 72.1725 40.596C70.4005 42.1079 68.3911 42.8639 66.1445 42.8639C64.2459 42.8639 62.6162 42.4255 61.2556 41.5485C59.9266 40.6716 58.914 39.5074 58.2178 38.0559C57.5217 36.6044 57.1736 35.032 57.1736 33.3386C57.1736 31.0404 57.6324 28.9993 58.5501 27.2152C59.4677 25.4008 60.7335 23.9947 62.3473 22.9968C63.9611 21.9687 65.7489 21.4546 67.7108 21.4546C70.1157 21.4546 72.0459 22.256 73.5015 23.8586C74.9887 25.4311 75.8589 27.3815 76.1121 29.7099C77.5993 29.6192 79.3713 29.3168 81.4281 28.8027C81.6813 28.7423 81.9028 28.712 82.0926 28.712ZM66.5242 38.0559C67.5368 38.0559 68.407 37.6628 69.1348 36.8766C69.8942 36.0904 70.4005 34.9564 70.6536 33.4747C69.6727 32.8397 68.9132 32.0081 68.3753 30.98C67.869 29.9518 67.6159 28.8632 67.6159 27.7141C67.6159 27.2303 67.6633 26.7465 67.7583 26.2627H67.5209C66.2552 26.2627 65.1952 26.8523 64.3408 28.0316C63.5181 29.1807 63.1067 30.8136 63.1067 32.9304C63.1067 34.5935 63.439 35.8636 64.1035 36.7405C64.7996 37.6174 65.6065 38.0559 66.5242 38.0559Z" fill="#7343FC"/>
<path d="M98.9508 27.7141C99.647 27.7141 100.232 27.956 100.707 28.4399C101.213 28.8935 101.466 29.468 101.466 30.1635C101.466 30.5566 101.372 30.98 101.182 31.4335C100.675 32.5524 99.9634 33.4898 99.0458 34.2458C98.1281 35.0018 97.1155 35.3797 96.008 35.3797C95.122 35.3797 94.3625 35.0774 93.7297 34.4726C93.1285 33.8678 92.8279 33.0513 92.8279 32.0232C92.8279 31.4487 92.8595 30.8288 92.9228 30.1635C92.9861 29.6797 93.0177 29.347 93.0177 29.1656C93.0177 28.9237 92.9544 28.7423 92.8279 28.6213C92.7329 28.5004 92.6064 28.4399 92.4481 28.4399C92.0051 28.4399 91.4039 28.9539 90.6445 29.9821C89.885 30.98 89.1256 32.3105 88.3662 33.9736C87.6067 35.6368 86.9897 37.3906 86.515 39.2352C86.167 40.6867 85.7714 41.6544 85.3284 42.1382C84.8854 42.622 84.1576 42.8639 83.145 42.8639C81.9426 42.8639 81.0882 42.2591 80.5819 41.0496C80.1073 39.84 79.8699 37.9047 79.8699 35.2437C79.8699 31.3126 80.4554 27.5781 81.6262 24.0401C81.9109 23.1631 82.3698 22.5281 83.0026 22.135C83.6671 21.7117 84.5848 21.5 85.7556 21.5C86.3885 21.5 86.8315 21.5756 87.0846 21.7268C87.3378 21.878 87.4643 22.1653 87.4643 22.5886C87.4643 23.0724 87.227 24.161 86.7524 25.8544C86.4359 27.064 86.1828 28.1224 85.9929 29.0295C85.8031 29.9367 85.6448 31.0556 85.5183 32.3861C86.5625 29.7855 87.7333 27.6688 89.0307 26.0359C90.328 24.403 91.5938 23.2387 92.8279 22.5432C94.0619 21.8477 95.1853 21.5 96.1979 21.5C97.1155 21.5 97.8117 21.757 98.2863 22.2711C98.7926 22.7549 99.0458 23.4807 99.0458 24.4483C99.0458 25.0229 98.8717 26.1115 98.5236 27.7141H98.9508Z" fill="#7343FC"/>
<path d="M124.92 32.5221C125.331 32.5221 125.647 32.7036 125.869 33.0665C126.122 33.4293 126.249 33.9283 126.249 34.5633C126.249 35.7729 125.948 36.7103 125.347 37.3755C123.986 38.9782 122.499 40.2936 120.885 41.3217C119.271 42.3499 117.42 42.8639 115.332 42.8639C108.877 42.8639 105.649 38.5246 105.649 29.846C105.649 28.5155 105.696 27.1698 105.791 25.8091H103.94C102.991 25.8091 102.342 25.6428 101.994 25.3101C101.678 24.9775 101.519 24.4483 101.519 23.7226C101.519 22.0292 102.231 21.1825 103.655 21.1825H106.361C106.899 17.8562 107.722 14.8172 108.829 12.0654C109.937 9.31364 111.266 7.12131 112.816 5.4884C114.398 3.85549 116.091 3.03903 117.895 3.03903C119.224 3.03903 120.268 3.59845 121.028 4.7173C121.787 5.83615 122.167 7.24227 122.167 8.93565C122.167 13.6227 120.11 17.705 115.996 21.1825H121.312C121.819 21.1825 122.183 21.2883 122.404 21.5C122.626 21.7117 122.736 22.1048 122.736 22.6793C122.736 24.7658 120.948 25.8091 117.373 25.8091H111.582C111.519 27.321 111.487 28.5004 111.487 29.347C111.487 32.4919 111.867 34.6994 112.626 35.9694C113.417 37.2395 114.651 37.8745 116.329 37.8745C117.689 37.8745 118.892 37.4814 119.936 36.6951C120.98 35.9089 122.214 34.7296 123.638 33.1572C124.018 32.7338 124.445 32.5221 124.92 32.5221ZM116.613 7.39346C116.139 7.39346 115.601 7.968 114.999 9.11709C114.43 10.2359 113.876 11.8084 113.338 13.8344C112.832 15.8302 112.405 18.0527 112.057 20.5021C113.924 18.9599 115.316 17.2363 116.234 15.3312C117.183 13.3959 117.658 11.6421 117.658 10.0696C117.658 8.28551 117.309 7.39346 116.613 7.39346Z" fill="#7343FC"/>
<path d="M129.077 18.5063C127.748 18.5063 126.751 18.2191 126.086 17.6445C125.422 17.0397 125.089 16.2082 125.089 15.1498C125.089 14.0914 125.517 13.2145 126.371 12.519C127.257 11.7932 128.349 11.4304 129.646 11.4304C130.817 11.4304 131.766 11.7025 132.494 12.2468C133.222 12.7911 133.586 13.5622 133.586 14.5601C133.586 15.7697 133.174 16.7373 132.352 17.4631C131.529 18.1586 130.437 18.5063 129.077 18.5063ZM128.697 42.8639C126.64 42.8639 125.137 42.1684 124.188 40.7774C123.27 39.3864 122.811 37.5418 122.811 35.2437C122.811 33.8829 122.985 32.1442 123.333 30.0274C123.713 27.8805 124.188 25.8847 124.757 24.0401C125.042 23.0724 125.422 22.4072 125.896 22.0443C126.371 21.6814 127.13 21.5 128.175 21.5C129.788 21.5 130.595 22.0141 130.595 23.0422C130.595 23.7982 130.295 25.552 129.694 28.3038C128.934 31.6301 128.554 33.8829 128.554 35.0622C128.554 35.9694 128.681 36.6649 128.934 37.1487C129.187 37.6326 129.614 37.8745 130.216 37.8745C130.785 37.8745 131.497 37.4965 132.352 36.7405C133.206 35.9845 134.345 34.7901 135.769 33.1572C136.149 32.7338 136.576 32.5221 137.051 32.5221C137.462 32.5221 137.778 32.7036 138 33.0665C138.253 33.4293 138.38 33.9283 138.38 34.5633C138.38 35.7729 138.079 36.7103 137.478 37.3755C134.345 41.0345 131.418 42.8639 128.697 42.8639Z" fill="#7343FC"/>
<path d="M142.846 25.8091C142.782 27.321 142.751 28.5004 142.751 29.347C142.751 31.5243 142.862 33.2328 143.083 34.4726C143.336 35.6821 143.732 36.5591 144.27 37.1034C144.839 37.6174 145.615 37.8745 146.596 37.8745C147.102 37.8745 147.703 37.7233 148.399 37.4209C149.095 37.1185 149.728 36.7254 150.298 36.2416C150.646 35.9392 150.994 35.788 151.342 35.788C151.722 35.788 152.022 35.9996 152.244 36.423C152.497 36.8161 152.624 37.2999 152.624 37.8745C152.624 38.449 152.497 39.0084 152.244 39.5527C152.022 40.097 151.674 40.5506 151.2 40.9135C149.554 42.2138 147.687 42.8639 145.599 42.8639C142.593 42.8639 140.393 41.6695 139.001 39.2806C137.609 36.8615 136.913 33.7166 136.913 29.846C136.913 28.5155 136.96 27.1698 137.055 25.8091H135.204C134.255 25.8091 133.606 25.6428 133.258 25.3101C132.941 24.9775 132.783 24.4483 132.783 23.7226C132.783 22.0292 133.495 21.1825 134.919 21.1825H137.625C138.163 17.8562 138.985 14.8172 140.093 12.0654C141.2 9.31364 142.529 7.12131 144.08 5.4884C145.662 3.85549 147.355 3.03903 149.159 3.03903C150.488 3.03903 151.532 3.59845 152.291 4.7173C153.051 5.83615 153.43 7.24227 153.43 8.93565C153.43 13.6227 151.374 17.705 147.26 21.1825H152.576C153.082 21.1825 153.446 21.2883 153.668 21.5C153.889 21.7117 154 22.1048 154 22.6793C154 24.7658 152.212 25.8091 148.636 25.8091H142.846ZM147.877 7.39346C147.402 7.39346 146.864 7.968 146.263 9.11709C145.694 10.2359 145.14 11.8084 144.602 13.8344C144.096 15.8302 143.669 18.0527 143.32 20.5021C145.187 18.9599 146.58 17.2363 147.497 15.3312C148.447 13.3959 148.921 11.6421 148.921 10.0696C148.921 8.28551 148.573 7.39346 147.877 7.39346Z" fill="#7343FC"/>
</svg>
