<?xml version="1.0" encoding="UTF-8"?>
<svg id="Logo" xmlns="http://www.w3.org/2000/svg" version="1.1" viewBox="0 0 600 65">
  <defs>
    <style>
      .cls-1 {
        fill: #fff;
        stroke-width: 0px;
      }
    </style>
  </defs>
  <g>
    <path class="cls-1" d="M71.84,20.79c-2.37-2.87-6.26-4.61-10.61-4.61-8.36,0-16.37,6.25-16.37,17.16s8.3,17.1,16.26,17.1c4.34,0,8.3-1.91,10.72-5.01v4.34h7.62V16.86h-7.62v3.94ZM62.36,43.47c-5.64,0-9.99-4.5-9.99-10.24s4.35-10.13,9.99-10.13,9.88,4.56,9.88,10.13-4.23,10.24-9.88,10.24Z"/>
    <path class="cls-1" d="M123.33,20.79c-2.37-2.87-6.27-4.61-10.61-4.61-8.36,0-16.37,6.25-16.37,17.16s8.3,17.1,16.26,17.1c4.35,0,8.3-1.91,10.73-5.01v4.34h7.62V16.86h-7.62v3.94ZM113.84,43.47c-5.64,0-9.99-4.5-9.99-10.24s4.35-10.13,9.99-10.13,9.88,4.56,9.88,10.13-4.23,10.24-9.88,10.24Z"/>
    <polygon class="cls-1" points="184.97 39.03 175.77 16.86 167.64 16.86 181.19 48.03 175.26 62.21 183.11 62.21 201.68 16.86 193.66 16.86 184.97 39.03"/>
    <polygon class="cls-1" points="166.79 16.86 157.76 16.86 150.31 27.27 142.8 16.86 133.49 16.86 145.46 33.01 133.04 49.77 142.35 49.77 150.2 38.8 158.27 49.77 167.59 49.77 154.94 33.06 166.79 16.86"/>
    <rect class="cls-1" x="84.72" y="8.14" width="7.67" height="41.64"/>
    <path class="cls-1" d="M20.15,34.1h13.15c-1.47,5.4-5.76,8.89-11.91,8.89-8.01,0-13.77-6.07-13.77-13.67s5.81-13.67,13.49-13.67c5.42,0,9.37,2.47,11.91,7.14l6.77-4.05c-3.5-6.19-10.22-10.52-18.74-10.52C8.86,8.22,0,17.62,0,29.32s8.53,21.1,21.4,21.1,20.15-9.51,20.15-20.59v-3.04h-21.39v7.31Z"/>
  </g>
  <g>
    <path class="cls-1" d="M211.91,42.82l18.25-26.74h-17.63v-7.32h26.66v6.98l-18.25,26.8h18.25v7.32h-27.28v-7.04Z"/>
    <path class="cls-1" d="M255.81,8.76h23.33v7.32h-15.65v9.46h15.65v7.32h-15.65v17h-7.68V8.76Z"/>
    <path class="cls-1" d="M282.05,33.42c0-9.57,7.57-17.17,17.12-17.17s17.12,7.6,17.12,17.17-7.63,17.12-17.12,17.12-17.12-7.6-17.12-17.12ZM308.77,33.42c0-5.52-4.24-10.02-9.6-10.02s-9.6,4.5-9.6,10.02,4.12,9.97,9.6,9.97,9.6-4.5,9.6-9.97Z"/>
    <path class="cls-1" d="M320.45,8.19h7.68v41.66h-7.68V8.19Z"/>
    <path class="cls-1" d="M332.3,33.42c0-10.92,8.02-17.17,16.38-17.17,4.29,0,8.19,1.74,10.56,4.56v-12.61h7.68v41.66h-7.63v-4.28c-2.43,3.04-6.38,4.95-10.73,4.95-7.96,0-16.27-6.36-16.27-17.12ZM359.7,33.3c0-5.57-4.24-10.14-9.89-10.14s-10,4.45-10,10.14,4.35,10.25,10,10.25,9.89-4.56,9.89-10.25Z"/>
    <path class="cls-1" d="M371.21,36.46c0-3.83,1.24-7.77,3.16-10.64l10.68-17.06h9.04l-9.04,13.96c.79-.22,1.58-.34,2.43-.34,7.17,0,13.05,5.8,13.05,14.02s-6.27,14.02-14.57,14.02-14.74-6.14-14.74-13.96ZM392.96,36.23c0-3.94-3.28-7.15-7.17-7.15s-7.06,3.21-7.06,7.21,3.16,7.21,7.06,7.21,7.17-3.27,7.17-7.26Z"/>
  </g>
  <g>
    <path class="cls-1" d="M435.69,42.82l18.25-26.74h-17.63v-7.32h26.66v6.98l-18.25,26.8h18.25v7.32h-27.28v-7.04Z"/>
    <path class="cls-1" d="M479.59,8.76h23.33v7.32h-15.65v9.46h15.65v7.32h-15.65v17h-7.68V8.76Z"/>
    <path class="cls-1" d="M506.93,8.19h7.68v41.66h-7.68V8.19Z"/>
    <path class="cls-1" d="M524.07,4.08c2.99,0,4.8,1.91,4.8,4.78s-1.81,4.73-4.8,4.73-4.8-1.91-4.8-4.73,1.86-4.78,4.8-4.78ZM520.23,16.92h7.68v32.93h-7.68V16.92Z"/>
    <path class="cls-1" d="M541.06,45.97v19.03h-7.57V16.92h7.57v4.39c2.32-3.04,6.27-5.07,10.73-5.07,8.3,0,16.27,6.25,16.27,17.17s-8.19,17.12-16.21,17.12c-4.52,0-8.47-1.63-10.79-4.56ZM560.54,33.3c0-5.69-4.35-10.14-9.94-10.14s-9.83,4.56-9.83,10.14,4.12,10.25,9.83,10.25,9.94-4.5,9.94-10.25Z"/>
    <path class="cls-1" d="M570.68,36.46c0-3.83,1.24-7.77,3.16-10.64l10.68-17.06h9.04l-9.04,13.96c.79-.22,1.58-.34,2.43-.34,7.17,0,13.05,5.8,13.05,14.02s-6.27,14.02-14.57,14.02-14.74-6.14-14.74-13.96ZM592.43,36.23c0-3.94-3.28-7.15-7.17-7.15s-7.06,3.21-7.06,7.21,3.16,7.21,7.06,7.21,7.17-3.27,7.17-7.26Z"/>
  </g>
  <rect class="cls-1" x="417.08" width="2.06" height="58.69"/>
</svg>