<svg xmlns="http://www.w3.org/2000/svg" width="46.091" height="44" viewBox="0 0 46.091 44">
  <g id="더블스토리지" transform="translate(0)">
    <rect id="사각형_25898" data-name="사각형 25898" width="46" height="44" transform="translate(0)" fill="none"/>
    <path id="패스_7834" data-name="패스 7834" d="M52.756,14.817,40.993,2.2a.679.679,0,0,0-.966,0L28.264,14.817a.7.7,0,0,0-.131.741.667.667,0,0,0,.614.414h5.236V18.7a.668.668,0,1,0,1.336,0V15.289a.676.676,0,0,0-.668-.683H30.307l10.2-10.941,10.2,10.941H46.37a.676.676,0,0,0-.668.683V43.317a.668.668,0,1,0,1.336,0V15.972h5.235a.668.668,0,0,0,.614-.414.7.7,0,0,0-.131-.741" transform="translate(-8.079 -1)" fill="#1e81f8" stroke="#1e81f8" stroke-linecap="round" stroke-width="2"/>
    <path id="패스_7835" data-name="패스 7835" d="M8.75,45.038,4.4,52.262H0l6.419-10.62L.144,31.252H4.519L8.75,38.245l4.231-6.993h4.4l-6.333,10.39L17.5,52.262H13.125Z" transform="translate(0 -8.963)" fill="#1e81f8"/>
    <path id="패스_7836" data-name="패스 7836" d="M28.012,48.435c0-3.6,2.906-5.757,5.526-7.512,2.072-1.439,3.972-2.619,3.972-4.231,0-1.382-1.008-2.5-2.878-2.5-1.814,0-2.965,1.238-3.684,2.993l-3.368-1.7a7.438,7.438,0,0,1,7.08-4.663c4.26,0,6.821,2.59,6.821,5.9,0,3.339-2.734,5.181-5.238,6.879-2.187,1.467-4.288,2.792-4.318,4.778H41.4v3.741H28.012Z" transform="translate(-8.858 -8.82)" fill="#1e81f8"/>
  </g>
</svg>
