<svg xmlns="http://www.w3.org/2000/svg" width="45.333" height="42.667" viewBox="0 0 45.333 42.667">
  <path id="icon-gnb-2020-cart" d="M35.754,35.848a5.309,5.309,0,1,1-5.316,5.309A5.313,5.313,0,0,1,35.754,35.848Zm-16.914,0a5.309,5.309,0,1,1-5.316,5.309,5.313,5.313,0,0,1,5.316-5.309Zm16.914,3.378a1.917,1.917,0,1,0,1.372.561A1.932,1.932,0,0,0,35.754,39.226Zm-16.914,0a1.931,1.931,0,1,0,1.934,1.931,1.906,1.906,0,0,0-1.935-1.931ZM7.287,3.8A2.662,2.662,0,0,1,9.752,5.587v.1l1.451,5.4H44.115a2.315,2.315,0,0,1,2.267,2.8v.1L41.747,31.5a2.583,2.583,0,0,1-2.368,1.882H15.116A2.6,2.6,0,0,1,12.65,31.6l-.042-.1L6.272,7.66H1.1V3.8Zm34.8,11.144H12.216l3.866,14.576H38.267Z" transform="translate(-1.1 -3.8)" fill="#ddd"/>
</svg>
