<svg xmlns="http://www.w3.org/2000/svg" width="35.277" height="33.202" viewBox="0 0 35.277 33.202">
  <path id="icon-gnb-2020-cart" d="M28.067,28.739a4.131,4.131,0,1,1-4.137,4.131A4.134,4.134,0,0,1,28.067,28.739Zm-13.162,0a4.131,4.131,0,1,1-4.137,4.131A4.134,4.134,0,0,1,14.9,28.739Zm13.162,2.629a1.492,1.492,0,1,0,1.068.437,1.5,1.5,0,0,0-1.068-.437Zm-13.162,0a1.5,1.5,0,1,0,1.5,1.5,1.483,1.483,0,0,0-1.506-1.5ZM5.914,3.8A2.072,2.072,0,0,1,7.833,5.19v.075l1.129,4.2H34.573a1.8,1.8,0,0,1,1.764,2.179v.075L32.73,25.358a2.01,2.01,0,0,1-1.843,1.465H12.007a2.022,2.022,0,0,1-1.919-1.39l-.033-.075L5.125,6.8H1.1v-3Zm27.079,8.672H9.75l3.008,11.343H30.022Z" transform="translate(-1.1 -3.8)"/>
</svg>
