<?xml version="1.0" encoding="UTF-8"?><svg id="Layer_2" xmlns="http://www.w3.org/2000/svg" viewBox="0 0 125 125"><defs><style>.cls-1{fill:#e7a400;}.cls-2{fill:#fdf2ea;}.cls-3{fill:#81a000;}.cls-4{fill:#4c971d;}.cls-5{stroke:#2a1c18;}.cls-5,.cls-6{fill:none;stroke-linecap:round;stroke-miterlimit:10;stroke-width:5px;}.cls-6{stroke:#fff;}</style></defs><g id="_레이어_2"><path class="cls-2" d="m31.93,82.4l-14.2,14.2c-1.61-1.31-3.66-2.1-5.9-2.1-5.15,0-9.33,4.18-9.33,9.33s4.18,9.33,9.33,9.33c0,5.15,4.18,9.33,9.33,9.33s9.33-4.18,9.33-9.33c0-2.24-.79-4.29-2.1-5.9l12.84-12.84"/><path class="cls-5" d="m31.93,82.4l-14.2,14.2c-1.61-1.31-3.66-2.1-5.9-2.1-5.15,0-9.33,4.18-9.33,9.33s4.18,9.33,9.33,9.33c0,5.15,4.18,9.33,9.33,9.33s9.33-4.18,9.33-9.33c0-2.24-.79-4.29-2.1-5.9l12.84-12.84"/><path class="cls-1" d="m117.87,50.75c2.75-1.56,4.63-4.67,4.63-8.25s-1.75-6.47-4.34-8.08c.22-.82.34-1.69.34-2.59,0-3.62-1.92-6.75-4.71-8.3.46-1.14.71-2.39.71-3.7,0-5.15-3.88-9.33-8.67-9.33-1.54,0-2.99.44-4.24,1.2-1.42-3.08-4.36-5.2-7.76-5.2-.83,0-1.64.13-2.4.37-1.8-2.64-4.83-4.37-8.26-4.37s-6.29,1.64-8.1,4.16c-1.52-.94-3.31-1.49-5.23-1.49-4.46,0-8.23,2.92-9.52,6.95-.8-.18-1.63-.28-2.48-.28-6.26,0-11.33,5.07-11.33,11.33,0,.29.02.57.04.85-5.32.93-9.38,5.56-9.38,11.15,0,2.26.67,4.36,1.81,6.13-4.8.74-8.48,4.87-8.48,9.87,0,2.39.84,4.59,2.24,6.31-4.35,1.08-7.58,5.01-7.58,9.69,0,5.2,3.97,9.47,9.05,9.95-1.49,1.83-2.38,4.17-2.38,6.71,0,5.89,4.78,10.67,10.67,10.67,2.26,0,4.36-.71,6.08-1.91,1.56,3.46,5.41,5.91,9.92,5.91,5.19,0,9.5-3.24,10.46-7.53,1.86,1.37,4.25,2.2,6.87,2.2,5.15,0,9.45-3.2,10.45-7.44,1.31.49,2.73.78,4.22.78,6.42,0,11.65-5.05,11.97-11.4,1.03.47,2.17.73,3.36.73,4.79,0,8.67-4.18,8.67-9.33,0-.97-.14-1.91-.4-2.8,4.02-.64,7.06-3.62,7.06-7.2,0-2.33-1.29-4.4-3.29-5.75Z"/><path class="cls-5" d="m117.87,50.75c2.75-1.56,4.63-4.67,4.63-8.25s-1.75-6.47-4.34-8.08c.22-.82.34-1.69.34-2.59,0-3.62-1.92-6.75-4.71-8.3.46-1.14.71-2.39.71-3.7,0-5.15-3.88-9.33-8.67-9.33-1.54,0-2.99.44-4.24,1.2-1.42-3.08-4.36-5.2-7.76-5.2-.83,0-1.64.13-2.4.37-1.8-2.64-4.83-4.37-8.26-4.37s-6.29,1.64-8.1,4.16c-1.52-.94-3.31-1.49-5.23-1.49-4.46,0-8.23,2.92-9.52,6.95-.8-.18-1.63-.28-2.48-.28-6.26,0-11.33,5.07-11.33,11.33,0,.29.02.57.04.85-5.32.93-9.38,5.56-9.38,11.15,0,2.26.67,4.36,1.81,6.13-4.8.74-8.48,4.87-8.48,9.87,0,2.39.84,4.59,2.24,6.31-4.35,1.08-7.58,5.01-7.58,9.69,0,5.2,3.97,9.47,9.05,9.95-1.49,1.83-2.38,4.17-2.38,6.71,0,5.89,4.78,10.67,10.67,10.67,2.26,0,4.36-.71,6.08-1.91,1.56,3.46,5.41,5.91,9.92,5.91,5.19,0,9.5-3.24,10.46-7.53,1.86,1.37,4.25,2.2,6.87,2.2,5.15,0,9.45-3.2,10.45-7.44,1.31.49,2.73.78,4.22.78,6.42,0,11.65-5.05,11.97-11.4,1.03.47,2.17.73,3.36.73,4.79,0,8.67-4.18,8.67-9.33,0-.97-.14-1.91-.4-2.8,4.02-.64,7.06-3.62,7.06-7.2,0-2.33-1.29-4.4-3.29-5.75Z"/><line class="cls-5" x1="99.17" y1="28.5" x2="99.17" y2="33.95"/><line class="cls-5" x1="80.5" y1="25.83" x2="76.02" y2="31.23"/><line class="cls-5" x1="78.26" y1="44.93" x2="81.79" y2="44.93"/><line class="cls-5" x1="92.5" y1="52.5" x2="96.5" y2="48.5"/><line class="cls-5" x1="57.83" y1="36.5" x2="52.5" y2="40.5"/><line class="cls-5" x1="53.83" y1="48.5" x2="53.83" y2="55.13"/><line class="cls-5" x1="72.5" y1="63.17" x2="68.5" y2="67.17"/><line class="cls-5" x1="82.45" y1="65.17" x2="82.45" y2="70.76"/><line class="cls-5" x1="46.76" y1="67.17" x2="41.83" y2="71.17"/><line class="cls-5" x1="57.83" y1="77.83" x2="57.83" y2="84.28"/><path class="cls-4" d="m86.79,93.84s-.79-20.93,16.21-28.93c0,0,9,18-8,32l-8.21-3.07Z"/><path class="cls-5" d="m86.79,93.84s-.79-20.93,16.21-28.93c0,0,9,18-8,32l-8.21-3.07Z"/><path class="cls-4" d="m97.45,95.17s-.95-25.76-29.95-17.76c0,0,0,11,23,19,4,1,6.95-1.24,6.95-1.24Z"/><path class="cls-5" d="m97.45,95.17s-.95-25.76-29.95-17.76c0,0,0,11,23,19,4,1,6.95-1.24,6.95-1.24Z"/><ellipse class="cls-3" cx="106.99" cy="96.31" rx="15.25" ry="17.87" transform="translate(-24.08 36.78) rotate(-17.56)"/><ellipse class="cls-3" cx="88.68" cy="105.03" rx="17.87" ry="15.25" transform="translate(-43.21 143.75) rotate(-66.18)"/><ellipse class="cls-5" cx="88.68" cy="105.03" rx="17.87" ry="15.25" transform="translate(-43.21 143.75) rotate(-66.18)"/><path class="cls-6" d="m82.32,102.22c1.27-2.88,3.77-4.76,6.36-5.1"/><path class="cls-5" d="m102.03,112.45c3.25,1.58,6.88,1.99,10.35.9,8.03-2.54,12.13-12.23,9.15-21.64s-11.9-14.97-19.93-12.43c-4.09,1.3-7.16,4.45-8.8,8.47"/></g></svg>