<?xml version="1.0" encoding="UTF-8"?><svg id="Layer_2" xmlns="http://www.w3.org/2000/svg" viewBox="0 0 125 125.11"><defs><style>.cls-1{fill:#ff5751;}.cls-2{fill:#e7a400;}.cls-3{fill:#ea7357;}.cls-4{fill:#fff;}.cls-5{fill:#ffee92;}.cls-6{fill:#ffc863;}.cls-7{fill:#fdf2ea;}.cls-8{fill:#2a1c18;}.cls-9{fill:#78c565;}.cls-10{stroke-linejoin:round;}.cls-10,.cls-11{fill:none;stroke:#2a1c18;stroke-linecap:round;stroke-width:5px;}.cls-11{stroke-miterlimit:10;}</style></defs><g id="_격리_모드"><path class="cls-7" d="m87.98,48.41l11.84-6.12c.75,1.15,1.89,2.07,3.31,2.52,3.26,1.04,6.75-.76,7.78-4.02,1.04-3.26-.76-6.75-4.02-7.78,1.04-3.26-.76-6.75-4.02-7.78s-6.75.76-7.78,4.02c-.45,1.42-.37,2.87.14,4.15l-10.71,5.53"/><path class="cls-11" d="m87.98,48.41l11.84-6.12c.75,1.15,1.89,2.07,3.31,2.52,3.26,1.04,6.75-.76,7.78-4.02,1.04-3.26-.76-6.75-4.02-7.78,1.04-3.26-.76-6.75-4.02-7.78s-6.75.76-7.78,4.02c-.45,1.42-.37,2.87.14,4.15l-10.71,5.53"/><path class="cls-2" d="m27.24,51.11c-2.05.44-3.87,2.02-4.59,4.29s-.2,4.44,1.12,5.99c-.3.48-.56,1-.74,1.57-.73,2.29-.15,4.66,1.31,6.2-.52.63-.93,1.37-1.2,2.2-1.04,3.26.57,6.69,3.6,7.65.97.31,1.98.32,2.92.1.28,2.23,1.71,4.16,3.86,4.85.53.17,1.06.25,1.59.25.61,2.03,2.17,3.74,4.35,4.43s4.31.23,5.96-1c.77.9,1.79,1.61,3.01,2,2.82.9,5.79-.19,7.42-2.47.47.27.97.5,1.51.68,3.96,1.26,8.19-.93,9.45-4.88.06-.18.1-.36.14-.54,3.55.49,7.05-1.63,8.18-5.16.46-1.43.46-2.89.09-4.24,3.18.5,6.34-1.37,7.35-4.54.48-1.51.39-3.07-.15-4.44,2.97.19,5.8-1.64,6.75-4.6,1.05-3.29-.6-6.79-3.72-8.12,1.31-.86,2.35-2.16,2.86-3.77,1.19-3.73-.87-7.71-4.6-8.9-1.43-.46-2.9-.43-4.23-.02-.29-2.5-2.23-4.83-5.08-5.74-3.28-1.05-6.66.13-8.14,2.65-.9-1.24-2.25-2.25-3.9-2.77-3.26-1.04-6.62.12-8.11,2.6-.73-.58-1.57-1.04-2.51-1.34-4.06-1.29-8.39.85-9.87,4.8-.56-.51-1.23-.9-1.98-1.14-3.03-.96-6.32.9-7.36,4.16-.2.62-.3,1.24-.31,1.85-2.67-.41-5.2.86-5.92,3.13-.47,1.47-.07,3.04.92,4.3Z"/><path class="cls-10" d="m27.24,51.11c-2.05.44-3.87,2.02-4.59,4.29s-.2,4.44,1.12,5.99c-.3.48-.56,1-.74,1.57-.73,2.29-.15,4.66,1.31,6.2-.52.63-.93,1.37-1.2,2.2-1.04,3.26.57,6.69,3.6,7.65.97.31,1.98.32,2.92.1.28,2.23,1.71,4.16,3.86,4.85.53.17,1.06.25,1.59.25.61,2.03,2.17,3.74,4.35,4.43s4.31.23,5.96-1c.77.9,1.79,1.61,3.01,2,2.82.9,5.79-.19,7.42-2.47.47.27.97.5,1.51.68,3.96,1.26,8.19-.93,9.45-4.88.06-.18.1-.36.14-.54,3.55.49,7.05-1.63,8.18-5.16.46-1.43.46-2.89.09-4.24,3.18.5,6.34-1.37,7.35-4.54.48-1.51.39-3.07-.15-4.44,2.97.19,5.8-1.64,6.75-4.6,1.05-3.29-.6-6.79-3.72-8.12,1.31-.86,2.35-2.16,2.86-3.77,1.19-3.73-.87-7.71-4.6-8.9-1.43-.46-2.9-.43-4.23-.02-.29-2.5-2.23-4.83-5.08-5.74-3.28-1.05-6.66.13-8.14,2.65-.9-1.24-2.25-2.25-3.9-2.77-3.26-1.04-6.62.12-8.11,2.6-.73-.58-1.57-1.04-2.51-1.34-4.06-1.29-8.39.85-9.87,4.8-.56-.51-1.23-.9-1.98-1.14-3.03-.96-6.32.9-7.36,4.16-.2.62-.3,1.24-.31,1.85-2.67-.41-5.2.86-5.92,3.13-.47,1.47-.07,3.04.92,4.3Z"/><line class="cls-11" x1="35.69" y1="65.5" x2="34.59" y2="68.95"/><line class="cls-11" x1="45.86" y1="74.4" x2="49.78" y2="71.89"/><line class="cls-11" x1="51.12" y1="62.78" x2="48.89" y2="62.06"/><line class="cls-11" x1="43.64" y1="55.12" x2="40.31" y2="56.84"/><line class="cls-11" x1="62.34" y1="72.22" x2="66.52" y2="70.77"/><line class="cls-11" x1="67.29" y1="65.44" x2="68.63" y2="61.25"/><line class="cls-11" x1="58.44" y1="52.4" x2="61.78" y2="50.68"/><line class="cls-11" x1="52.55" y1="49.13" x2="53.68" y2="45.6"/><line class="cls-11" x1="75.53" y1="55.06" x2="79.45" y2="53.52"/><line class="cls-11" x1="70.67" y1="46.08" x2="71.97" y2="42"/><path class="cls-5" d="m41.95,55.42c-1.5,0-2.93.32-4.24.89-1.38-2.49-4.16-4.2-7.37-4.2-4.58,0-8.29,3.46-8.29,7.72,0,.08.01.16.01.24-6.31,1.12-11.07,6.02-11.07,11.9,0,6.7,6.19,12.14,13.82,12.14,5.39,0,10.05-2.72,12.33-6.68,1.45.74,3.08,1.16,4.8,1.16,6.1,0,11.05-5.19,11.05-11.59s-4.95-11.59-11.05-11.59Z"/><path class="cls-10" d="m41.95,55.42c-1.5,0-2.93.32-4.24.89-1.38-2.49-4.16-4.2-7.37-4.2-4.58,0-8.29,3.46-8.29,7.72,0,.08.01.16.01.24-6.31,1.12-11.07,6.02-11.07,11.9,0,6.7,6.19,12.14,13.82,12.14,5.39,0,10.05-2.72,12.33-6.68,1.45.74,3.08,1.16,4.8,1.16,6.1,0,11.05-5.19,11.05-11.59s-4.95-11.59-11.05-11.59Z"/><path class="cls-6" d="m105.73,57.81c-1.33,0-2.6.25-3.78.68-.72-4.53-4.64-7.99-9.37-7.99-1.17,0-2.29.22-3.33.61-1.6-2.97-4.75-5-8.36-5-3.81,0-7.09,2.25-8.6,5.49-1.11-.69-2.41-1.1-3.82-1.1-4.04,0-7.31,3.27-7.31,7.31,0,.51.05,1.01.15,1.49-6.59.3-11.85,5.73-11.85,12.39s5.17,12.01,11.69,12.39v.04h43.85v-4.42c.24.02.48.04.73.04,6.05,0,10.96-4.91,10.96-10.96s-4.91-10.96-10.96-10.96Z"/><path class="cls-10" d="m105.73,57.81c-1.33,0-2.6.25-3.78.68-.72-4.53-4.64-7.99-9.37-7.99-1.17,0-2.29.22-3.33.61-1.6-2.97-4.75-5-8.36-5-3.81,0-7.09,2.25-8.6,5.49-1.11-.69-2.41-1.1-3.82-1.1-4.04,0-7.31,3.27-7.31,7.31,0,.51.05,1.01.15,1.49-6.59.3-11.85,5.73-11.85,12.39s5.17,12.01,11.69,12.39v.04h43.85v-4.42c.24.02.48.04.73.04,6.05,0,10.96-4.91,10.96-10.96s-4.91-10.96-10.96-10.96Z"/><line class="cls-11" x1="26.09" y1="71.41" x2="27.22" y2="67.88"/><line class="cls-11" x1="67.09" y1="73.41" x2="68.8" y2="68.05"/><line class="cls-11" x1="77.49" y1="59.91" x2="79.5" y2="65.11"/><line class="cls-11" x1="92.17" y1="75.37" x2="97.86" y2="74.4"/><line class="cls-11" x1="92.17" y1="62.61" x2="93.5" y2="58.61"/><path class="cls-1" d="m104.98,122.61H20.02c-2.05,0-3.81-1.45-4.22-3.46l-7.31-39.54h108l-7.31,39.54c-.4,2.01-2.17,3.46-4.22,3.46Z"/><polygon class="cls-3" points="26.5 85.61 32 122.61 47.17 122.61 44.5 85.61 26.5 85.61"/><polygon class="cls-3" points="62.34 122.61 76.83 122.61 79.45 85.61 62.5 85.61 62.34 122.61"/><polygon class="cls-3" points="97.86 85.61 92.17 122.61 108.38 122.61 114.37 85.61 97.86 85.61"/><path class="cls-11" d="m104.98,122.61H20.02c-2.05,0-3.81-1.45-4.22-3.46l-7.31-39.54h108l-7.31,39.54c-.4,2.01-2.17,3.46-4.22,3.46Z"/><rect class="cls-4" x="2.5" y="73.61" width="120" height="12" rx="6" ry="6"/><rect class="cls-11" x="2.5" y="73.61" width="120" height="12" rx="6" ry="6"/><line class="cls-11" x1="26.5" y1="85.61" x2="31.83" y2="122.61"/><line class="cls-11" x1="44.5" y1="85.61" x2="47.17" y2="122.61"/><line class="cls-11" x1="97.5" y1="85.61" x2="92.17" y2="122.61"/><line class="cls-11" x1="79.5" y1="85.61" x2="76.83" y2="122.61"/><line class="cls-11" x1="62.34" y1="85.61" x2="62.34" y2="122.61"/><path class="cls-9" d="m9.71,6.6l2.96.95c.55.18,1.15.07,1.61-.28l2.46-1.9c1.15-.89,2.82-.07,2.83,1.38v3.11c.01.58.3,1.12.77,1.44l2.57,1.75c1.2.82.94,2.66-.44,3.12l-2.95.97c-.55.18-.97.62-1.14,1.17l-.88,2.98c-.41,1.4-2.24,1.72-3.1.54l-1.83-2.51c-.34-.47-.89-.73-1.47-.72l-3.11.09c-1.45.04-2.32-1.6-1.47-2.78l1.82-2.52c.34-.47.42-1.07.23-1.62l-1.04-2.93c-.49-1.37.8-2.71,2.19-2.26Z"/><path class="cls-8" d="m17.81,5c.91,0,1.76.71,1.76,1.75v3.11c.01.58.3,1.12.77,1.44l2.57,1.75c1.2.82.94,2.66-.44,3.12l-2.95.97c-.55.18-.97.62-1.14,1.17l-.88,2.98c-.24.81-.96,1.26-1.69,1.26-.52,0-1.05-.23-1.41-.72l-1.83-2.51c-.33-.45-.86-.72-1.42-.72-.02,0-.03,0-.05,0l-3.11.09s-.04,0-.05,0c-1.42,0-2.26-1.62-1.42-2.78l1.82-2.52c.34-.47.42-1.07.23-1.62l-1.04-2.93c-.42-1.19.49-2.35,1.64-2.35.18,0,.36.03.55.09l2.96.95c.18.06.36.08.54.08.38,0,.76-.13,1.07-.37l2.46-1.9c.33-.25.7-.37,1.06-.37m0-5c-1.5,0-2.92.49-4.12,1.41l-1.11.86-1.33-.43c-.67-.22-1.37-.33-2.08-.33-2.19,0-4.25,1.07-5.52,2.87-1.26,1.79-1.57,4.09-.84,6.16l.47,1.32-.82,1.14c-1.49,2.07-1.7,4.76-.54,7.03,1.16,2.27,3.46,3.68,6.01,3.68.07,0,.13,0,.2,0l1.4-.04.83,1.13c1.27,1.73,3.3,2.77,5.44,2.77,3.03,0,5.64-1.95,6.49-4.85l.39-1.34,1.33-.44c2.46-.81,4.22-2.9,4.58-5.47.36-2.56-.74-5.07-2.88-6.53l-1.16-.79v-1.4c-.02-3.71-3.05-6.74-6.77-6.74h0Z"/><path class="cls-4" d="m84.95,16.68l-2.06.9c-.38.17-.66.51-.74.92l-.42,2.21c-.2,1.03-1.5,1.39-2.19.6l-1.49-1.68c-.28-.31-.69-.47-1.11-.42l-2.23.28c-1.04.13-1.78-.99-1.25-1.9l1.14-1.94c.21-.36.23-.8.05-1.18l-.95-2.04c-.45-.95.39-2,1.42-1.78l2.2.48c.41.09.83-.03,1.14-.31l1.64-1.54c.77-.72,2.03-.25,2.13.8l.22,2.24c.04.42.28.78.65.99l1.97,1.09c.92.51.86,1.85-.1,2.27Z"/><path class="cls-8" d="m80.94,8.96c.61,0,1.2.44,1.27,1.15l.22,2.24c.04.42.28.78.65.99l1.97,1.09c.92.51.86,1.85-.1,2.27l-2.06.9c-.38.17-.66.51-.74.92l-.42,2.21c-.12.65-.68,1.03-1.25,1.03-.34,0-.68-.13-.94-.43l-1.49-1.68c-.24-.27-.59-.43-.95-.43-.05,0-.1,0-.16,0l-2.23.28c-.06,0-.11.01-.17.01-.95,0-1.59-1.05-1.09-1.91l1.14-1.94c.21-.36.23-.8.05-1.18l-.95-2.04c-.41-.86.25-1.81,1.14-1.81.09,0,.18,0,.28.03l2.2.48c.09.02.18.03.27.03.32,0,.63-.12.87-.34l1.64-1.54c.25-.24.56-.34.86-.34m0-5h0c-1.59,0-3.11.6-4.28,1.7l-.21.2-.28-.06c-.44-.1-.9-.15-1.35-.15-2.15,0-4.13,1.09-5.28,2.91-1.16,1.82-1.3,4.07-.38,6.02l.12.26-.14.25c-1.13,1.93-1.14,4.34-.03,6.28,1.12,1.94,3.2,3.15,5.43,3.15.26,0,.53-.02.79-.05l.28-.04.19.21c1.19,1.34,2.89,2.1,4.68,2.1,3,0,5.6-2.14,6.16-5.09l.05-.28.26-.11c2.2-.96,3.64-3.06,3.75-5.46.11-2.4-1.13-4.61-3.23-5.78l-.25-.14-.03-.28c-.32-3.22-3-5.65-6.25-5.65h0Z"/><path class="cls-1" d="m30.35,43.04l.74,2.12c.14.39.46.7.86.8l2.17.59c1.01.28,1.27,1.6.44,2.23l-1.79,1.36c-.33.25-.52.65-.5,1.07l.11,2.25c.05,1.05-1.13,1.7-1.99,1.1l-1.85-1.28c-.34-.24-.78-.29-1.17-.14l-2.1.8c-.98.37-1.97-.54-1.67-1.55l.65-2.15c.12-.4.04-.83-.23-1.16l-1.41-1.75c-.66-.82-.09-2.04.96-2.06l2.25-.05c.42,0,.8-.22,1.03-.57l1.23-1.88c.58-.88,1.91-.72,2.26.28Z"/><path class="cls-8" d="m29.15,42.19c.51,0,1.01.3,1.2.85l.74,2.12c.14.39.46.7.86.8l2.17.59c1.01.28,1.27,1.6.44,2.23l-1.79,1.36c-.33.25-.52.65-.5,1.07l.11,2.24c.04.77-.59,1.33-1.27,1.33-.24,0-.49-.07-.72-.23l-1.85-1.28c-.22-.15-.47-.23-.72-.23-.15,0-.3.03-.45.08l-2.1.8c-.15.06-.31.08-.46.08-.8,0-1.47-.79-1.21-1.64l.65-2.15c.12-.4.04-.83-.23-1.16l-1.41-1.75c-.66-.82-.09-2.04.96-2.06l2.25-.05c.42,0,.8-.22,1.03-.57l1.23-1.88c.25-.39.66-.57,1.06-.57m0-5h0c-2.12,0-4.08,1.06-5.24,2.83l-.16.24h-.29c-2.4.06-4.53,1.45-5.54,3.63-1.01,2.18-.71,4.7.8,6.57l.18.22-.08.27c-.58,1.92-.22,3.94.97,5.54,1.18,1.59,3.06,2.53,5.03,2.53.76,0,1.51-.14,2.23-.41l.27-.1.24.16c1.06.73,2.29,1.12,3.56,1.12,1.71,0,3.37-.71,4.55-1.95,1.19-1.25,1.8-2.89,1.72-4.62v-.29s.21-.17.21-.17c1.91-1.46,2.81-3.83,2.35-6.19s-2.19-4.22-4.51-4.85l-.28-.08-.09-.27c-.88-2.51-3.26-4.2-5.92-4.2h0Z"/><path class="cls-11" d="m26.09,24.93s11.71,2.65,16.56,20.67"/><path class="cls-11" d="m66.5,23.61s-8,3-6,16"/></g></svg>