<?xml version="1.0" encoding="UTF-8"?><svg id="Layer_2" xmlns="http://www.w3.org/2000/svg" viewBox="0 0 125 125"><defs><style>.cls-1{fill:#ff5751;}.cls-2{fill:#e7a400;}.cls-3{fill:#fff;}.cls-4{fill:#ffc983;}.cls-5{fill:#fdf2ea;}.cls-6{fill:#78c565;}.cls-7{stroke-linejoin:round;}.cls-7,.cls-8{fill:none;stroke:#2a1c18;stroke-linecap:round;stroke-width:5px;}.cls-8{stroke-miterlimit:10;}</style></defs><g id="_레이어_2"><rect class="cls-4" x="2.5" y="2.5" width="120" height="120" rx="25" ry="25"/><rect class="cls-8" x="2.5" y="2.5" width="120" height="120" rx="25" ry="25"/><path class="cls-5" d="m35.74,34.95l-7.75-12.12c1.17-.92,2.03-2.24,2.38-3.8.79-3.61-1.49-7.17-5.09-7.97-3.61-.79-7.17,1.49-7.97,5.09-3.61-.79-7.17,1.49-7.97,5.09-.79,3.61,1.49,7.17,5.09,7.97,1.57.34,3.12.11,4.45-.56l7.01,10.96"/><path class="cls-8" d="m35.74,34.95l-7.75-12.12c1.17-.92,2.03-2.24,2.38-3.8.79-3.61-1.49-7.17-5.09-7.97-3.61-.79-7.17,1.49-7.97,5.09-3.61-.79-7.17,1.49-7.97,5.09-.79,3.61,1.49,7.17,5.09,7.97,1.57.34,3.12.11,4.45-.56l7.01,10.96"/><path class="cls-2" d="m44.66,99.96c.67,2.16,2.56,3.96,5.06,4.51,2.42.53,4.8-.23,6.32-1.8.54.28,1.13.5,1.76.64,2.53.56,5.02-.3,6.53-2.02.72.49,1.56.87,2.48,1.07,3.61.79,7.13-1.28,7.87-4.63.24-1.08.15-2.16-.19-3.15,2.37-.52,4.31-2.25,4.83-4.63.13-.58.16-1.17.11-1.74,2.12-.85,3.8-2.71,4.33-5.11s-.18-4.65-1.66-6.31c.89-.92,1.55-2.09,1.85-3.43.69-3.12-.77-6.21-3.4-7.73.25-.53.45-1.09.58-1.69.96-4.38-1.81-8.71-6.19-9.68-.2-.04-.4-.07-.6-.1.17-3.87-2.45-7.42-6.36-8.28-1.58-.35-3.15-.2-4.57.32.22-3.47-2.1-6.68-5.6-7.45-1.67-.37-3.34-.12-4.76.6-.09-3.21-2.34-6.07-5.62-6.79-3.64-.8-7.24,1.32-8.36,4.8-1.05-1.32-2.55-2.31-4.33-2.7-4.12-.91-8.2,1.7-9.11,5.82-.35,1.58-.17,3.16.4,4.55-2.66.56-4.97,2.87-5.66,6.03-.8,3.63.8,7.15,3.66,8.48-1.24,1.09-2.19,2.64-2.6,4.47-.79,3.6.78,7.1,3.6,8.46-.55.84-.96,1.79-1.19,2.83-.99,4.49,1.74,8.93,6.13,10.13-.49.65-.84,1.41-1.03,2.24-.74,3.35,1.59,6.71,5.2,7.5.68.15,1.36.2,2.02.15-.17,2.91,1.44,5.5,3.95,6.05,1.63.36,3.28-.22,4.53-1.42Z"/><path class="cls-7" d="m44.66,99.96c.67,2.16,2.56,3.96,5.06,4.51,2.42.53,4.8-.23,6.32-1.8.54.28,1.13.5,1.76.64,2.53.56,5.02-.3,6.53-2.02.72.49,1.56.87,2.48,1.07,3.61.79,7.13-1.28,7.87-4.63.24-1.08.15-2.16-.19-3.15,2.37-.52,4.31-2.25,4.83-4.63.13-.58.16-1.17.11-1.74,2.12-.85,3.8-2.71,4.33-5.11s-.18-4.65-1.66-6.31c.89-.92,1.55-2.09,1.85-3.43.69-3.12-.77-6.21-3.4-7.73.25-.53.45-1.09.58-1.69.96-4.38-1.81-8.71-6.19-9.68-.2-.04-.4-.07-.6-.1.17-3.87-2.45-7.42-6.36-8.28-1.58-.35-3.15-.2-4.57.32.22-3.47-2.1-6.68-5.6-7.45-1.67-.37-3.34-.12-4.76.6-.09-3.21-2.34-6.07-5.62-6.79-3.64-.8-7.24,1.32-8.36,4.8-1.05-1.32-2.55-2.31-4.33-2.7-4.12-.91-8.2,1.7-9.11,5.82-.35,1.58-.17,3.16.4,4.55-2.66.56-4.97,2.87-5.66,6.03-.8,3.63.8,7.15,3.66,8.48-1.24,1.09-2.19,2.64-2.6,4.47-.79,3.6.78,7.1,3.6,8.46-.55.84-.96,1.79-1.19,2.83-.99,4.49,1.74,8.93,6.13,10.13-.49.65-.84,1.41-1.03,2.24-.74,3.35,1.59,6.71,5.2,7.5.68.15,1.36.2,2.02.15-.17,2.91,1.44,5.5,3.95,6.05,1.63.36,3.28-.22,4.53-1.42Z"/><line class="cls-8" x1="63.11" y1="90.3" x2="59.29" y2="89.46"/><line class="cls-8" x1="67.85" y1="77.65" x2="64.76" y2="73.68"/><line class="cls-8" x1="54.83" y1="73.14" x2="54.29" y2="75.61"/><line class="cls-8" x1="47.34" y1="81.94" x2="49.52" y2="85.35"/><line class="cls-8" x1="63.87" y1="60.14" x2="61.89" y2="55.8"/><line class="cls-8" x1="56.09" y1="55.5" x2="51.46" y2="54.48"/><line class="cls-8" x1="42.96" y1="66.3" x2="40.77" y2="62.89"/><line class="cls-8" x1="40.02" y1="72.96" x2="36.11" y2="72.1"/><line class="cls-8" x1="44.12" y1="47.67" x2="42.08" y2="43.61"/><line class="cls-8" x1="34.95" y1="53.78" x2="30.44" y2="52.79"/><path class="cls-1" d="m91.5,46.5c0,4.97-4.03,9-9,9s-9-4.03-9-9h-17l4,40h44l4-40h-17Z"/><polyline class="cls-2" points="70.5 46.5 70.5 13.5 82.5 13.5 82.5 55.5"/><polygon class="cls-2" points="82.5 27 82.74 23.16 94.72 23.92 93.29 46.51 90 54 82.5 55.5 82.5 27"/><polyline class="cls-7" points="70.5 46.5 70.5 13.5 82.5 13.5 82.5 55.5"/><polyline class="cls-2" points="59.25 46.5 54.95 23.97 66.74 21.72 71.47 46.51"/><polyline class="cls-7" points="59.25 46.5 54.95 23.97 66.74 21.72 71.47 46.51"/><polyline class="cls-7" points="82.5 27 82.74 23.16 94.72 23.92 93.29 46.51"/><polyline class="cls-2" points="94.72 46.32 101.81 27.64 113.03 31.9 107.48 46.51"/><polyline class="cls-7" points="94.72 46.32 101.81 27.64 113.03 31.9 107.48 46.51"/><path class="cls-7" d="m91.5,46.5c0,4.97-4.03,9-9,9s-9-4.03-9-9h-17l4,40h44l4-40h-17Z"/><ellipse class="cls-3" cx="83" cy="71" rx="11" ry="7"/><ellipse class="cls-7" cx="83" cy="71" rx="11" ry="7"/><path class="cls-1" d="m2.5,86.5h120v11c0,13.8-11.2,25-25,25H27.5c-13.8,0-25-11.2-25-25v-11h0Z"/><path class="cls-1" d="m2.5,86.5h120v11c0,13.8-11.2,25-25,25H27.5c-13.8,0-25-11.2-25-25v-11h0Z"/><rect class="cls-6" x="22.5" y="87.5" width="20" height="35"/><rect class="cls-6" x="62" y="88" width="20" height="35"/><path class="cls-6" d="m103,88v33.89c11.16-2.51,19.5-12.47,19.5-24.39v-9.5h-19.5Z"/><path class="cls-7" d="m2.5,86.5h120v11c0,13.8-11.2,25-25,25H27.5c-13.8,0-25-11.2-25-25v-11h0Z"/><path class="cls-7" d="m2.5,86.5h120v11c0,13.8-11.2,25-25,25H27.5c-13.8,0-25-11.2-25-25v-11h0Z"/><line class="cls-8" x1="22.5" y1="89.36" x2="22.5" y2="122"/><line class="cls-8" x1="42.5" y1="89.36" x2="42.5" y2="122"/><line class="cls-8" x1="62.5" y1="89.36" x2="62.5" y2="122"/><line class="cls-8" x1="82.5" y1="89.36" x2="82.5" y2="122"/><line class="cls-8" x1="102.5" y1="89.36" x2="102.5" y2="122"/></g></svg>