<?xml version="1.0" encoding="UTF-8"?><svg id="Layer_2" xmlns="http://www.w3.org/2000/svg" viewBox="0 0 124.67 124.58"><defs><style>.cls-1{fill:#ff5751;}.cls-2{fill:#e7a400;}.cls-3{fill:#ffc863;}.cls-4{fill:#fdf2ea;}.cls-5,.cls-6{stroke-linejoin:round;}.cls-5,.cls-6,.cls-7,.cls-8{fill:none;stroke-linecap:round;stroke-width:5px;}.cls-5,.cls-8{stroke:#fff;}.cls-6,.cls-7{stroke:#2a1c18;}.cls-7,.cls-8{stroke-miterlimit:10;}</style></defs><g id="_레이어_2"><path class="cls-3" d="m63.71,30.45c-.6,0-1.19.07-1.77.18.16-.71.25-1.45.25-2.21,0-5.56-4.51-10.06-10.06-10.06-.6,0-1.19.06-1.77.16-.93-5.3-5.54-9.32-11.1-9.32-5.91,0-10.75,4.55-11.23,10.33-1.36-.75-2.92-1.17-4.59-1.17-5.27,0-9.54,4.27-9.54,9.54,0,2.06.66,3.97,1.78,5.53-5.14.66-9.08,4.38-9.08,8.88,0,1.43.41,2.78,1.11,3.98-1.5,1.42-2.42,3.26-2.42,5.28,0,4.46,4.44,8.08,9.91,8.08,2.25,0,4.32-.62,5.99-1.65.95,6.17,4.57,10.78,8.91,10.78,3.24,0,6.08-2.58,7.71-6.45,1.19.48,2.53.76,3.95.76,3.51,0,6.53-1.65,7.93-4.02.97.38,2,.59,3.09.59,4.57,0,8.37-3.66,9.23-8.52.55.11,1.12.17,1.7.17,5.33,0,9.65-4.67,9.65-10.43s-4.32-10.43-9.65-10.43Z"/><path class="cls-6" d="m63.71,30.45c-.6,0-1.19.07-1.77.18.16-.71.25-1.45.25-2.21,0-5.56-4.51-10.06-10.06-10.06-.6,0-1.19.06-1.77.16-.93-5.3-5.54-9.32-11.1-9.32-5.91,0-10.75,4.55-11.23,10.33-1.36-.75-2.92-1.17-4.59-1.17-5.27,0-9.54,4.27-9.54,9.54,0,2.06.66,3.97,1.78,5.53-5.14.66-9.08,4.38-9.08,8.88,0,1.43.41,2.78,1.11,3.98-1.5,1.42-2.42,3.26-2.42,5.28,0,4.46,4.44,8.08,9.91,8.08,2.25,0,4.32-.62,5.99-1.65.95,6.17,4.57,10.78,8.91,10.78,3.24,0,6.08-2.58,7.71-6.45,1.19.48,2.53.76,3.95.76,3.51,0,6.53-1.65,7.93-4.02.97.38,2,.59,3.09.59,4.57,0,8.37-3.66,9.23-8.52.55.11,1.12.17,1.7.17,5.33,0,9.65-4.67,9.65-10.43s-4.32-10.43-9.65-10.43Z"/><path class="cls-1" d="m73.36,16.34C67.97,6.74,50.84,1.87,40.03,2.57,22.06,3.73,2.1,15.98,2.51,28.31c.06,1.82.57,3.77,1.42,5.57,2.03,4.28,3.17,24.07,3.17,28.81h0c0,3.17,2.44,5.93,5.61,6.03,3.28.1,5.97-2.53,5.97-5.79h0c0-6.26,2.59-27.37,7.14-31.66,3.46-3.26,7.36-6.12,12.42-6.15,4.24-.03,7.47,1.94,10.31,4.31s4.46,5.98,4.46,9.72h0c0,3.17,2.44,5.93,5.61,6.03,3.28.1,5.97-2.53,5.97-5.79v-.18c0-1.56.8-2.99,2.06-3.9,5.62-4.06,10.05-13.02,6.72-18.96Z"/><path class="cls-6" d="m73.36,16.34C67.97,6.74,50.84,1.87,40.03,2.57,22.06,3.73,2.1,15.98,2.51,28.31c.06,1.82.57,3.77,1.42,5.57,2.03,4.28,3.17,24.07,3.17,28.81h0c0,3.17,2.44,5.93,5.61,6.03,3.28.1,5.97-2.53,5.97-5.79h0c0-6.26,2.59-27.37,7.14-31.66,3.46-3.26,7.36-6.12,12.42-6.15,4.24-.03,7.47,1.94,10.31,4.31s4.46,5.98,4.46,9.72h0c0,3.17,2.44,5.93,5.61,6.03,3.28.1,5.97-2.53,5.97-5.79v-.18c0-1.56.8-2.99,2.06-3.9,5.62-4.06,10.05-13.02,6.72-18.96Z"/><line class="cls-6" x1="30.05" y1="41.54" x2="27.65" y2="45.98"/><line class="cls-6" x1="41.03" y1="48.52" x2="44.42" y2="52.72"/><line class="cls-6" x1="42.72" y1="35.35" x2="44.42" y2="37.55"/><line class="cls-5" x1="11.96" y1="22.78" x2="13.91" y2="27.9"/><line class="cls-5" x1="23.46" y1="16.59" x2="28.85" y2="13.4"/><line class="cls-5" x1="50.36" y1="18.52" x2="57.39" y2="21.58"/><path class="cls-4" d="m46.19,110.9l6.42-6.42-9.9-9.9-6.36,6.36c-2.73-2.73-7.17-2.73-9.9,0s-2.73,7.17,0,9.9c2.09,2.09,5.16,2.58,7.72,1.48-1.1,2.56-.61,5.63,1.48,7.72,2.73,2.73,7.17,2.73,9.9,0,2.49-2.49,2.7-6.39.65-9.14Z"/><path class="cls-6" d="m46.19,110.9l6.42-6.42-9.9-9.9-6.36,6.36c-2.73-2.73-7.17-2.73-9.9,0s-2.73,7.17,0,9.9c2.09,2.09,5.16,2.58,7.72,1.48-1.1,2.56-.61,5.63,1.48,7.72,2.73,2.73,7.17,2.73,9.9,0,2.49-2.49,2.7-6.39.65-9.14Z"/><path class="cls-2" d="m82.92,34.4c-12.57.99-22.99,10.73-24.76,23.21-.33,2.35-.36,4.64-.13,6.86.41,3.88-.89,7.75-3.4,10.73l-11.09,13.21c-3.27,3.89-3.02,9.64.57,13.24l1.43,1.43c3.6,3.6,9.34,3.84,13.24.57l13.7-11.51c2.89-2.42,6.6-3.74,10.35-3.43,2.22.19,4.52.11,6.87-.29,12.35-2.07,21.82-12.59,22.61-25.09,1.05-16.59-12.76-30.24-29.4-28.93Z"/><path class="cls-7" d="m82.92,34.4c-12.57.99-22.99,10.73-24.76,23.21-.33,2.35-.36,4.64-.13,6.86.41,3.88-.89,7.75-3.4,10.73l-11.09,13.21c-3.27,3.89-3.02,9.64.57,13.24l1.43,1.43c3.6,3.6,9.34,3.84,13.24.57l13.7-11.51c2.89-2.42,6.6-3.74,10.35-3.43,2.22.19,4.52.11,6.87-.29,12.35-2.07,21.82-12.59,22.61-25.09,1.05-16.59-12.76-30.24-29.4-28.93Z"/><path class="cls-1" d="m121.48,47.97c-5.69-14.54-19.43-23.94-35.01-23.94-20.51,0-37.23,16.56-37.59,37.05-.1,5.54,4.03,10.44,9.57,10.67,5.72.24,10.43-4.33,10.43-9.99,0-3.03.76-5.88,2.09-8.37,1.82-3.4,7.01-2.02,7.01,1.83v2.09c0,3.26,2.51,6.11,5.77,6.2,3.37.1,6.14-2.6,6.14-5.95v-4.18c0-5,6.14-7.36,9.52-3.67,1.45,1.58,2.63,3.45,3.45,5.55v.03c.87,2.19,1.58,5.92,1.58,8.28v13.17c0,3.83,2.95,7.18,6.79,7.29s7.22-3.06,7.22-7v-6.18c0-5.34,1.08-10.6,3.03-15.57.89-2.27.97-4.86,0-7.31Z"/><path class="cls-1" d="m121.48,47.97c-5.69-14.54-19.43-23.94-35.01-23.94-20.51,0-37.23,16.56-37.59,37.05-.1,5.54,4.03,10.44,9.57,10.67,5.72.24,10.43-4.33,10.43-9.99,0-3.03.76-5.88,2.09-8.37,1.82-3.4,7.01-2.02,7.01,1.83v2.09c0,3.26,2.51,6.11,5.77,6.2,3.37.1,6.14-2.6,6.14-5.95v-4.18c0-5,6.14-7.36,9.52-3.67,1.45,1.58,2.63,3.45,3.45,5.55v.03c.87,2.19,1.58,5.92,1.58,8.28v13.17c0,3.83,2.95,7.18,6.79,7.29s7.22-3.06,7.22-7v-6.18c0-5.34,1.08-10.6,3.03-15.57.89-2.27.97-4.86,0-7.31Z"/><path class="cls-7" d="m121.48,47.97c-5.69-14.54-19.43-23.94-35.01-23.94-20.51,0-37.23,16.56-37.59,37.05-.1,5.54,4.03,10.44,9.57,10.67,5.72.24,10.43-4.33,10.43-9.99,0-3.03.76-5.88,2.09-8.37,1.82-3.4,7.01-2.02,7.01,1.83v2.09c0,3.26,2.51,6.11,5.77,6.2,3.37.1,6.14-2.6,6.14-5.95v-4.18c0-5,6.14-7.36,9.52-3.67,1.45,1.58,2.63,3.45,3.45,5.55v.03c.87,2.19,1.58,5.92,1.58,8.28v13.17c0,3.83,2.95,7.18,6.79,7.29s7.22-3.06,7.22-7v-6.18c0-5.34,1.08-10.6,3.03-15.57.89-2.27.97-4.86,0-7.31Z"/><line class="cls-7" x1="76.81" y1="70.96" x2="82.49" y2="69.96"/><line class="cls-7" x1="61.86" y1="84.03" x2="59.68" y2="88.07"/><line class="cls-7" x1="73.33" y1="80.75" x2="76.33" y2="80.75"/><line class="cls-7" x1="96.78" y1="63.46" x2="97.94" y2="67.95"/><line class="cls-8" x1="81.33" y1="35.64" x2="82.49" y2="40.13"/><line class="cls-8" x1="62.69" y1="44.67" x2="62.69" y2="48.5"/><line class="cls-8" x1="99.1" y1="40.13" x2="103.43" y2="41.01"/><circle class="cls-1" cx="111.22" cy="101.01" r="7.32"/><circle class="cls-7" cx="111.22" cy="101.01" r="7.32"/><rect class="cls-1" x="6.94" y="76.67" width="12.41" height="22.36" rx="6.21" ry="6.21"/><rect class="cls-6" x="6.94" y="76.67" width="12.41" height="22.36" rx="6.21" ry="6.21"/></g></svg>