<?xml version="1.0" encoding="UTF-8"?><svg id="Layer_2" xmlns="http://www.w3.org/2000/svg" viewBox="0 0 125 125"><defs><style>.cls-1{fill:#ecac4a;}.cls-2{fill:#ff5751;}.cls-3{fill:#c68010;}.cls-4{fill:#a8724b;}.cls-5{fill:#2a1c18;}.cls-6{stroke-linejoin:round;}.cls-6,.cls-7{fill:none;stroke:#2a1c18;stroke-linecap:round;stroke-width:5px;}.cls-7{stroke-miterlimit:10;}</style></defs><g id="_격리_모드"><path class="cls-2" d="m20.88,70.63s-9.82,7.49-9.82,23.45c0,5.42,4.39,9.82,9.82,9.82s9.82-4.39,9.82-9.82c0-15.96-9.82-23.45-9.82-23.45Z"/><path class="cls-1" d="m20.88,84.45s-5.07,3.87-5.07,12.11c0,2.8,2.27,5.07,5.07,5.07s5.07-2.27,5.07-5.07c0-8.24-5.07-12.11-5.07-12.11Z"/><path class="cls-6" d="m20.88,70.63s-9.82,7.49-9.82,23.45c0,5.42,4.39,9.82,9.82,9.82s9.82-4.39,9.82-9.82c0-15.96-9.82-23.45-9.82-23.45Z"/><path class="cls-2" d="m48.63,70.63s-9.82,7.49-9.82,23.45c0,5.42,4.39,9.82,9.82,9.82s9.82-4.39,9.82-9.82c0-15.96-9.82-23.45-9.82-23.45Z"/><path class="cls-1" d="m48.63,84.45s-5.07,3.87-5.07,12.11c0,2.8,2.27,5.07,5.07,5.07s5.07-2.27,5.07-5.07c0-8.24-5.07-12.11-5.07-12.11Z"/><path class="cls-6" d="m48.63,70.63s-9.82,7.49-9.82,23.45c0,5.42,4.39,9.82,9.82,9.82s9.82-4.39,9.82-9.82c0-15.96-9.82-23.45-9.82-23.45Z"/><path class="cls-2" d="m76.37,70.63s-9.82,7.49-9.82,23.45c0,5.42,4.39,9.82,9.82,9.82s9.82-4.39,9.82-9.82c0-15.96-9.82-23.45-9.82-23.45Z"/><path class="cls-1" d="m76.37,84.45s-5.07,3.87-5.07,12.11c0,2.8,2.27,5.07,5.07,5.07s5.07-2.27,5.07-5.07c0-8.24-5.07-12.11-5.07-12.11Z"/><path class="cls-6" d="m76.37,70.63s-9.82,7.49-9.82,23.45c0,5.42,4.39,9.82,9.82,9.82s9.82-4.39,9.82-9.82c0-15.96-9.82-23.45-9.82-23.45Z"/><path class="cls-2" d="m104.12,70.63s-9.82,7.49-9.82,23.45c0,5.42,4.39,9.82,9.82,9.82s9.82-4.39,9.82-9.82c0-15.96-9.82-23.45-9.82-23.45Z"/><path class="cls-1" d="m104.12,84.45s-5.07,3.87-5.07,12.11c0,2.8,2.27,5.07,5.07,5.07s5.07-2.27,5.07-5.07c0-8.24-5.07-12.11-5.07-12.11Z"/><path class="cls-6" d="m104.12,70.63s-9.82,7.49-9.82,23.45c0,5.42,4.39,9.82,9.82,9.82s9.82-4.39,9.82-9.82c0-15.96-9.82-23.45-9.82-23.45Z"/><path class="cls-3" d="m49.7,21.3c-6.07,6.59-4.46,15.36-9.52,20.17-3.43,3.27-5.78.9-14.26,4.65-4.68,2.07-11.29,4.99-12.15,9.94-.55,3.17,1.74,4.43,7.33,13.13,6.75,10.5,6.57,13.59,10.61,15.37,5.46,2.42,11.67-.63,14.7-2.12,8.07-3.96,17.61-13.16,18.22-24.51.61-11.35-8.25-14.06-7.84-29.12.1-3.63.74-8.03-1.32-9.11-2.03-1.06-3.56-.8-5.77,1.6Z"/><path class="cls-7" d="m49.7,21.3c-6.07,6.59-4.46,15.36-9.52,20.17-3.43,3.27-5.78.9-14.26,4.65-4.68,2.07-11.29,4.99-12.15,9.94-.55,3.17,1.74,4.43,7.33,13.13,6.75,10.5,6.57,13.59,10.61,15.37,5.46,2.42,11.67-.63,14.7-2.12,8.07-3.96,17.61-13.16,18.22-24.51.61-11.35-8.25-14.06-7.84-29.12.1-3.63.74-8.03-1.32-9.11-2.03-1.06-3.56-.8-5.77,1.6Z"/><path class="cls-7" d="m25.3,55.89s10.03,5.37,17.25,17.93"/><path class="cls-7" d="m36.41,50.43s10.37,4.16,16.06,14.83"/><path class="cls-7" d="m46.28,46.31c2.57,1.42,8.09,4.81,11.75,9.65"/><path class="cls-3" d="m95.69,21.3c-6.07,6.59-4.46,15.36-9.52,20.17-3.43,3.27-5.78.9-14.26,4.65-4.68,2.07-11.29,4.99-12.15,9.94-.55,3.17,1.74,4.43,7.33,13.13,6.75,10.5,6.57,13.59,10.61,15.37,5.46,2.42,11.67-.63,14.7-2.12,8.07-3.96,17.61-13.16,18.22-24.51.61-11.35-8.25-14.06-7.84-29.12.1-3.63.74-8.03-1.32-9.11-2.03-1.06-3.56-.8-5.77,1.6Z"/><path class="cls-7" d="m95.69,21.3c-6.07,6.59-4.46,15.36-9.52,20.17-3.43,3.27-5.78.9-14.26,4.65-4.68,2.07-11.29,4.99-12.15,9.94-.55,3.17,1.74,4.43,7.33,13.13,6.75,10.5,6.57,13.59,10.61,15.37,5.46,2.42,11.67-.63,14.7-2.12,8.07-3.96,17.61-13.16,18.22-24.51.61-11.35-8.25-14.06-7.84-29.12.1-3.63.74-8.03-1.32-9.11-2.03-1.06-3.56-.8-5.77,1.6Z"/><path class="cls-7" d="m71.29,55.89s10.03,5.37,17.25,17.93"/><path class="cls-7" d="m82.4,50.43s10.37,4.16,16.06,14.83"/><path class="cls-7" d="m92.27,46.31c2.57,1.42,8.09,4.81,11.75,9.65"/><path class="cls-4" d="m15.5,96.5h94c7.17,0,13,5.83,13,13h0c0,7.17-5.83,13-13,13H15.5v-26h0Z"/><path class="cls-6" d="m15.5,96.5h94c7.17,0,13,5.83,13,13h0c0,7.17-5.83,13-13,13H15.5v-26h0Z"/><circle class="cls-4" cx="15.5" cy="109.5" r="13"/><circle class="cls-5" cx="15.5" cy="109.5" r="1.71"/><circle class="cls-6" cx="15.5" cy="109.5" r="13"/><path class="cls-6" d="m21.6,109.5c0,3.37-2.73,6.1-6.1,6.1s-6.1-2.73-6.1-6.1,2.73-6.1,6.1-6.1"/><circle class="cls-4" cx="48.17" cy="109.5" r="13"/><circle class="cls-5" cx="48.17" cy="109.5" r="1.71"/><circle class="cls-6" cx="48.17" cy="109.5" r="13"/><path class="cls-6" d="m42.06,109.5c0-3.37,2.73-6.1,6.1-6.1s6.1,2.73,6.1,6.1-2.73,6.1-6.1,6.1"/><line class="cls-6" x1="82.7" y1="104.3" x2="101.53" y2="104.3"/><line class="cls-6" x1="103.99" y1="112.74" x2="119.9" y2="112.74"/><line class="cls-6" x1="69.24" y1="115.6" x2="85.15" y2="115.6"/><path class="cls-7" d="m19.21,2.5c0,4.55-4,4.55-4,9.1s4,4.55,4,9.1-4,4.55-4,9.1,4,4.55,4,9.1"/><path class="cls-7" d="m33.59,2.5c0,4.55-4,4.55-4,9.1s4,4.55,4,9.11-4,4.55-4,9.11"/><path class="cls-7" d="m70.02,2.5c0,4.55-4,4.55-4,9.1s4,4.55,4,9.1-4,4.55-4,9.1,4,4.55,4,9.1"/><path class="cls-7" d="m84.4,2.5c0,4.55-4,4.55-4,9.1s4,4.55,4,9.11-4,4.55-4,9.11"/></g></svg>