<?xml version="1.0" encoding="UTF-8"?><svg id="Layer_2" xmlns="http://www.w3.org/2000/svg" viewBox="0 0 125 124.4"><defs><style>.cls-1{fill:#ecac4a;}.cls-2{fill:#ff5751;}.cls-3{fill:#fff;}.cls-4{fill:#2a1c18;}.cls-5{fill:#78c565;}.cls-6{fill:none;stroke:#2a1c18;stroke-linecap:round;stroke-miterlimit:10;stroke-width:5px;}</style></defs><g id="_격리_모드"><path class="cls-2" d="m66.9,4.9l3.09,4.79c1.58,2.44,4.83,3.13,7.27,1.54l4.77-3.11c3.19-2.08,7.46-.18,8.04,3.58l.88,5.63c.45,2.87,3.14,4.83,6.01,4.37l5.63-.9c3.76-.6,6.88,2.87,5.89,6.54l-1.49,5.5c-.76,2.8.91,5.69,3.71,6.43l5.51,1.46c3.68.98,5.12,5.42,2.72,8.37l-3.6,4.42c-1.83,2.25-1.48,5.57.78,7.39l4.44,3.57c2.96,2.39,2.47,7.04-.92,8.76l-5.08,2.57c-2.59,1.31-3.62,4.48-2.3,7.07l2.6,5.07c1.74,3.39-.6,7.43-4.4,7.62l-5.69.28c-2.9.14-5.13,2.62-4.97,5.52l.31,5.69c.21,3.8-3.57,6.55-7.12,5.17l-5.31-2.05c-2.71-1.05-5.75.31-6.79,3.02l-2.03,5.32c-1.35,3.56-5.93,4.53-8.61,1.83l-4.02-4.04c-2.05-2.06-5.38-2.06-7.43,0l-4.02,4.04c-2.68,2.7-7.26,1.72-8.61-1.83l-2.03-5.32c-1.03-2.71-4.08-4.07-6.79-3.02l-5.31,2.05c-3.55,1.37-7.33-1.38-7.12-5.17l.31-5.69c.16-2.9-2.07-5.38-4.97-5.52l-5.69-.28c-3.8-.19-6.14-4.24-4.4-7.62l2.6-5.07c1.32-2.58.3-5.75-2.3-7.07l-5.08-2.57c-3.39-1.72-3.88-6.37-.92-8.76l4.44-3.57c2.26-1.82,2.61-5.14.78-7.39l-3.6-4.42c-2.4-2.95-.96-7.4,2.72-8.37l5.51-1.46c2.81-.74,4.47-3.63,3.71-6.43l-1.49-5.5c-.99-3.67,2.13-7.15,5.89-6.54l5.63.9c2.87.46,5.56-1.5,6.01-4.37l.88-5.63c.59-3.76,4.86-5.66,8.04-3.58l4.77,3.11c2.43,1.59,5.69.89,7.27-1.54l3.09-4.79c2.06-3.2,6.74-3.2,8.8,0Z"/><path class="cls-5" d="m67,21.84h0c1.39,3.01,5.27,3.83,7.76,1.65h0c3.18-2.79,8.16-.57,8.22,3.66h0c.04,3.31,3.26,5.65,6.42,4.67h0c4.04-1.25,7.69,2.8,6.02,6.69h0c-1.31,3.04.68,6.48,3.97,6.87h0c4.2.5,5.88,5.69,2.78,8.56h0c-2.43,2.25-2.01,6.2.83,7.89h0c3.63,2.16,3.06,7.59-.94,8.95h0c-3.13,1.07-4.36,4.85-2.45,7.55h0c2.44,3.45-.29,8.18-4.5,7.79h0c-3.3-.3-5.96,2.65-5.31,5.9h0c.82,4.15-3.59,7.35-7.28,5.29h0c-2.89-1.62-6.52,0-7.25,3.23h0c-.93,4.12-6.27,5.26-8.8,1.87h0c-1.98-2.65-5.96-2.65-7.94,0h0c-2.53,3.39-7.87,2.25-8.8-1.87h0c-.73-3.23-4.36-4.84-7.25-3.23h0c-3.69,2.06-8.1-1.14-7.28-5.29h0c.64-3.25-2.01-6.2-5.31-5.9h0c-4.21.38-6.94-4.34-4.5-7.79h0c1.91-2.7.68-6.48-2.45-7.55h0c-4-1.36-4.57-6.79-.94-8.95h0c2.84-1.69,3.26-5.65.83-7.89h0c-3.1-2.87-1.42-8.06,2.78-8.56h0c3.29-.39,5.27-3.83,3.97-6.87h0c-1.67-3.88,1.98-7.94,6.02-6.69h0c3.16.98,6.38-1.36,6.42-4.67h0c.06-4.23,5.04-6.45,8.22-3.66h0c2.49,2.18,6.38,1.35,7.76-1.65h0c1.77-3.84,7.23-3.84,9,0Z"/><path class="cls-6" d="m67,21.84h0c1.39,3.01,5.27,3.83,7.76,1.65h0c3.18-2.79,8.16-.57,8.22,3.66h0c.04,3.31,3.26,5.65,6.42,4.67h0c4.04-1.25,7.69,2.8,6.02,6.69h0c-1.31,3.04.68,6.48,3.97,6.87h0c4.2.5,5.88,5.69,2.78,8.56h0c-2.43,2.25-2.01,6.2.83,7.89h0c3.63,2.16,3.06,7.59-.94,8.95h0c-3.13,1.07-4.36,4.85-2.45,7.55h0c2.44,3.45-.29,8.18-4.5,7.79h0c-3.3-.3-5.96,2.65-5.31,5.9h0c.82,4.15-3.59,7.35-7.28,5.29h0c-2.89-1.62-6.52,0-7.25,3.23h0c-.93,4.12-6.27,5.26-8.8,1.87h0c-1.98-2.65-5.96-2.65-7.94,0h0c-2.53,3.39-7.87,2.25-8.8-1.87h0c-.73-3.23-4.36-4.84-7.25-3.23h0c-3.69,2.06-8.1-1.14-7.28-5.29h0c.64-3.25-2.01-6.2-5.31-5.9h0c-4.21.38-6.94-4.34-4.5-7.79h0c1.91-2.7.68-6.48-2.45-7.55h0c-4-1.36-4.57-6.79-.94-8.95h0c2.84-1.69,3.26-5.65.83-7.89h0c-3.1-2.87-1.42-8.06,2.78-8.56h0c3.29-.39,5.27-3.83,3.97-6.87h0c-1.67-3.88,1.98-7.94,6.02-6.69h0c3.16.98,6.38-1.36,6.42-4.67h0c.06-4.23,5.04-6.45,8.22-3.66h0c2.49,2.18,6.38,1.35,7.76-1.65h0c1.77-3.84,7.23-3.84,9,0Z"/><path class="cls-1" d="m62.5,32.2c-9.12,0-17.29,4.08-22.79,10.5H5.91c-1.32,1.82-1.43,4.44.16,6.39l3.6,4.42c1.83,2.25,1.48,5.57-.78,7.39l-4.44,3.57c-2.96,2.39-2.47,7.04.92,8.76l5.08,2.57c2.21,1.12,3.27,3.59,2.71,5.89h26.54c5.5,6.42,13.67,10.5,22.79,10.5s17.29-4.08,22.79-10.5h26.54c-.55-2.31.5-4.78,2.71-5.89l5.08-2.57c3.39-1.72,3.88-6.37.92-8.76l-4.44-3.57c-2.26-1.82-2.61-5.14-.78-7.39l3.6-4.42c1.59-1.96,1.49-4.57.16-6.39h-33.81c-5.5-6.42-13.67-10.5-22.79-10.5Z"/><path class="cls-6" d="m119.09,42.7h-29.08c-2.85,0-5.55-1.12-7.69-3.01-5.29-4.66-12.22-7.49-19.82-7.49s-14.54,2.83-19.82,7.49c-2.14,1.88-4.84,3.01-7.69,3.01H5.9"/><path class="cls-6" d="m13.18,81.7h21.81c2.85,0,5.55,1.12,7.69,3.01,5.29,4.66,12.22,7.49,19.82,7.49s14.54-2.83,19.82-7.49c2.14-1.88,4.84-3.01,7.69-3.01h21.82"/><path class="cls-6" d="m66.9,4.9l3.09,4.79c1.58,2.44,4.83,3.13,7.27,1.54l4.77-3.11c3.19-2.08,7.46-.18,8.04,3.58l.88,5.63c.45,2.87,3.14,4.83,6.01,4.37l5.63-.9c3.76-.6,6.88,2.87,5.89,6.54l-1.49,5.5c-.76,2.8.91,5.69,3.71,6.43l5.51,1.46c3.68.98,5.12,5.42,2.72,8.37l-3.6,4.42c-1.83,2.25-1.48,5.57.78,7.39l4.44,3.57c2.96,2.39,2.47,7.04-.92,8.76l-5.08,2.57c-2.59,1.31-3.62,4.48-2.3,7.07l2.6,5.07c1.74,3.39-.6,7.43-4.4,7.62l-5.69.28c-2.9.14-5.13,2.62-4.97,5.52l.31,5.69c.21,3.8-3.57,6.55-7.12,5.17l-5.31-2.05c-2.71-1.05-5.75.31-6.79,3.02l-2.03,5.32c-1.35,3.56-5.93,4.53-8.61,1.83l-4.02-4.04c-2.05-2.06-5.38-2.06-7.43,0l-4.02,4.04c-2.68,2.7-7.26,1.72-8.61-1.83l-2.03-5.32c-1.03-2.71-4.08-4.07-6.79-3.02l-5.31,2.05c-3.55,1.37-7.33-1.38-7.12-5.17l.31-5.69c.16-2.9-2.07-5.38-4.97-5.52l-5.69-.28c-3.8-.19-6.14-4.24-4.4-7.62l2.6-5.07c1.32-2.58.3-5.75-2.3-7.07l-5.08-2.57c-3.39-1.72-3.88-6.37-.92-8.76l4.44-3.57c2.26-1.82,2.61-5.14.78-7.39l-3.6-4.42c-2.4-2.95-.96-7.4,2.72-8.37l5.51-1.46c2.81-.74,4.47-3.63,3.71-6.43l-1.49-5.5c-.99-3.67,2.13-7.15,5.89-6.54l5.63.9c2.87.46,5.56-1.5,6.01-4.37l.88-5.63c.59-3.76,4.86-5.66,8.04-3.58l4.77,3.11c2.43,1.59,5.69.89,7.27-1.54l3.09-4.79c2.06-3.2,6.74-3.2,8.8,0Z"/><path class="cls-4" d="m93.62,51.13h-14.83c-2.28,0-4.3,1.1-5.59,2.78-.19-.25-.39-.49-.62-.72-1.33-1.33-3.1-2.06-4.97-2.06h-7.81v-1.46c0-2.1-1.14-4.04-2.98-5.07-1.84-1.02-4.09-.97-5.88.13l-2.37,1.47c-1.73,1.07-2.77,2.9-2.83,4.92h-6.35v-1.46c0-2.1-1.14-4.04-2.98-5.07-1.83-1.02-4.09-.97-5.88.13l-2.37,1.47c-1.78,1.1-2.84,3.01-2.84,5.1v14.92c0,3.88,3.16,7.04,7.04,7.04h14.84c.99,0,1.93-.21,2.79-.58.86.37,1.8.58,2.79.58h14.84c2.28,0,4.31-1.1,5.59-2.79,1.29,1.69,3.31,2.79,5.59,2.79h7.8v1.46c0,2.1,1.14,4.04,2.98,5.07.88.49,1.85.73,2.82.73,1.06,0,2.12-.29,3.05-.87l2.38-1.47c1.78-1.1,2.84-3.01,2.84-5.1v-14.91c0-3.88-3.16-7.04-7.04-7.04Z"/><path class="cls-3" d="m73.19,60.23c-1.13,0-2.06.92-2.06,2.06s.92,2.05,2.06,2.05,2.05-.92,2.05-2.05-.92-2.06-2.05-2.06Z"/><path class="cls-3" d="m47.19,56.13h-12.55c-.14,0-.25-.11-.25-.25v-6.2c0-.63-.69-1.01-1.22-.68l-2.37,1.47c-.29.18-.47.5-.47.85v14.92c0,1.12.92,2.04,2.04,2.04h14.84c1.13,0,2.04-.91,2.04-2.04v-8.06c0-1.12-.92-2.04-2.04-2.04Zm-12.8,8.9v-5.66c0-.13.12-.25.25-.25h10.23c.14,0,.25.11.25.25v5.66c0,.14-.11.25-.25.25h-10.23c-.14,0-.25-.11-.25-.25Z"/><path class="cls-3" d="m93.62,56.13h-14.83c-1.12,0-2.04.91-2.04,2.04v8.07c0,1.12.92,2.04,2.04,2.04h12.54c.14,0,.26.11.26.26v6.2c0,.63.69,1.01,1.22.68l2.38-1.47c.29-.18.47-.5.47-.85v-14.91c0-1.12-.92-2.04-2.04-2.04Zm-2.03,3.24v5.66c0,.14-.11.25-.25.25h-10.23c-.14,0-.25-.11-.25-.25v-5.66c0-.13.12-.25.25-.25h10.23c.13,0,.25.11.25.25Z"/><path class="cls-3" d="m67.6,56.13h-12.56c-.14,0-.25-.11-.25-.25v-6.2c0-.63-.69-1.01-1.22-.68l-2.37,1.47c-.29.18-.47.5-.47.85v14.92c0,1.13.91,2.04,2.04,2.04h14.84c1.12,0,2.03-.91,2.03-2.03v-8.07c0-1.12-.91-2.04-2.03-2.04Zm-2.08,3.24v5.66c0,.14-.11.25-.25.25h-10.23c-.14,0-.25-.11-.25-.25v-5.66c0-.13.12-.25.25-.25h10.23c.13,0,.25.12.25.25Z"/></g></svg>