<?xml version="1.0" encoding="UTF-8"?><svg id="Layer_2" xmlns="http://www.w3.org/2000/svg" viewBox="0 0 130.01 125"><defs><style>.cls-1{fill:#ff5751;}.cls-2{fill:#e7a400;}.cls-3{fill:#fff;}.cls-4{fill:#ffee92;}.cls-5{fill:#ffc863;}.cls-6{fill:#e53333;}.cls-7{fill:#fdf2ea;}.cls-8{fill:#78c565;}.cls-9{stroke:#fff;}.cls-9,.cls-10{stroke-linejoin:round;}.cls-9,.cls-10,.cls-11{fill:none;stroke-linecap:round;stroke-width:5px;}.cls-10,.cls-11{stroke:#2a1c18;}.cls-11{stroke-miterlimit:10;}</style></defs><g id="_레이어_2"><path class="cls-3" d="m67.51,2.5H27.51C16.47,2.5,7.51,11.45,7.51,22.5v80c0,11.05,8.95,20,20,20h40V2.5Z"/><path class="cls-6" d="m67.51,2.5h40c11.05,0,20,8.95,20,20v80c0,11.05-8.95,20-20,20h-40V2.5Z"/><rect class="cls-11" x="7.51" y="2.5" width="120" height="120" rx="20" ry="20"/><path class="cls-8" d="m63.83,89.11c1.34-.88,2.1-2.37.42-5.52-3.33-6.21-6.21-7.76-7.32-12.19-1.11-4.43,1.11-24.39,1.11-24.39,0,0-2.88-16.41-5.54-22.61-1.53-3.56-5.83-7.64-9.22-10.46,1.01-1.17,1.63-2.69,1.66-4.34.08-3.75-3.02-6.98-6.77-7.06-3.14-.06-5.81,1.97-6.72,4.79-.3.93-1.3,1.43-2.25,1.19-.88-.22-1.82-.27-2.8-.12-2.94.47-5.31,2.88-5.72,5.83-.33,2.34.52,4.5,2.04,5.97.68.66.66,1.72.05,2.45-.99,1.2-1.59,2.73-1.59,4.41,0,.41.04.82.11,1.21.1.55-.16,1.09-.65,1.36-.07.04-.15.08-.22.13-.34.21-.77.26-1.13.09-1.28-.58-2.78-.79-4.34-.46-2.67.56-4.8,2.75-5.29,5.44-.24,1.32-.11,2.58.3,3.71.53,1.45.09,3.03-1.16,3.94-1.95,1.4-3.19,3.56-3.19,5.98,0,.99.21,1.93.59,2.8.43.98.17,2.14-.67,2.81-1.84,1.46-3.03,3.72-3.03,6.25,0,3.19,1.87,5.93,4.58,7.21.86.4,1.35,1.28,1.34,2.22,0,0,0,.01,0,.02,0,2.35,1.18,4.43,2.97,5.67.87.6,1.41,1.57,1.53,2.62v.03c.06.49-.18.97-.62,1.2-2.01,1.06-3.38,3.09-3.38,5.41s1.23,4.15,3.08,5.25c.87.51,1.05,1.65.46,2.46-1.05,1.45-1.66,3.2-1.66,5.09,0,4.11,2.9,7.59,6.88,8.74.9.26,1.54,1.04,1.54,1.97v.1c0,4.16,3.55,7.54,7.93,7.54,1.12,0,2.19-.23,3.16-.63.98-.41,2.08-.24,2.86.47,1.54,1.41,3.54,2.26,5.73,2.26,4.87,0,8.81-4.19,8.81-9.37,0-.36-.02-.71-.06-1.06,1.68-.34,3.14-1.42,4.13-2.95.43-.66,1.25-.96,2.02-.78.56.13,1.13.2,1.72.2,4.62,0,8.37-4.07,8.37-9.09,0-1.35-.27-2.64-.76-3.79-.31-.73.02-1.56.68-2Z"/><path class="cls-10" d="m63.83,89.11c1.34-.88,2.1-2.37.42-5.52-3.33-6.21-6.21-7.76-7.32-12.19-1.11-4.43,1.11-24.39,1.11-24.39,0,0-2.88-16.41-5.54-22.61-1.53-3.56-5.83-7.64-9.22-10.46,1.01-1.17,1.63-2.69,1.66-4.34.08-3.75-3.02-6.98-6.77-7.06-3.14-.06-5.81,1.97-6.72,4.79-.3.93-1.3,1.43-2.25,1.19-.88-.22-1.82-.27-2.8-.12-2.94.47-5.31,2.88-5.72,5.83-.33,2.34.52,4.5,2.04,5.97.68.66.66,1.72.05,2.45-.99,1.2-1.59,2.73-1.59,4.41,0,.41.04.82.11,1.21.1.55-.16,1.09-.65,1.36-.07.04-.15.08-.22.13-.34.21-.77.26-1.13.09-1.28-.58-2.78-.79-4.34-.46-2.67.56-4.8,2.75-5.29,5.44-.24,1.32-.11,2.58.3,3.71.53,1.45.09,3.03-1.16,3.94-1.95,1.4-3.19,3.56-3.19,5.98,0,.99.21,1.93.59,2.8.43.98.17,2.14-.67,2.81-1.84,1.46-3.03,3.72-3.03,6.25,0,3.19,1.87,5.93,4.58,7.21.86.4,1.35,1.28,1.34,2.22,0,0,0,.01,0,.02,0,2.35,1.18,4.43,2.97,5.67.87.6,1.41,1.57,1.53,2.62v.03c.06.49-.18.97-.62,1.2-2.01,1.06-3.38,3.09-3.38,5.41s1.23,4.15,3.08,5.25c.87.51,1.05,1.65.46,2.46-1.05,1.45-1.66,3.2-1.66,5.09,0,4.11,2.9,7.59,6.88,8.74.9.26,1.54,1.04,1.54,1.97v.1c0,4.16,3.55,7.54,7.93,7.54,1.12,0,2.19-.23,3.16-.63.98-.41,2.08-.24,2.86.47,1.54,1.41,3.54,2.26,5.73,2.26,4.87,0,8.81-4.19,8.81-9.37,0-.36-.02-.71-.06-1.06,1.68-.34,3.14-1.42,4.13-2.95.43-.66,1.25-.96,2.02-.78.56.13,1.13.2,1.72.2,4.62,0,8.37-4.07,8.37-9.09,0-1.35-.27-2.64-.76-3.79-.31-.73.02-1.56.68-2Z"/><path class="cls-4" d="m54.61,92.88c2.15-1.86,3.25-4.93,2.58-8.08-.95-4.48-5.1-7.4-9.27-6.52-.08.02-.16.04-.23.06-2.4-5.95-8.17-9.58-13.92-8.37-1.66.35-3.15,1.07-4.44,2.07-1.14-.61-2.43-.96-3.82-.96-4.44,0-8.04,3.6-8.04,8.04,0,1.61.48,3.1,1.29,4.35-1.85,1.4-3.06,3.72-3.06,6.34,0,4.29,3.23,7.76,7.21,7.76.66,0,1.3-.1,1.91-.28-.27.73-.42,1.52-.42,2.33,0,4.07,3.59,7.37,8.01,7.37,1.27,0,2.46-.28,3.52-.76,2.61,3.13,6.94,4.74,11.36,3.81,6.26-1.32,10.31-7.23,9.05-13.21-.31-1.47-.92-2.8-1.74-3.96Z"/><line class="cls-11" x1="37.44" y1="84.63" x2="41.13" y2="85"/><path class="cls-10" d="m54.61,92.88c2.15-1.86,3.25-4.93,2.58-8.08-.95-4.48-5.1-7.4-9.27-6.52-.08.02-.16.04-.23.06-2.4-5.95-8.17-9.58-13.92-8.37-1.66.35-3.15,1.07-4.44,2.07-1.14-.61-2.43-.96-3.82-.96-4.44,0-8.04,3.6-8.04,8.04,0,1.61.48,3.1,1.29,4.35-1.85,1.4-3.06,3.72-3.06,6.34,0,4.29,3.23,7.76,7.21,7.76.66,0,1.3-.1,1.91-.28-.27.73-.42,1.52-.42,2.33,0,4.07,3.59,7.37,8.01,7.37,1.27,0,2.46-.28,3.52-.76,2.61,3.13,6.94,4.74,11.36,3.81,6.26-1.32,10.31-7.23,9.05-13.21-.31-1.47-.92-2.8-1.74-3.96Z"/><line class="cls-10" x1="32.78" y1="96.8" x2="35.99" y2="94.36"/><line class="cls-10" x1="27.12" y1="82.17" x2="26.02" y2="86.38"/><line class="cls-10" x1="46.78" y1="97.36" x2="48.07" y2="101.24"/><path class="cls-7" d="m44.74,90.95l3.84,11.68c-1.16.52-2.16,1.42-2.78,2.64-1.42,2.82-.29,6.25,2.52,7.68s6.25.29,7.68-2.52c2.82,1.42,6.25.29,7.68-2.52,1.42-2.82.29-6.25-2.52-7.68-1.22-.62-2.56-.75-3.8-.48l-3.47-10.56"/><path class="cls-11" d="m44.74,90.95l3.84,11.68c-1.16.52-2.16,1.42-2.78,2.64-1.42,2.82-.29,6.25,2.52,7.68s6.25.29,7.68-2.52c2.82,1.42,6.25.29,7.68-2.52,1.42-2.82.29-6.25-2.52-7.68-1.22-.62-2.56-.75-3.8-.48l-3.47-10.56"/><path class="cls-2" d="m51.17,35.25c-.1-1.93-1.28-3.82-3.23-4.81-1.89-.95-4.02-.83-5.62.14-.39-.35-.83-.65-1.32-.9-1.98-1-4.22-.82-5.83.28-.49-.56-1.11-1.05-1.83-1.41-2.82-1.42-6.17-.46-7.49,2.16-.43.84-.58,1.75-.52,2.65-2.07-.08-4.04.95-4.98,2.81-.23.46-.38.93-.46,1.42-1.94.26-3.72,1.43-4.67,3.31s-.84,3.89.03,5.57c-.93.57-1.73,1.4-2.26,2.45-1.23,2.44-.68,5.3,1.17,7.12-.32.39-.6.81-.84,1.28-1.73,3.42-.36,7.59,3.06,9.32.16.08.32.14.47.21-.96,3.17.45,6.66,3.51,8.2,1.23.62,2.57.84,3.85.7-.92,2.82.32,5.98,3.05,7.36,1.31.66,2.74.81,4.07.52-.61,2.68.64,5.52,3.2,6.82,2.84,1.44,6.27.44,7.94-2.2.59,1.32,1.62,2.45,3.01,3.16,3.22,1.63,7.15.33,8.77-2.88.62-1.24.82-2.58.64-3.85,2.32.1,4.72-1.32,5.97-3.79,1.43-2.83.85-6.09-1.23-7.8,1.26-.64,2.37-1.72,3.1-3.15,1.42-2.81.86-6.05-1.18-7.76.63-.58,1.18-1.28,1.59-2.09,1.77-3.51.46-7.76-2.92-9.69.54-.44,1-.98,1.33-1.64,1.32-2.62.11-5.89-2.71-7.31-.53-.27-1.08-.45-1.64-.56.76-2.37-.03-4.86-1.99-5.85-1.27-.64-2.76-.51-4.05.21Z"/><path class="cls-10" d="m51.17,35.25c-.1-1.93-1.28-3.82-3.23-4.81-1.89-.95-4.02-.83-5.62.14-.39-.35-.83-.65-1.32-.9-1.98-1-4.22-.82-5.83.28-.49-.56-1.11-1.05-1.83-1.41-2.82-1.42-6.17-.46-7.49,2.16-.43.84-.58,1.75-.52,2.65-2.07-.08-4.04.95-4.98,2.81-.23.46-.38.93-.46,1.42-1.94.26-3.72,1.43-4.67,3.31s-.84,3.89.03,5.57c-.93.57-1.73,1.4-2.26,2.45-1.23,2.44-.68,5.3,1.17,7.12-.32.39-.6.81-.84,1.28-1.73,3.42-.36,7.59,3.06,9.32.16.08.32.14.47.21-.96,3.17.45,6.66,3.51,8.2,1.23.62,2.57.84,3.85.7-.92,2.82.32,5.98,3.05,7.36,1.31.66,2.74.81,4.07.52-.61,2.68.64,5.52,3.2,6.82,2.84,1.44,6.27.44,7.94-2.2.59,1.32,1.62,2.45,3.01,3.16,3.22,1.63,7.15.33,8.77-2.88.62-1.24.82-2.58.64-3.85,2.32.1,4.72-1.32,5.97-3.79,1.43-2.83.85-6.09-1.23-7.8,1.26-.64,2.37-1.72,3.1-3.15,1.42-2.81.86-6.05-1.18-7.76.63-.58,1.18-1.28,1.59-2.09,1.77-3.51.46-7.76-2.92-9.69.54-.44,1-.98,1.33-1.64,1.32-2.62.11-5.89-2.71-7.31-.53-.27-1.08-.45-1.64-.56.76-2.37-.03-4.86-1.99-5.85-1.27-.64-2.76-.51-4.05.21Z"/><line class="cls-11" x1="36.82" y1="40.83" x2="33.84" y2="39.33"/><line class="cls-11" x1="27.23" y1="48.79" x2="28.94" y2="52.73"/><line class="cls-11" x1="37.05" y1="55.29" x2="38.02" y2="53.36"/><line class="cls-11" x1="45.12" y1="49.6" x2="44.04" y2="46.31"/><line class="cls-11" x1="26.81" y1="64.12" x2="27.52" y2="68.14"/><line class="cls-11" x1="32.26" y1="69.62" x2="35.88" y2="71.45"/><line class="cls-11" x1="45.42" y1="63.47" x2="46.51" y2="66.76"/><line class="cls-11" x1="49.26" y1="58.58" x2="52.32" y2="60.13"/><line class="cls-11" x1="40.5" y1="78.64" x2="41.33" y2="82.43"/><line class="cls-11" x1="49.39" y1="75.53" x2="52.91" y2="77.31"/><path class="cls-5" d="m41.21,13.49c0,1.33.25,2.6.68,3.78-4.53.72-7.99,4.64-7.99,9.37,0,1.17.22,2.29.61,3.33-2.97,1.6-5,4.75-5,8.36,0,3.81,2.25,7.09,5.49,8.6-.69,1.11-1.1,2.41-1.1,3.82,0,4.04,3.27,7.31,7.31,7.31.51,0,1.01-.05,1.49-.15.3,6.59,5.73,11.85,12.39,11.85s12.01-5.17,12.39-11.69h.04V14.22h-4.42c.02-.24.04-.48.04-.73,0-6.05-4.91-10.96-10.96-10.96s-10.96,4.91-10.96,10.96Z"/><path class="cls-10" d="m41.21,13.49c0,1.33.25,2.6.68,3.78-4.53.72-7.99,4.64-7.99,9.37,0,1.17.22,2.29.61,3.33-2.97,1.6-5,4.75-5,8.36,0,3.81,2.25,7.09,5.49,8.6-.69,1.11-1.1,2.41-1.1,3.82,0,4.04,3.27,7.31,7.31,7.31.51,0,1.01-.05,1.49-.15.3,6.59,5.73,11.85,12.39,11.85s12.01-5.17,12.39-11.69h.04V14.22h-4.42c.02-.24.04-.48.04-.73,0-6.05-4.91-10.96-10.96-10.96s-10.96,4.91-10.96,10.96Z"/><line class="cls-11" x1="56.81" y1="52.13" x2="51.45" y2="50.42"/><line class="cls-11" x1="43.3" y1="41.73" x2="48.51" y2="39.72"/><line class="cls-11" x1="58.77" y1="27.06" x2="57.8" y2="21.36"/><line class="cls-11" x1="46.01" y1="27.06" x2="42.01" y2="25.72"/><line class="cls-11" x1="67.51" y1="2.5" x2="67.51" y2="122.5"/><path class="cls-1" d="m123.8,23.23c1.22-1.24,1.98-2.94,1.98-4.82,0-3.72-2.96-6.74-6.65-6.86,0,0,0,0,0-.01,0-3.92-4.27-7.09-9.53-7.09-4.3,0-7.92,2.11-9.12,5.02-1.09-.51-2.32-.81-3.63-.81-3.86,0-7.09,2.53-7.89,5.9-.38-.09-.78-.14-1.19-.14-3,0-5.43,2.43-5.43,5.43,0,1.12.34,2.17.93,3.04-1.26,1.31-2.04,3.09-2.04,5.06,0,4.04,3.28,7.32,7.32,7.32.78,0,1.53-.12,2.23-.35.11.07.22.13.33.2-.07.45-.12.9-.12,1.37,0,4.84,3.92,8.76,8.76,8.76,3.56,0,6.63-2.13,7.99-5.19.4.05.8.09,1.21.09,1.81,0,3.5-.55,4.9-1.48,1.1.38,2.28.59,3.52.59,5.51,0,9.98-4.07,9.98-9.09,0-2.78-1.37-5.26-3.53-6.93Z"/><path class="cls-10" d="m123.8,23.23c1.22-1.24,1.98-2.94,1.98-4.82,0-3.72-2.96-6.74-6.65-6.86,0,0,0,0,0-.01,0-3.92-4.27-7.09-9.53-7.09-4.3,0-7.92,2.11-9.12,5.02-1.09-.51-2.32-.81-3.63-.81-3.86,0-7.09,2.53-7.89,5.9-.38-.09-.78-.14-1.19-.14-3,0-5.43,2.43-5.43,5.43,0,1.12.34,2.17.93,3.04-1.26,1.31-2.04,3.09-2.04,5.06,0,4.04,3.28,7.32,7.32,7.32.78,0,1.53-.12,2.23-.35.11.07.22.13.33.2-.07.45-.12.9-.12,1.37,0,4.84,3.92,8.76,8.76,8.76,3.56,0,6.63-2.13,7.99-5.19.4.05.8.09,1.21.09,1.81,0,3.5-.55,4.9-1.48,1.1.38,2.28.59,3.52.59,5.51,0,9.98-4.07,9.98-9.09,0-2.78-1.37-5.26-3.53-6.93Z"/><path class="cls-9" d="m93.36,23.9s.5-2.33,2.83-1.16"/><line class="cls-9" x1="105" y1="15.42" x2="108.65" y2="16.75"/><line class="cls-9" x1="109.65" y1="27.72" x2="109.32" y2="29.88"/><path class="cls-1" d="m102.04,87.53c-.5-1.01-1.26-1.8-2.17-2.32.55-1.73.47-3.67-.4-5.44-1.78-3.63-6.16-5.13-9.79-3.35-.7.34-1.32.78-1.85,1.3-.13-.02-.25-.02-.38-.03-.13-.43-.29-.86-.5-1.28-2.13-4.34-7.38-6.14-11.72-4.01-3.2,1.57-5.01,4.83-4.89,8.18-.38.13-.76.27-1.12.45-.57.28-1.09.63-1.57,1.01v29.39c1.59.53,3.37.49,5-.25,0,0,0,0,0,.01,1.72,3.52,6.96,4.49,11.68,2.17,3.86-1.89,6.18-5.39,5.98-8.52,1.21-.02,2.44-.3,3.62-.87,3.47-1.7,5.26-5.39,4.49-8.77.38-.09.76-.22,1.13-.4,2.69-1.32,3.81-4.57,2.49-7.27Z"/><path class="cls-9" d="m90.35,88.75s.58,2.31-2.03,2.29"/><line class="cls-9" x1="83.64" y1="101.49" x2="79.77" y2="101.91"/><line class="cls-9" x1="74.04" y1="92.49" x2="73.39" y2="90.41"/><path class="cls-10" d="m102.04,87.53c-.5-1.01-1.26-1.8-2.17-2.32.55-1.73.47-3.67-.4-5.44-1.78-3.63-6.16-5.13-9.79-3.35-.7.34-1.32.78-1.85,1.3-.13-.02-.25-.02-.38-.03-.13-.43-.29-.86-.5-1.28-2.13-4.34-7.38-6.14-11.72-4.01-3.2,1.57-5.01,4.83-4.89,8.18-.38.13-.76.27-1.12.45-.51.25-.97.55-1.4.88v29.58c1.54.47,3.26.41,4.83-.3,0,0,0,0,0,.01,1.72,3.52,6.96,4.49,11.68,2.17,3.86-1.89,6.18-5.39,5.98-8.52,1.21-.02,2.44-.3,3.62-.87,3.47-1.7,5.26-5.39,4.49-8.77.38-.09.76-.22,1.13-.4,2.69-1.32,3.81-4.57,2.49-7.27Z"/><path class="cls-1" d="m122.95,86.97c1.13-1.37,1.81-3.13,1.81-5.04,0-4.41-3.61-7.98-8.06-7.98-2.3,0-4.38.96-5.84,2.49-.83-2.88-3.48-4.99-6.63-4.99-1.17,0-2.28.3-3.25.81-1.3-.94-2.8-1.48-4.4-1.48-4.91,0-8.9,5.02-8.9,11.22,0,1.05.12,2.06.34,3.03-4.07,1.74-6.82,5.09-6.82,8.95,0,4.84,4.35,8.89,10.19,9.95-.13.66-.22,1.33-.22,2.03,0,6.29,5.77,11.39,12.89,11.39s12.75-4.99,12.87-11.18c2.66-1.08,4.59-3.68,4.81-6.78,2.68-.04,4.85-2.85,4.85-6.31,0-2.93-1.55-5.38-3.64-6.1Z"/><path class="cls-10" d="m122.95,86.97c1.13-1.37,1.81-3.13,1.81-5.04,0-4.41-3.61-7.98-8.06-7.98-2.3,0-4.38.96-5.84,2.49-.83-2.88-3.48-4.99-6.63-4.99-1.17,0-2.28.3-3.25.81-1.3-.94-2.8-1.48-4.4-1.48-4.91,0-8.9,5.02-8.9,11.22,0,1.05.12,2.06.34,3.03-4.07,1.74-6.82,5.09-6.82,8.95,0,4.84,4.35,8.89,10.19,9.95-.13.66-.22,1.33-.22,2.03,0,6.29,5.77,11.39,12.89,11.39s12.75-4.99,12.87-11.18c2.66-1.08,4.59-3.68,4.81-6.78,2.68-.04,4.85-2.85,4.85-6.31,0-2.93-1.55-5.38-3.64-6.1Z"/><path class="cls-9" d="m97.66,83.92s2-2,5.15-1.5"/><path class="cls-9" d="m96.5,95.56s.33,2.16,2.33,2.99"/><path class="cls-9" d="m108.97,102.88s2.66-2.33,1.33-4.82"/><path class="cls-1" d="m118.92,56.26c0-2.03-1.13-3.79-2.79-4.7,1.38-1.48,2.23-3.52,2.23-5.79,0-4.5-3.37-8.15-7.53-8.15-2.69,0-5.04,1.53-6.38,3.83-1.17-.81-2.55-1.28-4.04-1.28-2.79,0-5.22,1.64-6.52,4.09-.32-.16-.66-.29-1.02-.4.67-1.22,1.06-2.65,1.06-4.17,0-2.99-1.49-5.59-3.7-7.01.46-.79.73-1.71.73-2.69,0-2.96-2.4-5.36-5.37-5.36-1.37,0-2.62.52-3.57,1.37-.88-1.76-2.7-2.96-4.8-2.96-1.99,0-3.72,1.08-4.65,2.69-.7-.87-1.76-1.44-2.96-1.44-.3,0-.59.04-.87.11v16.57h0c1.77,0,3.33-.86,4.31-2.18.58.56,1.28.98,2.05,1.24-1.6.93-2.68,2.65-2.68,4.63,0,2.16,1.28,4.01,3.13,4.86-.09.27-.17.54-.23.82-2.81.17-5.04,2.49-5.04,5.34s2.4,5.36,5.37,5.36c.05,0,.1,0,.16,0-.18.53-.28,1.1-.28,1.69,0,2.47,1.68,4.55,3.96,5.16-.41.76-.65,1.63-.65,2.55,0,2.96,2.4,5.36,5.37,5.36,1.52,0,2.9-.64,3.87-1.65.92,1.63,2.67,2.74,4.68,2.74,1.9,0,3.57-.99,4.52-2.48.51,2.43,2.67,4.26,5.25,4.26s4.78-1.86,5.26-4.31c.02,0,.04,0,.06,0,2.96,0,5.37-2.4,5.37-5.36,0-.08,0-.16-.01-.24,2.48-.48,4.35-2.65,4.35-5.26,0-1.07-.32-2.06-.86-2.9,1.34-.97,2.21-2.55,2.21-4.33Z"/><path class="cls-10" d="m118.92,56.26c0-2.03-1.13-3.79-2.79-4.7,1.38-1.48,2.23-3.52,2.23-5.79,0-4.5-3.37-8.15-7.53-8.15-2.69,0-5.04,1.53-6.38,3.83-1.17-.81-2.55-1.28-4.04-1.28-2.79,0-5.22,1.64-6.52,4.09-.32-.16-.66-.29-1.02-.4.67-1.22,1.06-2.65,1.06-4.17,0-2.99-1.49-5.59-3.7-7.01.46-.79.73-1.71.73-2.69,0-2.96-2.4-5.36-5.37-5.36-1.37,0-2.62.52-3.57,1.37-.88-1.76-2.7-2.96-4.8-2.96-1.99,0-3.72,1.08-4.65,2.69-.7-.87-1.76-1.44-2.96-1.44-.3,0-.59.04-.87.11v16.57h0c1.77,0,3.33-.86,4.31-2.18.58.56,1.28.98,2.05,1.24-1.6.93-2.68,2.65-2.68,4.63,0,2.16,1.28,4.01,3.13,4.86-.09.27-.17.54-.23.82-2.81.17-5.04,2.49-5.04,5.34s2.4,5.36,5.37,5.36c.05,0,.1,0,.16,0-.18.53-.28,1.1-.28,1.69,0,2.47,1.68,4.55,3.96,5.16-.41.76-.65,1.63-.65,2.55,0,2.96,2.4,5.36,5.37,5.36,1.52,0,2.9-.64,3.87-1.65.92,1.63,2.67,2.74,4.68,2.74,1.9,0,3.57-.99,4.52-2.48.51,2.43,2.67,4.26,5.25,4.26s4.78-1.86,5.26-4.31c.02,0,.04,0,.06,0,2.96,0,5.37-2.4,5.37-5.36,0-.08,0-.16-.01-.24,2.48-.48,4.35-2.65,4.35-5.26,0-1.07-.32-2.06-.86-2.9,1.34-.97,2.21-2.55,2.21-4.33Z"/><path class="cls-9" d="m81.53,34.87s1.83,1.33,2,3.16"/><line class="cls-9" x1="83.03" y1="56.15" x2="86.36" y2="58.15"/><path class="cls-9" d="m101.15,54.49s3.49,1.5,3.82,2.99"/><path class="cls-9" d="m95.33,66.3s2.66,1.83,3.82,1.83"/></g></svg>