<?xml version="1.0" encoding="UTF-8"?><svg id="Layer_2" xmlns="http://www.w3.org/2000/svg" viewBox="0 0 99 139.3"><defs><style>.cls-1{fill:#ff5751;}.cls-2{fill:#e7a400;}.cls-3{fill:#fff;}.cls-4{fill:#ffee92;}.cls-5{fill:#ffc863;}.cls-6{fill:#fdf2ea;}.cls-7{fill:#78c565;}.cls-8{stroke-linejoin:round;}.cls-8,.cls-9{fill:none;stroke:#2a1c18;stroke-linecap:round;stroke-width:5px;}.cls-9{stroke-miterlimit:10;}</style></defs><g id="_레이어_2"><path class="cls-6" d="m78.53,26.18l7.99-8.61c.97.73,2.19,1.15,3.49,1.1,3.01-.11,5.36-2.65,5.25-5.66-.11-3.01-2.65-5.36-5.66-5.25-.11-3.01-2.65-5.36-5.66-5.25-3.01.11-5.36,2.65-5.25,5.66.05,1.31.56,2.49,1.36,3.4l-7.23,7.79"/><path class="cls-9" d="m78.53,26.18l7.99-8.61c.97.73,2.19,1.15,3.49,1.1,3.01-.11,5.36-2.65,5.25-5.66-.11-3.01-2.65-5.36-5.66-5.25-.11-3.01-2.65-5.36-5.66-5.25-3.01.11-5.36,2.65-5.25,5.66.05,1.31.56,2.49,1.36,3.4l-7.23,7.79"/><path class="cls-2" d="m29,46.56c-1.57.97-2.6,2.83-2.52,4.93s1.16,3.74,2.72,4.63c-.11.49-.16.99-.14,1.52.08,2.12,1.27,3.9,2.94,4.75-.24.67-.36,1.41-.34,2.18.11,3.01,2.47,5.37,5.27,5.27.9-.03,1.74-.32,2.45-.79.9,1.77,2.66,2.94,4.65,2.87.49-.02.96-.11,1.4-.27,1.11,1.5,2.92,2.45,4.93,2.37s3.64-1.1,4.64-2.61c.91.52,1.97.8,3.09.76,2.61-.1,4.75-1.89,5.41-4.27.47.09.96.13,1.45.11,3.66-.14,6.51-3.21,6.38-6.87,0-.17-.03-.33-.04-.49,3.09-.66,5.36-3.46,5.24-6.72-.05-1.32-.49-2.53-1.19-3.54,2.79-.54,4.85-3.03,4.74-5.96-.05-1.4-.59-2.66-1.45-3.64,2.52-.73,4.32-3.09,4.22-5.83-.11-3.04-2.53-5.45-5.51-5.62.83-1.1,1.3-2.49,1.25-3.98-.13-3.44-3.02-6.13-6.47-6-1.32.05-2.53.51-3.51,1.25-.99-1.99-3.29-3.34-5.93-3.24-3.03.11-5.48,2.1-5.95,4.63-1.11-.76-2.53-1.19-4.06-1.13-3.01.11-5.45,2.07-5.94,4.58-.78-.26-1.61-.39-2.48-.36-3.75.14-6.7,3.21-6.75,6.92-.61-.25-1.28-.38-1.98-.35-2.8.1-4.97,2.63-4.86,5.64.02.57.12,1.12.29,1.63-2.34.46-4.05,2.27-3.97,4.36.05,1.36.85,2.55,2.05,3.29Z"/><path class="cls-8" d="m29,46.56c-1.57.97-2.6,2.83-2.52,4.93s1.16,3.74,2.72,4.63c-.11.49-.16.99-.14,1.52.08,2.12,1.27,3.9,2.94,4.75-.24.67-.36,1.41-.34,2.18.11,3.01,2.47,5.37,5.27,5.27.9-.03,1.74-.32,2.45-.79.9,1.77,2.66,2.94,4.65,2.87.49-.02.96-.11,1.4-.27,1.11,1.5,2.92,2.45,4.93,2.37s3.64-1.1,4.64-2.61c.91.52,1.97.8,3.09.76,2.61-.1,4.75-1.89,5.41-4.27.47.09.96.13,1.45.11,3.66-.14,6.51-3.21,6.38-6.87,0-.17-.03-.33-.04-.49,3.09-.66,5.36-3.46,5.24-6.72-.05-1.32-.49-2.53-1.19-3.54,2.79-.54,4.85-3.03,4.74-5.96-.05-1.4-.59-2.66-1.45-3.64,2.52-.73,4.32-3.09,4.22-5.83-.11-3.04-2.53-5.45-5.51-5.62.83-1.1,1.3-2.49,1.25-3.98-.13-3.44-3.02-6.13-6.47-6-1.32.05-2.53.51-3.51,1.25-.99-1.99-3.29-3.34-5.93-3.24-3.03.11-5.48,2.1-5.95,4.63-1.11-.76-2.53-1.19-4.06-1.13-3.01.11-5.45,2.07-5.94,4.58-.78-.26-1.61-.39-2.48-.36-3.75.14-6.7,3.21-6.75,6.92-.61-.25-1.28-.38-1.98-.35-2.8.1-4.97,2.63-4.86,5.64.02.57.12,1.12.29,1.63-2.34.46-4.05,2.27-3.97,4.36.05,1.36.85,2.55,2.05,3.29Z"/><line class="cls-9" x1="40.3" y1="55.97" x2="40.42" y2="59.15"/><line class="cls-9" x1="51.39" y1="60.3" x2="53.89" y2="57.05"/><line class="cls-9" x1="52.28" y1="49.09" x2="50.22" y2="49.17"/><line class="cls-9" x1="43.79" y1="44.98" x2="41.54" y2="47.41"/><line class="cls-9" x1="64.4" y1="53.57" x2="67.43" y2="51.12"/><line class="cls-9" x1="66.48" y1="46.47" x2="66.33" y2="42.6"/><line class="cls-9" x1="55.24" y1="38.31" x2="57.49" y2="35.88"/><line class="cls-9" x1="49.38" y1="37.36" x2="49.26" y2="34.09"/><line class="cls-9" x1="70.2" y1="35.41" x2="72.99" y2="32.96"/><line class="cls-9" x1="63.49" y1="29.41" x2="63.35" y2="25.65"/><path class="cls-4" d="m80.58,50.83c-1.5-.05-2.94.23-4.26.75-1.3-2.53-4.02-4.32-7.23-4.42-4.58-.14-8.39,3.2-8.53,7.46,0,.08,0,.16,0,.24-6.34.92-11.25,5.67-11.43,11.54-.21,6.7,5.8,12.33,13.43,12.56,5.39.17,10.13-2.41,12.53-6.29,1.43.78,3.04,1.26,4.76,1.31,6.1.19,11.21-4.84,11.41-11.24s-4.58-11.74-10.69-11.93Z"/><path class="cls-8" d="m80.58,50.83c-1.5-.05-2.94.23-4.26.75-1.3-2.53-4.02-4.32-7.23-4.42-4.58-.14-8.39,3.2-8.53,7.46,0,.08,0,.16,0,.24-6.34.92-11.25,5.67-11.43,11.54-.21,6.7,5.8,12.33,13.43,12.56,5.39.17,10.13-2.41,12.53-6.29,1.43.78,3.04,1.26,4.76,1.31,6.1.19,11.21-4.84,11.41-11.24s-4.58-11.74-10.69-11.93Z"/><line class="cls-9" x1="64.24" y1="66.31" x2="65.48" y2="62.81"/><path class="cls-5" d="m49.42,46.11c-1.08,0-2.12.2-3.08.56-.59-3.68-3.77-6.5-7.62-6.5-.95,0-1.86.18-2.7.5-1.3-2.42-3.86-4.06-6.8-4.06-3.1,0-5.76,1.83-6.99,4.46-.91-.56-1.96-.9-3.11-.9-3.28,0-5.94,2.66-5.94,5.94,0,.42.04.82.13,1.21-5.36.25-9.63,4.66-9.63,10.07s4.21,9.76,9.5,10.07v.03h35.64v-3.59c.2.01.39.03.59.03,4.92,0,8.91-3.99,8.91-8.91s-3.99-8.91-8.91-8.91Z"/><path class="cls-8" d="m49.42,46.11c-1.08,0-2.12.2-3.08.56-.59-3.68-3.77-6.5-7.62-6.5-.95,0-1.86.18-2.7.5-1.3-2.42-3.86-4.06-6.8-4.06-3.1,0-5.76,1.83-6.99,4.46-.91-.56-1.96-.9-3.11-.9-3.28,0-5.94,2.66-5.94,5.94,0,.42.04.82.13,1.21-5.36.25-9.63,4.66-9.63,10.07s4.21,9.76,9.5,10.07v.03h35.64v-3.59c.2.01.39.03.59.03,4.92,0,8.91-3.99,8.91-8.91s-3.99-8.91-8.91-8.91Z"/><line class="cls-9" x1="18.02" y1="58.8" x2="19.41" y2="54.44"/><line class="cls-9" x1="26.47" y1="47.82" x2="28.1" y2="52.05"/><line class="cls-9" x1="38.4" y1="60.39" x2="43.02" y2="59.6"/><line class="cls-9" x1="38.4" y1="50.02" x2="39.48" y2="46.77"/><polygon class="cls-1" points="83.5 136.8 15.5 136.8 9.5 75.06 89.5 75.06 83.5 136.8"/><rect class="cls-3" x="2.5" y="63.06" width="94" height="12" rx="6" ry="6"/><rect class="cls-8" x="2.5" y="63.06" width="94" height="12" rx="6" ry="6"/><line class="cls-8" x1="25.5" y1="75.06" x2="29.1" y2="136.8"/><line class="cls-8" x1="41.5" y1="75.06" x2="42.7" y2="136.8"/><line class="cls-8" x1="56.3" y1="136.41" x2="57.5" y2="75.06"/><line class="cls-8" x1="73.5" y1="75.06" x2="69.9" y2="136.41"/><path class="cls-7" d="m87.85,94.29h-19.4c-4.2-6.09-11.22-10.08-19.17-10.08s-14.97,3.99-19.17,10.08H11.15l2.26,26.38h16.7c4.2,6.09,11.22,10.08,19.17,10.08s14.97-3.99,19.17-10.08h17.14l2.26-26.38Z"/><polygon class="cls-8" points="83.5 136.8 15.5 136.8 9.5 75.06 89.5 75.06 83.5 136.8"/><path class="cls-3" d="m49.28,130.75c5.99,0,11.46-2.27,15.58-5.99-.14-8.37-6.96-15.11-15.36-15.11s-15.38,6.88-15.38,15.38v.1c4.07,3.5,9.36,5.63,15.16,5.63Z"/><circle class="cls-3" cx="49.5" cy="101.64" r="8"/><circle class="cls-8" cx="49.5" cy="101.64" r="8"/><path class="cls-8" d="m34.12,125.02c0-8.49,6.88-15.38,15.38-15.38h0c8.4,0,15.23,6.74,15.37,15.11"/><path class="cls-8" d="m87.63,94.29h-19.18c-4.2-6.09-11.22-10.08-19.17-10.08s-14.97,3.99-19.17,10.08H11.37"/><path class="cls-8" d="m13.93,120.67h14.81c.81,0,1.6.35,2.09,1,4.25,5.52,10.93,9.09,18.44,9.09s14.19-3.56,18.44-9.09c.5-.64,1.28-1,2.09-1h15.25"/></g></svg>