<?xml version="1.0" encoding="UTF-8"?><svg xmlns="http://www.w3.org/2000/svg" viewBox="0 0 135.04 125.93"><defs><style>.cls-1,.cls-2{fill:none;}.cls-3{fill:#f7b36c;}.cls-4{fill:#fbd9b6;}.cls-5{fill:#f44747;}.cls-6{fill:#edd0a0;}.cls-7{fill:#ffc700;}.cls-8{fill:#ffc200;}.cls-9{fill:#8b3b33;}.cls-10{fill:#d1792a;}.cls-11{fill:#dd9c62;}.cls-12{fill:#964e47;}.cls-13{fill:#2a1c18;}.cls-14{fill:#78c565;}.cls-15{fill:#ccc;mix-blend-mode:multiply;}.cls-2{stroke:#2a1c18;stroke-linecap:round;stroke-miterlimit:10;stroke-width:5px;}.cls-16{isolation:isolate;}</style></defs><g class="cls-16"><g id="Layer_2"><g id="_격리_모드"><path class="cls-7" d="m105.19,3.43l-28.67,48.13h56.02c0-20.46-10.97-38.35-27.35-48.13Z"/><path class="cls-7" d="m105.19,3.43l-28.67,48.13h56.02c0-20.46-10.97-38.35-27.35-48.13Z"/><path class="cls-3" d="m105.19,3.43l-5.13,8.62c13.44,8.02,22.45,22.71,22.45,39.51h10.04c0-20.46-10.97-38.35-27.35-48.13Z"/><path class="cls-15" d="m102.04,8.72l-1.99,3.34c13.44,8.02,22.45,22.71,22.45,39.5h3.88c0-18.21-9.77-34.14-24.34-42.84Z"/><circle class="cls-12" cx="99.77" cy="44.36" r="2.12"/><circle class="cls-12" cx="114.19" cy="37.62" r="1.55"/><circle class="cls-12" cx="90.86" cy="46.1" r="1.59"/><circle class="cls-12" cx="97.19" cy="26.15" r="1.35"/><circle class="cls-12" cx="114.19" cy="47.6" r="1.06"/><path class="cls-2" d="m105.19,3.43l-28.67,48.13h56.02c0-20.46-10.97-38.35-27.35-48.13Z"/><path class="cls-2" d="m122.5,51.56c0-16.79-9-31.48-22.45-39.51"/><path class="cls-5" d="m115.15,29.53c-3.11-4.81-6.9-9.15-11.23-12.87-2.49,1.52-4.15,4.26-4.15,7.39,0,4.79,3.88,8.67,8.67,8.67,2.71,0,5.13-1.24,6.72-3.19Z"/><path class="cls-2" d="m103.92,16.67c-2.49,1.52-4.15,4.26-4.15,7.39,0,4.79,3.88,8.67,8.67,8.67,2.71,0,5.13-1.24,6.72-3.19"/><path class="cls-7" d="m2.54,60.27l56.01.76L30.54,12.52C12.82,22.75,2.81,41.2,2.54,60.27Z"/><path class="cls-7" d="m2.54,60.27l56.01.76L30.54,12.52C12.82,22.75,2.81,41.2,2.54,60.27Z"/><path class="cls-3" d="m2.54,60.27l10.03.14c.23-15.65,8.45-30.8,22.99-39.19l-5.02-8.69C12.82,22.75,2.81,41.2,2.54,60.27Z"/><path class="cls-15" d="m8.69,60.35l3.88.05c.23-15.65,8.44-30.8,22.99-39.19l-1.94-3.36c-15.77,9.11-24.68,25.53-24.93,42.5Z"/><circle class="cls-12" cx="40.69" cy="44.49" r="2.12"/><circle class="cls-12" cx="27.65" cy="35.38" r="1.55"/><circle class="cls-12" cx="46.65" cy="51.34" r="1.59"/><circle class="cls-12" cx="26.22" cy="55.83" r="1.35"/><circle class="cls-12" cx="36.29" cy="30.39" r="1.06"/><path class="cls-2" d="m2.54,60.27l56.01.76L30.54,12.52C12.82,22.75,2.81,41.2,2.54,60.27Z"/><path class="cls-6" d="m41.67,33.02l1.47.69c.64.3,1.39-.06,1.57-.74l.47-1.8c.17-.67-.29-1.34-.98-1.41l-1.69-.17c-.68-.07-1.16-.69-1.07-1.36l.26-1.8c.19-1.31-1.07-2.4-2.31-1.95-2.22.81-4.03,2.65-4.67,5.12-.62,2.37-.02,4.77,1.41,6.54.81,1.01,2.42.76,2.96-.42l.98-2.11c.28-.6.99-.86,1.59-.58Z"/><path class="cls-13" d="m39.97,24.38c1.02,0,1.9.95,1.73,2.05l-.26,1.8c-.1.68.39,1.3,1.07,1.36l1.69.17c.69.07,1.15.74.98,1.41l-.47,1.8c-.13.52-.6.84-1.09.84-.16,0-.32-.03-.48-.11l-1.47-.69c-.16-.08-.34-.11-.51-.11-.45,0-.88.26-1.09.69l-.98,2.11c-.31.68-.98,1.04-1.64,1.04-.49,0-.98-.2-1.32-.63-1.43-1.77-2.03-4.17-1.41-6.54.64-2.46,2.44-4.31,4.67-5.12.19-.07.39-.1.58-.1m0-5h0c-.78,0-1.54.14-2.28.4-3.86,1.4-6.77,4.6-7.8,8.56-.99,3.79-.1,7.88,2.36,10.94,1.28,1.58,3.18,2.49,5.21,2.49,2.27,0,4.37-1.14,5.62-2.97.18.02.36.02.54.02,2.79,0,5.23-1.89,5.93-4.59l.47-1.8c.45-1.74.12-3.58-.9-5.05-.63-.9-1.47-1.6-2.45-2.05-.17-1.32-.72-2.57-1.6-3.6-1.29-1.49-3.15-2.35-5.1-2.35h0Z"/><path class="cls-2" d="m35.56,21.21c-14.54,8.4-22.76,23.54-22.99,39.19"/><path class="cls-5" d="m20.16,38.58c-2.61,5.1-4.47,10.55-5.53,16.16,2.56,1.39,5.76,1.47,8.48-.1,4.15-2.39,5.57-7.69,3.17-11.84-1.35-2.35-3.64-3.82-6.12-4.22Z"/><path class="cls-2" d="m14.63,54.74c2.56,1.39,5.76,1.47,8.48-.1,4.15-2.39,5.57-7.69,3.17-11.84-1.35-2.35-3.64-3.82-6.12-4.22"/><path class="cls-7" d="m31.2,12.14l27.34,48.89,28.01-48.51c-17.72-10.23-38.7-9.67-55.35-.38Z"/><path class="cls-7" d="m31.2,12.14l27.34,48.89,28.01-48.51c-17.72-10.23-38.7-9.67-55.35-.38Z"/><path class="cls-3" d="m31.2,12.14l4.9,8.75c13.67-7.63,30.89-8.08,45.44.32l5.02-8.69c-17.72-10.23-38.7-9.67-55.35-.38Z"/><path class="cls-15" d="m34.21,17.51l1.9,3.39c13.67-7.63,30.89-8.09,45.43.31l1.94-3.36c-15.77-9.11-34.45-8.61-49.27-.34Z"/><circle class="cls-12" cx="63.94" cy="37.29" r="2.12"/><circle class="cls-12" cx="65.31" cy="21.44" r="1.55"/><circle class="cls-12" cx="60.99" cy="45.88" r="1.59"/><circle class="cls-12" cx="46.88" cy="30.43" r="1.35"/><circle class="cls-12" cx="73.95" cy="26.43" r="1.06"/><path class="cls-2" d="m31.2,12.14l27.34,48.89,28.01-48.51c-17.72-10.23-38.7-9.67-55.35-.38Z"/><path class="cls-2" d="m81.54,21.21c-14.54-8.4-31.77-7.95-45.44-.32"/><circle class="cls-5" cx="57.55" cy="34.17" r="7.77"/><circle class="cls-2" cx="57.55" cy="34.17" r="7.77"/><path class="cls-6" d="m37.93,35.49l.14,1.62c.06.7.74,1.18,1.42.99l1.8-.5c.67-.18,1.01-.92.73-1.55l-.7-1.55c-.28-.62.01-1.35.65-1.61l1.69-.67c1.23-.49,1.54-2.13.53-2.98-1.81-1.52-4.31-2.16-6.76-1.48s-4.14,2.37-4.96,4.49c-.47,1.21.55,2.47,1.84,2.36l2.32-.21c.66-.06,1.24.43,1.3,1.09Z"/><path class="cls-13" d="m39.41,27.49c1.77,0,3.46.64,4.78,1.75,1.01.85.69,2.49-.53,2.98l-1.69.67c-.63.25-.93.98-.65,1.61l.7,1.55c.29.63-.06,1.37-.73,1.55l-1.8.5c-.1.03-.2.04-.3.04-.57,0-1.07-.43-1.12-1.03l-.14-1.62c-.05-.62-.58-1.09-1.19-1.09-.04,0-.07,0-.11,0l-2.32.21c-.06,0-.11,0-.16,0-1.21,0-2.12-1.21-1.68-2.36.82-2.12,2.6-3.84,4.96-4.49.66-.18,1.33-.27,1.98-.27m0-5h0c-1.11,0-2.23.15-3.31.45-3.78,1.04-6.88,3.85-8.29,7.51-.79,2.06-.52,4.38.73,6.21,1.17,1.71,3.05,2.78,5.09,2.94.97,2.11,3.1,3.54,5.56,3.54.55,0,1.1-.07,1.63-.22l1.8-.5c1.73-.48,3.16-1.68,3.92-3.31.47-.99.65-2.08.56-3.15,1.37-1.04,2.33-2.6,2.61-4.34.38-2.36-.48-4.68-2.29-6.21-2.24-1.89-5.08-2.93-8-2.93h0Z"/><path class="cls-7" d="m114.56,61.79l-56.01-.76,28.01,48.51c17.72-10.23,27.73-28.68,28-47.75Z"/><path class="cls-7" d="m114.56,61.79l-56.01-.76,28.01,48.51c17.72-10.23,27.73-28.68,28-47.75Z"/><path class="cls-3" d="m114.56,61.79l-10.03-.14c-.23,15.65-8.45,30.8-22.99,39.19l5.02,8.69c17.72-10.23,27.73-28.68,28-47.75Z"/><path class="cls-15" d="m108.41,61.71l-3.88-.05c-.23,15.65-8.44,30.8-22.99,39.19l1.94,3.36c15.77-9.11,24.68-25.53,24.93-42.5Z"/><circle class="cls-12" cx="76.41" cy="77.57" r="2.12"/><circle class="cls-12" cx="89.45" cy="86.68" r="1.55"/><circle class="cls-12" cx="70.45" cy="70.72" r="1.59"/><circle class="cls-12" cx="90.88" cy="66.23" r="1.35"/><circle class="cls-12" cx="80.81" cy="91.67" r="1.06"/><path class="cls-2" d="m114.56,61.79l-56.01-.76,28.01,48.51c17.72-10.23,27.73-28.68,28-47.75Z"/><path class="cls-2" d="m81.54,100.85c14.54-8.4,22.76-23.54,22.99-39.19"/><circle class="cls-5" cx="82.31" cy="73.59" r="7.77"/><circle class="cls-2" cx="82.31" cy="73.59" r="7.77"/><path class="cls-14" d="m84.45,33.38l.87,3.23s2.68-2.91,6.38-1.97l-1.34-3.46s-3.94-.87-5.91,2.2Z"/><path class="cls-13" d="m89.1,31.06c.75,0,1.26.11,1.26.11l1.34,3.46c-.52-.13-1.01-.19-1.48-.19-2.91,0-4.89,2.16-4.89,2.16l-.87-3.23c1.26-1.96,3.32-2.32,4.65-2.32m0-5c-3.75,0-6.97,1.68-8.86,4.62-.76,1.18-.98,2.63-.62,3.99l.87,3.23c.48,1.81,1.85,3.29,3.68,3.69.38.08.77.12,1.14.12,1.4,0,2.71-.57,3.65-1.68.24-.22.79-.59,1.25-.59.08,0,.16.01.25.03.41.1.83.16,1.24.16,1.41,0,2.78-.6,3.74-1.68,1.24-1.4,1.6-3.38.92-5.12l-1.34-3.46c-.6-1.56-1.95-2.72-3.59-3.08-.24-.05-1.14-.23-2.33-.23h0Z"/><path class="cls-14" d="m39.41,60.57l2.11-1.53s-2.89-1.93-3.26-5.69l-2.15,2.04s.49,3.96,3.3,5.18Z"/><path class="cls-13" d="m38.27,53.35c.36,3.75,3.26,5.69,3.26,5.69l-2.11,1.53c-2.81-1.22-3.3-5.18-3.3-5.18l2.15-2.04m0-5c-1.26,0-2.49.47-3.44,1.37l-2.15,2.04c-1.15,1.09-1.72,2.67-1.53,4.24.09.7.99,6.86,6.27,9.16.64.28,1.32.41,1.99.41,1.04,0,2.07-.32,2.93-.95l2.11-1.53c1.37-.99,2.26-2.53,2.18-4.21-.08-1.66-.86-3.1-2.28-3.96-.21-.18-1-.91-1.11-2.04-.18-1.9-1.43-3.53-3.22-4.2-.57-.21-1.16-.32-1.75-.32h0Z"/><path class="cls-6" d="m98.48,49.73l-1.33.93c-.58.4-.65,1.23-.15,1.73l1.33,1.31c.49.49,1.3.42,1.71-.15l.99-1.38c.4-.55,1.18-.66,1.71-.24l1.43,1.13c1.04.82,2.61.27,2.84-1.03.41-2.33-.28-4.81-2.1-6.6-1.74-1.72-4.12-2.4-6.37-2.05-1.28.2-1.87,1.72-1.12,2.77l1.34,1.9c.38.54.25,1.29-.29,1.67Z"/><path class="cls-13" d="m99.71,43.29c1.88,0,3.76.71,5.21,2.14,1.81,1.79,2.51,4.27,2.1,6.6-.16.88-.93,1.41-1.73,1.41-.38,0-.78-.12-1.11-.39l-1.43-1.13c-.22-.17-.48-.26-.74-.26-.37,0-.74.17-.97.5l-.99,1.38c-.22.31-.57.47-.92.47-.28,0-.57-.11-.79-.32l-1.33-1.31c-.5-.49-.43-1.32.15-1.73l1.33-.93c.54-.38.67-1.13.29-1.67l-1.34-1.9c-.74-1.06-.16-2.57,1.12-2.77.38-.06.77-.09,1.16-.09m0-5c-.64,0-1.29.05-1.93.15-2.3.36-4.22,1.86-5.13,4.02-.78,1.83-.72,3.86.13,5.61-.61.88-.99,1.91-1.09,3-.15,1.82.5,3.6,1.81,4.88l1.33,1.31c1.15,1.14,2.68,1.76,4.3,1.76,1.27,0,2.5-.4,3.52-1.12.83.35,1.73.54,2.64.54,3.29,0,6.09-2.33,6.66-5.54.72-4.04-.59-8.16-3.51-11.04-2.34-2.3-5.44-3.57-8.72-3.57h0Z"/><path class="cls-3" d="m80.36,83.39h0c0-13.53-15.48-24.49-34.57-24.49s-34.57,10.96-34.57,24.49h0s69.14,0,69.14,0Z"/><path class="cls-12" d="m89,104.7c0,3.98-3.22,7.2-7.2,7.2H9.78c-3.98,0-7.2-3.23-7.2-7.2h0c0-3.98,3.22-7.2,7.2-7.2h72.02c3.98,0,7.2,3.22,7.2,7.2h0Z"/><path class="cls-11" d="m81.79,111.91l-.8,7.2c-.63,2.51-2.57,4.32-4.95,4.32H15.55c-2.39,0-4.77-1.94-5.13-4.32l-.74-7.2"/><polygon class="cls-1" points="63.06 107.58 65.95 107.58 64.02 106.62 63.06 107.58"/><polygon class="cls-8" points="45.79 97.5 45.8 97.5 64.03 106.62 64.02 106.62 65.95 107.58 68.84 109.02 70.27 107.58 80.36 97.46 45.79 97.5"/><path class="cls-9" d="m84.72,107.58h-14.44l-1.44,1.44-2.88-1.44h-2.89l.96-.97-18.23-9.11h-7.2l14.11,10.08H12.7c-3.98,0-7.2-3.23-7.2-7.2,0-.53.07-1.05.18-1.56-1.85,1.31-3.06,3.45-3.06,5.88,0,3.98,3.22,7.2,7.2,7.2h72.02c3.44,0,6.31-2.42,7.02-5.65-1.17.83-2.6,1.33-4.14,1.33Z"/><rect class="cls-9" x="54.91" y="91.87" width="0" height="20.38" transform="translate(-60.93 105.54) rotate(-63.44)"/><path class="cls-14" d="m11.22,83.39c-2.88,0-13.86,7.72-5.76,12.97,4.77,2.73,9.72-4.1,11.52-4.1s8.73,5.53,17.28,5.53,13.14-5.76,17.28-5.76,7.38,5.76,11.52,5.76,6.93-2.88,11.52-2.88,13.27,2.7,14.4-2.88c1.17-5.76-8.64-8.64-8.64-8.64"/><polygon class="cls-10" points="9.76 111.91 10.35 117.67 81.23 117.67 81.88 111.91 9.76 111.91"/><path class="cls-5" d="m74.61,94.92c-1.48,0-2.76.31-3.97.72l10.81-.12c-2.43-.15-4.98-.6-6.84-.6Z"/><path class="cls-5" d="m17,92.27c-1.14,0-3.52,2.71-6.33,4.03l15.11-.17c-4.4-1.63-7.63-3.87-8.78-3.87Z"/><path class="cls-5" d="m51.57,92.04c-2.58,0-5.33,2.23-9.1,3.91l15.97-.18c-2.23-1.66-4.39-3.74-6.88-3.74Z"/><path class="cls-2" d="m80.36,83.39h0c0-13.53-15.48-24.49-34.57-24.49s-34.57,10.96-34.57,24.49h0s69.14,0,69.14,0Z"/><path class="cls-2" d="m89,104.7c0,3.98-3.22,7.2-7.2,7.2H9.78c-3.98,0-7.2-3.23-7.2-7.2h0c0-3.98,3.22-7.2,7.2-7.2h72.02c3.98,0,7.2,3.22,7.2,7.2h0Z"/><path class="cls-2" d="m81.79,111.91l-.8,7.2c-.63,2.51-2.57,4.32-4.95,4.32H15.55c-2.39,0-4.77-1.94-5.13-4.32l-.74-7.2"/><polyline class="cls-2" points="45.79 97.5 68.84 109.02 80.36 97.46"/><path class="cls-2" d="m11.22,83.39c-2.88,0-13.86,7.72-5.76,12.97,4.77,2.73,9.72-4.1,11.52-4.1s8.73,5.53,17.28,5.53,13.14-5.76,17.28-5.76,7.38,5.76,11.52,5.76,6.93-2.88,11.52-2.88,13.27,2.7,14.4-2.88c1.17-5.76-8.64-8.64-8.64-8.64"/><circle class="cls-4" cx="61.19" cy="69.71" r="1.44"/><circle class="cls-4" cx="52.55" cy="72.59" r="1.44"/><circle class="cls-4" cx="43.93" cy="66.82" r="1.44"/><circle class="cls-4" cx="38.15" cy="75.47" r="1.44"/><circle class="cls-4" cx="29.5" cy="69.71" r="1.44"/><circle class="cls-2" cx="61.19" cy="69.71" r="1.44"/><circle class="cls-2" cx="52.55" cy="72.59" r="1.44"/><circle class="cls-2" cx="43.93" cy="66.82" r="1.44"/><circle class="cls-2" cx="38.15" cy="75.47" r="1.44"/><circle class="cls-2" cx="29.5" cy="69.71" r="1.44"/></g></g></g></svg>