<?xml version="1.0" encoding="UTF-8"?><svg id="Layer_2" xmlns="http://www.w3.org/2000/svg" viewBox="0 0 100.99 125"><defs><style>.cls-1{fill:#ffe161;}.cls-2{fill:#f44747;}.cls-3{fill:#ffc863;}.cls-4{fill:#ffd007;}.cls-5{fill:#d13147;}.cls-6{fill:#231815;}.cls-7{stroke-linejoin:round;}.cls-7,.cls-8{fill:none;stroke:#2a1c18;stroke-linecap:round;stroke-width:5px;}.cls-8{stroke-miterlimit:10;}</style></defs><g id="_레이어_2"><path class="cls-2" d="m2.5,38.51h16s6.35,24,32,24,32-24,32-24h16l-16,83.99H18.5L2.5,38.51Z"/><polygon class="cls-5" points="2.5 38.51 18.5 122.5 24.5 122.5 8.5 38.51 2.5 38.51"/><path class="cls-1" d="m42.54,2.5v10.85l8,1.11-2.26,16.21-4.36,31.25,6.61.58c2.91,0,5.57-.32,8-.87h0V2.5h-16Z"/><path class="cls-1" d="m74.54,10.63v11.59h0l1.66-.12.14,1.95,1.73,23.81c3.3-5,4.46-9.35,4.46-9.35h8V10.63h-16Z"/><path class="cls-1" d="m78.07,47.86s0,0,0,.01h0Z"/><path class="cls-1" d="m76.34,24.05l-.14-1.95-1.66.12-14.3,1.04,2.7,37.05s5.85-2.3,9.72-6.09c3.87-3.79,5.41-6.36,5.41-6.36,0,0,0,0,0-.01l-1.73-23.81Z"/><path class="cls-1" d="m28.81,54.61s-.01-.01-.02-.02h0s.02.02.02.02Z"/><path class="cls-1" d="m43.92,61.92l-15.11-7.31c3.71,3.3,8.64,6.13,15.11,7.31Z"/><path class="cls-1" d="m50.54,14.46l-8-1.11-7.85-1.09-5.9,42.34s.01.01.02.02l15.11,7.31h0,0l.26.05c-.09-.02-.17-.04-.26-.05l4.36-31.25,2.26-16.21Z"/><path class="cls-1" d="m27.84,53.72h.01s-5.46-39.21-5.46-39.21l-15.85,2.21,3.04,21.79h8.96s2.21,8.36,9.3,15.21Z"/><path class="cls-4" d="m78.07,47.86h0s0,0,0,0h0Z"/><polygon class="cls-4" points="60.24 23.26 62.93 60.32 68.11 56.06 65.69 22.87 60.24 23.26"/><path class="cls-4" d="m44.15,60.29c-3.73-1.43-6.82-3.44-9.34-5.68,0,0-.01-.01-.02-.02l5.79-41.52-5.89-.82-5.9,42.34h0s.02.02.02.02l15.11,7.31h0,0l.26.05c-.09-.02-.17-.04-.26-.05l.23-1.63Z"/><path class="cls-4" d="m43.92,61.92l-15.11-7.31c3.71,3.3,8.64,6.13,15.11,7.31Z"/><path class="cls-4" d="m22.54,36.51h-8.96l-2.84-20.38-4.2.59,3.04,21.79h8.96s2.21,8.36,9.3,15.21h.01s-1.16-8.35-1.16-8.35c-3.06-4.79-4.15-8.86-4.15-8.86Z"/><polygon class="cls-4" points="42.54 13.35 49.16 14.27 49.16 2.5 42.54 2.5 42.54 13.35"/><path class="cls-4" d="m74.54,10.63v11.59h0l1.66-.12.14,1.95,1.73,23.81c1.71-2.59,2.84-5,3.54-6.72V10.63h-7.07Z"/><path class="cls-7" d="m2.5,38.51h16s6.35,24,32,24,32-24,32-24h16l-16,83.99H18.5L2.5,38.51Z"/><polyline class="cls-7" points="42.5 13.35 42.5 2.5 58.5 2.5 58.5 61.64"/><polyline class="cls-7" points="74.5 22.22 74.5 10.63 90.49 10.63 90.49 38.51"/><polyline class="cls-7" points="62.89 60.32 60.2 23.26 76.15 22.1 78.03 47.86"/><polyline class="cls-7" points="28.75 54.6 34.65 12.25 50.5 14.46 43.88 61.92"/><polyline class="cls-7" points="27.81 53.73 22.34 14.51 6.5 16.71 9.53 38.51"/><circle class="cls-3" cx="50.49" cy="91.84" r="20.43"/><circle class="cls-8" cx="50.49" cy="91.84" r="20.43"/><path class="cls-6" d="m59.24,89.19h-13.84v-9.2l-5.49,3.4v17.56c0,1.52,1.23,2.75,2.74,2.75h16.59c1.51,0,2.75-1.23,2.75-2.75v-9.01c0-1.52-1.23-2.75-2.75-2.75Zm-2.79,4.29v5.93h-11.05v-5.93h11.05Z"/></g></svg>