<?xml version="1.0" encoding="UTF-8"?><svg id="Layer_2" xmlns="http://www.w3.org/2000/svg" viewBox="0 0 117 125"><defs><style>.cls-1{fill:#fff;}.cls-2{fill:#ffdb69;}.cls-3{fill:#f44747;}.cls-4{fill:#ffc200;}.cls-5{fill:#e5a900;}.cls-6{fill:#ff7c7c;}.cls-7{fill:#c92c47;}.cls-8{stroke:#2a1c18;stroke-width:5px;}.cls-8,.cls-9{fill:none;stroke-linecap:round;stroke-linejoin:round;}.cls-9{stroke:#2e4369;stroke-width:2px;}</style></defs><g id="_레이어_2"><polyline class="cls-4" points="70.5 42.5 76.75 22.5 104.41 22.5 110.5 42.5"/><polyline class="cls-4" points="82.5 22.5 87.83 2.5 93.42 2.5 98.5 22.5"/><rect class="cls-4" x="66.5" y="42.5" width="48" height="80" rx="6" ry="6"/><polygon class="cls-5" points="87.83 2.5 82.5 22.5 84.83 22.5 88.61 2.5 87.83 2.5"/><path class="cls-5" d="m76.75,22.5l-6.25,20h2c-3.31,0-6,2.69-6,6v68c0,3.31,2.69,6,6,6h5.25c-2.35,0-4.25-2.69-4.25-6V48.49c0-3.31,1.9-6,4.25-6h-1.42l4.43-20h-4.01Z"/><path class="cls-2" d="m103.25,42.49h1.42l-4.31-20h-4.19l-3.6-20h-.97l1.9,20h2.22l2.28,20h-.75c1.24,0,2.25,2.69,2.25,6v68c0,3.31-1.01,6-2.25,6h6c2.35,0,4.25-2.69,4.25-6V48.49c0-3.31-1.9-6-4.25-6Z"/><path class="cls-1" d="m102.5,78.49c0,8.84-5.37,16-12,16s-12-7.16-12-16,5.37-16,12-16,12,7.17,12,16Z"/><polyline class="cls-3" points="6.49 42.5 12.74 22.5 40.41 22.5 46.49 42.5"/><polyline class="cls-3" points="18.49 22.5 23.83 2.5 29.41 2.5 34.49 22.5"/><rect class="cls-3" x="2.5" y="42.5" width="48" height="80" rx="6" ry="6"/><polygon class="cls-7" points="23.83 2.5 18.49 22.5 20.83 22.5 24.6 2.5 23.83 2.5"/><path class="cls-7" d="m12.75,22.5l-6.25,20h2c-3.31,0-6,2.69-6,6v68c0,3.31,2.69,6,6,6h5.25c-2.35,0-4.25-2.69-4.25-6V48.49c0-3.31,1.9-6,4.25-6h-1.42l4.43-20h-4.01Z"/><path class="cls-6" d="m39.25,42.49h1.42l-4.31-20h-4.19l-3.6-20h-.97l1.9,20h2.22l2.28,20h-.75c1.24,0,2.25,2.69,2.25,6v68c0,3.31-1.01,6-2.25,6h6c2.35,0,4.25-2.69,4.25-6V48.49c0-3.31-1.9-6-4.25-6Z"/><path class="cls-1" d="m38.5,78.49c0,8.84-5.37,16-12,16s-12-7.16-12-16,5.37-16,12-16,12,7.17,12,16Z"/><path class="cls-8" d="m102.5,78.49c0,8.84-5.37,16-12,16s-12-7.16-12-16,5.37-16,12-16,12,7.17,12,16Z"/><path class="cls-8" d="m38.5,78.49c0,8.84-5.37,16-12,16s-12-7.16-12-16,5.37-16,12-16,12,7.17,12,16Z"/><polyline class="cls-8" points="70.5 42.5 76.75 22.5 104.41 22.5 110.5 42.5"/><polyline class="cls-8" points="82.5 22.5 87.83 2.5 93.42 2.5 98.5 22.5"/><rect class="cls-8" x="66.5" y="42.5" width="48" height="80" rx="6" ry="6"/><polyline class="cls-9" points="6.5 42.5 12.75 22.5 40.41 22.5 46.49 42.5"/><polyline class="cls-9" points="18.49 22.5 23.83 2.5 29.41 2.5 34.49 22.5"/><rect class="cls-9" x="2.5" y="42.5" width="48" height="80" rx="6" ry="6"/><polyline class="cls-8" points="6.5 42.5 12.75 22.5 40.41 22.5 46.5 42.5"/><polyline class="cls-8" points="18.5 22.5 23.83 2.5 29.41 2.5 34.5 22.5"/><rect class="cls-8" x="2.5" y="42.5" width="48" height="80" rx="6" ry="6"/></g></svg>