<?xml version="1.0" encoding="UTF-8"?><svg id="Layer_2" xmlns="http://www.w3.org/2000/svg" viewBox="0 0 105 125"><defs><style>.cls-1{fill:#f26161;}.cls-2{fill:#fff;}.cls-3{fill:#ffc0c0;}.cls-4{fill:#fce9c7;}.cls-5{fill:#ff8388;}.cls-6{fill:#830000;}.cls-7{fill:#b8cd9c;}.cls-8{fill:#bacae9;}.cls-9{fill:#d64747;}.cls-10{fill:#d4e3fc;}.cls-11{fill:#ae0000;}.cls-12{fill:#2a1c18;}.cls-13{fill:#50840c;}.cls-14{fill:#78c565;}.cls-15{fill:none;stroke:#2a1c18;stroke-linecap:round;stroke-miterlimit:10;stroke-width:5px;}</style></defs><g id="_격리_모드"><path class="cls-1" d="m86.5,14.5h-16V5.36c0-1.58,1.28-2.86,2.86-2.86h13.14v12Z"/><path class="cls-11" d="m58.5,90.5s-4,5.92-4,8v16c0,5,3.18,8,8,8h32c4.83,0,8-3,8-8v-16c0-2.08-4-8-4-8"/><path class="cls-10" d="m101.5,34.5c-2.06-8.43-7.25-16.55-15-20h-16c-7.75,3.45-12.94,11.57-15,20"/><path class="cls-11" d="m98.5,58.5s4-5.21,4-16c0-2.6-.34-5.32-1-8h-46c-.66,2.68-1,5.4-1,8,0,10.79,4,16,4,16"/><rect class="cls-1" x="58.5" y="58.5" width="40" height="32"/><path class="cls-9" d="m73.83,2.5h-.47c-1.58,0-2.86,1.28-2.86,2.86v9.14h3.33V2.5Z"/><path class="cls-6" d="m64.5,114.5v-16c0-2.08,2.33-8,2.33-8h-8.33s-4,5.92-4,8v16c0,5,3.18,8,8,8h6.67c-2.81,0-4.67-3-4.67-8Z"/><path class="cls-8" d="m73.83,14.5h-3.33c-7.75,3.45-12.94,11.57-15,20h9.58c1.2-8.43,4.23-16.55,8.75-20Z"/><path class="cls-6" d="m64.5,42.5c0-2.6.2-5.32.58-8h-9.58c-.66,2.68-1,5.4-1,8,0,10.79,4,16,4,16h8.33s-2.33-5.21-2.33-16Z"/><rect class="cls-9" x="58.5" y="58.5" width="8.33" height="32"/><rect class="cls-3" x="80.5" y="2.5" width="2.66" height="12"/><path class="cls-5" d="m83.5,90.5s1,5.92,1,8v16c0,5-.79,8-2,8h5.33c2.82,0,4.67-3,4.67-8v-16c0-2.08-2.33-8-2.33-8h-6.67Z"/><path class="cls-2" d="m84.25,34.5h7.67c-1.2-8.43-4.23-16.55-8.75-20h-2.66c1.94,3.45,3.24,11.57,3.75,20Z"/><path class="cls-5" d="m84.5,42.5c0,10.79-1,16-1,16h6.67s2.33-5.21,2.33-16c0-2.6-.2-5.32-.58-8h-7.67c.16,2.68.25,5.4.25,8Z"/><rect class="cls-3" x="83.5" y="58.5" width="6.67" height="32"/><path class="cls-15" d="m86.5,14.5h-16V5.36c0-1.58,1.28-2.86,2.86-2.86h10.27c1.58,0,2.86,1.28,2.86,2.86v9.14Z"/><path class="cls-15" d="m58.5,90.5s-4,5.92-4,8v16c0,5,3.18,8,8,8h32c4.83,0,8-3,8-8v-16c0-2.08-4-8-4-8"/><path class="cls-15" d="m101.5,34.5c-2.06-8.43-7.25-16.55-15-20h-16c-7.75,3.45-12.94,11.57-15,20"/><path class="cls-15" d="m98.5,58.5s4-5.21,4-16c0-2.6-.34-5.32-1-8h-46c-.66,2.68-1,5.4-1,8,0,10.79,4,16,4,16"/><rect class="cls-15" x="58.5" y="58.5" width="40" height="32"/><path class="cls-14" d="m50.5,30.53c0,7.97,9.53,12.69,10.12,13.28s1.87,1.44,1.87,2.7v65.86c0,1.06-.31,2.18-.87,2.75-.56.56-6.41,5.84-6.94,6.37-.53.53-.94,1.01-1.69,1.01H12c-.75,0-1.16-.48-1.69-1.01s-6.37-5.81-6.94-6.37c-.56-.56-.87-1.69-.87-2.75V46.51c0-1.26,1.28-2.11,1.87-2.7.59-.59,10.12-5.31,10.12-13.28h36Z"/><path class="cls-13" d="m17.71,121.49c-.36-.53-4.25-5.81-4.62-6.37-.37-.56-.58-1.69-.58-2.75V46.51c0-1.26.85-2.11,1.25-2.7.4-.59,6.75-5.31,6.75-13.28h-6c0,7.97-9.53,12.69-10.12,13.28-.59.59-1.87,1.44-1.87,2.7v65.86c0,1.06.31,2.18.87,2.75.56.56,6.41,5.84,6.94,6.37s.94,1.01,1.69,1.01h6.83c-.5,0-.77-.48-1.12-1.01Z"/><path class="cls-7" d="m51.25,43.81c-.4-.59-6.75-5.31-6.75-13.28h-7.2c0,7.97,2.54,12.69,2.7,13.28.16.59.5,1.44.5,2.7v65.86c0,1.06-.08,2.18-.23,2.75-.15.56-1.71,5.84-1.85,6.37-.14.53-.25,1.01-.45,1.01h8.2c.5,0,.77-.48,1.12-1.01.36-.53,4.25-5.81,4.62-6.37.37-.56.58-1.69.58-2.75V46.51c0-1.26-.85-2.11-1.25-2.7Z"/><circle class="cls-10" cx="40.5" cy="8.5" r="2"/><circle class="cls-10" cx="50.5" cy="20.5" r="2"/><circle class="cls-10" cx="33.67" cy="23.57" r="2"/><ellipse class="cls-4" cx="32.47" cy="78.5" rx="14" ry="24"/><path class="cls-15" d="m14.5,30.53c0,7.97-9.53,12.69-10.12,13.28-.59.59-1.88,1.44-1.88,2.7v65.86c0,1.06.32,2.18.88,2.75.56.56,6.41,5.84,6.94,6.37.53.53.94,1.01,1.69,1.01h40.99c.75,0,1.16-.48,1.69-1.01.53-.53,6.37-5.81,6.94-6.37.56-.56.88-1.69.88-2.75V46.51c0-1.26-1.29-2.11-1.88-2.7-.59-.59-10.12-5.31-10.12-13.28"/><line class="cls-15" x1="10.5" y1="18.5" x2="22.53" y2="30.53"/><line class="cls-15" x1="10.5" y1="30.5" x2="54.43" y2="30.5"/><path class="cls-12" d="m40.5,6.5c1.11,0,2,.89,2,2s-.89,2-2,2-2-.89-2-2,.89-2,2-2m0-5c-3.86,0-7,3.14-7,7s3.14,7,7,7,7-3.14,7-7-3.14-7-7-7h0Z"/><path class="cls-12" d="m50.5,18.5c1.11,0,2,.9,2,2s-.89,2-2,2-2-.89-2-2,.89-2,2-2m0-5c-3.86,0-7,3.14-7,7s3.14,7,7,7,7-3.14,7-7-3.14-7-7-7h0Z"/><path class="cls-12" d="m33.67,21.57c1.11,0,2,.89,2,2s-.89,2-2,2-2-.89-2-2,.89-2,2-2m0-5c-3.86,0-7,3.14-7,7s3.14,7,7,7,7-3.14,7-7-3.14-7-7-7h0Z"/><ellipse class="cls-15" cx="32.47" cy="78.5" rx="14" ry="24"/></g></svg>