<?xml version="1.0" encoding="UTF-8"?><svg id="Layer_2" xmlns="http://www.w3.org/2000/svg" viewBox="0 0 125 125"><defs><style>.cls-1{fill:#f4d34d;}.cls-2{fill:#f9e79e;}.cls-3{fill:#fff;}.cls-4{fill:#efbf00;}.cls-5{fill:#fce9c7;}.cls-6{fill:#bacae9;}.cls-7{fill:#d4e3fc;}.cls-8{stroke-linejoin:round;}.cls-8,.cls-9{fill:none;stroke:#2a1c18;stroke-linecap:round;stroke-width:5px;}.cls-9{stroke-miterlimit:10;}</style></defs><g id="_격리_모드"><path class="cls-5" d="m94.5,14.1c-1.62,0-3.15.31-4.62.76-1.55-4.84-6.03-8.36-11.38-8.36-2.53,0-4.86.79-6.8,2.12-3.95-3.78-9.3-6.12-15.2-6.12-8.56,0-15.96,4.9-19.6,12.04-.14,0-.26-.04-.4-.04-9.94,0-18,8.06-18,18,0,7.84,5,14.5,12,16.97v-6.98h72v1.46h0c4.78-2.77,8-7.93,8-13.85,0-8.83-7.16-16-16-16Z"/><path class="cls-7" d="m102.5,98.49h8c6.62,0,12-5.37,12-12v-24c0-6.62-5.37-12-12-12h-8v8h8c2.21,0,4,1.8,4,4v24c0,2.21-1.79,4-4,4h-8v8Z"/><path class="cls-1" d="m30.5,42.5v74c0,3.31,2.69,6,6,6h60c3.32,0,6-2.69,6-6V42.5H30.5Z"/><path class="cls-2" d="m74.47,42.5v74c0,3.31-2.68,6-6,6h14.01c3.32,0,6-2.69,6-6V42.5h-14.01Z"/><path class="cls-4" d="m46.51,116.5V42.5h-16.02v74c0,3.31,2.69,6,6,6h16.02c-3.31,0-6-2.69-6-6Z"/><path class="cls-8" d="m102.5,42.49v74c0,3.31-2.68,6-6,6h-60c-3.31,0-6-2.69-6-6V42.49h72Z"/><line class="cls-8" x1="66.5" y1="62.5" x2="66.5" y2="102.49"/><line class="cls-8" x1="46.5" y1="62.5" x2="46.5" y2="102.49"/><line class="cls-8" x1="86.5" y1="62.5" x2="86.5" y2="102.49"/><path class="cls-8" d="m102.5,50.49h8c6.62,0,12,5.37,12,12v24c0,6.63-5.37,12-12,12h-8"/><path class="cls-8" d="m102.5,90.49h8c2.2,0,4-1.79,4-4v-24c0-2.2-1.79-4-4-4h-8"/><path class="cls-8" d="m102.5,43.95c4.78-2.77,8-7.93,8-13.85,0-8.83-7.16-16-16-16-1.62,0-3.15.31-4.62.76-1.55-4.84-6.03-8.36-11.38-8.36-2.53,0-4.86.79-6.8,2.12-3.95-3.78-9.3-6.12-15.2-6.12-8.56,0-15.96,4.9-19.6,12.04-.14,0-.26-.04-.4-.04-9.94,0-18,8.06-18,18,0,7.84,5,14.5,12,16.97"/><path class="cls-1" d="m10.65,66.22c2.2,8.5,3.85,16.28,3.85,24.28v28c0,1.7,1.25,4,4.25,4h35.5c3,0,4.25-2.3,4.25-4v-28c0-8,1.65-15.78,3.85-24.28,2.2-8.5,8.15-29.71,8.15-39.72H2.5c0,10.01,5.95,31.22,8.15,39.72Z"/><path class="cls-7" d="m70.5,26.51c0-12-4-24-4-24H6.5s-4,12-4,24"/><path class="cls-4" d="m22.27,118.5v-28c0-8-1.07-15.78-2.49-24.28-1.42-8.5-5.27-29.71-5.27-39.71H2.5c0,10.01,5.95,31.21,8.15,39.71,2.2,8.5,3.85,16.28,3.85,24.28v28c0,1.7,1.25,4,4.25,4h6.27c-1.94,0-2.75-2.29-2.75-4Z"/><path class="cls-6" d="m17.09,2.51H6.5s-4,12-4,24h12c0-12,2.59-24,2.59-24Z"/><path class="cls-2" d="m44.5,26.51c0,10.01-1.4,31.21-1.92,39.71-.52,8.5-.91,16.28-.91,24.28v28c0,1.7-.29,4-1,4h7.31c1.94,0,2.75-2.29,2.75-4v-28c0-8,1.07-15.78,2.49-24.28,1.42-8.5,5.27-29.71,5.27-39.71h-14Z"/><path class="cls-3" d="m58.5,26.51c0-12-2.59-24-2.59-24h-12.35s.94,12,.94,24h14Z"/><path class="cls-5" d="m38.5,40.5c0,1.11-.89,2-2,2s-2-.89-2-2,.89-2,2-2,2,.9,2,2Z"/><circle class="cls-5" cx="48.5" cy="52.51" r="2"/><path class="cls-5" d="m34.5,64.5c0,1.11-.89,2-2,2s-2-.89-2-2,.89-2,2-2,2,.9,2,2Z"/><path class="cls-5" d="m42.5,80.51c0,1.1-.89,2-2,2s-2-.9-2-2,.89-2,2-2,2,.89,2,2Z"/><path class="cls-5" d="m34.5,96.5c0,1.1-.89,2-2,2s-2-.9-2-2,.89-2,2-2,2,.89,2,2Z"/><path class="cls-9" d="m10.65,66.22c2.2,8.5,3.85,16.28,3.85,24.28v28c0,1.7,1.25,4,4.25,4h35.5c3,0,4.25-2.3,4.25-4v-28c0-8,1.65-15.78,3.85-24.28,2.2-8.5,8.15-29.71,8.15-39.72H2.5c0,10.01,5.95,31.21,8.15,39.72Z"/><path class="cls-9" d="m70.5,26.5c0-12-4-24-4-24H6.5s-4,12-4,24"/><path class="cls-9" d="m38.5,40.5c0,1.11-.89,2-2,2s-2-.89-2-2,.89-2,2-2,2,.9,2,2Z"/><circle class="cls-9" cx="48.5" cy="52.5" r="2"/><path class="cls-9" d="m34.5,64.5c0,1.11-.89,2-2,2s-2-.89-2-2,.89-2,2-2,2,.9,2,2Z"/><path class="cls-9" d="m42.5,80.5c0,1.1-.89,2-2,2s-2-.9-2-2,.89-2,2-2,2,.89,2,2Z"/><path class="cls-9" d="m34.5,96.5c0,1.1-.89,2-2,2s-2-.9-2-2,.89-2,2-2,2,.89,2,2Z"/></g></svg>