<?xml version="1.0" encoding="UTF-8"?><svg id="Layer_2" xmlns="http://www.w3.org/2000/svg" viewBox="0 0 144.83 104.66"><defs><style>.cls-1{fill:#f53d3d;}.cls-2{fill:#fff;}.cls-3{fill:#fff222;}.cls-4{fill:#7b8baf;}.cls-5{fill:none;stroke:#2a1c18;stroke-linecap:round;stroke-linejoin:round;stroke-width:5px;}.cls-6{opacity:.15;}.cls-6,.cls-7{fill:#000064;}.cls-7{opacity:.2;}.cls-8{opacity:.25;}</style></defs><g id="_격리_모드"><path class="cls-1" d="m114.99,62.86h11.87c19.29,0,15.07,19.51,15.07,19.51h-46.5s11.37-.59,19.56-19.51Z"/><path class="cls-4" d="m137.48,82.37c.02,1.26-.12,2.59-.46,3.96-2.12,8.74-10.92,15.83-19.66,15.83s-14.12-7.09-12-15.83c.33-1.37.83-2.69,1.46-3.96"/><path class="cls-4" d="m76.31,42.79h-40.48c-1.53,0-2.75,1.22-2.63,2.74.8,9.93,10.76,13.09,23.53,13.09h7.92c6.82,0,13.26-.92,18.64-3.27,6.92-3.48,9.56-12.57-6.98-12.57Z"/><path class="cls-4" d="m61.91,86.32c-2.12,8.74-10.92,15.83-19.66,15.83s-14.12-7.09-12-15.83"/><path class="cls-1" d="m56.74,58.62c-15.3,0-30.71,12.41-34.41,27.7h63.33c3.7-15.3-5.7-27.7-21-27.7h-7.92Z"/><path class="cls-6" d="m56.5,58.22h8.06c6.94,0,13.42-.93,18.69-3.3,1.35-.71,2.49-1.65,3.34-2.7h-27.01c-17.68,0-24.47-10.01-24.47-10.01h-4c.17,12.24,11.26,16.01,25.39,16.01Z"/><path class="cls-7" d="m138.5,82.23h-31c-.53,1.28-.91,2.62-1.12,4s-.22,2.72-.09,4h30.97c.53-1.28.93-2.62,1.14-4s.24-2.73.11-4Z"/><path class="cls-7" d="m32.33,86.23c-.45,2.92-.08,5.65.93,8.01h27.7c1.73-2.36,2.94-5.09,3.39-8.01h-32.02Z"/><path class="cls-6" d="m56.66,58.22c-15.47,0-29.95,12.54-32.33,28.02h14.01c1.64-10.67,8.03-21.84,16.2-21.84h26.69c-4.21-3.85-9.93-6.17-16.57-6.17h-8Z"/><g class="cls-8"><path class="cls-2" d="m120.81,67.3c12.42,0,14.81,9.08,15.16,14.29h5.86s2.31-17.87-15.12-17.87h-10.72l-.05.35c-.14.92-.45,2.02-.92,3.22h5.79Z"/><path class="cls-2" d="m100.83,81.59c.31-.23.6-.47.89-.71-.61.25-1.23.49-1.88.7h0s.99.01.99.01Z"/></g><path class="cls-5" d="m109.76,19.04h7.97c2.26,0,7.3,2.31,5.95,7.91-1.35,5.6-7.98,33-8.71,36.01-1.55,6.39-10.8,20.83-29.02,20.83"/><path class="cls-5" d="m114.99,62.86h11.87c19.29,0,15.07,19.51,15.07,19.51h-46.5"/><path class="cls-5" d="m61.91,86.32c-2.12,8.74-10.92,15.83-19.66,15.83s-14.12-7.09-12-15.83"/><path class="cls-5" d="m56.74,58.62c-15.3,0-30.71,12.41-34.41,27.7h63.33c3.7-15.3-5.7-27.7-21-27.7h-7.92Z"/><path class="cls-5" d="m137.48,82.37c.02,1.26-.12,2.59-.46,3.96-2.12,8.74-10.92,15.83-19.66,15.83s-14.12-7.09-12-15.83c.33-1.37.83-2.69,1.46-3.96"/><path class="cls-5" d="m76.31,42.79h-40.48c-1.53,0-2.75,1.22-2.63,2.74.8,9.93,10.76,13.09,23.53,13.09h7.92c6.82,0,13.26-.92,18.64-3.27,6.92-3.48,9.56-12.57-6.98-12.57Z"/><line class="cls-5" x1="135.55" y1="26.96" x2="132.68" y2="38.83"/><path class="cls-1" d="m40.81,2.5h23.73c2.27,0,4.12,1.85,4.12,4.12v36.17H22.33v-21.81c0-10.2,8.28-18.48,18.48-18.48Z"/><path class="cls-5" d="m40.81,2.5h23.73c2.27,0,4.12,1.85,4.12,4.12v36.17H22.33v-21.81c0-10.2,8.28-18.48,18.48-18.48Z"/><path class="cls-3" d="m55.46,18.56h-16.27c-.08,0-.15-.05-.15-.12v-9.8l-5.63,3.33v19.31c0,1.5,1.26,2.72,2.81,2.72h19.24c1.55,0,2.82-1.22,2.82-2.72v-10c0-1.5-1.26-2.72-2.82-2.72Zm-2.86,4.21v7.02c0,.06-.07.11-.15.11h-13.26c-.08,0-.15-.05-.15-.11v-7.02s.06-.12.15-.12h13.26c.09,0,.15.07.15.12Z"/><line class="cls-5" x1="23.01" y1="57.29" x2="9.82" y2="57.29"/><line class="cls-5" x1="18.24" y1="71.81" x2="13.14" y2="71.81"/><line class="cls-5" x1="12.03" y1="86.32" x2="2.5" y2="86.32"/></g></svg>