<svg width="600" height="336" viewBox="0 0 600 336" fill="none" xmlns="http://www.w3.org/2000/svg">
<g clip-path="url(#clip0_94_4947)">
<rect width="600" height="336" rx="34.4988" fill="#F0F0F0"/>
<path d="M300.028 277.343C348.87 277.343 383.558 237.99 388.465 188.941C401.588 57.764 348.87 39.8496 300.028 39.8496C251.186 39.8496 198.468 57.764 211.591 188.941C216.498 237.99 251.186 277.343 300.028 277.343Z" fill="#D6D6D6"/>
<path d="M248.006 175.56C248.006 191.799 234.841 201.571 218.602 201.571C202.362 201.571 189.198 185.014 189.198 168.774C189.198 152.535 202.362 142.763 218.602 142.763C234.841 142.763 248.006 159.321 248.006 175.56Z" fill="#D6D6D6"/>
<path d="M352.05 175.56C352.05 191.799 365.215 201.571 381.454 201.571C397.694 201.571 410.858 185.014 410.858 168.774C410.858 152.535 397.694 142.763 381.454 142.763C365.215 142.763 352.05 159.321 352.05 175.56Z" fill="#D6D6D6"/>
<path d="M267.458 243.415H332.599L340.741 342.936L299.01 369.513L259.315 342.936L267.458 243.415Z" fill="#D6D6D6"/>
<path fill-rule="evenodd" clip-rule="evenodd" d="M311.971 276.536C308.095 277.068 304.111 277.343 300.028 277.343C287.413 277.343 275.742 274.718 265.284 269.979L262.87 299.485C282.152 297.465 298.88 289.131 311.971 276.536Z" fill="#B7B7B7"/>
<path fill-rule="evenodd" clip-rule="evenodd" d="M342.063 308.245C339.679 308.001 337.731 306.149 337.536 303.761C337.334 301.295 335.274 299.396 332.8 299.396H267.373C264.833 299.396 262.718 301.345 262.511 303.877C262.314 306.278 260.39 308.158 258.001 308.47C220.03 313.423 188.202 349.059 178.373 399.138C177.307 404.572 180.464 409.661 184.614 409.661H417.378C421.527 409.661 424.685 404.572 423.618 399.138C413.623 348.214 380.88 312.224 342.063 308.245Z" fill="#D6D6D6"/>
<path d="M402.522 150.17C408.593 43.5045 347.509 32.695 302.538 31.1692C300.766 31.109 298.897 31.1224 297.518 31.1692C252.65 32.6915 191.742 44.1916 197.493 150.232C200.344 147.755 203.802 145.876 207.666 144.661C211.623 147.9 219.498 157.454 219.498 169.622V184.877C219.498 188.388 224.01 189.821 226.037 186.955C226.467 186.347 226.7 185.633 226.693 184.888C226.657 181.007 226.447 178.666 226.219 173.663C225.332 154.173 227.561 128.605 235.31 115.903C247.338 96.1869 276.5 99.7002 300.028 99.5139C323.556 99.7002 352.718 96.1869 364.746 115.903C372.521 128.648 375.409 153.305 374.821 172.097C374.801 172.757 374.78 173.41 374.759 174.055L374.491 184.888C374.488 185.435 374.637 185.96 374.917 186.43C376.495 189.077 380.558 187.959 380.558 184.877V169.622C380.558 157.408 388.443 147.937 392.385 144.733C396.114 145.931 399.663 147.743 402.44 150.126L402.522 150.17Z" fill="#463E38"/>
</g>
<defs>
<clipPath id="clip0_94_4947">
<rect width="600" height="336" rx="34.4988" fill="white"/>
</clipPath>
</defs>
</svg>
