<svg width="600" height="336" viewBox="0 0 600 336" fill="none" xmlns="http://www.w3.org/2000/svg">
<g clip-path="url(#clip0_94_4941)">
<rect width="600" height="336" rx="34.4988" fill="#F0F0F0"/>
<path d="M300 278.412C348.904 278.412 383.636 239.009 388.549 189.898C401.688 58.5547 348.904 40.6177 300 40.6177C251.096 40.6177 198.312 58.5547 211.451 189.898C216.364 239.009 251.096 278.412 300 278.412Z" fill="#FFDCDC"/>
<path d="M247.912 176.5C247.912 192.76 234.73 202.544 218.47 202.544C202.211 202.544 189.029 185.966 189.029 169.706C189.029 153.446 202.211 143.662 218.47 143.662C234.73 143.662 247.912 160.24 247.912 176.5Z" fill="#FFDCDC"/>
<path d="M352.088 176.5C352.088 192.76 365.27 202.544 381.53 202.544C397.789 202.544 410.971 185.966 410.971 169.706C410.971 153.446 397.789 143.662 381.53 143.662C365.27 143.662 352.088 160.24 352.088 176.5Z" fill="#FFDCDC"/>
<path d="M267.388 244.441H332.612L340.765 344.088L298.981 370.699L259.235 344.088L267.388 244.441Z" fill="#FFDCDC"/>
<path fill-rule="evenodd" clip-rule="evenodd" d="M311.958 277.604C308.077 278.137 304.088 278.412 300 278.412C287.369 278.412 275.683 275.784 265.212 271.038L262.795 300.582C282.102 298.559 298.85 290.214 311.958 277.604Z" fill="#FAC2C2"/>
<path fill-rule="evenodd" clip-rule="evenodd" d="M342.088 309.352C339.701 309.107 337.751 307.254 337.555 304.862C337.353 302.393 335.29 300.492 332.813 300.492H267.303C264.76 300.492 262.642 302.444 262.435 304.978C262.238 307.383 260.311 309.265 257.919 309.577C219.901 314.536 188.032 350.218 178.191 400.36C177.123 405.801 180.285 410.897 184.439 410.897H417.498C421.653 410.897 424.815 405.801 423.747 400.36C413.739 349.372 380.955 313.336 342.088 309.352Z" fill="#FFDCDC"/>
</g>
<defs>
<clipPath id="clip0_94_4941">
<rect width="600" height="336" rx="34.4988" fill="white"/>
</clipPath>
</defs>
</svg>
