<svg width="600" height="336" viewBox="0 0 600 336" fill="none" xmlns="http://www.w3.org/2000/svg">
<g clip-path="url(#clip0_94_4940)">
<rect width="600" height="336" rx="34.4988" fill="#F0F0F0"/>
<path d="M300.028 277.343C348.87 277.343 383.558 237.99 388.465 188.941C401.588 57.764 348.87 39.8496 300.028 39.8496C251.186 39.8496 198.468 57.764 211.591 188.941C216.498 237.99 251.186 277.343 300.028 277.343Z" fill="#D6D6D6"/>
<path d="M248.006 175.56C248.006 191.8 234.841 201.571 218.602 201.571C202.362 201.571 189.198 185.014 189.198 168.775C189.198 152.535 202.362 142.764 218.602 142.764C234.841 142.764 248.006 159.321 248.006 175.56Z" fill="#D6D6D6"/>
<path d="M352.05 175.56C352.05 191.8 365.215 201.571 381.454 201.571C397.694 201.571 410.858 185.014 410.858 168.775C410.858 152.535 397.694 142.764 381.454 142.764C365.215 142.764 352.05 159.321 352.05 175.56Z" fill="#D6D6D6"/>
<path d="M267.458 243.415H332.599L340.741 342.936L299.01 369.513L259.315 342.936L267.458 243.415Z" fill="#D6D6D6"/>
<path fill-rule="evenodd" clip-rule="evenodd" d="M311.972 276.537C308.095 277.069 304.111 277.344 300.028 277.344C287.413 277.344 275.742 274.719 265.284 269.979L262.87 299.486C282.153 297.466 298.88 289.132 311.972 276.537Z" fill="#B7B7B7"/>
<path fill-rule="evenodd" clip-rule="evenodd" d="M342.063 308.245C339.678 308.001 337.731 306.149 337.535 303.761C337.334 301.295 335.274 299.396 332.8 299.396H267.372C264.832 299.396 262.717 301.345 262.51 303.877C262.314 306.278 260.389 308.158 258 308.47C220.03 313.423 188.202 349.059 178.373 399.138C177.306 404.572 180.464 409.661 184.613 409.661H417.378C421.527 409.661 424.685 404.572 423.618 399.138C413.623 348.214 380.88 312.224 342.063 308.245Z" fill="#D6D6D6"/>
<path fill-rule="evenodd" clip-rule="evenodd" d="M386.622 201.289C380.19 232.371 361.422 258.181 334.772 270.259L338.918 320.941C339.74 321.111 340.562 321.274 341.387 321.427C342.078 321.555 342.78 321.707 343.488 321.86C348.252 322.893 353.217 323.969 356.28 317.977C357.253 316.083 357.435 312.054 357.578 308.882C357.623 307.874 357.665 306.953 357.727 306.214C358.386 298.672 358.405 291.13 358.075 283.606L358.13 284.432C358.753 293.167 359.742 301.865 361.226 310.49C361.335 311.123 361.429 311.823 361.527 312.561C362.043 316.416 362.695 321.286 366.355 322.95C370.532 324.859 377.988 323.207 382.256 322.143C387.276 320.895 391.983 318.289 394.805 313.83C398.212 308.471 398.377 301.81 398.102 295.681C397.959 292.553 397.764 289.438 397.569 286.325C397.188 280.252 396.808 274.19 396.82 268.063C396.842 260.342 397.471 252.688 398.098 245.042C399.018 233.844 399.935 222.664 398.945 211.323L398.908 211.304V211.047C398.408 205.607 398.599 200.181 399.075 194.761C395.474 197.95 391.234 200.275 386.622 201.289ZM402.855 150.49C403.042 142.829 402.936 135.164 402.444 127.515C400.795 102.026 396.398 68.8112 374.141 52.6626C360.053 42.4326 340.718 36.067 321.66 33.0893C356.825 40.0754 388.619 67.2479 390.421 144.108C395.219 145.298 399.481 147.464 402.855 150.49ZM298.252 31.0956C296.077 31.0686 293.94 31.0888 291.852 31.1556C272.8 31.7611 254.591 36.2938 241.603 48.2401C227.039 55.2133 217.715 68.279 210.461 83.033C200.385 103.476 196.41 123.46 198.077 146.233C198.158 147.327 198.254 148.419 198.363 149.509C201.532 146.992 205.372 145.165 209.635 144.108C211.773 52.9117 256.135 31.6674 298.252 31.0956ZM201.694 195.374C205.137 198.247 209.123 200.341 213.434 201.289C219.866 232.371 238.634 258.181 265.284 270.259L260.839 324.591C260.277 324.549 259.709 324.497 259.134 324.436C258.371 324.355 257.608 324.268 256.846 324.182C252.616 323.7 248.4 323.22 244.131 323.702C240.196 324.146 236.626 325.468 233.008 326.807C231.691 327.294 230.367 327.784 229.017 328.235C221.195 330.841 210.131 330.822 210.185 319.518C210.211 314.206 212.036 308.455 213.771 302.988C214.493 300.712 215.2 298.485 215.755 296.36C217.385 290.139 218.008 279.606 218.008 279.606C218.008 279.606 212.109 296.965 209.105 305.609C208.843 306.361 208.585 307.222 208.309 308.142C206.943 312.697 205.153 318.667 200.458 319.72C194.431 321.06 198.205 286.138 199.139 281.955C201.576 271.018 202.052 229.031 201.521 219.103C201.145 212.072 201.377 205.04 201.608 198.005C201.637 197.128 201.666 196.251 201.694 195.374Z" fill="#5D5D5D"/>
<path d="M402.522 150.17C408.593 43.5041 347.509 21.3854 302.538 19.8596C300.766 19.7994 298.897 19.8128 297.518 19.8596C252.65 21.3819 191.742 44.1912 197.493 150.232C200.344 147.754 203.802 145.875 207.666 144.661C211.623 147.9 219.498 157.454 219.498 169.622V184.877C219.498 188.388 224.01 189.821 226.037 186.954C226.467 186.347 226.7 185.632 226.693 184.888C226.657 181.006 226.447 178.666 226.219 173.663C225.332 154.173 224.168 128.605 231.917 115.903C243.945 96.1865 273.99 58.4124 297.518 58.2262C321.046 58.4124 356.111 96.1865 368.139 115.903C375.914 128.647 375.409 153.305 374.821 172.097C374.801 172.757 374.78 173.41 374.759 174.055L374.491 184.888C374.488 185.435 374.637 185.959 374.917 186.429C376.495 189.076 380.558 187.959 380.558 184.877V169.622C380.558 157.408 388.443 147.937 392.385 144.733C396.114 145.931 399.663 147.743 402.44 150.126L402.522 150.17Z" fill="#5D5D5D"/>
<path d="M392.746 230.04C392.49 214.674 391.629 204.963 390.951 189.615C389.705 161.499 389.852 132.396 384.447 104.683C380.234 83.1521 370.671 61.5119 352.223 48.5059C334.104 35.7376 308.219 35.1522 291.786 50.9205C289.606 50.6827 287.078 51.5241 284.714 51.8168C271.084 53.4815 258.535 44.9205 245.986 54.0119C235.892 61.3107 228.454 75.5606 224.479 87.0484C219.001 102.908 223.05 122.737 224.9 138.981C224.937 139.329 225.083 139.603 225.266 139.841C223.104 140.024 220.814 139.768 218.378 138.835C216.344 138.067 215.465 141.323 217.48 142.091C224.845 144.89 231.147 143.317 237.174 138.451C246.426 130.969 254.944 131.364 263.738 123.37C271.286 116.492 278.925 109.907 284.11 100.998C288.397 93.6263 291.548 85.5409 294.186 77.4373C294.241 77.3824 294.259 77.291 294.314 77.2361C299.059 86.6019 311.315 92.0531 319.962 96.608C327.546 100.596 336.963 103.76 341.927 111.224C349.296 122.334 353.413 125.774 354.036 139.109C354.385 146.851 353.475 163.99 352.333 171.626C349.41 191.053 347.843 202.335 343.723 221.479C341.194 233.186 337.988 241.025 336.669 252.97C334.965 263.794 329.671 281.826 320.255 294.375C318.533 296.68 316.133 301.18 320.804 302.167C326.227 303.32 331.283 293.131 333.17 289.82C338.776 279.924 347.258 270.306 347.258 270.306C347.258 270.306 345.683 290.332 342.605 304.911C342.293 306.356 343.741 307.527 345.097 306.814C351.765 303.283 358.781 301.436 366.329 301.6C371.147 301.71 375.178 302.424 379.263 299.552C387.818 293.552 389.724 276.251 389.925 267.251C390.255 252.105 393.003 241.812 392.746 229.985V230.04Z" fill="#5D5D5D"/>
</g>
<defs>
<clipPath id="clip0_94_4940">
<rect width="600" height="336" rx="34.4988" fill="white"/>
</clipPath>
</defs>
</svg>
