<svg width="600" height="336" viewBox="0 0 600 336" fill="none" xmlns="http://www.w3.org/2000/svg">
<g clip-path="url(#clip0_94_4950)">
<rect width="600" height="336" rx="34.4988" fill="#F0F0F0"/>
<path d="M300 175.353C363.512 175.353 408.618 124.18 414.999 60.3997C432.063 -110.176 363.512 -133.471 300 -133.471C236.488 -133.471 167.937 -110.176 185.002 60.3997C191.382 124.18 236.488 175.353 300 175.353Z" fill="#E6E6E6"/>
<path d="M232.353 42.9996C232.353 64.1164 215.234 76.8231 194.118 76.8231C173.001 76.8231 155.882 55.2928 155.882 34.1761C155.882 13.0593 173.001 0.352539 194.118 0.352539C215.234 0.352539 232.353 21.8828 232.353 42.9996Z" fill="#E6E6E6"/>
<path d="M367.647 42.9996C367.647 64.1164 384.766 76.8231 405.882 76.8231C426.999 76.8231 444.118 55.2928 444.118 34.1761C444.118 13.0593 426.999 0.352539 405.882 0.352539C384.766 0.352539 367.647 21.8828 367.647 42.9996Z" fill="#E6E6E6"/>
<path d="M257.647 131.234H342.353L352.941 260.646L298.676 295.205L247.059 260.646L257.647 131.234Z" fill="#E6E6E6"/>
<path fill-rule="evenodd" clip-rule="evenodd" d="M315.53 174.304C310.49 174.997 305.309 175.354 300 175.354C283.596 175.354 268.419 171.94 254.821 165.777L251.682 204.146C276.755 201.518 298.507 190.682 315.53 174.304Z" fill="#D9D9D9"/>
<path fill-rule="evenodd" clip-rule="evenodd" d="M354.66 215.535C351.56 215.218 349.027 212.81 348.773 209.704C348.511 206.498 345.832 204.029 342.615 204.029H257.536C254.234 204.029 251.484 206.564 251.214 209.855C250.959 212.978 248.457 215.422 245.35 215.827C195.975 222.268 154.588 268.608 141.806 333.727C140.419 340.794 144.526 347.411 149.921 347.411H452.595C457.991 347.411 462.097 340.794 460.71 333.727C447.713 267.509 405.136 220.709 354.66 215.535Z" fill="#E6E6E6"/>
<path d="M253.466 185.607C228.398 187.562 184.158 194.675 184.158 209.786C183.971 211.718 184.211 216.065 186.663 217.991C171.034 217.366 137.543 244.326 127.619 253.694C123.907 257.199 118.218 263.561 103.947 301.083C97.7638 317.338 95.5873 328.351 95.7007 335.647C95.003 338.785 95.7577 341.807 97.4618 344.169C99.1395 347.396 101.792 348.594 104.429 348.644C105.195 348.8 105.99 348.883 106.808 348.883H493.486C494.567 348.883 495.609 348.739 496.595 348.47C497.444 348.293 498.273 347.975 499.049 347.486C503.314 345.175 505.842 340.304 504.484 335.199C504.214 334.183 503.934 333.171 503.645 332.164C503.133 324.981 500.773 314.936 495.504 301.083C481.233 263.561 477.936 260.421 474.223 256.917C464.299 247.548 428.417 217.366 412.788 217.991C415.24 216.065 415.48 211.718 415.293 209.786C415.293 194.844 372.038 187.723 346.834 185.675L348.895 210.863C354.152 213.316 360.638 217.438 360.127 221.402C359.483 226.393 358.605 230.957 349.478 243.525C345.95 245.104 341.352 246.865 337.255 248.04C314.633 254.411 284.912 254.111 262.422 247.683C258.325 246.508 254.381 245.104 250.853 243.525C241.726 230.957 240.848 226.393 240.204 221.402C239.692 217.438 246.137 213.381 251.394 210.928L253.466 185.607Z" fill="#38464F"/>
<path d="M231.995 228.168C224.462 220.735 216.82 218.504 210.837 216.757C205.923 215.322 202.127 214.214 200.43 210.819C196.532 203.023 230.999 198.88 252.515 197.502L250.504 222.076C268.497 239.716 332.099 241.279 349.902 223.168L347.802 197.502C369.317 198.88 403.784 203.023 399.886 210.819C398.189 214.214 394.394 215.322 389.48 216.757C383.175 218.598 375.029 220.976 367.11 229.41C346.895 261.81 248.806 259.383 231.995 228.168Z" fill="#26343D"/>
<path d="M337.255 248.039C314.633 254.411 284.912 254.111 262.421 247.682C258.325 246.508 254.381 245.104 250.853 243.525C241.726 230.957 240.848 226.392 240.204 221.402C239.692 217.438 246.137 213.381 251.394 210.928L250.581 222.151C268.652 239.696 331.948 241.249 349.827 223.244L348.895 210.863C354.152 213.316 360.638 217.438 360.126 221.402C359.483 226.392 358.605 230.957 349.478 243.525C345.949 245.104 341.352 246.865 337.255 248.039Z" fill="white"/>
<path d="M406.658 222.238C398.924 226.018 381.98 236.266 376.074 247.023C368.691 260.469 334.151 280.771 313.322 285.254" stroke="#2D3B44" stroke-width="3.79412" stroke-linecap="round"/>
<path d="M193.358 222.238C201.092 226.018 218.037 236.266 223.943 247.023C227.453 253.417 237.104 261.361 248.501 268.417" stroke="#2D3B44" stroke-width="3.79412" stroke-linecap="round"/>
<path d="M337.589 260.732C338.441 264.221 336.304 267.74 332.815 268.592C329.326 269.444 325.807 267.307 324.955 263.818C324.103 260.329 326.589 258.239 330.078 257.387C333.567 256.534 336.737 257.243 337.589 260.732Z" fill="#26343D"/>
<rect x="329.361" y="317.7" width="3.97563" height="8.77181" rx="1.98782" fill="#B0B0B0"/>
<path d="M328.442 266.716C328.442 264.059 328.098 262.869 330.503 262.282C332.908 261.694 334.21 262.281 334.21 264.588L334.21 314.699C334.21 317.321 334.795 319.53 332.39 320.118C329.985 320.705 328.442 319.158 328.442 316.827L328.442 266.716Z" fill="#D9D9D9"/>
<path d="M260.907 260.732C260.055 264.221 262.193 267.74 265.681 268.592C269.17 269.444 272.689 267.307 273.541 263.818C274.394 260.329 271.907 258.239 268.419 257.387C264.93 256.534 261.76 257.243 260.907 260.732Z" fill="#26343D"/>
<rect width="3.97563" height="8.77181" rx="1.98782" transform="matrix(-1 0 0 1 269.135 317.7)" fill="#B0B0B0"/>
<path d="M270.054 266.716C270.054 264.059 270.398 262.869 267.993 262.282C265.588 261.694 264.286 262.281 264.286 264.588L264.286 314.699C264.286 317.321 263.701 319.53 266.106 320.118C268.511 320.705 270.054 319.158 270.054 316.827L270.054 266.716Z" fill="#D9D9D9"/>
<path d="M467.584 260.946C464.696 262.162 458.008 267.786 454.361 280.554C449.801 296.513 443.417 333.448 436.577 338.92" stroke="#2D3B44" stroke-width="3.79412" stroke-linecap="round"/>
</g>
<defs>
<clipPath id="clip0_94_4950">
<rect width="600" height="336" rx="34.4988" fill="white"/>
</clipPath>
</defs>
</svg>
