<svg width="600" height="336" viewBox="0 0 600 336" fill="none" xmlns="http://www.w3.org/2000/svg">
<g clip-path="url(#clip0_94_4956)">
<rect width="600" height="336" rx="34.4988" fill="#F0F0F0"/>
<path d="M300.044 454.005C378.699 454.005 434.559 390.631 442.461 311.644C463.594 100.399 378.699 71.5498 300.044 71.5498C221.389 71.5498 136.494 100.399 157.627 311.644C165.529 390.631 221.389 454.005 300.044 454.005Z" fill="#D6D6D6"/>
<path d="M216.268 290.096C216.268 316.247 195.068 331.983 168.917 331.983C142.765 331.983 121.565 305.32 121.565 279.168C121.565 253.017 142.765 237.28 168.917 237.28C195.068 237.28 216.268 263.944 216.268 290.096Z" fill="#D6D6D6"/>
<path d="M383.82 290.096C383.82 316.247 405.02 331.983 431.172 331.983C457.323 331.983 478.523 305.32 478.523 279.168C478.523 253.017 457.323 237.28 431.172 237.28C405.02 237.28 383.82 263.944 383.82 290.096Z" fill="#D6D6D6"/>
<path fill-rule="evenodd" clip-rule="evenodd" d="M562.587 11H37.4127V251.705H133.375C139.109 246.264 146.56 242.441 155.003 240.473C168.837 220.015 208.121 178.764 300 178.764C390.835 178.764 428.248 219.083 441.465 239.768C451.362 241.422 460.104 245.517 466.626 251.705H562.587V11Z" fill="#F0F0F0"/>
<path fill-rule="evenodd" clip-rule="evenodd" d="M460.47 246.892V232.48C460.47 151.887 425.12 80.6299 351.059 65.1611C348.353 64.5961 345.348 63.9192 342.14 63.1967C335.371 61.6723 327.703 59.9453 320.059 58.6392C317.522 58.2058 316.812 57.3464 316.049 56.4238C314.691 54.7827 313.168 52.9414 300.912 52.9414C288.669 52.9414 287.213 54.7834 285.918 56.4235C285.187 57.3484 284.507 58.2092 281.971 58.6392C273.213 60.125 264.304 62.13 257.586 63.6421C254.885 64.25 252.538 64.7783 250.697 65.1611C176.305 80.6299 139.53 151.887 139.53 232.48V246.892C147.406 241.832 157.278 239.059 168.013 238.944C198.332 211.883 246.173 201.48 300 201.48C353.827 201.48 401.668 211.883 431.987 238.944C442.722 239.058 452.594 241.831 460.47 246.892Z" fill="#34343F"/>
<path d="M424 249.881C384.794 218.881 353.828 199.656 300 199.656C246.173 199.656 214.294 219.793 176.001 248.97C149.559 248.058 158.209 237.803 153.702 238.97C181.684 186.851 236.703 151.411 300 151.411C363.297 151.411 418.317 186.851 446.299 238.97C441.792 237.803 435.853 249.881 424 249.881Z" fill="#4D4D5A"/>
<path d="M148.231 237.146C152.738 235.979 167.352 264 190.589 240.764C216.118 215.235 246.173 199.656 300 199.656C353.827 199.656 383.882 215.235 409.411 240.764C432.648 264 447.262 235.979 451.769 237.146" stroke="#34343F" stroke-width="7.29409" stroke-linecap="round"/>
<path d="M276.294 120.412C294.973 117.24 305.185 117.025 322.794 120.412" stroke="#676777" stroke-width="5.47057" stroke-linecap="round"/>
<path d="M287.235 131.352C297.991 129.736 303.514 129.916 312.765 131.352" stroke="#676777" stroke-width="5.47057" stroke-linecap="round"/>
</g>
<defs>
<clipPath id="clip0_94_4956">
<rect width="600" height="336" rx="34.4988" fill="white"/>
</clipPath>
</defs>
</svg>
