<svg width="600" height="336" viewBox="0 0 600 336" fill="none" xmlns="http://www.w3.org/2000/svg">
<g clip-path="url(#clip0_94_4944)">
<rect width="600" height="336" rx="34.4988" fill="#F0F0F0"/>
<path d="M300 278.411C348.904 278.411 383.636 239.008 388.549 189.897C401.688 58.5542 348.904 40.6172 300 40.6172C251.096 40.6172 198.312 58.5542 211.451 189.897C216.364 239.008 251.096 278.411 300 278.411Z" fill="#B67C69"/>
<path d="M247.912 176.5C247.912 192.76 234.73 202.544 218.47 202.544C202.211 202.544 189.029 185.966 189.029 169.706C189.029 153.446 202.211 143.662 218.47 143.662C234.73 143.662 247.912 160.24 247.912 176.5Z" fill="#B67C69"/>
<path d="M352.088 176.5C352.088 192.76 365.27 202.544 381.53 202.544C397.789 202.544 410.971 185.966 410.971 169.706C410.971 153.446 397.789 143.662 381.53 143.662C365.27 143.662 352.088 160.24 352.088 176.5Z" fill="#B67C69"/>
<path d="M267.388 244.441H332.612L340.765 344.088L298.981 370.699L259.235 344.088L267.388 244.441Z" fill="#B67C69"/>
<path fill-rule="evenodd" clip-rule="evenodd" d="M311.958 277.605C308.077 278.138 304.088 278.413 300 278.413C287.369 278.413 275.683 275.785 265.212 271.039L262.795 300.583C282.102 298.56 298.85 290.215 311.958 277.605Z" fill="#A56854"/>
<path fill-rule="evenodd" clip-rule="evenodd" d="M342.088 309.353C339.701 309.108 337.751 307.255 337.555 304.863C337.353 302.394 335.291 300.493 332.813 300.493H267.303C264.76 300.493 262.642 302.445 262.435 304.979C262.238 307.384 260.312 309.266 257.919 309.578C219.901 314.537 188.033 350.219 178.191 400.361C177.123 405.802 180.285 410.898 184.44 410.898H417.499C421.653 410.898 424.815 405.802 423.747 400.361C413.739 349.373 380.955 313.337 342.088 309.353Z" fill="#B67C69"/>
</g>
<defs>
<clipPath id="clip0_94_4944">
<rect width="600" height="336" rx="34.4988" fill="white"/>
</clipPath>
</defs>
</svg>
