<svg width="600" height="336" viewBox="0 0 600 336" fill="none" xmlns="http://www.w3.org/2000/svg">
<g clip-path="url(#clip0_94_4939)">
<rect width="600" height="336" rx="34.4988" fill="#F0F0F0"/>
<path d="M300.028 277.343C348.87 277.343 383.558 237.99 388.465 188.941C401.588 57.764 348.87 39.8496 300.028 39.8496C251.186 39.8496 198.468 57.764 211.591 188.941C216.498 237.99 251.186 277.343 300.028 277.343Z" fill="#D6D6D6"/>
<path d="M248.006 175.56C248.006 191.8 234.841 201.571 218.602 201.571C202.362 201.571 189.198 185.014 189.198 168.775C189.198 152.535 202.362 142.764 218.602 142.764C234.841 142.764 248.006 159.321 248.006 175.56Z" fill="#D6D6D6"/>
<path d="M352.05 175.56C352.05 191.8 365.215 201.571 381.454 201.571C397.694 201.571 410.858 185.014 410.858 168.775C410.858 152.535 397.694 142.764 381.454 142.764C365.215 142.764 352.05 159.321 352.05 175.56Z" fill="#D6D6D6"/>
<path d="M267.458 243.415H332.599L340.741 342.936L299.01 369.513L259.315 342.936L267.458 243.415Z" fill="#D6D6D6"/>
<path fill-rule="evenodd" clip-rule="evenodd" d="M311.972 276.537C308.095 277.069 304.111 277.344 300.028 277.344C287.413 277.344 275.742 274.719 265.284 269.979L262.87 299.486C282.153 297.466 298.88 289.132 311.972 276.537Z" fill="#B7B7B7"/>
<path fill-rule="evenodd" clip-rule="evenodd" d="M342.063 308.245C339.678 308.001 337.731 306.149 337.535 303.761C337.334 301.295 335.274 299.396 332.8 299.396H267.372C264.832 299.396 262.717 301.345 262.51 303.877C262.314 306.278 260.389 308.158 258 308.47C220.03 313.423 188.202 349.059 178.373 399.138C177.306 404.572 180.464 409.661 184.613 409.661H417.378C421.527 409.661 424.685 404.572 423.618 399.138C413.623 348.214 380.88 312.224 342.063 308.245Z" fill="#D6D6D6"/>
<path d="M386.622 201.29C397.054 198.997 405.585 189.993 409.112 179.47C411.119 183.721 412.713 188.133 413.458 192.811C414.055 196.528 413.935 200.25 413.816 203.975C413.718 207.037 413.62 210.1 413.919 213.164C414.505 219.125 416.897 224.354 419.318 229.646C420.168 231.503 421.021 233.367 421.8 235.274C424.563 242.009 424.857 247.775 425.207 254.95C425.631 263.772 428.117 271.569 431.174 279.787L431.118 279.805C431.542 280.922 430.492 281.873 429.48 281.947C427.169 282.132 424.836 282.275 422.498 282.419C416.991 282.757 411.451 283.097 406.074 283.997C404.919 284.191 403.72 284.449 402.496 284.712L402.495 284.713C397.164 285.859 391.37 287.105 386.757 283.667C384.527 281.994 383.932 278.792 383.408 275.978L383.408 275.976C383.244 275.096 383.088 274.254 382.89 273.509C381.958 270.055 381.478 275.97 381.35 277.545C381.339 277.681 381.331 277.784 381.325 277.847C381.086 280.391 380.644 283.301 378.729 285.186C376.277 287.585 373.362 286.521 370.348 285.422C367.542 284.399 364.652 283.345 361.971 285.022C360.65 285.851 355.567 284.107 351.08 282.568L351.078 282.568C348.435 281.661 345.999 280.826 344.662 280.629C342.95 280.378 341.239 280.213 339.529 280.12L335.548 279.792L334.758 270.271L338.47 268.471C363.155 255.749 380.492 230.914 386.622 201.29Z" fill="#5D5D5D"/>
<path d="M305.802 -0.0584182C312.576 1.87871 318.387 6.1285 322.315 11.1294V11.1492C326.777 16.8246 328.277 21.8213 329.203 29.3981C338.235 30.478 347.375 32.3548 355.111 36.5485C362.849 40.7548 369.377 46.8173 375.289 53.2551C375.5 53.4847 375.707 53.7138 375.912 53.9424C393.696 71.3302 405.339 100.673 402.522 150.171L402.44 150.126C399.658 147.739 396.306 145.917 392.569 144.719C393.894 148.433 394.797 152.206 394.995 155.953C395.351 162.67 392.637 171.632 385.05 173.083C383.693 173.344 382.349 173.272 381.031 172.947C380.728 174.945 380.558 176.875 380.558 178.67V193.925C380.558 197.007 376.495 198.124 374.917 195.477C374.637 195.007 374.488 194.483 374.491 193.936C374.507 190.988 374.607 187.865 374.723 184.257L374.723 184.253L374.76 183.103C374.891 178.955 375.033 174.477 375.092 169.872C374.877 169.707 374.664 169.539 374.453 169.367C367.599 167.419 361.517 162.809 355.812 157.861C353.716 156.049 351.8 153.749 349.864 151.426C346.219 147.051 342.507 142.597 337.409 141.169C335.749 140.707 333.991 140.56 332.236 140.414C329.089 140.151 325.955 139.89 323.424 137.811C320.722 135.6 319.906 132.432 319.084 129.238C318.827 128.24 318.569 127.24 318.254 126.265C315.338 117.319 307.784 116.3 300.101 115.265C298.023 114.984 295.935 114.703 293.928 114.263C288.421 113.07 283.686 110.567 279.903 107.029C278.773 109.653 278.06 112.435 277.981 115.376C277.93 117.098 278.122 118.816 278.313 120.534C278.569 122.84 278.825 125.146 278.496 127.458C277.392 135.107 272.687 138.766 267.702 142.643C265.085 144.677 262.392 146.772 260.101 149.535C252.387 158.85 251.379 169.408 250.34 180.296C249.951 184.366 249.558 188.482 248.809 192.597C247.878 197.744 245.323 201.241 241.836 204.977C240.919 205.959 240.027 206.898 239.159 207.812L239.156 207.815C234.756 212.444 230.965 216.434 227.574 222.225C227.464 222.414 227.353 222.603 227.242 222.794C225.943 225.02 224.588 227.343 223.128 228.991C231.91 246.095 245.111 259.98 261.586 268.471L265.288 270.265L263.911 287.16L259.951 286.464L259.665 286.396C256.184 285.573 252.705 284.75 249.071 284.546C240.342 284.052 231.946 286.358 223.622 288.682C222.499 288.993 220.823 288.115 221.265 286.705C222.646 282.331 223.659 277.957 224.359 273.546C223.008 275.452 221.476 277.248 219.938 279.051C217.283 282.164 214.608 285.3 212.813 289.067C212.444 289.817 211.671 290.128 210.879 290.055C207.466 289.752 204.019 289.295 200.562 288.836C194.414 288.021 188.234 287.201 182.152 287.236C181.432 287.24 180.627 287.294 179.782 287.35H179.781C176.804 287.547 173.322 287.777 171.214 286.01C165.892 281.544 170.919 268.238 172.798 263.479C173.535 261.621 174.359 259.79 175.183 257.957C176.666 254.661 178.15 251.361 179.132 247.903C181.747 238.733 180.053 233.389 176.112 225.207C172.779 218.289 174.068 213.457 178.156 207.197C185.383 196.125 189.617 185.195 189.333 171.933C190.578 185.213 200.249 198.038 212.807 201.143C212.979 199.196 213.157 197.248 213.336 195.3C213.578 192.657 213.82 190.014 214.044 187.371C214.272 184.737 214.509 182.103 214.746 179.468C215.273 173.616 215.8 167.76 216.223 161.895C216.361 160 216.395 158.134 216.364 156.285C213.72 150.729 210.005 146.639 207.671 144.742L207.666 144.662L207.557 144.696C203.737 145.911 200.317 147.778 197.493 150.232C192.772 154.336 189.72 160.08 189.259 167.164C189.32 158.367 190.642 150.669 194.03 141.965C195.02 139.427 196.057 136.927 197.125 134.478C197.565 88.9651 211.825 62.9786 231.281 48.1714C237.033 43.6539 243.433 39.9359 250.174 37.1015C254.626 35.2263 259.199 33.6726 263.857 32.4049C263.624 27.003 265.584 21.653 268.869 16.9013C272.612 11.4745 280.458 7.5081 286.466 4.47077C286.827 4.28868 287.18 4.10993 287.526 3.93441C292.897 1.20662 299.65 -1.81764 305.802 -0.0584182Z" fill="#5D5D5D"/>
</g>
<defs>
<clipPath id="clip0_94_4939">
<rect width="600" height="336" rx="34.4988" fill="white"/>
</clipPath>
</defs>
</svg>
