<svg width="600" height="336" viewBox="0 0 600 336" fill="none" xmlns="http://www.w3.org/2000/svg">
<g clip-path="url(#clip0_94_4954)">
<rect width="600" height="336" rx="34.4988" fill="#F0F0F0"/>
<path d="M300 175.353C363.512 175.353 408.618 124.18 414.999 60.3997C432.063 -110.176 363.512 -133.471 300 -133.471C236.488 -133.471 167.937 -110.176 185.002 60.3997C191.382 124.18 236.488 175.353 300 175.353Z" fill="#E6E6E6"/>
<path d="M232.353 42.9996C232.353 64.1164 215.234 76.8231 194.118 76.8231C173.001 76.8231 155.882 55.2928 155.882 34.1761C155.882 13.0593 173.001 0.352539 194.118 0.352539C215.234 0.352539 232.353 21.8828 232.353 42.9996Z" fill="#E6E6E6"/>
<path d="M367.647 42.9996C367.647 64.1164 384.766 76.8231 405.882 76.8231C426.999 76.8231 444.118 55.2928 444.118 34.1761C444.118 13.0593 426.999 0.352539 405.882 0.352539C384.766 0.352539 367.647 21.8828 367.647 42.9996Z" fill="#E6E6E6"/>
<path d="M257.647 131.234H342.353L352.941 260.646L298.676 295.205L247.059 260.646L257.647 131.234Z" fill="#E6E6E6"/>
<path fill-rule="evenodd" clip-rule="evenodd" d="M315.53 174.304C310.49 174.997 305.309 175.354 300 175.354C283.596 175.354 268.419 171.94 254.821 165.777L251.682 204.146C276.755 201.518 298.507 190.682 315.53 174.304Z" fill="#D9D9D9"/>
<path fill-rule="evenodd" clip-rule="evenodd" d="M354.66 215.535C351.56 215.218 349.027 212.81 348.773 209.704C348.511 206.498 345.832 204.029 342.615 204.029H257.536C254.234 204.029 251.484 206.564 251.214 209.855C250.959 212.978 248.457 215.422 245.35 215.827C195.975 222.268 154.588 268.608 141.806 333.727C140.419 340.794 144.526 347.411 149.921 347.411H452.595C457.991 347.411 462.097 340.794 460.71 333.727C447.713 267.509 405.136 220.709 354.66 215.535Z" fill="#E6E6E6"/>
<path d="M311.27 234.504L307.006 236.534C304.056 237.937 301.822 240.505 300.84 243.62L298.227 251.912C297.78 253.331 295.749 253.264 295.396 251.818L291.169 234.504L288.948 233.606L240.916 214.802L227.622 219.386C195.531 229.577 166.111 243.613 154.767 254.316C142.493 265.896 135.788 280.078 110.418 333.745L110.417 333.747L109.732 335.198C107.852 342.264 113.417 348.882 120.729 348.882H481.573C488.886 348.882 494.451 342.264 492.571 335.198C490.643 330.758 488.831 326.574 487.12 322.627C465.656 273.084 460.382 260.91 447.613 251.146C428.991 236.906 400.792 228.359 375.65 220.74C373.249 220.012 370.875 219.292 368.54 218.577C368.494 218.563 368.447 218.55 368.4 218.537L352.445 212.064L311.27 234.504Z" fill="#34343F"/>
<path d="M308.411 235.967C320.099 230.181 338.99 216.991 349.286 210.032C350.541 209.184 352.376 209.302 353.707 210.024C355.647 211.076 358.461 212.354 360.797 213.361C362.148 213.943 362.897 215.416 362.45 216.818C357.69 231.766 344.432 249.925 336.116 259.88C334.774 261.487 332.216 261.146 330.981 259.456C325.384 251.794 315.375 246.137 308.017 242.124C305.704 240.863 306.05 237.136 308.411 235.967Z" fill="#5E5E6A"/>
<path d="M289.16 232.072C278.055 227.137 260.993 216.572 251.003 210.017C249.737 209.186 247.901 209.302 246.569 210.024C244.629 211.076 241.816 212.355 239.479 213.361C238.128 213.944 237.38 215.416 237.826 216.818C242.586 231.767 255.844 249.926 264.16 259.88C265.502 261.487 268.048 261.147 269.18 259.385C274.442 251.192 283.215 243.55 289.974 238.567C292.094 237.004 291.567 233.141 289.16 232.072Z" fill="#5E5E6A"/>
<path d="M315.25 254.952C315.25 257.553 313.141 259.662 310.54 259.662C307.939 259.662 305.831 257.553 305.831 254.952C305.831 252.351 307.939 251.713 310.54 251.713C313.141 251.713 315.25 252.351 315.25 254.952Z" fill="#D2D2D2"/>
<path d="M313.779 274.461C313.779 277.062 311.671 279.171 309.07 279.171C306.468 279.171 304.36 277.062 304.36 274.461C304.36 271.86 306.468 269.751 309.07 269.751C311.671 269.751 313.779 271.86 313.779 274.461Z" fill="#D2D2D2"/>
</g>
<defs>
<clipPath id="clip0_94_4954">
<rect width="600" height="336" rx="34.4988" fill="white"/>
</clipPath>
</defs>
</svg>
