<svg width="600" height="336" viewBox="0 0 600 336" fill="none" xmlns="http://www.w3.org/2000/svg">
<g clip-path="url(#clip0_94_4955)">
<rect width="600" height="336" rx="34.4988" fill="#F0F0F0"/>
<path d="M300 175.353C363.512 175.353 408.618 124.18 414.999 60.3997C432.063 -110.176 363.512 -133.471 300 -133.471C236.488 -133.471 167.937 -110.176 185.002 60.3997C191.382 124.18 236.488 175.353 300 175.353Z" fill="#E6E6E6"/>
<path d="M232.353 42.9996C232.353 64.1164 215.234 76.8231 194.118 76.8231C173.001 76.8231 155.882 55.2928 155.882 34.1761C155.882 13.0593 173.001 0.352539 194.118 0.352539C215.234 0.352539 232.353 21.8828 232.353 42.9996Z" fill="#E6E6E6"/>
<path d="M367.647 42.9996C367.647 64.1164 384.766 76.8231 405.882 76.8231C426.999 76.8231 444.118 55.2928 444.118 34.1761C444.118 13.0593 426.999 0.352539 405.882 0.352539C384.766 0.352539 367.647 21.8828 367.647 42.9996Z" fill="#E6E6E6"/>
<path d="M257.647 131.234H342.353L352.941 260.646L298.676 295.205L247.059 260.646L257.647 131.234Z" fill="#E6E6E6"/>
<path fill-rule="evenodd" clip-rule="evenodd" d="M315.53 174.304C310.49 174.997 305.309 175.354 300 175.354C283.596 175.354 268.419 171.94 254.821 165.777L251.682 204.146C276.755 201.518 298.507 190.682 315.53 174.304Z" fill="#D9D9D9"/>
<path fill-rule="evenodd" clip-rule="evenodd" d="M354.66 215.535C351.56 215.218 349.027 212.81 348.773 209.704C348.511 206.498 345.832 204.029 342.615 204.029H257.536C254.234 204.029 251.484 206.564 251.214 209.855C250.959 212.978 248.457 215.422 245.35 215.827C195.975 222.268 154.588 268.608 141.806 333.727C140.419 340.794 144.526 347.411 149.921 347.411H452.595C457.991 347.411 462.097 340.794 460.71 333.727C447.713 267.509 405.136 220.709 354.66 215.535Z" fill="#E6E6E6"/>
<path d="M300.218 236.045L311.123 234.505L352.298 212.065L370.367 219.395L375.096 245.162L311.123 318.557L261.101 301.92L224.157 220.531L240.769 214.803L288.8 233.607L296.498 236.045L299.448 249.258L300.218 236.045Z" fill="#D6D6D6"/>
<path d="M481.427 348.882C488.739 348.882 494.304 342.265 492.424 335.198C466.302 275.04 461.252 261.689 447.466 251.146C426.864 235.392 396.804 225.566 370.051 217.21C368.142 216.614 366.102 217.603 365.384 219.469L354.895 246.729C349.411 258.449 330.138 277.853 309.155 294.825C305.707 297.614 300.825 297.733 297.243 295.119C273.53 277.82 251.877 257.877 247.114 246.729L236.601 219.406C235.893 217.566 233.893 216.573 232.006 217.143C197.87 227.46 166.613 243.002 154.62 254.317C142.346 265.897 135.641 280.079 110.27 333.747L109.585 335.198C107.705 342.265 113.27 348.882 120.582 348.882H481.427Z" fill="#B07754"/>
<path d="M304.213 234.513C314.12 232.276 339.766 216.27 351.351 208.547C352.361 209.785 359.548 212.937 363.016 214.358C358.561 231.541 341.223 254.082 333.112 263.204C327.071 250.804 311.329 238.91 304.213 234.513Z" fill="#EFEFEF"/>
<path d="M295.769 234.513C285.862 232.276 260.216 216.27 248.631 208.547C247.621 209.785 240.434 212.937 236.966 214.358C241.421 231.541 258.758 254.082 266.87 263.204C272.911 250.804 288.653 238.91 295.769 234.513Z" fill="#EFEFEF"/>
<path d="M315.103 254.951C315.103 257.552 312.994 259.661 310.393 259.661C307.792 259.661 305.683 257.552 305.683 254.951C305.683 252.35 307.792 251.712 310.393 251.712C312.994 251.712 315.103 252.35 315.103 254.951Z" fill="white"/>
<path d="M313.632 274.46C313.632 277.061 311.524 279.17 308.923 279.17C306.322 279.17 304.213 277.061 304.213 274.46C304.213 271.859 306.322 269.75 308.923 269.75C311.524 269.75 313.632 271.859 313.632 274.46Z" fill="white"/>
<path d="M239.316 265.782L236.257 342.052" stroke="#C0835E" stroke-width="3.79412" stroke-linecap="round"/>
<path d="M214.408 233.447C210.184 261.779 202.173 323.253 203.921 342.491" stroke="#C0835E" stroke-width="3.79412" stroke-linecap="round"/>
<path d="M181.198 247.867C177.848 269.54 170.71 315.356 168.962 325.232C167.215 335.108 168.234 341.143 168.962 342.927" stroke="#C0835E" stroke-width="3.79412" stroke-linecap="round"/>
<path d="M266.633 291.467V343.191" stroke="#C0835E" stroke-width="3.79412" stroke-linecap="round"/>
<path d="M293.683 311.002V342.189" stroke="#C0835E" stroke-width="3.79412" stroke-linecap="round"/>
<path d="M329.249 299.982C329.917 310.665 331.453 333.962 332.254 341.688" stroke="#C0835E" stroke-width="3.79412" stroke-linecap="round"/>
<path d="M356.8 277.44C359.972 294.584 366.217 331.535 365.816 342.189" stroke="#C0835E" stroke-width="3.79412" stroke-linecap="round"/>
<path d="M384.351 240.872C386.521 265.779 391.764 320.511 395.371 340.184" stroke="#C0835E" stroke-width="3.79412" stroke-linecap="round"/>
<path d="M410.9 243.878C416.744 267.503 428.633 320.141 429.434 341.687" stroke="#C0835E" stroke-width="3.79412" stroke-linecap="round"/>
<path d="M445.965 264.416C449.137 285.053 456.785 329.398 461.994 341.687" stroke="#C0835E" stroke-width="3.79412" stroke-linecap="round"/>
<path d="M150.646 276.163C146.133 291.647 137.107 324.192 137.107 330.496C137.107 336.8 137.107 341.418 137.107 342.939" stroke="#C0835E" stroke-width="3.79412" stroke-linecap="round"/>
<path d="M227.967 238.61L239.448 265.066C240.667 267.876 242.548 270.348 244.931 272.273L292.024 310.307C299.142 316.056 309.349 315.905 316.294 309.948L359.189 273.155C362.085 270.672 364.164 267.373 365.156 263.69L371.911 238.61" stroke="#8B5737" stroke-width="3.79412" stroke-linecap="round"/>
</g>
<defs>
<clipPath id="clip0_94_4955">
<rect width="600" height="336" rx="34.4988" fill="white"/>
</clipPath>
</defs>
</svg>
