<svg width="600" height="336" viewBox="0 0 600 336" fill="none" xmlns="http://www.w3.org/2000/svg">
<g clip-path="url(#clip0_94_4951)">
<rect width="600" height="336" rx="34.4988" fill="#F0F0F0"/>
<path d="M300 175.353C363.512 175.353 408.618 124.18 414.999 60.3997C432.063 -110.176 363.512 -133.471 300 -133.471C236.488 -133.471 167.937 -110.176 185.002 60.3997C191.382 124.18 236.488 175.353 300 175.353Z" fill="#E6E6E6"/>
<path d="M232.353 42.9996C232.353 64.1164 215.234 76.8231 194.118 76.8231C173.001 76.8231 155.882 55.2928 155.882 34.1761C155.882 13.0593 173.001 0.352539 194.118 0.352539C215.234 0.352539 232.353 21.8828 232.353 42.9996Z" fill="#E6E6E6"/>
<path d="M367.647 42.9996C367.647 64.1164 384.766 76.8231 405.882 76.8231C426.999 76.8231 444.118 55.2928 444.118 34.1761C444.118 13.0593 426.999 0.352539 405.882 0.352539C384.766 0.352539 367.647 21.8828 367.647 42.9996Z" fill="#E6E6E6"/>
<path d="M257.647 131.234H342.353L352.941 260.646L298.676 295.205L247.059 260.646L257.647 131.234Z" fill="#E6E6E6"/>
<path fill-rule="evenodd" clip-rule="evenodd" d="M315.53 174.304C310.49 174.997 305.309 175.354 300 175.354C283.596 175.354 268.419 171.94 254.821 165.777L251.682 204.146C276.755 201.518 298.507 190.682 315.53 174.304Z" fill="#D9D9D9"/>
<path fill-rule="evenodd" clip-rule="evenodd" d="M354.66 215.535C351.56 215.218 349.027 212.81 348.773 209.704C348.511 206.498 345.832 204.029 342.615 204.029H257.536C254.234 204.029 251.484 206.564 251.214 209.855C250.959 212.978 248.457 215.422 245.35 215.827C195.975 222.268 154.588 268.608 141.806 333.727C140.419 340.794 144.526 347.411 149.921 347.411H452.595C457.991 347.411 462.097 340.794 460.71 333.727C447.713 267.509 405.136 220.709 354.66 215.535Z" fill="#E6E6E6"/>
<path fill-rule="evenodd" clip-rule="evenodd" d="M221.575 232.049C195.683 232.044 172.006 234.709 148.245 251.56C125.836 272 103.961 304.556 95.8102 335.198C93.9305 342.265 99.4956 348.882 106.808 348.882H493.486C500.506 348.882 505.916 342.783 504.674 336.043C504.57 335.477 504.353 334.912 504.112 334.389C465.237 249.917 452.135 246.081 389.499 232.848C385.927 232.093 382.331 231.454 378.72 230.932V253.524C378.72 276.573 360.034 295.259 336.984 295.259H263.31C240.26 295.259 221.575 276.573 221.575 253.524V232.049Z" fill="#CDD5E2"/>
<path d="M241.596 214.054C228.063 213.548 183.294 226.471 167.122 233.131C164.959 234.022 163.894 236.359 164.44 238.634L189.888 344.746C190.433 347.02 192.468 348.625 194.807 348.625L398.881 348.625C401.077 348.625 403.023 347.208 403.696 345.118L431.684 258.264C431.846 257.763 431.928 257.239 431.928 256.713V239.391C431.928 237.606 431.001 235.948 429.395 235.169C415.145 228.255 374.369 216.381 360.423 215.177C358.443 215.007 356.823 216.372 356.124 218.233C344.515 249.15 315.265 244.722 302.192 249.728C300.922 250.215 299.535 250.383 298.238 249.971C280.918 244.471 258.061 234.911 244.786 215.998C244.024 214.912 242.923 214.104 241.596 214.054Z" fill="#38464F"/>
<path d="M368.729 213.546C369.901 213.768 370.735 214.803 370.735 215.997V217.662C368.918 266.1 227.703 262.527 229.559 217.662V215.997C229.559 214.803 230.392 213.768 231.565 213.546C235.353 212.827 239.344 212.321 243.27 212.166C244.641 212.113 245.737 213.231 246.04 214.569C252.236 241.937 349.71 244.398 354.388 214.709C354.609 213.307 355.727 212.113 357.145 212.171C361.032 212.331 364.98 212.834 368.729 213.546Z" fill="#26343D"/>
<path d="M401.023 348.732L428.865 348.881C429.013 348.882 429.162 348.873 429.308 348.847C441.043 346.806 443.554 318.265 455.576 249.441C455.817 248.065 455.041 246.684 453.72 246.192L431.628 237.952C429.902 237.309 428.007 238.396 427.685 240.193C417.967 294.48 408.825 326.124 398.416 344.075C397.245 346.095 398.668 348.719 401.023 348.732Z" fill="#26343D"/>
<path d="M195.756 348.398L167.794 348.216C167.641 348.215 167.488 348.204 167.338 348.176C155.53 346.001 152.648 317.599 139.689 249.045C139.44 247.73 140.212 246.406 141.535 245.932L163.612 238.01C165.333 237.392 167.229 238.422 167.559 240.132C178.055 294.447 187.673 326.057 198.406 343.993C199.565 345.929 198.11 348.414 195.756 348.398Z" fill="#26343D"/>
<path d="M143.741 261.42L170.51 253.022" stroke="#38464F" stroke-width="1.26471"/>
<path d="M147.678 287.139L176.546 280.84" stroke="#38464F" stroke-width="1.26471"/>
<path d="M152.664 315.218L184.157 309.707" stroke="#38464F" stroke-width="1.26471"/>
<path d="M158.438 337.265L193.605 334.378" stroke="#38464F" stroke-width="1.26471"/>
<path d="M453.128 261.32L425.288 254.297" stroke="#38464F" stroke-width="1.26471"/>
<path d="M448.362 290.915L418.767 284.143" stroke="#38464F" stroke-width="1.26471"/>
<path d="M443.095 317.752L412.246 310.729" stroke="#38464F" stroke-width="1.26471"/>
<path d="M437.578 338.569L403.217 335.058" stroke="#38464F" stroke-width="1.26471"/>
</g>
<defs>
<clipPath id="clip0_94_4951">
<rect width="600" height="336" rx="34.4988" fill="white"/>
</clipPath>
</defs>
</svg>
