<svg width="600" height="336" viewBox="0 0 600 336" fill="none" xmlns="http://www.w3.org/2000/svg">
<g clip-path="url(#clip0_94_4959)">
<rect width="600" height="336" rx="34.4988" fill="#F0F0F0"/>
<path d="M640 562.549C834.77 562.549 973.095 405.62 992.662 210.026C1044.99 -313.072 834.77 -384.51 640 -384.51C445.23 -384.51 235.007 -313.072 287.338 210.026C306.905 405.62 445.23 562.549 640 562.549Z" fill="#E6E6E6"/>
<path d="M432.549 156.667C432.549 221.425 380.052 260.393 315.294 260.393C250.536 260.393 198.039 194.366 198.039 129.608C198.039 64.8502 250.536 25.8828 315.294 25.8828C380.052 25.8828 432.549 91.909 432.549 156.667Z" fill="#E6E6E6"/>
<path fill-rule="evenodd" clip-rule="evenodd" d="M263.903 111.146C267.269 111.146 270.519 111.646 273.583 112.575C274.315 113.819 275.004 115.104 275.653 116.423C282.127 129.59 284.03 145.447 283.688 155.942C283.606 158.44 284.549 160.734 286.137 162.42C281.219 164.383 274.987 165.044 268.102 165.209C274.001 173.421 282.606 181.271 294.866 186.433C300.604 188.85 303.298 195.461 300.882 201.199C298.465 206.938 291.854 209.632 286.115 207.215C246.674 190.608 235.036 153.679 234.134 136.534C234.104 135.967 234.116 135.407 234.169 134.857C233.877 132.81 233.728 130.734 233.728 128.653C233.728 111.073 244.392 111.099 261.322 111.142C262.167 111.144 263.027 111.146 263.903 111.146Z" fill="white"/>
<path fill-rule="evenodd" clip-rule="evenodd" d="M240.492 121.5C244.228 121.5 247.256 124.529 247.256 128.265C247.256 131.01 247.467 135.536 248.091 139.943C248.767 144.71 249.76 148.012 250.63 149.317C252.702 152.425 251.862 156.625 248.754 158.698C245.645 160.77 241.445 159.93 239.373 156.821C236.635 152.714 235.373 146.621 234.696 141.842C233.968 136.703 233.727 131.533 233.727 128.265C233.727 124.529 236.756 121.5 240.492 121.5Z" fill="#36303A"/>
</g>
<defs>
<clipPath id="clip0_94_4959">
<rect width="600" height="336" rx="34.4988" fill="white"/>
</clipPath>
</defs>
</svg>
