<svg width="600" height="336" viewBox="0 0 600 336" fill="none" xmlns="http://www.w3.org/2000/svg">
<g clip-path="url(#clip0_94_4952)">
<rect width="600" height="336" rx="34.4988" fill="#F0F0F0"/>
<path d="M300 175.353C363.512 175.353 408.618 124.18 414.999 60.3997C432.063 -110.176 363.512 -133.471 300 -133.471C236.488 -133.471 167.937 -110.176 185.002 60.3997C191.382 124.18 236.488 175.353 300 175.353Z" fill="#E6E6E6"/>
<path d="M232.353 42.9996C232.353 64.1164 215.234 76.8231 194.118 76.8231C173.001 76.8231 155.882 55.2928 155.882 34.1761C155.882 13.0593 173.001 0.352539 194.118 0.352539C215.234 0.352539 232.353 21.8828 232.353 42.9996Z" fill="#E6E6E6"/>
<path d="M367.647 42.9996C367.647 64.1164 384.766 76.8231 405.882 76.8231C426.999 76.8231 444.118 55.2928 444.118 34.1761C444.118 13.0593 426.999 0.352539 405.882 0.352539C384.766 0.352539 367.647 21.8828 367.647 42.9996Z" fill="#E6E6E6"/>
<path d="M257.647 131.234H342.353L352.941 260.646L298.676 295.205L247.059 260.646L257.647 131.234Z" fill="#E6E6E6"/>
<path fill-rule="evenodd" clip-rule="evenodd" d="M315.53 174.304C310.49 174.997 305.309 175.354 300 175.354C283.596 175.354 268.419 171.94 254.821 165.777L251.682 204.146C276.755 201.518 298.507 190.682 315.53 174.304Z" fill="#D9D9D9"/>
<path fill-rule="evenodd" clip-rule="evenodd" d="M354.66 215.535C351.56 215.218 349.027 212.81 348.773 209.704C348.511 206.498 345.832 204.029 342.615 204.029H257.536C254.234 204.029 251.484 206.564 251.214 209.855C250.959 212.978 248.457 215.422 245.35 215.827C195.975 222.268 154.588 268.608 141.806 333.727C140.419 340.794 144.526 347.411 149.921 347.411H452.595C457.991 347.411 462.097 340.794 460.71 333.727C447.713 267.509 405.136 220.709 354.66 215.535Z" fill="#E6E6E6"/>
<path d="M369.199 209.194L346.928 204.994L344.794 218.245L378.573 223.74L369.199 209.194Z" fill="#2B2B34"/>
<path d="M231.478 209.194L253.749 204.994L255.883 218.245L222.104 223.74L231.478 209.194Z" fill="#2B2B34"/>
<path d="M345.549 194.894C347.451 194.869 349.075 196.256 349.382 198.133C350.234 203.345 351.576 210.406 352.614 212.137C353.253 213.201 356.065 213.957 359.331 214.469C361.384 214.791 362.906 216.607 362.67 218.673C360.262 239.78 353.823 260.565 351.889 281.836C350.387 298.354 350.104 328.553 342.773 345.007C342.444 345.744 340.379 349.082 339.573 349.082H261.531C260.528 349.082 257.118 343.804 256.716 342.886C249.339 326.066 249.976 297.667 248.537 281.836C247.017 265.114 241.426 235.571 238.023 218.674C237.97 218.41 237.883 217.787 237.809 217.1C237.646 215.598 238.668 214.451 240.153 214.177C244.304 213.411 246.843 212.821 247.431 211.986C249.617 208.879 250.176 203.497 250.666 198.777C250.824 197.259 252.096 196.112 253.622 196.092L345.549 194.894Z" fill="#C4CCDA"/>
<path d="M298.169 190.875C281.172 190.352 262.327 185.51 252.576 182.393C250.998 181.888 249.342 182.97 249.204 184.621L248.168 197.057C248.072 198.203 248.757 199.27 249.851 199.626C259.327 202.707 280.398 207.975 298.169 208.522C316.092 209.073 339.536 203.178 350.163 199.635C351.25 199.272 351.928 198.209 351.833 197.068L350.797 184.639C350.659 182.982 348.988 181.903 347.407 182.42C336.483 185.989 315.381 191.404 298.169 190.875Z" fill="#E3E8F1"/>
<path d="M378.088 210.65L356.616 206.738C355.27 206.493 354.209 207.872 354.792 209.11C354.982 209.513 355.323 209.824 355.742 209.975L361.453 212.039C362.635 212.467 363.326 213.684 363.076 214.916C359.74 231.336 353.459 264.572 351.889 281.837C350.369 298.555 338.046 329.288 330.743 345.6C329.987 347.291 331.206 349.2 333.057 349.192C386.796 348.97 479.978 348.684 493.096 349.209C506.541 349.747 508.11 341.59 507.213 337.444C499.706 315.371 479.18 266.183 457.129 246.015C429.566 220.805 428.629 232.502 426.366 227.863C425.637 226.369 424.749 225.583 423.872 225.228C422.293 224.589 419.732 223.885 418.056 223.576C416.81 223.347 415.426 223.553 414.598 223.789C413.33 224.151 409.973 223.081 408.452 222.5C397.991 217.924 387.772 212.693 378.088 210.65Z" fill="#34343F"/>
<path d="M222.338 210.65L243.81 206.738C245.156 206.493 246.217 207.872 245.634 209.11C245.444 209.513 245.103 209.824 244.684 209.975L240.003 211.667C238.23 212.308 237.196 214.151 237.57 215.999C240.954 232.759 247.001 264.944 248.537 281.837C250.002 297.953 261.507 327.093 268.875 343.784C269.997 346.325 268.153 349.196 265.375 349.184C211.358 348.963 120.287 348.691 107.33 349.209C93.885 349.747 92.3163 341.59 93.2127 337.444C100.72 315.371 121.246 266.183 143.297 246.015C170.86 220.805 171.798 232.502 174.061 227.863C174.4 227.168 174.773 226.626 175.164 226.21C176.911 224.346 181.529 223.326 184.079 223.495C184.753 223.539 185.374 223.66 185.829 223.789C187.096 224.151 190.454 223.081 191.974 222.5C202.435 217.924 212.654 212.693 222.338 210.65Z" fill="#34343F"/>
<path d="M166.586 244.361C161.865 246.966 152.219 254.333 151.41 262.966C150.6 271.598 142.528 316.918 138.594 338.499" stroke="#25252E" stroke-width="3.79412" stroke-linecap="round"/>
<path d="M435.054 244.714C437.321 246.736 442.439 252.753 444.771 260.64C447.686 270.499 451.249 319.416 457.079 336.48" stroke="#25252E" stroke-width="3.79412" stroke-linecap="round"/>
<path d="M213.569 248.772C218.406 250.984 229.16 258.807 233.473 272.408C238.863 289.409 246.327 334.193 256.279 344.144" stroke="#69697B" stroke-width="3.79412" stroke-linecap="round"/>
<path d="M371.74 223.74L391.46 231.518C392.029 231.743 392.594 232.049 392.878 232.591C394.432 235.557 392.532 243.794 374.458 258.682C349.606 279.153 367.08 319.39 354.654 336.332" stroke="#69697B" stroke-width="3.79412" stroke-linecap="round"/>
</g>
<defs>
<clipPath id="clip0_94_4952">
<rect width="600" height="336" rx="34.4988" fill="white"/>
</clipPath>
</defs>
</svg>
