<svg width="600" height="336" viewBox="0 0 600 336" fill="none" xmlns="http://www.w3.org/2000/svg">
<g clip-path="url(#clip0_94_4957)">
<rect width="600" height="336" rx="34.4988" fill="#F0F0F0"/>
<path d="M300 16.3727C419.826 16.3727 504.926 -80.173 516.964 -200.505C549.159 -522.325 419.826 -566.274 300 -566.274C180.174 -566.274 50.8415 -522.325 83.0361 -200.505C95.0741 -80.173 180.174 16.3727 300 16.3727Z" fill="#E6E6E6"/>
<path d="M220.094 -66.8633H379.906L399.882 177.294L297.503 242.495L200.118 177.294L220.094 -66.8633Z" fill="#E6E6E6"/>
<path fill-rule="evenodd" clip-rule="evenodd" d="M329.3 14.3937C319.791 15.7005 310.017 16.3752 300 16.3752C269.051 16.3752 240.418 9.93446 214.762 -1.69336L208.84 70.6953C256.145 65.7384 297.183 45.2927 329.3 14.3937Z" fill="#D9D9D9"/>
<path fill-rule="evenodd" clip-rule="evenodd" d="M403.125 92.1838C397.276 91.5844 392.498 87.0419 392.018 81.1818C391.523 75.1327 386.47 70.4756 380.4 70.4756H219.885C213.654 70.4756 208.466 75.2569 207.958 81.4674C207.476 87.3584 202.755 91.9701 196.894 92.7347C103.74 104.886 25.6554 192.314 1.54182 315.172C-1.07493 328.504 6.67215 340.99 16.8515 340.99H587.897C598.076 340.99 605.823 328.504 603.207 315.172C578.686 190.24 498.356 101.944 403.125 92.1838Z" fill="#E6E6E6"/>
<path d="M398.203 89.0762C418.783 93.4963 413.793 177.838 355.254 272.01" stroke="#BEBEBE" stroke-width="8.32353" stroke-linecap="round"/>
<path d="M202.818 89.0762C182.238 93.4963 187.229 177.838 245.768 272.01" stroke="#BEBEBE" stroke-width="8.32353" stroke-linecap="round"/>
<path d="M235.618 279.819C235.618 273.689 240.587 268.721 246.716 268.721H352.716C358.846 268.721 363.814 273.689 363.814 279.819V343.765H235.618V279.819Z" fill="white"/>
<path d="M245.768 285.76C245.768 282.695 248.252 280.211 251.317 280.211H348.116C351.18 280.211 353.665 282.695 353.665 285.76V343.765H245.768V285.76Z" fill="#F0F0F0"/>
<rect x="274.607" y="301.687" width="50.2162" height="10.1064" rx="5.05318" fill="#D9D9D9"/>
<rect x="280.286" y="319.041" width="38.858" height="7.82046" rx="3.91023" fill="#D9D9D9"/>
</g>
<defs>
<clipPath id="clip0_94_4957">
<rect width="600" height="336" rx="34.4988" fill="white"/>
</clipPath>
</defs>
</svg>
