<svg width="600" height="336" viewBox="0 0 600 336" fill="none" xmlns="http://www.w3.org/2000/svg">
<g clip-path="url(#clip0_94_4960)">
<rect width="600" height="336" rx="34.4988" fill="#F0F0F0"/>
<path d="M300 64.3727C419.826 64.3727 504.926 -32.173 516.964 -152.505C549.159 -474.325 419.826 -518.274 300 -518.274C180.174 -518.274 50.8415 -474.325 83.0361 -152.505C95.0741 -32.173 180.174 64.3727 300 64.3727Z" fill="#E8E8E8"/>
<path d="M220.094 -18.8628H379.906L399.882 225.294L297.503 290.495L200.118 225.294L220.094 -18.8628Z" fill="#E8E8E8"/>
<path fill-rule="evenodd" clip-rule="evenodd" d="M329.299 62.3935C319.79 63.7002 310.016 64.3748 300 64.3748C269.051 64.3748 240.418 57.934 214.762 46.3062L208.839 118.694C256.145 113.737 297.182 93.2919 329.299 62.3935Z" fill="#E2E2E2"/>
<path fill-rule="evenodd" clip-rule="evenodd" d="M403.125 140.184C397.276 139.584 392.498 135.042 392.018 129.182C391.523 123.133 386.47 118.476 380.4 118.476H219.885C213.654 118.476 208.466 123.257 207.958 129.467C207.476 135.358 202.755 139.97 196.894 140.735C103.74 152.886 25.6554 240.314 1.54182 363.172C-1.07493 376.504 6.67215 388.99 16.8515 388.99H587.897C598.076 388.99 605.823 376.504 603.207 363.172C578.686 238.24 498.356 149.944 403.125 140.184Z" fill="#E8E8E8"/>
<path fill-rule="evenodd" clip-rule="evenodd" d="M155.725 136.511C155.725 118.843 177.401 103.104 211.173 92.9414L207.631 136.239C202.788 139.318 200.117 142.688 200.117 146.221C200.117 149.357 202.222 152.365 206.083 155.155L204.226 177.854C174.457 167.694 155.725 152.936 155.725 136.511ZM394.056 156.867L395.847 178.753C427.18 168.575 447.049 153.427 447.049 136.511C447.049 118.352 424.153 102.231 388.758 92.1074L392.231 134.559C398.906 138.075 402.657 142.034 402.657 146.221C402.657 150.009 399.586 153.611 394.056 156.867Z" fill="#D9D9D9"/>
<path fill-rule="evenodd" clip-rule="evenodd" d="M392.367 160.975C392.362 160.977 392.357 160.979 392.352 160.981L392.321 160.417L392.367 160.975ZM402.381 156.507C402.564 155.86 402.657 155.206 402.657 154.546C402.657 150.177 398.573 146.057 391.346 142.429L389.028 99.6968C411.172 107.72 424.853 118.768 424.853 130.965C424.853 140.474 416.538 149.284 402.381 156.507ZM200.394 156.507C200.211 155.86 200.118 155.206 200.118 154.546C200.118 150.791 203.134 147.22 208.57 143.987L210.915 100.757C190.441 108.68 177.922 119.297 177.922 130.965C177.922 140.474 186.236 149.284 200.394 156.507Z" fill="#B6B6B6"/>
<path d="M324.079 212.126C312.189 181.772 328.995 147.77 360.331 138.782C387.761 130.914 416.675 145.205 427.083 171.776L438.556 201.063C448.964 227.633 437.451 257.761 411.975 270.618C382.872 285.306 347.442 271.766 335.552 241.412L324.079 212.126Z" fill="#D1D1D1"/>
<path d="M279.17 212.126C291.06 181.772 274.254 147.77 242.918 138.782C215.488 130.914 186.574 145.205 176.166 171.776L164.693 201.063C154.285 227.633 165.798 257.761 191.274 270.618C220.378 285.306 255.807 271.766 267.697 241.412L279.17 212.126Z" fill="#D1D1D1"/>
<path d="M353.782 199.935C342.266 170.538 358.616 137.62 388.998 129.034C415.446 121.56 443.25 135.37 453.274 160.96L466.446 194.584C476.471 220.175 465.445 249.196 440.958 261.674C412.828 276.009 378.469 262.956 366.953 233.559L353.782 199.935Z" fill="#F0F0F0"/>
<path d="M249.466 199.935C260.982 170.538 244.631 137.62 214.249 129.034C187.802 121.56 159.998 135.37 149.973 160.96L136.802 194.584C126.777 220.175 137.803 249.196 162.29 261.674C190.42 276.009 224.779 262.956 236.295 233.559L249.466 199.935Z" fill="#F0F0F0"/>
</g>
<defs>
<clipPath id="clip0_94_4960">
<rect width="600" height="336" rx="34.4988" fill="white"/>
</clipPath>
</defs>
</svg>
