<svg width="600" height="336" viewBox="0 0 600 336" fill="none" xmlns="http://www.w3.org/2000/svg">
<g clip-path="url(#clip0_94_4937)">
<rect width="600" height="336" rx="34.4988" fill="#F0F0F0"/>
<path d="M300.028 277.343C348.87 277.343 383.558 237.99 388.465 188.941C401.588 57.764 348.87 39.8496 300.028 39.8496C251.186 39.8496 198.468 57.764 211.591 188.941C216.498 237.99 251.186 277.343 300.028 277.343Z" fill="#D6D6D6"/>
<path d="M248.006 175.56C248.006 191.8 234.841 201.571 218.602 201.571C202.362 201.571 189.198 185.014 189.198 168.775C189.198 152.535 202.362 142.764 218.602 142.764C234.841 142.764 248.006 159.321 248.006 175.56Z" fill="#D6D6D6"/>
<path d="M352.05 175.56C352.05 191.8 365.215 201.571 381.454 201.571C397.694 201.571 410.858 185.014 410.858 168.775C410.858 152.535 397.694 142.764 381.454 142.764C365.215 142.764 352.05 159.321 352.05 175.56Z" fill="#D6D6D6"/>
<path d="M267.458 243.415H332.599L340.741 342.936L299.01 369.513L259.315 342.936L267.458 243.415Z" fill="#D6D6D6"/>
<path fill-rule="evenodd" clip-rule="evenodd" d="M311.972 276.537C308.095 277.069 304.111 277.344 300.028 277.344C287.413 277.344 275.742 274.719 265.284 269.979L262.87 299.486C282.153 297.466 298.88 289.132 311.972 276.537Z" fill="#B7B7B7"/>
<path fill-rule="evenodd" clip-rule="evenodd" d="M342.063 308.245C339.678 308.001 337.731 306.149 337.535 303.761C337.334 301.295 335.274 299.396 332.8 299.396H267.372C264.832 299.396 262.717 301.345 262.51 303.877C262.314 306.278 260.389 308.158 258 308.47C220.03 313.423 188.202 349.059 178.373 399.138C177.306 404.572 180.464 409.661 184.613 409.661H417.378C421.527 409.661 424.685 404.572 423.618 399.138C413.623 348.214 380.88 312.224 342.063 308.245Z" fill="#D6D6D6"/>
<path d="M402.522 150.171C407.589 61.1386 369.454 32.2911 329.37 23.8755C320.617 22.0377 312.042 24.4348 305.431 26.5306C295.873 21.851 284.521 22.2495 275.429 23.8757C234.266 31.2388 192.532 58.7501 197.493 150.232C200.344 147.755 203.802 145.876 207.666 144.662C211.623 147.901 219.498 157.454 219.498 169.622V184.878C219.498 188.388 224.01 189.821 226.037 186.955C226.467 186.347 226.7 185.633 226.693 184.888C226.657 181.007 226.447 178.666 226.219 173.664C225.332 154.173 224.168 128.606 231.917 115.904C243.945 96.1872 276.5 92.9149 300.028 92.7286C323.556 92.9149 356.111 96.1872 368.139 115.904C375.914 128.648 375.409 153.305 374.821 172.097C374.801 172.758 374.78 173.41 374.76 174.055L374.491 184.888C374.488 185.435 374.637 185.96 374.917 186.43C376.495 189.077 380.558 187.96 380.558 184.878V169.622C380.558 157.408 388.443 147.938 392.385 144.733C396.114 145.931 399.663 147.744 402.44 150.126L402.522 150.171Z" fill="#5D5D5D"/>
<path d="M372.432 159.858H376.765L383.675 116.76L371.891 90.1788L350.242 74.0105L286.939 46.0586L219.8 93.193L222.54 159.858C223.922 159.506 226.862 159.093 231.418 158.895C233.094 158.822 234.498 157.575 234.717 155.912L238.097 130.224L238.98 156.118C239.031 157.613 240.349 158.798 241.844 158.818C242.509 158.826 243.058 158.603 243.575 158.184L244.513 157.423L245.872 158.313C246.393 158.653 246.999 158.842 247.62 158.87C251.197 159.029 252.672 159.362 257.891 159.858C277.304 161.699 318.275 160.071 332.958 158.855C334.403 158.735 335.581 157.687 335.91 156.276L340.86 135.007V154.021C340.86 155.894 342.379 157.413 344.253 157.413H344.692C346.445 157.413 347.909 156.078 348.07 154.333L351.045 122.175L355.066 155.302C355.223 156.593 356.101 157.685 357.36 158.01C360.578 158.839 366.119 159.858 372.432 159.858Z" fill="#5D5D5D"/>
</g>
<defs>
<clipPath id="clip0_94_4937">
<rect width="600" height="336" rx="34.4988" fill="white"/>
</clipPath>
</defs>
</svg>
