<svg width="600" height="336" viewBox="0 0 600 336" fill="none" xmlns="http://www.w3.org/2000/svg">
<g clip-path="url(#clip0_94_4953)">
<rect width="600" height="336" rx="34.4988" fill="#F0F0F0"/>
<path d="M300 175.353C363.512 175.353 408.618 124.18 414.999 60.3997C432.063 -110.176 363.512 -133.471 300 -133.471C236.488 -133.471 167.937 -110.176 185.002 60.3997C191.382 124.18 236.488 175.353 300 175.353Z" fill="#E6E6E6"/>
<path d="M232.353 42.9996C232.353 64.1164 215.234 76.8231 194.118 76.8231C173.001 76.8231 155.882 55.2928 155.882 34.1761C155.882 13.0593 173.001 0.352539 194.118 0.352539C215.234 0.352539 232.353 21.8828 232.353 42.9996Z" fill="#E6E6E6"/>
<path d="M367.647 42.9996C367.647 64.1164 384.766 76.8231 405.882 76.8231C426.999 76.8231 444.118 55.2928 444.118 34.1761C444.118 13.0593 426.999 0.352539 405.882 0.352539C384.766 0.352539 367.647 21.8828 367.647 42.9996Z" fill="#E6E6E6"/>
<path d="M257.647 131.234H342.353L352.941 260.646L298.676 295.205L247.059 260.646L257.647 131.234Z" fill="#E6E6E6"/>
<path fill-rule="evenodd" clip-rule="evenodd" d="M315.53 174.304C310.49 174.997 305.309 175.354 300 175.354C283.596 175.354 268.419 171.94 254.821 165.777L251.682 204.146C276.755 201.518 298.507 190.682 315.53 174.304Z" fill="#D9D9D9"/>
<path fill-rule="evenodd" clip-rule="evenodd" d="M354.66 215.535C351.56 215.218 349.027 212.81 348.773 209.704C348.511 206.498 345.832 204.029 342.615 204.029H257.536C254.234 204.029 251.484 206.564 251.214 209.855C250.959 212.978 248.457 215.422 245.35 215.827C195.975 222.268 154.588 268.608 141.806 333.727C140.419 340.794 144.526 347.411 149.921 347.411H452.595C457.991 347.411 462.097 340.794 460.71 333.727C447.713 267.509 405.136 220.709 354.66 215.535Z" fill="#E6E6E6"/>
<path d="M250.637 218.606C258.142 226.112 278.556 241.122 300.172 241.122C321.787 241.122 341.201 226.112 348.206 218.606" stroke="white" stroke-width="2.52941" stroke-linecap="round" stroke-dasharray="5.06 5.06"/>
<path d="M481.721 348.882C489.033 348.882 494.598 342.265 492.719 335.198C466.597 275.04 461.547 261.689 447.761 251.146C427.174 235.404 407.952 225.581 382.111 217.228C380.208 216.614 378.161 217.603 377.443 219.469L366.954 246.729C356.931 272.096 345.136 295.259 318.334 295.259H284.263C257.461 295.259 245.667 272.096 235.643 246.729L225.155 219.469C224.437 217.603 222.394 216.61 220.499 217.247C193.546 226.311 166.801 243.102 154.914 254.317C142.64 265.897 135.936 280.079 110.565 333.747L109.879 335.198C107.999 342.265 113.564 348.882 120.877 348.882H481.721Z" fill="#34343F"/>
<ellipse cx="300.148" cy="251.954" rx="5.27595" ry="5.27596" fill="white"/>
</g>
<defs>
<clipPath id="clip0_94_4953">
<rect width="600" height="336" rx="34.4988" fill="white"/>
</clipPath>
</defs>
</svg>
