<svg width="600" height="336" viewBox="0 0 600 336" fill="none" xmlns="http://www.w3.org/2000/svg">
<g clip-path="url(#clip0_94_4958)">
<rect width="600" height="336" rx="34.4988" fill="#F0F0F0"/>
<path d="M672 562.549C866.77 562.549 1005.09 405.62 1024.66 210.026C1076.99 -313.072 866.77 -384.51 672 -384.51C477.23 -384.51 267.007 -313.072 319.338 210.026C338.905 405.62 477.23 562.549 672 562.549Z" fill="#E6E6E6"/>
<path d="M464.549 156.667C464.549 221.425 412.052 260.393 347.294 260.393C282.536 260.393 230.039 194.366 230.039 129.608C230.039 64.8502 282.536 25.8828 347.294 25.8828C412.052 25.8828 464.549 91.909 464.549 156.667Z" fill="#E6E6E6"/>
<path d="M293.094 208.226C286.152 218.348 274.872 240.676 285.284 249.008" stroke="#FFAD32" stroke-width="13.5294" stroke-linecap="round"/>
<circle cx="12.4108" cy="12.4108" r="12.4108" transform="matrix(-1 0 0 1 299.49 261.59)" fill="#FFE2B6"/>
</g>
<defs>
<clipPath id="clip0_94_4958">
<rect width="600" height="336" rx="34.4988" fill="white"/>
</clipPath>
</defs>
</svg>
