<svg width="600" height="336" viewBox="0 0 600 336" fill="none" xmlns="http://www.w3.org/2000/svg">
<g clip-path="url(#clip0_94_4936)">
<rect width="600" height="336" rx="34.4988" fill="#F0F0F0"/>
<path d="M300.028 277.343C348.87 277.343 383.558 237.99 388.465 188.941C401.588 57.764 348.87 39.8496 300.028 39.8496C251.186 39.8496 198.468 57.764 211.591 188.941C216.498 237.99 251.186 277.343 300.028 277.343Z" fill="#D6D6D6"/>
<path d="M248.006 175.56C248.006 191.8 234.841 201.571 218.602 201.571C202.362 201.571 189.198 185.014 189.198 168.775C189.198 152.535 202.362 142.764 218.602 142.764C234.841 142.764 248.006 159.321 248.006 175.56Z" fill="#D6D6D6"/>
<path d="M352.05 175.56C352.05 191.8 365.215 201.571 381.454 201.571C397.694 201.571 410.858 185.014 410.858 168.775C410.858 152.535 397.694 142.764 381.454 142.764C365.215 142.764 352.05 159.321 352.05 175.56Z" fill="#D6D6D6"/>
<path d="M267.458 243.415H332.599L340.741 342.936L299.01 369.513L259.315 342.936L267.458 243.415Z" fill="#D6D6D6"/>
<path fill-rule="evenodd" clip-rule="evenodd" d="M311.972 276.537C308.095 277.069 304.111 277.344 300.028 277.344C287.413 277.344 275.742 274.719 265.284 269.979L262.87 299.486C282.153 297.466 298.88 289.132 311.972 276.537Z" fill="#B7B7B7"/>
<path fill-rule="evenodd" clip-rule="evenodd" d="M342.063 308.245C339.678 308.001 337.731 306.149 337.535 303.761C337.334 301.295 335.274 299.396 332.8 299.396H267.372C264.832 299.396 262.717 301.345 262.51 303.877C262.314 306.278 260.389 308.158 258 308.47C220.03 313.423 188.202 349.059 178.373 399.138C177.306 404.572 180.464 409.661 184.613 409.661H417.378C421.527 409.661 424.685 404.572 423.618 399.138C413.623 348.214 380.88 312.224 342.063 308.245Z" fill="#D6D6D6"/>
<path d="M366.461 39.1072C376.811 48.3974 385.08 61.3706 391.599 73.5009L391.618 73.5193C397.842 85.1365 400.55 98.0181 396.498 110.863C395.463 114.139 393.911 117.164 392.36 120.171C392.878 127.729 392.908 135.904 392.385 144.742C388.443 147.946 380.558 157.408 380.558 169.622V184.877C380.558 187.959 376.495 189.077 374.917 186.429C374.637 185.959 374.488 185.435 374.491 184.888C374.507 181.941 374.607 178.818 374.723 175.209L374.723 175.206L374.759 174.055C375.058 164.667 375.41 153.581 374.719 143.176L371.841 124.951L369.505 119.119C366.331 116.415 360.813 114.029 355.625 111.785C351.236 109.887 347.083 108.09 344.786 106.291C343.042 104.925 341.298 103.563 339.555 102.202C337.813 100.841 336.07 99.481 334.328 98.1159C331.229 102.25 327.798 106.051 323.187 108.487C320.089 110.111 316.806 110.812 313.338 110.794C312.221 110.794 311.093 110.658 309.964 110.523C308.557 110.354 307.149 110.185 305.757 110.277C300.896 110.579 298.99 112.428 296.28 115.058C295.844 115.481 295.387 115.925 294.893 116.385C284.989 125.631 267.817 127.975 261.085 115.85C256.285 118.492 246.271 120.702 238.319 121.673L225.766 143.497C225.304 153.556 225.793 164.31 226.219 173.663C226.294 175.3 226.367 176.652 226.432 177.867C226.566 180.363 226.669 182.277 226.693 184.888C226.7 185.633 226.467 186.347 226.037 186.955C224.01 189.821 219.498 188.388 219.498 184.877V169.622C219.498 164.284 217.992 159.472 215.967 155.478C215.189 154.537 214.497 153.529 213.917 152.44C213.624 151.889 213.361 151.333 213.125 150.772C211.167 148.01 209.144 145.939 207.671 144.742C206.817 130.315 207.437 117.657 209.247 106.561C207.025 94.4449 205.204 82.1978 212.591 71.8151C216.974 65.6583 223.807 61.792 230.529 58.6587C230.592 58.6288 230.658 58.5989 230.725 58.5689C233.99 54.969 237.497 51.8097 241.18 49.0436L241.223 48.9466C241.614 48.062 241.989 47.2146 242.371 46.4734C243.936 43.4683 245.465 40.9213 247.933 38.5209C259.401 27.3617 275.864 28.7497 290.53 31.5899C290.927 31.5552 291.322 31.5225 291.716 31.4917C300.187 24.5418 312.77 23.9054 323.827 24.4482C339.297 25.1995 354.674 28.5161 366.461 39.1072Z" fill="#5D5D5D"/>
</g>
<defs>
<clipPath id="clip0_94_4936">
<rect width="600" height="336" rx="34.4988" fill="white"/>
</clipPath>
</defs>
</svg>
