<svg width="600" height="336" viewBox="0 0 600 336" fill="none" xmlns="http://www.w3.org/2000/svg">
<g clip-path="url(#clip0_94_4949)">
<rect width="600" height="336" rx="34.4988" fill="#F0F0F0"/>
<path d="M300 175.353C363.512 175.353 408.618 124.181 414.999 60.4002C432.063 -110.175 363.512 -133.47 300 -133.47C236.488 -133.47 167.937 -110.175 185.002 60.4002C191.382 124.181 236.488 175.353 300 175.353Z" fill="#E6E6E6"/>
<path d="M232.353 43.0006C232.353 64.1173 215.234 76.8241 194.118 76.8241C173.001 76.8241 155.882 55.2938 155.882 34.177C155.882 13.0603 173.001 0.353516 194.118 0.353516C215.234 0.353516 232.353 21.8838 232.353 43.0006Z" fill="#E6E6E6"/>
<path d="M367.647 43.0006C367.647 64.1173 384.766 76.8241 405.882 76.8241C426.999 76.8241 444.118 55.2938 444.118 34.177C444.118 13.0603 426.999 0.353516 405.882 0.353516C384.766 0.353516 367.647 21.8838 367.647 43.0006Z" fill="#E6E6E6"/>
<path d="M257.647 131.234H342.353L352.941 260.646L298.676 295.205L247.059 260.646L257.647 131.234Z" fill="#E6E6E6"/>
<path fill-rule="evenodd" clip-rule="evenodd" d="M315.53 174.304C310.49 174.997 305.309 175.354 300 175.354C283.596 175.354 268.419 171.94 254.821 165.777L251.682 204.146C276.755 201.518 298.507 190.682 315.53 174.304Z" fill="#D9D9D9"/>
<path fill-rule="evenodd" clip-rule="evenodd" d="M354.66 215.535C351.56 215.218 349.027 212.81 348.773 209.704C348.511 206.498 345.832 204.029 342.615 204.029H257.536C254.234 204.029 251.484 206.564 251.214 209.855C250.959 212.978 248.457 215.422 245.35 215.827C195.975 222.268 154.588 268.608 141.806 333.727C140.419 340.794 144.526 347.411 149.921 347.411H452.595C457.991 347.411 462.097 340.794 460.71 333.727C447.713 267.509 405.136 220.709 354.66 215.535Z" fill="#E6E6E6"/>
<path fill-rule="evenodd" clip-rule="evenodd" d="M370.669 215.421C370.451 214.483 369.708 213.731 368.729 213.546C364.962 212.831 360.993 212.326 357.088 212.169C355.692 212.113 354.566 213.251 354.494 214.646C353.179 240.273 331.984 260.647 306.03 260.647H294.265C268.311 260.647 247.116 240.273 245.8 214.646C245.729 213.251 244.603 212.113 243.207 212.169C239.301 212.326 235.333 212.831 231.566 213.546C230.587 213.731 229.844 214.483 229.625 215.421C161.496 220.047 113.576 268.409 95.8102 335.197C93.9305 342.264 99.4956 348.881 106.808 348.881H493.486C500.799 348.881 506.364 342.264 504.484 335.197C486.718 268.409 438.798 220.047 370.669 215.421Z" fill="#38464F"/>
<path d="M368.729 213.546C369.902 213.768 370.736 214.803 370.736 215.997V217.662C370.736 250.983 343.723 277.996 310.402 277.996H289.893C256.571 277.996 229.559 250.983 229.559 217.662V215.997C229.559 214.803 230.393 213.768 231.566 213.546C235.333 212.831 239.301 212.326 243.207 212.169C244.603 212.113 245.729 213.251 245.8 214.646C247.116 240.273 268.311 260.647 294.265 260.647H306.03C331.984 260.647 353.179 240.273 354.494 214.646C354.566 213.251 355.692 212.113 357.088 212.169C360.993 212.326 364.962 212.831 368.729 213.546Z" fill="white" fill-opacity="0.2"/>
<path d="M214.585 313.597C252.802 316.831 288.353 314.326 388.345 311.216C392.158 330.682 393.071 331.869 393.548 348.881H214.585C218.674 331.894 214.326 332.226 214.585 313.597Z" fill="#606B72"/>
</g>
<defs>
<clipPath id="clip0_94_4949">
<rect width="600" height="336" rx="34.4988" fill="white"/>
</clipPath>
</defs>
</svg>
