<svg width="600" height="336" viewBox="0 0 600 336" fill="none" xmlns="http://www.w3.org/2000/svg">
<g clip-path="url(#clip0_94_4935)">
<rect width="600" height="336" rx="34.4988" fill="#F0F0F0"/>
<path d="M300.028 277.343C348.87 277.343 383.558 237.99 388.465 188.941C401.588 57.764 348.87 39.8496 300.028 39.8496C251.186 39.8496 198.468 57.764 211.591 188.941C216.498 237.99 251.186 277.343 300.028 277.343Z" fill="#D6D6D6"/>
<path d="M248.006 175.56C248.006 191.8 234.841 201.571 218.602 201.571C202.362 201.571 189.198 185.014 189.198 168.775C189.198 152.535 202.362 142.764 218.602 142.764C234.841 142.764 248.006 159.321 248.006 175.56Z" fill="#D6D6D6"/>
<path d="M352.05 175.56C352.05 191.8 365.215 201.571 381.454 201.571C397.694 201.571 410.858 185.014 410.858 168.775C410.858 152.535 397.694 142.764 381.454 142.764C365.215 142.764 352.05 159.321 352.05 175.56Z" fill="#D6D6D6"/>
<path d="M267.458 243.415H332.599L340.741 342.936L299.01 369.513L259.315 342.936L267.458 243.415Z" fill="#D6D6D6"/>
<path fill-rule="evenodd" clip-rule="evenodd" d="M311.972 276.537C308.095 277.069 304.111 277.344 300.028 277.344C287.413 277.344 275.742 274.719 265.284 269.979L262.87 299.486C282.153 297.466 298.88 289.132 311.972 276.537Z" fill="#B7B7B7"/>
<path fill-rule="evenodd" clip-rule="evenodd" d="M342.063 308.245C339.678 308.001 337.731 306.149 337.535 303.761C337.334 301.295 335.274 299.396 332.8 299.396H267.372C264.832 299.396 262.717 301.345 262.51 303.877C262.314 306.278 260.389 308.158 258 308.47C220.03 313.423 188.202 349.059 178.373 399.138C177.306 404.572 180.464 409.661 184.613 409.661H417.378C421.527 409.661 424.685 404.572 423.618 399.138C413.623 348.214 380.88 312.224 342.063 308.245Z" fill="#D6D6D6"/>
<path fill-rule="evenodd" clip-rule="evenodd" d="M322.122 33.3096C321.394 33.1688 320.667 33.0355 319.941 32.9096C310.499 27.8294 296.213 22.3485 280.296 21.1463C258.241 19.4804 232.758 26.1065 213.628 52.9716C189.972 86.1927 190.948 120.646 198.465 149.605C201.858 147.004 205.251 145.307 209.209 144.403C209.089 144.567 208.973 144.72 208.861 144.868C208.343 145.552 207.915 146.117 207.655 147.079C206.27 152.204 209.302 157.481 214.427 158.866C215.516 159.161 216.612 159.36 217.708 159.476C218.92 164.059 219.718 169.201 219.718 174.146V189.401C219.718 192.912 224.23 194.345 226.257 191.479C226.687 190.871 226.92 190.157 226.913 189.412C226.889 186.801 226.786 184.887 226.652 182.391C226.587 181.176 226.514 179.824 226.439 178.187C226.179 172.466 225.895 165.831 225.819 158.991C229.648 158.196 233.308 156.718 236.54 155.118C243.3 151.771 250.318 146.804 256.924 141.415C261.018 138.076 265.078 134.471 268.968 130.812C268.997 130.891 269.026 130.969 269.057 131.048C270.998 135.989 276.577 141.815 281.519 139.874C289.327 136.807 295.757 132.389 301.027 127.218C301.138 127.446 301.259 127.672 301.391 127.894C304.088 132.467 309.982 133.987 314.554 131.29C326.381 124.313 332.434 110.944 335.616 99.4533C335.844 98.6306 336.032 97.9636 336.191 97.4014C336.984 94.5948 337.04 94.3972 337.568 90.4578C338.056 90.9453 338.543 91.4066 339.031 91.8679C340.806 93.5468 342.581 95.2263 344.359 98.1754C349.697 111.683 353.389 125.178 353.204 135.274C353.107 140.582 357.331 144.964 362.639 145.061C363.482 145.077 364.302 144.983 365.085 144.793V145.063C365.085 150.372 369.389 154.676 374.698 154.676C374.829 154.676 374.96 154.673 375.089 154.668C375.534 161.437 375.298 168.718 375.045 176.557C375.023 177.227 375.001 177.901 374.979 178.579C374.967 178.968 374.955 179.352 374.943 179.73C374.827 183.34 374.727 186.464 374.711 189.412C374.708 189.959 374.857 190.483 375.137 190.953C376.715 193.601 380.778 192.483 380.778 189.401V174.146C380.778 163 387.344 150.378 391.489 145.821C391.686 145.878 391.887 145.928 392.09 145.973C397.277 147.105 402.4 143.818 403.532 138.631C406.895 123.221 409.555 96.4319 400.781 73.1915C396.305 61.3377 388.749 50.1578 376.634 42.1746C364.535 34.2019 348.711 29.9582 328.626 30.5215C326.082 30.5928 323.796 31.6468 322.122 33.3096Z" fill="#5D5D5D"/>
</g>
<defs>
<clipPath id="clip0_94_4935">
<rect width="600" height="336" rx="34.4988" fill="white"/>
</clipPath>
</defs>
</svg>
