<svg width="600" height="336" viewBox="0 0 600 336" fill="none" xmlns="http://www.w3.org/2000/svg">
<g clip-path="url(#clip0_94_4938)">
<rect width="600" height="336" rx="34.4988" fill="#F0F0F0"/>
<path d="M300.028 277.343C348.87 277.343 383.558 237.99 388.465 188.941C401.588 57.764 348.87 39.8496 300.028 39.8496C251.186 39.8496 198.468 57.764 211.591 188.941C216.498 237.99 251.186 277.343 300.028 277.343Z" fill="#D6D6D6"/>
<path d="M248.006 175.56C248.006 191.8 234.841 201.571 218.602 201.571C202.362 201.571 189.198 185.014 189.198 168.775C189.198 152.535 202.362 142.764 218.602 142.764C234.841 142.764 248.006 159.321 248.006 175.56Z" fill="#D6D6D6"/>
<path d="M352.05 175.56C352.05 191.8 365.215 201.571 381.454 201.571C397.694 201.571 410.858 185.014 410.858 168.775C410.858 152.535 397.694 142.764 381.454 142.764C365.215 142.764 352.05 159.321 352.05 175.56Z" fill="#D6D6D6"/>
<path d="M267.458 243.415H332.599L340.741 342.936L299.01 369.513L259.315 342.936L267.458 243.415Z" fill="#D6D6D6"/>
<path fill-rule="evenodd" clip-rule="evenodd" d="M311.972 276.537C308.095 277.069 304.111 277.344 300.028 277.344C287.413 277.344 275.742 274.719 265.284 269.979L262.87 299.486C282.153 297.466 298.88 289.132 311.972 276.537Z" fill="#B7B7B7"/>
<path fill-rule="evenodd" clip-rule="evenodd" d="M342.063 308.245C339.678 308.001 337.731 306.149 337.535 303.761C337.334 301.295 335.274 299.396 332.8 299.396H267.372C264.832 299.396 262.717 301.345 262.51 303.877C262.314 306.278 260.389 308.158 258 308.47C220.03 313.423 188.202 349.059 178.373 399.138C177.306 404.572 180.464 409.661 184.613 409.661H417.378C421.527 409.661 424.685 404.572 423.618 399.138C413.623 348.214 380.88 312.224 342.063 308.245Z" fill="#D6D6D6"/>
<path d="M326.039 89.8926C324.908 96.4896 317.444 113.19 296.635 127.213" stroke="#5D5D5D" stroke-width="22.6184" stroke-linecap="round"/>
<path d="M313.599 89.8926C311.598 97.2892 298.392 116.013 261.577 131.737" stroke="#5D5D5D" stroke-width="22.6184" stroke-linecap="round"/>
<path d="M269.493 92.1543C267.666 100.95 255.609 123.217 221.994 141.915" stroke="#5D5D5D" stroke-width="22.6184" stroke-linecap="round"/>
<path d="M378.061 164.533C356.8 153.224 333.013 109.684 323.777 89.3271L374.669 99.5054L378.061 164.533Z" fill="#5D5D5D"/>
<path d="M272.32 121.558L267.231 115.903L224.256 133.432L233.304 100.07L264.969 63.3154L316.426 87.6302L272.32 121.558Z" fill="#5D5D5D"/>
<path d="M402.522 150.17C408.593 43.5047 347.509 21.3859 302.538 19.8601V19.7754C301.708 19.7754 300.871 19.7823 300.028 19.7965C299.185 19.7823 298.348 19.7754 297.518 19.7754V19.8601C252.65 21.3825 191.742 44.1917 197.493 150.232C200.344 147.755 203.802 145.876 207.666 144.661C207.668 144.688 207.669 144.715 207.671 144.742C211.613 147.946 219.498 157.408 219.498 169.622V184.878C219.498 188.388 224.01 189.821 226.037 186.955C226.467 186.347 226.7 185.633 226.693 184.888C226.669 182.277 226.566 180.363 226.432 177.867C226.367 176.653 226.294 175.301 226.219 173.664C225.602 160.105 224.851 143.605 227.06 130.541L263.71 96.4778C272.997 94.2545 282.943 93.2828 292.112 92.9143L320.54 93.824C327.894 94.6187 335.328 95.9396 342.193 98.0803L373.538 134.564L373.884 134.75C375.608 147.32 375.14 162.071 374.759 174.055C374.747 174.444 374.735 174.828 374.723 175.206C374.607 178.816 374.507 181.94 374.491 184.888C374.488 185.435 374.637 185.96 374.917 186.43C376.495 189.077 380.558 187.96 380.558 184.878V169.622C380.558 157.408 388.443 147.946 392.385 144.742C392.387 144.715 392.388 144.688 392.39 144.661C396.198 145.858 399.613 147.701 402.44 150.126L402.522 150.17Z" fill="#5D5D5D"/>
<path fill-rule="evenodd" clip-rule="evenodd" d="M265.454 270.259C238.804 258.181 220.035 232.372 213.604 201.289C209.627 200.415 205.927 198.566 202.675 196.029C204.178 216.013 204.985 244.394 201.736 267.788C200.963 273.355 204.85 278.496 210.417 279.269C210.914 279.338 211.407 279.37 211.894 279.367C211.814 290.12 211.28 323.75 210.028 337.849C223.593 321.707 240.679 311.313 259.292 308.773C261.437 308.48 263.204 306.929 263.675 304.874L265.454 270.259ZM389.921 335.309C376.266 320.101 359.335 310.52 340.999 308.546C338.728 308.301 336.856 306.603 336.525 304.376L334.772 270.259C361.422 258.181 380.19 232.372 386.622 201.289C390.598 200.415 394.298 198.566 397.551 196.029C396.047 216.013 395.241 262.489 398.49 285.882C399.263 291.45 395.376 296.591 389.808 297.364C389.312 297.433 388.819 297.465 388.332 297.462C388.484 299.804 388.645 304.593 388.834 310.197L388.834 310.198C389.115 318.558 389.457 328.731 389.921 335.309Z" fill="#5D5D5D"/>
</g>
<defs>
<clipPath id="clip0_94_4938">
<rect width="600" height="336" rx="34.4988" fill="white"/>
</clipPath>
</defs>
</svg>
