<svg width="600" height="336" viewBox="0 0 600 336" fill="none" xmlns="http://www.w3.org/2000/svg">
<g clip-path="url(#clip0_94_4948)">
<rect width="600" height="336" rx="34.4988" fill="#F0F0F0"/>
<path d="M300 175.353C363.512 175.353 408.618 124.181 414.999 60.4002C432.063 -110.175 363.512 -133.47 300 -133.47C236.488 -133.47 167.937 -110.175 185.002 60.4002C191.382 124.181 236.488 175.353 300 175.353Z" fill="#E6E6E6"/>
<path d="M232.353 43.0001C232.353 64.1169 215.234 76.8236 194.118 76.8236C173.001 76.8236 155.882 55.2933 155.882 34.1766C155.882 13.0598 173.001 0.353027 194.118 0.353027C215.234 0.353027 232.353 21.8833 232.353 43.0001Z" fill="#E6E6E6"/>
<path d="M367.647 43.0001C367.647 64.1169 384.766 76.8236 405.882 76.8236C426.999 76.8236 444.118 55.2933 444.118 34.1766C444.118 13.0598 426.999 0.353027 405.882 0.353027C384.766 0.353027 367.647 21.8833 367.647 43.0001Z" fill="#E6E6E6"/>
<path d="M257.647 131.235H342.353L352.941 260.647L298.676 295.206L247.059 260.647L257.647 131.235Z" fill="#E6E6E6"/>
<path fill-rule="evenodd" clip-rule="evenodd" d="M315.529 174.304C310.489 174.997 305.309 175.354 300 175.354C283.596 175.354 268.419 171.94 254.821 165.777L251.682 204.146C276.755 201.518 298.506 190.681 315.529 174.304Z" fill="#D9D9D9"/>
<path fill-rule="evenodd" clip-rule="evenodd" d="M354.66 215.535C351.56 215.218 349.027 212.81 348.773 209.704C348.511 206.498 345.832 204.029 342.615 204.029H257.536C254.234 204.029 251.484 206.564 251.214 209.855C250.959 212.978 248.457 215.422 245.35 215.827C195.975 222.268 154.588 268.608 141.806 333.727C140.419 340.794 144.526 347.411 149.921 347.411H452.595C457.991 347.411 462.097 340.794 460.71 333.727C447.713 267.509 405.136 220.709 354.66 215.535Z" fill="#E6E6E6"/>
<path d="M370.589 215.412C370.269 214.439 369.452 213.68 368.402 213.485C364.865 212.827 361.158 212.357 357.499 212.188C355.877 212.112 354.568 213.438 354.471 215.06C352.951 240.492 331.844 260.647 306.03 260.647H294.265C268.451 260.647 247.344 240.492 245.823 215.06C245.726 213.438 244.418 212.112 242.796 212.188C239.136 212.357 235.43 212.827 231.893 213.485C230.842 213.68 230.026 214.439 229.706 215.411C160.453 219.971 113.59 268.357 95.8102 335.199C93.9305 342.265 99.4956 348.883 106.808 348.883H493.486C500.799 348.883 506.364 342.265 504.484 335.199C486.704 268.358 439.842 219.971 370.589 215.412Z" fill="white"/>
<path d="M368.729 213.546C369.902 213.769 370.736 214.804 370.736 215.997V217.662C370.736 250.984 343.723 277.996 310.402 277.996H289.893C256.571 277.996 229.559 250.984 229.559 217.662V215.997C229.559 214.804 230.393 213.769 231.566 213.546C235.333 212.831 239.301 212.327 243.207 212.169C244.603 212.113 245.729 213.251 245.8 214.646C247.116 240.273 268.311 260.647 294.265 260.647H306.03C331.984 260.647 353.179 240.273 354.494 214.646C354.566 213.251 355.692 212.113 357.088 212.169C360.993 212.327 364.962 212.831 368.729 213.546Z" fill="#FAFAFA"/>
</g>
<defs>
<clipPath id="clip0_94_4948">
<rect width="600" height="336" rx="34.4988" fill="white"/>
</clipPath>
</defs>
</svg>
