<svg width="13" height="13" viewBox="0 0 13 13" fill="none" xmlns="http://www.w3.org/2000/svg">
<path d="M11.9976 1.83299C11.6799 1.51519 11.3028 1.26309 10.8877 1.09109C10.4726 0.919095 10.0276 0.830566 9.57832 0.830566C9.129 0.830566 8.68407 0.919095 8.26897 1.09109C7.85386 1.26309 7.47671 1.51519 7.15907 1.83299L6.49983 2.49222L5.8406 1.83299C5.19898 1.19136 4.32874 0.830899 3.42135 0.830899C2.51395 0.830899 1.64372 1.19136 1.00209 1.83299C0.360462 2.47461 6.76064e-09 3.34485 0 4.25224C-6.76064e-09 5.15964 0.360462 6.02987 1.00209 6.6715L1.66132 7.33073L5.79273 11.4621C6.18325 11.8527 6.81642 11.8527 7.20694 11.4621L11.3383 7.33073L11.9976 6.6715C12.3154 6.35385 12.5675 5.9767 12.7395 5.5616C12.9115 5.1465 13 4.70157 13 4.25224C13 3.80292 12.9115 3.35799 12.7395 2.94289C12.5675 2.52778 12.3154 2.15064 11.9976 1.83299Z" fill="#E85B81"/>
</svg>
