<svg width="155" height="29" viewBox="0 0 155 29" fill="none" xmlns="http://www.w3.org/2000/svg">
<rect width="29" height="29" rx="7" fill="#E1E1E1"/>
<path d="M14.4945 19.0731C13.6067 18.9396 12.7761 18.574 12.1104 17.9976C12.0792 17.9704 12.0493 17.9415 12.0186 17.9132C11.957 17.8566 11.8975 17.7976 11.8391 17.7374C11.7808 17.6773 11.7258 17.615 11.6712 17.5524C11.6177 17.4901 11.5642 17.4276 11.5142 17.3619C10.8956 16.5676 10.5568 15.5972 10.5568 14.5719C10.5568 13.5163 10.9133 12.5173 11.5671 11.7107C11.5797 11.6948 11.5931 11.6794 11.6058 11.6637C11.695 11.5567 11.7885 11.4523 11.8882 11.3525C12.092 11.1487 12.3135 10.9692 12.5467 10.8105C12.6145 10.7652 12.6821 10.7201 12.7522 10.6786C12.7801 10.6618 12.8081 10.645 12.8364 10.6288C13.3434 10.3432 13.9062 10.1519 14.4945 10.0636C14.8869 10.0048 15.233 9.79637 15.4688 9.47696C15.7047 9.15754 15.8023 8.76526 15.7433 8.37243C15.6843 7.9796 15.4757 7.63352 15.1563 7.39757C14.8573 7.17677 14.4945 7.07925 14.1274 7.11596V7.11376C14.1166 7.11523 14.106 7.11778 14.0952 7.11924C14.0808 7.12107 14.0664 7.12143 14.052 7.12363C13.9203 7.14335 13.7901 7.16709 13.6606 7.19339C12.2008 7.47537 10.8582 8.17757 9.78578 9.24995C6.85626 12.1797 6.85133 16.9437 9.77117 19.8794L9.77136 19.8796L9.78743 19.8957C9.78816 19.8964 9.78889 19.8971 9.7898 19.898L9.79181 19.9C10.9771 21.0825 12.4899 21.8191 14.1276 22.0304V22.0211C14.4948 22.0578 14.8575 21.9603 15.1565 21.7395C15.4759 21.5035 15.6845 21.1574 15.7434 20.7646C15.8024 20.3718 15.7049 19.9795 15.469 19.6601C15.2328 19.3405 14.8867 19.1321 14.4945 19.0731Z" fill="#252525"/>
<path d="M19.2356 11.7071C20.4298 11.7071 21.4014 10.7629 21.4014 9.6023C21.4014 8.4081 20.4298 7.43652 19.2356 7.43652C18.075 7.43652 17.1309 8.4081 17.1309 9.6023C17.1309 10.7629 18.075 11.7071 19.2356 11.7071Z" fill="#252525"/>
<path d="M21.3086 17.6881C21.1096 16.9956 20.5564 16.1699 19.0532 16.1699C17.8926 16.1699 16.9482 17.1141 16.9482 18.2747C16.9482 19.361 17.7697 20.2606 18.8381 20.3685V22.9459L19.1673 22.7398C20.8822 21.6648 21.7267 19.1414 21.3086 17.6881Z" fill="#252525"/>
<path d="M39 15.4351C39 13.9782 39.3225 12.6823 39.9674 11.5476C40.6123 10.3988 41.508 9.50927 42.6545 8.87886C43.8153 8.23445 45.1266 7.91224 46.5884 7.91224C48.3798 7.91224 49.9132 8.37454 51.1887 9.29913C51.7221 9.6858 52.1816 10.1313 52.5671 10.6355C53.4042 11.7305 52.392 13.0816 51.0137 13.0816C50.2132 13.0816 49.5263 12.5713 48.9269 12.0407C48.7705 11.9024 48.6001 11.78 48.4156 11.6737C47.871 11.3515 47.2476 11.1904 46.5454 11.1904C45.4132 11.1904 44.496 11.5756 43.7938 12.3461C43.0916 13.1166 42.7405 14.1463 42.7405 15.4351C42.7405 16.7239 43.0916 17.7536 43.7938 18.5241C44.496 19.2946 45.4132 19.6799 46.5454 19.6799C47.2476 19.6799 47.871 19.5187 48.4156 19.1965C48.6001 19.0902 48.7705 18.9678 48.9269 18.8295C49.5263 18.2989 50.2132 17.7886 51.0137 17.7886C52.392 17.7886 53.4043 19.1397 52.5671 20.2347C52.1816 20.739 51.7221 21.1844 51.1887 21.5711C49.9132 22.4817 48.3798 22.937 46.5884 22.937C45.1266 22.937 43.8153 22.6218 42.6545 21.9913C41.508 21.3469 40.6123 20.4574 39.9674 19.3226C39.3225 18.1879 39 16.892 39 15.4351Z" fill="#E1E1E1"/>
<path d="M61.2432 23C60.0681 23 59.0075 22.7548 58.0617 22.2645C57.1302 21.7742 56.3921 21.0738 55.8475 20.1632C55.3172 19.2526 55.0521 18.1879 55.0521 16.9691C55.0521 15.7643 55.3244 14.7066 55.869 13.796C56.4136 12.8714 57.1588 12.164 58.1047 11.6737C59.0505 11.1834 60.1111 10.9382 61.2862 10.9382C62.4614 10.9382 63.5219 11.1834 64.4678 11.6737C65.4136 12.164 66.1588 12.8714 66.7034 13.796C67.248 14.7066 67.5203 15.7643 67.5203 16.9691C67.5203 18.1739 67.2409 19.2386 66.6819 20.1632C66.1373 21.0738 65.385 21.7742 64.4248 22.2645C63.4789 22.7548 62.4184 23 61.2432 23ZM61.2432 19.89C61.9455 19.89 62.5402 19.6378 63.0275 19.1335C63.5291 18.6292 63.7799 17.9077 63.7799 16.9691C63.7799 16.0305 63.5362 15.309 63.049 14.8047C62.576 14.3004 61.9884 14.0482 61.2862 14.0482C60.5697 14.0482 59.9749 14.3004 59.502 14.8047C59.029 15.295 58.7926 16.0165 58.7926 16.9691C58.7926 17.9077 59.0219 18.6292 59.4805 19.1335C59.9534 19.6378 60.541 19.89 61.2432 19.89Z" fill="#E1E1E1"/>
<path d="M68.5246 16.9481C68.5246 15.7433 68.7539 14.6856 69.2125 13.775C69.6854 12.8644 70.3232 12.164 71.1257 11.6737C71.9283 11.1834 72.824 10.9382 73.8129 10.9382C74.6011 10.9382 75.3176 11.0993 75.9625 11.4215C76.6218 11.7437 77.1377 12.178 77.5103 12.7244V9.11981C77.5103 8.10472 78.3332 7.28183 79.3483 7.28183C80.3634 7.28183 81.1863 8.10472 81.1863 9.11981V20.9939C81.1863 22.009 80.3634 22.8319 79.3483 22.8319H79.1914C78.263 22.8319 77.5103 22.0792 77.5103 21.1508C77.1664 21.7112 76.6719 22.1595 76.027 22.4957C75.3964 22.8319 74.6584 23 73.8129 23C72.824 23 71.9283 22.7548 71.1257 22.2645C70.3232 21.7602 69.6854 21.0527 69.2125 20.1422C68.7539 19.2176 68.5246 18.1529 68.5246 16.9481ZM77.5103 16.9691C77.5103 16.0725 77.2523 15.3651 76.7364 14.8467C76.2348 14.3284 75.6186 14.0692 74.8877 14.0692C74.1568 14.0692 73.5334 14.3284 73.0175 14.8467C72.5159 15.3511 72.2651 16.0515 72.2651 16.9481C72.2651 17.8447 72.5159 18.5591 73.0175 19.0915C73.5334 19.6098 74.1568 19.869 74.8877 19.869C75.6186 19.869 76.2348 19.6098 76.7364 19.0915C77.2523 18.5731 77.5103 17.8657 77.5103 16.9691Z" fill="#E1E1E1"/>
<path d="M94.9381 16.78C94.9381 17.3806 94.421 17.8307 93.8203 17.8307H86.5543C86.6116 18.5591 86.8481 19.1195 87.2637 19.5117C87.6936 19.89 88.2167 20.0791 88.8329 20.0791C89.2359 20.0791 89.5849 20.0061 89.88 19.8601C90.5834 19.512 91.2465 18.9444 92.0314 18.9444H92.2862C93.4866 18.9444 94.3451 20.1147 93.5623 21.0247C93.0463 21.6411 92.3943 22.1244 91.606 22.4747C90.8178 22.8249 89.9365 23 88.9619 23C87.7868 23 86.7406 22.7548 85.8234 22.2645C84.9062 21.7742 84.1896 21.0738 83.6737 20.1632C83.1578 19.2526 82.8998 18.1879 82.8998 16.9691C82.8998 15.7503 83.1506 14.6856 83.6522 13.775C84.1681 12.8644 84.8847 12.164 85.8019 11.6737C86.7191 11.1834 87.7724 10.9382 88.9619 10.9382C90.1228 10.9382 91.1546 11.1764 92.0575 11.6527C92.9603 12.129 93.6626 12.8084 94.1642 13.691C94.6801 14.5735 94.9381 15.6032 94.9381 16.78ZM91.1761 15.8344C91.1761 15.218 90.9611 14.7276 90.5312 14.3634C90.1013 13.9992 89.5638 13.8171 88.9189 13.8171C88.3027 13.8171 87.7796 13.9922 87.3497 14.3424C86.9341 14.6926 86.6761 15.1899 86.5758 15.8344H91.1761Z" fill="#E1E1E1"/>
<path d="M98.5111 9.88752C97.8662 9.88752 97.3359 9.7054 96.9203 9.34116C96.519 8.96292 96.3184 8.50062 96.3184 7.95427C96.3184 7.3939 96.519 6.9316 96.9203 6.56737C97.3359 6.18912 97.8662 6 98.5111 6C99.1417 6 99.6576 6.18912 100.059 6.56737C100.474 6.9316 100.682 7.3939 100.682 7.95427C100.682 8.50062 100.474 8.96292 100.059 9.34116C99.6576 9.7054 99.1417 9.88752 98.5111 9.88752ZM98.5003 11.1063C99.5154 11.1063 100.338 11.9292 100.338 12.9443V20.9939C100.338 22.009 99.5154 22.8319 98.5003 22.8319C97.4852 22.8319 96.6623 22.009 96.6623 20.9939V12.9443C96.6623 11.9292 97.4852 11.1063 98.5003 11.1063Z" fill="#E1E1E1"/>
<path d="M108.161 19.7849C108.886 19.7849 109.473 20.372 109.473 21.0962V21.3084C109.473 22.1498 108.791 22.8319 107.949 22.8319H107.603C106.27 22.8319 105.231 22.5167 104.486 21.8863C103.74 21.2419 103.368 20.1982 103.368 18.7553V14.0902C102.56 14.0902 101.906 13.4358 101.906 12.6284V12.5681C101.906 11.7608 102.56 11.1063 103.368 11.1063V10.0864C103.368 9.07135 104.191 8.24846 105.206 8.24846C106.221 8.24846 107.044 9.07135 107.044 10.0864V11.1063H107.959C108.783 11.1063 109.451 11.7743 109.451 12.5983C109.451 13.4223 108.783 14.0902 107.959 14.0902H107.044V18.7973C107.044 19.1475 107.13 19.3997 107.302 19.5538C107.474 19.7079 107.76 19.7849 108.161 19.7849Z" fill="#E1E1E1"/>
<path d="M125.809 8.08035C127.237 8.08035 128.395 9.2384 128.395 10.6669V20.9939C128.395 22.009 127.573 22.8319 126.557 22.8319C125.542 22.8319 124.719 22.009 124.719 20.9939V13.9852L121.874 21.4451C121.555 22.2801 120.754 22.8319 119.86 22.8319C118.967 22.8319 118.167 22.2814 117.848 21.4477L114.981 13.9642V20.9939C114.981 22.009 114.158 22.8319 113.143 22.8319C112.128 22.8319 111.305 22.009 111.305 20.9939V10.6838C111.305 9.24597 112.471 8.08035 113.909 8.08035C114.962 8.08035 115.911 8.71423 116.314 9.68659L119.883 18.293L123.416 9.68475C123.814 8.71414 124.76 8.08035 125.809 8.08035Z" fill="#E1E1E1"/>
<path d="M130.093 16.9481C130.093 15.7433 130.322 14.6856 130.781 13.775C131.254 12.8644 131.892 12.164 132.694 11.6737C133.497 11.1834 134.392 10.9382 135.381 10.9382C136.227 10.9382 136.965 11.1063 137.595 11.4425C138.24 11.7787 138.735 12.22 139.079 12.7664C139.079 11.8495 139.822 11.1063 140.739 11.1063H140.917C141.932 11.1063 142.755 11.9292 142.755 12.9443V20.9939C142.755 22.009 141.932 22.8319 140.917 22.8319H140.739C139.822 22.8319 139.079 22.0887 139.079 21.1718C138.72 21.7182 138.219 22.1595 137.574 22.4957C136.943 22.8319 136.205 23 135.36 23C134.385 23 133.497 22.7548 132.694 22.2645C131.892 21.7602 131.254 21.0527 130.781 20.1422C130.322 19.2176 130.093 18.1529 130.093 16.9481ZM139.079 16.9691C139.079 16.0725 138.821 15.3651 138.305 14.8467C137.803 14.3284 137.187 14.0692 136.456 14.0692C135.725 14.0692 135.102 14.3284 134.586 14.8467C134.084 15.3511 133.833 16.0515 133.833 16.9481C133.833 17.8447 134.084 18.5591 134.586 19.0915C135.102 19.6098 135.725 19.869 136.456 19.869C137.187 19.869 137.803 19.6098 138.305 19.0915C138.821 18.5731 139.079 17.8657 139.079 16.9691Z" fill="#E1E1E1"/>
<path d="M147.037 7.28183C148.052 7.28183 148.875 8.10472 148.875 9.11981V20.9939C148.875 22.009 148.052 22.8319 147.037 22.8319C146.022 22.8319 145.199 22.009 145.199 20.9939V9.11981C145.199 8.10473 146.022 7.28183 147.037 7.28183Z" fill="#E1E1E1"/>
<path d="M153.162 7.28183C154.177 7.28183 155 8.10473 155 9.11982V20.9939C155 22.009 154.177 22.8319 153.162 22.8319C152.147 22.8319 151.324 22.009 151.324 20.9939V9.11982C151.324 8.10473 152.147 7.28183 153.162 7.28183Z" fill="#E1E1E1"/>
</svg>
