<svg width="22" height="22" viewBox="0 0 22 22" fill="none" xmlns="http://www.w3.org/2000/svg">
<path d="M19.426 12.5757C18.9438 12.207 18.7101 11.607 18.7101 11V11V11C18.7101 10.396 18.9375 9.79197 19.4191 9.42736L20.809 8.375C20.9027 8.2999 20.9667 8.19552 20.9901 8.07966C21.0136 7.96379 20.995 7.84361 20.9375 7.73959L18.8815 4.28125C18.8209 4.17663 18.7243 4.09623 18.6087 4.05428C18.493 4.01234 18.3659 4.01156 18.2497 4.05209L16.5989 4.6971C16.0334 4.91803 15.4058 4.82168 14.8793 4.5194V4.5194C14.3309 4.20451 13.8993 3.68708 13.8082 3.06128L13.57 1.42709C13.5511 1.30785 13.4888 1.19918 13.3945 1.12081C13.3002 1.04245 13.1801 0.999582 13.056 1H8.94396C8.68696 1 8.48349 1.17709 8.44066 1.42709L8.2028 3.05958C8.11146 3.68643 7.67455 4.20803 7.12569 4.5243V4.5243C6.60049 4.82694 5.97821 4.9184 5.41363 4.6978L3.76103 4.05209C3.52544 3.96875 3.25773 4.05209 3.12922 4.28125L1.08389 7.73959C0.955391 7.95834 0.998226 8.22917 1.2124 8.375L2.60088 9.42624C3.08337 9.79153 3.28985 10.3948 3.28985 11V11V11C3.28985 11.604 3.06253 12.208 2.58096 12.5726L1.19098 13.625C1.09731 13.7001 1.0333 13.8045 1.00987 13.9203C0.986437 14.0362 1.00503 14.1564 1.06248 14.2604L3.11852 17.7188C3.24702 17.9479 3.51473 18.0208 3.75032 17.9479L5.40112 17.3029C5.96657 17.082 6.59419 17.1783 7.12066 17.4806V17.4806C7.6691 17.7955 8.10066 18.3129 8.19184 18.9387L8.42995 20.5729C8.48349 20.8229 8.68696 21 8.94396 21H13.056C13.313 21 13.5272 20.8229 13.5593 20.5729L13.7982 18.9333C13.8889 18.3108 14.3215 17.7952 14.8678 17.4834V17.4834C15.3975 17.1812 16.0256 17.0831 16.5936 17.305L18.239 17.9479C18.4746 18.0313 18.7423 17.9479 18.8708 17.7188L20.9268 14.2604C21.0553 14.0313 21.0018 13.7708 20.7983 13.625L19.426 12.5757ZM11 14.75C8.87971 14.75 7.14493 13.0625 7.14493 11C7.14493 8.9375 8.87971 7.25 11 7.25C13.1203 7.25 14.8551 8.9375 14.8551 11C14.8551 13.0625 13.1203 14.75 11 14.75Z" stroke="#252525" stroke-width="1.7"/>
</svg>
