<svg width="13" height="12" viewBox="0 0 13 12" fill="none" xmlns="http://www.w3.org/2000/svg">
<path fill-rule="evenodd" clip-rule="evenodd" d="M6.26733 9.87232C6.41299 9.79574 6.58701 9.79574 6.73267 9.87232L9.42387 11.2872C9.79068 11.48 10.2194 11.1685 10.1493 10.7601L9.63537 7.76339C9.60755 7.60119 9.66132 7.43569 9.77917 7.32082L11.9564 5.19855C12.2532 4.90928 12.0894 4.4053 11.6793 4.34571L8.67044 3.90849C8.50758 3.88483 8.3668 3.78255 8.29397 3.63497L6.94837 0.908493C6.76496 0.53687 6.23504 0.53687 6.05163 0.908493L4.70603 3.63497C4.6332 3.78255 4.49242 3.88483 4.32956 3.90849L1.32071 4.34571C0.910604 4.4053 0.746848 4.90928 1.04361 5.19855L3.22083 7.32082C3.33867 7.43569 3.39245 7.60119 3.36463 7.76339L2.85066 10.7601C2.7806 11.1685 3.20932 11.48 3.57613 11.2872L6.26733 9.87232Z" fill="#FDC04A" stroke="#FDC04A" stroke-linejoin="round"/>
</svg>
