<svg width="13" height="13" viewBox="0 0 13 13" fill="none" xmlns="http://www.w3.org/2000/svg">
<path fill-rule="evenodd" clip-rule="evenodd" d="M5.94874 10.4929C6.0944 10.4163 6.26842 10.4163 6.41408 10.4929L9.10528 11.9078C9.4721 12.1006 9.90081 11.7891 9.83076 11.3807L9.31678 8.38399C9.28896 8.2218 9.34274 8.0563 9.46058 7.94143L11.6378 5.81916C11.9346 5.52989 11.7708 5.0259 11.3607 4.96631L8.35185 4.5291C8.18899 4.50544 8.04821 4.40315 7.97538 4.25558L6.62978 1.5291C6.44637 1.15748 5.91645 1.15748 5.73305 1.5291L4.38745 4.25558C4.31462 4.40315 4.17383 4.50544 4.01098 4.5291L1.00213 4.96631C0.592017 5.0259 0.428262 5.52989 0.725021 5.81916L2.90225 7.94143C3.02009 8.0563 3.07386 8.2218 3.04604 8.38399L2.53207 11.3807C2.46202 11.7891 2.89073 12.1006 3.25755 11.9078L5.94874 10.4929Z" stroke="#FDC04A" stroke-linejoin="round"/>
</svg>
