<svg width="64" height="64" viewBox="0 0 64 64" fill="none" xmlns="http://www.w3.org/2000/svg">
<g id="Group 9553">
<rect id="Rectangle 6135" x="0.5" y="0.5" width="63" height="63" rx="15.5" stroke="#EAEAEA"/>
<g id="Group 9299">
<path id="Vector" fill-rule="evenodd" clip-rule="evenodd" d="M47.9985 32.6984C47.9985 31.5403 47.8939 30.4283 47.7016 29.3594H32.326V35.6745H41.1127C40.7344 37.7154 39.584 39.4442 37.8552 40.6023V44.698H43.1322C46.219 41.8558 48 37.6708 48 32.6984H47.9985Z" fill="#3E82F1"/>
<path id="Vector_2" fill-rule="evenodd" clip-rule="evenodd" d="M32.3261 48.6536C36.734 48.6536 40.4299 47.1909 43.1307 44.6978L37.8537 40.602C36.3911 41.5818 34.5224 42.1601 32.3245 42.1601C28.0719 42.1601 24.473 39.2886 23.1887 35.4297H17.7365V39.6592C20.4234 44.9946 25.9433 48.6536 32.3261 48.6536Z" fill="#32A753"/>
<path id="Vector_3" fill-rule="evenodd" clip-rule="evenodd" d="M23.1902 35.43C22.8642 34.4503 22.6781 33.4044 22.6781 32.3278C22.6781 31.2512 22.8642 30.2054 23.1902 29.2256V24.9961H17.7364C16.6306 27.2001 16 29.6932 16 32.3278C16 34.9625 16.6306 37.4556 17.7364 39.6596L23.1902 35.43Z" fill="#F9BB00"/>
<path id="Vector_4" fill-rule="evenodd" clip-rule="evenodd" d="M32.3261 22.4935C34.7223 22.4935 36.8755 23.3179 38.5674 24.9343L43.2506 20.2511C40.4222 17.618 36.7264 16 32.3261 16C25.9433 16 20.4234 19.6589 17.7365 24.9943L23.1903 29.2239C24.4745 25.365 28.0735 22.4935 32.3261 22.4935Z" fill="#E74133"/>
</g>
</g>
</svg>
