<svg xmlns="http://www.w3.org/2000/svg" width="200" height="165" viewBox="0 0 200 165">
  <g id="그룹_37426" data-name="그룹 37426" transform="translate(-3842.799 -1803.995)">
    <path id="패스_7718" data-name="패스 7718" d="M160.681,9.194c-2.174-.248,40.715,5.458,37.886,17.9s-40.5,27.945-87.957,42.569S0,100.668,0,100.668s164.6-37.222,195.3-66.15C195.3,34.518,218.809,15.849,160.681,9.194Z" transform="translate(3842.799 1799.806)" fill="#fff"/>
    <circle id="타원_81" data-name="타원 81" cx="3.846" cy="3.846" r="3.846" transform="translate(3970.588 1803.995)" fill="#fff"/>
    <path id="패스_7719" data-name="패스 7719" d="M136.818,121.692c-6.114-4.475-5.678-21.941-5.678-21.941L130.047,60.89l-1.093,38.861s.436,17.466-5.678,21.941-8.079,4.04-23.8,4.911c15.717.872,17.681.436,23.8,4.911s5.678,21.941,5.678,21.941l1.093,38.861,1.093-38.861s-.436-17.466,5.678-21.941,8.079-4.04,23.8-4.911C144.9,125.726,142.932,126.168,136.818,121.692Z" transform="translate(3798.003 1776.677)" fill="#fff"/>
    <path id="패스_7720" data-name="패스 7720" d="M229.9,126.226c-3.146-2.307-2.925-11.3-2.925-11.3l-.563-20.01-.563,20.01s.226,9-2.925,11.3-4.161,2.08-12.251,2.527c8.1.447,9.105.226,12.251,2.527s2.925,11.3,2.925,11.3l.563,20.01.563-20.01s-.226-9,2.925-11.3,4.161-2.08,12.251-2.527C234.052,128.307,233.042,128.527,229.9,126.226Z" transform="translate(3748.013 1761.407)" fill="#fff"/>
  </g>
</svg>
