<svg xmlns="http://www.w3.org/2000/svg" viewBox="0 0 119.39 122.15"><defs><style>.cls-1{fill:#fff;}</style></defs><g id="레이어_2" data-name="레이어 2"><g id="레이어_1-2" data-name="레이어 1"><path class="cls-1" d="M118.61.42a2,2,0,0,0-2.18-.17L1,63.49a2,2,0,0,0,.3,3.64l30.38,10.7-1,33.85A2,2,0,0,0,32,113.59a2,2,0,0,0,2.22-.49c.16-.17,14.36-15.58,22.68-25.47L86.4,121.46a2,2,0,0,0,1.51.69,2,2,0,0,0,.47-.06,2,2,0,0,0,1.47-1.46L119.33,2.49A2,2,0,0,0,118.61.42ZM86.89,116,59.43,84.51l-1.11-1.28a2,2,0,0,0-.84-.57l-1.33-.46-.88,1.08-1.84,2.2c-5.67,6.71-13.88,15.8-18.56,20.94l.81-27.2,0-1.79,2.16-1.67h0L90.34,35.1c-7.7,11.56-21.12,31.08-34.19,47.1l1.33.46a2,2,0,0,1,.84.57l1.11,1.28C79.38,60,100,27.6,100.24,27.27a2,2,0,0,0-2.92-2.65L33.4,74.18,6.89,64.84,114.35,6Z"/></g></g></svg>