<svg xmlns="http://www.w3.org/2000/svg" viewBox="0 0 41.92 41.92"><g id="레이어_2" data-name="레이어 2"><g id="레이어_1-2" data-name="레이어 1"><path d="M21,0A21,21,0,0,0,0,21a1.79,1.79,0,0,0,3.57,0,17.38,17.38,0,1,1,2.51,9A1.78,1.78,0,0,0,3,31.82,21,21,0,1,0,21,0Z"/><path d="M16.91,29.35a1.75,1.75,0,0,0,.89-.24L29.25,22.5A1.76,1.76,0,0,0,30.14,21a1.79,1.79,0,0,0-.89-1.55L17.8,12.8a1.82,1.82,0,0,0-1.78,0,1.79,1.79,0,0,0-.89,1.55V27.57a1.78,1.78,0,0,0,1.78,1.78Zm1.78-11.91L24.79,21l-6.1,3.52Z"/></g></g></svg>