<?xml version="1.0" encoding="UTF-8"?>
<svg id="_레이어_2" data-name="레이어 2" xmlns="http://www.w3.org/2000/svg" viewBox="0 0 2520.26 2376.66">
  <defs>
    <style>
      .cls-1 {
        fill: #fff;
      }
    </style>
  </defs>
  <g id="_레이어_1-2" data-name="레이어 1">
    <g>
      <path class="cls-1" d="M1253.25,0C739.54,0,321.6,417.93,321.6,931.65s417.93,931.65,931.65,931.65,931.65-417.93,931.65-931.65S1766.96,0,1253.25,0Zm238.14,85.38c24.69,1.82,45.74,8.32,69.13,16.63,31.93,11.35,55.63,22.57,70.16,30.37,55.74,32.34,206.98,130.84,302.42,296.03,189.19,327.45,109.85,565.88-9.71,503.24-119.56-62.64-81.71-135.21-134.1-295.21-49.24-150.39-131.87-290.56-247.73-399.24-68.46-64.21-162.84-160.12-50.18-151.82Zm-238.14,96.84c12.07,0,23.15,.68,23.15,.68,258.33,13.96,432.06,258.74,491.8,492.13,10.79,42.14,16.42,88.98,9.03,132.14-18.1,105.62-120.75,130.05-214.49,124.48-52.03-3.09-104.48-3.19-156.55-3.21-43.25,0-86.52-.46-129.79-.93h-46.3c-43.27,.47-86.53,.93-129.79,.93-52.07,.03-104.52,.12-156.55,3.21-93.73,5.57-196.39-18.85-214.49-124.48-7.4-43.16-1.76-90,9.03-132.14,59.74-233.4,233.47-478.17,491.8-492.13,0,0,11.08-.68,23.15-.68Zm-679.85,246.2c95.44-165.19,246.68-263.69,302.42-296.03,14.53-7.81,38.23-19.02,70.16-30.37,23.39-8.32,44.44-14.81,69.13-16.63,112.66-8.3,18.28,87.61-50.18,151.82-115.86,108.67-198.49,248.85-247.73,399.24-52.39,160-14.54,232.57-134.1,295.21-119.56,62.64-198.9-175.79-9.71-503.24Zm-204.9,503.23c0-23.31,1.18-46.33,2.95-69.19-.2,7.18-.36,14.33-.23,21.26,3.34,177.76,205.89,111.08,156.52,170.34-52.02,62.43-96.1,172.22-101.68,191.6-37.08-97.61-57.55-203.4-57.55-314.01Zm722.17,838.35c-24.43,5.66-50.64,6.99-75.48,5.15-42.43-3.14-121.59-35.17-121.59-35.17-214.1-95.41-383.26-273.25-467.15-493.32,7.21-14.09,37.52-46.51,64.13-70.81,34.96-31.93,109.92-59.54,141.12-21.31,37.38,45.81,58.21,110.71,94.24,168.72,81.61,131.42,151.38,200.19,264.49,294.15,38.94,32.35,83.7,63.58,115.49,103.47,18.9,23.71,15.74,41.94-15.23,49.12Zm-2.27-136.5c-118.28-65.47-235.01-167.63-298.81-289.13-32.24-61.4-53.85-128.38-64-196.97-6.49-43.84-12.44-107.48,22.33-142.09,25.68-25.56,78.19-30.17,111.64-35.99,64.37-11.2,129.66-17.36,194.77-22.3,66.35-5.03,132.64-7.39,198.92-7.74,66.29,.35,132.58,2.71,198.92,7.74,65.11,4.94,130.4,11.1,194.77,22.3,33.45,5.82,85.96,10.43,111.64,35.99,34.77,34.61,28.82,98.26,22.33,142.09-10.15,68.58-31.76,135.57-64,196.97-63.8,121.5-180.53,223.66-298.81,289.13-49.43,27.36-106.87,47.56-164.85,47.59-57.98-.03-115.42-20.23-164.85-47.59Zm524.51,106.48s-79.16,32.04-121.59,35.17c-24.84,1.84-51.06,.51-75.48-5.15-30.97-7.18-34.13-25.41-15.23-49.12,31.79-39.89,76.55-71.12,115.49-103.47,113.11-93.97,182.89-162.73,264.49-294.15,36.02-58.01,56.85-122.91,94.24-168.72,31.2-38.22,106.16-10.62,141.12,21.31,26.61,24.31,56.92,56.72,64.13,70.81-83.9,220.07-253.05,397.91-467.15,493.32Zm365.86-685.91c-49.38-59.25,153.18,7.42,156.52-170.34,.13-6.93-.04-14.09-.23-21.26,1.77,22.85,2.95,45.88,2.95,69.19,0,110.62-20.48,216.4-57.55,314.01-5.58-19.38-49.66-129.17-101.68-191.6Z"/>
      <g>
        <path class="cls-1" d="M180.54,2181.35c-7.88-12.25-19.09-21.61-33.65-28.06-14.56-6.45-32-9.68-52.36-9.68H0v229.77H42.67v-66.31h51.86c20.35,0,37.8-3.33,52.36-10.01,14.55-6.67,25.77-16.08,33.65-28.23,7.88-12.14,11.82-26.64,11.82-43.49s-3.94-31.73-11.82-43.99Zm-45.46,77.63c-9.52,7.99-23.69,11.98-42.51,11.98H42.67v-91.25h49.89c18.82,0,32.99,4,42.51,11.98,9.52,7.99,14.28,19.2,14.28,33.65s-4.76,25.66-14.28,33.65Z"/>
        <path class="cls-1" d="M294.44,2143.6l-103.4,229.77h43.66l22.84-53.18h114.92l22.75,53.18h44.97l-103.73-229.77h-42.02Zm-22.52,143.12l43.19-100.56,43.03,100.56h-86.22Z"/>
        <path class="cls-1" d="M616.28,2153.29c-14.56-6.45-32-9.68-52.36-9.68h-94.53v229.77h42.67v-66.31h51.86c20.35,0,37.8-3.33,52.36-10.01,14.55-6.67,25.77-16.08,33.65-28.23,7.88-12.14,11.82-26.64,11.82-43.49s-3.94-31.73-11.82-43.99c-7.88-12.25-19.09-21.61-33.65-28.06Zm-11.82,105.7c-9.52,7.99-23.69,11.98-42.51,11.98h-49.89v-91.25h49.89c18.82,0,32.99,4,42.51,11.98,9.52,7.99,14.28,19.2,14.28,33.65s-4.76,25.66-14.28,33.65Z"/>
        <polygon class="cls-1" points="920.4 2143.6 830.71 2295.86 739.54 2143.6 704.41 2143.6 704.41 2373.37 745.12 2373.37 745.12 2223.16 820.61 2347.44 839.98 2347.44 915.15 2220.78 915.15 2373.37 956.18 2373.37 955.52 2143.6 920.4 2143.6"/>
        <path class="cls-1" d="M1088.79,2143.6l-103.4,229.77h43.66l22.84-53.18h114.92l22.75,53.18h44.97l-103.73-229.77h-42.02Zm-22.52,143.12l43.19-100.56,43.03,100.56h-86.21Z"/>
        <path class="cls-1" d="M1310.35,2200.39c7.44-7.22,16.25-12.8,26.42-16.74,10.18-3.94,21.39-5.91,33.65-5.91s23.91,2.13,34.3,6.4c10.39,4.27,20.07,10.89,29.05,19.86l26.92-26.26c-10.72-12.25-23.91-21.55-39.55-27.9-15.65-6.34-33.1-9.52-52.36-9.52s-35.07,2.9-50.06,8.7c-14.99,5.8-28.12,14.06-39.39,24.78-11.27,10.72-19.97,23.2-26.1,37.42-6.13,14.23-9.19,29.98-9.19,47.27s3.06,33.04,9.19,47.27c6.12,14.23,14.77,26.7,25.93,37.42,11.16,10.72,24.23,18.99,39.23,24.78,14.99,5.8,31.46,8.7,49.4,8.7,16.41,0,32.5-2.46,48.25-7.39,15.76-4.92,29.54-12.2,41.36-21.83v-91.25h-40.05v71.11c-4.66,2.69-9.42,4.87-14.28,6.52-10.62,3.61-21.61,5.42-32.99,5.42-12.26,0-23.42-1.97-33.48-5.91-10.07-3.94-18.82-9.52-26.26-16.74-7.44-7.22-13.24-15.81-17.4-25.77-4.16-9.96-6.24-20.73-6.24-32.33s2.08-22.65,6.24-32.5c4.15-9.85,9.96-18.38,17.4-25.6Z"/>
        <path class="cls-1" d="M1584.76,2143.6l-103.4,229.77h43.66l22.84-53.18h114.92l22.75,53.18h44.97l-103.73-229.77h-42.02Zm-22.52,143.12l43.19-100.56,43.03,100.56h-86.21Z"/>
        <polygon class="cls-1" points="1934.01 2172.16 1934.01 2143.6 1744.62 2143.6 1744.62 2179.71 1877.52 2179.71 1742.32 2344.82 1742.32 2373.37 1938.61 2373.37 1938.61 2337.27 1798.82 2337.27 1934.01 2172.16"/>
        <rect class="cls-1" x="1977.34" y="2143.6" width="42.67" height="229.77"/>
        <polygon class="cls-1" points="2243.87 2299.46 2117.17 2143.6 2082.05 2143.6 2082.05 2373.37 2124.39 2373.37 2124.39 2217.57 2250.77 2373.37 2285.89 2373.37 2285.89 2143.6 2243.87 2143.6 2243.87 2299.46"/>
        <polygon class="cls-1" points="2390.6 2337.27 2390.6 2274.24 2501.55 2274.24 2501.55 2239.12 2390.6 2239.12 2390.6 2179.71 2515.66 2179.71 2515.66 2143.6 2347.93 2143.6 2347.93 2373.37 2520.26 2373.37 2520.26 2337.27 2390.6 2337.27"/>
      </g>
    </g>
  </g>
</svg>