<svg xmlns="http://www.w3.org/2000/svg" xmlns:xlink="http://www.w3.org/1999/xlink" width="148" height="44" viewBox="0 0 148 44">
  <defs>
    <clipPath id="clip-path">
      <rect id="롯데_맛진_로고1" width="148" height="44" transform="translate(1651 -3687)" fill="#fff"/>
    </clipPath>
  </defs>
  <g id="마스크_그룹_3" data-name="마스크 그룹 3" transform="translate(-1651 3687)" clip-path="url(#clip-path)">
    <g id="맛진로고_가로형" transform="translate(1651 -3680.877)">
      <g id="그룹_37427" data-name="그룹 37427">
        <path id="패스_7739" data-name="패스 7739" d="M88.419.809h6.363v.853H92.11v4.72h-.94V1.661H88.419Z" fill="#fff"/>
        <path id="패스_7740" data-name="패스 7740" d="M101.145,6.3H100.1l-.967-1.679H95.643L94.676,6.3H93.63L96.768.809H97.99ZM96.127,3.771h2.522L97.392,1.564Z" fill="#fff"/>
        <path id="패스_7741" data-name="패스 7741" d="M105.83,2.5A1.675,1.675,0,0,1,107.6,4.4a1.671,1.671,0,0,1-1.767,1.9h-4.439V5.458h4.377c.571,0,.914-.369.914-1.055s-.343-1.055-.914-1.055H102.49a1.193,1.193,0,0,1-1.257-1.266A1.2,1.2,0,0,1,102.49.809h4.781v.853h-4.623c-.334,0-.5.123-.5.422s.167.413.5.413h3.182Z" fill="#fff"/>
        <path id="패스_7742" data-name="패스 7742" d="M108,.809h6.363v.853h-2.672v4.72h-.94V1.661H108Z" fill="#fff"/>
        <path id="패스_7743" data-name="패스 7743" d="M118.381,6.381h-.94V4.219l-3-3.41h1.239l2.224,2.54L120.13.809h1.239l-3.006,3.41V6.381Z" fill="#fff"/>
      </g>
      <g id="그룹_37428" data-name="그룹 37428">
        <path id="패스_7744" data-name="패스 7744" d="M140.485,6.337a8.387,8.387,0,0,1-2.4.9l-.325-.545a7.8,7.8,0,0,0,2.224-.747Zm-2.276-.422V2.18h.659v3.2h5.458v.536ZM144.124.853c-.053.387-.141.615-.352.747a1.681,1.681,0,0,1-.826.22c-.624.026-1.626.035-2.435.035a6.934,6.934,0,0,1-1.1-.062c-.439-.079-.65-.246-.65-.563V.009h.659V.5a19.312,19.312,0,0,0,3.419-.5l.387.475a29.642,29.642,0,0,1-3.8.475v.114c0,.211.308.264.9.3.237.009.65.018.905.018,1.415,0,1.837-.062,2.048-.2.132-.088.158-.22.211-.519ZM139.475,5V2.224h4.166V4.992h-4.166Zm.668-1.96h2.839v-.36h-2.839Zm0,.747h2.839V3.41h-2.839Zm0,.765h2.839v-.4h-2.839Zm3.9,2.637a9.526,9.526,0,0,1-2.285-.853l.448-.4a9.162,9.162,0,0,0,2.2.686Z" fill="#fff"/>
      </g>
      <g id="그룹_37429" data-name="그룹 37429">
        <path id="패스_7745" data-name="패스 7745" d="M0,1.529H28.512V14.5H0ZM0,26.991c9.923,0,17.42-1.257,17.42-7.989V16.26h5.027V19c0,6.732,7.5,7.989,17.42,7.989v4.764c-8.666,0-16.752-.809-19.934-5.748C16.708,30.938,8.622,31.746,0,31.746ZM5.256,9.835H23.265V6.2H5.256ZM32.6,1.081h5.256V5.124h4.4V9.888h-4.4v4.623H32.6Z" fill="#fff"/>
        <path id="패스_7746" data-name="패스 7746" d="M42.706,26.631l20.25-11.584H44.051V10.371H71.9v4.667L51.636,26.631h20.7V31.3H42.706Z" fill="#fff"/>
        <path id="패스_7747" data-name="패스 7747" d="M76.386,6.2V1.081h5.168V6.2Zm5.159,3.147V31.3H76.377V9.343Z" fill="#fff"/>
        <path id="패스_7748" data-name="패스 7748" d="M90.748,18.457V31.3H85.58V10.371h4.535l.316,1.934a6.212,6.212,0,0,1,4.623-1.934h11.769c6.24,0,8.394,3.19,8.394,8.042V31.3h-5.168V18.589c0-2.153-.94-3.551-3.727-3.551H95.362C92.637,15.047,90.844,16.392,90.748,18.457Z" fill="#fff"/>
        <path id="패스_7749" data-name="패스 7749" d="M147.552,31.3H126.765c-6.24,0-8.394-3.19-8.394-8.033V18.413c0-4.852,2.153-8.042,8.394-8.042h12.841c6.24,0,8.394,3.19,8.394,8.042v4.764H123.531v.36c0,2.153.984,3.1,3.507,3.1h20.523V31.3ZM123.531,18.73h19.31v-.58c0-2.153-.984-3.1-3.507-3.1h-12.3c-2.514,0-3.507.94-3.507,3.1v.58Z" fill="#fff"/>
      </g>
    </g>
  </g>
</svg>
