<?xml version="1.0" encoding="UTF-8"?>
<svg id="Layer_1" data-name="Layer 1" xmlns="http://www.w3.org/2000/svg" viewBox="0 0 24 24">
  <defs>
    <style>
      .cls-1 {
        fill: #bbb;
        fill-rule: evenodd;
        stroke-width: 0px;
      }
    </style>
  </defs>
  <path class="cls-1" d="m20,11c0-2.81,0-4.21-.67-5.22-.29-.44-.67-.81-1.1-1.1-1.01-.67-2.41-.67-5.22-.67h-2c-2.81,0-4.21,0-5.22.67-.44.29-.81.67-1.1,1.1-.67,1.01-.67,2.41-.67,5.22s0,4.21.67,5.22c.29.44.67.81,1.1,1.1.88.59,2.06.66,4.22.67h0s1.11,2.21,1.11,2.21c.37.74,1.42.74,1.79,0l1.11-2.21h0c2.16-.01,3.34-.09,4.22-.67.44-.29.81-.67,1.1-1.1.67-1.01.67-2.41.67-5.22Zm-4,1c.55,0,1-.45,1-1s-.45-1-1-1-1,.45-1,1,.45,1,1,1Zm-3-1c0,.55-.45,1-1,1s-1-.45-1-1,.45-1,1-1,1,.45,1,1Zm-5,1c.55,0,1-.45,1-1s-.45-1-1-1-1,.45-1,1,.45,1,1,1Z"/>
</svg>