<svg width="24" height="24" viewBox="0 0 24 24" fill="none" xmlns="http://www.w3.org/2000/svg">
<path d="M10.1443 6.62753C10.931 4.66653 11.3243 3.68604 12.0006 3.68604C12.6769 3.68604 13.0702 4.66653 13.8568 6.62753L13.8934 6.71885C14.3378 7.82672 14.56 8.38065 15.0129 8.71734C15.4657 9.05403 16.0602 9.10727 17.2491 9.21374L17.464 9.23299C19.4099 9.40726 20.3828 9.49439 20.5909 10.1134C20.7991 10.7324 20.0766 11.3897 18.6316 12.7044L18.1493 13.1432C17.4178 13.8087 17.052 14.1414 16.8815 14.5776C16.8497 14.6589 16.8233 14.7423 16.8024 14.8271C16.6903 15.2817 16.7975 15.7645 17.0117 16.7299L17.0783 17.0305C17.472 18.8048 17.6688 19.692 17.3252 20.0746C17.1967 20.2176 17.0298 20.3206 16.8444 20.3712C16.3482 20.5066 15.6437 19.9325 14.2348 18.7844C13.3096 18.0305 12.847 17.6536 12.3159 17.5688C12.107 17.5354 11.8941 17.5354 11.6852 17.5688C11.1541 17.6536 10.6915 18.0305 9.76638 18.7844C8.35742 19.9325 7.65295 20.5066 7.15675 20.3712C6.97133 20.3206 6.80442 20.2176 6.676 20.0746C6.33232 19.692 6.52915 18.8048 6.92283 17.0305L6.9895 16.7299C7.20371 15.7645 7.31082 15.2817 7.19876 14.8271C7.17786 14.7423 7.15142 14.6589 7.11962 14.5776C6.94915 14.1414 6.5834 13.8087 5.85189 13.1432L5.36961 12.7044C3.92456 11.3897 3.20204 10.7324 3.41022 10.1134C3.6184 9.49439 4.59131 9.40726 6.53712 9.23299L6.75206 9.21374C7.94097 9.10727 8.53543 9.05403 8.98828 8.71734C9.44113 8.38065 9.66333 7.82672 10.1077 6.71885L10.1443 6.62753Z" fill="#EAEAEA"/>
</svg>
