<svg width="20" height="20" viewBox="0 0 20 20" fill="none" xmlns="http://www.w3.org/2000/svg">
<path d="M19.4388 8.5565L18.8827 7.957C18.4545 7.49489 18.2545 6.85792 18.3425 6.22095L18.4545 5.39664C18.6066 4.28506 17.8824 3.25259 16.822 3.06108L16.0338 2.91537C15.4256 2.80297 14.9055 2.40746 14.6134 1.84127L14.2373 1.10438C13.7331 0.11354 12.5648 -0.281964 11.5965 0.213456L10.8763 0.579818C10.3241 0.862915 9.6759 0.862915 9.12374 0.579818L8.40352 0.213456C7.43523 -0.277801 6.26688 0.117703 5.76273 1.10438L5.38662 1.84127C5.09853 2.40746 4.57437 2.80297 3.96619 2.91537L3.17795 3.06108C2.11764 3.25675 1.39342 4.28923 1.54546 5.39664L1.6575 6.22095C1.74552 6.85376 1.54546 7.49489 1.11734 7.957L0.561168 8.5565C-0.187056 9.36 -0.187056 10.6381 0.561168 11.4458L1.11734 12.0453C1.54546 12.5074 1.74552 13.1443 1.6575 13.7813L1.54546 14.6056C1.39342 15.7172 2.11764 16.7497 3.17795 16.9412L3.96619 17.0869C4.57437 17.1993 5.09453 17.5948 5.38662 18.161L5.76273 18.8979C6.26688 19.8887 7.43523 20.2842 8.40352 19.7888L9.12374 19.4224C9.6759 19.1394 10.3241 19.1394 10.8763 19.4224L11.5965 19.7888C12.5648 20.2801 13.7331 19.8846 14.2373 18.8979L14.6134 18.161C14.9015 17.5948 15.4256 17.1993 16.0338 17.0869L16.822 16.9412C17.8824 16.7455 18.6066 15.713 18.4545 14.6056L18.3425 13.7813C18.2545 13.1485 18.4545 12.5074 18.8827 12.0453L19.4388 11.4458C20.1871 10.6423 20.1871 9.36416 19.4388 8.5565ZM15.8177 10.967H14.3413L13.5491 13.5357H11.0923L9.996 9.75967L8.83965 13.5357H6.38292L5.59068 10.967H4.17025V9.01029H4.9865L4.20626 6.46658H6.56297L7.74732 10.4841L8.9997 6.46658H11.1043L12.2887 10.5382L13.5411 6.46658H15.7137L14.9335 9.01029H15.8097V10.967H15.8177Z" fill="#333333"/>
</svg>
