<svg width="12" height="13" viewBox="0 0 12 13" fill="none" xmlns="http://www.w3.org/2000/svg">
<g id="Group 9651">
<path id="Vector" d="M6 12.83C9.31371 12.83 12 10.1437 12 6.83002C12 3.51631 9.31371 0.830017 6 0.830017C2.68629 0.830017 0 3.51631 0 6.83002C0 10.1437 2.68629 12.83 6 12.83Z" fill="white"/>
<g id="Group">
<path id="Vector_2" d="M3.40002 11.39C3.40002 11.39 3.28002 11.32 3.23002 11.29C3.11002 11.21 2.99002 11.12 2.88002 11.02C2.56002 10.72 2.37002 10.31 2.36002 9.87003C2.34002 9.03003 3.07002 8.36003 3.72002 7.95003C4.18002 7.66003 4.70002 7.46003 5.24002 7.34003H6.74002C7.27002 7.46003 7.79002 7.66003 8.26002 7.95003C8.91002 8.36003 9.64002 9.03003 9.62002 9.87003C9.61002 10.31 9.42002 10.72 9.10002 11.02C8.99002 11.12 8.88002 11.21 8.75002 11.29C8.71002 11.32 8.61002 11.35 8.58002 11.39H3.40002Z" fill="white"/>
<path id="Vector_3" d="M8.65003 11.49H8.60003H3.36003L3.33003 11.45C3.33003 11.45 3.28003 11.42 3.26003 11.41C3.23003 11.4 3.21003 11.39 3.19003 11.38C3.06003 11.3 2.94003 11.2 2.83003 11.1C2.49003 10.77 2.29003 10.34 2.28003 9.88C2.25003 8.92 3.15003 8.21 3.69003 7.87C4.14003 7.59 4.66003 7.38 5.24003 7.25H6.76003C7.36003 7.38 7.88003 7.59 8.33003 7.87C8.87003 8.21 9.76003 8.92 9.74003 9.88C9.73003 10.34 9.53003 10.77 9.19003 11.1C9.09003 11.2 8.97003 11.29 8.83003 11.38C8.81003 11.39 8.79003 11.4 8.76003 11.41C8.74003 11.42 8.70003 11.44 8.69003 11.45L8.66003 11.49H8.65003ZM3.45003 11.29H8.56003C8.56003 11.29 8.63003 11.25 8.67003 11.23C8.69003 11.23 8.70003 11.22 8.71003 11.21C8.84003 11.13 8.95003 11.04 9.04003 10.96C9.34003 10.67 9.52003 10.28 9.53003 9.88C9.55003 9.02 8.72003 8.36 8.22003 8.05C7.79003 7.78 7.29003 7.58 6.73003 7.45H5.25003C4.71003 7.57 4.21003 7.77 3.78003 8.05C3.28003 8.36 2.44003 9.02 2.47003 9.88C2.48003 10.29 2.65003 10.67 2.96003 10.96C3.06003 11.06 3.17003 11.14 3.29003 11.22C3.30003 11.22 3.32003 11.23 3.34003 11.24C3.38003 11.26 3.42003 11.28 3.45003 11.3V11.29Z" fill="#333333"/>
</g>
<path id="Vector_4" d="M8.24007 9.94C8.18007 10.14 8.18007 10.36 8.24007 10.57V9.94Z" fill="white"/>
<path id="Vector_5" d="M8.23997 10.67C8.23997 10.67 8.15997 10.64 8.13997 10.6C8.07997 10.37 8.07997 10.13 8.13997 9.92C8.15997 9.87 8.20997 9.84 8.25997 9.85C8.30997 9.87 8.33997 9.92 8.32997 9.97C8.27997 10.15 8.27997 10.36 8.32997 10.55C8.33997 10.6 8.30997 10.66 8.25997 10.67C8.25997 10.67 8.23997 10.67 8.22997 10.67H8.23997Z" fill="#333333"/>
<path id="Vector_6" d="M3.72998 9.94C3.78998 10.14 3.78998 10.36 3.72998 10.57V9.94Z" fill="white"/>
<path id="Vector_7" d="M3.73002 10.67C3.73002 10.67 3.71002 10.67 3.70002 10.67C3.65002 10.66 3.62002 10.6 3.63002 10.55C3.68002 10.36 3.68002 10.15 3.63002 9.97C3.61002 9.92 3.65002 9.86 3.70002 9.85C3.75002 9.84 3.81002 9.87 3.82002 9.92C3.88002 10.14 3.88002 10.38 3.82002 10.6C3.81002 10.64 3.77002 10.67 3.72002 10.67H3.73002Z" fill="#333333"/>
<path id="Vector_8" d="M6 2.49001C8.39 2.49001 10.33 4.43001 10.33 6.82001C10.33 9.21001 8.39 11.15 6 11.15C3.61 11.15 1.67 9.22001 1.67 6.83001C1.67 4.44001 3.61 2.49001 6 2.49001ZM6 0.820007C2.69 0.830007 0 3.51001 0 6.83001C0 10.15 2.69 12.83 6 12.83C9.31 12.83 12 10.14 12 6.83001C12 3.52001 9.31 0.830007 6 0.830007V0.820007Z" fill="#979636"/>
<g id="Group_2">
<path id="Vector_9" d="M5.97998 2.41999C5.97998 2.41999 6.10998 0.409989 6.56998 0.239989C7.02998 0.0699891 7.34998 0.819989 6.68998 1.04999C6.73998 1.02999 6.85998 1.14999 6.88998 1.17999C7.14998 1.47999 6.86998 1.75999 6.55998 1.79999C6.55998 1.79999 6.69998 2.32999 5.97998 2.41999Z" fill="#E31937"/>
<path id="Vector_10" d="M5.97988 2.51999C5.97988 2.51999 5.92988 2.51999 5.90988 2.48999C5.88988 2.46999 5.87988 2.43999 5.87988 2.40999C5.89988 2.05999 6.03988 0.329991 6.52988 0.139991C6.68988 0.0799909 6.85988 0.0999909 6.97988 0.209991C7.11988 0.319991 7.17988 0.509991 7.14988 0.689991C7.12988 0.779991 7.07988 0.939991 6.89988 1.04999C6.92988 1.07999 6.94988 1.09999 6.95988 1.10999C7.07988 1.24999 7.11988 1.39999 7.05988 1.54999C6.99988 1.69999 6.84988 1.82999 6.65988 1.87999C6.65988 1.96999 6.65988 2.09999 6.56988 2.21999C6.45988 2.37999 6.25988 2.47999 5.98988 2.51999C5.98988 2.51999 5.98988 2.51999 5.97988 2.51999ZM6.70988 0.309991C6.70988 0.309991 6.63988 0.309991 6.60988 0.329991C6.34988 0.429991 6.15988 1.49999 6.08988 2.29999C6.23988 2.25999 6.34988 2.19999 6.40988 2.10999C6.49988 1.97999 6.45988 1.82999 6.45988 1.82999C6.45988 1.79999 6.45988 1.76999 6.46988 1.74999C6.47988 1.72999 6.50988 1.70999 6.53988 1.70999C6.69988 1.68999 6.83988 1.58999 6.87988 1.48999C6.90988 1.41999 6.87988 1.33999 6.80988 1.24999C6.78988 1.21999 6.71988 1.16999 6.69988 1.14999C6.66988 1.14999 6.61988 1.12999 6.59988 1.07999C6.57988 1.02999 6.59988 0.969991 6.65988 0.949991C6.82988 0.889991 6.93988 0.779991 6.95988 0.649991C6.97988 0.539991 6.93988 0.429991 6.85988 0.359991C6.80988 0.319991 6.75988 0.299991 6.70988 0.299991V0.309991Z" fill="#333333"/>
</g>
<path id="Vector_11" d="M3.44008 8.40999C2.73008 8.05999 2.29008 7.28999 2.18008 6.33999C1.98008 4.55999 2.99008 2.61999 4.76008 2.07999C5.20008 1.94999 5.72008 1.89999 6.17008 1.90999C7.92008 1.95999 9.34008 3.20999 9.73008 4.87999C9.94008 5.77999 9.85008 6.98999 9.32008 7.77999C9.13008 8.05999 8.83008 8.38999 8.50008 8.49999" fill="white"/>
<path id="Vector_12" d="M8.49998 8.58999C8.49998 8.58999 8.41998 8.55999 8.40998 8.51999C8.38998 8.46999 8.40998 8.40999 8.46998 8.38999C8.76998 8.28999 9.05998 7.96999 9.23998 7.70999C9.77998 6.90999 9.82998 5.70999 9.63998 4.87999C9.25998 3.21999 7.82998 2.03999 6.17998 1.98999C5.69998 1.97999 5.18998 2.03999 4.79998 2.15999C2.99998 2.70999 2.11998 4.69999 2.28998 6.31999C2.38998 7.25999 2.82998 7.98999 3.48998 8.31999C3.53998 8.33999 3.55998 8.39999 3.53998 8.44999C3.50998 8.49999 3.44998 8.51999 3.40998 8.49999C2.68998 8.13999 2.20998 7.35999 2.08998 6.34999C1.89998 4.65999 2.83998 2.55999 4.73998 1.97999C5.15998 1.84999 5.66998 1.79999 6.17998 1.79999C7.92998 1.84999 9.42998 3.09999 9.82998 4.84999C10.03 5.71999 9.97998 6.97999 9.39998 7.82999C9.30998 7.96999 8.96998 8.43999 8.52998 8.58999C8.51998 8.58999 8.50998 8.58999 8.49998 8.58999Z" fill="#333333"/>
<path id="Vector_13" d="M6.6499 4.94001C6.6499 4.87001 6.5799 4.82001 6.5199 4.82001C6.4499 4.82001 6.3999 4.89001 6.3999 4.95001C6.3999 5.02001 6.4699 5.07001 6.5299 5.06001C6.5999 5.06001 6.6499 4.99001 6.6399 4.93001L6.6499 4.94001Z" fill="#333333"/>
<path id="Vector_14" d="M5.53009 4.90998C5.53009 4.83998 5.46009 4.78998 5.40009 4.78998C5.33009 4.78998 5.28009 4.85998 5.29009 4.91998C5.29009 4.98998 5.36009 5.03998 5.42009 5.02998C5.49009 5.02998 5.54009 4.95998 5.54009 4.89998L5.53009 4.90998Z" fill="#333333"/>
<path id="Vector_15" d="M7.20997 5.55C7.19997 5.39 7.05997 5.27 6.88997 5.28C6.72997 5.29 6.60997 5.43 6.61997 5.6C6.62997 5.76 6.76997 5.88 6.93997 5.87C7.09997 5.86 7.21997 5.72 7.20997 5.55Z" fill="#FFBEBE"/>
<path id="Vector_16" d="M5.26002 5.50001C5.25002 5.34001 5.11002 5.22001 4.94002 5.23001C4.78002 5.24001 4.66002 5.38001 4.67002 5.55001C4.68002 5.71001 4.82002 5.83001 4.99002 5.82001C5.15002 5.81001 5.27002 5.67001 5.26002 5.50001Z" fill="#FFBEBE"/>
<g id="Group_3">
<path id="Vector_17" d="M5.93007 6.17998L5.75007 5.82998L5.57007 5.47998H5.95007L6.33007 5.49998L6.13007 5.83998L5.93007 6.17998Z" fill="#E31937"/>
<path id="Vector_18" d="M5.94009 6.28C5.94009 6.28 5.87009 6.26 5.85009 6.23L5.49009 5.53C5.49009 5.53 5.47009 5.46 5.49009 5.43C5.51009 5.4 5.55009 5.39 5.58009 5.38L6.34009 5.4C6.34009 5.4 6.41009 5.42 6.42009 5.45C6.44009 5.48 6.44009 5.52 6.42009 5.55L6.02009 6.23C6.02009 6.23 5.97009 6.28 5.93009 6.28H5.94009ZM5.74009 5.59L5.94009 5.98L6.16009 5.6H5.74009V5.59Z" fill="#333333"/>
</g>
<path id="Vector_19" d="M8.6001 10.04C8.6901 10.13 8.7001 10.17 8.7601 10.29C8.8701 10.5 8.8501 10.57 9.0201 10.72C9.1801 10.86 9.5701 10.8 9.7501 10.72C9.7501 10.72 10.2501 10.49 10.4701 10.14C10.5601 9.99997 10.5801 9.76997 10.5501 9.61997C10.4601 9.10997 10.0801 8.84997 9.5701 8.86997C9.2801 8.88997 8.8901 9.05997 8.6801 9.24997" fill="white"/>
<path id="Vector_20" d="M9.32 10.9C9.18 10.9 9.04 10.87 8.95 10.79C8.82 10.67 8.78 10.59 8.74 10.49C8.72 10.45 8.7 10.4 8.67 10.33L8.64 10.27C8.61 10.2 8.59 10.17 8.53 10.11C8.49 10.07 8.49 10.01 8.53 9.97C8.57 9.93 8.63 9.93 8.67 9.97C8.75 10.05 8.78 10.11 8.81 10.18L8.84 10.24C8.88 10.31 8.9 10.37 8.92 10.41C8.96 10.5 8.98 10.55 9.08 10.64C9.19 10.74 9.54 10.7 9.7 10.63C9.7 10.63 10.17 10.41 10.38 10.09C10.46 9.97 10.47 9.77 10.45 9.64C10.37 9.2 10.03 8.95 9.57 8.97C9.31 8.98 8.95 9.14 8.74 9.33C8.7 9.37 8.63 9.36 8.6 9.33C8.56 9.29 8.57 9.23 8.6 9.19C8.84 8.98 9.25 8.8 9.55 8.78C10.11 8.74 10.54 9.07 10.64 9.61C10.67 9.78 10.65 10.03 10.54 10.21C10.3 10.58 9.8 10.82 9.78 10.83C9.68 10.88 9.49 10.92 9.32 10.92V10.9Z" fill="#333333"/>
<path id="Vector_21" d="M8.66999 9.25C8.46999 9.43 8.37999 9.54 8.23999 9.94L8.66999 9.25Z" fill="white"/>
<path id="Vector_22" d="M8.24006 10.04C8.24006 10.04 8.22006 10.04 8.21006 10.04C8.16006 10.02 8.13006 9.96001 8.15006 9.91001C8.29006 9.49001 8.40006 9.37001 8.61006 9.18001C8.65006 9.14001 8.71006 9.15001 8.75006 9.18001C8.79006 9.22001 8.78006 9.28001 8.75006 9.32001C8.56006 9.49001 8.48006 9.59001 8.35006 9.97001C8.34006 10.01 8.30006 10.04 8.26006 10.04H8.24006Z" fill="#333333"/>
<path id="Vector_23" d="M3.38 10.04C3.29 10.13 3.28 10.17 3.22 10.29C3.11 10.5 3.13 10.57 2.96 10.72C2.8 10.86 2.41 10.8 2.23 10.72C2.23 10.72 1.73 10.49 1.51 10.14C1.42 9.99997 1.4 9.76997 1.43 9.61997C1.52 9.10997 1.9 8.84997 2.41 8.86997C2.7 8.88997 3.09 9.05997 3.3 9.24997" fill="white"/>
<path id="Vector_24" d="M2.64996 10.9C2.47996 10.9 2.29996 10.86 2.18996 10.81C2.16996 10.81 1.66996 10.57 1.42996 10.19C1.31996 10.02 1.29996 9.75998 1.32996 9.58998C1.42996 9.04998 1.84996 8.71998 2.41996 8.75998C2.71996 8.77998 3.12996 8.94998 3.36996 9.16998C3.40996 9.20998 3.40996 9.26998 3.36996 9.30998C3.32996 9.34998 3.26996 9.34998 3.22996 9.30998C3.01996 9.11998 2.65996 8.96998 2.39996 8.94998C1.93996 8.92998 1.59996 9.16998 1.51996 9.60998C1.49996 9.73998 1.51996 9.93998 1.58996 10.06C1.79996 10.38 2.25996 10.6 2.26996 10.6C2.43996 10.68 2.77996 10.71 2.88996 10.61C2.98996 10.52 3.00996 10.47 3.04996 10.38C3.06996 10.33 3.08996 10.27 3.12996 10.2L3.15996 10.14C3.19996 10.07 3.21996 10.02 3.29996 9.92998C3.33996 9.88998 3.39996 9.88998 3.43996 9.92998C3.47996 9.96998 3.47996 10.03 3.43996 10.07C3.37996 10.13 3.35996 10.16 3.32996 10.23L3.29996 10.29C3.26996 10.35 3.24996 10.4 3.22996 10.45C3.18996 10.55 3.14996 10.63 3.01996 10.75C2.92996 10.83 2.78996 10.86 2.63996 10.86L2.64996 10.9Z" fill="#333333"/>
<path id="Vector_25" d="M3.30005 9.25C3.50005 9.43 3.59005 9.54 3.73005 9.94L3.30005 9.25Z" fill="white"/>
<path id="Vector_26" d="M3.72996 10.04C3.72996 10.04 3.64996 10.01 3.63996 9.96997C3.50996 9.58997 3.42996 9.48997 3.23996 9.31997C3.19996 9.27997 3.19996 9.21997 3.23996 9.17997C3.27996 9.13997 3.33996 9.12997 3.37996 9.17997C3.58996 9.36997 3.69996 9.48997 3.83996 9.90997C3.85996 9.95997 3.83996 10.02 3.77996 10.04C3.76996 10.04 3.75996 10.04 3.74996 10.04H3.72996Z" fill="#333333"/>
</g>
</svg>
