<svg width="12" height="13" viewBox="0 0 12 13" fill="none" xmlns="http://www.w3.org/2000/svg">
<g id="Group 9653">
<path id="Vector" d="M6 12.83C9.31371 12.83 12 10.1437 12 6.83002C12 3.51631 9.31371 0.830017 6 0.830017C2.68629 0.830017 0 3.51631 0 6.83002C0 10.1437 2.68629 12.83 6 12.83Z" fill="white"/>
<g id="Group">
<path id="Vector_2" d="M3.40002 11.22C3.40002 11.22 3.28002 11.15 3.23002 11.12C3.11002 11.04 2.99002 10.95 2.88002 10.85C2.56002 10.55 2.37002 10.14 2.36002 9.70004C2.34002 8.86004 3.07002 8.19004 3.72002 7.78004C4.18002 7.49004 4.70002 7.29004 5.24002 7.17004H6.74002C7.27002 7.29004 7.79002 7.49004 8.26002 7.78004C8.91002 8.19004 9.64002 8.86004 9.62002 9.70004C9.61002 10.14 9.42002 10.55 9.10002 10.85C8.99002 10.95 8.88002 11.04 8.75002 11.12C8.71002 11.15 8.61002 11.18 8.58002 11.22L5.98002 11.58L3.38002 11.22H3.40002Z" fill="white"/>
<path id="Vector_3" d="M6.00003 11.69L3.35003 11.32L3.33003 11.29C3.33003 11.29 3.28003 11.26 3.26003 11.25C3.23003 11.24 3.21003 11.23 3.19003 11.22C3.06003 11.14 2.94003 11.04 2.83003 10.94C2.49003 10.61 2.29003 10.18 2.28003 9.72003C2.25003 8.76003 3.15003 8.05003 3.69003 7.71003C4.14003 7.43003 4.66003 7.22003 5.24003 7.09003H6.76003C7.36003 7.22003 7.88003 7.43003 8.33003 7.71003C8.87003 8.05003 9.76003 8.76003 9.74003 9.72003C9.73003 10.18 9.53003 10.61 9.19003 10.94C9.09003 11.04 8.97003 11.13 8.83003 11.22C8.81003 11.23 8.79003 11.24 8.76003 11.25C8.74003 11.26 8.70003 11.28 8.69003 11.29L8.67003 11.32H8.63003L6.02003 11.69H6.00003ZM3.45003 11.13L6.00003 11.49L8.55003 11.13C8.55003 11.13 8.63003 11.08 8.67003 11.06C8.69003 11.06 8.70003 11.05 8.71003 11.04C8.84003 10.96 8.95003 10.87 9.04003 10.79C9.34003 10.5 9.52003 10.11 9.53003 9.71003C9.55003 8.85003 8.72003 8.19003 8.22003 7.88003C7.79003 7.61003 7.29003 7.41003 6.73003 7.28003H5.25003C4.71003 7.40003 4.21003 7.60003 3.78003 7.88003C3.28003 8.19003 2.44003 8.85003 2.47003 9.71003C2.48003 10.12 2.65003 10.5 2.96003 10.79C3.06003 10.88 3.17003 10.97 3.29003 11.04C3.30003 11.04 3.32003 11.05 3.34003 11.06C3.38003 11.08 3.42003 11.1 3.45003 11.13Z" fill="#231F20"/>
</g>
<path id="Vector_4" d="M6 2.49001C8.39 2.49001 10.33 4.43001 10.33 6.82001C10.33 9.21001 8.39 11.15 6 11.15C3.61 11.15 1.67 9.22001 1.67 6.83001C1.67 4.44001 3.61 2.49001 6 2.49001ZM6 0.820007C2.69 0.830007 0 3.51001 0 6.83001C0 10.15 2.69 12.83 6 12.83C9.31 12.83 12 10.14 12 6.83001C12 3.52001 9.31 0.830007 6 0.830007V0.820007Z" fill="#E31937"/>
<g id="Group_2">
<path id="Vector_5" d="M7.24999 2.61003C7.24999 2.61003 8.71999 1.46003 9.11999 1.67003C9.51999 1.88003 9.19999 2.57003 8.62999 2.26003C8.66999 2.28003 8.65999 2.44003 8.65999 2.48003C8.60999 2.84003 8.24999 2.82003 8.01999 2.64003C8.01999 2.64003 7.73999 3.06003 7.23999 2.62003L7.24999 2.61003Z" fill="#E31937"/>
<path id="Vector_6" d="M7.67999 2.91002C7.51999 2.91002 7.34999 2.83002 7.17999 2.68002C7.14999 2.65002 7.13999 2.61002 7.14999 2.57002C7.14999 2.55002 7.16999 2.53002 7.18999 2.52002C7.45999 2.31002 8.72999 1.35002 9.15999 1.58002C9.29999 1.65002 9.38999 1.79002 9.39999 1.94002C9.39999 2.11002 9.31999 2.27002 9.16999 2.36002C9.08999 2.41002 8.95999 2.46002 8.76999 2.41002C8.76999 2.43002 8.76999 2.46002 8.76999 2.47002C8.74999 2.64002 8.65999 2.76002 8.52999 2.82002C8.38999 2.87002 8.20999 2.85002 8.04999 2.75002C7.98999 2.81002 7.88999 2.88002 7.75999 2.89002C7.73999 2.89002 7.71999 2.89002 7.68999 2.89002L7.67999 2.91002ZM7.40999 2.61002C7.51999 2.69002 7.62999 2.72002 7.71999 2.71002C7.85999 2.69002 7.93999 2.58002 7.93999 2.58002C7.95999 2.56002 7.97999 2.54002 8.00999 2.54002C8.02999 2.54002 8.06999 2.54002 8.08999 2.56002C8.19999 2.65002 8.34999 2.69002 8.44999 2.65002C8.51999 2.62002 8.54999 2.56002 8.56999 2.46002C8.56999 2.42002 8.56999 2.35002 8.56999 2.33002C8.53999 2.30002 8.52999 2.25002 8.55999 2.21002C8.58999 2.16002 8.64999 2.14002 8.69999 2.17002C8.84999 2.25002 8.97999 2.26002 9.07999 2.20002C9.15999 2.15002 9.21999 2.05002 9.20999 1.96002C9.20999 1.88002 9.15999 1.81002 9.07999 1.77002C8.84999 1.65002 8.00999 2.17002 7.41999 2.62002L7.40999 2.61002Z" fill="#231F20"/>
</g>
<path id="Vector_7" d="M3.44008 8.24001C2.73008 7.89001 2.29008 7.12001 2.18008 6.17001C1.98008 4.39001 2.99008 2.45001 4.76008 1.91001C5.20008 1.78001 5.72008 1.73001 6.17008 1.74001C7.92008 1.79001 9.34008 3.04001 9.73008 4.71001C9.94008 5.61001 9.85008 6.82001 9.32008 7.61001C9.13008 7.89001 8.83008 8.22001 8.50008 8.33001" fill="white"/>
<path id="Vector_8" d="M8.49998 8.41998C8.49998 8.41998 8.41998 8.38998 8.40998 8.34998C8.38998 8.29998 8.40998 8.23998 8.46998 8.21998C8.76998 8.11998 9.05998 7.79998 9.23998 7.53998C9.77998 6.73998 9.82998 5.53998 9.63998 4.70998C9.25998 3.05998 7.82998 1.86998 6.17998 1.81998C5.69998 1.79998 5.18998 1.86998 4.79998 1.98998C2.99998 2.53998 2.11998 4.53998 2.28998 6.14998C2.38998 7.08998 2.82998 7.81998 3.48998 8.14998C3.53998 8.16998 3.55998 8.22998 3.53998 8.27998C3.50998 8.32998 3.44998 8.34998 3.40998 8.32998C2.68998 7.96998 2.20998 7.18998 2.08998 6.17998C1.89998 4.48998 2.83998 2.38998 4.73998 1.80998C5.15998 1.67998 5.66998 1.61998 6.17998 1.62998C7.92998 1.67998 9.42998 2.92998 9.82998 4.67998C10.03 5.54998 9.97998 6.80998 9.39998 7.65998C9.30998 7.79998 8.96998 8.25998 8.52998 8.41998C8.51998 8.41998 8.50998 8.41998 8.49998 8.41998Z" fill="#231F20"/>
<path id="Vector_9" d="M6.6499 4.77002C6.6499 4.70002 6.5799 4.65002 6.5199 4.65002C6.4499 4.65002 6.3999 4.72002 6.3999 4.78002C6.3999 4.85002 6.4699 4.90002 6.5299 4.89002C6.5999 4.89002 6.6499 4.82002 6.6399 4.76002L6.6499 4.77002Z" fill="#231F20"/>
<path id="Vector_10" d="M5.53009 4.74C5.53009 4.67 5.46009 4.62 5.40009 4.62C5.33009 4.62 5.28009 4.69 5.29009 4.75C5.29009 4.82 5.36009 4.87 5.42009 4.86C5.49009 4.86 5.54009 4.79 5.54009 4.73L5.53009 4.74Z" fill="#231F20"/>
<path id="Vector_11" d="M7.20997 5.38002C7.19997 5.22002 7.05997 5.10002 6.88997 5.11002C6.72997 5.12002 6.60997 5.26002 6.61997 5.43002C6.62997 5.59002 6.76997 5.71002 6.93997 5.70002C7.09997 5.69002 7.21997 5.55002 7.20997 5.38002Z" fill="#FFBEBE"/>
<path id="Vector_12" d="M5.26002 5.33003C5.25002 5.17003 5.11002 5.05003 4.94002 5.06003C4.78002 5.07003 4.66002 5.21003 4.67002 5.38003C4.68002 5.54003 4.82002 5.66003 4.99002 5.65003C5.15002 5.64003 5.27002 5.50003 5.26002 5.33003Z" fill="#FFBEBE"/>
<g id="Group_3">
<path id="Vector_13" d="M5.93007 6.01L5.75007 5.66L5.57007 5.31H5.95007L6.33007 5.33L6.13007 5.67L5.93007 6.01Z" fill="#E21D38"/>
<path id="Vector_14" d="M5.94009 6.11002C5.94009 6.11002 5.87009 6.09002 5.85009 6.06002L5.49009 5.36002C5.49009 5.36002 5.47009 5.29002 5.49009 5.26002C5.51009 5.23002 5.54009 5.22002 5.58009 5.21002L6.34009 5.23002C6.34009 5.23002 6.41009 5.25002 6.42009 5.28002C6.44009 5.31002 6.44009 5.35002 6.42009 5.38002L6.02009 6.06002C6.02009 6.06002 5.97009 6.11002 5.93009 6.11002H5.94009ZM5.74009 5.42002L5.94009 5.81002L6.16009 5.43002H5.74009V5.42002Z" fill="#231F20"/>
</g>
<g id="Group_4">
<path id="Vector_15" d="M6.17003 8.68996C6.17003 8.68996 6.17003 8.69997 6.12003 8.66997C6.07003 8.63997 6.14003 8.59997 6.09003 8.55997C6.04003 8.51997 6.11003 8.50997 6.07003 8.46997C6.03003 8.42997 6.04003 8.41997 6.03003 8.34997C6.03003 8.26997 6.09003 8.32996 6.08003 8.24996C6.08003 8.16997 6.15003 8.24996 6.13003 8.15996C6.12003 8.07996 6.17003 8.07996 6.17003 8.07996C6.17003 8.07996 6.17003 8.04997 6.20003 8.00997C6.22003 7.96997 6.25003 8.03996 6.31003 7.94996C6.37003 7.85996 6.35003 7.94997 6.43003 7.85997C6.51003 7.77997 6.53003 7.83997 6.55003 7.79997C6.57003 7.75997 6.61003 7.79996 6.64003 7.71996C6.66003 7.62996 6.69003 7.71996 6.70003 7.62996C6.72003 7.53996 6.76003 7.60997 6.76003 7.50997C6.76003 7.40997 6.82003 7.44997 6.82003 7.37996C6.82003 7.30996 6.89003 7.30997 6.89003 7.25997C6.89003 7.20997 6.96003 7.17996 6.94003 7.13996C6.92003 7.09996 6.91003 7.10997 6.94003 7.00997C6.96003 6.90997 7.03003 6.92996 7.03003 6.89996C7.03003 6.86996 7.08003 6.83996 7.06003 6.79997C7.04003 6.75997 7.08003 6.72996 7.06003 6.67996C7.06003 6.62996 7.13003 6.60996 7.12003 6.57996C7.12003 6.54996 7.11003 6.52996 7.14003 6.51996C7.17003 6.49996 7.25003 6.44996 7.25003 6.40996C7.25003 6.36996 7.25003 6.38996 7.27003 6.34996C7.30003 6.30996 7.30003 6.32996 7.32003 6.30996C7.34003 6.28996 7.32003 6.30996 7.34003 6.22996C7.36003 6.14996 7.37003 6.19996 7.41003 6.18996C7.46003 6.17996 7.44003 6.15996 7.44003 6.11996C7.44003 6.07996 7.47003 6.03997 7.51003 6.00997C7.55003 5.97997 7.56003 5.98996 7.61003 5.97996C7.66003 5.95996 7.61003 5.94996 7.64003 5.87996C7.66003 5.80996 7.68003 5.84997 7.70003 5.83997C7.71003 5.83997 7.83003 5.79997 7.88003 5.77997C7.93003 5.75997 7.90003 5.74996 7.93003 5.73996C7.96003 5.73996 8.00003 5.73996 8.04003 5.74996C8.08003 5.74996 8.06003 5.73996 8.10003 5.71996C8.14003 5.69996 8.16003 5.71996 8.20003 5.74996C8.24003 5.76996 8.24003 5.75996 8.25003 5.74996C8.27003 5.74996 8.34003 5.74997 8.38003 5.77997C8.42003 5.81997 8.46003 5.80997 8.50003 5.79997C8.54003 5.79997 8.59003 5.83997 8.59003 5.83997C8.74003 5.83997 8.76003 5.98996 8.76003 5.98996C8.76003 5.98996 8.82003 6.02997 8.82003 6.06997C8.82003 6.10996 8.82003 6.14996 8.85003 6.17996C8.89003 6.21996 8.90003 6.28996 8.90003 6.30996C8.90003 6.32996 8.89003 6.31996 8.91003 6.35996C8.94003 6.39996 8.97003 6.40996 8.95003 6.44996C8.94003 6.48996 8.91003 6.47996 8.93003 6.51996C8.94003 6.55996 8.96003 6.59996 8.96003 6.62996C8.96003 6.65996 8.94003 6.62996 8.93003 6.67996C8.92003 6.72996 8.90003 6.84996 8.89003 6.85996C8.89003 6.87996 8.93003 6.88996 8.86003 6.91996C8.79003 6.94996 8.78003 6.91996 8.77003 6.95996C8.76003 7.00996 8.77003 7.00996 8.75003 7.05996C8.72003 7.10996 8.68003 7.13996 8.65003 7.13996C8.61003 7.13996 8.59003 7.13996 8.58003 7.17996C8.58003 7.22996 8.63003 7.22997 8.55003 7.25997C8.47003 7.28997 8.49003 7.25996 8.47003 7.28996C8.45003 7.30996 8.47003 7.30997 8.43003 7.33996C8.40003 7.36996 8.42003 7.36996 8.37003 7.36996C8.33003 7.36996 8.28003 7.45996 8.27003 7.48996C8.26003 7.51996 8.24003 7.51997 8.21003 7.50997C8.18003 7.50997 8.17003 7.58996 8.12003 7.57996C8.07003 7.57996 8.05003 7.61996 8.00003 7.59996C7.95003 7.57996 7.93003 7.63996 7.90003 7.63996C7.87003 7.63996 7.90003 7.70996 7.80003 7.73996C7.71003 7.76996 7.72003 7.75996 7.67003 7.73996C7.63003 7.72996 7.61003 7.79997 7.56003 7.79997C7.51003 7.79997 7.52003 7.87997 7.45003 7.87997C7.38003 7.87997 7.43003 7.93996 7.33003 7.94996C7.24003 7.95996 7.30003 7.99996 7.22003 8.02996C7.14003 8.05996 7.22003 8.06996 7.14003 8.10996C7.06003 8.13996 7.11003 8.17997 7.07003 8.20996C7.03003 8.23996 7.10003 8.24997 7.03003 8.33997C6.96003 8.42997 7.04003 8.39997 6.96003 8.46997C6.88003 8.53997 6.96003 8.54996 6.91003 8.57996C6.87003 8.60996 6.84003 8.61996 6.84003 8.61996C6.84003 8.61996 6.85003 8.67997 6.77003 8.66997C6.69003 8.66997 6.77003 8.72996 6.69003 8.72996C6.61003 8.72996 6.68003 8.78996 6.60003 8.78996C6.52003 8.78996 6.51003 8.79997 6.47003 8.76997C6.43003 8.72997 6.43003 8.79997 6.38003 8.76997C6.34003 8.72997 6.32003 8.78996 6.28003 8.74996C6.24003 8.70996 6.22003 8.77996 6.24003 8.70996C6.24003 8.70996 6.16003 8.72996 6.15003 8.62997L6.17003 8.68996Z" fill="#EF4436"/>
<path id="Vector_16" d="M6.53993 8.95997C6.53993 8.95997 6.47993 8.95997 6.44993 8.92997C6.40993 8.93997 6.37993 8.92997 6.34993 8.90997C6.29993 8.90997 6.26993 8.90997 6.24993 8.88997C6.21993 8.88997 6.19993 8.87997 6.17993 8.85997C6.17993 8.85997 6.16993 8.83997 6.15993 8.83997C6.15993 8.83997 6.15993 8.83997 6.14993 8.83997C6.12993 8.82997 6.10993 8.79997 6.08993 8.76997C6.08993 8.76997 6.06993 8.76997 6.05993 8.74997C6.02993 8.72997 5.98993 8.67997 5.99993 8.60997C5.97993 8.58997 5.96993 8.55997 5.96993 8.51997C5.93993 8.47997 5.92993 8.43997 5.92993 8.38997V8.35997C5.92993 8.29997 5.93993 8.25997 5.97993 8.22997C5.97993 8.18997 5.99993 8.15997 6.02993 8.13997C6.02993 8.08997 6.04993 8.05997 6.06993 8.03997C6.06993 8.03997 6.08993 8.01997 6.09993 8.01997C6.09993 8.00997 6.10993 7.98997 6.11993 7.97997C6.12993 7.95997 6.15993 7.90997 6.22993 7.90997C6.26993 7.85997 6.29993 7.81997 6.36993 7.81997C6.41993 7.75997 6.45993 7.73997 6.49993 7.73997C6.51993 7.71997 6.53993 7.70997 6.54993 7.70997C6.54993 7.67997 6.56993 7.63997 6.60993 7.61997C6.61993 7.56997 6.64993 7.53997 6.66993 7.52997C6.66993 7.45997 6.69993 7.41997 6.72993 7.39997C6.72993 7.33997 6.76993 7.29997 6.79993 7.27997C6.79993 7.23997 6.81993 7.20997 6.83993 7.18997C6.81993 7.13997 6.82993 7.10997 6.83993 7.03997C6.85993 6.94997 6.89993 6.90997 6.92993 6.88997C6.92993 6.87997 6.93993 6.86997 6.94993 6.85997C6.92993 6.80997 6.94993 6.76997 6.94993 6.74997C6.93993 6.67997 6.97993 6.62997 7.00993 6.59997C7.00993 6.54997 7.02993 6.49997 7.07993 6.47997C7.09993 6.47997 7.11993 6.44997 7.12993 6.43997C7.12993 6.39997 7.12993 6.37997 7.15993 6.33997C7.17993 6.30997 7.18993 6.29997 7.20993 6.28997C7.20993 6.27997 7.20993 6.25997 7.20993 6.24997C7.20993 6.21997 7.22993 6.16997 7.27993 6.13997C7.27993 6.13997 7.29993 6.13997 7.31993 6.12997C7.31993 6.06997 7.36993 6.00997 7.42993 5.96997C7.45993 5.93997 7.48993 5.92997 7.50993 5.92997C7.50993 5.91997 7.50993 5.89997 7.50993 5.88997C7.50993 5.86997 7.52993 5.80997 7.58993 5.78997C7.60993 5.78997 7.62993 5.78997 7.64993 5.78997C7.65993 5.78997 7.67993 5.77997 7.69993 5.76997C7.72993 5.75997 7.76993 5.73997 7.79993 5.73997C7.81993 5.71997 7.84993 5.69997 7.87993 5.69997C7.91993 5.69997 7.95993 5.69997 7.99993 5.69997C7.99993 5.69997 8.01993 5.68997 8.02993 5.67997C8.10993 5.63997 8.16993 5.67997 8.19993 5.68997V5.69997C8.23993 5.68997 8.34993 5.67997 8.42993 5.74997C8.42993 5.74997 8.44993 5.74997 8.45993 5.74997C8.52993 5.72997 8.57993 5.76997 8.61993 5.78997C8.73993 5.79997 8.81993 5.89997 8.83993 5.97997C8.86993 6.00997 8.90993 6.05997 8.90993 6.12997C8.90993 6.13997 8.90993 6.15997 8.90993 6.15997C8.97993 6.21997 8.99993 6.30997 8.98993 6.35997C8.98993 6.35997 8.98993 6.36997 8.99993 6.36997C9.01993 6.39997 9.06993 6.44997 9.03993 6.52997C9.03993 6.53997 9.03993 6.54997 9.02993 6.55997C9.03993 6.59997 9.04993 6.63997 9.04993 6.67997C9.04993 6.69997 9.03993 6.73997 9.01993 6.75997C9.01993 6.77997 9.00993 6.81997 8.99993 6.84997C8.99993 6.86997 8.99993 6.88997 8.98993 6.90997C8.98993 6.92997 8.98993 6.94997 8.98993 6.97997C8.96993 7.02997 8.92993 7.05997 8.89993 7.06997C8.88993 7.06997 8.86993 7.07997 8.85993 7.07997C8.85993 7.10997 8.85993 7.12997 8.82993 7.16997C8.79993 7.22997 8.73993 7.27997 8.67993 7.28997C8.67993 7.29997 8.67993 7.31997 8.67993 7.32997C8.65993 7.37997 8.60993 7.39997 8.57993 7.40997C8.55993 7.40997 8.54993 7.41997 8.53993 7.41997C8.53993 7.42997 8.51993 7.44997 8.49993 7.45997C8.45993 7.50997 8.42993 7.51997 8.39993 7.51997C8.38993 7.52997 8.37993 7.55997 8.36993 7.57997C8.35993 7.61997 8.32993 7.66997 8.25993 7.66997C8.22993 7.70997 8.18993 7.74997 8.12993 7.73997C8.09993 7.74997 8.06993 7.77997 8.00993 7.75997C8.00993 7.75997 7.98993 7.76997 7.97993 7.77997C7.95993 7.81997 7.92993 7.86997 7.84993 7.88997C7.77993 7.91997 7.73993 7.91997 7.69993 7.90997C7.67993 7.92997 7.64993 7.94997 7.60993 7.95997C7.58993 7.98997 7.55993 8.02997 7.49993 8.03997C7.47993 8.06997 7.43993 8.09997 7.36993 8.11997C7.35993 8.14997 7.32993 8.16997 7.28993 8.18997C7.26993 8.22997 7.22993 8.25997 7.20993 8.26997C7.20993 8.28997 7.20993 8.30997 7.18993 8.32997C7.18993 8.36997 7.17993 8.40997 7.12993 8.46997C7.12993 8.53997 7.08993 8.57997 7.04993 8.61997C7.04993 8.68997 7.01993 8.71997 6.99993 8.73997C6.98993 8.74997 6.96993 8.75997 6.95993 8.76997C6.95993 8.76997 6.94993 8.78997 6.93993 8.79997C6.91993 8.81997 6.88993 8.84997 6.83993 8.84997C6.81993 8.87997 6.78993 8.89997 6.74993 8.90997C6.71993 8.95997 6.66993 8.97997 6.62993 8.97997H6.59993C6.59993 8.97997 6.56993 8.97997 6.55993 8.97997L6.53993 8.95997ZM6.45993 8.71997C6.45993 8.71997 6.52993 8.73997 6.54993 8.74997C6.54993 8.74997 6.55993 8.74997 6.56993 8.74997C6.56993 8.74997 6.61993 8.69997 6.64993 8.68997C6.64993 8.67997 6.65993 8.66997 6.66993 8.65997C6.69993 8.62997 6.73993 8.61997 6.75993 8.61997C6.76993 8.59997 6.78993 8.57997 6.81993 8.56997C6.81993 8.51997 6.84993 8.47997 6.89993 8.43997C6.89993 8.39997 6.91993 8.36997 6.94993 8.31997C6.95993 8.29997 6.96993 8.29997 6.96993 8.29997C6.95993 8.24997 6.96993 8.21997 6.99993 8.18997C6.99993 8.14997 7.01993 8.09997 7.09993 8.06997C7.11993 8.01997 7.16993 7.99997 7.18993 7.98997C7.20993 7.93997 7.24993 7.90997 7.31993 7.89997C7.32993 7.88997 7.35993 7.83997 7.42993 7.82997C7.44993 7.79997 7.48993 7.74997 7.55993 7.74997C7.55993 7.71997 7.61993 7.66997 7.69993 7.68997V7.79997L7.72993 7.69997C7.72993 7.69997 7.73993 7.69997 7.76993 7.67997L7.78993 7.65997C7.80993 7.60997 7.83993 7.57997 7.86993 7.57997C7.89993 7.54997 7.95993 7.50997 8.02993 7.53997C8.02993 7.52997 8.05993 7.51997 8.07993 7.50997C8.09993 7.47997 8.12993 7.43997 8.17993 7.42997C8.20993 7.37997 8.25993 7.29997 8.33993 7.28997C8.34993 7.26997 8.35993 7.25997 8.36993 7.23997C8.38993 7.21997 8.41993 7.19997 8.44993 7.19997C8.44993 7.19997 8.44993 7.19997 8.44993 7.18997C8.45993 7.13997 8.48993 7.06997 8.58993 7.06997C8.59993 7.06997 8.61993 7.06997 8.62993 7.03997C8.62993 7.01997 8.62993 6.99997 8.62993 6.96997C8.63993 6.89997 8.68993 6.85997 8.74993 6.85997C8.74993 6.85997 8.74993 6.84997 8.74993 6.83997C8.74993 6.83997 8.74993 6.80997 8.75993 6.77997C8.75993 6.73997 8.77993 6.69997 8.77993 6.67997C8.77993 6.65997 8.78993 6.63997 8.79993 6.62997C8.79993 6.61997 8.79993 6.59997 8.78993 6.58997C8.76993 6.52997 8.77993 6.48997 8.78993 6.45997C8.78993 6.45997 8.77993 6.43997 8.76993 6.43997C8.74993 6.40997 8.71993 6.35997 8.74993 6.29997C8.74993 6.29997 8.74993 6.27997 8.72993 6.27997C8.65993 6.21997 8.65993 6.14997 8.65993 6.09997C8.63993 6.07997 8.60993 6.04997 8.60993 6.01997C8.60993 5.99997 8.58993 5.94997 8.53993 5.94997C8.50993 5.94997 8.47993 5.93997 8.45993 5.91997C8.45993 5.91997 8.45993 5.91997 8.45993 5.90997C8.40993 5.90997 8.33993 5.92997 8.26993 5.86997C8.26993 5.86997 8.22993 5.85997 8.22993 5.86997C8.18993 5.89997 8.13993 5.86997 8.10993 5.85997C8.10993 5.85997 8.08993 5.85997 8.08993 5.84997C8.05993 5.86997 8.02993 5.87997 7.97993 5.87997H7.94993C7.94993 5.87997 7.92993 5.87997 7.91993 5.86997C7.90993 5.87997 7.88993 5.88997 7.86993 5.89997C7.84993 5.90997 7.79993 5.92997 7.75993 5.93997C7.72993 5.93997 7.70993 5.95997 7.69993 5.95997C7.69993 6.02997 7.67993 6.06997 7.60993 6.09997C7.57993 6.10997 7.55993 6.10997 7.53993 6.10997C7.50993 6.12997 7.50993 6.14997 7.50993 6.14997C7.51993 6.25997 7.45993 6.29997 7.40993 6.30997C7.40993 6.30997 7.40993 6.30997 7.39993 6.30997C7.39993 6.30997 7.37993 6.37997 7.36993 6.39997C7.35993 6.41997 7.33993 6.42997 7.32993 6.42997C7.32993 6.42997 7.32993 6.42997 7.32993 6.43997C7.31993 6.51997 7.24993 6.57997 7.20993 6.60997C7.20993 6.66997 7.16993 6.69997 7.14993 6.71997C7.14993 6.74997 7.14993 6.76997 7.13993 6.78997C7.17993 6.85997 7.13993 6.91997 7.11993 6.94997C7.11993 6.98997 7.08993 7.01997 7.04993 7.03997C7.02993 7.08997 7.02993 7.09997 7.02993 7.11997C7.06993 7.20997 7.02993 7.26997 7.00993 7.28997C7.00993 7.35997 6.95993 7.39997 6.93993 7.41997C6.93993 7.48997 6.88993 7.52997 6.87993 7.53997C6.87993 7.60997 6.85993 7.64997 6.81993 7.67997C6.81993 7.70997 6.79993 7.75997 6.74993 7.77997C6.72993 7.83997 6.68993 7.87997 6.63993 7.88997C6.61993 7.91997 6.57993 7.94997 6.52993 7.92997C6.52993 7.92997 6.52993 7.92997 6.50993 7.93997C6.46993 7.97997 6.43993 7.99997 6.39993 8.00997C6.35993 8.06997 6.31993 8.09997 6.27993 8.10997V8.11997C6.27993 8.13997 6.25993 8.16997 6.23993 8.17997C6.23993 8.20997 6.23993 8.23997 6.21993 8.27997C6.21993 8.27997 6.19993 8.29997 6.18993 8.29997C6.18993 8.33997 6.16993 8.36997 6.13993 8.38997C6.13993 8.39997 6.13993 8.40997 6.13993 8.41997C6.15993 8.42997 6.18993 8.46997 6.18993 8.52997C6.20993 8.54997 6.20993 8.57997 6.21993 8.60997C6.23993 8.61997 6.25993 8.64997 6.26993 8.67997C6.28993 8.67997 6.31993 8.68997 6.32993 8.70997C6.32993 8.70997 6.32993 8.70997 6.33993 8.71997C6.36993 8.71997 6.39993 8.71997 6.42993 8.72997C6.43993 8.72997 6.44993 8.72997 6.45993 8.72997V8.71997ZM7.65993 5.73997C7.65993 5.73997 7.64993 5.73997 7.63993 5.73997C7.63993 5.73997 7.63993 5.73997 7.65993 5.73997ZM8.20993 5.65997L8.18993 5.74997L8.24993 5.66997C8.24993 5.66997 8.22993 5.66997 8.20993 5.66997V5.65997Z" fill="#231F20"/>
</g>
<g id="Group_5">
<path id="Vector_17" d="M5.80001 9.00002C5.80001 9.00002 5.80001 9.01002 5.85001 8.98002C5.90001 8.95002 5.83001 8.91002 5.88001 8.87002C5.93001 8.83002 5.86001 8.82002 5.90001 8.78002C5.94001 8.74002 5.93001 8.73002 5.94001 8.66002C5.94001 8.59002 5.88001 8.64002 5.89001 8.56002C5.89001 8.48002 5.82001 8.56002 5.84001 8.47002C5.85001 8.39002 5.80001 8.39002 5.80001 8.39002C5.80001 8.39002 5.80001 8.36002 5.77001 8.32002C5.75001 8.28002 5.72001 8.35002 5.66001 8.26002C5.60001 8.17002 5.62001 8.26002 5.54001 8.17002C5.46001 8.09002 5.44001 8.15002 5.42001 8.11002C5.40001 8.07002 5.36001 8.11002 5.33001 8.03002C5.31001 7.94002 5.28001 8.03002 5.27001 7.94002C5.25001 7.85002 5.21001 7.92002 5.21001 7.82002C5.21001 7.72002 5.15001 7.76002 5.15001 7.69002C5.15001 7.62002 5.08001 7.62002 5.08001 7.57002C5.08001 7.52002 5.01001 7.49002 5.03001 7.45002C5.05001 7.41002 5.06001 7.42002 5.03001 7.32002C5.01001 7.22002 4.94001 7.24002 4.94001 7.21002C4.94001 7.18002 4.89001 7.15002 4.91001 7.11002C4.93001 7.07002 4.89001 7.04002 4.91001 6.99002C4.91001 6.94002 4.84001 6.92002 4.85001 6.89002C4.85001 6.86002 4.86001 6.84002 4.83001 6.83002C4.80001 6.81002 4.72001 6.76002 4.72001 6.72002C4.72001 6.68002 4.72001 6.70002 4.70001 6.66002C4.67001 6.62002 4.67001 6.64002 4.65001 6.62002C4.63001 6.60002 4.65001 6.62002 4.63001 6.54002C4.61001 6.46002 4.60001 6.51002 4.56001 6.50002C4.51001 6.49002 4.53001 6.47002 4.53001 6.43002C4.53001 6.39002 4.50001 6.35002 4.46001 6.32002C4.42001 6.29002 4.41001 6.30002 4.36001 6.29002C4.31001 6.27002 4.36001 6.26002 4.33001 6.19002C4.31001 6.12002 4.29001 6.16002 4.27001 6.15002C4.26001 6.15002 4.14001 6.11002 4.09001 6.09002C4.04001 6.07002 4.07001 6.06002 4.04001 6.05002C4.01001 6.05002 3.97001 6.05002 3.93001 6.06002C3.89001 6.06002 3.91001 6.05002 3.87001 6.03002C3.83001 6.01002 3.81001 6.03002 3.77001 6.06002C3.73001 6.09002 3.73001 6.07002 3.72001 6.06002C3.70001 6.06002 3.63001 6.06002 3.59001 6.09002C3.55001 6.13002 3.51001 6.12002 3.47001 6.11002C3.43001 6.11002 3.38001 6.15002 3.38001 6.15002C3.23001 6.15002 3.21001 6.30002 3.21001 6.30002C3.21001 6.30002 3.15001 6.34002 3.15001 6.38002C3.15001 6.42002 3.15001 6.46002 3.12001 6.49002C3.08001 6.53002 3.07001 6.60002 3.07001 6.62002C3.07001 6.64002 3.08001 6.63002 3.06001 6.67002C3.03001 6.71002 3.00001 6.72002 3.02001 6.76002C3.03001 6.80002 3.06001 6.79002 3.04001 6.83002C3.03001 6.87002 3.01001 6.91002 3.01001 6.94002C3.01001 6.97002 3.03001 6.94002 3.04001 6.99002C3.05001 7.04002 3.07001 7.16002 3.08001 7.17002C3.08001 7.19002 3.04001 7.20002 3.11001 7.23002C3.18001 7.26002 3.19001 7.23002 3.20001 7.27002C3.20001 7.32002 3.20001 7.32002 3.22001 7.37002C3.25001 7.42002 3.29001 7.45002 3.32001 7.45002C3.36001 7.45002 3.38001 7.45002 3.39001 7.49002C3.39001 7.54002 3.34001 7.54002 3.42001 7.57002C3.50001 7.60002 3.48001 7.57002 3.50001 7.60002C3.52001 7.62002 3.50001 7.62002 3.54001 7.65002C3.58001 7.68002 3.55001 7.68002 3.60001 7.68002C3.65001 7.68002 3.69001 7.77002 3.70001 7.80002C3.71001 7.83002 3.73001 7.83002 3.76001 7.82002C3.79001 7.82002 3.80001 7.90002 3.85001 7.89002C3.90001 7.89002 3.92001 7.93002 3.97001 7.91002C4.02001 7.89002 4.04001 7.95002 4.07001 7.95002C4.10001 7.95002 4.07001 8.02002 4.17001 8.05002C4.26001 8.08002 4.25001 8.07002 4.30001 8.05002C4.34001 8.04002 4.36001 8.11002 4.41001 8.11002C4.46001 8.11002 4.45001 8.19002 4.52001 8.19002C4.59001 8.19002 4.54001 8.25002 4.64001 8.26002C4.73001 8.27002 4.67001 8.31002 4.75001 8.34002C4.83001 8.37002 4.75001 8.38002 4.83001 8.42002C4.91001 8.45002 4.86001 8.49002 4.90001 8.52002C4.94001 8.55002 4.87001 8.56002 4.94001 8.65002C5.01001 8.74002 4.93001 8.71002 5.01001 8.78002C5.09001 8.85002 5.01001 8.86002 5.06001 8.89002C5.10001 8.92002 5.13001 8.93002 5.13001 8.93002C5.13001 8.93002 5.12001 8.99002 5.20001 8.98002C5.28001 8.98002 5.20001 9.04002 5.28001 9.04002C5.36001 9.04002 5.29001 9.10002 5.37001 9.10002C5.44001 9.10002 5.46001 9.11002 5.50001 9.08002C5.54001 9.04002 5.54001 9.11002 5.59001 9.08002C5.63001 9.04002 5.65001 9.10002 5.69001 9.06002C5.73001 9.02002 5.75001 9.09002 5.73001 9.02002C5.73001 9.02002 5.81001 9.04002 5.82001 8.94002L5.80001 9.00002Z" fill="#FBB040"/>
<path id="Vector_18" d="M5.41994 9.28C5.41994 9.28 5.38994 9.28 5.37994 9.28H5.34994C5.34994 9.28 5.25994 9.26 5.22994 9.21C5.18994 9.21 5.15994 9.18 5.13994 9.15C5.08994 9.15 5.05994 9.12 5.03994 9.1C5.03994 9.1 5.02994 9.08 5.01994 9.07C5.00994 9.07 4.98994 9.05 4.97994 9.04C4.95994 9.03 4.91994 8.99 4.92994 8.92C4.87994 8.87 4.84994 8.83 4.84994 8.77C4.79994 8.71 4.77994 8.67 4.77994 8.63C4.76994 8.61 4.75994 8.59 4.75994 8.57C4.72994 8.56 4.68994 8.53 4.67994 8.49C4.62994 8.47 4.60994 8.44 4.59994 8.42C4.52994 8.41 4.49994 8.37 4.46994 8.34C4.40994 8.33 4.36994 8.28 4.35994 8.26C4.31994 8.25 4.28994 8.23 4.26994 8.21C4.21994 8.22 4.18994 8.21 4.11994 8.19C4.03994 8.16 3.99994 8.11 3.98994 8.08C3.97994 8.08 3.96994 8.06 3.95994 8.06C3.90994 8.07 3.86994 8.06 3.84994 8.04C3.77994 8.04 3.73994 7.99 3.71994 7.96C3.64994 7.96 3.61994 7.91 3.60994 7.87C3.60994 7.85 3.58994 7.83 3.57994 7.81C3.53994 7.81 3.51994 7.8 3.48994 7.76C3.46994 7.74 3.44994 7.72 3.44994 7.71C3.43994 7.71 3.41994 7.71 3.40994 7.7C3.37994 7.7 3.32994 7.67 3.30994 7.62C3.30994 7.62 3.30994 7.6 3.30994 7.58C3.24994 7.56 3.19994 7.52 3.15994 7.46C3.13994 7.42 3.12994 7.39 3.12994 7.37C3.11994 7.37 3.10994 7.37 3.08994 7.36C3.06994 7.36 3.00994 7.32 2.99994 7.27C2.99994 7.25 2.99994 7.23 2.99994 7.21C2.99994 7.19 2.99994 7.17 2.98994 7.15C2.98994 7.12 2.97994 7.08 2.96994 7.06C2.94994 7.04 2.93994 7 2.93994 6.98C2.93994 6.94 2.94994 6.9 2.95994 6.87C2.95994 6.87 2.95994 6.85 2.94994 6.84C2.91994 6.76 2.96994 6.7 2.98994 6.67H2.99994C2.99994 6.63 2.99994 6.51 3.07994 6.45C3.07994 6.45 3.07994 6.43 3.07994 6.42C3.07994 6.35 3.10994 6.3 3.14994 6.27C3.17994 6.19 3.24994 6.09 3.36994 6.08C3.39994 6.05 3.44994 6.02 3.51994 6.04C3.52994 6.04 3.54994 6.04 3.54994 6.04C3.61994 5.98 3.70994 5.97 3.75994 5.99H3.77994C3.80994 5.97 3.86994 5.93 3.94994 5.97C3.95994 5.97 3.96994 5.98 3.97994 5.99C4.02994 5.99 4.05994 5.98 4.08994 5.99C4.11994 5.99 4.14994 6.01 4.16994 6.04C4.18994 6.04 4.22994 6.06 4.25994 6.07C4.27994 6.07 4.29994 6.08 4.30994 6.09C4.32994 6.09 4.35994 6.09 4.37994 6.09C4.42994 6.11 4.44994 6.17 4.45994 6.19C4.45994 6.2 4.45994 6.22 4.45994 6.23C4.48994 6.23 4.50994 6.25 4.53994 6.27C4.59994 6.32 4.63994 6.37 4.64994 6.43C4.65994 6.43 4.67994 6.43 4.68994 6.43C4.73994 6.46 4.74994 6.51 4.75994 6.54C4.75994 6.56 4.75994 6.57 4.75994 6.58C4.76994 6.58 4.77994 6.6 4.79994 6.62C4.83994 6.66 4.84994 6.7 4.83994 6.73C4.84994 6.74 4.87994 6.76 4.88994 6.77C4.93994 6.8 4.96994 6.84 4.95994 6.89C4.98994 6.92 5.02994 6.97 5.00994 7.03C5.01994 7.06 5.02994 7.1 5.00994 7.15C5.00994 7.15 5.01994 7.17 5.02994 7.18C5.06994 7.2 5.10994 7.24 5.12994 7.33C5.13994 7.41 5.14994 7.44 5.12994 7.48C5.14994 7.51 5.16994 7.54 5.16994 7.57C5.19994 7.59 5.22994 7.63 5.23994 7.69C5.26994 7.72 5.28994 7.76 5.29994 7.82C5.31994 7.84 5.34994 7.86 5.35994 7.91C5.39994 7.93 5.41994 7.98 5.41994 8C5.43994 8 5.45994 8.01 5.46994 8.03C5.50994 8.03 5.54994 8.05 5.59994 8.1C5.66994 8.1 5.69994 8.16 5.73994 8.2C5.80994 8.2 5.83994 8.25 5.84994 8.27C5.84994 8.29 5.85994 8.3 5.86994 8.31C5.86994 8.31 5.88994 8.32 5.89994 8.33C5.91994 8.35 5.93994 8.38 5.93994 8.43C5.96994 8.45 5.97994 8.48 5.98994 8.52C6.03994 8.56 6.03994 8.61 6.03994 8.65V8.68C6.03994 8.73 6.03994 8.77 5.99994 8.81C5.99994 8.85 5.98994 8.88 5.96994 8.9C5.97994 8.97 5.94994 9.01 5.90994 9.04C5.90994 9.04 5.88994 9.05 5.87994 9.06C5.85994 9.1 5.83994 9.12 5.81994 9.13C5.81994 9.13 5.81994 9.13 5.80994 9.13C5.80994 9.13 5.79994 9.15 5.78994 9.15C5.76994 9.17 5.74994 9.18 5.71994 9.18C5.68994 9.2 5.65994 9.21 5.61994 9.2C5.59994 9.21 5.55994 9.22 5.51994 9.22C5.48994 9.24 5.45994 9.25 5.41994 9.25V9.28ZM5.39994 9.08C5.39994 9.08 5.41994 9.08 5.42994 9.08C5.43994 9.06 5.48994 9.04 5.53994 9.05C5.55994 9.04 5.58994 9.03 5.62994 9.04C5.62994 9.04 5.62994 9.04 5.63994 9.04C5.65994 9.02 5.67994 9.01 5.69994 9C5.69994 8.97 5.72994 8.94 5.74994 8.92C5.74994 8.89 5.74994 8.87 5.76994 8.84C5.76994 8.79 5.78994 8.75 5.81994 8.73C5.81994 8.73 5.81994 8.72 5.81994 8.71C5.78994 8.69 5.77994 8.66 5.76994 8.63C5.75994 8.63 5.74994 8.61 5.73994 8.6C5.71994 8.57 5.70994 8.53 5.71994 8.51C5.69994 8.5 5.68994 8.47 5.67994 8.45C5.63994 8.45 5.59994 8.41 5.55994 8.36C5.51994 8.36 5.48994 8.33 5.44994 8.29C5.43994 8.28 5.42994 8.27 5.42994 8.27C5.37994 8.28 5.34994 8.25 5.31994 8.23C5.28994 8.23 5.23994 8.19 5.20994 8.12C5.15994 8.09 5.14994 8.04 5.13994 8.02C5.08994 7.99 5.06994 7.94 5.06994 7.88C5.05994 7.87 5.00994 7.83 5.00994 7.76C4.97994 7.73 4.93994 7.69 4.94994 7.62C4.91994 7.61 4.87994 7.55 4.90994 7.47V7.44H4.91994C4.91994 7.44 4.91994 7.42 4.90994 7.4C4.84994 7.36 4.82994 7.33 4.81994 7.29C4.79994 7.26 4.76994 7.2 4.79994 7.12C4.79994 7.12 4.77994 7.09 4.77994 7.06C4.74994 7.04 4.71994 7 4.71994 6.95C4.66994 6.92 4.59994 6.86 4.59994 6.78C4.58994 6.77 4.56994 6.76 4.55994 6.74C4.53994 6.72 4.52994 6.68 4.52994 6.66C4.52994 6.66 4.52994 6.66 4.51994 6.66C4.46994 6.64 4.40994 6.6 4.41994 6.5C4.41994 6.49 4.41994 6.47 4.38994 6.45C4.36994 6.45 4.34994 6.45 4.31994 6.43C4.24994 6.41 4.21994 6.36 4.22994 6.29C4.22994 6.29 4.22994 6.29 4.21994 6.29C4.21994 6.29 4.18994 6.28 4.15994 6.27C4.11994 6.26 4.07994 6.24 4.05994 6.23C4.03994 6.23 4.01994 6.21 4.00994 6.2C3.99994 6.2 3.97994 6.2 3.96994 6.2H3.93994C3.89994 6.2 3.85994 6.2 3.82994 6.17C3.82994 6.17 3.80994 6.17 3.80994 6.18C3.77994 6.19 3.72994 6.22 3.66994 6.18C3.66994 6.18 3.64994 6.18 3.63994 6.19C3.56994 6.25 3.49994 6.24 3.45994 6.24C3.43994 6.26 3.38994 6.28 3.36994 6.28C3.31994 6.28 3.30994 6.32 3.29994 6.35C3.29994 6.38 3.27994 6.4 3.25994 6.42H3.24994C3.24994 6.47 3.24994 6.54 3.17994 6.6C3.17994 6.6 3.16994 6.63 3.16994 6.64C3.18994 6.68 3.16994 6.73 3.13994 6.76C3.13994 6.76 3.12994 6.78 3.11994 6.78C3.13994 6.81 3.13994 6.85 3.12994 6.89C3.12994 6.91 3.11994 6.93 3.10994 6.95C3.10994 6.96 3.12994 6.98 3.12994 7C3.12994 7.02 3.13994 7.06 3.14994 7.1C3.14994 7.13 3.15994 7.16 3.16994 7.17C3.23994 7.17 3.27994 7.21 3.28994 7.28C3.28994 7.31 3.28994 7.33 3.28994 7.34C3.30994 7.37 3.31994 7.38 3.31994 7.38C3.42994 7.38 3.45994 7.45 3.46994 7.5C3.46994 7.5 3.46994 7.5 3.46994 7.51C3.48994 7.51 3.52994 7.53 3.54994 7.55C3.56994 7.57 3.56994 7.58 3.57994 7.59C3.65994 7.61 3.70994 7.68 3.73994 7.73C3.79994 7.73 3.82994 7.78 3.83994 7.8C3.86994 7.8 3.88994 7.81 3.89994 7.82C3.96994 7.8 4.02994 7.85 4.04994 7.86C4.08994 7.87 4.11994 7.9 4.12994 7.94L4.14994 7.96C4.14994 7.96 4.18994 7.97 4.19994 7.98C4.28994 7.95 4.34994 8.01 4.36994 8.03C4.43994 8.03 4.46994 8.09 4.48994 8.12C4.55994 8.13 4.58994 8.18 4.59994 8.2C4.66994 8.2 4.70994 8.23 4.72994 8.28C4.75994 8.29 4.79994 8.31 4.81994 8.36C4.89994 8.4 4.90994 8.45 4.91994 8.48C4.93994 8.5 4.95994 8.54 4.94994 8.59C4.94994 8.59 4.94994 8.59 4.95994 8.61C4.98994 8.65 5.00994 8.69 5.00994 8.72C5.05994 8.77 5.08994 8.81 5.08994 8.85H5.09994C5.11994 8.85 5.13994 8.88 5.14994 8.9C5.17994 8.9 5.20994 8.9 5.23994 8.94C5.23994 8.94 5.24994 8.96 5.25994 8.97C5.28994 8.97 5.31994 9 5.33994 9.03L5.39994 9.08ZM2.98994 7.23C2.98994 7.23 2.98994 7.23 2.98994 7.24C2.98994 7.24 2.98994 7.24 2.98994 7.23ZM2.97994 6.68L3.05994 6.71L2.97994 6.64C2.97994 6.64 2.97994 6.66 2.97994 6.68Z" fill="#231F20"/>
</g>
<path id="Vector_19" d="M9.50009 9.06002C9.82009 9.72002 9.50009 10.32 9.28009 10.55C8.36009 11.53 6.22009 10.6 5.77009 9.86002C5.77009 9.86002 5.13009 9.95002 4.77009 9.41002C4.65009 9.23002 4.60009 9.02002 4.63009 8.79002C4.65009 8.60002 4.73009 8.43002 4.85009 8.28002C5.32009 7.68002 6.34009 7.76002 6.63009 8.50002C6.63009 8.50002 7.42009 8.73002 8.04009 9.14002" fill="white"/>
<path id="Vector_20" d="M8.16006 11.08C8.07006 11.08 7.97006 11.08 7.87006 11.06C7.03006 10.97 6.06006 10.48 5.72006 9.97C5.54006 9.99 5.01006 9.96 4.69006 9.47C4.56006 9.27 4.50006 9.03 4.53006 8.78C4.55006 8.58 4.64006 8.39 4.77006 8.22C5.02006 7.9 5.44006 7.73 5.86006 7.79C6.24006 7.84 6.55006 8.08 6.70006 8.41C6.88006 8.47 7.54006 8.68 8.09006 9.04C8.14006 9.07 8.15006 9.13 8.12006 9.18C8.09006 9.23 8.03006 9.24 7.98006 9.21C7.38006 8.81 6.61006 8.59 6.60006 8.59C6.57006 8.59 6.55006 8.56 6.53006 8.53C6.42006 8.24 6.15006 8.04 5.83006 7.99C5.48006 7.93 5.14006 8.07 4.93006 8.34C4.82006 8.48 4.75006 8.64 4.73006 8.8C4.71006 9 4.75006 9.18 4.86006 9.35C5.17006 9.82 5.74006 9.76 5.76006 9.75C5.80006 9.75 5.84006 9.76 5.86006 9.8C6.11006 10.22 7.01006 10.75 7.90006 10.85C8.30006 10.9 8.85006 10.86 9.21006 10.47C9.42006 10.24 9.70006 9.7 9.41006 9.09C9.39006 9.04 9.41006 8.98 9.46006 8.96C9.51006 8.94 9.57006 8.96 9.59006 9.01C9.93006 9.72 9.59006 10.35 9.35006 10.61C9.07006 10.91 8.66006 11.06 8.16006 11.06V11.08Z" fill="#231F20"/>
<path id="Vector_21" d="M2.49994 9.06002C2.17994 9.72002 2.49994 10.32 2.71994 10.55C3.63994 11.53 5.77994 10.6 6.22994 9.86002C6.22994 9.86002 6.86994 9.95002 7.22994 9.41002C7.34994 9.23002 7.39994 9.02002 7.36994 8.79002C7.34994 8.60002 7.26994 8.43002 7.14994 8.28002C6.67994 7.68002 5.65994 7.76002 5.36994 8.50002C5.36994 8.50002 4.57994 8.73002 3.95994 9.14002" fill="white"/>
<path id="Vector_22" d="M3.84005 11.08C3.34005 11.08 2.93005 10.93 2.65005 10.63C2.40005 10.37 2.07005 9.74001 2.41005 9.03001C2.43005 8.98001 2.49005 8.96001 2.54005 8.98001C2.59005 9.00001 2.61005 9.06001 2.59005 9.11001C2.30005 9.72001 2.59005 10.27 2.79005 10.49C3.16005 10.88 3.71005 10.91 4.10005 10.87C4.99005 10.77 5.89005 10.24 6.14005 9.82001C6.16005 9.79001 6.20005 9.77001 6.24005 9.77001C6.26005 9.77001 6.83005 9.84001 7.14005 9.37001C7.25005 9.20001 7.29005 9.02001 7.27005 8.82001C7.25005 8.66001 7.18005 8.50001 7.07005 8.36001C6.86005 8.09001 6.52005 7.95001 6.17005 8.01001C5.84005 8.06001 5.58005 8.26001 5.47005 8.55001C5.46005 8.58001 5.43005 8.60001 5.40005 8.61001C5.40005 8.61001 4.62005 8.84001 4.02005 9.23001C3.97005 9.26001 3.91005 9.25001 3.88005 9.20001C3.85005 9.15001 3.86005 9.09001 3.91005 9.06001C4.46005 8.70001 5.12005 8.48001 5.30005 8.43001C5.45005 8.09001 5.76005 7.86001 6.14005 7.81001C6.56005 7.75001 6.98005 7.91001 7.23005 8.24001C7.36005 8.41001 7.44005 8.60001 7.47005 8.80001C7.50005 9.05001 7.44005 9.28001 7.31005 9.49001C6.99005 9.97001 6.47005 10 6.28005 9.99001C5.93005 10.5 4.97005 10.99 4.13005 11.08C4.03005 11.09 3.93005 11.1 3.84005 11.1V11.08Z" fill="#231F20"/>
<path id="Vector_23" d="M6.78009 1.34997L5.98009 0.409973L5.34009 1.58997" fill="#BD9806"/>
<path id="Vector_24" d="M5.32993 1.67999C5.32993 1.67999 5.29993 1.67999 5.27993 1.66999C5.22993 1.63999 5.20993 1.57999 5.23993 1.52999L5.87993 0.349988C5.87993 0.349988 5.91993 0.299988 5.95993 0.299988C5.98993 0.299988 6.01993 0.299988 6.04993 0.329988L6.84993 1.26999C6.84993 1.26999 6.87993 1.37999 6.83993 1.40999C6.79993 1.44999 6.73993 1.43999 6.69993 1.39999L5.98993 0.569988L5.41993 1.61999C5.41993 1.61999 5.36993 1.66999 5.32993 1.66999V1.67999Z" fill="#231F20"/>
<path id="Vector_25" d="M7.81003 2.03L7.69003 0.75L6.53003 1.26" fill="#BD9806"/>
<path id="Vector_26" d="M7.81004 2.13002C7.76004 2.13002 7.72004 2.09002 7.71004 2.04002L7.60004 0.900023L6.57004 1.35002C6.57004 1.35002 6.46004 1.35002 6.44004 1.30002C6.42004 1.25002 6.44004 1.19002 6.49004 1.17002L7.65004 0.660023C7.65004 0.660023 7.71004 0.650023 7.74004 0.660023C7.77004 0.680023 7.79004 0.700023 7.79004 0.740023L7.91004 2.02002C7.91004 2.07002 7.87004 2.12002 7.82004 2.13002H7.81004Z" fill="#231F20"/>
<g id="Group_6">
<path id="Vector_27" d="M8.01998 2.62001L8.27998 1.09001L7.35998 1.32001L6.77998 0.200012L5.90998 1.18001L4.97998 0.740012L5.09998 2.31001L8.01998 2.61001V2.62001Z" fill="#FFD540"/>
<path id="Vector_28" d="M8.01989 2.72L5.09989 2.42C5.09989 2.42 5.00989 2.38 5.00989 2.33L4.88989 0.760003C4.88989 0.760003 4.89989 0.690003 4.92989 0.670003C4.95989 0.650003 4.99989 0.650003 5.02989 0.670003L5.88989 1.07L6.70989 0.140003C6.70989 0.140003 6.75989 0.100003 6.79989 0.110003C6.82989 0.110003 6.85989 0.130003 6.87989 0.160003L7.41989 1.21L8.25989 1C8.25989 1 8.32989 1 8.34989 1.02C8.37989 1.04 8.38989 1.08 8.37989 1.11L8.11989 2.64C8.11989 2.64 8.06989 2.72 8.01989 2.72ZM5.19989 2.23L7.93989 2.51L8.15989 1.22L7.38989 1.42C7.38989 1.42 7.29989 1.42 7.27989 1.37L6.76989 0.380003L5.98989 1.25C5.98989 1.25 5.90989 1.29 5.86989 1.27L5.08989 0.910003L5.18989 2.23H5.19989Z" fill="#231F20"/>
</g>
<g id="Group_7">
<path id="Vector_29" d="M7.09999 1.57996L6.47999 1.52996C6.47999 1.52996 6.45999 1.51996 6.45999 1.49996L6.48999 1.14996L6.29999 1.23996L6.23999 1.99996C6.23999 1.99996 6.26999 2.08996 6.31999 2.09996L7.04999 2.15996C7.04999 2.15996 7.13999 2.12996 7.14999 2.07996L7.17999 1.67996C7.17999 1.67996 7.14999 1.58996 7.09999 1.57996ZM6.99999 1.71996L6.97999 1.99996C6.97999 1.99996 6.96999 2.01996 6.94999 2.01996L6.44999 1.97996C6.44999 1.97996 6.42999 1.96996 6.42999 1.94996L6.44999 1.66996C6.44999 1.66996 6.45999 1.64996 6.47999 1.64996L6.97999 1.68996C6.97999 1.68996 6.99999 1.69996 6.99999 1.71996Z" fill="#E31937"/>
<path id="Vector_30" d="M7.06002 2.24998C7.06002 2.24998 7.06002 2.24998 7.05002 2.24998L6.32002 2.18998C6.22002 2.18998 6.14002 2.08998 6.15002 1.98998L6.22002 1.17998L6.62002 0.97998L6.58002 1.43998L7.12002 1.48998C7.22002 1.48998 7.30002 1.58998 7.29002 1.68998L7.26002 2.08998C7.26002 2.18998 7.17002 2.25998 7.07002 2.25998L7.06002 2.24998ZM6.53002 1.87998L6.88002 1.90998V1.77998L6.54002 1.74998V1.87998H6.53002ZM6.38002 1.55998V1.58998L6.39002 1.57998C6.39002 1.57998 6.39002 1.56998 6.38002 1.55998Z" fill="#E31937"/>
</g>
</g>
</svg>
