<svg width="12" height="13" viewBox="0 0 12 13" fill="none" xmlns="http://www.w3.org/2000/svg">
<g id="Group 9650">
<path id="Vector" d="M6 12.83C9.31371 12.83 12 10.1437 12 6.83002C12 3.51631 9.31371 0.830017 6 0.830017C2.68629 0.830017 0 3.51631 0 6.83002C0 10.1437 2.68629 12.83 6 12.83Z" fill="white"/>
<g id="Group">
<path id="Vector_2" d="M3.40002 11.39C3.40002 11.39 3.28002 11.32 3.23002 11.29C3.11002 11.21 2.99002 11.12 2.88002 11.02C2.56002 10.72 2.37002 10.31 2.36002 9.87003C2.34002 9.03003 3.07002 8.36003 3.72002 7.95003C4.18002 7.66003 4.70002 7.46003 5.24002 7.34003H6.74002C7.27002 7.46003 7.79002 7.66003 8.26002 7.95003C8.91002 8.36003 9.64002 9.03003 9.62002 9.87003C9.61002 10.31 9.42002 10.72 9.10002 11.02C8.99002 11.12 8.88002 11.21 8.75002 11.29C8.71002 11.32 8.61002 11.35 8.58002 11.39H3.40002Z" fill="white"/>
<path id="Vector_3" d="M8.65003 11.49H8.60003H3.36003L3.33003 11.45C3.33003 11.45 3.28003 11.42 3.26003 11.41C3.23003 11.4 3.21003 11.39 3.19003 11.38C3.06003 11.3 2.94003 11.2 2.83003 11.1C2.49003 10.77 2.29003 10.34 2.28003 9.88C2.25003 8.92 3.15003 8.21 3.69003 7.87C4.14003 7.59 4.66003 7.38 5.24003 7.25H6.76003C7.36003 7.38 7.88003 7.59 8.33003 7.87C8.87003 8.21 9.76003 8.92 9.74003 9.88C9.73003 10.34 9.53003 10.77 9.19003 11.1C9.09003 11.2 8.97003 11.29 8.83003 11.38C8.81003 11.39 8.79003 11.4 8.76003 11.41C8.74003 11.42 8.70003 11.44 8.69003 11.45L8.66003 11.49H8.65003ZM3.45003 11.29H8.56003C8.56003 11.29 8.63003 11.25 8.67003 11.23C8.69003 11.23 8.70003 11.22 8.71003 11.21C8.84003 11.13 8.95003 11.04 9.04003 10.96C9.34003 10.67 9.52003 10.28 9.53003 9.88C9.55003 9.02 8.72003 8.36 8.22003 8.05C7.79003 7.78 7.29003 7.58 6.73003 7.45H5.25003C4.71003 7.57 4.21003 7.77 3.78003 8.05C3.28003 8.36 2.44003 9.02 2.47003 9.88C2.48003 10.29 2.65003 10.67 2.96003 10.96C3.06003 11.06 3.17003 11.14 3.29003 11.22C3.30003 11.22 3.32003 11.23 3.34003 11.24C3.38003 11.26 3.42003 11.28 3.45003 11.3V11.29Z" fill="#333333"/>
</g>
<path id="Vector_4" d="M6 2.49001C8.39 2.49001 10.33 4.43001 10.33 6.82001C10.33 9.21001 8.39 11.15 6 11.15C3.61 11.15 1.67 9.22001 1.67 6.83001C1.67 4.44001 3.61 2.49001 6 2.49001ZM6 0.820007C2.69 0.830007 0 3.51001 0 6.83001C0 10.15 2.69 12.83 6 12.83C9.31 12.83 12 10.14 12 6.83001C12 3.52001 9.31 0.830007 6 0.830007V0.820007Z" fill="#DAD9D9"/>
<g id="Group_2">
<path id="Vector_5" d="M5.97986 2.41999C5.97986 2.41999 6.10986 0.409989 6.56986 0.239989C7.02986 0.0699891 7.34986 0.819989 6.68986 1.04999C6.73986 1.02999 6.85986 1.14999 6.88986 1.17999C7.14986 1.47999 6.86986 1.75999 6.55986 1.79999C6.55986 1.79999 6.69986 2.32999 5.97986 2.41999Z" fill="#E31937"/>
<path id="Vector_6" d="M5.97988 2.51999C5.97988 2.51999 5.92988 2.51999 5.90988 2.48999C5.88988 2.46999 5.87988 2.43999 5.87988 2.40999C5.89988 2.05999 6.03988 0.329991 6.52988 0.139991C6.68988 0.0799909 6.85988 0.0999909 6.97988 0.209991C7.11988 0.319991 7.17988 0.509991 7.14988 0.689991C7.12988 0.779991 7.07988 0.939991 6.89988 1.04999C6.91988 1.06999 6.93988 1.08999 6.95988 1.10999C7.07988 1.24999 7.11988 1.39999 7.05988 1.54999C6.99988 1.69999 6.84988 1.82999 6.65988 1.87999C6.65988 1.96999 6.65988 2.09999 6.56988 2.21999C6.45988 2.37999 6.25988 2.47999 5.98988 2.51999C5.98988 2.51999 5.98988 2.51999 5.97988 2.51999ZM6.70988 0.309991C6.70988 0.309991 6.63988 0.309991 6.60988 0.329991C6.34988 0.429991 6.15988 1.49999 6.08988 2.29999C6.23988 2.25999 6.34988 2.19999 6.40988 2.10999C6.49988 1.97999 6.45988 1.82999 6.45988 1.82999C6.45988 1.79999 6.45988 1.76999 6.46988 1.74999C6.47988 1.72999 6.50988 1.70999 6.53988 1.70999C6.69988 1.68999 6.83988 1.58999 6.87988 1.48999C6.90988 1.41999 6.87988 1.33999 6.80988 1.24999C6.77988 1.21999 6.71988 1.16999 6.69988 1.14999C6.65988 1.14999 6.60988 1.12999 6.59988 1.07999C6.57988 1.02999 6.59988 0.969991 6.65988 0.949991C6.82988 0.889991 6.93988 0.779991 6.95988 0.649991C6.97988 0.539991 6.93988 0.429991 6.85988 0.359991C6.80988 0.319991 6.75988 0.299991 6.70988 0.299991V0.309991Z" fill="#333333"/>
</g>
<path id="Vector_7" d="M3.44008 8.40999C2.73008 8.05999 2.29008 7.28999 2.18008 6.33999C1.98008 4.55999 2.99008 2.61999 4.76008 2.07999C5.20008 1.94999 5.72008 1.89999 6.17008 1.90999C7.92008 1.95999 9.34008 3.20999 9.73008 4.87999C9.94008 5.77999 9.85008 6.98999 9.32008 7.77999C9.13008 8.05999 8.83008 8.38999 8.50008 8.49999" fill="white"/>
<path id="Vector_8" d="M8.49998 8.58999C8.49998 8.58999 8.41998 8.55999 8.40998 8.51999C8.38998 8.46999 8.40998 8.40999 8.46998 8.38999C8.84998 8.25999 9.14998 7.83999 9.23998 7.70999C9.77998 6.90999 9.82998 5.70999 9.63998 4.87999C9.25998 3.21999 7.82998 2.03999 6.17998 1.98999C5.69998 1.97999 5.18998 2.03999 4.79998 2.15999C2.99998 2.70999 2.10998 4.69999 2.28998 6.31999C2.38998 7.25999 2.82998 7.98999 3.48998 8.31999C3.53998 8.33999 3.55998 8.39999 3.53998 8.44999C3.50998 8.49999 3.44998 8.51999 3.40998 8.49999C2.68998 8.13999 2.20998 7.35999 2.08998 6.34999C1.89998 4.65999 2.83998 2.55999 4.73998 1.97999C5.15998 1.84999 5.66998 1.79999 6.17998 1.79999C7.92998 1.84999 9.42998 3.09999 9.82998 4.84999C10.03 5.71999 9.97998 6.97999 9.39998 7.82999C9.30998 7.96999 8.95998 8.43999 8.52998 8.58999C8.51998 8.58999 8.50998 8.58999 8.49998 8.58999Z" fill="#333333"/>
<path id="Vector_9" d="M5.53009 4.90998C5.53009 4.83998 5.46009 4.78998 5.40009 4.78998C5.33009 4.78998 5.28009 4.85998 5.29009 4.91998C5.29009 4.98998 5.36009 5.03998 5.42009 5.02998C5.49009 5.02998 5.54009 4.95998 5.54009 4.89998L5.53009 4.90998Z" fill="#333333"/>
<path id="Vector_10" d="M7.20997 5.55C7.19997 5.39 7.05997 5.27 6.88997 5.28C6.72997 5.29 6.60997 5.43 6.61997 5.6C6.62997 5.76 6.76997 5.88 6.93997 5.87C7.09997 5.86 7.21997 5.72 7.20997 5.55Z" fill="#FFBEBE"/>
<path id="Vector_11" d="M5.26002 5.50001C5.25002 5.34001 5.11002 5.22001 4.94002 5.23001C4.78002 5.24001 4.66002 5.38001 4.67002 5.55001C4.68002 5.71001 4.82002 5.83001 4.99002 5.82001C5.15002 5.81001 5.27002 5.67001 5.26002 5.50001Z" fill="#FFBEBE"/>
<g id="Group_3">
<path id="Vector_12" d="M5.93007 6.17998L5.75007 5.82998L5.57007 5.47998H5.95007L6.33007 5.49998L6.13007 5.83998L5.93007 6.17998Z" fill="#E31937"/>
<path id="Vector_13" d="M5.93008 6.28C5.93008 6.28 5.86008 6.26 5.84008 6.23L5.48008 5.53C5.48008 5.53 5.46008 5.46 5.48008 5.43C5.50008 5.4 5.54008 5.39 5.57008 5.38L6.33008 5.4C6.33008 5.4 6.40008 5.42 6.41008 5.45C6.43008 5.48 6.43008 5.52 6.41008 5.55L6.01008 6.23C6.01008 6.23 5.96008 6.28 5.92008 6.28H5.93008ZM5.73008 5.59L5.93008 5.98L6.15008 5.6H5.73008V5.59Z" fill="#333333"/>
</g>
<path id="Vector_14" d="M6.64993 5.12997C6.64993 5.12997 6.59993 5.12997 6.58993 5.10997C6.56993 5.08997 6.46993 5.07997 6.39993 5.07997C6.39993 5.07997 6.33993 5.05997 6.31993 5.03997C6.29993 5.00997 6.29993 4.97997 6.31993 4.94997C6.37993 4.79997 6.61993 4.73997 6.68993 4.71997C6.74993 4.70997 6.79993 4.73997 6.80993 4.79997C6.81993 4.84997 6.78993 4.90997 6.72993 4.91997C6.70993 4.91997 6.68993 4.91997 6.67993 4.92997C6.69993 4.92997 6.71993 4.94997 6.72993 4.95997C6.76993 4.99997 6.77993 5.05997 6.73993 5.09997C6.71993 5.11997 6.68993 5.13997 6.65993 5.13997L6.64993 5.12997Z" fill="#333333"/>
</g>
</svg>
