<svg xmlns="http://www.w3.org/2000/svg" width="26" height="26" viewBox="0 0 26 26">
  <g id="icon-26-Cart" transform="translate(-9)">
    <rect id="사각형_188" data-name="사각형 188" width="26" height="26" transform="translate(9)" fill="none"/>
    <path id="icon-gnb-2020-cart" d="M20.974,22.205a3.049,3.049,0,1,1-3.049,3.049A3.076,3.076,0,0,1,20.974,22.205Zm-9.7,0a3.049,3.049,0,1,1-3.049,3.049A3.076,3.076,0,0,1,11.273,22.205Zm9.7,1.94a1.109,1.109,0,1,0,1.109,1.109A1.1,1.1,0,0,0,20.974,24.145Zm-9.7,0a1.109,1.109,0,1,0,1.109,1.109A1.094,1.094,0,0,0,11.273,24.145ZM4.648,3.8A1.527,1.527,0,0,1,6.062,4.826v.055l.832,3.1H25.769a1.329,1.329,0,0,1,1.3,1.608v.055L24.411,19.71a1.482,1.482,0,0,1-1.358,1.081H9.138a1.49,1.49,0,0,1-1.414-1.026L7.7,19.71,4.066,6.017H1.1V3.8Zm19.957,6.4H7.475l2.217,8.371H22.415Z" transform="translate(7.9 -2.801)"/>
  </g>
</svg>
