<svg id="icon-26-mypage" xmlns="http://www.w3.org/2000/svg" width="26" height="26" viewBox="0 0 26 26">
  <rect id="사각형_189" data-name="사각형 189" width="26" height="26" fill="none"/>
  <path id="icon-gnb-2020-login" d="M25,15.5a8.989,8.989,0,0,1,9,8.734v2.235a1.408,1.408,0,0,1-1.406,1.406H17.406A1.408,1.408,0,0,1,16,26.469V24.234A8.989,8.989,0,0,1,25,15.5Zm0,2.25a6.794,6.794,0,0,0-6.75,6.484v1.391h13.5V24.234A6.794,6.794,0,0,0,25,17.75ZM25,2a6.188,6.188,0,1,1-6.187,6.188A6.2,6.2,0,0,1,25,2Zm0,2.25a3.938,3.938,0,1,0,3.938,3.938A3.942,3.942,0,0,0,25,4.25Z" transform="translate(-12 -2)"/>
</svg>
