<svg xmlns="http://www.w3.org/2000/svg" width="36" height="36" viewBox="0 0 36 36">
  <g id="그룹_1293" data-name="그룹 1293" transform="translate(-1993 -1821)">
    <path id="패스_3817" d="M18,0A18,18,0,1,1,0,18,18,18,0,0,1,18,0Z" transform="translate(1993 1821)"/>
    <path id="패스_452" data-name="패스 452" d="M78.949-148.389a2.183,2.183,0,0,0-1.541-1.541,52.082,52.082,0,0,0-6.81-.364,52.08,52.08,0,0,0-6.81.364,2.183,2.183,0,0,0-1.541,1.541,22.679,22.679,0,0,0-.364,4.2,22.678,22.678,0,0,0,.364,4.2,2.183,2.183,0,0,0,1.541,1.541,52.1,52.1,0,0,0,6.81.364,52.1,52.1,0,0,0,6.81-.364A2.183,2.183,0,0,0,78.949-140a22.678,22.678,0,0,0,.364-4.2A22.679,22.679,0,0,0,78.949-148.389Zm-10.094,6.81v-5.229l4.528,2.615Z" transform="translate(1940.514 1982.872)" fill="#fff"/>
  </g>
</svg>
