<svg xmlns="http://www.w3.org/2000/svg" width="14" height="14" viewBox="0 0 14 14">
  <g id="icon-16-midium-location" transform="translate(0.179 0.179)">
    <path id="패스_320" data-name="패스 320" d="M449.673,144.167a4.3,4.3,0,0,0-4.3,4.3c0,2.18,3.438,6.909,3.83,7.44a.579.579,0,0,0,.932,0c.392-.531,3.83-5.26,3.83-7.44A4.3,4.3,0,0,0,449.673,144.167Zm.073,5.986a1.545,1.545,0,1,1,1.545-1.545A1.545,1.545,0,0,1,449.745,150.153Z" transform="translate(-442.903 -143.327)" fill="none" stroke="#000" stroke-width="1.5"/>
    <rect id="사각형_237" data-name="사각형 237" width="14" height="14" transform="translate(-0.179 -0.179)" fill="none"/>
  </g>
</svg>
