<svg xmlns="http://www.w3.org/2000/svg" width="36" height="36" viewBox="0 0 36 36">
  <g id="그룹_1294" data-name="그룹 1294" transform="translate(-2045 -1821)">
    <path id="패스_3817" d="M18,0A18,18,0,1,1,0,18,18,18,0,0,1,18,0Z" transform="translate(2045 1821)"/>
    <g id="그룹_1179" data-name="그룹 1179" transform="translate(703.447 908.412)">
      <path id="패스_446" data-name="패스 446" d="M1393.87,957.774h-6.143a2.721,2.721,0,0,0-2.721,2.721v6.143a2.721,2.721,0,0,0,2.721,2.721h6.143a2.721,2.721,0,0,0,2.721-2.721v-6.143A2.721,2.721,0,0,0,1393.87,957.774Zm-3.071,9.477a3.685,3.685,0,1,1,3.684-3.684A3.684,3.684,0,0,1,1390.8,967.251Zm3.807-6.651a.858.858,0,1,1,.858-.858A.859.859,0,0,1,1394.606,960.6Z" transform="translate(-31.661 -32.516)" fill="none"/>
      <path id="패스_447" data-name="패스 447" d="M1362.139,923.915h-6a4.1,4.1,0,0,0-4.1,4.1v6a4.1,4.1,0,0,0,4.1,4.1h6a4.1,4.1,0,0,0,4.1-4.1v-6A4.1,4.1,0,0,0,1362.139,923.915Zm2.791,10.207a2.721,2.721,0,0,1-2.721,2.721h-6.143a2.721,2.721,0,0,1-2.721-2.721v-6.143a2.721,2.721,0,0,1,2.721-2.721h6.143a2.721,2.721,0,0,1,2.721,2.721Z" transform="translate(0)" fill="#fff"/>
      <path id="패스_448" data-name="패스 448" d="M1441.834,1010.918a3.685,3.685,0,1,0,3.684,3.685A3.685,3.685,0,0,0,1441.834,1010.918Zm0,6.073a2.388,2.388,0,1,1,2.388-2.388A2.388,2.388,0,0,1,1441.834,1016.991Z" transform="translate(-82.697 -83.552)" fill="#fff"/>
      <path id="패스_449" data-name="패스 449" d="M1606.249,985.745a.858.858,0,1,0,.858.858A.858.858,0,0,0,1606.249,985.745Z" transform="translate(-243.305 -59.377)" fill="#fff"/>
    </g>
  </g>
</svg>
