<svg xmlns="http://www.w3.org/2000/svg" width="36" height="36" viewBox="0 0 36 36">
  <g id="그룹_1295" data-name="그룹 1295" transform="translate(-2097 -1821)">
    <path id="패스_3817" d="M18,0A18,18,0,1,1,0,18,18,18,0,0,1,18,0Z" transform="translate(2097 1821)"/>
    <path id="패스_453" data-name="패스 453" d="M-323.191,662.766l-.119-.248-.2-.157c-.263-.205-1.59.014-1.948-.31-.253-.234-.291-.654-.368-1.222a3.526,3.526,0,0,0-.406-1.532,4.968,4.968,0,0,0-3.485-2.463h-3.156a4.527,4.527,0,0,0-4.512,4.516v5.266a4.522,4.522,0,0,0,4.512,4.507h5.185a4.532,4.532,0,0,0,4.512-4.507l.029-3.647Zm-9.625-2.244h2.5a.863.863,0,0,1,.864.859.867.867,0,0,1-.864.864h-2.5a.867.867,0,0,1-.864-.864A.863.863,0,0,1-332.815,660.522Zm5.084,6.884h-5.084a.866.866,0,0,1-.864-.859.863.863,0,0,1,.864-.859h5.084a.862.862,0,0,1,.859.859A.865.865,0,0,1-327.731,667.406Z" transform="translate(2445.452 1175.233)" fill="#fff"/>
  </g>
</svg>
