<svg id="SNS_Blog_default" xmlns="http://www.w3.org/2000/svg" width="36" height="36" viewBox="0 0 36 36">
  <path id="패스_3817" d="M18,0A18,18,0,1,1,0,18,18,18,0,0,1,18,0Z"/>
  <g id="Group_1307" data-name="Group 1307" transform="translate(-42.17 -382.877)">
    <path id="Path_458" data-name="Path 458" d="M72.017,413.676H73.08l-.51-1.6Z" transform="translate(-14.234 -12.799)" fill="#fff"/>
    <path id="Path_459" data-name="Path 459" d="M59.9,393.369c-4.8,0-8.688,3.075-8.688,6.869a6.712,6.712,0,0,0,4.122,5.844c-.182.678-.658,2.458-.754,2.839-.117.473.173.466.364.339.149-.1,2.381-1.617,3.344-2.271a10.952,10.952,0,0,0,1.613.118c4.8,0,8.688-3.075,8.688-6.868S64.7,393.369,59.9,393.369ZM55.651,402.1c0,.422-.939.4-.941-.022,0-.58,0-3.1,0-3.1H53.8c-.53,0-.532-.931,0-.931h2.754c.563,0,.562.954,0,.954a4.671,4.671,0,0,0-.9.066Zm3.575.127c-.22-.581-.163-.607-.163-.607H57.406l-.18.634c-.193.444-1.026.082-.833-.362.267-.615,1.072-2.932,1.3-3.423a.524.524,0,0,1,.508-.272.685.685,0,0,1,.6.272c.16.343,1.041,2.76,1.295,3.432C60.265,402.372,59.4,402.7,59.227,402.228Zm3.4.209-1.818,0c-.432,0-.36-.5-.36-.5s0-2.538,0-3.325a.5.5,0,0,1,.98,0c0,.57,0,2.918,0,2.918s.776,0,1.2,0S63.049,402.436,62.623,402.436Zm2.962-.071-1.194-1.629-.273.219s0,.8,0,1.228c0,.365-.929.366-.93,0,0-.232.02-3.354.011-3.7-.005-.19.239-.289.478-.289s.441.086.446.264c.013.469,0,1.315,0,1.315s1.347-1.349,1.539-1.539.811.42.613.617c-.339.337-1.2,1.268-1.2,1.268l1.267,1.669C66.585,402.109,65.826,402.684,65.585,402.365Z" transform="translate(0.104 0.096)" fill="#fff"/>
  </g>
</svg>
