<svg xmlns="http://www.w3.org/2000/svg" width="141.992" height="22.004" viewBox="0 0 141.992 22.004">
  <g id="logo_samsung_white" transform="translate(-0.008 0.002)">
    <g id="그룹_421" data-name="그룹 421">
      <path id="패스_40" data-name="패스 40" d="M365.717,144.178l-.278-16.128h5.026v20.333h-7.227l-5.009-16.68h-.111l.279,16.68h-5V128.051h7.536l4.662,16.128Z" transform="translate(-248.179 -127.397)"/>
      <path id="패스_41" data-name="패스 41" d="M274.406,129.956,271.634,148.6h-5.488l3.76-20.545h9.03l3.742,20.545h-5.454l-2.706-18.639Z" transform="translate(-248.179 -127.397)"/>
      <path id="패스_42" data-name="패스 42" d="M298.068,143.76l2.5-15.71h8.275l.447,20.545h-5.076l-.129-18.467h-.109L300.588,148.6h-5.151l-3.389-18.467h-.113l-.128,18.467h-5.079l.447-20.545h8.277l2.5,15.71Z" transform="translate(-248.179 -127.397)"/>
      <path id="패스_43" data-name="패스 43" d="M257.607,142.8a2.745,2.745,0,0,1,.041,1.523,1.761,1.761,0,0,1-1.978,1.378,1.825,1.825,0,0,1-2.042-1.861v-1.99h-5.441v1.584c0,4.582,3.565,5.965,7.377,5.965,3.673,0,6.691-1.268,7.174-4.7a10.124,10.124,0,0,0-.022-3.366c-.856-4.307-8.558-5.589-9.129-7.994a2.626,2.626,0,0,1-.024-1.078,1.68,1.68,0,0,1,1.855-1.378,1.738,1.738,0,0,1,1.884,1.861v1.27h5.065v-1.445c0-4.474-3.97-5.174-6.843-5.174-3.606,0-6.556,1.21-7.1,4.56a7.122,7.122,0,0,0,.048,2.771C249.348,138.926,256.559,140.14,257.607,142.8Z" transform="translate(-248.179 -127.397)"/>
      <path id="패스_44" data-name="패스 44" d="M323.584,142.759a2.7,2.7,0,0,1,.04,1.506,1.74,1.74,0,0,1-1.958,1.364,1.8,1.8,0,0,1-2.019-1.842v-1.97h-5.388v1.569c0,4.537,3.529,5.907,7.3,5.907,3.634,0,6.623-1.254,7.1-4.652a9.986,9.986,0,0,0-.022-3.331c-.847-4.262-8.471-5.53-9.038-7.912a2.6,2.6,0,0,1-.023-1.066,1.663,1.663,0,0,1,1.835-1.369,1.721,1.721,0,0,1,1.866,1.846v1.255h5.017v-1.43c0-4.43-3.931-5.121-6.778-5.121-3.568,0-6.489,1.194-7.023,4.514a7.068,7.068,0,0,0,.05,2.743C315.41,138.923,322.549,140.126,323.584,142.759Z" transform="translate(-248.179 -127.397)"/>
      <path id="패스_45" data-name="패스 45" d="M340.62,145.518a1.832,1.832,0,0,0,1.948-1.491,4.181,4.181,0,0,0,.046-.782v-15.2h5.136v14.731c.008.378-.032,1.148-.05,1.351-.356,3.832-3.348,5.077-7.081,5.077s-6.725-1.245-7.081-5.077c-.018-.2-.057-.973-.047-1.351V128.048h5.133v15.2a3.994,3.994,0,0,0,.05.782,1.828,1.828,0,0,0,1.946,1.488Z" transform="translate(-248.179 -127.397)"/>
      <path id="패스_46" data-name="패스 46" d="M382.949,145.306a1.9,1.9,0,0,0,2.074-1.493,4.563,4.563,0,0,0,.05-.78v-2.98h-2.082v-2.995h7.188v5.507a13.4,13.4,0,0,1-.073,1.352c-.336,3.74-3.538,5.074-7.136,5.074s-6.8-1.333-7.138-5.074a13.078,13.078,0,0,1-.073-1.352v-8.644c0-.366.045-1.008.087-1.352.453-3.841,3.522-5.076,7.122-5.076s6.749,1.224,7.125,5.076a13.318,13.318,0,0,1,.045,1.352v.683H385.02v-1.151a4.6,4.6,0,0,0-.065-.784,1.854,1.854,0,0,0-2.026-1.491,1.884,1.884,0,0,0-2.022,1.491,5.015,5.015,0,0,0-.081.973v9.39a4.562,4.562,0,0,0,.048.78A1.9,1.9,0,0,0,382.949,145.306Z" transform="translate(-248.179 -127.397)"/>
    </g>
  </g>
</svg>
