<svg xmlns="http://www.w3.org/2000/svg" xmlns:xlink="http://www.w3.org/1999/xlink" width="98" height="88" viewBox="0 0 98 88">
  <defs>
    <clipPath id="clip-path">
      <rect id="롯데_맛진_로고5" width="98" height="88" transform="translate(625.193 1475.904)" fill="#fff"/>
    </clipPath>
  </defs>
  <g id="마스크_그룹_5" data-name="마스크 그룹 5" transform="translate(-625.193 -1475.904)" clip-path="url(#clip-path)">
    <g id="맛진로고_세로형" transform="translate(625.193 1476.964)">
      <g id="그룹_37621" data-name="그룹 37621" transform="translate(89.988 77.137)">
        <g id="그룹_37620" data-name="그룹 37620">
          <path id="패스_7763" data-name="패스 7763" d="M93.281,84.255a10,10,0,0,1-2.893,1.076l-.4-.65a8.4,8.4,0,0,0,2.671-.919Zm-2.76-.516V79.211h.8v3.878h6.588v.65ZM97.643,77.6a1.235,1.235,0,0,1-.423.919,2.093,2.093,0,0,1-1,.269c-.757.023-1.959.045-2.938.045a8.176,8.176,0,0,1-1.335-.067c-.531-.09-.779-.291-.779-.7V76.588h.8v.605a23.109,23.109,0,0,0,4.118-.605l.468.583a34.236,34.236,0,0,1-4.585.561v.134c0,.247.354.314,1.069.357.289,0,.779.023,1.09.023,1.691,0,2.2-.067,2.471-.247.156-.112.2-.269.245-.628Zm-5.587,5.044V79.279h5.03v3.362Zm.8-2.378h3.43V79.84H92.86Zm0,.9h3.43v-.471H92.86Zm0,.919h3.43v-.471H92.86Zm4.7,3.205a11.524,11.524,0,0,1-2.76-1.031l.531-.493a11.086,11.086,0,0,0,2.648.829Z" transform="translate(-89.988 -76.588)" fill="#fff"/>
        </g>
      </g>
      <g id="그룹_37630" data-name="그룹 37630" transform="translate(0 66.601)">
        <g id="그룹_37623" data-name="그룹 37623">
          <g id="그룹_37622" data-name="그룹 37622">
            <path id="패스_7764" data-name="패스 7764" d="M1.069,66.127H20.5v2.78L4.741,81.371H20.767v2.78H0v-2.78L15.759,68.907H1.069v-2.78Z" transform="translate(0 -66.127)" fill="#fff"/>
          </g>
        </g>
        <g id="그룹_37625" data-name="그룹 37625" transform="translate(22.636 0)">
          <g id="그룹_37624" data-name="그룹 37624">
            <path id="패스_7765" data-name="패스 7765" d="M22.9,66.127H35.145v2.69h-4.63V81.5h4.9V84.2H22.636v-2.69h4.875V68.818h-4.6v-2.69Z" transform="translate(-22.636 -66.127)" fill="#fff"/>
          </g>
        </g>
        <g id="그룹_37627" data-name="그룹 37627" transform="translate(37.547 0)">
          <g id="그룹_37626" data-name="그룹 37626">
            <path id="패스_7766" data-name="패스 7766" d="M37.547,66.127h3.07L55.263,80.159V66.127h3.07V84.173h-3.07L40.617,70.14V84.173h-3.07Z" transform="translate(-37.547 -66.127)" fill="#fff"/>
          </g>
        </g>
        <g id="그룹_37629" data-name="그룹 37629" transform="translate(60.162 0)">
          <g id="그룹_37628" data-name="그룹 37628">
            <path id="패스_7767" data-name="패스 7767" d="M60.162,66.127H80.929v2.78H63.234v2.757H80.661v2.781H63.234v6.927H80.929v2.78H60.162Z" transform="translate(-60.162 -66.127)" fill="#fff"/>
          </g>
        </g>
      </g>
      <g id="그룹_37633" data-name="그룹 37633" transform="translate(2.582)">
        <g id="그룹_37632" data-name="그룹 37632">
          <g id="그룹_37631" data-name="그룹 37631">
            <path id="패스_7768" data-name="패스 7768" d="M2.582.874H57.936V26.251H2.582Zm0,49.788c19.275,0,33.831-2.466,33.831-15.625V29.68h9.772v5.358c0,13.159,14.557,15.625,33.831,15.625v9.3C63.191,59.966,47.5,58.4,41.31,48.735,35.033,58.4,19.342,59.966,2.6,59.966v-9.3ZM12.776,17.124H47.72V10H12.776ZM65.86,0H76.054V7.891H84.6v9.3H76.054v9.034H65.86Z" transform="translate(-2.582)" fill="#fff"/>
          </g>
        </g>
      </g>
      <g id="그룹_37639" data-name="그룹 37639" transform="translate(88.941 0.067)">
        <g id="그룹_37634" data-name="그룹 37634" transform="translate(0.665)">
          <path id="패스_7769" data-name="패스 7769" d="M89.631.067h7.656V1.1H94.06v5.74H92.923V1.1H89.606V.067Z" transform="translate(-89.606 -0.067)" fill="#fff"/>
        </g>
        <g id="그룹_37635" data-name="그룹 37635" transform="translate(0 10.916)">
          <path id="패스_7770" data-name="패스 7770" d="M98,17.564H96.731l-1.157-2.04H91.367l-1.157,2.04H88.941L92.725,10.9h1.469Zm-6.054-3.071h3.027l-1.491-2.667Z" transform="translate(-88.941 -10.905)" fill="#fff"/>
        </g>
        <g id="그룹_37636" data-name="그룹 37636" transform="translate(0.7 21.834)">
          <path id="패스_7771" data-name="패스 7771" d="M95.2,23.785a2.017,2.017,0,0,1,2.115,2.309A2.017,2.017,0,0,1,95.2,28.4H89.853V27.374h5.275c.69,0,1.09-.448,1.09-1.278s-.422-1.279-1.09-1.279H91.167a1.536,1.536,0,0,1,0-3.071h5.765v1.031H91.367c-.4,0-.6.157-.6.516s.2.516.6.516H95.2Z" transform="translate(-89.642 -21.746)" fill="#fff"/>
        </g>
        <g id="그룹_37637" data-name="그룹 37637" transform="translate(0.665 32.729)">
          <path id="패스_7772" data-name="패스 7772" d="M89.631,32.563h7.656v1.031H94.06v5.739H92.923V33.594H89.606V32.563Z" transform="translate(-89.606 -32.563)" fill="#fff"/>
        </g>
        <g id="그룹_37638" data-name="그룹 37638" transform="translate(0.355 43.624)">
          <path id="패스_7773" data-name="패스 7773" d="M94.038,50.15H92.9V47.527L89.3,43.38h1.491l2.693,3.092L96.175,43.4h1.491l-3.628,4.147v2.6Z" transform="translate(-89.297 -43.38)" fill="#fff"/>
        </g>
      </g>
    </g>
  </g>
</svg>
