<?xml version="1.0" encoding="UTF-8"?><svg id="Layer_2" xmlns="http://www.w3.org/2000/svg" viewBox="0 0 75.33 32.76"><defs><style>.cls-1{fill:#b92c35;fill-rule:evenodd;}</style></defs><g id="Layer_1-2"><path class="cls-1" d="m70.99,32.76v-8.71c0-.34-.27-.61-.61-.61h-15.29c-1.2,0-2.17-.97-2.17-2.17v-9.77c0-1.19.97-2.17,2.17-2.17h18.08c1.2,0,2.17.98,2.17,2.17v18.58s-4.35,2.68-4.35,2.68Zm0-19.81c0-.33-.27-.6-.61-.6h-12.46c-.33,0-.61.27-.61.6v6.86c0,.33.28.6.61.6h12.46c.33,0,.6-.26.61-.6,0,0,0,0,0,0v-6.86Zm-21.49,5.72c-1.21,0-2.2-.97-2.2-2.18.03-1.21,1.03-2.18,2.25-2.15,1.18.03,2.13.97,2.15,2.15,0,1.21-.99,2.18-2.2,2.18Zm-5.6,4.77h-18.08c-1.2,0-2.17-.97-2.18-2.17V2.68l4.35-2.68v8.72c0,.34.27.61.61.61h15.3c1.19,0,2.17.98,2.17,2.17v9.77c0,1.2-.98,2.17-2.18,2.17Zm-2.22-10.48c0-.33-.28-.6-.61-.6h-12.46c-.33,0-.61.27-.61.6v6.86c0,.33.27.6.61.6h12.46c.33,0,.61-.27.61-.6,0,0,0-6.86,0-6.86Zm-21.43,10.49H2.17c-1.2,0-2.17-.97-2.17-2.17V2.68L4.35,0v8.72c0,.34.27.61.61.61h15.29c1.2,0,2.18.98,2.18,2.17v9.77c0,1.2-.98,2.17-2.18,2.17Zm-2.22-10.48c0-.33-.28-.6-.61-.6H4.96c-.33,0-.61.27-.61.6v6.86c0,.33.27.6.61.6h12.46c.33,0,.61-.27.61-.6h0s0-6.86,0-6.86Z"/></g></svg>