<svg xmlns="http://www.w3.org/2000/svg" width="76" height="34">
  <path fill-rule="evenodd" fill="#324266" d="M71.22 33.23v-8.713c0-.34-.27-.613-.608-.613H55.317a2.171 2.171 0 0 1-2.17-2.167v-9.771c0-1.195.974-2.17 2.174-2.17h18.08c1.197 0 2.169.975 2.169 2.17v18.582l-4.35 2.682zm0-19.812a.608.608 0 0 0-.608-.601H58.155a.612.612 0 0 0-.611.601v6.861c0 .331.276.6.611.6h12.457a.603.603 0 0 0 .608-.6v-6.861zm-21.492 5.718c-1.216 0-2.2-.98-2.2-2.183a2.2 2.2 0 0 1 4.398 0 2.195 2.195 0 0 1-2.198 2.183zm-5.596 4.768H26.055a2.174 2.174 0 0 1-2.176-2.167V3.147L28.226.47v8.72c0 .337.274.606.614.606h15.296c1.195 0 2.174.975 2.174 2.17l-.004 9.771a2.175 2.175 0 0 1-2.174 2.167zm-2.223-10.486a.612.612 0 0 0-.612-.601H28.84a.612.612 0 0 0-.614.601v6.861c0 .331.274.6.614.6h12.457a.608.608 0 0 0 .612-.6v-6.861zM20.484 23.904H2.408a2.17 2.17 0 0 1-2.173-2.167V3.147L4.581.47v8.72c0 .337.274.606.613.606h15.29c1.202 0 2.177.975 2.177 2.17v9.771a2.175 2.175 0 0 1-2.177 2.167zm-2.22-10.486a.612.612 0 0 0-.612-.601H5.194a.611.611 0 0 0-.613.601v6.861c0 .331.274.6.613.6h12.458a.607.607 0 0 0 .612-.6v-6.861z"/>
</svg>
