<?xml version="1.0" encoding="UTF-8"?><svg id="Layer_2" xmlns="http://www.w3.org/2000/svg" viewBox="0 0 165.25 78.78"><defs><style>.cls-1{fill:#e60013;}</style></defs><g id="_레이어_1"><path class="cls-1" d="m142.53,33.59h-22.81c-.61,0-1.12.51-1.12,1.11v12.62c0,.61.5,1.1,1.12,1.1h22.81c.62,0,1.11-.49,1.11-1.1v-12.62c0-.6-.49-1.11-1.11-1.11Z"/><path class="cls-1" d="m45.54,33.59h-22.81c-.62,0-1.12.51-1.12,1.11v12.62c0,.61.5,1.1,1.12,1.1h22.81c.62,0,1.12-.49,1.12-1.1v-12.62c0-.6-.5-1.11-1.12-1.11Z"/><path class="cls-1" d="m88.84,33.59h-22.81c-.62,0-1.12.51-1.12,1.11v12.62c0,.61.5,1.1,1.12,1.1h22.81c.62,0,1.12-.49,1.12-1.1v-12.62c0-.6-.51-1.11-1.12-1.11Z"/><path class="cls-1" d="m152.27,0H12.99C5.83,0,0,5.82,0,12.97v52.85c0,7.17,5.83,12.97,12.99,12.97h139.28c7.15,0,12.97-5.8,12.97-12.97V12.97c0-7.15-5.82-12.97-12.97-12.97ZM54.71,50.01c0,2.2-1.79,3.99-3.99,3.99H17.62c-2.2,0-3.98-1.79-3.98-3.99V15.79l7.96-4.93v16.05c0,.62.5,1.12,1.12,1.12h28c2.2,0,3.99,1.79,3.99,3.99v17.98Zm43.3,0c0,2.2-1.79,3.99-3.98,3.99h-33.1c-2.2,0-3.99-1.79-3.99-3.99V15.79l7.96-4.93v16.05c0,.62.5,1.12,1.12,1.12h28.01c2.19,0,3.98,1.79,3.98,3.99v17.98Zm6.27-4.79c-2.23,0-4.03-1.8-4.03-4.02s1.8-4.04,4.03-4.04,4.03,1.81,4.03,4.04-1.81,4.02-4.03,4.02Zm47.33,21l-7.97,4.94v-16.04c0-.63-.49-1.13-1.11-1.13h-28.01c-2.19,0-3.97-1.79-3.97-3.99v-17.98c0-2.2,1.78-3.99,3.98-3.99h33.11c2.19,0,3.97,1.79,3.97,3.99v34.2Z"/></g></svg>