<?xml version="1.0" encoding="UTF-8"?><svg id="Layer_2" xmlns="http://www.w3.org/2000/svg" viewBox="0 0 61.99 29.1"><defs><style>.cls-1{fill:#fff;}</style></defs><g id="Layer_1-2"><path class="cls-1" d="m56.66,29.1H5.34c-2.94,0-5.34-1.48-5.34-4.41V5.31C0,2.38,2.4,0,5.34,0h51.32c2.94,0,5.33,2.38,5.33,5.31v19.39c0,2.93-2.39,4.41-5.33,4.41Zm4.23-23.79c0-2.32-1.9-4.21-4.23-4.21H5.34C3.01,1.1,1.11,2.99,1.11,5.31v19.39c0,2.32,1.9,3.21,4.23,3.21h51.32c2.33,0,4.23-.89,4.23-3.21,0,0,0-19.39,0-19.39Zm-7.41,15.46c0-.23-.18-.41-.41-.41,0,0,0,0,0,0h-10.32c-.81,0-1.46-.66-1.46-1.46v-6.6c0-.81.66-1.47,1.47-1.47h12.2c.81,0,1.46.66,1.46,1.47v12.55l-2.94,1.81v-5.88Zm0-7.49c0-.22-.19-.41-.41-.41h-8.41c-.22,0-.41.18-.41.41v4.63c0,.22.19.41.41.41h8.41c.23,0,.41-.18.41-.41,0,0,0-4.63,0-4.63Zm-14.5,3.86c-.82,0-1.48-.66-1.49-1.47.02-.82.7-1.47,1.52-1.44.79.02,1.42.66,1.44,1.44,0,.82-.67,1.47-1.48,1.47Zm-3.78,3.22h-12.2c-.81,0-1.47-.66-1.47-1.46V6.34l2.93-1.81v5.89c0,.23.18.41.41.41,0,0,0,0,0,0h10.32c.81,0,1.46.66,1.47,1.47v6.6c0,.81-.66,1.46-1.47,1.46Zm-1.5-7.08c0-.23-.19-.41-.41-.41h-8.41c-.23,0-.41.18-.41.41v4.63c0,.22.18.41.41.41h8.41c.23,0,.41-.18.41-.41v-4.63Zm-14.46,7.08H7.05c-.81,0-1.47-.65-1.47-1.46V6.34l2.93-1.81v5.89c0,.23.18.41.41.41,0,0,0,0,0,0h10.32c.81,0,1.47.66,1.47,1.47v6.6c0,.81-.66,1.46-1.47,1.46Zm-1.5-7.08c0-.23-.19-.41-.41-.41h-8.41c-.23,0-.41.18-.41.41v4.63c0,.22.18.41.41.41h8.41c.23,0,.41-.18.41-.4h0v-4.63Z"/></g></svg>