<?xml version="1.0" encoding="UTF-8"?><svg id="Layer_2" xmlns="http://www.w3.org/2000/svg" viewBox="0 0 100.96 126.18"><defs><style>.cls-1{fill:#0d0f85;}</style></defs><g id="Layer_1-2"><path class="cls-1" d="m94.48,76.88l-3.34,9.56-3.66-9.56h-6.64l6.89,16.75-.03.06c-.75,1.5-1.99,1.62-3.54,1.62-.64,0-1.22-.1-1.43-.16l-.22-.06v5.37l.12.04c.62.21,1.44.31,2.56.31,4.08,0,7.24-2.51,9.13-7.26l6.66-16.66h-6.48Z"/><polygon class="cls-1" points="13.84 94.04 20.46 94.04 20.46 72.82 13.84 72.82 13.84 80.78 6.61 80.78 6.61 72.82 0 72.82 0 94.04 6.61 94.04 6.61 86.08 13.84 86.08 13.84 94.04"/><path class="cls-1" d="m52.99,76.55c-1.63,0-3.07.52-4.21,1.52v-1.19h-6.28v21.23h6.28v-5.22c1.13.99,2.54,1.49,4.21,1.49,4.86,0,8.25-3.66,8.25-8.91s-3.39-8.91-8.25-8.91m1.9,8.91c0,2.17-1.32,3.68-3.22,3.68s-3.22-1.51-3.22-3.68,1.32-3.68,3.22-3.68,3.22,1.51,3.22,3.68"/><path class="cls-1" d="m69.23,92.89c1.13.99,2.54,1.49,4.21,1.49,4.86,0,8.25-3.66,8.25-8.91s-3.39-8.91-8.25-8.91c-1.63,0-3.07.52-4.21,1.52v-1.19h-6.28v21.23h6.28v-5.22Zm2.89-11.11c1.9,0,3.22,1.51,3.22,3.68s-1.32,3.68-3.22,3.68-3.22-1.51-3.22-3.68,1.33-3.68,3.22-3.68"/><path class="cls-1" d="m34.3,94.02h6.28v-17.16h-6.28v1.19c-1.14-1-2.58-1.52-4.21-1.52-4.86,0-8.25,3.66-8.25,8.91s3.39,8.91,8.25,8.91c1.67,0,3.08-.5,4.21-1.49v1.16Zm-2.89-4.9c-1.9,0-3.22-1.51-3.22-3.68s1.33-3.68,3.22-3.68,3.22,1.51,3.22,3.68-1.32,3.68-3.22,3.68"/><path class="cls-1" d="m40.23,108.03c-5.37,0-9.57,3.99-9.57,9.07s4.2,9.08,9.57,9.08,9.57-3.99,9.57-9.08-4.2-9.07-9.57-9.07m3.22,9.07c0,2.22-1.29,3.72-3.22,3.72s-3.22-1.49-3.22-3.72,1.29-3.71,3.22-3.71,3.22,1.49,3.22,3.71"/><path class="cls-1" d="m54.43,100.12c-2.04,0-3.64,1.6-3.64,3.64s1.56,3.64,3.64,3.64,3.64-1.56,3.64-3.64-1.56-3.64-3.64-3.64"/><rect class="cls-1" x="51.29" y="108.53" width="6.28" height="17.17"/><path class="cls-1" d="m70.48,108.2c-1.87,0-3.42.89-4.37,2.47l.1-2.14h-6.29v17.16h6.28v-9.73c0-1.65.83-2.63,2.23-2.63,1.48,0,2.36,1.03,2.36,2.76v9.6h6.28v-10.49c0-4.12-2.71-7-6.6-7"/><path class="cls-1" d="m86.74,104.51h-6.22v4.03h-2.64v4.96h2.64v5.55c0,4.23,2.54,6.87,6.63,6.87,1.04,0,1.53-.07,2.53-.23l.15-.02v-5.33l-.2.03c-.21.03-.56.06-1.1.06-1.13,0-1.8-.69-1.8-1.84v-5.09h3.3v-4.96h-3.3v-4.03Z"/><path class="cls-1" d="m21.04,104.46h-10.06v21.23h6.61v-5.05h3.45c4.99,0,8.74-3.47,8.74-8.09s-3.76-8.09-8.74-8.09m-3.45,5.29h2.79c1.61,0,2.73,1.15,2.73,2.79s-1.12,2.79-2.73,2.79h-2.79v-5.58Z"/><path class="cls-1" d="m31.4,8.88c3.28,7.25,10.57,12.29,19.04,12.29s15.76-5.04,19.04-12.29H31.4Z"/><path class="cls-1" d="m56.58,0c0,3.45-2.79,6.24-6.24,6.24s-6.24-2.8-6.24-6.24h12.49Z"/><path class="cls-1" d="m50.45,23.69c-11.59,0-20.99,9.4-20.99,20.99s9.4,20.99,20.99,20.99,20.99-9.4,20.99-20.99-9.4-20.99-20.99-20.99m0,25.31c-2.39,0-4.32-1.93-4.32-4.32s1.94-4.32,4.32-4.32,4.32,1.93,4.32,4.32-1.93,4.32-4.32,4.32"/></g></svg>