<svg xmlns="http://www.w3.org/2000/svg" width="34" height="32" viewBox="0 0 34 32">
  <path id="icon-gnb-2020-cart" d="M27.09,27.836A3.982,3.982,0,1,1,23.1,31.818,3.985,3.985,0,0,1,27.09,27.836Zm-12.685,0a3.982,3.982,0,1,1-3.987,3.982,3.985,3.985,0,0,1,3.987-3.982ZM27.09,30.37a1.438,1.438,0,1,0,1.029.421,1.449,1.449,0,0,0-1.029-.421Zm-12.685,0a1.448,1.448,0,1,0,1.45,1.448A1.43,1.43,0,0,0,14.4,30.37ZM5.74,3.8A2,2,0,0,1,7.589,5.14v.072L8.677,9.26H33.361a1.736,1.736,0,0,1,1.7,2.1v.072L31.585,24.578a1.938,1.938,0,0,1-1.776,1.412h-18.2a1.948,1.948,0,0,1-1.849-1.34l-.031-.072L4.979,6.7H1.1V3.8Zm26.1,8.358H9.437l2.9,10.932H28.975Z" transform="translate(-1.1 -3.8)" fill="#ddd"/>
</svg>
