<?xml version="1.0" encoding="UTF-8"?><svg id="Layer_2" xmlns="http://www.w3.org/2000/svg" viewBox="0 0 65.8 71.5"><defs><style>.cls-1{stroke-width:0px;}.cls-2{fill:none;stroke:#000;stroke-linecap:round;stroke-linejoin:round;stroke-width:3px;}</style></defs><g id="_격리_모드"><polygon class="cls-2" points="38.14 70 3.24 58.3 3.24 37.62 38.14 49.32 38.14 70"/><line class="cls-2" x1="59.56" y1="38.9" x2="59.56" y2="59.58"/><polygon class="cls-2" points="59.56 38.9 38.14 49.32 38.14 70 59.56 59.58 59.56 38.9"/><path class="cls-2" d="m62.21,11.83L31.64,1.59c-1.1-.37-2.23.45-2.23,1.61v4.38l34.9,11.69v-4.53c0-1.32-.84-2.49-2.09-2.91Z"/><polyline class="cls-2" points="29.4 7.58 64.3 19.27 59.56 38.9"/><polygon class="cls-2" points="29.4 7.58 64.3 19.27 59.56 38.9 24.66 27.21 29.4 7.58"/><line class="cls-2" x1="16.19" y1="17.57" x2="16.32" y2="16.13"/><line class="cls-2" x1="7.59" y1="15.77" x2="8.64" y2="17.95"/><line class="cls-2" x1="1.5" y1="21.97" x2="3.06" y2="22.78"/><polyline class="cls-2" points="3.24 37.62 24.66 27.21 24.66 44.69"/><path class="cls-1" d="m9.43,49.61c-.92-.66-1.44-1.06-1.37-1.77.03-.21.09-.33.18-.35.3-.09,1.04.29,1.5.85.42.58.97.6,1.33.35.52-.36.68-1.32.1-2.18-.91-1.31-2.46-2.02-3.68-1.69-.97.27-1.58,1.14-1.67,2.4-.17,2.68,1.34,3.77,2.56,4.64.84.6,1.36,1.01,1.4,1.59-.01.17-.05.56-.25.61-.39.12-1.35-.47-1.85-1.13-.1-.15-.39-.59-.87-.61-.2,0-.51.05-.8.41l-.06.09c-.24.48-.26,1.32.18,1.98.83,1.26,2.3,2.09,3.55,2.09.24,0,.47-.03.69-.09.63-.18,1.68-.81,1.7-2.89.02-2.42-1.45-3.47-2.62-4.31Z"/><path class="cls-1" d="m17.02,47.41h-.03c-.98-.31-1.93-.16-2.69.41-.74.56-1.62,1.76-1.6,4.34.04,3.89,2.11,6.42,4.11,6.9.3.09.59.13.88.13.59,0,1.15-.19,1.64-.55,1.04-.78,1.61-2.31,1.59-4.31-.04-3.76-2.04-6.23-3.89-6.93Zm1.6,6.55c.01,1.04-.24,1.8-.71,2.15-.34.25-.7.22-.94.15-.94-.29-1.96-1.68-1.98-3.71-.01-1.05.24-1.82.71-2.17.19-.15.4-.19.58-.19.12,0,.24.02.33.05.96.29,2,1.7,2.02,3.72Z"/><path class="cls-1" d="m26.44,58.87l-2.32-.7-.07-7.01c0-.61-.34-1.36-.94-1.55-.28-.08-.57-.03-.8.14-.29.22-.46.6-.45,1.06l.09,8.41c0,.75.41,1.39.98,1.56l3.25.98c.12.04.23.05.34.05.44,0,.81-.28.95-.77.24-.79-.16-1.91-1.03-2.17Z"/><path class="cls-1" d="m35.29,56.72c-.54-2.33-1.82-3.96-3.49-4.47l-2.25-.68c-.29-.09-.6-.03-.85.15-.3.22-.47.6-.46,1.04l.08,8.36c0,.88.53,1.44,1.04,1.59l2.34.71c.3.09.6.14.88.14.62,0,1.18-.22,1.65-.66,1.21-1.13,1.65-3.68,1.06-6.18Zm-2.66,3.78c-.2.19-.44.24-.75.15l-1.28-.39-.06-5.55.98.3c.72.22,1.29,1.01,1.56,2.16.31,1.34.11,2.8-.46,3.33Z"/><path class="cls-1" d="m44.56,51.73c-.46-.32-1.01-.41-1.58-.21-1.32.6-2.69,3.05-2.58,7.02.06,2.44.66,4.1,1.68,4.68.25.14.52.22.79.22s.56-.07.83-.22c1.25-.58,2.55-2.97,2.44-6.85-.06-2.31-.62-3.96-1.58-4.63Zm-1.42,8.78c-.08.04-.14.03-.21-.01-.29-.18-.64-.91-.68-2.38-.06-2.17.64-3.51,1.12-3.73.09-.04.16-.04.24.01.29.18.64.91.68,2.37.06,2.17-.65,3.52-1.15,3.74Z"/><path class="cls-1" d="m51.14,48.44c-.22-.12-.48-.11-.7.03-.4.25-.64.88-.62,1.65l.14,5.37c.04,1.57-.55,2.29-.78,2.29h0c-.1,0-.39-.32-.42-1.33l-.14-5.37c-.03-1.27-.68-1.35-.87-1.34-.6.02-1,.74-.97,1.75l.14,5.37c.03,1.2.23,2.14.59,2.81.49.91,1.15,1.06,1.52,1.06.01,0,.02,0,.04,0,1.42-.04,2.84-2.16,2.75-5.66l-.14-5.37c-.02-.66-.19-1.09-.53-1.27Z"/><path class="cls-1" d="m56.95,46.41c-.08-.18-.2-.32-.35-.41-.2-.12-.44-.13-.66-.03l-3.05,1.38c-.77.35-.81,1.77-.54,2.38.08.18.2.32.34.4.2.12.44.13.66.03l.44-.2.18,6.74c.03,1.19.64,1.3.86,1.3,0,0,.01,0,.02,0,.59-.02,1-.73.98-1.71l-.19-7.16.77-.35c.78-.35.82-1.77.55-2.38Z"/></g></svg>