<svg xmlns="http://www.w3.org/2000/svg" width="45.641" height="41.5" viewBox="0 0 45.641 41.5">
  <g id="구성_요소_34_38" data-name="구성 요소 34 – 38" transform="translate(0.829 0.75)">
    <g id="그룹_930" data-name="그룹 930" transform="translate(-32.5 -22)">
      <g id="그룹_934" data-name="그룹 934" transform="translate(32.5 22)">
        <path id="패스_123" data-name="패스 123" d="M384.881,360.2a1.077,1.077,0,0,1-.675-.236c-1.2-.965-2.465-1.94-3.687-2.882-7.541-5.821-15.34-11.84-17.18-21.41a14.69,14.69,0,0,1,2.872-11.655,11.164,11.164,0,0,1,8.845-3.816,10.818,10.818,0,0,1,9.921,5.775,10.57,10.57,0,0,1,9.888-5.775,11.452,11.452,0,0,1,9.117,4.072,14.763,14.763,0,0,1,2.809,12.236c-1.772,8.512-8.263,13.429-15.135,18.634-2.023,1.533-4.116,3.118-6.072,4.8A1.077,1.077,0,0,1,384.881,360.2Z" transform="translate(-363.109 -320.198)" fill="none" stroke="#c00020" stroke-miterlimit="10" stroke-width="1.5"/>
      </g>
    </g>
  </g>
</svg>
