<svg id="구성_요소_17_1" data-name="구성 요소 17 – 1" xmlns="http://www.w3.org/2000/svg" xmlns:xlink="http://www.w3.org/1999/xlink" width="30.19" height="27.362" viewBox="0 0 30.19 27.362">
  <defs>
    <clipPath id="clip-path">
      <rect id="사각형_33616" data-name="사각형 33616" width="30.19" height="27.362" fill="#037781"/>
    </clipPath>
  </defs>
  <g id="그룹_36744" data-name="그룹 36744" clip-path="url(#clip-path)">
    <path id="패스_13130" data-name="패스 13130" d="M.523,14.471c2.255.014,4.512-.018,6.766.017.8-.037.937,1.047,1.767.927,1.53-.073,1.4,0,2.409,1,.394.259.564.739.985.971.478.281.386.864.477,1.328a1.012,1.012,0,0,0,.452.539c.8.683.309,1.968.441,2.9a.955.955,0,0,0,.493.847c.844.644.3,2.817.45,3.854-.041.285.256.7.532.412a.606.606,0,0,0,.13-.422q0-1.477,0-2.953c.143-.991-.4-3.15.477-3.723a.93.93,0,0,0,.449-.669c-.08-.972.493-1.087,1.006-1.719.243-.385.707-.545.94-.941a1.543,1.543,0,0,1,.43-.429c.41-.222.534-.755.984-.907.767-.287,1.874.278,2.363-.581a.916.916,0,0,1,.639-.405c1.2-.1,2.406-.011,3.607-.039v0h3.344c.285.042.716-.249.425-.532-.492-.28-1.141-.069-1.69-.131-.992-.142-2.958.4-3.554-.5a.958.958,0,0,0-.9-.445c-1.092-.129-3.345.446-3.883-.618a1.066,1.066,0,0,0-.907-.326,1.03,1.03,0,0,1-.862-.478c-.22-.4-.7-.55-.933-.935a1.963,1.963,0,0,0-.554-.542c-.746-.514-.291-1.551-.493-2.289-.316-.634-.983-.68-.888-1.585q0-2.82-.005-5.64c0-.623-.708-.585-.662.041-.142,1.007.4,3.291-.471,3.87-.868.493-.329,2.62-.473,3.562.12.856-.552,1.077-.992,1.64-.242.386-.705.547-.94.941-.259.4-.746.572-.981,1-.377.656-1.3.178-1.727.747a1.128,1.128,0,0,1-.757.576c-.752.088-1.519.017-2.277.04-.9.02-.885,1.1-1.969.942H.514a.6.6,0,0,0-.414.127c-.294.279.128.582.423.536" transform="translate(0 0)" fill="#037781"/>
  </g>
</svg>
