<svg id="구성_요소_16_1" data-name="구성 요소 16 – 1" xmlns="http://www.w3.org/2000/svg" xmlns:xlink="http://www.w3.org/1999/xlink" width="61.521" height="28.175" viewBox="0 0 61.521 28.175">
  <defs>
    <clipPath id="clip-path">
      <rect id="사각형_33614" data-name="사각형 33614" width="61.521" height="28.175" fill="#037781"/>
    </clipPath>
  </defs>
  <g id="그룹_36739" data-name="그룹 36739" clip-path="url(#clip-path)">
    <path id="패스_13122" data-name="패스 13122" d="M17.011,13.077a38.757,38.757,0,0,1-3.854,7.564A32.4,32.4,0,0,1,10.6,24.055,17.725,17.725,0,0,1,7.45,26.98a7.4,7.4,0,0,1-1.955,1,4.129,4.129,0,0,1-1.117.194,5.332,5.332,0,0,1-1.11-.1A3.7,3.7,0,0,1,1.29,27.049,4.311,4.311,0,0,1,.252,25.111,8.619,8.619,0,0,1,0,22.971a17.187,17.187,0,0,1,.136-2.13,33.127,33.127,0,0,1,.826-4.168c.356-1.37.77-2.724,1.216-4.068s.924-2.68,1.476-3.99a33.857,33.857,0,0,1,1.9-3.821c.361-.616.745-1.221,1.163-1.806a12.428,12.428,0,0,1,1.4-1.665A6.836,6.836,0,0,1,8.971.606,3.5,3.5,0,0,1,10.018.085,2.176,2.176,0,0,1,10.639,0a3.2,3.2,0,0,1,.595.064,2.216,2.216,0,0,1,1.091.573,2.588,2.588,0,0,1,.63,1.019,4.76,4.76,0,0,1,.233,1.108,10.083,10.083,0,0,1-.06,2.178A23.562,23.562,0,0,1,12.161,9.1q-.318,1.016-.7,2.008c-.253.662-.518,1.318-.809,1.963a.033.033,0,0,1-.044.017.034.034,0,0,1-.018-.041q.69-2,1.224-4.046a27.5,27.5,0,0,0,.768-4.122,9.53,9.53,0,0,0-.007-2.05,2.847,2.847,0,0,0-.717-1.712,1.532,1.532,0,0,0-.767-.385A2.542,2.542,0,0,0,10.636.7a1.466,1.466,0,0,0-.423.067,4.271,4.271,0,0,0-1.6,1.067A17.235,17.235,0,0,0,6.1,5.117a40.331,40.331,0,0,0-1.987,3.7,45.181,45.181,0,0,0-2.945,7.905,27.207,27.207,0,0,0-.8,4.141A10.878,10.878,0,0,0,.6,25.011a3.926,3.926,0,0,0,1,1.722,3.211,3.211,0,0,0,1.757.828,5.554,5.554,0,0,0,1,.059,3.568,3.568,0,0,0,.96-.187,7.313,7.313,0,0,0,1.794-.94,17.964,17.964,0,0,0,3.063-2.809,34.892,34.892,0,0,0,2.591-3.307q1.2-1.729,2.248-3.567c.705-1.219,1.341-2.478,1.936-3.758a.033.033,0,0,1,.061.026" transform="translate(0 0)" fill="#037781"/>
    <path id="패스_13123" data-name="패스 13123" d="M51.117,13.077a38.747,38.747,0,0,1-3.854,7.564A32.4,32.4,0,0,1,44.7,24.055a17.725,17.725,0,0,1-3.148,2.925,7.4,7.4,0,0,1-1.955,1,4.129,4.129,0,0,1-1.117.194,5.332,5.332,0,0,1-1.11-.1A3.7,3.7,0,0,1,35.4,27.049a4.311,4.311,0,0,1-1.038-1.938,8.619,8.619,0,0,1-.252-2.14,17.187,17.187,0,0,1,.136-2.13,33.126,33.126,0,0,1,.826-4.168c.356-1.37.77-2.724,1.216-4.068s.924-2.68,1.476-3.99a33.825,33.825,0,0,1,1.9-3.821c.361-.616.745-1.221,1.163-1.806a12.413,12.413,0,0,1,1.4-1.665,6.836,6.836,0,0,1,.854-.718A3.5,3.5,0,0,1,44.124.085,2.176,2.176,0,0,1,44.745,0a3.2,3.2,0,0,1,.595.064,2.216,2.216,0,0,1,1.091.573,2.588,2.588,0,0,1,.63,1.019,4.759,4.759,0,0,1,.233,1.108,10.084,10.084,0,0,1-.06,2.178A23.563,23.563,0,0,1,46.267,9.1q-.318,1.016-.7,2.008c-.253.662-.518,1.318-.809,1.963a.033.033,0,0,1-.044.017.034.034,0,0,1-.018-.041q.69-2,1.224-4.046a27.523,27.523,0,0,0,.768-4.122,9.53,9.53,0,0,0-.007-2.05,2.847,2.847,0,0,0-.716-1.712A1.532,1.532,0,0,0,45.2.737,2.542,2.542,0,0,0,44.742.7a1.466,1.466,0,0,0-.423.067,4.271,4.271,0,0,0-1.6,1.067A17.235,17.235,0,0,0,40.2,5.117a40.33,40.33,0,0,0-1.987,3.7,45.181,45.181,0,0,0-2.945,7.905,27.207,27.207,0,0,0-.8,4.141,10.878,10.878,0,0,0,.241,4.145,3.926,3.926,0,0,0,1,1.722,3.211,3.211,0,0,0,1.757.828,5.553,5.553,0,0,0,1,.059,3.568,3.568,0,0,0,.96-.187,7.313,7.313,0,0,0,1.794-.94,17.971,17.971,0,0,0,3.063-2.809,34.892,34.892,0,0,0,2.591-3.307q1.2-1.729,2.248-3.567c.705-1.219,1.341-2.478,1.936-3.758a.033.033,0,0,1,.044-.016.033.033,0,0,1,.017.042" transform="translate(-27.748 0)" fill="#037781"/>
    <path id="패스_13124" data-name="패스 13124" d="M85.223,13.077a38.747,38.747,0,0,1-3.854,7.564,32.4,32.4,0,0,1-2.559,3.415,17.725,17.725,0,0,1-3.148,2.925,7.4,7.4,0,0,1-1.955,1,4.129,4.129,0,0,1-1.117.194,5.332,5.332,0,0,1-1.11-.1A3.7,3.7,0,0,1,69.5,27.049a4.311,4.311,0,0,1-1.038-1.938,8.62,8.62,0,0,1-.252-2.14,17.188,17.188,0,0,1,.136-2.13,33.128,33.128,0,0,1,.826-4.168c.356-1.37.77-2.724,1.216-4.068s.924-2.68,1.476-3.99a33.858,33.858,0,0,1,1.9-3.821c.361-.616.745-1.221,1.163-1.806a12.414,12.414,0,0,1,1.4-1.665,6.836,6.836,0,0,1,.854-.718A3.5,3.5,0,0,1,78.23.085,2.178,2.178,0,0,1,78.851,0a3.2,3.2,0,0,1,.595.064,2.216,2.216,0,0,1,1.091.573,2.588,2.588,0,0,1,.63,1.019A4.759,4.759,0,0,1,81.4,2.764a10.084,10.084,0,0,1-.06,2.178A23.579,23.579,0,0,1,80.373,9.1q-.318,1.016-.7,2.008c-.253.662-.518,1.318-.809,1.963a.033.033,0,0,1-.044.017.033.033,0,0,1-.018-.041q.69-2,1.224-4.046A27.524,27.524,0,0,0,80.8,4.884a9.53,9.53,0,0,0-.007-2.05,2.847,2.847,0,0,0-.716-1.712,1.532,1.532,0,0,0-.767-.385A2.542,2.542,0,0,0,78.848.7a1.466,1.466,0,0,0-.423.067,4.271,4.271,0,0,0-1.6,1.067,17.234,17.234,0,0,0-2.513,3.288,40.33,40.33,0,0,0-1.987,3.7,45.181,45.181,0,0,0-2.945,7.905,27.207,27.207,0,0,0-.8,4.141,10.878,10.878,0,0,0,.241,4.145,3.926,3.926,0,0,0,1,1.722,3.211,3.211,0,0,0,1.757.828,5.553,5.553,0,0,0,1,.059,3.568,3.568,0,0,0,.96-.187,7.313,7.313,0,0,0,1.794-.94,17.971,17.971,0,0,0,3.063-2.809,34.893,34.893,0,0,0,2.591-3.307q1.2-1.729,2.248-3.567c.705-1.219,1.341-2.478,1.936-3.758a.033.033,0,0,1,.044-.016.033.033,0,0,1,.017.042" transform="translate(-55.495 0)" fill="#037781"/>
    <path id="패스_13125" data-name="패스 13125" d="M119.329,13.077a38.747,38.747,0,0,1-3.854,7.564,32.374,32.374,0,0,1-2.559,3.415,17.718,17.718,0,0,1-3.148,2.925,7.4,7.4,0,0,1-1.955,1,4.129,4.129,0,0,1-1.117.194,5.332,5.332,0,0,1-1.11-.1,3.7,3.7,0,0,1-1.977-1.027,4.311,4.311,0,0,1-1.038-1.938,8.619,8.619,0,0,1-.252-2.14,17.186,17.186,0,0,1,.136-2.13,33.161,33.161,0,0,1,.826-4.168c.356-1.37.77-2.724,1.216-4.068s.924-2.68,1.476-3.99a33.857,33.857,0,0,1,1.9-3.821c.361-.616.745-1.221,1.163-1.806a12.414,12.414,0,0,1,1.4-1.665,6.836,6.836,0,0,1,.854-.718,3.5,3.5,0,0,1,1.048-.521A2.177,2.177,0,0,1,112.957,0a3.2,3.2,0,0,1,.595.064,2.216,2.216,0,0,1,1.091.573,2.588,2.588,0,0,1,.63,1.019,4.76,4.76,0,0,1,.233,1.108,10.084,10.084,0,0,1-.06,2.178,23.579,23.579,0,0,1-.967,4.162q-.318,1.016-.7,2.008c-.253.662-.518,1.318-.809,1.963a.033.033,0,0,1-.044.017.033.033,0,0,1-.018-.041q.69-2,1.224-4.046a27.548,27.548,0,0,0,.768-4.122,9.518,9.518,0,0,0-.007-2.05,2.846,2.846,0,0,0-.717-1.712,1.531,1.531,0,0,0-.767-.385A2.542,2.542,0,0,0,112.954.7a1.466,1.466,0,0,0-.423.067,4.271,4.271,0,0,0-1.6,1.067,17.235,17.235,0,0,0-2.513,3.288,40.332,40.332,0,0,0-1.987,3.7,45.182,45.182,0,0,0-2.945,7.905,27.207,27.207,0,0,0-.8,4.141,10.878,10.878,0,0,0,.241,4.145,3.926,3.926,0,0,0,1,1.722,3.211,3.211,0,0,0,1.757.828,5.553,5.553,0,0,0,1,.059,3.566,3.566,0,0,0,.96-.187,7.311,7.311,0,0,0,1.794-.94,17.963,17.963,0,0,0,3.063-2.809,34.893,34.893,0,0,0,2.591-3.307q1.2-1.729,2.248-3.567c.705-1.219,1.341-2.478,1.936-3.758a.033.033,0,0,1,.044-.016.033.033,0,0,1,.017.042" transform="translate(-83.243 0)" fill="#037781"/>
    <path id="패스_13126" data-name="패스 13126" d="M153.435,13.077a38.747,38.747,0,0,1-3.854,7.564,32.4,32.4,0,0,1-2.559,3.415,17.732,17.732,0,0,1-3.148,2.925,7.407,7.407,0,0,1-1.955,1,4.129,4.129,0,0,1-1.117.194,5.331,5.331,0,0,1-1.11-.1,3.7,3.7,0,0,1-1.977-1.027,4.311,4.311,0,0,1-1.038-1.938,8.62,8.62,0,0,1-.252-2.14,17.189,17.189,0,0,1,.136-2.13,33.093,33.093,0,0,1,.826-4.168c.356-1.37.769-2.724,1.216-4.068s.924-2.68,1.476-3.99a33.855,33.855,0,0,1,1.9-3.821c.361-.616.745-1.221,1.163-1.806a12.413,12.413,0,0,1,1.4-1.665,6.835,6.835,0,0,1,.854-.718,3.5,3.5,0,0,1,1.048-.521A2.178,2.178,0,0,1,147.063,0a3.2,3.2,0,0,1,.595.064,2.216,2.216,0,0,1,1.091.573,2.588,2.588,0,0,1,.63,1.019,4.761,4.761,0,0,1,.233,1.108,10.084,10.084,0,0,1-.06,2.178,23.579,23.579,0,0,1-.967,4.162q-.318,1.016-.7,2.008c-.253.662-.519,1.318-.809,1.963a.033.033,0,0,1-.062-.024q.69-2,1.224-4.046a27.524,27.524,0,0,0,.768-4.122A9.543,9.543,0,0,0,149,2.835a2.847,2.847,0,0,0-.717-1.712,1.531,1.531,0,0,0-.767-.385A2.542,2.542,0,0,0,147.06.7a1.466,1.466,0,0,0-.423.067,4.271,4.271,0,0,0-1.6,1.067,17.235,17.235,0,0,0-2.513,3.288,40.334,40.334,0,0,0-1.987,3.7,45.182,45.182,0,0,0-2.945,7.905,27.206,27.206,0,0,0-.8,4.141,10.878,10.878,0,0,0,.241,4.145,3.926,3.926,0,0,0,1,1.722,3.211,3.211,0,0,0,1.757.828,5.553,5.553,0,0,0,1,.059,3.566,3.566,0,0,0,.96-.187,7.312,7.312,0,0,0,1.794-.94,17.971,17.971,0,0,0,3.063-2.809,34.923,34.923,0,0,0,2.591-3.307q1.2-1.729,2.248-3.567c.705-1.219,1.341-2.478,1.936-3.758a.033.033,0,0,1,.044-.016.033.033,0,0,1,.017.042" transform="translate(-110.991 0)" fill="#037781"/>
    <path id="패스_13127" data-name="패스 13127" d="M187.541,13.077a38.756,38.756,0,0,1-3.854,7.564,32.4,32.4,0,0,1-2.559,3.415,17.725,17.725,0,0,1-3.148,2.925,7.4,7.4,0,0,1-1.955,1,4.128,4.128,0,0,1-1.117.194,5.332,5.332,0,0,1-1.11-.1,3.7,3.7,0,0,1-1.977-1.027,4.311,4.311,0,0,1-1.038-1.938,8.629,8.629,0,0,1-.252-2.14,17.225,17.225,0,0,1,.136-2.13,33.126,33.126,0,0,1,.826-4.168c.356-1.37.77-2.724,1.216-4.068s.924-2.68,1.476-3.99a33.828,33.828,0,0,1,1.9-3.821c.361-.616.745-1.221,1.163-1.806a12.413,12.413,0,0,1,1.4-1.665A6.835,6.835,0,0,1,179.5.606a3.5,3.5,0,0,1,1.048-.521A2.176,2.176,0,0,1,181.169,0a3.2,3.2,0,0,1,.595.064,2.216,2.216,0,0,1,1.091.573,2.588,2.588,0,0,1,.63,1.019,4.76,4.76,0,0,1,.233,1.108,10.084,10.084,0,0,1-.06,2.178,23.563,23.563,0,0,1-.967,4.162q-.318,1.016-.7,2.008c-.253.662-.518,1.318-.809,1.963a.033.033,0,0,1-.062-.024q.69-2,1.224-4.046a27.5,27.5,0,0,0,.768-4.122,9.53,9.53,0,0,0-.007-2.05,2.847,2.847,0,0,0-.717-1.712,1.533,1.533,0,0,0-.767-.385A2.544,2.544,0,0,0,181.166.7a1.466,1.466,0,0,0-.423.067,4.271,4.271,0,0,0-1.6,1.067,17.235,17.235,0,0,0-2.513,3.288,40.375,40.375,0,0,0-1.987,3.7,45.2,45.2,0,0,0-2.945,7.905,27.206,27.206,0,0,0-.8,4.141,10.878,10.878,0,0,0,.241,4.145,3.926,3.926,0,0,0,1,1.722,3.212,3.212,0,0,0,1.757.828,5.551,5.551,0,0,0,1,.059,3.568,3.568,0,0,0,.96-.187,7.314,7.314,0,0,0,1.794-.94,17.957,17.957,0,0,0,3.063-2.809,34.893,34.893,0,0,0,2.591-3.307q1.2-1.729,2.248-3.567c.705-1.219,1.341-2.478,1.936-3.758a.033.033,0,0,1,.061.026" transform="translate(-138.739 0)" fill="#037781"/>
    <path id="패스_13128" data-name="패스 13128" d="M221.647,13.077a38.747,38.747,0,0,1-3.854,7.564,32.373,32.373,0,0,1-2.559,3.415,17.724,17.724,0,0,1-3.148,2.925,7.4,7.4,0,0,1-1.955,1,4.129,4.129,0,0,1-1.117.194,5.332,5.332,0,0,1-1.11-.1,3.7,3.7,0,0,1-1.977-1.027,4.311,4.311,0,0,1-1.038-1.938,8.619,8.619,0,0,1-.252-2.14,17.186,17.186,0,0,1,.136-2.13,33.128,33.128,0,0,1,.826-4.168c.356-1.37.769-2.724,1.216-4.068s.924-2.68,1.476-3.99a33.86,33.86,0,0,1,1.9-3.821c.361-.616.745-1.221,1.163-1.806a12.428,12.428,0,0,1,1.4-1.665,6.836,6.836,0,0,1,.854-.718,3.5,3.5,0,0,1,1.048-.521A2.176,2.176,0,0,1,215.275,0a3.2,3.2,0,0,1,.595.064,2.216,2.216,0,0,1,1.091.573,2.588,2.588,0,0,1,.63,1.019,4.759,4.759,0,0,1,.233,1.108,10.083,10.083,0,0,1-.06,2.178A23.58,23.58,0,0,1,216.8,9.1q-.318,1.016-.7,2.008c-.253.662-.518,1.318-.809,1.963a.033.033,0,0,1-.062-.024q.69-2,1.224-4.046a27.5,27.5,0,0,0,.768-4.122,9.53,9.53,0,0,0-.007-2.05,2.848,2.848,0,0,0-.717-1.712,1.532,1.532,0,0,0-.767-.385A2.542,2.542,0,0,0,215.272.7a1.466,1.466,0,0,0-.423.067,4.271,4.271,0,0,0-1.6,1.067,17.235,17.235,0,0,0-2.513,3.288,40.33,40.33,0,0,0-1.987,3.7,45.182,45.182,0,0,0-2.945,7.905,27.208,27.208,0,0,0-.8,4.141,10.878,10.878,0,0,0,.241,4.145,3.926,3.926,0,0,0,1,1.722,3.211,3.211,0,0,0,1.757.828,5.551,5.551,0,0,0,1,.059,3.568,3.568,0,0,0,.96-.187,7.313,7.313,0,0,0,1.794-.94,17.964,17.964,0,0,0,3.063-2.809,34.893,34.893,0,0,0,2.591-3.307q1.2-1.729,2.248-3.567c.705-1.219,1.341-2.478,1.936-3.758a.033.033,0,0,1,.044-.016.033.033,0,0,1,.017.042" transform="translate(-166.486 0)" fill="#037781"/>
    <path id="패스_13129" data-name="패스 13129" d="M255.753,13.077a38.747,38.747,0,0,1-3.854,7.564,32.4,32.4,0,0,1-2.559,3.415,17.725,17.725,0,0,1-3.148,2.925,7.4,7.4,0,0,1-1.955,1,4.129,4.129,0,0,1-1.117.194,5.332,5.332,0,0,1-1.11-.1,3.7,3.7,0,0,1-1.977-1.027,4.311,4.311,0,0,1-1.038-1.938,8.62,8.62,0,0,1-.252-2.14,17.189,17.189,0,0,1,.136-2.13,33.125,33.125,0,0,1,.826-4.168c.356-1.37.77-2.724,1.216-4.068s.924-2.68,1.476-3.99a33.857,33.857,0,0,1,1.9-3.821c.361-.616.745-1.221,1.163-1.806a12.414,12.414,0,0,1,1.4-1.665,6.835,6.835,0,0,1,.854-.718A3.5,3.5,0,0,1,248.76.085,2.176,2.176,0,0,1,249.381,0a3.2,3.2,0,0,1,.595.064,2.216,2.216,0,0,1,1.091.573,2.588,2.588,0,0,1,.63,1.019,4.76,4.76,0,0,1,.233,1.108,10.1,10.1,0,0,1-.06,2.178A23.58,23.58,0,0,1,250.9,9.1q-.318,1.016-.7,2.008c-.253.662-.518,1.318-.809,1.963a.033.033,0,0,1-.044.017.034.034,0,0,1-.018-.041q.69-2,1.224-4.046a27.522,27.522,0,0,0,.768-4.122,9.53,9.53,0,0,0-.007-2.05,2.848,2.848,0,0,0-.717-1.712,1.533,1.533,0,0,0-.767-.385A2.542,2.542,0,0,0,249.378.7a1.466,1.466,0,0,0-.423.067,4.271,4.271,0,0,0-1.6,1.067,17.235,17.235,0,0,0-2.513,3.288,40.326,40.326,0,0,0-1.987,3.7,45.181,45.181,0,0,0-2.945,7.905,27.208,27.208,0,0,0-.8,4.141,10.879,10.879,0,0,0,.241,4.145,3.926,3.926,0,0,0,1,1.722,3.211,3.211,0,0,0,1.757.828,5.554,5.554,0,0,0,1,.059,3.568,3.568,0,0,0,.96-.187,7.313,7.313,0,0,0,1.794-.94,17.971,17.971,0,0,0,3.063-2.809,34.89,34.89,0,0,0,2.591-3.307q1.2-1.729,2.248-3.567c.705-1.219,1.341-2.478,1.936-3.758a.033.033,0,0,1,.044-.016.033.033,0,0,1,.017.042" transform="translate(-194.234 0)" fill="#037781"/>
  </g>
</svg>
