<svg id="구성_요소_14_1" data-name="구성 요소 14 – 1" xmlns="http://www.w3.org/2000/svg" xmlns:xlink="http://www.w3.org/1999/xlink" width="25.225" height="26.282" viewBox="0 0 25.225 26.282">
  <defs>
    <clipPath id="clip-path">
      <rect id="사각형_33612" data-name="사각형 33612" width="25.225" height="26.282" fill="#037781"/>
    </clipPath>
  </defs>
  <g id="그룹_36736" data-name="그룹 36736" clip-path="url(#clip-path)">
    <path id="패스_13121" data-name="패스 13121" d="M.14,14.168a14.379,14.379,0,0,1-.122-2.691A12.051,12.051,0,0,1,2.41,4.739,12.559,12.559,0,0,1,9.954.289a17.329,17.329,0,0,1,5.853-.08,9.42,9.42,0,0,1,4.685,1.9,12.862,12.862,0,0,1,3.123,3.178c1.9,2.87,1.593,5.745,1.589,8.96,0,3.914-2.618,7.8-5.666,10.112-2.789,2.12-7.121,2.33-10.379,1.387a11.606,11.606,0,0,1-4.924-2.839,13.6,13.6,0,0,1-2.858-4.362A17.067,17.067,0,0,1,.14,14.168" transform="translate(0 0)" fill="#037781"/>
  </g>
</svg>
