<svg xmlns="http://www.w3.org/2000/svg" xmlns:xlink="http://www.w3.org/1999/xlink" width="208" height="44" viewBox="0 0 208 44">
  <defs>
    <clipPath id="clip-path">
      <rect id="사각형_444" data-name="사각형 444" width="208" height="44" fill="#fff"/>
    </clipPath>
  </defs>
  <g id="그룹_1400" data-name="그룹 1400" transform="translate(0 0)">
    <path id="패스_458" data-name="패스 458" d="M100.6.924h8.85V2.1h-3.722V8.674h-1.305V2.1H100.6Z" transform="translate(23.298 0.205)" fill="#fff"/>
    <path id="패스_459" data-name="패스 459" d="M116.976,8.56h-1.452l-1.338-2.337h-4.857L107.99,8.56h-1.452L110.906.924h1.7ZM110,5.043H113.5L111.757,1.98Z" transform="translate(24.683 0.205)" fill="#fff"/>
    <g id="그룹_1399" data-name="그룹 1399" transform="translate(0 0)">
      <g id="그룹_1398" data-name="그룹 1398" transform="translate(0 0)" clip-path="url(#clip-path)">
        <path id="패스_460" data-name="패스 460" d="M121.619,3.265A2.327,2.327,0,0,1,124.086,5.9a2.327,2.327,0,0,1-2.467,2.635H115.4V7.358h6.126c.8,0,1.279-.508,1.279-1.458s-.479-1.459-1.279-1.459h-4.595a1.655,1.655,0,0,1-1.759-1.753A1.659,1.659,0,0,1,116.931.924h6.7V2.1h-6.481c-.468,0-.7.169-.7.587s.229.577.7.577Z" transform="translate(26.628 0.202)" fill="#fff"/>
        <path id="패스_461" data-name="패스 461" d="M122.878.924h8.915V2.1h-3.749V8.648h-1.315V2.1h-3.851Z" transform="translate(28.409 0.202)" fill="#fff"/>
        <path id="패스_462" data-name="패스 462" d="M135.721,8.648h-1.315v-3L130.213.924h1.736l3.121,3.518L138.19.924h1.737l-4.206,4.727Z" transform="translate(30.105 0.202)" fill="#fff"/>
        <path id="패스_463" data-name="패스 463" d="M160.56,8.785a11.833,11.833,0,0,1-3.356,1.24l-.458-.753a10.817,10.817,0,0,0,3.109-1.04Zm-3.2-.586V3.02h.928V7.457h7.649V8.2Zm8.287-7.015a1.341,1.341,0,0,1-.492,1.039,2.353,2.353,0,0,1-1.163.3c-.872.033-2.281.044-3.41.044a9.3,9.3,0,0,1-1.544-.089c-.614-.11-.917-.342-.917-.784V.011h.928V.7a26.975,26.975,0,0,0,4.787-.7l.537.664a41.215,41.215,0,0,1-5.324.653v.155c0,.287.425.365,1.253.409.335.011.916.022,1.263.022,1.98,0,2.572-.089,2.875-.277.179-.122.223-.309.291-.719Zm-6.509,1.9h5.838V6.926h-5.838Zm.939,1.129h3.982v-.5h-3.982Zm0,1.039h3.982V4.724h-3.982Zm0,1.051h3.982V5.764h-3.982Zm5.469,3.652a13.239,13.239,0,0,1-3.2-1.184l.627-.564a12.953,12.953,0,0,0,3.076.951Z" transform="translate(36.24 0)" fill="#fff"/>
        <path id="패스_464" data-name="패스 464" d="M0,1.849H39.943V19.835H0ZM0,37.135c13.9,0,24.406-1.743,24.406-11.077v-3.8h7.045v3.8c0,9.334,10.5,11.077,24.406,11.077v6.6c-12.141,0-23.463-1.119-27.929-7.965C23.4,42.612,12.077,43.731,0,43.731ZM7.359,13.363H32.582V8.322H7.359ZM45.666,1.227h7.36v5.6H59.19v6.6H53.027v6.41h-7.36Z" transform="translate(0 0.268)" fill="#fff"/>
        <path id="패스_465" data-name="패스 465" d="M48.587,34.331,76.955,18.275H50.475V11.8h39v6.473L61.105,34.331h29V40.8H48.587Z" transform="translate(11.233 2.574)" fill="#fff"/>
        <path id="패스_466" data-name="패스 466" d="M86.905,1.228h7.233V8.322H86.905ZM94.14,43.11H86.906V12.678H94.14Z" transform="translate(20.092 0.268)" fill="#fff"/>
        <path id="패스_467" data-name="패스 467" d="M104.612,23V40.8H97.379v-29h6.353l.44,2.676a8.74,8.74,0,0,1,6.48-2.676h16.48c8.744,0,11.763,4.418,11.763,11.139V40.8h-7.233V23.191c0-2.987-1.321-4.916-5.222-4.916H111.091c-3.836,0-6.353,1.867-6.479,4.73" transform="translate(22.514 2.575)" fill="#fff"/>
        <path id="패스_468" data-name="패스 468" d="M175.561,40.8H146.437c-8.743,0-11.762-4.418-11.762-11.139V22.942c0-6.72,3.019-11.139,11.762-11.139h17.99c8.744,0,11.763,4.419,11.763,11.139v6.6H141.908v.5c0,2.987,1.384,4.294,4.906,4.294h28.746ZM141.908,23.379h27.048V22.57c0-2.987-1.384-4.294-4.906-4.294H146.815c-3.522,0-4.906,1.307-4.906,4.294Z" transform="translate(31.137 2.575)" fill="#fff"/>
      </g>
    </g>
  </g>
</svg>
