<svg xmlns="http://www.w3.org/2000/svg" xmlns:xlink="http://www.w3.org/1999/xlink" width="32" height="32" viewBox="0 0 32 32">
  <defs>
    <clipPath id="clip-path">
      <rect id="사각형_33642" data-name="사각형 33642" width="32" height="32" transform="translate(0 0)" fill="none" stroke="#3ab3be" stroke-width="1"/>
    </clipPath>
  </defs>
  <g id="그룹_36792" data-name="그룹 36792" transform="translate(0.428 0)">
    <g id="구성_요소_34_24" data-name="구성 요소 34 – 24" transform="translate(-0.428 0)">
      <g id="그룹_36779" data-name="그룹 36779" transform="translate(0 0)" clip-path="url(#clip-path)">
        <g id="패스_13137" data-name="패스 13137" transform="translate(0 0)" fill="none">
          <path d="M31.234,14.5a2.344,2.344,0,0,0,.658-2.443,2.206,2.206,0,0,0-1.908-1.575l-8.4-.7a.387.387,0,0,1-.326-.248L18.022,1.409a2.156,2.156,0,0,0-4.045,0L10.743,9.531a.391.391,0,0,1-.328.248l-8.4.7A2.2,2.2,0,0,0,.108,12.056,2.344,2.344,0,0,0,.766,14.5l6.4,5.725a.408.408,0,0,1,.124.4L5.335,29.181a2.333,2.333,0,0,0,.844,2.38,2.109,2.109,0,0,0,2.429.1L15.8,27.077a.368.368,0,0,1,.4,0l7.191,4.586a2.105,2.105,0,0,0,2.429-.1,2.333,2.333,0,0,0,.844-2.38l-1.954-8.559a.411.411,0,0,1,.124-.4Z" stroke="none"/>
          <path d="M 16.00043869018555 0.9999961853027344 C 15.5244083404541 0.9999961853027344 15.09502792358398 1.305797576904297 14.90654754638672 1.779037475585938 L 11.67073822021484 9.904346466064453 C 11.47222709655762 10.39784622192383 11.02320671081543 10.73188781738281 10.49817848205566 10.77616691589355 L 2.100248336791992 11.47832679748535 C 1.622257232666016 11.5184268951416 1.215288162231445 11.86114692687988 1.063068389892578 12.35261726379395 C 0.9048881530761719 12.86114692687988 1.049898147583008 13.41059684753418 1.432987213134766 13.75284767150879 L 7.831287384033203 19.47636795043945 C 8.215509414672852 19.81883239746094 8.380950927734375 20.34390830993652 8.263788223266602 20.84781837463379 L 6.309988021850586 29.40303802490234 C 6.191627502441406 29.92229652404785 6.377347946166992 30.45671653747559 6.782756805419922 30.76422691345215 C 6.985477447509766 30.9178466796875 7.221767425537109 30.99904632568359 7.466096878051758 30.99904632568359 C 7.676937103271484 30.99904632568359 7.885726928710938 30.93700790405273 8.069698333740234 30.81974792480469 L 15.26027679443359 26.23429679870605 C 15.4827880859375 26.09219741821289 15.73869705200195 26.01708602905273 16.00032806396484 26.01708602905273 C 16.26311874389648 26.01708602905273 16.51974868774414 26.09280776977539 16.7391471862793 26.23394775390625 L 23.93056869506836 30.81993675231934 C 24.11501693725586 30.93764686584473 24.32363700866699 30.9998664855957 24.53386688232422 30.9998664855957 C 24.77803802490234 30.9998664855957 25.01398849487305 30.91864776611328 25.21685791015625 30.76450729370117 C 25.62263870239258 30.45671653747559 25.80834770202637 29.92230606079102 25.69006729125977 29.40341758728027 L 23.73640823364258 20.84780693054199 C 23.62005805969238 20.3459358215332 23.78433799743652 19.8212776184082 24.16747665405273 19.47650718688965 L 30.56688690185547 13.75386619567871 C 30.9497184753418 13.41132736206055 31.09495735168457 12.86166763305664 30.93681716918945 12.3532772064209 C 30.78411674499512 11.86184692382812 30.37700843811035 11.51840782165527 29.90001678466797 11.47834777832031 L 21.5010986328125 10.77610778808594 C 20.97319793701172 10.73158645629883 20.52409744262695 10.39559745788574 20.32856750488281 9.899106979370117 L 17.09343719482422 1.779056549072266 C 16.90494728088379 1.305797576904297 16.47592735290527 0.9999961853027344 16.00043869018555 0.9999961853027344 M 16.00043869018555 -3.814697265625e-06 C 16.88749694824219 -3.814697265625e-06 17.68170738220215 0.5534572601318359 18.02246856689453 1.4090576171875 L 21.25878715515137 9.532096862792969 C 21.31377792358398 9.672336578369141 21.43998718261719 9.767406463623047 21.58512878417969 9.779647827148438 L 29.98333740234375 10.48182678222656 C 30.86859703063965 10.55617713928223 31.61772727966309 11.17458724975586 31.89177703857422 12.05653762817383 C 32.16582870483398 12.93755722045898 31.90799713134766 13.8957576751709 31.23369789123535 14.49909782409668 L 24.83406829833984 20.22192764282227 C 24.72318649291992 20.32170677185059 24.67630767822266 20.47418594360352 24.71056747436523 20.62196731567383 L 26.66497802734375 29.1807975769043 C 26.87051773071289 30.08252716064453 26.53967666625977 31.0162467956543 25.82119750976562 31.56123733520508 C 25.10361862182617 32.1064453125 24.15092658996582 32.14685821533203 23.39259719848633 31.66289710998535 L 16.20146751403809 27.07709693908691 C 16.07706832885742 26.9970874786377 15.92380905151367 26.9970874786377 15.79850769042969 27.07709693908691 L 8.607378005981445 31.66289710998535 C 7.848323822021484 32.14669799804688 6.895467758178711 32.10433578491211 6.178787231445312 31.56123733520508 C 5.460308074951172 31.0162467956543 5.129457473754883 30.08252716064453 5.334997177124023 29.1807975769043 L 7.289407730102539 20.62290573120117 C 7.324567794799805 20.47418594360352 7.276786804199219 20.32170677185059 7.16590690612793 20.22287750244141 L 0.7662773132324219 14.4981575012207 C 0.09197807312011719 13.8957576751709 -0.1658535003662109 12.93661689758301 0.1081981658935547 12.05559730529785 C 0.38134765625 11.17364692687988 1.130477905273438 10.55617713928223 2.016637802124023 10.48182678222656 L 10.41485786437988 9.779647827148438 C 10.55998802185059 9.767406463623047 10.68619728088379 9.672336578369141 10.74298667907715 9.531156539916992 L 13.97750854492188 1.4090576171875 C 14.31827735900879 0.5534572601318359 15.1115779876709 -3.814697265625e-06 16.00043869018555 -3.814697265625e-06 Z" stroke="none" fill="#3ab3be"/>
        </g>
      </g>
    </g>
  </g>
</svg>
