<svg xmlns="http://www.w3.org/2000/svg" xmlns:xlink="http://www.w3.org/1999/xlink" width="444" height="252" viewBox="0 0 444 252">
  <defs>
    <clipPath id="clip-path">
      <rect id="사각형_33664" data-name="사각형 33664" width="188.649" height="182.031" fill="none"/>
    </clipPath>
    <clipPath id="clip-path-2">
      <path id="패스_13196" data-name="패스 13196" d="M16.374,0C6.239,0,0,7.22,0,17.192,0,26.8,6.6,32.2,16.374,32.2s16.374-5.4,16.374-15.009C32.748,7.22,26.509,0,16.374,0Z" transform="translate(0 0.001)" fill="none"/>
    </clipPath>
    <linearGradient id="linear-gradient" y1="1" x2="0.025" y2="1" gradientUnits="objectBoundingBox">
      <stop offset="0" stop-color="#fed223"/>
      <stop offset="0.25" stop-color="#fed223"/>
      <stop offset="0.437" stop-color="#fed62c"/>
      <stop offset="0.743" stop-color="#fee244"/>
      <stop offset="1" stop-color="#feef5e"/>
    </linearGradient>
    <clipPath id="clip-path-3">
      <path id="패스_13197" data-name="패스 13197" d="M16.374,31.271C2.938,30.913,1.318,25.385.187,17.462A22.392,22.392,0,0,0,0,20.359c0,9.607,6.6,15.009,16.374,15.009s16.374-5.4,16.374-15.009a22.538,22.538,0,0,0-.187-2.9C31.429,25.385,28.513,31.6,16.374,31.271" transform="translate(0 -17.462)" fill="none"/>
    </clipPath>
    <linearGradient id="linear-gradient-2" y1="1" x2="0.025" y2="1" gradientUnits="objectBoundingBox">
      <stop offset="0" stop-color="#feb123"/>
      <stop offset="0.25" stop-color="#feb123"/>
      <stop offset="0.534" stop-color="#feb923"/>
      <stop offset="0.991" stop-color="#fed123"/>
      <stop offset="1" stop-color="#fed223"/>
    </linearGradient>
    <clipPath id="clip-path-4">
      <path id="패스_13198" data-name="패스 13198" d="M15.171,3.091c.093.579,1.507,1.157,3.952,1.157s3.859-.578,3.952-1.157S21.23,1.933,19.123,1.933s-4.044.585-3.952,1.158" transform="translate(-15.168 -1.933)" fill="none"/>
    </clipPath>
    <linearGradient id="linear-gradient-3" x1="-1.524" y1="13.23" x2="-1.423" y2="13.23" gradientUnits="objectBoundingBox">
      <stop offset="0" stop-color="#fff8b5"/>
      <stop offset="0.25" stop-color="#fff8b5"/>
      <stop offset="0.39" stop-color="#fef7ac"/>
      <stop offset="0.617" stop-color="#fef494"/>
      <stop offset="0.9" stop-color="#fef06d"/>
      <stop offset="1" stop-color="#feef5e"/>
    </linearGradient>
    <clipPath id="clip-path-5">
      <path id="패스_13199" data-name="패스 13199" d="M6.167,14.192a.529.529,0,0,0,.517.858L6.9,15a12.255,12.255,0,0,1,3.325-.542A7,7,0,0,1,13.313,15.7a.525.525,0,0,0,.734-.663,4.286,4.286,0,0,0-3.741-2.752l-.131,0a5.287,5.287,0,0,0-4.007,1.912m18.453-1.91a4.284,4.284,0,0,0-3.74,2.752.525.525,0,0,0,.734.663,6.988,6.988,0,0,1,3.091-1.236A12.259,12.259,0,0,1,28.029,15l.212.047a.53.53,0,0,0,.518-.858,5.291,5.291,0,0,0-4.008-1.912l-.132,0M8.812,8.87a6.715,6.715,0,0,0-2.744,2.455.417.417,0,0,0,.609.548,12.326,12.326,0,0,1,2.779-1.565,24.145,24.145,0,0,1,2.992-.818.565.565,0,0,0,.066-1.09,3.671,3.671,0,0,0-1.169-.185,5.957,5.957,0,0,0-2.532.655m13.6-.47a.565.565,0,0,0,.068,1.09,24.153,24.153,0,0,1,2.99.818,12.331,12.331,0,0,1,2.779,1.565.417.417,0,0,0,.609-.548A6.725,6.725,0,0,0,26.114,8.87a5.957,5.957,0,0,0-2.532-.655,3.656,3.656,0,0,0-1.17.185" transform="translate(-6.007 -8.215)" fill="none"/>
    </clipPath>
    <linearGradient id="linear-gradient-4" x1="-0.213" y1="3.366" x2="-0.178" y2="3.366" xlink:href="#linear-gradient-2"/>
    <clipPath id="clip-path-6">
      <rect id="사각형_33684" data-name="사각형 33684" width="32.748" height="32.202" fill="none"/>
    </clipPath>
    <clipPath id="clip-path-7">
      <path id="패스_13202" data-name="패스 13202" d="M6.175,13.76a.529.529,0,0,0,.517.858l.212-.047a12.255,12.255,0,0,1,3.325-.542,7,7,0,0,1,3.091,1.235.525.525,0,0,0,.734-.663,4.286,4.286,0,0,0-3.741-2.752c-.043,0-.086,0-.129,0A5.288,5.288,0,0,0,6.175,13.76" transform="translate(-6.05 -11.848)" fill="none"/>
    </clipPath>
    <linearGradient id="linear-gradient-5" x1="-0.606" y1="6.426" x2="-0.505" y2="6.426" gradientUnits="objectBoundingBox">
      <stop offset="0" stop-color="#85321b"/>
      <stop offset="0.25" stop-color="#85321b"/>
      <stop offset="0.42" stop-color="#7c2e19"/>
      <stop offset="0.698" stop-color="#632516"/>
      <stop offset="1" stop-color="#421811"/>
    </linearGradient>
    <clipPath id="clip-path-8">
      <path id="패스_13203" data-name="패스 13203" d="M27.9,11.85A4.285,4.285,0,0,0,24.164,14.6a.525.525,0,0,0,.734.663,7,7,0,0,1,3.091-1.235,12.259,12.259,0,0,1,3.324.542l.212.047a.53.53,0,0,0,.518-.858,5.291,5.291,0,0,0-4.01-1.912c-.043,0-.086,0-.129,0" transform="translate(-24.124 -11.848)" fill="none"/>
    </clipPath>
    <linearGradient id="linear-gradient-6" x1="-2.418" y1="6.423" x2="-2.317" y2="6.423" xlink:href="#linear-gradient-5"/>
    <clipPath id="clip-path-9">
      <path id="패스_13204" data-name="패스 13204" d="M19.96,19.492a8.869,8.869,0,0,0-2.449,1.452.411.411,0,0,0,.443.688,5.729,5.729,0,0,1,2.31-.711c1.254-.04,1.324,1.013.728,1.821a2.879,2.879,0,0,1-2.055,1.117.414.414,0,0,0,.007.825c1.121.191,2.34,1.24,1.837,2.229-.591,1.087-2.424.485-3.5-.211a.41.41,0,0,0-.508.642c2.677,2.466,4.766,2.066,5.727.82a2.464,2.464,0,0,0-1.158-3.946,2.93,2.93,0,0,0,1.916-1.387A2.425,2.425,0,0,0,21.1,19.288a3.519,3.519,0,0,0-1.139.2" transform="translate(-16.642 -19.288)" fill="none"/>
    </clipPath>
    <linearGradient id="linear-gradient-7" x1="-1.828" y1="1.564" x2="-1.718" y2="1.564" xlink:href="#linear-gradient-5"/>
    <clipPath id="clip-path-20">
      <path id="패스_13196-3" data-name="패스 13196" d="M16.374,0C26.509,0,32.748,7.22,32.748,17.192c0,9.607-6.6,15.009-16.374,15.009S0,26.8,0,17.192C0,7.22,6.239,0,16.374,0Z" transform="translate(0 0.001)" fill="none"/>
    </clipPath>
    <linearGradient id="linear-gradient-15" x1="1" y1="1" x2="0.975" y2="1" xlink:href="#linear-gradient"/>
    <clipPath id="clip-path-21">
      <path id="패스_13197-3" data-name="패스 13197" d="M16.374,31.271c13.436-.358,15.056-5.886,16.187-13.809a22.393,22.393,0,0,1,.187,2.9c0,9.607-6.6,15.009-16.374,15.009S0,29.966,0,20.359a22.538,22.538,0,0,1,.187-2.9C1.319,25.385,4.235,31.6,16.374,31.271" transform="translate(0 -17.462)" fill="none"/>
    </clipPath>
    <linearGradient id="linear-gradient-16" x1="1" y1="1" x2="0.975" y2="1" xlink:href="#linear-gradient-2"/>
    <clipPath id="clip-path-22">
      <path id="패스_13198-3" data-name="패스 13198" d="M23.075,3.091c-.093.579-1.507,1.157-3.952,1.157s-3.859-.578-3.952-1.157,1.845-1.158,3.952-1.158,4.044.585,3.952,1.158" transform="translate(-15.168 -1.933)" fill="none"/>
    </clipPath>
    <linearGradient id="linear-gradient-17" x1="2.524" y1="13.23" x2="2.423" y2="13.23" xlink:href="#linear-gradient-3"/>
    <clipPath id="clip-path-23">
      <path id="패스_13199-3" data-name="패스 13199" d="M28.759,14.192a.529.529,0,0,1-.517.858L28.029,15a12.255,12.255,0,0,0-3.325-.542A7,7,0,0,0,21.613,15.7a.525.525,0,0,1-.734-.663,4.286,4.286,0,0,1,3.741-2.752l.131,0a5.287,5.287,0,0,1,4.007,1.912m-18.453-1.91a4.284,4.284,0,0,1,3.74,2.752.525.525,0,0,1-.734.663,6.988,6.988,0,0,0-3.091-1.236A12.259,12.259,0,0,0,6.9,15l-.212.047a.53.53,0,0,1-.518-.858,5.291,5.291,0,0,1,4.008-1.912l.132,0M26.114,8.87a6.715,6.715,0,0,1,2.744,2.455.417.417,0,0,1-.609.548,12.326,12.326,0,0,0-2.779-1.565,24.145,24.145,0,0,0-2.992-.818.565.565,0,0,1-.066-1.09,3.671,3.671,0,0,1,1.169-.185,5.957,5.957,0,0,1,2.532.655m-13.6-.47a.565.565,0,0,1-.068,1.09,24.153,24.153,0,0,0-2.99.818,12.331,12.331,0,0,0-2.779,1.565.417.417,0,0,1-.609-.548A6.725,6.725,0,0,1,8.812,8.87a5.957,5.957,0,0,1,2.532-.655,3.656,3.656,0,0,1,1.17.185" transform="translate(-6.007 -8.215)" fill="none"/>
    </clipPath>
    <linearGradient id="linear-gradient-18" x1="1.213" y1="3.366" x2="1.178" y2="3.366" xlink:href="#linear-gradient-2"/>
    <clipPath id="clip-path-25">
      <path id="패스_13202-3" data-name="패스 13202" d="M13.969,13.76a.529.529,0,0,1-.517.858l-.212-.047a12.255,12.255,0,0,0-3.325-.542,7,7,0,0,0-3.091,1.235A.525.525,0,0,1,6.09,14.6,4.286,4.286,0,0,1,9.831,11.85c.043,0,.086,0,.129,0a5.288,5.288,0,0,1,4.008,1.912" transform="translate(-6.05 -11.848)" fill="none"/>
    </clipPath>
    <linearGradient id="linear-gradient-19" x1="1.606" y1="6.426" x2="1.505" y2="6.426" xlink:href="#linear-gradient-5"/>
    <clipPath id="clip-path-26">
      <path id="패스_13203-3" data-name="패스 13203" d="M28.388,11.85A4.285,4.285,0,0,1,32.128,14.6a.525.525,0,0,1-.734.663A7,7,0,0,0,28.3,14.029a12.259,12.259,0,0,0-3.324.542l-.212.047a.53.53,0,0,1-.518-.858,5.291,5.291,0,0,1,4.01-1.912c.043,0,.086,0,.129,0" transform="translate(-24.124 -11.848)" fill="none"/>
    </clipPath>
    <linearGradient id="linear-gradient-20" x1="3.418" y1="6.423" x2="3.317" y2="6.423" xlink:href="#linear-gradient-5"/>
    <clipPath id="clip-path-27">
      <path id="패스_13204-3" data-name="패스 13204" d="M20.214,19.492a8.869,8.869,0,0,1,2.449,1.452.411.411,0,0,1-.443.688,5.729,5.729,0,0,0-2.31-.711c-1.254-.04-1.324,1.013-.728,1.821a2.879,2.879,0,0,0,2.055,1.117.414.414,0,0,1-.007.825c-1.121.191-2.34,1.24-1.837,2.229.591,1.087,2.424.485,3.5-.211a.41.41,0,0,1,.508.642c-2.677,2.466-4.766,2.066-5.727.82a2.464,2.464,0,0,1,1.158-3.946,2.93,2.93,0,0,1-1.916-1.387,2.425,2.425,0,0,1,2.159-3.542,3.519,3.519,0,0,1,1.139.2" transform="translate(-16.642 -19.288)" fill="none"/>
    </clipPath>
    <linearGradient id="linear-gradient-21" x1="2.828" y1="1.564" x2="2.718" y2="1.564" xlink:href="#linear-gradient-5"/>
  </defs>
  <g id="그룹_36918" data-name="그룹 36918" transform="translate(-162 -1038)">
    <g id="그룹_36828" data-name="그룹 36828" transform="translate(-71.728 24.273)">
      <rect id="사각형_33662" data-name="사각형 33662" width="252" height="252" transform="translate(329.727 1013.727)" fill="none"/>
      <g id="그룹_36830" data-name="그룹 36830" transform="translate(360.665 1049.265)">
        <g id="그룹_36829" data-name="그룹 36829" transform="translate(0 0)" clip-path="url(#clip-path)">
          <path id="패스_13139" data-name="패스 13139" d="M56.2,90.967c-32.165,0-56.2-33-56.2-62.51V12.372A4.886,4.886,0,0,1,4.884,7.485H24.21l.775,5.133a6.649,6.649,0,0,0,6.578,5.657H43.979v7.33H31.563a13.89,13.89,0,0,1-13.616-10.79H10.285A2.953,2.953,0,0,0,7.33,17.767v10.69c0,26.047,20.9,55.18,48.868,55.18Z" transform="translate(0 11.35)" fill="#ef9900"/>
          <path id="패스_13140" data-name="패스 13140" d="M52.635,90.967c32.165,0,56.2-33,56.2-62.51V12.372a4.887,4.887,0,0,0-4.887-4.887H84.623l-.775,5.133a6.649,6.649,0,0,1-6.578,5.657H64.852v7.33H77.271a13.89,13.89,0,0,0,13.616-10.79h7.662a2.953,2.953,0,0,1,2.954,2.952v10.69c0,26.047-20.9,55.18-48.868,55.18Z" transform="translate(79.816 11.35)" fill="#ef9900"/>
          <path id="패스_13141" data-name="패스 13141" d="M83.958,154.2C45.5,154.2,14.322,106.15,14.322,4.445V2.306H83.958Z" transform="translate(21.718 3.497)" fill="#ffe853"/>
          <rect id="사각형_33663" data-name="사각형 33663" width="28.913" height="38.279" transform="translate(76.763 127.972)" fill="#ffe853"/>
          <path id="패스_13142" data-name="패스 13142" d="M74.387,90.705H20.634V85.411A25.655,25.655,0,0,1,46.289,59.756h28.1Z" transform="translate(31.289 90.614)" fill="#ffe853"/>
          <path id="패스_13143" data-name="패스 13143" d="M102.775,2.306V4.455c0,73.23-16.153,118.626-39.56,138.321-9.112,7.67-19.3,11.435-30.076,11.435V2.306Z" transform="translate(50.252 3.497)" fill="#ffe853"/>
          <path id="패스_13144" data-name="패스 13144" d="M86.892,85.414v5.277H33.139V59.759h28.1A25.652,25.652,0,0,1,86.892,85.414" transform="translate(50.252 90.619)" fill="#ffe853"/>
          <path id="패스_13145" data-name="패스 13145" d="M94.426,2.306V4.455c0,73.23-16.153,118.626-39.56,138.321-12.144-.123-16.221-.393-16.221-.393s14.379-8.981,28.1-55.17C75.9,56.366,74.733,15.965,74.511,2.306Z" transform="translate(58.601 3.497)" fill="#ffc831"/>
          <path id="패스_13146" data-name="패스 13146" d="M135.025,14.661H18.948A7.33,7.33,0,0,1,18.948,0H135.025a7.33,7.33,0,1,1,0,14.661" transform="translate(17.618 0)" fill="#ffce41"/>
          <path id="패스_13147" data-name="패스 13147" d="M76.2,85.414v.073l-18.226-.2s-.752-5.941-5.639-13.883A32.57,32.57,0,0,0,40.188,59.759h10.36A25.652,25.652,0,0,1,76.2,85.414" transform="translate(60.941 90.619)" fill="#ffc831"/>
          <path id="패스_13148" data-name="패스 13148" d="M76.649,56.519h-45.1a4.887,4.887,0,1,0,0,9.774h45.1a4.887,4.887,0,0,0,0-9.774" transform="translate(40.429 85.706)" fill="#ef9900"/>
          <path id="패스_13149" data-name="패스 13149" d="M111.992,78.228H22.763a4.558,4.558,0,0,1-4.557-4.557v-.657a4.558,4.558,0,0,1,4.557-4.56h89.229a4.559,4.559,0,0,1,4.56,4.56v.657a4.558,4.558,0,0,1-4.56,4.557" transform="translate(27.608 103.804)" fill="#ffce41"/>
          <path id="패스_13150" data-name="패스 13150" d="M54.117,6.846H16.245a2.455,2.455,0,0,1,0-4.909H54.117a2.455,2.455,0,0,1,0,4.909" transform="translate(20.914 2.937)" fill="#fff"/>
          <path id="패스_13151" data-name="패스 13151" d="M34.643,6.861A2.455,2.455,0,1,1,37.1,4.408a2.458,2.458,0,0,1-2.453,2.453" transform="translate(48.801 2.96)" fill="#fff"/>
          <path id="패스_13152" data-name="패스 13152" d="M20.2,23.679c0-3.591,3.138-5.612,6.731-5.612s6.517,2.021,6.517,5.612v15.6c0,3.591-2.927,5.614-6.517,5.614S20.2,42.875,20.2,39.284ZM25.4,39.2a1.539,1.539,0,0,0,3.078,0V23.773a1.539,1.539,0,1,0-3.078,0Zm16.326-6.341H40.333V43.207a2.61,2.61,0,0,1-5.219,0V20.058a2.61,2.61,0,0,1,5.219,0V28.39h1.389V19.938a2.642,2.642,0,0,1,5.284,0v23.39a2.642,2.642,0,0,1-5.284,0Z" transform="translate(30.637 26.254)" fill="#b77100"/>
          <path id="패스_13153" data-name="패스 13153" d="M32.75,40.07c3.983-3.291,5.886-7.937,5.886-15.846V20.331a2.715,2.715,0,1,1,5.43,0v3.893c0,7.909,1.872,12.434,5.856,15.725a2.661,2.661,0,0,1,.936,2.081A2.492,2.492,0,0,1,48.294,44.6a2.772,2.772,0,0,1-1.812-.606,16.23,16.23,0,0,1-5.131-7.514,16.172,16.172,0,0,1-5.131,7.667,2.8,2.8,0,0,1-1.812.6,2.489,2.489,0,0,1-2.564-2.564,2.7,2.7,0,0,1,.906-2.111M52.667,20.029a2.716,2.716,0,0,1,5.433,0v8.332h1.48a2.262,2.262,0,0,1,0,4.524H58.1V43.238a2.716,2.716,0,0,1-5.433,0Z" transform="translate(48.288 26.255)" fill="#b77100"/>
          <path id="패스_13154" data-name="패스 13154" d="M45.413,27.694C49.064,25.945,51,23.167,51,20.573V20.18a2.719,2.719,0,0,1,5.43,0v.393c0,2.594,1.9,5.222,5.554,6.97a2.4,2.4,0,0,1,1.389,2.292,2.424,2.424,0,0,1-2.476,2.446,3.283,3.283,0,0,1-1.238-.269,12.783,12.783,0,0,1-5.944-5.073,12.856,12.856,0,0,1-5.976,5.222,3.224,3.224,0,0,1-1.236.272,2.422,2.422,0,0,1-2.476-2.443,2.394,2.394,0,0,1,1.389-2.295m2.413,17.96a2.086,2.086,0,0,1-2.081-2.086V36.476A2.085,2.085,0,0,1,47.826,34.4H68.592a2.087,2.087,0,0,1,2.081,2.081v7.091a2.088,2.088,0,0,1-2.081,2.086Zm3.291-4.107H65.3V38.5H51.118ZM65.24,20.029a2.716,2.716,0,0,1,5.433,0V30.923a2.716,2.716,0,1,1-5.433,0Z" transform="translate(66.758 26.255)" fill="#b77100"/>
          <path id="패스_13155" data-name="패스 13155" d="M25.964,56.974a2.192,2.192,0,0,1,2.262-2.2c1.691,0,3.412,0,5.1-.063V51.089a2.689,2.689,0,0,1,5.37,0V54.44c1.812-.154,3.561-.365,5.191-.634a2.679,2.679,0,0,1,.453-.06,2.194,2.194,0,0,1,2.265,2.2,2.144,2.144,0,0,1-1.993,2.174,104.073,104.073,0,0,1-16.389,1.057,2.192,2.192,0,0,1-2.262-2.2m17.293-7.363a2.476,2.476,0,0,1-1.117-.244,12.494,12.494,0,0,1-6.067-5.461,12.225,12.225,0,0,1-6.185,5.763,2.461,2.461,0,0,1-1.117.244,2.462,2.462,0,0,1-1.024-4.678c3.229-1.57,4.887-3.772,5.373-6.007H28.86a2.234,2.234,0,0,1,0-4.467h4.406V33.735c0-1.205,1.21-2.141,2.778-2.141A2.4,2.4,0,0,1,38.7,33.735v1.027h4.406a2.234,2.234,0,1,1,0,4.467H38.883c.481,2.172,2.109,4.225,5.4,5.7A2.322,2.322,0,0,1,45.672,47.2a2.349,2.349,0,0,1-2.416,2.416m4.074-15a2.716,2.716,0,0,1,5.433,0V57.82a2.716,2.716,0,0,1-5.433,0Z" transform="translate(39.372 47.909)" fill="#b77100"/>
          <path id="패스_13156" data-name="패스 13156" d="M39.413,42.245c3.651-1.751,5.252-4.678,5.252-7.272V34.58a2.719,2.719,0,0,1,5.43,0v.393c0,2.594,1.6,5.222,5.252,6.97a2.4,2.4,0,0,1,1.389,2.292,2.424,2.424,0,0,1-2.476,2.446,3.294,3.294,0,0,1-1.238-.269,12.048,12.048,0,0,1-5.612-4.829,11.89,11.89,0,0,1-5.674,5.128,3.224,3.224,0,0,1-1.236.272,2.42,2.42,0,0,1-2.476-2.443,2.394,2.394,0,0,1,1.389-2.295m.03,12.162a5.686,5.686,0,0,1,5.765-5.672H58.336a5.661,5.661,0,1,1,0,11.319H45.208a5.682,5.682,0,0,1-5.765-5.647m6.97,1.54H57.129a1.549,1.549,0,0,0,1.631-1.54,1.577,1.577,0,0,0-1.631-1.57H46.414a1.548,1.548,0,0,0-1.6,1.57,1.52,1.52,0,0,0,1.6,1.54M58.394,34.429a2.716,2.716,0,0,1,5.433,0V37.6h1.631a2.113,2.113,0,0,1,0,4.225H63.827v3.744a2.716,2.716,0,0,1-5.433,0Z" transform="translate(57.66 48.091)" fill="#b77100"/>
        </g>
      </g>
    </g>
    <g id="그룹_36838" data-name="그룹 36838" transform="translate(-8)">
      <path id="사각형_33679" data-name="사각형 33679" d="M20,0H52.5a20,20,0,0,1,20,20v5a20,20,0,0,1-20,20H0a0,0,0,0,1,0,0V20A20,20,0,0,1,20,0Z" transform="translate(176.498 1075)" fill="#037781"/>
      <path id="사각형_33689" data-name="사각형 33689" d="M20,0H52.5a20,20,0,0,1,20,20v5a20,20,0,0,1-20,20H0a0,0,0,0,1,0,0V20A20,20,0,0,1,20,0Z" transform="translate(206.498 1162.953)" fill="#1ca6b2"/>
      <path id="패스_13195" data-name="패스 13195" d="M13438,1547.378s-1.365,12-6.627,14.733,14.942-1.263,17.89-10.944S13438,1547.378,13438,1547.378Z" transform="translate(-13260.503 -432)" fill="#037781"/>
      <path id="패스_13207" data-name="패스 13207" d="M13438,1547.378s-1.365,12-6.627,14.733,14.942-1.263,17.89-10.944S13438,1547.378,13438,1547.378Z" transform="translate(-13230.503 -344.047)" fill="#1ca6b2"/>
      <g id="그룹_36856" data-name="그룹 36856" transform="translate(196 1081.4)">
        <g id="그룹_36839" data-name="그룹 36839" transform="translate(0 -0.001)">
          <g id="그룹_36838-2" data-name="그룹 36838" clip-path="url(#clip-path-2)">
            <rect id="사각형_33680" data-name="사각형 33680" width="32.748" height="32.203" transform="translate(0 0)" fill="url(#linear-gradient)"/>
          </g>
        </g>
        <g id="그룹_36841" data-name="그룹 36841" transform="translate(0 14.296)">
          <g id="그룹_36840" data-name="그룹 36840" clip-path="url(#clip-path-3)">
            <rect id="사각형_33681" data-name="사각형 33681" width="32.748" height="17.906" transform="translate(0 0)" fill="url(#linear-gradient-2)"/>
          </g>
        </g>
        <g id="그룹_36843" data-name="그룹 36843" transform="translate(12.418 1.582)">
          <g id="그룹_36842" data-name="그룹 36842" clip-path="url(#clip-path-4)">
            <rect id="사각형_33682" data-name="사각형 33682" width="8.089" height="2.314" transform="translate(-0.089 0)" fill="url(#linear-gradient-3)"/>
          </g>
        </g>
        <g id="그룹_36845" data-name="그룹 36845" transform="translate(4.918 6.725)">
          <g id="그룹_36844" data-name="그룹 36844" clip-path="url(#clip-path-5)">
            <rect id="사각형_33683" data-name="사각형 33683" width="22.959" height="7.568" transform="translate(-0.024 0)" fill="url(#linear-gradient-4)"/>
          </g>
        </g>
        <g id="그룹_36847" data-name="그룹 36847" transform="translate(0 0)">
          <g id="그룹_36846" data-name="그룹 36846" clip-path="url(#clip-path-6)">
            <path id="패스_13200" data-name="패스 13200" d="M8.426,17.365c-2.309,0-4.224.887-4.224,2.892,0,2.056,1.8,3.111,3.818,3.111s3.823-1.06,3.823-3.357c0-1.463-1.5-2.647-3.417-2.647" transform="translate(-0.762 -3.149)" fill="#fd9e21"/>
            <path id="패스_13201" data-name="패스 13201" d="M29.881,17.365c2.309,0,4.224.887,4.224,2.892,0,2.056-1.8,3.111-3.818,3.111s-3.823-1.06-3.823-3.357c0-1.463,1.5-2.647,3.417-2.647" transform="translate(-4.798 -3.149)" fill="#fd9e21"/>
          </g>
        </g>
        <g id="그룹_36849" data-name="그룹 36849" transform="translate(4.953 9.7)">
          <g id="그룹_36848" data-name="그룹 36848" clip-path="url(#clip-path-7)">
            <rect id="사각형_33685" data-name="사각형 33685" width="8.139" height="3.502" transform="translate(-0.025 0)" fill="url(#linear-gradient-5)"/>
          </g>
        </g>
        <g id="그룹_36851" data-name="그룹 36851" transform="translate(19.751 9.7)">
          <g id="그룹_36850" data-name="그룹 36850" clip-path="url(#clip-path-8)">
            <rect id="사각형_33686" data-name="사각형 33686" width="8.139" height="3.502" transform="translate(-0.071 0)" fill="url(#linear-gradient-6)"/>
          </g>
        </g>
        <g id="그룹_36853" data-name="그룹 36853" transform="translate(13.625 15.791)">
          <g id="그룹_36852" data-name="그룹 36852" clip-path="url(#clip-path-9)">
            <rect id="사각형_33687" data-name="사각형 33687" width="7.429" height="10.521" transform="translate(-0.045 0)" fill="url(#linear-gradient-7)"/>
          </g>
        </g>
        <g id="그룹_36855" data-name="그룹 36855" transform="translate(0 0)">
          <g id="그룹_36854" data-name="그룹 36854" clip-path="url(#clip-path-6)">
            <path id="패스_13205" data-name="패스 13205" d="M12.446,8.157a24.169,24.169,0,0,0-2.991.818,12.345,12.345,0,0,0-2.779,1.565.416.416,0,0,1-.608-.547A6.728,6.728,0,0,1,8.812,7.536a4.98,4.98,0,0,1,3.7-.469.565.565,0,0,1-.067,1.09" transform="translate(-1.089 -1.248)" fill="#d97818"/>
            <path id="패스_13206" data-name="패스 13206" d="M26.028,8.157a24.209,24.209,0,0,1,2.991.818A12.358,12.358,0,0,1,31.8,10.539a.416.416,0,0,0,.608-.547,6.717,6.717,0,0,0-2.744-2.456,4.98,4.98,0,0,0-3.7-.469.565.565,0,0,0,.068,1.09" transform="translate(-4.637 -1.248)" fill="#d97818"/>
          </g>
        </g>
      </g>
      <g id="그룹_36857" data-name="그룹 36857" transform="translate(226 1169.353)">
        <g id="그룹_36839-2" data-name="그룹 36839" transform="translate(0 -0.001)">
          <g id="그룹_36838-3" data-name="그룹 36838" clip-path="url(#clip-path-2)">
            <rect id="사각형_33680-2" data-name="사각형 33680" width="32.748" height="32.203" transform="translate(0 0)" fill="url(#linear-gradient)"/>
          </g>
        </g>
        <g id="그룹_36841-2" data-name="그룹 36841" transform="translate(0 14.296)">
          <g id="그룹_36840-2" data-name="그룹 36840" clip-path="url(#clip-path-3)">
            <rect id="사각형_33681-2" data-name="사각형 33681" width="32.748" height="17.906" transform="translate(0 0)" fill="url(#linear-gradient-2)"/>
          </g>
        </g>
        <g id="그룹_36843-2" data-name="그룹 36843" transform="translate(12.418 1.582)">
          <g id="그룹_36842-2" data-name="그룹 36842" clip-path="url(#clip-path-4)">
            <rect id="사각형_33682-2" data-name="사각형 33682" width="8.089" height="2.314" transform="translate(-0.089 0)" fill="url(#linear-gradient-3)"/>
          </g>
        </g>
        <g id="그룹_36845-2" data-name="그룹 36845" transform="translate(4.918 6.725)">
          <g id="그룹_36844-2" data-name="그룹 36844" clip-path="url(#clip-path-5)">
            <rect id="사각형_33683-2" data-name="사각형 33683" width="22.959" height="7.568" transform="translate(-0.024 0)" fill="url(#linear-gradient-4)"/>
          </g>
        </g>
        <g id="그룹_36847-2" data-name="그룹 36847" transform="translate(0 0)">
          <g id="그룹_36846-2" data-name="그룹 36846" clip-path="url(#clip-path-6)">
            <path id="패스_13200-2" data-name="패스 13200" d="M8.426,17.365c-2.309,0-4.224.887-4.224,2.892,0,2.056,1.8,3.111,3.818,3.111s3.823-1.06,3.823-3.357c0-1.463-1.5-2.647-3.417-2.647" transform="translate(-0.762 -3.149)" fill="#fd9e21"/>
            <path id="패스_13201-2" data-name="패스 13201" d="M29.881,17.365c2.309,0,4.224.887,4.224,2.892,0,2.056-1.8,3.111-3.818,3.111s-3.823-1.06-3.823-3.357c0-1.463,1.5-2.647,3.417-2.647" transform="translate(-4.798 -3.149)" fill="#fd9e21"/>
          </g>
        </g>
        <g id="그룹_36849-2" data-name="그룹 36849" transform="translate(4.953 9.7)">
          <g id="그룹_36848-2" data-name="그룹 36848" clip-path="url(#clip-path-7)">
            <rect id="사각형_33685-2" data-name="사각형 33685" width="8.139" height="3.502" transform="translate(-0.025 0)" fill="url(#linear-gradient-5)"/>
          </g>
        </g>
        <g id="그룹_36851-2" data-name="그룹 36851" transform="translate(19.751 9.7)">
          <g id="그룹_36850-2" data-name="그룹 36850" clip-path="url(#clip-path-8)">
            <rect id="사각형_33686-2" data-name="사각형 33686" width="8.139" height="3.502" transform="translate(-0.071 0)" fill="url(#linear-gradient-6)"/>
          </g>
        </g>
        <g id="그룹_36853-2" data-name="그룹 36853" transform="translate(13.625 15.791)">
          <g id="그룹_36852-2" data-name="그룹 36852" clip-path="url(#clip-path-9)">
            <rect id="사각형_33687-2" data-name="사각형 33687" width="7.429" height="10.521" transform="translate(-0.045 0)" fill="url(#linear-gradient-7)"/>
          </g>
        </g>
        <g id="그룹_36855-2" data-name="그룹 36855" transform="translate(0 0)">
          <g id="그룹_36854-2" data-name="그룹 36854" clip-path="url(#clip-path-6)">
            <path id="패스_13205-2" data-name="패스 13205" d="M12.446,8.157a24.169,24.169,0,0,0-2.991.818,12.345,12.345,0,0,0-2.779,1.565.416.416,0,0,1-.608-.547A6.728,6.728,0,0,1,8.812,7.536a4.98,4.98,0,0,1,3.7-.469.565.565,0,0,1-.067,1.09" transform="translate(-1.089 -1.248)" fill="#d97818"/>
            <path id="패스_13206-2" data-name="패스 13206" d="M26.028,8.157a24.209,24.209,0,0,1,2.991.818A12.358,12.358,0,0,1,31.8,10.539a.416.416,0,0,0,.608-.547,6.717,6.717,0,0,0-2.744-2.456,4.98,4.98,0,0,0-3.7-.469.565.565,0,0,0,.068,1.09" transform="translate(-4.637 -1.248)" fill="#d97818"/>
          </g>
        </g>
      </g>
    </g>
    <g id="그룹_36858" data-name="그룹 36858" transform="translate(497 1075)">
      <path id="사각형_33679-2" data-name="사각형 33679" d="M20,0H52.5a20,20,0,0,1,20,20V45a0,0,0,0,1,0,0H20A20,20,0,0,1,0,25V20A20,20,0,0,1,20,0Z" transform="translate(0 -20)" fill="#1ca6b2"/>
      <path id="사각형_33689-2" data-name="사각형 33689" d="M20,0H52.5a20,20,0,0,1,20,20V45a0,0,0,0,1,0,0H20A20,20,0,0,1,0,25V20A20,20,0,0,1,20,0Z" transform="translate(30 77.953)" fill="#037781"/>
      <path id="패스_13195-2" data-name="패스 13195" d="M13442.168,1547.378s1.365,12,6.627,14.733-14.942-1.263-17.89-10.944S13442.168,1547.378,13442.168,1547.378Z" transform="translate(-13370.665 -1527)" fill="#1ca6b2"/>
      <path id="패스_13207-2" data-name="패스 13207" d="M13442.168,1547.378s1.365,12,6.627,14.733-14.942-1.263-17.89-10.944S13442.168,1547.378,13442.168,1547.378Z" transform="translate(-13340.665 -1429.047)" fill="#037781"/>
      <g id="그룹_36856-2" data-name="그룹 36856" transform="translate(20.252 -13.601)">
        <g id="그룹_36839-3" data-name="그룹 36839">
          <g id="그룹_36838-4" data-name="그룹 36838" clip-path="url(#clip-path-20)">
            <rect id="사각형_33680-3" data-name="사각형 33680" width="32.748" height="32.203" transform="translate(0 0)" fill="url(#linear-gradient-15)"/>
          </g>
        </g>
        <g id="그룹_36841-3" data-name="그룹 36841" transform="translate(0 14.297)">
          <g id="그룹_36840-3" data-name="그룹 36840" clip-path="url(#clip-path-21)">
            <rect id="사각형_33681-3" data-name="사각형 33681" width="32.748" height="17.906" transform="translate(0 0)" fill="url(#linear-gradient-16)"/>
          </g>
        </g>
        <g id="그룹_36843-3" data-name="그룹 36843" transform="translate(12.42 1.583)">
          <g id="그룹_36842-3" data-name="그룹 36842" clip-path="url(#clip-path-22)">
            <rect id="사각형_33682-3" data-name="사각형 33682" width="8.089" height="2.314" transform="translate(-0.089 0)" fill="url(#linear-gradient-17)"/>
          </g>
        </g>
        <g id="그룹_36845-3" data-name="그룹 36845" transform="translate(4.918 6.726)">
          <g id="그룹_36844-3" data-name="그룹 36844" clip-path="url(#clip-path-23)">
            <rect id="사각형_33683-3" data-name="사각형 33683" width="22.959" height="7.568" transform="translate(-0.024 0)" fill="url(#linear-gradient-18)"/>
          </g>
        </g>
        <g id="그룹_36847-3" data-name="그룹 36847" transform="translate(0 0.001)">
          <g id="그룹_36846-3" data-name="그룹 36846" clip-path="url(#clip-path-6)">
            <path id="패스_13200-3" data-name="패스 13200" d="M7.619,17.365c2.309,0,4.224.887,4.224,2.892,0,2.056-1.8,3.111-3.818,3.111S4.2,22.308,4.2,20.012c0-1.463,1.5-2.647,3.417-2.647" transform="translate(17.464 -3.149)" fill="#fd9e21"/>
            <path id="패스_13201-3" data-name="패스 13201" d="M30.688,17.365c-2.309,0-4.224.887-4.224,2.892,0,2.056,1.8,3.111,3.818,3.111s3.823-1.06,3.823-3.357c0-1.463-1.5-2.647-3.417-2.647" transform="translate(-23.024 -3.149)" fill="#fd9e21"/>
          </g>
        </g>
        <g id="그룹_36849-3" data-name="그룹 36849" transform="translate(19.751 9.701)">
          <g id="그룹_36848-3" data-name="그룹 36848" clip-path="url(#clip-path-25)">
            <rect id="사각형_33685-3" data-name="사각형 33685" width="8.139" height="3.502" transform="translate(-0.071 0)" fill="url(#linear-gradient-19)"/>
          </g>
        </g>
        <g id="그룹_36851-3" data-name="그룹 36851" transform="translate(4.953 9.701)">
          <g id="그룹_36850-3" data-name="그룹 36850" clip-path="url(#clip-path-26)">
            <rect id="사각형_33686-3" data-name="사각형 33686" width="8.139" height="3.502" transform="translate(-0.025 0)" fill="url(#linear-gradient-20)"/>
          </g>
        </g>
        <g id="그룹_36853-3" data-name="그룹 36853" transform="translate(12.233 15.792)">
          <g id="그룹_36852-3" data-name="그룹 36852" clip-path="url(#clip-path-27)">
            <rect id="사각형_33687-3" data-name="사각형 33687" width="7.429" height="10.521" transform="translate(-0.493 0)" fill="url(#linear-gradient-21)"/>
          </g>
        </g>
        <g id="그룹_36855-3" data-name="그룹 36855" transform="translate(0 0.001)">
          <g id="그룹_36854-3" data-name="그룹 36854" clip-path="url(#clip-path-6)">
            <path id="패스_13205-3" data-name="패스 13205" d="M6.459,8.157a24.169,24.169,0,0,1,2.991.818,12.345,12.345,0,0,1,2.779,1.565.416.416,0,0,0,.608-.547,6.728,6.728,0,0,0-2.744-2.456,4.98,4.98,0,0,0-3.7-.469.565.565,0,0,0,.067,1.09" transform="translate(14.932 -1.248)" fill="#d97818"/>
            <path id="패스_13206-3" data-name="패스 13206" d="M32.014,8.157a24.209,24.209,0,0,0-2.991.818,12.358,12.358,0,0,0-2.779,1.565.416.416,0,0,1-.608-.547,6.717,6.717,0,0,1,2.744-2.456,4.98,4.98,0,0,1,3.7-.469.565.565,0,0,1-.068,1.09" transform="translate(-20.657 -1.248)" fill="#d97818"/>
          </g>
        </g>
      </g>
      <g id="그룹_36857-2" data-name="그룹 36857" transform="translate(50.252 84.352)">
        <g id="그룹_36839-4" data-name="그룹 36839">
          <g id="그룹_36838-5" data-name="그룹 36838" clip-path="url(#clip-path-20)">
            <rect id="사각형_33680-4" data-name="사각형 33680" width="32.748" height="32.203" transform="translate(0 0)" fill="url(#linear-gradient-15)"/>
          </g>
        </g>
        <g id="그룹_36841-4" data-name="그룹 36841" transform="translate(0 14.297)">
          <g id="그룹_36840-4" data-name="그룹 36840" clip-path="url(#clip-path-21)">
            <rect id="사각형_33681-4" data-name="사각형 33681" width="32.748" height="17.906" transform="translate(0 0)" fill="url(#linear-gradient-16)"/>
          </g>
        </g>
        <g id="그룹_36843-4" data-name="그룹 36843" transform="translate(12.42 1.583)">
          <g id="그룹_36842-4" data-name="그룹 36842" clip-path="url(#clip-path-22)">
            <rect id="사각형_33682-4" data-name="사각형 33682" width="8.089" height="2.314" transform="translate(-0.089 0)" fill="url(#linear-gradient-17)"/>
          </g>
        </g>
        <g id="그룹_36845-4" data-name="그룹 36845" transform="translate(4.918 6.726)">
          <g id="그룹_36844-4" data-name="그룹 36844" clip-path="url(#clip-path-23)">
            <rect id="사각형_33683-4" data-name="사각형 33683" width="22.959" height="7.568" transform="translate(-0.024 0)" fill="url(#linear-gradient-18)"/>
          </g>
        </g>
        <g id="그룹_36847-4" data-name="그룹 36847" transform="translate(0 0.001)">
          <g id="그룹_36846-4" data-name="그룹 36846" clip-path="url(#clip-path-6)">
            <path id="패스_13200-4" data-name="패스 13200" d="M7.619,17.365c2.309,0,4.224.887,4.224,2.892,0,2.056-1.8,3.111-3.818,3.111S4.2,22.308,4.2,20.012c0-1.463,1.5-2.647,3.417-2.647" transform="translate(17.464 -3.149)" fill="#fd9e21"/>
            <path id="패스_13201-4" data-name="패스 13201" d="M30.688,17.365c-2.309,0-4.224.887-4.224,2.892,0,2.056,1.8,3.111,3.818,3.111s3.823-1.06,3.823-3.357c0-1.463-1.5-2.647-3.417-2.647" transform="translate(-23.024 -3.149)" fill="#fd9e21"/>
          </g>
        </g>
        <g id="그룹_36849-4" data-name="그룹 36849" transform="translate(19.751 9.701)">
          <g id="그룹_36848-4" data-name="그룹 36848" clip-path="url(#clip-path-25)">
            <rect id="사각형_33685-4" data-name="사각형 33685" width="8.139" height="3.502" transform="translate(-0.071 0)" fill="url(#linear-gradient-19)"/>
          </g>
        </g>
        <g id="그룹_36851-4" data-name="그룹 36851" transform="translate(4.953 9.701)">
          <g id="그룹_36850-4" data-name="그룹 36850" clip-path="url(#clip-path-26)">
            <rect id="사각형_33686-4" data-name="사각형 33686" width="8.139" height="3.502" transform="translate(-0.025 0)" fill="url(#linear-gradient-20)"/>
          </g>
        </g>
        <g id="그룹_36853-4" data-name="그룹 36853" transform="translate(12.233 15.792)">
          <g id="그룹_36852-4" data-name="그룹 36852" clip-path="url(#clip-path-27)">
            <rect id="사각형_33687-4" data-name="사각형 33687" width="7.429" height="10.521" transform="translate(-0.493 0)" fill="url(#linear-gradient-21)"/>
          </g>
        </g>
        <g id="그룹_36855-4" data-name="그룹 36855" transform="translate(0 0.001)">
          <g id="그룹_36854-4" data-name="그룹 36854" clip-path="url(#clip-path-6)">
            <path id="패스_13205-4" data-name="패스 13205" d="M6.459,8.157a24.169,24.169,0,0,1,2.991.818,12.345,12.345,0,0,1,2.779,1.565.416.416,0,0,0,.608-.547,6.728,6.728,0,0,0-2.744-2.456,4.98,4.98,0,0,0-3.7-.469.565.565,0,0,0,.067,1.09" transform="translate(14.932 -1.248)" fill="#d97818"/>
            <path id="패스_13206-4" data-name="패스 13206" d="M32.014,8.157a24.209,24.209,0,0,0-2.991.818,12.358,12.358,0,0,0-2.779,1.565.416.416,0,0,1-.608-.547,6.717,6.717,0,0,1,2.744-2.456,4.98,4.98,0,0,1,3.7-.469.565.565,0,0,1-.068,1.09" transform="translate(-20.657 -1.248)" fill="#d97818"/>
          </g>
        </g>
      </g>
    </g>
  </g>
</svg>
