<svg xmlns="http://www.w3.org/2000/svg" width="49.379" height="28.689" viewBox="0 0 49.379 28.689">
  <g id="그룹_11683" data-name="그룹 11683" transform="translate(0.142 0.142)">
    <path id="패스_9804" data-name="패스 9804" d="M15.507,28.439H1.75V3.4C1.805,2.465,3.126,1.75,4.667,1.75h7.979c1.541,0,2.861.715,2.917,1.6V28.439Z" transform="translate(-0.892 -0.892)" fill="none" stroke="#101010" stroke-linejoin="round" stroke-width="2"/>
    <circle id="타원_586" data-name="타원 586" cx="3.302" cy="3.302" r="3.302" transform="translate(4.435 4.105)" fill="none" stroke="#101010" stroke-linejoin="round" stroke-width="2"/>
    <circle id="타원_587" data-name="타원 587" cx="3.302" cy="3.302" r="3.302" transform="translate(4.435 13.679)" fill="none" stroke="#101010" stroke-linejoin="round" stroke-width="2"/>
    <path id="패스_9805" data-name="패스 9805" d="M37.41,3.75h26.8a.661.661,0,0,1,.66.605v10.9a.625.625,0,0,1-.66.605H37.41a.661.661,0,0,1-.66-.605V4.41A.636.636,0,0,1,37.41,3.75Z" transform="translate(-16.632 -1.791)" fill="none" stroke="#000" stroke-width="2"/>
    <rect id="사각형_7584" data-name="사각형 7584" width="19.59" height="6.053" transform="translate(24.355 1.959)" fill="none" stroke="#000" stroke-linecap="round" stroke-linejoin="round" stroke-width="2"/>
  </g>
</svg>
