<svg width="142" height="40" viewBox="0 0 142 40" fill="none" xmlns="http://www.w3.org/2000/svg">
<path d="M125.944 0.551758H132.013V33.6575H142V39.1752H125.944V0.551758Z" fill="#93B273"/>
<path d="M116.744 0.0932617H122.813V38.7167H116.744V0.0932617Z" fill="#93B273"/>
<path d="M104.217 39.7269C101.237 39.7269 98.9566 38.8809 97.3749 37.1888C95.7932 35.4967 95.0023 33.1058 95.0023 30.0159V9.71102C95.0023 6.62115 95.7932 4.23018 97.3749 2.53811C98.9566 0.846036 101.237 0 104.217 0C107.196 0 109.477 0.846036 111.059 2.53811C112.64 4.23018 113.431 6.62115 113.431 9.71102V30.0159C113.431 33.1058 112.64 35.4967 111.059 37.1888C109.477 38.8809 107.196 39.7269 104.217 39.7269ZM104.217 34.2093C106.313 34.2093 107.362 32.9402 107.362 30.4021V9.32479C107.362 6.78668 106.313 5.51763 104.217 5.51763C102.12 5.51763 101.072 6.78668 101.072 9.32479V30.4021C101.072 32.9402 102.12 34.2093 104.217 34.2093Z" fill="#93B273"/>
<path d="M68.7694 0.551758H85.3223V6.06939H74.8388V16.277H83.1705V21.7946H74.8388V33.6575H85.3223V39.1752H68.7694V0.551758Z" fill="#93B273"/>
<path d="M47.2046 0.551758H53.3292L57.3019 30.5125H57.4122L61.3849 0.551758H66.9577L61.109 39.1752H53.0533L47.2046 0.551758Z" fill="#93B273"/>
<path d="M39.2932 0.551758H45.3626V39.1752H39.2932V0.551758Z" fill="#93B273"/>
<path d="M21.43 0.551758H27.4994V33.6575H37.4863V39.1752H21.43V0.551758Z" fill="#93B273"/>
<path d="M9.21444 39.7269C6.23492 39.7269 3.9543 38.8809 2.37258 37.1888C0.79086 35.4967 0 33.1058 0 30.0159V9.71102C0 6.62115 0.79086 4.23018 2.37258 2.53811C3.9543 0.846036 6.23492 0 9.21444 0C12.194 0 14.4746 0.846036 16.0563 2.53811C17.638 4.23018 18.4289 6.62115 18.4289 9.71102V30.0159C18.4289 33.1058 17.638 35.4967 16.0563 37.1888C14.4746 38.8809 12.194 39.7269 9.21444 39.7269ZM9.21444 34.2093C11.3111 34.2093 12.3595 32.9402 12.3595 30.4021V9.32479C12.3595 6.78668 11.3111 5.51763 9.21444 5.51763C7.11774 5.51763 6.06939 6.78668 6.06939 9.32479V30.4021C6.06939 32.9402 7.11774 34.2093 9.21444 34.2093Z" fill="#93B273"/>
</svg>
