<?xml version="1.0" encoding="UTF-8"?>
<svg id="_레이어_2" data-name="레이어 2" xmlns="http://www.w3.org/2000/svg" viewBox="0 0 1080 1080">
  <defs>
    <style>
      .cls-1, .cls-2 {
        fill: #fff;
      }

      .cls-2 {
        opacity: 0;
      }
    </style>
  </defs>
  <g id="_레이어_1-2" data-name="레이어 1">
    <rect class="cls-2" width="1080" height="1080"/>
    <g>
      <path class="cls-1" d="M561.17,469.89c0-149.59-154.73-203.94-217.77-210.51-49.65-5.17-157.16-6.14-219.44-4.63-25.56,.62-45.96,21.47-45.96,47.04v476.06c0,26.53,21.51,48.05,48.04,48.05h113.05c33.8,0,61.2-27.4,61.2-61.2v-103.3c0-15.18,11.45-27.96,26.55-29.5,66.39-6.75,234.32-36.24,234.32-162.01Zm-242.69,58.55c-9.52,1.59-18.18-5.7-18.18-15.35v-100.95c47.95,0,86.2,10.27,86.2,62.61,0,36.85-42.73,49.45-68.02,53.69Z"/>
      <path class="cls-1" d="M647.91,476.34h-58.25c-7.14,97.82-78.44,130.59-78.44,130.59l-88.5,186.53c-7.15,15.06,3.84,32.43,20.51,32.43h51.45c24.64,0,31.82-6.58,31.82-6.58,36.3-21.02,29.99-39.45,42.92-48.68,12.93-9.22,26.43-8.58,52.02-8.58s34.1,8.57,34.1,8.57c18.42,14.95,21.77,29.39,21.77,29.39V505.74c0-16.24-13.16-29.4-29.4-29.4Zm-25.19,201.49c-4.38,5.58-21.05,12.57-30.33,4.67-19.18-16.32,1.85-73.19,4.34-79.44,2.49-6.25,18.42-19.5,25.98,14.48,7.56,33.98,4.38,54.7,0,60.29Z"/>
      <path class="cls-1" d="M868.87,479.57c-30.36-3.16-96.08-3.75-134.15-2.83-15.63,.38-28.1,13.13-28.1,28.76v291.03c0,16.22,13.15,29.37,29.37,29.37h69.11c20.66,0,37.41-16.75,37.41-37.41v-63.15c0-9.28,7-17.09,16.23-18.03,40.59-4.12,143.25-22.15,143.25-99.04,0-91.45-94.59-124.67-133.13-128.69Zm-15.24,164.48c-5.82,.97-11.11-3.48-11.11-9.38v-61.71c29.31,0,52.69,6.28,52.69,38.27,0,22.53-26.12,30.23-41.58,32.82Z"/>
      <polygon class="cls-1" points="597.7 434.45 597.89 434.45 606.62 456.72 611.82 456.72 620.55 434.45 620.74 434.45 620.74 456.72 628.72 456.72 628.72 421.05 618.24 421.05 609.32 444.34 609.14 444.34 600.22 421.05 589.71 421.05 589.71 456.72 597.7 456.72 597.7 434.45"/>
      <path class="cls-1" d="M648.96,448.91h11.62l2.23,7.81h9.54l-12.01-35.67h-11.12l-12.02,35.67h9.54l2.22-7.81Zm5.89-20.1l3.86,13.55h-7.89l3.85-13.55h.17Z"/>
      <path class="cls-1" d="M709.62,450.04c1.27-2.35,1.92-5.15,1.92-8.39v-4.47h-15.87v6.43h7.12l-.05,.44c-.08,1.19-.44,2.22-1.06,3.09s-1.46,1.54-2.51,2.02c-1.05,.47-2.25,.71-3.62,.71-1.73,0-3.24-.44-4.52-1.31-1.28-.87-2.28-2.14-2.98-3.81-.7-1.66-1.05-3.66-1.05-6.01v-.02c0-2.31,.33-4.26,.98-5.87,.65-1.61,1.58-2.83,2.8-3.66,1.22-.83,2.68-1.25,4.38-1.25s3.23,.41,4.44,1.22c1.21,.82,2.05,1.94,2.51,3.37l.1,.25h8.97l-.05-.29c-.3-2.31-1.16-4.37-2.6-6.19-1.43-1.82-3.29-3.26-5.58-4.3-2.29-1.05-4.9-1.57-7.81-1.57-3.59,0-6.69,.73-9.28,2.19-2.6,1.46-4.6,3.55-6.01,6.29-1.41,2.74-2.12,6.04-2.12,9.91v.03c0,3.9,.71,7.24,2.13,10,1.42,2.76,3.44,4.87,6.07,6.34,2.63,1.47,5.78,2.2,9.46,2.2,3.39,0,6.3-.63,8.71-1.9,2.42-1.27,4.26-3.08,5.54-5.43Z"/>
      <path class="cls-1" d="M729.4,448.91h11.62l2.23,7.81h9.54l-12.01-35.67h-11.12l-12.02,35.67h9.54l2.22-7.81Zm5.89-20.1l3.86,13.55h-7.89l3.85-13.55h.17Z"/>
      <polygon class="cls-1" points="788.8 449.43 771.37 449.43 771.37 449.26 788.26 426.81 788.26 421.05 760.91 421.05 760.91 428.34 777.6 428.34 777.6 428.52 760.65 450.94 760.65 456.72 788.8 456.72 788.8 449.43"/>
      <rect class="cls-1" x="798.63" y="421.05" width="9.07" height="35.67"/>
      <polygon class="cls-1" points="827.25 435.93 827.42 435.93 841.74 456.72 849.36 456.72 849.36 421.05 840.31 421.05 840.31 441.62 840.15 441.62 825.89 421.05 818.18 421.05 818.18 456.72 827.25 456.72 827.25 435.93"/>
      <polygon class="cls-1" points="884.28 449.43 868.9 449.43 868.9 442.21 883.37 442.21 883.37 435.39 868.9 435.39 868.9 428.34 884.28 428.34 884.28 421.05 859.83 421.05 859.83 456.72 884.28 456.72 884.28 449.43"/>
    </g>
  </g>
</svg>