<svg xmlns="http://www.w3.org/2000/svg" width="12" height="14" viewBox="0 0 12 14" fill="none">
  <path fill-rule="evenodd" clip-rule="evenodd" d="M3.84522 4.5H8.15469C8.69659 4.5 9.13366 4.49999 9.4876 4.52891C9.85203 4.55868 10.1721 4.62159 10.4683 4.77248C10.9387 5.01217 11.3211 5.39462 11.5608 5.86502C11.7117 6.16117 11.7746 6.48126 11.8044 6.84569C11.8333 7.19963 11.8333 7.6367 11.8333 8.17858V8.22222C11.8333 9.04349 11.8333 9.69046 11.7908 10.2111C11.7474 10.7423 11.6572 11.1859 11.4518 11.589C11.1163 12.2475 10.5808 12.783 9.92226 13.1185C9.51916 13.3239 9.07558 13.4141 8.5444 13.4575C8.02375 13.5 7.37678 13.5 6.55551 13.5H5.44441C4.62314 13.5 3.97617 13.5 3.45552 13.4575C2.92434 13.4141 2.48076 13.3239 2.07766 13.1185C1.41909 12.783 0.88366 12.2475 0.548103 11.589C0.342713 11.1859 0.252558 10.7423 0.209159 10.2111C0.16662 9.69045 0.166623 9.04348 0.166626 8.22221V8.1786C0.166621 7.6367 0.166617 7.19963 0.195535 6.84569C0.22531 6.48126 0.288216 6.16117 0.43911 5.86502C0.678793 5.39462 1.06124 5.01217 1.53165 4.77248C1.8278 4.62159 2.14789 4.55868 2.51231 4.52891C2.86625 4.49999 3.30333 4.5 3.84522 4.5ZM2.59375 5.52559C2.29116 5.55031 2.11732 5.5964 1.98564 5.66349C1.7034 5.8073 1.47393 6.03677 1.33012 6.31901C1.26302 6.45069 1.21694 6.62454 1.19221 6.92712C1.16702 7.23554 1.16663 7.6317 1.16663 8.2C1.16663 9.04833 1.16702 9.65451 1.20584 10.1297C1.24418 10.599 1.31752 10.8963 1.43911 11.135C1.67879 11.6054 2.06124 11.9878 2.53165 12.2275C2.77028 12.3491 3.06761 12.4224 3.53695 12.4608C4.01212 12.4996 4.6183 12.5 5.46663 12.5H6.53329C7.38162 12.5 7.9878 12.4996 8.46297 12.4608C8.93231 12.4224 9.22963 12.3491 9.46827 12.2275C9.93867 11.9878 10.3211 11.6054 10.5608 11.135C10.6824 10.8963 10.7557 10.599 10.7941 10.1297C10.8329 9.65451 10.8333 9.04833 10.8333 8.2C10.8333 7.6317 10.8329 7.23554 10.8077 6.92712C10.783 6.62454 10.7369 6.45069 10.6698 6.31901C10.526 6.03677 10.2965 5.8073 10.0143 5.66349C9.8826 5.5964 9.70876 5.55031 9.40617 5.52559C9.09775 5.50039 8.70159 5.5 8.13329 5.5H3.86663C3.29832 5.5 2.90217 5.50039 2.59375 5.52559Z" fill="#333333"/>
  <path fill-rule="evenodd" clip-rule="evenodd" d="M2.83325 3.66667C2.83325 1.91776 4.25102 0.5 5.99992 0.5C7.74882 0.5 9.16658 1.91776 9.16658 3.66667V5C9.16658 5.27614 8.94273 5.5 8.66658 5.5C8.39044 5.5 8.16658 5.27614 8.16658 5V3.66667C8.16658 2.47005 7.19654 1.5 5.99992 1.5C4.8033 1.5 3.83325 2.47005 3.83325 3.66667V5C3.83325 5.27614 3.60939 5.5 3.33325 5.5C3.05711 5.5 2.83325 5.27614 2.83325 5V3.66667Z" fill="#333333"/>
  <path d="M7.33329 8.33333C7.33329 9.06971 6.73634 9.66667 5.99996 9.66667C5.26358 9.66667 4.66663 9.06971 4.66663 8.33333C4.66663 7.59695 5.26358 7 5.99996 7C6.73634 7 7.33329 7.59695 7.33329 8.33333Z" fill="#333333"/>
</svg>