<svg xmlns="http://www.w3.org/2000/svg" width="26" height="26" viewBox="0 0 26 26" fill="none">
  <path fill-rule="evenodd" clip-rule="evenodd" d="M6.36565 16.7881L5.20148 16.497C5.20595 16.4791 5.21056 16.4603 5.21537 16.4408C5.26571 16.236 5.3372 15.9452 5.48853 15.6779C5.63986 15.4107 5.85243 15.1998 6.00213 15.0512C6.01643 15.037 6.03015 15.0234 6.04319 15.0104L13.9873 7.06632C14.0016 7.05198 14.0159 7.03763 14.0303 7.02327C14.3258 6.72759 14.626 6.42728 14.9097 6.21082C15.2349 5.96271 15.675 5.71484 16.25 5.71484C16.825 5.71484 17.2652 5.96271 17.5903 6.21082C17.874 6.42728 18.1742 6.72759 18.4697 7.02326C18.4841 7.03763 18.4984 7.05198 18.5127 7.06632L17.6642 7.91484C16.9975 7.24818 16.6642 6.91484 16.25 6.91484C15.8358 6.91484 15.5025 7.24818 14.8358 7.91484L6.89172 15.8589C6.69707 16.0536 6.59974 16.1509 6.53277 16.2692C6.46579 16.3875 6.43241 16.521 6.36565 16.7881ZM5.74679 19.2635L6.36565 16.7881L5.20148 16.497L4.45461 19.4845C4.45176 19.4959 4.44873 19.5079 4.44556 19.5205C4.40938 19.6642 4.35458 19.8818 4.33546 20.0774C4.3132 20.3048 4.30243 20.8331 4.73495 21.2657C5.16748 21.6982 5.6958 21.6874 5.92328 21.6652C6.11878 21.6461 6.33644 21.5913 6.48013 21.5551C6.49273 21.5519 6.50477 21.5489 6.51616 21.546L9.50362 20.7992C9.52151 20.7947 9.54029 20.7901 9.55985 20.7853C9.76463 20.7349 10.0554 20.6634 10.3227 20.5121M5.74417 19.2739L5.61878 19.7755C5.52853 20.1365 5.4834 20.3171 5.58349 20.4171C5.68358 20.5172 5.86409 20.4721 6.22512 20.3818L9.21257 19.635C9.47963 19.5682 9.61316 19.5348 9.73145 19.4679C9.84974 19.4009 9.94707 19.3036 10.1417 19.1089L18.0858 11.1648C18.7525 10.4982 19.0858 10.1648 19.0858 9.75063C19.0858 9.33642 18.7525 9.00308 18.0858 8.33642L17.6642 7.91484L18.5127 7.06632L18.9343 7.48789C18.9486 7.50222 18.963 7.51657 18.9774 7.53092C19.273 7.82644 19.5733 8.12658 19.7898 8.4103C20.0379 8.73548 20.2858 9.17565 20.2858 9.75063C20.2858 10.3256 20.0379 10.7658 19.7898 11.091C19.5734 11.3747 19.2731 11.6748 18.9774 11.9703C18.963 11.9847 18.9487 11.999 18.9343 12.0134L10.9902 19.9574C10.9772 19.9705 10.9636 19.9842 10.9494 19.9985C10.8009 20.1482 10.59 20.3608 10.3227 20.5121M5.74679 19.2635L5.74417 19.2739L5.74679 19.2635Z" fill="#333333"/>
  <path fill-rule="evenodd" clip-rule="evenodd" d="M17.4507 12.8811L13.1174 8.54775L13.9659 7.69922L18.2993 12.0326L17.4507 12.8811Z" fill="#333333"/>
</svg>