<svg xmlns="http://www.w3.org/2000/svg" width="20" height="20" viewBox="0 0 20 20" fill="none">
  <path d="M8.45362 5.52156C9.10913 3.8874 9.43688 3.07031 10.0005 3.07031C10.5641 3.07031 10.8918 3.8874 11.5473 5.52156L11.5779 5.59766C11.9482 6.52088 12.1334 6.98249 12.5107 7.26307C12.8881 7.54364 13.3835 7.58801 14.3743 7.67674L14.5534 7.69278C16.1749 7.838 16.9856 7.91061 17.1591 8.42643C17.3326 8.94225 16.7305 9.49003 15.5263 10.5856L15.1244 10.9513C14.5148 11.5058 14.21 11.7831 14.068 12.1466C14.0415 12.2144 14.0194 12.2838 14.002 12.3545C13.9086 12.7334 13.9979 13.1357 14.1764 13.9402L14.2319 14.1907C14.56 15.6693 14.724 16.4086 14.4376 16.7275C14.3306 16.8466 14.1915 16.9324 14.037 16.9746C13.6235 17.0874 13.0365 16.609 11.8623 15.6523C11.0913 15.0241 10.7059 14.71 10.2633 14.6393C10.0892 14.6115 9.91179 14.6115 9.7377 14.6393C9.29511 14.71 8.90962 15.0241 8.13865 15.6523C6.96452 16.609 6.37746 17.0874 5.96396 16.9746C5.80944 16.9324 5.67035 16.8466 5.56333 16.7275C5.27693 16.4086 5.44096 15.6693 5.76902 14.1907L5.82459 13.9402C6.00309 13.1357 6.09235 12.7334 5.99897 12.3545C5.98155 12.2838 5.95952 12.2144 5.93302 12.1466C5.79096 11.7831 5.48616 11.5058 4.87657 10.9513L4.47467 10.5856C3.27047 9.49003 2.66837 8.94225 2.84185 8.42643C3.01533 7.91061 3.82609 7.838 5.4476 7.69278L5.62671 7.67674C6.61748 7.58801 7.11286 7.54364 7.49023 7.26307C7.86761 6.98249 8.05277 6.52088 8.4231 5.59766L8.45362 5.52156Z" fill="#999"/>
</svg>