<svg xmlns="http://www.w3.org/2000/svg" width="36" height="36" viewBox="0 0 36 36" fill="none">
  <path d="M4.5 14.7812C4.5 13.2452 5.74516 12 7.28115 12V12C8.33458 12 9.29759 11.4048 9.76869 10.4626L11 8C11.4339 7.13211 11.6509 6.69817 12.0109 6.41915C12.1225 6.33272 12.2428 6.25834 12.37 6.19724C12.7806 6 13.2657 6 14.2361 6H21.7639C22.7343 6 23.2194 6 23.63 6.19724C23.7572 6.25834 23.8775 6.33272 23.9891 6.41915C24.3491 6.69817 24.5661 7.13211 25 8L26.2313 10.4626C26.7024 11.4048 27.6654 12 28.7188 12V12C30.2548 12 31.5 13.2452 31.5 14.7812V24C31.5 26.8284 31.5 28.2426 30.6213 29.1213C29.7426 30 28.3284 30 25.5 30H10.5C7.67157 30 6.25736 30 5.37868 29.1213C4.5 28.2426 4.5 26.8284 4.5 24V14.7812Z" stroke="#666666" stroke-width="1.5"/>
  <circle cx="18" cy="19.5" r="5.25" stroke="#666666" stroke-width="1.5"/>
</svg>