<svg xmlns="http://www.w3.org/2000/svg" width="20" height="20" viewBox="0 0 20 20" fill="none">
  <path d="M7.38807 1.41814L5.69404 3.11217C6.40673 3.82486 6.40673 4.98158 5.69404 5.69426C4.98135 6.40695 3.82464 6.40695 3.11195 5.69426L1.41792 7.38829C1.00747 7.79874 1.00747 8.47038 1.41792 8.88083L5.13807 12.601L12.6008 5.13829L8.88061 1.41814C8.47016 1.0077 7.79852 1.0077 7.38807 1.41814Z" fill="#E31937"/>
  <path d="M12.9367 5.47633L12.2651 4.80469L4.79119 12.2786L5.46284 12.9502L12.9367 5.47633Z" fill="#333333"/>
  <path d="M7.29111 7.96368L6.44036 7.11293C6.2538 6.92636 6.2538 6.62786 6.44036 6.44129C6.62693 6.25472 6.92544 6.25472 7.11201 6.44129L7.96275 7.29204C8.14932 7.4786 8.14932 7.77711 7.96275 7.96368C7.77618 8.15024 7.47768 8.15024 7.29111 7.96368Z" fill="white"/>
  <path d="M8.392 6.86212L7.54125 6.01137C7.35469 5.8248 7.35469 5.52629 7.54125 5.33973C7.72782 5.15316 8.02633 5.15316 8.2129 5.33973L9.06364 6.19047C9.25021 6.37704 9.25021 6.67555 9.06364 6.86212C8.87708 7.04868 8.57857 7.04868 8.392 6.86212Z" fill="white"/>
  <path d="M6.19046 9.06524L5.33972 8.21449C5.15315 8.02793 5.15315 7.72942 5.33972 7.54285C5.52628 7.35629 5.82479 7.35629 6.01136 7.54285L6.8621 8.3936C7.04867 8.58017 7.04867 8.87867 6.8621 9.06524C6.67554 9.25181 6.37703 9.25181 6.19046 9.06524Z" fill="white"/>
  <path d="M10.7836 18.9179L1.0821 9.21642C0.485085 8.6194 0.485085 7.64925 1.0821 7.05224L2.77613 5.35821C2.9627 5.17164 3.2612 5.17164 3.44777 5.35821C3.97389 5.88433 4.8321 5.88433 5.35822 5.35821C5.88434 4.83209 5.88434 3.97388 5.35822 3.44776C5.17165 3.26119 5.17165 2.96269 5.35822 2.77612L7.05225 1.08209C7.64926 0.485075 8.61941 0.485075 9.21643 1.08209L18.9179 10.7836C19.5149 11.3806 19.5149 12.3507 18.9179 12.9478L12.9478 18.9179C12.3508 19.5149 11.3806 19.5149 10.7836 18.9179ZM3.14553 6.33209L1.75374 7.72388C1.52613 7.95149 1.52613 8.31716 1.75374 8.54478L11.4552 18.2463C11.6828 18.4739 12.0485 18.4739 12.2761 18.2463L18.2463 12.2761C18.4739 12.0485 18.4739 11.6828 18.2463 11.4552L8.54479 1.75373C8.31717 1.52612 7.9515 1.52612 7.72389 1.75373L6.3321 3.14552C6.91046 4.03731 6.81344 5.24627 6.02986 6.02985C5.24628 6.81343 4.03732 6.91045 3.14553 6.33209Z" fill="#333333"/>
  <path d="M9.48886 12.5766C9.40304 12.4907 9.3508 12.3713 9.34707 12.2407C9.34707 11.9795 9.55976 11.7668 9.82095 11.7668L14.6269 11.7668C14.8881 11.7668 15.1008 11.9795 15.1008 12.2407C15.1008 12.5019 14.8881 12.7146 14.6269 12.7146L9.82095 12.7146C9.68662 12.7146 9.57095 12.6586 9.48513 12.5728L9.48886 12.5766Z" fill="#333333"/>
  <path d="M11.2352 10.9654C10.6867 10.4169 10.6867 9.52134 11.2352 8.97283C11.7837 8.42432 12.6792 8.42432 13.2277 8.97283C13.7762 9.52134 13.7762 10.4169 13.2277 10.9654C12.6792 11.5139 11.7837 11.5139 11.2352 10.9654ZM12.5523 9.6482C12.3732 9.4691 12.0859 9.47283 11.9068 9.65194C11.7277 9.83104 11.7314 10.1184 11.9068 10.2937C12.0822 10.4691 12.3732 10.4691 12.5486 10.2937C12.724 10.1184 12.7277 9.82358 12.5523 9.6482Z" fill="#333333"/>
  <path d="M11.2352 15.4966C10.6867 14.9481 10.6867 14.0526 11.2352 13.5041C11.7837 12.9556 12.6792 12.9556 13.2277 13.5041C13.7762 14.0526 13.7762 14.9481 13.2277 15.4966C12.6792 16.0451 11.7837 16.0451 11.2352 15.4966ZM12.5523 14.1795C12.3732 14.0003 12.0859 14.0041 11.9106 14.1795C11.7352 14.3548 11.7314 14.6496 11.9068 14.825C12.0822 15.0003 12.3732 15.0003 12.5523 14.8212C12.7314 14.6421 12.7277 14.3548 12.5523 14.1795Z" fill="#333333"/>
</svg>