<svg width="120" height="120" viewBox="0 0 120 120" fill="none" xmlns="http://www.w3.org/2000/svg">
<g id="Frame 2">
<path id="Ellipse 3" d="M111.15 60C116.038 60 120.067 56.0166 119.348 51.182C118.628 46.3361 117.316 41.5856 115.433 37.039C112.417 29.7595 107.998 23.1451 102.426 17.5736C96.8549 12.0021 90.2405 7.58251 82.961 4.56723C78.4144 2.68395 73.6639 1.37151 68.818 0.651512C63.9834 -0.0668245 60 3.96228 60 8.85V8.85C60 13.7377 64.0045 17.6073 68.7856 18.6224C71.312 19.1589 73.79 19.9268 76.1875 20.9199C81.3196 23.0457 85.9827 26.1615 89.9106 30.0894C93.8385 34.0173 96.9543 38.6804 99.0801 43.8125C100.073 46.21 100.841 48.688 101.378 51.2144C102.393 55.9955 106.262 60 111.15 60V60Z" fill="#E31937"/>
</g>
</svg>
