<svg width="20" height="20" viewBox="0 0 20 20" fill="none" xmlns="http://www.w3.org/2000/svg">
<g id="pin_duotone">
<path id="Vector 63" d="M4.16669 15.832L7.91669 12.082" stroke="#666666" stroke-width="1.2" stroke-linecap="round"/>
<path id="Rectangle 1" d="M11.9691 3.40949C12.6222 2.97412 12.9487 2.75643 13.3045 2.79166C13.6602 2.82689 13.9377 3.10439 14.4927 3.65938L16.3406 5.50729C16.8956 6.06228 17.1731 6.33978 17.2084 6.69555C17.2436 7.05132 17.0259 7.37785 16.5905 8.0309L15.3682 9.86435C15.0459 10.3479 14.8847 10.5896 14.7425 10.8403C14.4177 11.413 14.1648 12.0235 13.9895 12.6582C13.9128 12.936 13.8558 13.2209 13.7419 13.7907L13.5827 14.5865C13.4649 15.1758 12.782 15.4516 12.2879 15.1096C9.39746 13.1085 6.89154 10.6026 4.89044 7.71209C4.54837 7.21799 4.82421 6.53516 5.41351 6.4173L6.2093 6.25814C6.77914 6.14418 7.06405 6.08719 7.34182 6.0105C7.97647 5.83526 8.58707 5.58234 9.15975 5.25749C9.41039 5.11531 9.65215 4.95413 10.1357 4.63179L11.9691 3.40949Z" fill="#A6A6A6" stroke="#A6A6A6" stroke-width="1.2"/>
</g>
</svg>
