<?xml version="1.0" ?><!DOCTYPE svg  PUBLIC '-//W3C//DTD SVG 1.1//EN'  'http://www.w3.org/Graphics/SVG/1.1/DTD/svg11.dtd'><svg height="512px" id="Layer_1" style="enable-background:new 0 0 512 512;" version="1.1" viewBox="0 0 512 512" width="512px" xml:space="preserve" xmlns="http://www.w3.org/2000/svg" xmlns:xlink="http://www.w3.org/1999/xlink"><g><rect height="59" width="16" x="248" y="96"/><rect height="59" width="16" x="248" y="357"/><rect height="16" width="59" x="357" y="248"/><rect height="16" width="59" x="96" y="248"/><rect height="47.8" transform="matrix(-0.7071 0.7071 -0.7071 -0.7071 832.4098 341.8179)" width="16.8" x="337" y="319.4"/><rect height="47.9" transform="matrix(-0.7071 0.7071 -0.7071 -0.7071 405.7351 165.0772)" width="16.8" x="160.3" y="142.6"/><rect height="47.8" transform="matrix(0.707 0.7072 -0.7072 0.707 218.9715 -195.4705)" width="16.8" x="337" y="142.7"/><rect height="47.9" transform="matrix(0.707 0.7072 -0.7072 0.707 292.1851 -18.7121)" width="16.8" x="160.3" y="319.4"/><path d="M257.1,330.7c-41.8,0-75.8-34-75.8-75.8c0-41.8,34-75.8,75.8-75.8s75.8,34,75.8,75.8C332.8,296.7,298.8,330.7,257.1,330.7z   "/></g></svg>