<?xml version="1.0" encoding="UTF-8"?>
<svg id="Layer_1" data-name="Layer 1" xmlns="http://www.w3.org/2000/svg" viewBox="0 0 30 30">
  <defs>
    <style>
      .cls-1 {
        fill: #777;
      }
    </style>
  </defs>
  <path class="cls-1" d="m22.54,3.77l-6.74,6.74c-.4.39-.68.89-.81,1.43l-.52,2.09c-.23.91.6,1.73,1.51,1.51l2.09-.52c.54-.13,1.03-.41,1.43-.81l6.75-6.75c1.02-1.02,1.02-2.67,0-3.69-1.03-1.03-2.69-1.03-3.71,0Zm-16.97,1.52h13.83l-1.71,1.71H5.57c-.43,0-.79.32-.85.74v.12s0,12,0,12c0,.43.32.79.74.85h.12s17.71.01,17.71.01c.43,0,.79-.32.85-.74v-.12s.01-8.69.01-8.69l1.71-1.71v10.4c0,1.36-1.06,2.47-2.4,2.57h-.18s-4.86.01-4.86.01v2.85h2c.47,0,.86.38.86.86,0,.43-.32.79-.74.85h-.12s-12,.01-12,.01c-.47,0-.86-.38-.86-.86,0-.43.32-.79.74-.85h.12s2-.01,2-.01v-2.85h-4.86c-1.36,0-2.48-1.06-2.57-2.4l.02-.18V7.86c0-1.36,1.06-2.48,2.4-2.57h.17Zm11.14,17.14h-4.57v2.86h4.57v-2.86Z"/>
</svg>