<?xml version="1.0" encoding="UTF-8"?>
<svg id="Layer_1" data-name="Layer 1" xmlns="http://www.w3.org/2000/svg" viewBox="0 0 30 30">
  <defs>
    <style>
      .cls-1 {
        fill: #777;
      }
    </style>
  </defs>
  <rect class="cls-1" x="15.74" y="9.42" width="2" height="2.35"/>
  <rect class="cls-1" x="15.74" y="13.13" width="2" height="2.35"/>
  <rect class="cls-1" x="6.6" y="8.2" width="6.25" height="2"/>
  <rect class="cls-1" x="6.6" y="11.45" width="4.01" height="2"/>
  <rect class="cls-1" x="6.6" y="14.7" width="5.34" height="2"/>
  <path class="cls-1" d="m23.25,9.53h-1.06v-1.06c0-2.07-1.68-3.75-3.75-3.75H6.75c-2.07,0-3.75,1.68-3.75,3.75v8.25c0,2.07,1.68,3.75,3.75,3.75h1.06v1.06c0,2.07,1.68,3.75,3.75,3.75h11.69c2.07,0,3.75-1.68,3.75-3.75v-8.25c0-2.07-1.68-3.75-3.75-3.75Zm-18.25,7.19v-8.25c0-.96.79-1.75,1.75-1.75h8.99v1.35h2v-1.35h.7c.96,0,1.75.79,1.75,1.75v8.25c0,.96-.79,1.75-1.75,1.75h-.7v-1.64h-2v1.64H6.75c-.96,0-1.75-.79-1.75-1.75Zm20,4.81c0,.96-.79,1.75-1.75,1.75h-11.69c-.96,0-1.75-.79-1.75-1.75v-1.06h8.62c2.07,0,3.75-1.68,3.75-3.75v-5.19h1.06c.96,0,1.75.79,1.75,1.75v8.25Z"/>
</svg>