<?xml version="1.0" encoding="UTF-8"?>
<svg id="Layer_1" data-name="Layer 1" xmlns="http://www.w3.org/2000/svg" viewBox="0 0 30 30">
  <defs>
    <style>
      .cls-1 {
        fill: #777;
      }
    </style>
  </defs>
  <path class="cls-1" d="m21.59,26h-13.18c-2.43,0-4.41-1.98-4.41-4.41v-8.79c0-1.48.73-2.85,1.96-3.67l6.59-4.39c1.49-.99,3.41-.99,4.89,0l6.59,4.39c1.23.82,1.96,2.19,1.96,3.67v8.79c0,2.43-1.98,4.41-4.41,4.41ZM15,6c-.47,0-.93.14-1.34.41l-6.59,4.39c-.67.45-1.07,1.2-1.07,2v8.79c0,1.33,1.08,2.41,2.41,2.41h13.18c1.33,0,2.41-1.08,2.41-2.41v-8.79c0-.81-.4-1.56-1.07-2l-6.59-4.39c-.41-.27-.87-.41-1.34-.41Z"/>
  <path class="cls-1" d="m15,21.11c-1.93,0-3.77-.44-5.18-1.23-.48-.27-.65-.88-.38-1.36.27-.48.88-.65,1.36-.38,1.11.63,2.6.97,4.2.97s3.09-.34,4.2-.97c.48-.27,1.09-.1,1.36.38s.1,1.09-.38,1.36c-1.41.79-3.25,1.23-5.18,1.23Z"/>
</svg>