<?xml version="1.0" encoding="UTF-8"?>
<svg id="Layer_1" data-name="Layer 1" xmlns="http://www.w3.org/2000/svg" viewBox="0 0 30 30">
  <defs>
    <style>
      .cls-1 {
        fill: #777;
      }
    </style>
  </defs>
  <path class="cls-1" d="m13.26,16.47h-4.13c-.55,0-1,.45-1,1v3.4c0,.55.45,1,1,1h4.13c.55,0,1-.45,1-1v-3.4c0-.55-.45-1-1-1Zm-1,3.4h-2.13v-1.4h2.13v1.4Z"/>
  <path class="cls-1" d="m27,11.52c0-.17-.04-.34-.13-.49l-3.44-6.05c-.18-.31-.51-.51-.87-.51H7.44c-.36,0-.69.19-.87.51l-3.44,6.05c-.09.15-.13.32-.13.49,0,1.51.9,2.81,2.2,3.4v9.61c0,.55.45,1,1,1h10.26s0,0,0,0h4.4s0,0,0,0h2.93c.55,0,1-.45,1-1v-9.61c1.3-.59,2.2-1.89,2.2-3.41Zm-3.75,1.75c-.67,0-1.24-.38-1.54-.93h3.08c-.29.55-.88.93-1.55.93Zm-16.5,0c-.67,0-1.25-.38-1.54-.93h3.09c-.29.55-.87.93-1.54.93Zm9.25-2.93v-3.87h1.92l1.17,3.87h-3.09Zm-2,0h-3.09l1.17-3.87h1.93v3.87Zm-.21,2c-.29.55-.87.93-1.54.93s-1.25-.38-1.54-.93h3.08Zm5.5,0c-.29.55-.87.93-1.54.93s-1.24-.38-1.54-.93h3.08Zm4.89-2h-3l-1.17-3.87h1.97l2.2,3.87Zm-16.16-3.87h1.97l-1.17,3.87h-2.99l2.19-3.87Zm11.85,17.07h-2.4v-5.07h2.4v5.07Zm2,0v-6.07c0-.55-.45-1-1-1h-4.4c-.55,0-1,.45-1,1v6.07H7.2v-8.31c.9-.11,1.71-.52,2.3-1.16.69.74,1.67,1.2,2.75,1.2s2.06-.46,2.75-1.2c.69.74,1.66,1.2,2.75,1.2s2.06-.46,2.75-1.2c.59.63,1.4,1.04,2.3,1.16v8.31h-.93Z"/>
</svg>