<?xml version="1.0" encoding="UTF-8"?>
<svg id="Layer_1" data-name="Layer 1" xmlns="http://www.w3.org/2000/svg" viewBox="0 0 30 30">
  <defs>
    <style>
      .cls-1 {
        fill: #777;
      }
    </style>
  </defs>
  <path class="cls-1" d="m27.36,10.15c-.4-.4-.73-.58-1.04-.7-.1-.28-.25-.6-.63-.98-.41-.41-.96-.64-1.54-.64h0c-.58,0-1.13.23-1.55.64-.51.51-.7,1.21-.59,1.88-1.89-1.93-5.28-3.19-8.57-3.05-2.74.12-7.81,1.31-10.92,8.03-.76,1.7-.67,3.43.27,4.88,1.01,1.55,2.89,2.52,4.92,2.52h11.19v-.02c1.24-.04,2.46-.52,3.41-1.46.13-.13.25-.27.35-.39l.08-.11c.08-.1.16-.21.22-.31.81-1.21,1.16-2.69,1.42-3.78.09-.37.21-.87.29-1.05l.09-.09c.46-.46.63-1.09.54-1.69.72.18,1.51-.01,2.07-.57.41-.41.64-.96.64-1.55s-.23-1.13-.64-1.55ZM4.45,19.11c-.39-.61-.73-1.61-.13-2.96,1.98-4.25,5.24-6.69,9.19-6.86,3.01-.12,5.71,1.07,7.08,2.49-.21.06-.5.12-.74.17-1.17.26-2.95.65-4.32,1.79-.13.11-.26.22-.39.35-1.81,1.81-1.94,4.64-.42,6.62h-7.03c-1.36,0-2.6-.62-3.24-1.6Zm17.98-2.93c-.24.99-.53,2.22-1.15,3.14-.04.07-.09.13-.19.25-.07.09-.14.17-.22.25-1.19,1.19-3.12,1.19-4.32,0-1.19-1.19-1.19-3.13,0-4.31.08-.08.16-.15.25-.23,1-.83,2.43-1.15,3.48-1.38.85-.19,1.47-.32,1.87-.72l.08-.13s0,0,.01,0l1.05,1s.02.03.03.05l-.13.13c-.4.4-.55,1.01-.77,1.95Zm3.52-4.35c-.07.07-.18.06-.24,0-.4-.33-.98-.3-1.34.07l-.22.22-.26-.26.22-.22c.2-.2.3-.47.29-.75s-.14-.54-.35-.72c-.02-.02-.04-.03-.06-.05-.05-.07-.04-.17.02-.23.05-.04.1-.05.13-.05s.08,0,.13.06c.13.13.14.17.18.29.06.18.16.47.45.76.26.26.54.34.69.38.09.02.15.04.36.25.04.04.05.1.05.13s0,.08-.06.13Z"/>
</svg>