<?xml version="1.0" encoding="UTF-8"?>
<svg id="Layer_1" data-name="Layer 1" xmlns="http://www.w3.org/2000/svg" viewBox="0 0 30 30">
  <defs>
    <style>
      .cls-1 {
        fill: #777;
      }
    </style>
  </defs>
  <path class="cls-1" d="m28.49,11.51l-6.32-6.31c-.33-.33-.77-.51-1.23-.51h0c-.47,0-.9.18-1.23.51l-3.91,3.91c-.98,0-3.42-.01-4.18-.01-1.79,0-3.12.96-4.55,2.4-2.27,2.27-5.77,5.81-5.77,5.81l1.42,1.41s3.5-3.54,5.77-5.8c1.52-1.52,2.3-1.81,3.14-1.81.41,0,1.3,0,2.19,0l-1.96,1.96h-1.78c-.55,0-1,.45-1,1s.45,1,1,1h8.26c.47,0,.85.38.85.85s-.38.84-.84.84h-4.54s-.6,0-.6,0l-.28.53c-.05.09-1.21,2.18-4.49,1.83-.54-.05-1.04.34-1.1.89-.06.55.34,1.04.89,1.1.33.04.65.05.95.05,1.37,0,2.43-.34,3.26-.79l.76.76c-.65.51-1.47.98-2.64,1.23-1.98.42-2.54.86-2.93,1.26l.71.71.75.67c.22-.23.86-.46,1.89-.68,1.65-.35,2.8-1.05,3.65-1.76l1.43,1.43c.34.34.79.51,1.23.51s.89-.17,1.23-.51l10-10c.68-.68.68-1.79,0-2.47Zm-7.55-4.72l1.22,1.22-5.04,5.04h-2.43s6.26-6.26,6.26-6.26Zm-3.68,15.59l-1.92-1.92s0,0,0,0c0,0,0,0,0,0l-1.32-1.32c.12-.14.23-.27.32-.39h4c1.57,0,2.84-1.27,2.84-2.84,0-1.1-.64-2.05-1.56-2.52l3.95-3.95,3.32,3.32-9.63,9.63Z"/>
</svg>