<svg width="408" height="408" viewBox="0 0 408 408" fill="none" xmlns="http://www.w3.org/2000/svg">
<path fill-rule="evenodd" clip-rule="evenodd" d="M152 286C152 279.632 159.812 273.959 171.985 270.297L170.708 285.902C168.962 287.012 168 288.227 168 289.5C168 290.63 168.759 291.715 170.15 292.72L169.481 300.901C158.751 297.239 152 291.92 152 286ZM237.9 293.337L238.546 301.225C249.839 297.557 257 292.097 257 286C257 279.455 248.748 273.645 235.991 269.996L237.242 285.297C239.648 286.564 241 287.991 241 289.5C241 290.865 239.893 292.164 237.9 293.337Z" fill="#D9D9D9"/>
<path fill-rule="evenodd" clip-rule="evenodd" d="M237.291 294.818C237.289 294.818 237.288 294.819 237.286 294.82L237.275 294.616L237.291 294.818ZM240.901 293.207C240.967 292.974 241 292.738 241 292.501C241 290.926 239.528 289.441 236.923 288.133L236.088 272.731C244.069 275.623 249 279.605 249 284.001C249 287.428 246.003 290.604 240.901 293.207ZM168.1 293.207C168.034 292.974 168 292.738 168 292.501C168 291.147 169.087 289.86 171.046 288.695L171.892 273.114C164.513 275.969 160 279.796 160 284.001C160 287.428 162.997 290.604 168.1 293.207Z" fill="#B6B6B6"/>
<path d="M212.679 313.254C208.393 302.314 214.451 290.059 225.745 286.819C235.631 283.983 246.053 289.134 249.804 298.711L253.939 309.266C257.691 318.843 253.541 329.702 244.359 334.336C233.869 339.63 221.1 334.75 216.814 323.809L212.679 313.254Z" fill="#D5D5D5"/>
<path d="M196.492 313.254C200.778 302.314 194.721 290.059 183.427 286.819C173.54 283.983 163.119 289.134 159.367 298.711L155.232 309.266C151.481 318.843 155.631 329.702 164.813 334.336C175.302 339.63 188.072 334.75 192.357 323.809L196.492 313.254Z" fill="#D5D5D5"/>
<path d="M223.384 308.86C219.234 298.265 225.127 286.4 236.077 283.305C245.61 280.612 255.631 285.589 259.244 294.812L263.991 306.931C267.604 316.155 263.631 326.615 254.805 331.112C244.666 336.279 232.282 331.574 228.132 320.979L223.384 308.86Z" fill="#E2E2E2"/>
<path d="M185.787 308.86C189.937 298.265 184.044 286.4 173.094 283.305C163.561 280.612 153.54 285.589 149.927 294.812L145.18 306.931C141.566 316.155 145.54 326.615 154.366 331.112C164.505 336.279 176.889 331.574 181.039 320.979L185.787 308.86Z" fill="#E2E2E2"/>
</svg>
