<svg width="408" height="408" viewBox="0 0 408 408" fill="none" xmlns="http://www.w3.org/2000/svg">
<path fill-rule="evenodd" clip-rule="evenodd" d="M348 2H60V149H112.624C115.769 146.016 119.855 143.92 124.485 142.841C132.072 131.621 153.615 109 204 109C253.813 109 274.33 131.11 281.578 142.454C287.005 143.361 291.799 145.607 295.376 149H348V2Z" fill="#F7F7F7"/>
<path fill-rule="evenodd" clip-rule="evenodd" d="M292 146.36V138.457C292 94.2607 272.614 55.1841 232 46.7012C230.516 46.3913 228.868 46.0201 227.109 45.6239C223.397 44.788 219.192 43.8409 215 43.1246C213.609 42.8869 213.219 42.4157 212.801 41.9097C212.056 41.0097 211.221 40 204.5 40C197.786 40 196.988 41.0101 196.277 41.9096C195.877 42.4168 195.504 42.8888 194.113 43.1246C189.31 43.9394 184.425 45.0389 180.741 45.8682L180.74 45.8682C179.259 46.2015 177.972 46.4912 176.963 46.7012C136.167 55.1841 116 94.2607 116 138.457V146.36C120.319 143.585 125.733 142.064 131.62 142.002C148.246 127.162 174.482 121.457 204 121.457C233.518 121.457 259.754 127.162 276.38 142.002C282.267 142.064 287.681 143.585 292 146.36Z" fill="#34343F"/>
<path d="M272 148C250.5 131 233.518 120.457 204 120.457C174.482 120.457 157 131.5 136 147.5C121.5 147 126.243 141.376 123.771 142.016C139.117 113.435 169.289 94 204 94C238.711 94 268.884 113.435 284.229 142.016C281.757 141.376 278.5 148 272 148Z" fill="#4D4D5A"/>
<path d="M120.771 141.016C123.243 140.376 131.257 155.743 144 143C158 129 174.482 120.457 204 120.457C233.518 120.457 250 129 264 143C276.743 155.743 284.757 140.376 287.229 141.016" stroke="#34343F" stroke-width="4" stroke-linecap="round"/>
<path d="M191 77.0004C201.243 75.261 206.843 75.1428 216.5 77.0004" stroke="#676777" stroke-width="3" stroke-linecap="round"/>
<path d="M197 82.9995C202.898 82.1133 205.927 82.212 211 82.9995" stroke="#676777" stroke-width="3" stroke-linecap="round"/>
</svg>
