<svg width="408" height="408" viewBox="0 0 408 408" fill="none" xmlns="http://www.w3.org/2000/svg">
<path d="M239.395 286.204C246.812 287.797 245.014 318.196 223.915 352.138" stroke="#BEBEBE" stroke-width="3" stroke-linecap="round"/>
<path d="M168.973 286.204C161.556 287.797 163.354 318.196 184.453 352.138" stroke="#BEBEBE" stroke-width="3" stroke-linecap="round"/>
<path d="M180.795 354.952C180.795 352.743 182.586 350.952 184.795 350.952H223C225.209 350.952 227 352.743 227 354.952V378H180.795V354.952Z" fill="white"/>
<path d="M184.453 357.094C184.453 355.989 185.349 355.094 186.453 355.094H221.342C222.447 355.094 223.342 355.989 223.342 357.094V378H184.453V357.094Z" fill="#F0F0F0"/>
<rect x="194.848" y="362.834" width="18.0991" height="3.64258" rx="1.82129" fill="#D9D9D9"/>
<rect x="196.895" y="369.089" width="14.0054" height="2.81868" rx="1.40934" fill="#D9D9D9"/>
</svg>
