<svg width="408" height="408" viewBox="0 0 408 408" fill="none" xmlns="http://www.w3.org/2000/svg">
<path fill-rule="evenodd" clip-rule="evenodd" d="M120.605 167.002C121.351 167.002 122.072 167.113 122.751 167.319C122.913 167.595 123.066 167.879 123.21 168.172C124.646 171.092 125.068 174.608 124.992 176.935C124.974 177.489 125.183 177.997 125.535 178.371C124.444 178.807 123.062 178.953 121.536 178.99C122.844 180.811 124.752 182.551 127.47 183.696C128.743 184.232 129.34 185.698 128.804 186.97C128.268 188.243 126.802 188.84 125.53 188.304C116.784 184.622 114.204 176.433 114.004 172.631C113.997 172.506 114 172.381 114.011 172.26C113.947 171.806 113.914 171.345 113.914 170.884C113.914 166.986 116.278 166.992 120.032 167.001C120.22 167.001 120.41 167.002 120.605 167.002Z" fill="white"/>
<path fill-rule="evenodd" clip-rule="evenodd" d="M115.413 169.298C116.242 169.298 116.913 169.969 116.913 170.798C116.913 171.406 116.96 172.41 117.099 173.387C117.248 174.444 117.469 175.176 117.661 175.466C118.121 176.155 117.935 177.086 117.245 177.546C116.556 178.005 115.625 177.819 115.165 177.13C114.558 176.219 114.278 174.868 114.128 173.808C113.967 172.669 113.913 171.522 113.913 170.798C113.913 169.969 114.585 169.298 115.413 169.298Z" fill="#36303A"/>
<path fill-rule="evenodd" clip-rule="evenodd" d="M287.409 167.002C286.663 167.002 285.942 167.113 285.263 167.319C285.1 167.595 284.947 167.879 284.804 168.172C283.368 171.092 282.946 174.608 283.022 176.935C283.04 177.489 282.831 177.997 282.479 178.371C283.569 178.807 284.951 178.953 286.478 178.99C285.17 180.811 283.262 182.551 280.543 183.696C279.271 184.232 278.674 185.698 279.21 186.97C279.745 188.243 281.211 188.84 282.484 188.304C291.229 184.622 293.81 176.433 294.01 172.631C294.017 172.506 294.014 172.381 294.002 172.26C294.067 171.806 294.1 171.345 294.1 170.884C294.1 166.986 291.735 166.992 287.981 167.001C287.794 167.001 287.603 167.002 287.409 167.002Z" fill="white"/>
<path fill-rule="evenodd" clip-rule="evenodd" d="M292.6 169.298C291.772 169.298 291.1 169.969 291.1 170.798C291.1 171.406 291.054 172.41 290.915 173.387C290.765 174.444 290.545 175.176 290.352 175.466C289.893 176.155 290.079 177.086 290.768 177.546C291.458 178.005 292.389 177.819 292.848 177.13C293.455 176.219 293.735 174.868 293.885 173.808C294.047 172.669 294.1 171.522 294.1 170.798C294.1 169.969 293.429 169.298 292.6 169.298Z" fill="#36303A"/>
</svg>
