<svg width="408" height="408" viewBox="0 0 408 408" fill="none" xmlns="http://www.w3.org/2000/svg">
<path d="M211.664 300.224L208.764 301.604C206.758 302.558 205.239 304.304 204.572 306.423L202.795 312.061C202.491 313.026 201.11 312.981 200.87 311.997L197.995 300.224L196.484 299.613L163.823 286.826L154.783 289.943C132.961 296.874 112.956 306.418 105.241 313.696C96.8953 321.57 92.3363 331.214 75.0847 367.708L75.0839 367.709L74.6177 368.695C73.3394 373.501 77.1237 378.001 82.0961 378.001H327.47C332.442 378.001 336.227 373.501 334.948 368.695C333.638 365.677 332.405 362.831 331.242 360.147C316.646 326.458 313.06 318.18 304.377 311.54C291.714 301.857 272.539 296.045 255.442 290.864C253.809 290.369 252.195 289.88 250.608 289.394C250.576 289.384 250.544 289.375 250.512 289.366L239.663 284.965L211.664 300.224Z" fill="#34343F"/>
<path d="M209.719 301.218C217.668 297.283 230.514 288.315 237.515 283.582C238.368 283.006 239.616 283.086 240.521 283.577C241.84 284.292 243.753 285.161 245.342 285.846C246.261 286.242 246.77 287.243 246.466 288.197C243.229 298.362 234.214 310.71 228.559 317.479C227.647 318.572 225.907 318.34 225.067 317.19C221.261 311.981 214.456 308.134 209.452 305.405C207.879 304.547 208.114 302.013 209.719 301.218Z" fill="#5E5E6A"/>
<path d="M196.629 298.569C189.077 295.213 177.475 288.029 170.682 283.572C169.821 283.007 168.573 283.086 167.667 283.577C166.348 284.292 164.435 285.161 162.846 285.846C161.927 286.242 161.418 287.243 161.722 288.197C164.959 298.362 173.974 310.71 179.629 317.479C180.542 318.572 182.273 318.34 183.042 317.142C186.621 311.571 192.586 306.374 197.182 302.986C198.624 301.923 198.266 299.296 196.629 298.569Z" fill="#5E5E6A"/>
<path d="M214.37 314.126C214.37 315.895 212.936 317.329 211.167 317.329C209.399 317.329 207.965 315.895 207.965 314.126C207.965 312.358 209.399 311.924 211.167 311.924C212.936 311.924 214.37 312.358 214.37 314.126Z" fill="#D2D2D2"/>
<path d="M213.37 327.393C213.37 329.162 211.936 330.596 210.167 330.596C208.399 330.596 206.965 329.162 206.965 327.393C206.965 325.624 208.399 324.19 210.167 324.19C211.936 324.19 213.37 325.624 213.37 327.393Z" fill="#D2D2D2"/>
</svg>
