<svg width="408" height="408" viewBox="0 0 408 408" fill="none" xmlns="http://www.w3.org/2000/svg">
<path d="M170.433 289.413C175.537 294.517 189.418 304.724 204.117 304.724C218.815 304.724 232.016 294.517 236.78 289.413" stroke="white" stroke-width="2" stroke-linecap="round" stroke-dasharray="4 4"/>
<path d="M327.57 378.001C332.543 378.001 336.327 373.501 335.049 368.695C317.286 327.787 313.852 318.709 304.477 311.54C290.578 300.911 277.594 294.251 260.21 288.597C258.706 288.108 257.087 288.892 256.52 290.367L249.529 308.536C242.713 325.786 234.693 341.536 216.467 341.536H193.299C175.074 341.536 167.053 325.786 160.237 308.536L153.247 290.367C152.679 288.892 151.063 288.106 149.567 288.615C131.365 294.806 113.37 306.122 105.342 313.696C96.9953 321.571 92.4363 331.214 75.1841 367.709L74.7178 368.695C73.4395 373.501 77.2238 378.001 82.1962 378.001H327.57Z" fill="#34343F"/>
<circle cx="204.1" cy="312.09" r="3.58765" fill="white"/>
</svg>
