<svg width="408" height="408" viewBox="0 0 408 408" fill="none" xmlns="http://www.w3.org/2000/svg">
<path d="M294.629 147.3C299.11 68.5746 265.389 43.0667 229.945 35.6252C222.205 34.0002 214.623 36.1198 208.778 37.973C200.326 33.8351 190.288 34.1875 182.249 35.6254C145.851 42.1361 108.948 66.4627 113.335 147.354C115.856 145.164 118.914 143.502 122.33 142.429C125.829 145.293 132.793 153.74 132.793 164.5V177.989C132.793 181.093 136.782 182.36 138.575 179.826C138.955 179.289 139.16 178.657 139.154 177.999C139.123 174.566 138.937 172.497 138.736 168.073C137.951 150.839 136.922 128.231 143.774 117C154.41 99.5658 183.195 96.6724 204 96.5076C224.804 96.6724 253.59 99.5658 264.226 117C271.101 128.269 270.654 150.072 270.135 166.688C270.117 167.272 270.098 167.849 270.08 168.42L269.843 177.998C269.84 178.482 269.972 178.946 270.219 179.362C271.615 181.702 275.207 180.714 275.207 177.989V164.5C275.207 153.7 282.18 145.325 285.666 142.492C288.962 143.551 292.101 145.154 294.556 147.261L294.629 147.3Z" fill="#BF9D75"/>
<path d="M268.022 155.865H271.853L277.964 117.757L267.544 94.2529L248.401 79.9563L192.427 55.2402L133.06 96.9182L135.483 155.865C136.704 155.554 139.304 155.189 143.333 155.014C144.815 154.95 146.056 153.847 146.249 152.376L149.238 129.662L150.019 152.559C150.064 153.881 151.229 154.929 152.551 154.946C153.14 154.953 153.625 154.756 154.082 154.386L154.911 153.713L156.113 154.499C156.574 154.8 157.11 154.968 157.659 154.992C160.822 155.133 162.126 155.428 166.741 155.865C183.907 157.494 220.135 156.054 233.118 154.979C234.396 154.873 235.437 153.946 235.728 152.698L240.105 133.892V150.704C240.105 152.361 241.448 153.704 243.105 153.704H243.494C245.043 153.704 246.338 152.524 246.481 150.98L249.111 122.545L252.667 151.838C252.805 152.979 253.582 153.944 254.695 154.231C257.541 154.965 262.44 155.865 268.022 155.865Z" fill="#BF9D75"/>
</svg>
