<svg width="408" height="408" viewBox="0 0 408 408" fill="none" xmlns="http://www.w3.org/2000/svg">
<path fill-rule="evenodd" clip-rule="evenodd" d="M291.433 201.13V201.357L291.466 201.374C292.342 211.402 291.53 221.288 290.717 231.19C290.162 237.95 289.607 244.718 289.587 251.545C289.576 256.963 289.912 262.323 290.249 267.693C290.422 270.445 290.594 273.2 290.721 275.966C290.964 281.386 290.818 287.276 287.805 292.014C285.31 295.957 281.148 298.261 276.709 299.365C272.935 300.306 266.342 301.766 262.649 300.078C259.413 298.607 258.836 294.301 258.38 290.892C258.293 290.24 258.21 289.621 258.114 289.061C256.802 281.434 255.927 273.743 255.376 266.019L255.327 265.289C255.619 271.942 255.603 278.611 255.02 285.28C254.965 285.933 254.928 286.748 254.888 287.639C254.761 290.444 254.6 294.006 253.74 295.681C251.032 300.98 246.641 300.028 242.429 299.115C241.803 298.98 241.182 298.845 240.571 298.732C239.842 298.597 239.115 298.453 238.388 298.302L234.722 253.488C258.286 242.807 274.882 219.986 280.569 192.501C284.647 191.605 288.397 189.549 291.581 186.73C291.16 191.522 290.991 196.32 291.433 201.13ZM294.924 147.583C295.088 140.809 294.995 134.032 294.56 127.268C293.102 104.729 289.214 75.3598 269.533 61.0806C257.074 52.0333 239.974 46.4043 223.119 43.7718C254.217 49.9465 282.336 73.9717 283.929 141.94C288.172 142.992 291.94 144.907 294.924 147.583ZM202.443 42.0104C200.515 41.9863 198.621 42.0042 196.77 42.0633C179.924 42.5988 163.823 46.6067 152.338 57.17C139.461 63.336 131.216 74.8892 124.801 87.9352C115.892 106.011 112.377 123.682 113.851 143.819C113.923 144.787 114.008 145.752 114.104 146.716C116.907 144.491 120.302 142.875 124.071 141.94C125.962 61.2914 165.198 42.5117 202.443 42.0104ZM117.049 187.272C120.094 189.812 123.619 191.664 127.431 192.501C133.118 219.986 149.714 242.807 173.278 253.488L169.348 301.53C168.851 301.492 168.348 301.447 167.84 301.393C167.165 301.321 166.491 301.244 165.817 301.168C162.076 300.742 158.348 300.317 154.574 300.744C151.094 301.136 147.937 302.305 144.739 303.489C143.574 303.92 142.403 304.353 141.21 304.752C134.293 307.056 124.509 307.04 124.558 297.044C124.581 292.347 126.195 287.261 127.729 282.427C128.367 280.415 128.992 278.446 129.482 276.566C130.924 271.066 131.475 261.752 131.475 261.752C131.475 261.752 126.259 277.102 123.603 284.745C123.371 285.409 123.143 286.171 122.899 286.984C121.691 291.012 120.108 296.291 115.957 297.223C110.628 298.407 113.964 267.528 114.79 263.829C116.945 254.158 117.366 217.032 116.896 208.254C116.564 202.036 116.769 195.818 116.974 189.597C116.999 188.822 117.025 188.047 117.049 187.272Z" fill="#BF9D75"/>
<path d="M294.629 147.3C299.997 52.982 245.984 33.4238 206.22 32.0746C204.652 32.0215 203 32.0333 201.78 32.0746C162.106 33.4207 108.25 53.5895 113.335 147.354C115.856 145.164 118.914 143.502 122.33 142.429C125.829 145.293 132.793 153.74 132.793 164.5V177.989C132.793 181.093 136.782 182.36 138.575 179.826C138.955 179.288 139.16 178.657 139.154 177.999C139.123 174.566 138.937 172.497 138.736 168.073C137.951 150.839 136.922 128.231 143.774 117C154.41 99.5657 180.976 66.1645 201.78 65.9998C222.585 66.1645 253.59 99.5657 264.226 117C271.101 128.269 270.654 150.072 270.135 166.688C270.117 167.272 270.098 167.849 270.08 168.42L269.843 177.998C269.84 178.482 269.972 178.946 270.219 179.361C271.615 181.702 275.207 180.714 275.207 177.989V164.5C275.207 153.7 282.18 145.325 285.666 142.492C288.962 143.551 292.101 145.154 294.556 147.261L294.629 147.3Z" fill="#BF9D75"/>
<path d="M285.985 217.923C285.758 204.336 284.997 195.749 284.398 182.179C283.296 157.318 283.426 131.583 278.647 107.078C274.921 88.04 266.465 68.905 250.153 57.4046C234.132 46.1144 211.242 45.5968 196.712 59.5397C194.784 59.3294 192.549 60.0734 190.459 60.3322C178.407 61.8042 167.311 54.2343 156.214 62.2732C147.289 68.7271 140.712 81.3274 137.197 91.4853C132.353 105.509 135.933 123.043 137.569 137.406C137.601 137.713 137.731 137.956 137.893 138.166C135.981 138.328 133.957 138.102 131.802 137.277C130.004 136.597 129.226 139.477 131.008 140.156C137.52 142.631 143.093 141.24 148.422 136.937C156.603 130.321 164.135 130.671 171.911 123.602C178.585 117.52 185.34 111.697 189.925 103.82C193.715 97.3017 196.501 90.1523 198.834 82.9868C198.883 82.9383 198.899 82.8574 198.948 82.8089C203.143 91.0905 213.98 95.9106 221.626 99.9382C228.333 103.464 236.659 106.263 241.049 112.862C247.564 122.686 251.205 125.728 251.756 137.519C252.065 144.365 251.26 159.52 250.25 166.272C247.666 183.45 246.28 193.425 242.636 210.353C240.401 220.705 237.566 227.637 236.4 238.199C234.893 247.77 230.212 263.715 221.885 274.811C220.363 276.849 218.241 280.828 222.371 281.701C227.166 282.72 231.637 273.711 233.306 270.783C238.263 262.033 245.763 253.528 245.763 253.528C245.763 253.528 244.369 271.236 241.648 284.128C241.373 285.405 242.653 286.441 243.851 285.81C249.748 282.688 255.952 281.054 262.626 281.2C266.886 281.297 270.45 281.928 274.062 279.388C281.627 274.083 283.312 258.785 283.49 250.827C283.782 237.434 286.212 228.332 285.985 217.875V217.923Z" fill="#BF9D75"/>
</svg>
