<svg width="408" height="408" viewBox="0 0 408 408" fill="none" xmlns="http://www.w3.org/2000/svg">
<path d="M280.569 192.501C289.794 190.474 297.338 182.512 300.456 173.208C302.231 176.966 303.64 180.868 304.299 185.004C304.827 188.291 304.721 191.582 304.616 194.876C304.529 197.583 304.442 200.292 304.706 203.001C305.225 208.272 307.34 212.896 309.481 217.575C310.232 219.217 310.986 220.866 311.676 222.551C314.118 228.507 314.379 233.605 314.688 239.949C315.063 247.75 317.261 254.645 319.964 261.911L319.915 261.928C320.289 262.915 319.361 263.756 318.466 263.821C316.422 263.985 314.36 264.112 312.292 264.239C307.423 264.538 302.524 264.839 297.77 265.634C296.748 265.806 295.688 266.034 294.606 266.267L294.605 266.267C289.891 267.281 284.767 268.383 280.689 265.342C278.717 263.863 278.191 261.032 277.728 258.543L277.728 258.542C277.583 257.764 277.444 257.019 277.27 256.36C276.445 253.306 276.021 258.536 275.908 259.929C275.898 260.049 275.891 260.141 275.886 260.196C275.674 262.446 275.283 265.019 273.59 266.686C271.423 268.807 268.844 267.866 266.179 266.894C263.699 265.99 261.143 265.058 258.772 266.54C257.604 267.273 253.109 265.732 249.142 264.371L249.141 264.37C246.804 263.569 244.65 262.83 243.467 262.656C241.953 262.434 240.44 262.288 238.928 262.206L235.408 261.916L234.71 253.497L237.991 251.905C259.819 240.656 275.149 218.697 280.569 192.501Z" fill="#BF9D75"/>
<path d="M209.106 14.4621C215.095 16.175 220.234 19.9328 223.707 24.3548V24.3723C227.653 29.3907 228.979 33.809 229.798 40.5086C237.784 41.4635 245.866 43.1231 252.707 46.8313C259.549 50.5507 265.321 55.9114 270.549 61.6038C270.735 61.8069 270.918 62.0095 271.099 62.2116C286.824 77.5865 297.12 103.533 294.629 147.3L294.556 147.261C292.096 145.15 289.132 143.538 285.828 142.479C287 145.763 287.798 149.1 287.973 152.413C288.288 158.353 285.888 166.277 279.18 167.56C277.979 167.79 276.791 167.727 275.626 167.44C275.358 169.206 275.207 170.913 275.207 172.5V185.989C275.207 188.715 271.615 189.703 270.219 187.362C269.972 186.946 269.84 186.482 269.843 185.999C269.857 183.392 269.946 180.631 270.048 177.44L270.048 177.437L270.08 176.42C270.197 172.753 270.323 168.792 270.374 164.72C270.184 164.575 269.996 164.426 269.809 164.274C263.748 162.552 258.371 158.476 253.326 154.1C251.473 152.498 249.778 150.464 248.067 148.41C244.844 144.542 241.561 140.603 237.054 139.34C235.586 138.932 234.031 138.802 232.479 138.673C229.697 138.441 226.925 138.21 224.688 136.371C222.299 134.416 221.577 131.615 220.85 128.791C220.623 127.908 220.395 127.024 220.116 126.162C217.538 118.251 210.858 117.351 204.065 116.435C202.227 116.187 200.381 115.938 198.606 115.549C193.736 114.495 189.55 112.281 186.204 109.153C185.206 111.473 184.575 113.933 184.505 116.533C184.461 118.056 184.63 119.575 184.798 121.094C185.025 123.133 185.252 125.172 184.961 127.216C183.984 133.981 179.824 137.216 175.416 140.643C173.103 142.443 170.721 144.295 168.695 146.738C161.874 154.975 160.983 164.31 160.064 173.938C159.72 177.537 159.373 181.176 158.711 184.815C157.887 189.366 155.628 192.458 152.545 195.762C151.734 196.63 150.945 197.461 150.177 198.269L150.175 198.271C146.284 202.365 142.932 205.893 139.933 211.014C139.836 211.18 139.738 211.348 139.64 211.516C138.492 213.484 137.293 215.538 136.002 216.995C143.767 232.12 155.441 244.398 170.009 251.905L173.281 253.492L172.064 268.431L168.562 267.815L168.31 267.755C165.232 267.028 162.156 266.3 158.942 266.119C151.224 265.682 143.799 267.722 136.439 269.777C135.446 270.052 133.964 269.275 134.355 268.029C135.576 264.161 136.472 260.293 137.09 256.393C135.896 258.078 134.542 259.666 133.182 261.261C130.834 264.013 128.469 266.786 126.881 270.117C126.555 270.78 125.871 271.056 125.171 270.991C122.153 270.723 119.105 270.319 116.048 269.913C110.612 269.192 105.148 268.467 99.7702 268.498C99.1331 268.502 98.4215 268.549 97.6744 268.599H97.6733C95.0411 268.773 91.9623 268.977 90.0982 267.414C85.3925 263.465 89.8375 251.699 91.4983 247.491C92.15 245.849 92.8785 244.229 93.6075 242.609C94.9186 239.694 96.231 236.776 97.0995 233.718C99.4117 225.61 97.9139 220.884 94.4293 213.65C91.4821 207.532 92.6217 203.26 96.2365 197.725C102.627 187.935 106.371 178.27 106.12 166.543C107.22 178.286 115.771 189.626 126.876 192.372C127.028 190.65 127.186 188.927 127.343 187.205C127.558 184.868 127.772 182.531 127.97 180.194C128.171 177.865 128.381 175.536 128.591 173.206C129.056 168.031 129.522 162.853 129.897 157.667C130.019 155.991 130.049 154.342 130.021 152.707C127.684 147.794 124.398 144.177 122.334 142.5L122.33 142.429L122.234 142.459C118.856 143.534 115.832 145.185 113.335 147.355C109.161 150.983 106.462 156.063 106.054 162.327C106.108 154.548 107.277 147.741 110.273 140.044C111.148 137.8 112.065 135.589 113.009 133.425C113.399 93.1799 126.008 70.2017 143.211 57.1086C148.298 53.1141 153.957 49.8266 159.917 47.3203C163.854 45.6622 167.898 44.2883 172.017 43.1674C171.81 38.3908 173.544 33.6602 176.448 29.4585C179.758 24.66 186.696 21.1527 192.008 18.467C192.327 18.306 192.639 18.1479 192.945 17.9927C197.694 15.5807 203.666 12.9066 209.106 14.4621Z" fill="#BF9D75"/>
</svg>
