<svg width="408" height="408" viewBox="0 0 408 408" fill="none" xmlns="http://www.w3.org/2000/svg">
<path fill-rule="evenodd" clip-rule="evenodd" d="M223.537 43.9675C222.893 43.8429 222.25 43.7251 221.608 43.6138C213.259 39.1217 200.626 34.2753 186.552 33.2123C167.05 31.7392 144.518 37.5982 127.602 61.3533C106.684 90.7287 107.547 121.194 114.195 146.8C117.195 144.5 120.195 143 123.695 142.2C123.589 142.345 123.486 142.481 123.387 142.611C122.929 143.216 122.55 143.716 122.321 144.566C121.096 149.098 123.777 153.765 128.308 154.989C129.272 155.25 130.24 155.426 131.21 155.529C132.281 159.581 132.987 164.128 132.987 168.5V181.989C132.987 185.094 136.977 186.361 138.769 183.826C139.15 183.289 139.355 182.657 139.349 181.999C139.328 179.69 139.237 177.997 139.118 175.79C139.061 174.717 138.996 173.521 138.931 172.073C138.7 167.015 138.449 161.148 138.382 155.1C141.768 154.396 145.004 153.089 147.862 151.675C153.839 148.715 160.045 144.323 165.886 139.558C169.506 136.605 173.096 133.418 176.536 130.182C176.561 130.252 176.587 130.322 176.615 130.391C178.331 134.761 183.264 139.912 187.634 138.195C194.538 135.483 200.224 131.577 204.883 127.004C204.982 127.206 205.089 127.406 205.205 127.603C207.59 131.646 212.802 132.99 216.845 130.605C227.302 124.436 232.654 112.615 235.468 102.454C235.67 101.727 235.836 101.137 235.977 100.64C236.678 98.1581 236.728 97.9833 237.195 94.5C237.626 94.9311 238.057 95.339 238.488 95.7469C240.057 97.2314 241.627 98.7165 243.199 101.324C247.919 113.268 251.184 125.201 251.02 134.128C250.934 138.822 254.669 142.696 259.363 142.782C260.109 142.796 260.834 142.713 261.526 142.546V142.784C261.526 147.478 265.332 151.284 270.026 151.284C270.142 151.284 270.257 151.281 270.372 151.277C270.765 157.262 270.557 163.701 270.332 170.632C270.313 171.225 270.294 171.82 270.275 172.42C270.264 172.764 270.253 173.104 270.242 173.439C270.14 176.63 270.052 179.392 270.038 181.999C270.035 182.482 270.166 182.946 270.414 183.362C271.81 185.703 275.402 184.715 275.402 181.989V168.5C275.402 158.644 281.208 147.484 284.873 143.454C285.047 143.504 285.225 143.549 285.405 143.588C289.991 144.589 294.521 141.683 295.522 137.096C298.496 123.471 300.848 99.7825 293.089 79.2325C289.132 68.751 282.451 58.8653 271.738 51.8062C261.04 44.7565 247.047 41.004 229.288 41.5021C227.038 41.5652 225.017 42.4972 223.537 43.9675Z" fill="#463E38"/>
</svg>
