<svg width="408" height="408" viewBox="0 0 408 408" fill="none" xmlns="http://www.w3.org/2000/svg">
<path d="M294.629 147.3C299.997 52.982 245.984 43.4238 206.22 42.0747C204.652 42.0215 203 42.0333 201.78 42.0747C162.106 43.4208 108.25 53.5895 113.335 147.354C115.856 145.164 118.914 143.502 122.33 142.429C125.829 145.293 132.793 153.74 132.793 164.5V177.989C132.793 181.093 136.782 182.36 138.575 179.826C138.955 179.288 139.16 178.657 139.154 177.999C139.123 174.566 138.937 172.497 138.736 168.073C137.951 150.839 139.922 128.231 146.774 117C157.41 99.5657 183.196 102.672 204 102.508C224.804 102.672 250.59 99.5657 261.226 117C268.101 128.269 270.654 150.072 270.135 166.688C270.117 167.272 270.098 167.849 270.08 168.42L269.843 177.998C269.84 178.482 269.972 178.946 270.219 179.361C271.615 181.702 275.207 180.714 275.207 177.989V164.5C275.207 153.7 282.18 145.325 285.666 142.492C288.962 143.551 292.101 145.154 294.556 147.261L294.629 147.3Z" fill="#BF9D75"/>
</svg>
