<svg width="408" height="408" viewBox="0 0 408 408" fill="none" xmlns="http://www.w3.org/2000/svg">
<path d="M227 94C226 99.8333 219.4 114.6 201 127" stroke="#463E38" stroke-width="20" stroke-linecap="round"/>
<path d="M216 94C214.231 100.54 202.554 117.097 170 131" stroke="#463E38" stroke-width="20" stroke-linecap="round"/>
<path d="M177 96C175.385 103.778 164.723 123.467 135 140" stroke="#463E38" stroke-width="20" stroke-linecap="round"/>
<path d="M273 160C254.2 150 233.167 111.5 225 93.5L270 102.5L273 160Z" fill="#463E38"/>
<path d="M179.5 122L175 117L137 132.5L145 103L173 70.5L218.5 92L179.5 122Z" fill="#463E38"/>
<path d="M294.629 147.3C299.997 52.9823 245.984 33.4241 206.22 32.0749V32C205.486 32 204.746 32.0061 204 32.0186C203.254 32.0061 202.514 32 201.78 32V32.0749C162.106 33.421 108.25 53.5898 113.335 147.355C115.856 145.164 118.914 143.502 122.33 142.429C122.332 142.453 122.333 142.476 122.334 142.5C125.82 145.333 132.793 153.7 132.793 164.5V177.989C132.793 181.094 136.782 182.361 138.575 179.826C138.955 179.289 139.16 178.657 139.154 177.999C139.133 175.69 139.042 173.997 138.924 171.79C138.866 170.716 138.802 169.521 138.736 168.073C138.19 156.084 137.526 141.495 139.479 129.943L171.887 99.823C180.098 97.8571 188.892 96.9979 197.001 96.672L222.138 97.4764C228.64 98.1792 235.214 99.3472 241.284 101.24L269 133.5L269.306 133.665C270.831 144.78 270.417 157.823 270.08 168.42C270.069 168.764 270.059 169.103 270.048 169.437C269.946 172.63 269.857 175.392 269.843 177.999C269.84 178.482 269.972 178.946 270.219 179.362C271.615 181.703 275.207 180.715 275.207 177.989V164.5C275.207 153.7 282.18 145.333 285.666 142.5C285.667 142.476 285.668 142.452 285.67 142.429C289.037 143.487 292.057 145.117 294.556 147.261L294.629 147.3Z" fill="#463E38"/>
<path fill-rule="evenodd" clip-rule="evenodd" d="M173.428 253.487C149.864 242.807 133.268 219.986 127.581 192.501C124.065 191.728 120.793 190.093 117.917 187.851C119.246 205.521 119.959 230.616 117.087 251.302C116.403 256.225 119.84 260.771 124.763 261.454C125.202 261.515 125.638 261.543 126.068 261.541C125.998 271.049 125.526 300.785 124.419 313.252C136.414 298.979 151.521 289.789 167.98 287.542C169.876 287.283 171.439 285.912 171.856 284.095L173.428 253.487ZM283.486 311.006C271.412 297.559 256.441 289.087 240.228 287.341C238.22 287.125 236.565 285.624 236.272 283.654L234.722 253.487C258.286 242.807 274.882 219.986 280.569 192.501C284.085 191.728 287.357 190.093 290.233 187.851C288.904 205.521 288.191 246.616 291.063 267.302C291.747 272.225 288.31 276.771 283.387 277.454C282.948 277.515 282.512 277.543 282.082 277.541C282.216 279.612 282.358 283.846 282.525 288.801L282.525 288.803V288.804C282.774 296.195 283.077 305.19 283.486 311.006Z" fill="#463E38"/>
</svg>
