<svg width="408" height="408" viewBox="0 0 408 408" fill="none" xmlns="http://www.w3.org/2000/svg">
<path d="M262.742 49.0941C271.894 57.3088 279.206 68.7802 284.971 79.5063L284.987 79.5225C290.491 89.7949 292.885 101.185 289.302 112.543C288.387 115.44 287.015 118.115 285.643 120.774C286.101 127.457 286.128 134.685 285.666 142.5C282.18 145.333 275.207 153.7 275.207 164.5V177.989C275.207 180.715 271.615 181.703 270.219 179.362C269.972 178.946 269.84 178.482 269.843 177.999C269.857 175.392 269.946 172.631 270.048 169.44L270.048 169.437L270.08 168.42C270.344 160.118 270.655 150.316 270.044 141.115L267.5 125L265.434 119.843C262.628 117.453 257.748 115.343 253.161 113.358C249.28 111.68 245.608 110.092 243.577 108.5C242.035 107.293 240.493 106.089 238.951 104.885C237.411 103.682 235.87 102.479 234.329 101.272C231.589 104.927 228.556 108.288 224.478 110.442C221.738 111.878 218.835 112.498 215.769 112.482C214.781 112.482 213.784 112.362 212.786 112.242C211.542 112.093 210.296 111.944 209.066 112.025C204.767 112.292 203.082 113.927 200.686 116.253C200.3 116.627 199.896 117.019 199.46 117.426C190.702 125.601 175.518 127.674 169.565 116.953C165.321 119.289 156.466 121.244 149.435 122.101L138.335 141.399C137.926 150.294 138.359 159.803 138.736 168.073C138.802 169.521 138.866 170.717 138.924 171.79C139.042 173.997 139.133 175.69 139.154 177.999C139.16 178.657 138.955 179.289 138.575 179.826C136.782 182.361 132.793 181.094 132.793 177.989V164.5C132.793 159.78 131.461 155.525 129.671 151.994C128.982 151.161 128.37 150.27 127.858 149.307C127.599 148.82 127.366 148.328 127.157 147.832C125.426 145.39 123.637 143.559 122.334 142.5C121.579 129.743 122.128 118.55 123.729 108.739C121.763 98.0257 120.153 87.1963 126.685 78.0156C130.561 72.5716 136.603 69.1528 142.547 66.3822C142.603 66.3558 142.66 66.3293 142.72 66.3028C145.607 63.1196 148.708 60.3261 151.965 57.8802L152.003 57.7944C152.348 57.0123 152.68 56.263 153.017 55.6075C154.402 52.9503 155.753 50.6982 157.935 48.5756C168.076 38.7083 182.633 39.9356 195.602 42.447C195.952 42.4164 196.302 42.3875 196.65 42.3602C204.14 36.2149 215.267 35.6521 225.044 36.1321C238.723 36.7964 252.32 39.7291 262.742 49.0941Z" fill="#BF9D75"/>
</svg>
