<svg width="408" height="408" viewBox="0 0 408 408" fill="none" xmlns="http://www.w3.org/2000/svg">
<path d="M172.357 266.973C155.31 268.302 125.227 273.139 125.227 283.414C125.1 284.728 125.263 287.683 126.931 288.994C116.303 288.569 93.5294 306.901 86.7811 313.272C84.2566 315.655 80.3882 319.981 70.6837 345.496C66.4793 356.55 64.9992 364.038 65.0764 369C64.6019 371.133 65.1151 373.188 66.2739 374.795C67.4148 376.989 69.2181 377.803 71.0114 377.837C71.5322 377.944 72.0733 378 72.6293 378H335.571C336.305 378 337.014 377.902 337.684 377.719C338.262 377.599 338.826 377.382 339.353 377.05C342.254 375.479 343.973 372.166 343.049 368.695C342.865 368.004 342.675 367.316 342.479 366.631C342.13 361.747 340.526 354.916 336.943 345.496C327.238 319.981 324.996 317.846 322.472 315.463C315.723 309.093 291.323 288.569 280.696 288.994C282.363 287.683 282.526 284.728 282.399 283.414C282.399 273.254 252.986 268.411 235.847 267.019L237.249 284.147C240.824 285.815 245.234 288.618 244.886 291.313C244.448 294.707 243.851 297.81 237.645 306.357C235.246 307.43 232.119 308.628 229.333 309.426C213.951 313.759 193.74 313.555 178.447 309.184C175.661 308.385 172.979 307.43 170.58 306.357C164.373 297.81 163.776 294.707 163.338 291.313C162.991 288.618 167.373 285.859 170.948 284.191L172.357 266.973Z" fill="#38464F"/>
<path d="M157.756 295.913C152.634 290.859 147.438 289.342 143.369 288.154C140.027 287.178 137.447 286.425 136.292 284.116C133.642 278.815 157.079 275.998 171.71 275.061L170.343 291.771C182.578 303.766 225.827 304.829 237.933 292.514L236.505 275.061C251.136 275.998 274.573 278.815 271.923 284.116C270.768 286.425 268.188 287.178 264.846 288.154C260.559 289.406 255.02 291.023 249.635 296.758C235.888 318.79 169.188 317.139 157.756 295.913Z" fill="#26343D"/>
<path d="M229.333 309.426C213.951 313.759 193.74 313.555 178.447 309.184C175.661 308.385 172.979 307.43 170.58 306.357C164.373 297.81 163.776 294.706 163.338 291.313C162.991 288.617 167.373 285.858 170.948 284.19L170.395 291.822C182.683 303.753 225.725 304.809 237.882 292.565L237.249 284.146C240.824 285.815 245.234 288.617 244.886 291.313C244.448 294.706 243.851 297.81 237.645 306.357C235.246 307.43 232.119 308.627 229.333 309.426Z" fill="white"/>
<path d="M276.528 291.882C271.268 294.452 259.746 301.42 255.73 308.735C250.71 317.879 227.223 331.684 213.059 334.732" stroke="#2D3B44" stroke-width="3" stroke-linecap="round"/>
<path d="M131.483 291.882C136.742 294.452 148.265 301.42 152.281 308.735C154.668 313.083 161.231 318.485 168.981 323.283" stroke="#2D3B44" stroke-width="3" stroke-linecap="round"/>
<path d="M229.561 318.059C230.14 320.431 228.687 322.824 226.314 323.403C223.942 323.983 221.549 322.53 220.969 320.157C220.39 317.785 222.081 316.363 224.453 315.784C226.825 315.204 228.981 315.686 229.561 318.059Z" fill="#26343D"/>
<rect x="223.966" y="356.796" width="2.70343" height="5.96484" rx="1.35172" fill="#B0B0B0"/>
<path d="M223.341 322.127C223.341 320.321 223.107 319.512 224.742 319.112C226.378 318.713 227.263 319.112 227.263 320.68L227.263 354.756C227.263 356.539 227.661 358.041 226.025 358.441C224.39 358.84 223.341 357.788 223.341 356.203L223.341 322.127Z" fill="#D9D9D9"/>
<path d="M177.417 318.059C176.837 320.431 178.291 322.824 180.663 323.403C183.036 323.983 185.429 322.53 186.008 320.157C186.588 317.785 184.897 316.363 182.525 315.784C180.152 315.204 177.996 315.686 177.417 318.059Z" fill="#26343D"/>
<rect width="2.70343" height="5.96484" rx="1.35172" transform="matrix(-1 0 0 1 183.012 356.796)" fill="#B0B0B0"/>
<path d="M183.637 322.127C183.637 320.321 183.871 319.512 182.235 319.112C180.6 318.713 179.714 319.112 179.714 320.68L179.714 354.756C179.714 356.539 179.317 358.041 180.952 358.441C182.588 358.84 183.637 357.788 183.637 356.203L183.637 322.127Z" fill="#D9D9D9"/>
<path d="M317.957 318.203C315.993 319.03 311.446 322.854 308.965 331.536C305.864 342.389 301.523 367.504 296.872 371.225" stroke="#2D3B44" stroke-width="3" stroke-linecap="round"/>
</svg>
