<svg width="408" height="408" viewBox="0 0 408 408" fill="none" xmlns="http://www.w3.org/2000/svg">
<path d="M251.055 283.012L235.911 280.156L234.46 289.167L257.429 292.903L251.055 283.012Z" fill="#2B2B34"/>
<path d="M157.405 283.012L172.549 280.156L174 289.167L151.031 292.903L157.405 283.012Z" fill="#2B2B34"/>
<path d="M234.606 273.292C236.109 273.272 237.393 274.37 237.639 275.853C238.22 279.355 239.095 283.876 239.777 285.013C240.185 285.691 241.893 286.185 243.935 286.531C245.555 286.806 246.76 288.237 246.568 289.869C244.894 304.081 240.587 318.082 239.284 332.408C238.263 343.64 238.071 364.175 233.085 375.364C232.862 375.865 231.458 378.135 230.909 378.135H177.841C177.159 378.135 174.84 374.546 174.566 373.922C169.55 362.484 169.984 343.173 169.005 332.408C167.971 321.037 164.17 300.948 161.856 289.458C161.827 289.314 161.783 289.014 161.741 288.661C161.6 287.475 162.401 286.569 163.575 286.349C166.237 285.853 167.866 285.459 168.253 284.91C169.739 282.797 170.12 279.138 170.453 275.928C170.56 274.896 171.425 274.115 172.463 274.102L234.606 273.292Z" fill="#C4CCDA"/>
<path d="M202.755 270.554C191.397 270.205 178.825 267.019 172.101 264.898C170.852 264.503 169.537 265.358 169.429 266.663L168.772 274.543C168.696 275.449 169.235 276.292 170.101 276.57C176.638 278.674 190.796 282.186 202.755 282.554C214.829 282.926 230.589 278.995 237.908 276.578C238.767 276.295 239.304 275.454 239.228 274.551L238.572 266.678C238.463 265.367 237.145 264.512 235.894 264.916C228.374 267.342 214.282 270.909 202.755 270.554Z" fill="#E3E8F1"/>
<path d="M257.1 284.002L242.499 281.342C241.583 281.175 240.862 282.112 241.258 282.954C241.387 283.228 241.62 283.44 241.905 283.543L245.56 284.864C246.495 285.202 247.041 286.166 246.843 287.14C244.563 298.386 240.344 320.751 239.285 332.409C238.263 343.641 230.071 364.176 225.085 375.365C224.489 376.703 225.462 378.215 226.926 378.209C263.536 378.058 326.421 377.867 335.305 378.222C344.448 378.588 345.515 373.041 344.905 370.222C339.8 355.212 325.842 321.765 310.848 308.05C292.105 290.907 291.467 298.861 289.928 295.706C289.527 294.883 289.054 294.376 288.572 294.085C287.419 293.389 285.244 292.858 283.902 292.741C283.164 292.677 282.407 292.799 281.926 292.936C281.065 293.183 278.781 292.455 277.747 292.06C270.634 288.948 263.685 285.391 257.1 284.002Z" fill="#34343F"/>
<path d="M151.19 284.002L165.791 281.342C166.706 281.175 167.427 282.112 167.031 282.954C166.902 283.228 166.67 283.44 166.385 283.543L163.544 284.57C162.142 285.077 161.324 286.528 161.618 287.99C163.932 299.479 167.971 321.038 169.005 332.409C169.984 343.174 177.55 362.485 182.567 373.923C183.449 375.934 181.998 378.211 179.802 378.202C142.994 378.053 81.743 377.872 72.9845 378.222C63.8416 378.588 62.775 373.041 63.3845 370.222C68.4893 355.212 82.4474 321.765 97.4418 308.05C116.185 290.907 116.822 298.861 118.361 295.706C118.486 295.45 118.618 295.224 118.756 295.026C119.905 293.364 123.745 292.48 125.739 292.8C125.975 292.838 126.187 292.886 126.363 292.936C127.225 293.183 129.508 292.455 130.542 292.06C137.656 288.948 144.605 285.391 151.19 284.002Z" fill="#34343F"/>
<path d="M113.279 306.926C110.068 308.697 103.509 313.707 102.958 319.577C102.408 325.447 96.9192 356.264 94.2437 370.939" stroke="#25252E" stroke-width="3" stroke-linecap="round"/>
<path d="M295.837 307.165C297.378 308.54 300.858 312.632 302.444 317.995C304.426 324.699 306.849 357.962 310.813 369.566" stroke="#25252E" stroke-width="3" stroke-linecap="round"/>
<path d="M145.227 309.926C148.516 311.43 155.829 316.749 158.761 325.998C162.427 337.559 167.502 368.011 174.269 374.779" stroke="#69697B" stroke-width="3" stroke-linecap="round"/>
<path d="M252.783 292.903L266.097 298.155C266.547 298.332 266.998 298.574 267.202 299.013C268.174 301.104 266.742 306.688 254.631 316.664C237.732 330.584 249.614 357.945 241.165 369.465" stroke="#69697B" stroke-width="3" stroke-linecap="round"/>
</svg>
