<svg width="408" height="408" viewBox="0 0 408 408" fill="none" xmlns="http://www.w3.org/2000/svg">
<path fill-rule="evenodd" clip-rule="evenodd" d="M150.671 298.553C133.064 298.551 116.964 300.363 100.806 311.821C85.5686 325.721 70.6935 347.858 65.1509 368.695C63.8726 373.5 67.6569 378 72.6293 378H335.571C340.311 378 343.972 373.91 343.195 369.364C343.118 368.916 342.946 368.47 342.755 368.056C316.82 311.717 307.751 308.2 267.09 299.569C263.924 298.897 260.735 298.342 257.529 297.904V308.536C257.529 326.762 242.755 341.536 224.529 341.536H183.671C165.445 341.536 150.671 326.762 150.671 308.536V298.553Z" fill="#CDD5E2"/>
<path d="M164.047 286.311C154.687 286.124 125.293 294.584 114.06 299.119C112.345 299.812 111.49 301.662 111.922 303.461L129.021 374.758C129.452 376.557 131.06 377.825 132.91 377.825L270.831 377.825C272.568 377.825 274.106 376.705 274.638 375.052L293.518 316.464C293.646 316.067 293.711 315.654 293.711 315.237V303.865C293.711 302.454 292.977 301.143 291.702 300.538C281.893 295.88 255.188 288.098 245.465 287.116C243.901 286.959 242.601 288.033 242.034 289.499C234.121 309.978 214.659 307.237 205.713 310.493C204.703 310.86 203.603 310.997 202.579 310.67C190.886 306.937 175.575 300.482 166.587 287.826C165.979 286.971 165.096 286.332 164.047 286.311Z" fill="#38464F"/>
<path d="M250.513 285.929C251.441 286.102 252.1 286.921 252.1 287.865V288.77C250.864 321.708 154.838 319.279 156.1 288.77V287.865C156.1 286.921 156.759 286.102 157.687 285.929C160.108 285.479 162.646 285.158 165.151 285.045C166.234 284.996 167.098 285.881 167.371 286.931C172.125 305.208 237.212 306.84 240.936 287.039C241.144 285.936 242.024 284.996 243.145 285.049C245.618 285.167 248.123 285.485 250.513 285.929Z" fill="#26343D"/>
<path d="M272.695 377.898L291.628 378C291.729 378.001 291.83 377.994 291.929 377.977C299.909 376.589 301.617 357.181 309.792 310.381C309.955 309.445 309.428 308.506 308.53 308.171L293.507 302.568C292.333 302.131 291.045 302.87 290.826 304.092C284.217 341.007 278.001 362.525 270.923 374.732C270.126 376.106 271.094 377.89 272.695 377.898Z" fill="#26343D"/>
<path d="M133.114 377.671L114.1 377.547C113.996 377.547 113.892 377.539 113.79 377.52C105.761 376.041 103.801 356.728 94.9885 310.111C94.8195 309.217 95.3443 308.317 96.2436 307.994L111.256 302.607C112.427 302.187 113.716 302.888 113.94 304.05C121.077 340.984 127.618 362.479 134.916 374.676C135.704 375.992 134.715 377.682 133.114 377.671Z" fill="#26343D"/>
<path d="M97.7441 318.526L115.947 312.815" stroke="#38464F"/>
<path d="M100.421 336.015L120.051 331.731" stroke="#38464F"/>
<path d="M103.812 355.109L125.226 351.361" stroke="#38464F"/>
<path d="M107.738 370.1L131.651 368.137" stroke="#38464F"/>
<path d="M308.127 318.458L289.196 313.683" stroke="#38464F"/>
<path d="M304.886 338.583L284.761 333.978" stroke="#38464F"/>
<path d="M301.305 356.832L280.327 352.057" stroke="#38464F"/>
<path d="M297.553 370.987L274.188 368.6" stroke="#38464F"/>
</svg>
