<svg width="408" height="408" viewBox="0 0 408 408" fill="none" xmlns="http://www.w3.org/2000/svg">
<path d="M204.149 301.271L211.564 300.224L239.563 284.965L251.85 289.949L255.065 307.47L211.564 357.379L177.549 346.066L152.427 290.721L163.723 286.826L196.384 299.613L201.619 301.271L203.625 310.256L204.149 301.271Z" fill="#D6D6D6"/>
<path d="M327.37 378.001C332.342 378.001 336.127 373.501 334.848 368.695C317.086 327.787 313.652 318.709 304.277 311.54C290.364 300.901 270.107 294.237 252.01 288.58C250.501 288.109 248.887 288.892 248.32 290.367L241.329 308.536C237.656 316.386 224.885 329.306 210.867 340.722C208.148 342.936 204.285 343.03 201.459 340.954C185.596 329.305 171.232 316.012 168.037 308.536L161.027 290.317C160.467 288.862 158.886 288.076 157.395 288.53C134.326 295.545 113.253 306.043 105.141 313.696C96.7951 321.571 92.2361 331.214 74.9839 367.709L74.5176 368.695C73.2393 373.501 77.0236 378.001 81.996 378.001H327.37Z" fill="#B07754"/>
<path d="M206.865 300.229C213.602 298.708 231.041 287.824 238.919 282.572C239.605 283.414 244.493 285.557 246.851 286.524C243.821 298.208 232.032 313.536 226.516 319.739C222.408 311.307 211.704 303.219 206.865 300.229Z" fill="#EFEFEF"/>
<path d="M201.123 300.229C194.386 298.708 176.947 287.824 169.069 282.572C168.382 283.414 163.495 285.557 161.137 286.524C164.166 298.208 175.956 313.536 181.472 319.739C185.58 311.307 196.284 303.219 201.123 300.229Z" fill="#EFEFEF"/>
<path d="M214.27 314.127C214.27 315.896 212.836 317.33 211.067 317.33C209.299 317.33 207.865 315.896 207.865 314.127C207.865 312.359 209.299 311.925 211.067 311.925C212.836 311.925 214.27 312.359 214.27 314.127Z" fill="white"/>
<path d="M213.27 327.394C213.27 329.163 211.836 330.597 210.067 330.597C208.299 330.597 206.865 329.163 206.865 327.394C206.865 325.625 208.299 324.191 210.067 324.191C211.836 324.191 213.27 325.625 213.27 327.394Z" fill="white"/>
<path d="M162.735 321.492L160.655 373.355" stroke="#C0835E" stroke-width="3" stroke-linecap="round"/>
<path d="M145.798 299.504C142.925 318.77 137.477 360.572 138.666 373.653" stroke="#C0835E" stroke-width="3" stroke-linecap="round"/>
<path d="M123.215 309.311C120.936 324.048 116.083 355.203 114.895 361.918C113.706 368.634 114.399 372.738 114.895 373.951" stroke="#C0835E" stroke-width="3" stroke-linecap="round"/>
<path d="M181.311 338.957V374.129" stroke="#C0835E" stroke-width="3" stroke-linecap="round"/>
<path d="M199.705 352.242V373.449" stroke="#C0835E" stroke-width="3" stroke-linecap="round"/>
<path d="M223.889 344.748C224.343 352.012 225.388 367.854 225.933 373.108" stroke="#C0835E" stroke-width="3" stroke-linecap="round"/>
<path d="M242.624 329.42C244.781 341.078 249.028 366.204 248.755 373.449" stroke="#C0835E" stroke-width="3" stroke-linecap="round"/>
<path d="M261.358 304.554C262.834 321.49 266.4 358.708 268.852 372.086" stroke="#C0835E" stroke-width="3" stroke-linecap="round"/>
<path d="M279.412 306.598C283.386 322.663 291.47 358.456 292.015 373.108" stroke="#C0835E" stroke-width="3" stroke-linecap="round"/>
<path d="M303.256 320.563C305.413 334.596 310.613 364.751 314.156 373.108" stroke="#C0835E" stroke-width="3" stroke-linecap="round"/>
<path d="M102.439 328.551C99.3703 339.08 93.2326 361.21 93.2327 365.497C93.2327 369.784 93.2327 372.924 93.2327 373.958" stroke="#C0835E" stroke-width="3" stroke-linecap="round"/>
<path d="M155.018 303.016L162.619 320.532C163.583 322.754 165.071 324.709 166.954 326.23L197.216 350.671C202.844 355.217 210.915 355.098 216.407 350.387L243.757 326.928C246.046 324.964 247.69 322.356 248.475 319.444L252.9 303.016" stroke="#8B5737" stroke-width="3" stroke-linecap="round"/>
</svg>
