<svg width="408" height="408" viewBox="0 0 408 408" fill="none" xmlns="http://www.w3.org/2000/svg">
<path d="M204 260C247.188 260 277.86 225.203 282.199 181.832C293.803 65.8405 247.188 50 204 50C160.812 50 114.197 65.8405 125.801 181.832C130.14 225.203 160.812 260 204 260Z" fill="#B67C69"/>
<path d="M158 170C158 184.359 146.359 193 132 193C117.641 193 106 178.359 106 164C106 149.641 117.641 141 132 141C146.359 141 158 155.641 158 170Z" fill="#B67C69"/>
<path d="M250 170C250 184.359 261.641 193 276 193C290.359 193 302 178.359 302 164C302 149.641 290.359 141 276 141C261.641 141 250 155.641 250 170Z" fill="#B67C69"/>
<path d="M175.2 230H232.8L240 318L203.1 341.5L168 318L175.2 230Z" fill="#B67C69"/>
<path fill-rule="evenodd" clip-rule="evenodd" d="M214.56 259.286C211.133 259.757 207.61 260.001 204 260.001C192.845 260.001 182.525 257.679 173.278 253.488L171.144 279.579C188.194 277.792 202.985 270.423 214.56 259.286Z" fill="#A56854"/>
<path d="M126.991 176C127.157 170.894 125.192 160.545 116 160" stroke="#925A48" stroke-width="4" stroke-linecap="round"/>
<path d="M281.009 176C280.843 170.894 282.808 160.545 292 160" stroke="#925A48" stroke-width="4" stroke-linecap="round"/>
<path d="M164 169C165.333 167 169.8 163 177 163C184.2 163 189.333 165.588 191 166.882" stroke="#674F4F" stroke-width="4" stroke-linecap="round"/>
<path d="M244 169C242.667 167 238.2 163 231 163C223.8 163 218.667 165.588 217 166.882" stroke="#674F4F" stroke-width="4" stroke-linecap="round"/>
<path d="M178.604 213.751C176.529 220.664 166.79 224.392 158.743 222.518C150.696 220.643 144.321 213.162 146.396 206.249C148.471 199.336 158.21 195.608 166.257 197.482C174.304 199.357 180.679 206.838 178.604 213.751Z" fill="#C48976"/>
<path d="M229.396 213.751C231.471 220.664 241.21 224.392 249.257 222.518C257.304 220.643 263.679 213.162 261.604 206.249C259.529 199.336 249.79 195.608 241.743 197.482C233.696 199.357 227.321 206.838 229.396 213.751Z" fill="#C48976"/>
<path fill-rule="evenodd" clip-rule="evenodd" d="M241.169 287.324C239.061 287.108 237.338 285.471 237.166 283.359C236.987 281.179 235.166 279.5 232.978 279.5H175.125C172.879 279.5 171.009 281.223 170.826 283.462C170.652 285.585 168.95 287.247 166.838 287.523C133.263 291.903 105.12 323.414 96.4285 367.695C95.4853 372.5 98.2776 377 101.946 377H307.765C311.434 377 314.226 372.5 313.283 367.695C304.445 322.666 275.492 290.842 241.169 287.324Z" fill="#B67C69"/>
<ellipse cx="181.5" cy="193.5" rx="5.5" ry="9.5" fill="#36303A"/>
<ellipse cx="226.5" cy="193.5" rx="5.5" ry="9.5" fill="#36303A"/>
</svg>
