<svg width="408" height="408" viewBox="0 0 408 408" fill="none" xmlns="http://www.w3.org/2000/svg">
<path d="M252 287.239C251.783 286.578 251.227 286.062 250.513 285.929C248.108 285.482 245.588 285.162 243.099 285.047C241.996 284.996 241.106 285.897 241.04 287C240.006 304.294 225.654 318 208.1 318H200.1C182.546 318 168.194 304.294 167.16 287C167.094 285.897 166.204 284.996 165.101 285.047C162.613 285.162 160.092 285.482 157.687 285.929C156.973 286.062 156.418 286.578 156.2 287.239C109.108 290.34 77.2412 323.242 65.1509 368.694C63.8726 373.5 67.6569 378 72.6293 378H335.571C340.543 378 344.327 373.5 343.049 368.694C330.959 323.243 299.092 290.34 252 287.239Z" fill="white"/>
<path d="M250.513 285.929C251.441 286.102 252.1 286.921 252.1 287.865V288.77C252.1 311.429 233.732 329.797 211.073 329.797H197.127C174.469 329.797 156.1 311.429 156.1 288.77V287.865C156.1 286.921 156.759 286.102 157.687 285.929C160.092 285.482 162.613 285.163 165.101 285.047C166.204 284.996 167.094 285.898 167.16 287C168.194 304.294 182.546 318 200.1 318H208.1C225.654 318 240.006 304.294 241.04 287C241.106 285.898 241.996 284.996 243.099 285.047C245.588 285.163 248.108 285.482 250.513 285.929Z" fill="#FAFAFA"/>
</svg>
