<svg width="408" height="408" viewBox="0 0 408 408" fill="none" xmlns="http://www.w3.org/2000/svg">
<path fill-rule="evenodd" clip-rule="evenodd" d="M252.001 287.243C251.785 286.58 251.229 286.062 250.513 285.929C248.108 285.482 245.588 285.162 243.099 285.047C241.996 284.996 241.106 285.897 241.04 287C240.006 304.294 225.654 318 208.1 318H200.1C182.546 318 168.194 304.294 167.16 287C167.094 285.897 166.204 284.996 165.101 285.047C162.613 285.162 160.092 285.482 157.687 285.929C156.971 286.062 156.416 286.58 156.199 287.243C109.843 290.366 77.2363 323.261 65.1509 368.694C63.8726 373.5 67.6569 378 72.6293 378H335.571C340.543 378 344.327 373.5 343.049 368.694C330.964 323.261 298.357 290.366 252.001 287.243Z" fill="#38464F"/>
<path d="M250.513 285.929C251.441 286.102 252.1 286.921 252.1 287.865V288.77C252.1 311.429 233.732 329.797 211.073 329.797H197.127C174.469 329.797 156.1 311.429 156.1 288.77V287.865C156.1 286.921 156.759 286.102 157.687 285.929C160.092 285.482 162.613 285.163 165.101 285.047C166.204 284.996 167.094 285.898 167.16 287C168.194 304.294 182.546 318 200.1 318H208.1C225.654 318 240.006 304.294 241.04 287C241.106 285.898 241.996 284.996 243.099 285.047C245.588 285.163 248.108 285.482 250.513 285.929Z" fill="white" fill-opacity="0.2"/>
<path d="M145.918 354.006C171.905 356.205 196.08 354.502 264.075 352.387C266.667 365.624 267.288 366.431 267.613 377.999H145.918C148.698 366.448 145.742 366.674 145.918 354.006Z" fill="#606B72"/>
</svg>
