<?xml version="1.0" encoding="UTF-8"?><svg id="Layer_2" xmlns="http://www.w3.org/2000/svg" viewBox="0 0 2706.31 1518.27"><defs><style>.cls-1{fill:#dd6069;}.cls-1,.cls-2,.cls-3,.cls-4,.cls-5,.cls-6,.cls-7,.cls-8,.cls-9,.cls-10,.cls-11,.cls-12,.cls-13,._Í_ÎûòÌîΩ_Ïä_ÌÉÄÏù_,.cls-14,.cls-15,.cls-16,.cls-17,.cls-18,.cls-19,.cls-20{stroke:#434448;stroke-linecap:round;stroke-linejoin:round;}.cls-1,.cls-3,.cls-4,.cls-5,.cls-6,.cls-7,.cls-8,.cls-9,.cls-10,.cls-11,.cls-12,.cls-13,._Í_ÎûòÌîΩ_Ïä_ÌÉÄÏù_,.cls-14,.cls-15,.cls-16,.cls-17,.cls-18,.cls-19{stroke-width:4px;}.cls-1,.cls-21{opacity:.2;}.cls-2{stroke-width:24px;}.cls-2,.cls-3,.cls-18,.cls-20{fill:none;}.cls-22{fill:#f9684b;}.cls-23{fill:#f2f2f2;}.cls-24{fill:#f9a75d;}.cls-25{fill:#f26161;}.cls-26{fill:#f74d72;}.cls-27{fill:#f78e2f;}.cls-28,.cls-16{fill:#fff;}.cls-29{fill:#ffe3c2;}.cls-30{fill:#fff4e7;}.cls-31{fill:#ffe6c5;}.cls-32{fill:#ffcc87;}.cls-33{fill:#ffbb6b;}.cls-34{fill:#ef5940;}.cls-35,._Í_ÎûòÌîΩ_Ïä_ÌÉÄÏù_{fill:#efefed;}.cls-36{fill:#fce349;}.cls-37{fill:#fbc89a;}.cls-38,.cls-14{fill:#f66;}.cls-39{fill:#ff694c;}.cls-40{fill:#7d8ba4;}.cls-41{fill:#7e8eb1;}.cls-42,.cls-13{fill:#686868;}.cls-43{fill:#99afbf;}.cls-44{fill:#8aa5da;}.cls-45{fill:#a0d6ef;}.cls-46{fill:#8fa9d8;}.cls-47{fill:#bacae9;}.cls-48,.cls-4{fill:#aaa;}.cls-49{fill:#cc3e2b;}.cls-50{fill:#d1d1d1;}.cls-51{fill:#d33e2a;}.cls-52{fill:#c3d2e0;}.cls-53{fill:#d4e3fc;}.cls-54{fill:#dd3f2a;}.cls-55,.cls-21,.cls-56,.cls-57{fill:#434448;}.cls-58{fill:#41e7f9;}.cls-59{fill:#43f7bb;}.cls-60{fill:#536897;}.cls-61{fill:#475b7f;}.cls-62{fill:#75afdf;}.cls-63{fill:#7b8baf;}.cls-3{opacity:.5;}.cls-5{fill:#cccccd;}.cls-6{fill:#ddac8a;}.cls-7{fill:#d4c8c9;}.cls-8{fill:#c7d6ca;}.cls-9{fill:#59b275;}.cls-10{fill:#5aa189;}.cls-11{fill:#bae0e5;}.cls-12{fill:#b74f6a;}.cls-15{fill:#eab278;}.cls-17{fill:#f5f5f5;}.cls-64,.cls-57{opacity:.25;}.cls-19{fill:#f3f3f3;}.cls-56{opacity:.3;}.cls-20{stroke-width:6px;}</style></defs><g id="_격리_모드"><g class="cls-64"><rect class="cls-5" x="2564.35" y="339.54" width="122.94" height="46.26"/><rect class="cls-5" x="1562.51" y="729.28" width="122.93" height="46.26"/><rect class="cls-5" x="1539.49" y="683.03" width="122.94" height="46.26"/><rect class="cls-5" x="2480.66" y="773.19" width="122.94" height="46.26"/><rect class="cls-5" x="1238.11" y="516.42" width="122.94" height="46.26"/><rect class="cls-5" x="305.13" y="494.97" width="122.94" height="46.26"/><rect class="cls-5" x="253.63" y="541.23" width="122.94" height="46.26"/><rect class="cls-5" x="724.09" y="779.46" width="122.94" height="46.26"/><rect class="cls-5" x="2" y="244.1" width="122.94" height="46.26"/><rect class="cls-5" x="2407.8" y="726.93" width="122.94" height="46.26"/><rect class="cls-5" x="2581.38" y="432.06" width="122.93" height="46.26"/><rect class="cls-5" x="2502.88" y="385.8" width="122.94" height="46.26"/><rect class="cls-5" x="105.72" y="773.19" width="122.94" height="46.26"/><rect class="cls-5" x="122.75" y="865.71" width="122.93" height="46.26"/><rect class="cls-5" x="44.26" y="819.45" width="122.94" height="46.26"/></g><line class="cls-18" x1="63.47" y1="1404.99" x2="2613.02" y2="1404.99"/><path class="cls-21" d="m609.96,170.24l-65.21-31.91c-.79-2.33-3-4.02-5.6-4.02-2.46,0-4.58,1.51-5.47,3.65l-66.1,32.27c-.67.27-.99,1.04-.72,1.71.21.51.7.82,1.21.82.17,0,.33-.03.5-.1l64.71-31.7c.36,2.92,2.85,5.19,5.87,5.19s5.34-2.12,5.82-4.89l63.99,31.41c.16.07.33.1.5.1.52,0,1.01-.31,1.21-.82.27-.67-.05-1.44-.72-1.71Z"/><path class="cls-17" d="m424.51,322.59c0,.62.5,1.12,1.12,1.12h226.76c.62,0,1.12-.5,1.12-1.12v-151.36h-229v151.36Z"/><path class="cls-14" d="m652.39,163.41h-226.76c-.62,0-1.12.5-1.12,1.12v6.7h229v-6.7c0-.62-.5-1.12-1.12-1.12Z"/><rect class="cls-21" x="428.24" y="323.71" width="222.67" height="14.43"/><rect class="cls-62" x="462.5" y="239.84" width="30.9" height="24.76"/><rect class="cls-62" x="524.12" y="264.6" width="92.9" height="24.76"/><rect class="cls-32" x="555.21" y="214.52" width="88.53" height="25.32"/><rect class="cls-32" x="462.5" y="289.36" width="30.9" height="25.32"/><rect class="cls-38" x="524.31" y="188.64" width="92.71" height="25.88"/><rect class="cls-38" x="462.5" y="214.52" width="61.81" height="25.88"/><rect class="cls-38" x="586.11" y="239.84" width="57.63" height="24.76"/><rect class="cls-38" x="435.41" y="264.6" width="57.99" height="24.76"/><line class="cls-18" x1="435.04" y1="183.52" x2="493.4" y2="183.52"/><line class="cls-18" x1="468.08" y1="163.41" x2="534.73" y2="136.16"/><line class="cls-18" x1="609.47" y1="163.41" x2="543.76" y2="136.55"/><line class="cls-18" x1="462.5" y1="214.52" x2="462.5" y2="314.68"/><line class="cls-18" x1="493.4" y1="214.52" x2="493.4" y2="314.68"/><line class="cls-18" x1="524.31" y1="188.64" x2="524.31" y2="289.36"/><line class="cls-18" x1="555.21" y1="188.64" x2="555.21" y2="289.36"/><line class="cls-18" x1="586.11" y1="188.64" x2="586.11" y2="289.36"/><line class="cls-18" x1="617.02" y1="188.64" x2="617.02" y2="289.36"/><line class="cls-18" x1="435.04" y1="289.36" x2="643.74" y2="289.36"/><line class="cls-18" x1="435.04" y1="264.6" x2="643.74" y2="264.6"/><line class="cls-18" x1="435.04" y1="239.84" x2="643.74" y2="239.84"/><line class="cls-18" x1="435.04" y1="214.52" x2="643.74" y2="214.52"/><path class="cls-16" d="m543.76,137.44c0,2.55-2.07,4.61-4.61,4.61s-4.61-2.06-4.61-4.61,2.06-4.61,4.61-4.61,4.61,2.06,4.61,4.61Z"/><rect class="cls-57" x="856.19" y="1048.55" width="1032.66" height="65.5"/><path class="cls-13" d="m959.15,1048.06v13.16c0,2.08-1.68,3.76-3.76,3.76h-130.32c-2.08,0-3.76-1.68-3.76-3.76v-13.16"/><path class="cls-13" d="m1786.6,1048.06v13.16c0,2.08,1.68,3.76,3.76,3.76h130.32c2.08,0,3.76-1.68,3.76-3.76v-13.16"/><path class="_Í_ÎûòÌîΩ_Ïä_ÌÉÄÏù_" d="m805.08,993.55h1134.53c1.04,0,1.88.84,1.88,1.88v50.75c0,1.04-.84,1.88-1.88,1.88H805.08c-1.04,0-1.88-.84-1.88-1.88v-50.75c0-1.04.84-1.88,1.88-1.88Z"/><path class="cls-4" d="m1939.6,993.55H805.07c-1.04,0-1.88.84-1.88,1.88v14.1h1138.29v-14.1c0-1.04-.84-1.88-1.88-1.88Z"/><path class="cls-4" d="m1872.44,1178.61h-999.35c-1.04,0-1.88.84-1.88,1.88v14.1h1003.11v-14.1c0-1.04-.84-1.88-1.88-1.88Z"/><path class="cls-56" d="m805.07,1047.46h1134.53c1.04,0,1.88-.84,1.88-1.88v-10.64H803.2v10.64c0,1.04.84,1.88,1.88,1.88Z"/><path class="cls-4" d="m851.5,1064.97h41.31v440.55c0,5.93-4.81,10.74-10.74,10.74h-19.83c-5.93,0-10.74-4.81-10.74-10.74v-440.55h0Z"/><path class="cls-4" d="m1863.47,1064.97h19.83c5.93,0,10.74,4.81,10.74,10.74v440.55h-41.31v-440.55c0-5.93,4.81-10.74,10.74-10.74Z" transform="translate(3746.77 2581.24) rotate(-180)"/><path class="cls-52" d="m1141.29,1264.53v202.32c0,14.57-11.81,26.39-26.39,26.39h-131.95c-14.58,0-26.39-11.82-26.39-26.39v-202.32h184.73Z"/><path class="cls-43" d="m978.58,1466.85v-189.11h162.72v-13.2h-184.73v202.32c0,14.57,11.82,26.39,26.39,26.39h22.01c-14.57,0-26.39-11.82-26.39-26.39Z"/><path class="cls-43" d="m956.57,1326.1h-35.19c-4.86,0-8.8-3.94-8.8-8.8h0c0-4.86,3.93-8.8,8.8-8.8h35.19"/><path class="cls-52" d="m1141.29,1326.1h35.19c4.85,0,8.8-3.94,8.8-8.8h0c0-4.86-3.94-8.8-8.8-8.8h-35.19"/><rect class="cls-28" x="1062.11" y="1277.74" width="48.38" height="215.5"/><path class="cls-18" d="m1141.3,1264.53v202.32c0,14.57-11.81,26.39-26.39,26.39h-131.95c-14.57,0-26.39-11.82-26.39-26.39v-202.32"/><line class="cls-18" x1="938.97" y1="1264.53" x2="1158.88" y2="1264.53"/><path class="cls-18" d="m956.57,1326.1h-35.19c-4.86,0-8.8-3.94-8.8-8.8h0c0-4.86,3.94-8.8,8.8-8.8h35.19"/><path class="cls-18" d="m1141.3,1326.1h35.19c4.85,0,8.8-3.94,8.8-8.8h0c0-4.86-3.94-8.8-8.8-8.8h-35.19"/><path class="cls-43" d="m1015.65,1264.53c2.19-16.64,16.39-28.15,33.28-28.15s31.1,11.51,33.28,28.15h11.97c-2.72-22.91-22.12-40.15-45.26-40.15s-42.53,17.24-45.26,40.15h11.97Z"/><path class="cls-18" d="m1015.65,1264.53c2.19-16.64,16.39-28.15,33.28-28.15s31.1,11.51,33.28,28.15h11.97c-2.72-22.91-22.12-40.15-45.26-40.15s-42.53,17.24-45.26,40.15h11.97Z"/><path class="_Í_ÎûòÌîΩ_Ïä_ÌÉÄÏù_" d="m1941.48,1067.62v410.09c0,12.57,10.19,22.77,22.77,22.77h304.4c13.98,0,25.32-11.34,25.32-25.32v-407.54"/><path class="cls-56" d="m1989.63,1476.44v-384.76h304.34v-24.06h-352.48v410.22c0,12.5,10.14,22.64,22.64,22.64h27.98c1.85,0,3.08-1.93,2.28-3.6-2.99-6.2-4.76-13.09-4.76-20.43Z"/><path class="cls-35" d="m2269.34,779.05h-303.01c-13.72,0-24.85,11.12-24.85,24.85v263.73h352.48v-263.94c0-13.6-11.03-24.63-24.63-24.63Z"/><path class="cls-56" d="m2035.11,779.05h-69.15c-13.52,0-24.48,10.96-24.48,24.48v264.09h45.54v-240.48c0-26.56,21.54-48.1,48.1-48.1Z"/><path class="cls-18" d="m1941.48,1067.63v407.86c0,13.81,11.19,25,25,25h302.48c13.81,0,25-11.19,25-25v-407.86"/><path class="cls-18" d="m2268.97,779.06h-302.48c-13.81,0-25,11.19-25,25v263.57h352.48v-263.57c0-13.81-11.19-25-25-25Z"/><line class="cls-2" x1="2025.5" y1="875.25" x2="2025.5" y2="943.53"/><line class="cls-2" x1="2025.5" y1="1164.23" x2="2025.5" y2="1239.42"/><polyline class="_Í_ÎûòÌîΩ_Ïä_ÌÉÄÏù_" points="328.95 1445.92 328.95 1001.39 781.41 1001.39 781.41 1445.92"/><path class="cls-42" d="m789.79,1515.68h-470.24v-61.39c0-4.54,3.68-8.22,8.22-8.22h453.8c4.54,0,8.22,3.68,8.22,8.22v61.39Z"/><rect class="cls-4" x="398.43" y="1150.19" width="313.24" height="226.25"/><polygon class="cls-50" points="398.57 1176.32 381.15 1176.32 381.15 1393.87 703.1 1393.87 703.1 1376.45 398.57 1376.45 398.57 1176.32"/><rect class="cls-35" x="398.43" y="1150.19" width="313.24" height="13.06"/><path class="cls-18" d="m789.79,1515.68h-470.24v-61.39c0-4.54,3.68-8.22,8.22-8.22h453.8c4.54,0,8.22,3.68,8.22,8.22v61.39Z"/><rect class="cls-18" x="398.43" y="1150.19" width="313.24" height="226.25"/><circle class="cls-22" cx="703.3" cy="1072.21" r="9"/><circle class="cls-58" cx="633.79" cy="1072.21" r="9"/><circle class="cls-18" cx="633.79" cy="1072.21" r="9"/><circle class="cls-18" cx="703.3" cy="1072.21" r="9"/><rect class="cls-13" x="398.56" y="1063.21" width="150" height="18" rx="9" ry="9"/><rect class="cls-13" x="480.05" y="1201.66" width="150" height="18" rx="9" ry="9"/><path class="cls-4" d="m796.36,993.55h-482.55c-1.04,0-1.88.84-1.88,1.88v14.1h486.31v-14.1c0-1.04-.84-1.88-1.88-1.88Z"/><path class="cls-15" d="m2468.72,1393.58c0,39.96-11.77,87.05-47.09,109.52h-44.12c-35.32-22.48-47.09-69.57-47.09-109.52"/><line class="cls-3" x1="2467.2" y1="1418.2" x2="2414.49" y2="1418.2"/><line class="cls-3" x1="2436.79" y1="1434.43" x2="2383.81" y2="1434.43"/><line class="cls-3" x1="2398.26" y1="1462.43" x2="2343.83" y2="1462.43"/><line class="cls-3" x1="2418.42" y1="1478.31" x2="2380.42" y2="1478.31"/><line class="cls-18" x1="2377.43" y1="1368.25" x2="2377.43" y2="1254.62"/><line class="cls-18" x1="2392.95" y1="1368.25" x2="2392.95" y2="1154.38"/><line class="cls-18" x1="2408.46" y1="1368.25" x2="2408.46" y2="1124.77"/><line class="cls-18" x1="2423.98" y1="1368.25" x2="2423.98" y2="1188.39"/><path class="cls-10" d="m2328.41,1092.73c-2.22,50.26,19.15,64.54,64.54,64.54,0-45.39-14.28-66.76-64.54-64.54Z"/><path class="cls-56" d="m2328.41,1092.73c-2.22,50.26,19.15,64.54,64.54,64.54l-64.54-64.54Z"/><line class="cls-18" x1="2351.05" y1="1115.37" x2="2392.95" y2="1157.27"/><path class="cls-10" d="m2328.41,1210.89c-1.69,38.17,14.54,49.02,49.02,49.02,0-34.47-10.85-50.71-49.02-49.02Z"/><path class="cls-56" d="m2328.41,1210.83c-1.69,38.17,14.54,49.02,49.02,49.02l-49.02-49.02Z"/><line class="cls-18" x1="2345.61" y1="1228.08" x2="2377.43" y2="1259.91"/><path class="cls-10" d="m2473.01,1063.17c2.22,50.26-19.15,64.54-64.54,64.54,0-45.39,14.28-66.76,64.54-64.54Z"/><path class="cls-56" d="m2473.01,1063.17c2.22,50.26-19.15,64.54-64.54,64.54l64.54-64.54Z"/><line class="cls-18" x1="2450.36" y1="1085.82" x2="2408.46" y2="1127.72"/><path class="cls-10" d="m2473.54,1138.83c1.71,38.59-14.7,49.56-49.56,49.56,0-34.86,10.97-51.27,49.56-49.56Z"/><path class="cls-56" d="m2473.54,1138.83c1.71,38.59-14.7,49.56-49.56,49.56l49.56-49.56Z"/><line class="cls-18" x1="2456.16" y1="1156.22" x2="2423.98" y2="1188.39"/><path class="cls-10" d="m2473.54,1236.59c1.71,38.59-14.7,49.56-49.56,49.56,0-34.85,10.97-51.27,49.56-49.56Z"/><path class="cls-56" d="m2473.54,1236.59c1.71,38.59-14.7,49.56-49.56,49.56l49.56-49.56Z"/><line class="cls-18" x1="2456.16" y1="1253.98" x2="2423.98" y2="1286.15"/><path class="cls-15" d="m2322.09,1368.25h155.54c1.18,0,2.14.96,2.14,2.14v21.05c0,1.18-.96,2.14-2.14,2.14h-155.54c-1.18,0-2.14-.96-2.14-2.14v-21.05c0-1.18.96-2.14,2.14-2.14Z"/><path class="cls-10" d="m2370.94,1173.36c-1.29,29.22,11.13,37.53,37.53,37.53,0-26.39-8.3-38.82-37.53-37.53Z"/><path class="cls-56" d="m2370.94,1173.36c-1.29,29.22,11.13,37.53,37.53,37.53l-37.53-37.53Z"/><line class="cls-18" x1="2384.11" y1="1186.53" x2="2408.46" y2="1210.89"/><path class="cls-10" d="m2343.93,1290.6c-1.69,38.17,14.54,49.02,49.02,49.02,0-34.47-10.85-50.71-49.02-49.02Z"/><path class="cls-56" d="m2343.93,1290.6c-1.69,38.17,14.54,49.02,49.02,49.02l-49.02-49.02Z"/><line class="cls-18" x1="2361.13" y1="1307.8" x2="2392.95" y2="1339.62"/><path class="cls-56" d="m2330.37,1393.58h-8.32c-1.18,0-2.14-.96-2.14-2.14v-21.05c0-1.18.96-2.14,2.14-2.14h32.56v25.33s114.06,0,114.06,0c0,3.83-.11,7.73-.34,11.67h-113.72s-5.46,48.82,36.04,97.85h-13.19c-35.32-22.48-47.09-69.57-47.09-109.52Z"/><rect class="_Í_ÎûòÌîΩ_Ïä_ÌÉÄÏù_" x="1673.09" y="834.08" width="239.21" height="159.47" rx="11.96" ry="11.96"/><path class="cls-48" d="m1900.34,981.58h-215.29c-6.6,0-11.96-5.35-11.96-11.96v11.97c0,6.61,5.36,11.96,11.96,11.96h215.29c6.6,0,11.96-5.35,11.96-11.96v-11.97c0,6.61-5.36,11.96-11.96,11.96Z"/><rect class="cls-60" x="1697.02" y="866" width="135.5" height="103.62" rx="11.96" ry="11.96"/><circle class="cls-28" cx="1872.42" cy="949.69" r="11.96"/><path class="cls-47" d="m1860.13,949.69c0-1.2.23-2.33.56-3.43-4.93,1.48-8.54,6-8.54,11.4,0,6.61,5.36,11.96,11.96,11.96,5.4,0,9.92-3.61,11.4-8.53-1.09.33-2.22.56-3.42.56-6.6,0-11.96-5.35-11.96-11.96Z"/><path class="cls-41" d="m1832.52,957.66v-22.73l-68.93-68.93h-50.02l103.63,103.62h3.36c6.6,0,11.96-5.36,11.96-11.96Z"/><polygon class="cls-41" points="1832.52 913.48 1832.52 896.91 1801.61 866 1785.04 866 1832.52 913.48"/><rect class="cls-18" x="1673.09" y="834.08" width="239.21" height="159.47" rx="11.96" ry="11.96"/><rect class="cls-18" x="1697.02" y="866" width="135.5" height="103.62" rx="11.96" ry="11.96"/><circle class="cls-18" cx="1872.42" cy="949.69" r="11.96"/><rect class="cls-59" x="1860.46" y="879.74" width="23.79" height="13.15" rx="5.5" ry="5.5"/><rect class="cls-26" x="1860.46" y="904.66" width="23.79" height="13.15" rx="5.5" ry="5.5"/><rect class="cls-18" x="1860.46" y="879.74" width="23.79" height="13.15" rx="5.5" ry="5.5"/><rect class="cls-18" x="1860.46" y="904.66" width="23.79" height="13.15" rx="5.5" ry="5.5"/><path class="cls-53" d="m1011.22,1109.78v6.26s-11.47-.46-12.95,11.32c-1.72,13.7-5.82,51.25-5.82,51.25h-46.93l-9.38-68.83h75.08Z"/><polygon class="cls-47" points="936.14 1109.78 945.52 1178.61 951.79 1178.61 942.4 1109.78 936.14 1109.78"/><rect class="cls-28" x="973.66" y="1109.78" width="7.82" height="68.83"/><path class="cls-18" d="m936.14,1109.78l9.39,68.83h46.93s4.11-37.54,5.82-51.25c1.48-11.79,12.95-11.32,12.95-11.32v-6.26h-87.59c-4.89,0-3.13,6.26-3.13,6.26,0,0,2.8,12.52,5.01,20.5,1.25,4.52,2.36,7.65,5.27,7.65h2.24"/><line class="cls-18" x1="958.04" y1="1125.42" x2="970.55" y2="1125.42"/><line class="cls-18" x1="958.04" y1="1137.94" x2="970.55" y2="1137.94"/><line class="cls-18" x1="958.04" y1="1150.45" x2="970.55" y2="1150.45"/><line class="cls-18" x1="958.04" y1="1162.97" x2="970.55" y2="1162.97"/><path class="cls-39" d="m1113.35,1088.13c-1.09-1.74-1.73-3.8-1.73-6.01,0-6.25,5.07-11.32,11.32-11.32s11.32,5.07,11.32,11.32c0,2.26-.66,4.37-1.8,6.14"/><path class="cls-52" d="m1185.39,1110.44v33.95c0,18.76-15.21,33.97-33.97,33.97h-56.61c-18.76,0-33.97-15.21-33.97-33.97v-33.95h124.54Z"/><path class="cls-43" d="m1075.02,1144.39v-33.95h-14.17v33.95c0,18.76,15.21,33.97,33.97,33.97h14.17c-18.76,0-33.97-15.21-33.97-33.97Z"/><path class="cls-52" d="m1185.39,1109.53c-18.38-13.67-37.6-21.76-62.27-21.76s-44.33,8.3-62.62,21.76l.35.9h124.54v-.9Z"/><rect class="cls-28" x="1128.75" y="1110.44" width="22.64" height="67.94"/><path class="cls-28" d="m1151.39,1110.44s-7.69-22.66-28.27-22.66c11.73,0,30.55,4.64,46.41,22.66h-18.14Z"/><path class="cls-18" d="m1185.22,1110.44v33.95c0,18.76-15.21,33.97-33.97,33.97h-56.61c-18.76,0-33.97-15.21-33.97-33.97v-33.95h124.54Z"/><path class="cls-18" d="m1060.33,1109.53c18.29-13.46,38.17-21.76,62.62-21.76s43.89,8.09,62.27,21.76"/><path class="cls-18" d="m1113.18,1088.13c-1.09-1.74-1.73-3.8-1.73-6.01,0-6.25,5.07-11.32,11.32-11.32s11.32,5.07,11.32,11.32c0,2.26-.66,4.37-1.8,6.14"/><path class="cls-18" d="m1038.04,1110.42c6.25,0,11.32,5.07,11.32,11.32"/><line class="cls-18" x1="1060.68" y1="1121.74" x2="1049.36" y2="1121.74"/><path class="cls-18" d="m1207.86,1110.42c-6.25,0-11.32,5.07-11.32,11.32"/><line class="cls-18" x1="1185.22" y1="1121.74" x2="1196.54" y2="1121.74"/><path class="cls-8" d="m1850.84,387.69v230.96h175.82v-230.96h-175.82Zm161.12,216.26h-146.42v-201.55h146.42v201.55Z"/><rect class="cls-18" x="1865.54" y="402.39" width="146.42" height="201.55"/><rect class="cls-18" x="1885.76" y="422.61" width="105.98" height="161.12"/><rect class="cls-19" x="1865.54" y="402.39" width="146.42" height="201.55"/><rect class="cls-11" x="1885.76" y="422.61" width="105.98" height="161.12"/><rect class="cls-21" x="1850.84" y="618.65" width="175.82" height="11.03"/><rect class="cls-21" x="1865.54" y="402.39" width="146.42" height="9.19"/><rect class="cls-56" x="1885.76" y="422.61" width="105.98" height="7.05"/><rect class="cls-32" x="1897.43" y="519.53" width="22.84" height="13.24"/><rect class="cls-23" x="1927.29" y="519.53" width="22.84" height="13.24"/><rect class="cls-38" x="1957.03" y="519.53" width="22.84" height="13.24"/><line class="cls-18" x1="1904.4" y1="526.15" x2="1913.31" y2="526.15"/><line class="cls-18" x1="1934.25" y1="526.15" x2="1943.16" y2="526.15"/><line class="cls-18" x1="1963.99" y1="526.15" x2="1972.9" y2="526.15"/><line class="cls-18" x1="1897.43" y1="541.43" x2="1979.86" y2="541.43"/><line class="cls-18" x1="1897.43" y1="548.69" x2="1979.86" y2="548.69"/><line class="cls-18" x1="1897.43" y1="555.94" x2="1938.77" y2="555.94"/><line class="cls-18" x1="1897.21" y1="488.58" x2="1934.09" y2="488.58"/><line class="cls-18" x1="1897.21" y1="495.84" x2="1934.09" y2="495.84"/><line class="cls-18" x1="1897.21" y1="503.1" x2="1934.09" y2="503.1"/><line class="cls-18" x1="1897.21" y1="510.36" x2="1926.29" y2="510.36"/><line class="cls-18" x1="1943.21" y1="488.58" x2="1980.09" y2="488.58"/><line class="cls-18" x1="1943.21" y1="495.84" x2="1980.09" y2="495.84"/><line class="cls-18" x1="1943.21" y1="503.1" x2="1980.09" y2="503.1"/><line class="cls-18" x1="1943.21" y1="510.36" x2="1972.29" y2="510.36"/><path class="cls-38" d="m1919.03,450.17h-17.25c-.38,0-.69-.3-.69-.69v-9.89l-4.9,3.03v21.08c0,1.35,1.1,2.46,2.45,2.46h20.4c1.35,0,2.46-1.1,2.46-2.46v-11.08c0-1.35-1.1-2.46-2.46-2.46Zm-2.5,11.89c0,.38-.31.68-.69.68h-14.06c-.38,0-.69-.3-.69-.68v-7.78c0-.37.31-.68.69-.68h14.06c.38,0,.69.31.69.68v7.78Z"/><path class="cls-38" d="m1978.73,450.17h-20.4c-1.36,0-2.45,1.11-2.45,2.46v11.08c0,1.35,1.1,2.46,2.45,2.46h17.26c.38,0,.69.31.69.69v9.88l4.91-3.04v-21.07c0-1.35-1.1-2.46-2.45-2.46Zm-2.46,11.89c0,.38-.3.68-.69.68h-14.06c-.38,0-.69-.3-.69-.68v-7.78c0-.37.31-.68.69-.68h14.06c.38,0,.69.31.69.68v7.78Z"/><path class="cls-38" d="m1945.71,450.17h-17.26c-.38,0-.69-.3-.69-.69v-9.89l-4.91,3.03v21.08c0,1.35,1.1,2.46,2.46,2.46h20.4c1.35,0,2.45-1.1,2.45-2.46v-11.08c0-1.35-1.1-2.46-2.45-2.46Zm-2.51,11.89c0,.38-.31.68-.69.68h-14.06c-.38,0-.69-.3-.69-.68v-7.78c0-.37.31-.68.69-.68h14.06c.38,0,.69.31.69.68v7.78Z"/><path class="cls-38" d="m1952.02,455.8c-1.37,0-2.48,1.12-2.48,2.49s1.11,2.47,2.48,2.47,2.48-1.11,2.48-2.47-1.11-2.49-2.48-2.49Z"/><rect class="cls-21" x="472.76" y="584.88" width="433.25" height="12.41"/><path class="cls-4" d="m535.47,584.88v27.17c0,.62-.5,1.11-1.11,1.11h-18.09c-.62,0-1.11-.5-1.11-1.11v-27.17"/><path class="cls-4" d="m840.85,584.88v27.17c0,.62.5,1.11,1.11,1.11h18.09c.62,0,1.11-.5,1.11-1.11v-27.17"/><path class="_Í_ÎûòÌîΩ_Ïä_ÌÉÄÏù_" d="m472.76,565.12h434.09c.61,0,1.11.5,1.11,1.11v17.53c0,.61-.5,1.11-1.11,1.11h-434.09c-.61,0-1.11-.5-1.11-1.11v-17.53c0-.61.5-1.11,1.11-1.11Z"/><path class="cls-56" d="m471.65,575v7.03c0,.62.5,1.11,1.11,1.11h42.4v14.14h20.31v-14.14h305.38v14.14h20.31v-14.14h45.68c.62,0,1.11-.5,1.11-1.11v-7.03h-436.31Z"/><path class="cls-9" d="m812,509.85s15.21,5.84,26.52-5.47c11.31-11.31,7.62-28.67,7.62-28.67,0,0-12.13-2.57-22.71,3.18"/><path class="cls-9" d="m808.95,509.85s-15.21,5.84-26.52-5.47c-11.31-11.31-7.62-28.67-7.62-28.67,0,0,12.13-2.57,22.71,3.18"/><polygon class="cls-7" points="847.99 511.36 772.99 511.36 776.37 525.56 844.62 525.56 847.99 511.36"/><polygon class="cls-7" points="830.31 564.48 839.57 525.56 781.42 525.56 790.67 564.48 830.31 564.48"/><polygon class="cls-56" points="781.42 525.56 839.57 525.56 836.96 536.53 784.03 536.53 781.42 525.56"/><path class="cls-9" d="m810.49,463.08s-14.88,9.68-14.88,25.67,14.88,22.61,14.88,22.61c0,0,14.88-6.63,14.88-22.61s-14.88-25.67-14.88-25.67Z"/><path class="cls-56" d="m846.14,475.71s-12.13-2.57-22.71,3.18h0c-4.03-10.02-12.93-15.81-12.93-15.81,0,0,9.32,25.12,0,48.28,0,0,.91-.41,2.27-1.25,3.21.99,15.95,4.09,25.75-5.72,11.31-11.31,7.62-28.67,7.62-28.67Z"/><polygon class="cls-56" points="847.78 511.41 831.38 511.41 828.6 525.61 844.4 525.61 847.78 511.41"/><line class="cls-1" x1="774.43" y1="517.4" x2="803.46" y2="517.4"/><line class="cls-1" x1="838.19" y1="531.34" x2="813.49" y2="531.34"/><line class="cls-1" x1="819.58" y1="541.23" x2="802.39" y2="541.23"/><line class="cls-1" x1="788.3" y1="554.51" x2="814.33" y2="554.51"/><path class="cls-47" d="m769.95,666.94c0-2.57,2.09-4.66,4.66-4.66h34.15c2.57,0,4.66,2.08,4.66,4.66v40.36c0,2.57-2.09,4.66-4.66,4.66h-34.15c-2.57,0-4.66-2.08-4.65-4.66v-40.36Z"/><path class="cls-39" d="m785.47,609.51c0-1.72,1.39-3.1,3.11-3.11h6.21c1.71,0,3.1,1.39,3.1,3.11v24.84c0,1.71-1.39,3.1-3.11,3.1h-6.21c-1.72,0-3.11-1.39-3.11-3.11v-24.83Z"/><path class="cls-51" d="m788.58,637.45h6.21s.01,0,.02,0h-2.19c-1.72,0-3.11-1.39-3.11-3.11v-24.83c0-1.71,1.39-3.1,3.1-3.1h-4.03c-1.72,0-3.1,1.39-3.11,3.11v24.83c0,1.72,1.39,3.11,3.11,3.11Z"/><path class="cls-44" d="m774.61,662.29c-2.57,0-4.66,2.09-4.66,4.66v34.19l38.84-38.84s-.02,0-.04,0h-34.15Z"/><line class="cls-18" x1="791.68" y1="662.29" x2="791.68" y2="637.45"/><path class="cls-18" d="m769.95,666.94c0-2.57,2.09-4.66,4.66-4.66h34.15c2.57,0,4.66,2.08,4.66,4.66v40.36c0,2.57-2.09,4.66-4.66,4.66h-34.15c-2.57,0-4.66-2.08-4.65-4.66v-40.36Z"/><path class="cls-18" d="m785.47,609.51c0-1.72,1.39-3.1,3.11-3.11h6.21c1.71,0,3.1,1.39,3.1,3.11v24.84c0,1.71-1.39,3.1-3.11,3.1h-6.21c-1.72,0-3.11-1.39-3.11-3.11v-24.83Z"/><line class="cls-18" x1="797.9" y1="699.54" x2="797.89" y2="674.7"/><line class="cls-18" x1="785.48" y1="699.54" x2="785.47" y2="674.7"/><path class="cls-39" d="m717.25,612.51c0-3.36,2.72-6.08,6.08-6.08h0c3.36,0,6.08,2.72,6.08,6.08v24.31c0,3.36-2.72,6.08-6.08,6.08h0c-3.35,0-6.08-2.72-6.08-6.08v-24.31Z"/><path class="cls-51" d="m723.12,642.85c-1.57-1.1-2.61-2.92-2.61-4.98v-24.32c0-3.36,2.72-6.08,6.08-6.08.09,0,.16.02.25.03-.98-.69-2.18-1.1-3.47-1.1-3.36,0-6.08,2.72-6.08,6.08v24.31c0,3.27,2.59,5.92,5.83,6.05Z"/><path class="cls-47" d="m705.1,714.71v-30.4c0-10.07,8.16-18.24,18.24-18.24h0c10.07,0,18.24,8.17,18.24,18.24v30.4s-36.47,0-36.47,0Z"/><path class="cls-44" d="m705.1,684.31v.96s18.24,18.24,18.24,18.24v-37.41s0-.02,0-.02c-10.07,0-18.23,8.17-18.23,18.24Z"/><path class="cls-18" d="m717.26,612.52c0-3.36,2.72-6.08,6.08-6.08h0c3.36,0,6.08,2.72,6.08,6.08v24.31c0,3.36-2.72,6.08-6.08,6.08h0c-3.35,0-6.08-2.72-6.08-6.08v-24.31Z"/><line class="cls-18" x1="723.33" y1="642.91" x2="723.33" y2="703.51"/><path class="cls-18" d="m705.1,714.71v-30.4c0-10.07,8.16-18.24,18.24-18.24h0c10.07,0,18.24,8.17,18.24,18.24v30.4s-36.47,0-36.47,0Z"/><path class="cls-39" d="m648.82,612.57c0-3.41,2.76-6.17,6.16-6.16h0c3.41,0,6.17,2.76,6.16,6.16v30.83c0,3.4-2.76,6.16-6.17,6.16h0c-3.41,0-6.17-2.76-6.17-6.17v-30.82Z"/><path class="cls-51" d="m654.6,649.53c-.92-1.08-1.49-2.45-1.49-3.98v-30.82c0-3.4,2.76-6.16,6.17-6.16.13,0,.25.03.38.04-1.13-1.33-2.8-2.19-4.68-2.19-3.4,0-6.16,2.76-6.16,6.16v30.83c0,3.28,2.56,5.93,5.79,6.13Z"/><path class="cls-18" d="m648.82,612.57c0-3.4,2.76-6.16,6.16-6.16h0c3.41,0,6.17,2.76,6.17,6.17v30.83c0,3.4-2.76,6.16-6.17,6.16h0c-3.41,0-6.17-2.76-6.17-6.17v-30.82Z"/><line class="cls-18" x1="654.98" y1="649.56" x2="654.98" y2="683.47"/><line class="cls-18" x1="679.64" y1="701.97" x2="630.32" y2="701.97"/><line class="cls-18" x1="673.47" y1="692.72" x2="636.49" y2="692.72"/><line class="cls-18" x1="667.31" y1="683.47" x2="642.65" y2="683.47"/><line class="cls-18" x1="673.48" y1="711.22" x2="636.48" y2="711.22"/><line class="cls-18" x1="667.31" y1="720.47" x2="642.65" y2="720.46"/><path class="cls-34" d="m580.55,612.51c0-3.35,2.72-6.08,6.08-6.08h0c3.36,0,6.08,2.72,6.08,6.08v21.28c0,3.36-2.72,6.08-6.08,6.08h0c-3.36,0-6.08-2.72-6.08-6.08v-21.28Z"/><path class="cls-49" d="m586.42,639.81c-1.57-1.1-2.6-2.91-2.6-4.98v-21.28c0-3.35,2.72-6.08,6.08-6.08.08,0,.16.02.25.03-.99-.69-2.18-1.1-3.48-1.1-3.36,0-6.08,2.72-6.08,6.08v21.28c0,3.27,2.59,5.92,5.83,6.05Z"/><line class="cls-18" x1="586.63" y1="639.87" x2="586.63" y2="724.96"/><path class="cls-18" d="m580.55,612.51c0-3.35,2.72-6.08,6.08-6.08h0c3.36,0,6.08,2.72,6.08,6.08v21.28c0,3.36-2.72,6.08-6.08,6.08h0c-3.36,0-6.08-2.72-6.08-6.08v-21.28Z"/><path class="cls-18" d="m565.36,703.65c0,11.75,9.53,21.28,21.28,21.28,11.75,0,21.28-9.53,21.27-21.28,0-3.07-.64-5.98-1.81-8.61h0l-19.46-45.4-19.46,45.4h0c-1.17,2.63-1.81,5.54-1.81,8.61Z"/><path class="cls-18" d="m574.47,703.65c0,11.75,5.44,21.27,12.16,21.27,6.72,0,12.16-9.52,12.16-21.28,0-3.07-.37-5.97-1.04-8.61h0l-11.12-45.4-11.12,45.4h0c-.67,2.63-1.04,5.54-1.04,8.61Z"/><line class="cls-18" x1="586.63" y1="606.44" x2="586.63" y2="584.88"/><line class="cls-18" x1="654.98" y1="606.44" x2="654.98" y2="584.88"/><line class="cls-18" x1="723.33" y1="606.44" x2="723.33" y2="584.88"/><line class="cls-18" x1="791.68" y1="606.44" x2="791.68" y2="584.88"/><path class="cls-29" d="m572.54,506.27h32.43c9.63,0,17.96,6.69,20.05,16.08l9.5,42.76h-91.54l9.5-42.76c2.09-9.4,10.42-16.08,20.05-16.08Z"/><path class="cls-25" d="m605.1,535.7c0,9.03-7.32,16.34-16.35,16.34s-16.35-7.32-16.35-16.34,7.32-16.35,16.35-16.35,16.35,7.32,16.35,16.35Z"/><path class="cls-33" d="m572.38,535.7c0-2.83.72-5.5,1.99-7.82-5.08,2.77-8.53,8.16-8.53,14.36,0,9.03,7.32,16.34,16.35,16.34,6.2,0,11.59-3.45,14.36-8.53-2.32,1.27-4.99,1.99-7.82,1.99-9.03,0-16.35-7.32-16.35-16.34Z"/><path class="cls-52" d="m631.93,474.54c-1.28-1.28-3.35-1.28-4.62,0l-5.58,5.58h-65.97l-5.58-5.58c-1.28-1.28-3.35-1.28-4.62,0-1.28,1.28-1.28,3.35,0,4.62l6.61,6.61.02-.03c.59.56,1.38.91,2.25.91h31.05v19.62h6.54v-19.62h31.06c.87,0,1.65-.35,2.24-.9h0s6.61-6.6,6.61-6.6c1.28-1.28,1.28-3.35,0-4.62Z"/><path class="cls-18" d="m572.54,506.27h32.43c9.63,0,17.96,6.69,20.05,16.08l9.5,42.76h-91.54l9.5-42.76c2.09-9.4,10.42-16.08,20.05-16.08Z"/><path class="cls-18" d="m605.1,535.7c0,9.03-7.32,16.34-16.35,16.34s-16.35-7.32-16.35-16.34,7.32-16.35,16.35-16.35,16.35,7.32,16.35,16.35Z"/><line class="cls-18" x1="588.76" y1="535.7" x2="600.32" y2="524.14"/><path class="cls-18" d="m631.93,474.54c-1.28-1.28-3.35-1.27-4.62,0l-5.58,5.58h-65.97l-5.58-5.58c-1.28-1.27-3.35-1.28-4.62,0-1.28,1.28-1.28,3.35,0,4.62l6.61,6.61.02-.03c.59.56,1.38.91,2.25.91h31.05v19.62h6.54v-19.62h31.06c.87,0,1.65-.35,2.24-.9h0s6.61-6.6,6.61-6.6c1.28-1.28,1.28-3.35,0-4.62Z"/><path class="cls-63" d="m733.59,556.68l-6.62-26.45h-65.41l-6.44,25.76h0c-1.18,4.72-.37,9.13,6.44,9.13h65.55c4.22,0,8.05-2.14,6.48-8.44Z"/><polyline class="cls-45" points="663.17 477.89 665.92 530.23 722.62 530.23 725.37 477.89"/><polygon class="cls-53" points="661.56 447.37 663.17 477.89 725.37 477.89 726.98 447.37 661.56 447.37"/><circle class="cls-46" cx="694.27" cy="547.67" r="8.72"/><path class="cls-60" d="m685.61,547.67c0-1.28.29-2.48.78-3.58-3.03,1.37-5.15,4.4-5.15,7.94,0,4.82,3.91,8.72,8.72,8.72,3.54,0,6.57-2.12,7.94-5.15-1.09.49-2.3.78-3.57.78-4.82,0-8.72-3.91-8.72-8.72Z"/><path class="cls-53" d="m723.54,512.78h7.8c9.63,0,17.44-7.81,17.44-17.44v-17.44c0-9.64-7.81-17.44-17.44-17.44h-5.04l-.46,8.72h5.5c4.81,0,8.72,3.91,8.72,8.72v17.44c0,4.81-3.91,8.72-8.72,8.72h-7.34l-.46,8.72Z"/><path class="cls-63" d="m661.56,447.37v-6.55c0-3.61,2.93-6.54,6.54-6.54h52.34c3.61,0,6.54,2.93,6.54,6.54v6.55"/><rect class="cls-28" x="700.81" y="447.37" width="10.9" height="82.86"/><path class="cls-18" d="m733.59,556.68l-6.62-26.45h-65.41l-6.44,25.76h0c-1.18,4.72-.37,9.13,6.44,9.13h65.55c4.22,0,8.05-2.14,6.48-8.44Z"/><polyline class="cls-18" points="663.17 477.89 665.92 530.23 722.62 530.23 725.37 477.89"/><polygon class="cls-18" points="661.56 447.37 663.17 477.89 725.37 477.89 726.98 447.37 661.56 447.37"/><circle class="cls-18" cx="694.27" cy="547.67" r="8.72"/><path class="cls-18" d="m726.29,460.45h5.04c9.63,0,17.44,7.81,17.44,17.44v17.44c0,9.63-7.81,17.44-17.44,17.44h-7.8"/><path class="cls-18" d="m724,504.06h7.34c4.81,0,8.72-3.91,8.72-8.72v-17.44c0-4.81-3.91-8.72-8.72-8.72h-5.5"/><path class="cls-18" d="m661.56,447.37v-6.55c0-3.61,2.93-6.54,6.54-6.54h52.34c3.61,0,6.54,2.93,6.54,6.54v6.55"/><path class="cls-39" d="m474.27,676.67l-7.82,7.3c-2.54,2.27-5.27,3.93-7.86,3.93-8.68,0-15.71-7.03-15.71-15.71,0-4.69,2.1-8.86,5.36-11.73l29.06-29.74c1.34-1.06,3.01-1.73,4.85-1.73h47.13c4.34,0,7.86,3.52,7.86,7.86v58.92c0,17.35-14.07,31.42-31.42,31.42-17.35,0-31.42-14.07-31.42-31.42l-.04-19.09Z"/><path class="cls-54" d="m480.17,671.25l.04,28.44c0,9.63,4.34,18.23,11.16,23.99-10.12-5.22-17.05-15.75-17.05-27.92l-.02-19.01,5.88-5.49Z"/><path class="cls-54" d="m535.19,632.92h-47.13c-1.84,0-3.52.66-4.85,1.72l-29.06,29.75c-3.26,2.88-5.36,7.04-5.36,11.73,0,4.17,1.64,7.95,4.29,10.76-5.95-2.24-10.18-7.96-10.18-14.69,0-4.69,2.1-8.86,5.36-11.73l29.06-29.74c1.34-1.06,3.01-1.73,4.85-1.73h47.13c2.94,0,5.47,1.63,6.82,4.02-.31-.04-.61-.09-.92-.09Z"/><path class="cls-36" d="m529.29,628.98l3.93-15.71c0-2.17-1.76-3.93-3.93-3.93h-7.86c-2.17,0-3.93,1.76-3.93,3.93v15.71"/><path class="cls-18" d="m474.25,672.8l.05,23.01c0,17.35,14.07,31.42,31.42,31.42,17.36,0,31.42-14.07,31.42-31.42v-58.92c0-4.34-3.52-7.86-7.86-7.86h-47.13c-1.84,0-3.51.66-4.85,1.72l-29.06,29.75c-3.26,2.88-5.36,7.04-5.36,11.73,0,8.68,7.03,15.71,15.71,15.71,2.59,0,5.32-1.65,7.86-3.93l7.82-7.3"/><path class="cls-18" d="m529.29,629.04l3.93-15.71c0-2.17-1.76-3.93-3.93-3.93h-7.86c-2.17,0-3.93,1.76-3.93,3.93v15.71"/><line class="cls-18" x1="490.51" y1="723.3" x2="537.18" y2="676.63"/><line class="cls-18" x1="474.53" y1="699.18" x2="536.37" y2="637.35"/><line class="cls-18" x1="446.82" y1="682.63" x2="501.81" y2="629.04"/><line class="cls-18" x1="528.1" y1="717.85" x2="459.37" y2="649.12"/><line class="cls-18" x1="537.15" y1="682.63" x2="482.16" y2="629.04"/><path class="cls-39" d="m458.66,663.01l-9.38,5.13c-3.02,1.57-6.08,2.5-8.59,1.86-8.41-2.15-13.48-10.71-11.32-19.12,1.16-4.54,4.23-8.06,8.1-10.04l35.53-21.61c1.56-.7,3.34-.93,5.13-.47l45.66,11.69c4.2,1.08,6.74,5.36,5.66,9.56l-14.61,57.08c-4.3,16.81-21.42,26.95-38.23,22.65s-26.95-21.42-22.65-38.23l4.7-18.5Z"/><path class="cls-54" d="m465.72,659.22l-7.02,27.56c-2.39,9.32-.32,18.74,4.86,26.01-8.51-7.56-12.62-19.49-9.6-31.28l4.7-18.42,7.06-3.86Z"/><path class="cls-54" d="m528.53,635.73l-45.66-11.69c-1.78-.46-3.57-.23-5.13.46l-35.53,21.61c-3.87,1.98-6.94,5.49-8.1,10.04-1.03,4.04-.39,8.1,1.48,11.49-5.2-3.64-7.89-10.24-6.22-16.76,1.16-4.54,4.23-8.06,8.1-10.04l35.53-21.61c1.56-.7,3.35-.93,5.13-.47l45.66,11.69c2.85.73,4.89,2.94,5.61,5.59-.29-.11-.56-.24-.87-.32Z"/><path class="cls-36" d="m523.79,630.46l7.7-14.24c.54-2.1-.73-4.24-2.83-4.78l-7.61-1.95c-2.1-.54-4.24.73-4.78,2.83l-3.89,15.22"/><path class="cls-18" d="m459.6,659.26l-5.65,22.31c-4.3,16.81,5.84,33.93,22.65,38.23s33.93-5.84,38.23-22.65l14.61-57.08c1.08-4.2-1.46-8.48-5.66-9.56l-45.66-11.69c-1.78-.46-3.57-.23-5.13.47l-35.53,21.61c-3.87,1.98-6.94,5.49-8.1,10.04-2.15,8.41,2.92,16.96,11.32,19.12,2.5.64,5.57-.28,8.59-1.86l9.38-5.13"/><path class="cls-18" d="m523.77,630.51l7.7-14.25c.54-2.1-.73-4.24-2.83-4.78l-7.61-1.95c-2.1-.54-4.24.73-4.78,2.83l-3.9,15.22"/><line class="cls-18" x1="462.83" y1="712.21" x2="519.61" y2="678.57"/><line class="cls-18" x1="453.33" y1="684.88" x2="528.57" y2="640.31"/><line class="cls-18" x1="430.59" y1="661.97" x2="497.14" y2="623.7"/><line class="cls-18" x1="500.59" y1="716.25" x2="451.05" y2="632.63"/><line class="cls-18" x1="518.09" y1="684.37" x2="478.11" y2="618.82"/><path class="cls-52" d="m1261.58,1116.78c20.61,0,41.22,28.87,41.22,48.09,0,10.3-5.81,13.74-13.74,13.74h-54.97c-8.72,0-13.74-3.44-13.74-13.74,0-18.67,20.61-48.09,41.22-48.09Z"/><path class="cls-28" d="m1262.6,1117.62c14.32,9.42,24.72,32.29,24.72,47.24,0,10.3-5.81,13.74-13.74,13.74h10.32c7.92,0,13.74-3.44,13.74-13.74,0-17.29-16.68-42.38-35.04-47.24Z"/><path class="cls-43" d="m1242.69,1176.89c-8.72,0-13.74-3.44-13.74-13.74,0-15.98,15.1-39.82,32.38-46.36-20.53.24-40.97,29.49-40.97,48.08,0,10.3,5.02,13.74,13.74,13.74h54.97c3.04,0,5.77-.51,7.97-1.72h-54.35Z"/><polyline class="cls-52" points="1294.49 1140.06 1313.11 1130.52 1323.41 1137.39 1301.16 1154.56"/><circle class="cls-39" cx="1261.58" cy="1109.9" r="5.58"/><path class="cls-18" d="m1261.58,1116.78c20.61,0,41.22,28.87,41.22,48.09,0,10.3-5.81,13.74-13.74,13.74h-54.97c-8.72,0-13.74-3.44-13.74-13.74,0-18.67,20.61-48.09,41.22-48.09Z"/><line class="cls-18" x1="1291.59" y1="1133.95" x2="1233.13" y2="1133.95"/><polyline class="cls-18" points="1294.49 1140.06 1313.11 1130.52 1323.41 1137.39 1301.16 1154.56"/><path class="cls-18" d="m1290.83,1134.78c3.23-5.24,5.1-11.41,5.1-18.01,0-18.97-15.38-34.35-34.35-34.35s-34.36,15.38-34.36,34.35c0,6.66,1.89,12.87,5.17,18.13"/><circle class="cls-18" cx="1261.58" cy="1109.9" r="6.85"/><rect class="_Í_ÎûòÌîΩ_Ïä_ÌÉÄÏù_" x="1494.68" y="1088.86" width="356.81" height="96.04"/><polyline class="cls-4" points="1494.68 1184.9 1494.68 1445.66 1851.49 1445.66 1851.49 1184.9"/><polyline class="_Í_ÎûòÌîΩ_Ïä_ÌÉÄÏù_" points="1494.68 1445.66 1494.68 1500.56 1851.49 1500.56 1851.49 1445.66"/><rect class="cls-4" x="1494.69" y="1171.25" width="356.81" height="13.65"/><polyline class="cls-4" points="1494.69 1479.99 1494.69 1500.56 1851.49 1500.56 1851.49 1479.99"/><rect class="cls-61" x="1549.58" y="1239.81" width="247.01" height="150.96" rx="27.45" ry="27.45"/><circle class="cls-39" cx="1734.83" cy="1136.89" r="6.86"/><circle class="cls-39" cx="1789.72" cy="1136.89" r="6.86"/><polygon class="cls-40" points="1796.59 1328.07 1796.59 1281.38 1755.02 1239.81 1708.33 1239.81 1796.59 1328.07"/><path class="cls-40" d="m1613.35,1239.81l150.96,150.96h4.83c15.16,0,27.45-12.3,27.45-27.45v-1.74l-121.77-121.77h-61.46Z"/><rect class="cls-18" x="1494.69" y="1088.86" width="356.81" height="96.04"/><polyline class="cls-18" points="1494.69 1184.9 1494.69 1445.66 1851.49 1445.66 1851.49 1184.9"/><polyline class="cls-18" points="1494.69 1445.66 1494.69 1500.56 1851.49 1500.56 1851.49 1445.66"/><rect class="cls-18" x="1549.58" y="1239.81" width="247.01" height="150.96" rx="27.45" ry="27.45"/><circle class="cls-18" cx="1734.83" cy="1136.89" r="6.86"/><circle class="cls-18" cx="1789.73" cy="1136.89" r="6.86"/><line class="cls-18" x1="1549.58" y1="1143.75" x2="1604.48" y2="1143.75"/><path class="cls-21" d="m2150.7,166.92c-43.12,0-78.49-33.19-81.96-75.41-.19,2.25-.28,4.53-.28,6.83,0,45.42,36.82,82.25,82.25,82.25s82.25-36.82,82.25-82.25c0-2.3-.1-4.58-.28-6.83-3.47,42.23-38.84,75.41-81.96,75.41Z"/><circle class="cls-14" cx="2150.7" cy="84.25" r="82.25" transform="translate(1947.65 2227) rotate(-86.83)"/><circle class="_Í_ÎûòÌîΩ_Ïä_ÌÉÄÏù_" cx="2150.7" cy="84.25" r="72.18" transform="translate(1947.65 2227) rotate(-86.83)"/><path class="cls-57" d="m2150.7,21.77c38.23,0,69.52,29.73,72.02,67.33.11-1.6.17-3.22.17-4.85,0-39.87-32.32-72.18-72.18-72.18s-72.18,32.32-72.18,72.18c0,1.63.06,3.25.17,4.85,2.5-37.6,33.78-67.33,72.02-67.33Z"/><polyline class="cls-20" points="2150.7 34.15 2150.7 84.25 2118.38 104.18"/><line class="cls-18" x1="2150.7" y1="20.46" x2="2150.7" y2="26.09"/><line class="cls-18" x1="2150.7" y1="143.43" x2="2150.7" y2="149.07"/><line class="cls-18" x1="2214.78" y1="84.76" x2="2209.15" y2="84.76"/><line class="cls-18" x1="2091.81" y1="84.76" x2="2086.17" y2="84.76"/><line class="cls-18" x1="2095.48" y1="51.81" x2="2100.33" y2="54.68"/><line class="cls-18" x1="2201.3" y1="114.46" x2="2206.15" y2="117.32"/><line class="cls-18" x1="2183.46" y1="29.43" x2="2180.59" y2="34.27"/><line class="cls-18" x1="2120.82" y1="135.25" x2="2117.94" y2="140.1"/><line class="cls-18" x1="2119.88" y1="28.33" x2="2122.59" y2="33.26"/><line class="cls-18" x1="2179.2" y1="136.05" x2="2181.92" y2="140.98"/><line class="cls-18" x1="2207.03" y1="53.74" x2="2202.09" y2="56.46"/><line class="cls-18" x1="2099.31" y1="113.06" x2="2094.38" y2="115.78"/><path class="cls-52" d="m1343.62,1159.05v-4.76c0-34.16,27.69-61.85,61.85-61.85s61.85,27.69,61.85,61.85v4.76"/><path class="cls-28" d="m1405.47,1092.43c-2.03,0-4.03.1-6,.29,30.34,3.02,46.42,29.42,46.42,61.56v4.76h-102.27s116.56,0,116.56,0v-4.76c0-34.16-20.55-61.85-54.71-61.85Z"/><path class="cls-43" d="m1360.29,1149.52c0-25.19,15.07-46.85,36.67-56.49-30.13,4.15-53.34,29.98-53.34,61.25v4.76h16.67v-9.52Z"/><path class="cls-52" d="m1472.08,1159.04l-4.76,11.89c-1.97,4.97-5.57,7.14-9.51,7.14h-104.67c-3.94,0-7.59-3.2-9.51-7.14l-4.76-11.89"/><path class="cls-43" d="m1353.15,1175.7l-4.76-11.89h121.78l1.91-4.76h-133.21l4.76,11.89c1.92,3.94,5.57,7.14,9.51,7.14h1.48c-.55-.75-1.05-1.54-1.46-2.38Z"/><path class="cls-52" d="m1397.37,1092.66c-.9-1.45-1.42-3.16-1.42-4.99,0-5.26,4.26-9.52,9.52-9.52s9.52,4.26,9.52,9.52c0,1.95-.59,3.76-1.59,5.27"/><path class="cls-18" d="m1343.62,1159.05v-4.76c0-34.16,27.69-61.85,61.85-61.85s61.85,27.69,61.85,61.85v4.76"/><line class="cls-18" x1="1334.11" y1="1159.04" x2="1476.84" y2="1159.04"/><path class="cls-18" d="m1472.08,1159.04l-4.76,11.89c-1.97,4.97-5.57,7.14-9.51,7.14h-104.67c-3.94,0-7.59-3.2-9.51-7.14l-4.76-11.89"/><path class="cls-18" d="m1397.37,1092.66c-.9-1.45-1.42-3.16-1.42-4.99,0-5.26,4.26-9.52,9.52-9.52s9.52,4.26,9.52,9.52c0,1.95-.59,3.76-1.59,5.27"/><path class="cls-30" d="m1236.42,913.74l6.52-6.52c3.25,2.65,8.01,2.5,11.04-.53,3.22-3.22,3.22-8.45,0-11.68-4.27-4.26-5.85-2.93-7.3-4.38-1.99-1.98-.84-3.76-4.38-7.3-3.23-3.23-8.46-3.23-11.68,0-3.22,3.22-3.22,8.45,0,11.67.2.2.45.32.67.51l-7.9,7.89"/><path class="cls-24" d="m1178.76,922.48c.71-.71,1.44-1.36,2.21-1.98,13.17-10.97,33.16-10.58,36.75-14.18l.95-.95c.96-.95,2.12-1.55,3.35-1.81l.05-.16c-16.11-28.11-94.58-50.53-129.94,25.57-10.07,22.42,7.36,41.69,29.78,41.69h76.8c-7.22,0-14.44-2.75-19.96-8.26-11.02-11.02-11.02-28.89,0-39.92Z"/><path class="cls-37" d="m1092.13,934.58c33.64-72.38,106.23-55.63,127.11-29.63.84-.67,1.78-1.18,2.78-1.39l.05-.16c-16.11-28.11-94.58-50.53-129.94,25.57-2.47,5.49-3.27,10.79-2.77,15.67.33-3.24,1.22-6.61,2.77-10.06Z"/><path class="cls-24" d="m1235.78,912.98l-7.6-7.61c-1.67-1.67-4-2.27-6.15-1.81-1.23.26-2.4.86-3.35,1.81l-.95.95c-3.6,3.6-23.58,3.21-36.75,14.18-.76.61-1.49,1.27-2.21,1.98-11.02,11.02-11.02,28.89,0,39.92,5.51,5.51,12.73,8.26,19.96,8.26.4,0,.8-.04,1.2-.05,6.82-.29,13.55-3.01,18.76-8.2.74-.74,1.42-1.52,2.06-2.32.14-.17.26-.36.39-.53.45-.59.89-1.17,1.28-1.77,8.33-12.5,9.06-30.99,12.42-34.35l.95-.95c2.62-2.63,2.62-6.88,0-9.5Z"/><path class="cls-37" d="m1184.37,965.2c-11.02-11.02-11.02-28.89,0-39.92.71-.71,1.44-1.36,2.21-1.98,13.17-10.97,33.16-10.58,36.75-14.18l.95-.95c.96-.95,2.12-1.55,3.35-1.81.47-.1.94-.13,1.41-.13l-.87-.87c-1.67-1.67-4-2.27-6.15-1.81-1.23.26-2.4.86-3.35,1.81l-.95.95c-3.6,3.6-23.58,3.21-36.75,14.18-.76.61-1.49,1.27-2.21,1.98-11.02,11.02-11.02,28.89,0,39.92,2.97,2.97,6.44,5.11,10.14,6.47-1.6-1.05-3.12-2.27-4.53-3.67Z"/><path class="cls-31" d="m1250.81,987.39c0,3.09-2.51,5.6-5.6,5.6h-156.93c-3.09,0-5.6-2.51-5.6-5.6h0c0-3.1,2.51-5.6,5.6-5.6h156.93c3.1,0,5.6,2.51,5.6,5.6h0Z"/><path class="cls-27" d="m1178.82,962.4c-11.02-11.02-11.02-28.89,0-39.92.71-.71,1.44-1.36,2.21-1.98,2.3-1.92,4.82-3.48,7.42-4.78-7.54,1.71-16.94,4.3-24.25,10.38-.76.62-1.49,1.28-2.21,1.98-9.27,9.26-10.71,23.35-4.4,34.16h-38.45c-13.01,0-24.32-6.5-29.57-16.32,2.2,14.37,15.94,24.73,32.38,24.73h76.84c-7.22,0-14.44-2.75-19.96-8.26Z"/><path class="cls-18" d="m1236.43,913.79l6.52-6.52c3.25,2.65,8.01,2.5,11.04-.53,3.22-3.23,3.22-8.45,0-11.68-4.27-4.27-5.85-2.93-7.3-4.38-1.99-1.99-.84-3.77-4.38-7.3-3.23-3.23-8.46-3.23-11.68,0-3.22,3.22-3.22,8.45,0,11.67.2.2.45.32.67.5l-7.9,7.89"/><path class="cls-18" d="m1178.76,962.46c11.02,11.02,28.89,11.02,39.91,0,.74-.74,1.42-1.51,2.06-2.31.14-.18.26-.36.39-.54.45-.58.89-1.17,1.28-1.77,8.33-12.5,9.06-30.99,12.42-34.35l.95-.95c2.62-2.63,2.62-6.88,0-9.5l-7.6-7.6c-2.63-2.63-6.88-2.63-9.51,0l-.95.95c-3.6,3.6-23.58,3.21-36.75,14.18-.76.62-1.49,1.28-2.21,1.98-11.02,11.02-11.02,28.89,0,39.91Z"/><path class="cls-18" d="m1222.08,903.46c-16.11-28.11-94.58-50.53-129.94,25.57-10.07,22.42,7.36,41.69,29.78,41.69h77.98"/><path class="cls-18" d="m1250.81,987.45c0,3.1-2.51,5.6-5.6,5.6h-156.93c-3.1,0-5.6-2.51-5.6-5.6h0c0-3.09,2.51-5.6,5.6-5.6h156.93c3.1,0,5.6,2.51,5.6,5.6h0Z"/><rect class="cls-6" x="1343.62" y="905.13" width="191.72" height="87.92"/><path class="cls-55" d="m1414.66,952.58h-11.29v-5.08c0-1.29-1.41-2.07-2.51-1.4l-2.06,1.28c-.48.3-.78.83-.78,1.4v14.07c0,1.47,1.2,2.68,2.68,2.68h13.96c1.48,0,2.68-1.2,2.68-2.68v-7.59c0-1.47-1.21-2.68-2.68-2.68Zm-2.71,4.33v4.27h-8.58v-4.27h8.58Z"/><path class="cls-55" d="m1470.48,952.58h-13.96c-1.48,0-2.68,1.2-2.68,2.68v7.59c0,1.47,1.2,2.68,2.68,2.68h11.29v5.08c0,1.29,1.41,2.07,2.51,1.4l2.06-1.28c.48-.3.78-.83.78-1.4v-14.07c0-1.47-1.21-2.68-2.68-2.68Zm-2.67,4.33v4.27h-8.58v-4.27h8.58Z"/><path class="cls-55" d="m1438.12,952.58h-11.3v-5.08c0-1.29-1.41-2.07-2.51-1.4l-2.06,1.28c-.48.3-.78.83-.78,1.4v14.07c0,1.48,1.2,2.68,2.68,2.68h13.97c1.47,0,2.67-1.2,2.67-2.68v-7.59c0-1.48-1.2-2.68-2.67-2.68Zm-2.72,4.33v4.27h-8.58v-4.27h8.58Z"/><path class="cls-55" d="m1447.32,956.44c-1.49,0-2.69,1.21-2.69,2.7s1.21,2.69,2.69,2.69,2.69-1.21,2.69-2.69-1.21-2.7-2.69-2.7Z"/><path class="cls-12" d="m1518.93,930.15h-158.9c-4.95,0-9.33-3.19-10.85-7.89l-5.55-17.13h191.72l-5.55,17.13c-1.53,4.7-5.91,7.89-10.85,7.89Z"/></g></svg>