<svg width="57" height="17" viewBox="0 0 57 17" fill="none" xmlns="http://www.w3.org/2000/svg">
<path d="M12.3748 16.6743H0.817415C0.529806 16.6743 0.317884 16.6138 0.181648 16.4927C0.0605493 16.3564 0 16.1445 0 15.8569V1.14341C0 0.855806 0.0605493 0.651452 0.181648 0.530353C0.317884 0.394117 0.529806 0.325999 0.817415 0.325999H4.33684C4.62445 0.325999 4.8288 0.394117 4.9499 0.530353C5.08614 0.651452 5.15426 0.855806 5.15426 1.14341V12.3829H8.26498V8.7045C8.26498 8.4169 8.32553 8.21254 8.44662 8.09144C8.58286 7.95521 8.79478 7.88709 9.08239 7.88709H12.3748C12.6624 7.88709 12.8667 7.95521 12.9878 8.09144C13.1241 8.21254 13.1922 8.4169 13.1922 8.7045V15.8569C13.1922 16.1445 13.1241 16.3564 12.9878 16.4927C12.8667 16.6138 12.6624 16.6743 12.3748 16.6743Z" fill="black"/>
<path d="M16.3072 16.6743C16.0196 16.6743 15.8076 16.6138 15.6714 16.4927C15.5503 16.3564 15.4898 16.1445 15.4898 15.8569C15.4898 12.4847 15.4898 14.0917 15.4898 12.3375V3.70794C15.4898 1.91609 15.4898 3.25881 15.4898 1.1431C15.4898 0.85549 15.5503 0.651137 15.6714 0.530038C15.8076 0.393802 16.0196 0.325684 16.3072 0.325684H19.8947C20.1823 0.325684 20.3867 0.393802 20.5078 0.530038C20.644 0.651137 20.7121 0.85549 20.7121 1.1431C20.7121 3.04791 20.7121 1.73154 20.7121 3.70794V12.3375C20.7121 14.0664 20.7121 12.5215 20.7121 15.8569C20.7121 16.1445 20.644 16.3564 20.5078 16.4927C20.3867 16.6138 20.1823 16.6743 19.8947 16.6743H16.3072Z" fill="black"/>
<path d="M46.9099 16.6743H43.3905C43.1028 16.6743 42.8909 16.6138 42.7547 16.4927C42.6336 16.3564 42.573 16.1445 42.573 15.8569V1.14341C42.573 0.855806 42.6336 0.651452 42.7547 0.530353C42.8909 0.394117 43.1028 0.325999 43.3905 0.325999H46.9099C47.1975 0.325999 47.4018 0.394117 47.5229 0.530353C47.6592 0.651452 47.7273 0.855806 47.7273 1.14341V6.36579H48.6355L50.9743 1.0753C51.0802 0.802824 51.224 0.613608 51.4057 0.507648C51.5873 0.386549 51.8219 0.325999 52.1096 0.325999H55.6063C55.8636 0.325999 56.0377 0.394117 56.1285 0.530353C56.2193 0.651452 56.2118 0.8331 56.1058 1.0753L53.7898 6.36579C54.6375 6.4112 55.3111 6.71395 55.8106 7.27403C56.3253 7.81897 56.5826 8.54556 56.5826 9.4538V15.8569C56.5826 16.1445 56.5145 16.3564 56.3783 16.4927C56.2572 16.6138 56.0528 16.6743 55.7652 16.6743H52.2685C51.9809 16.6743 51.769 16.6138 51.6327 16.4927C51.5116 16.3564 51.4511 16.1445 51.4511 15.8569V11.4292C51.4511 11.187 51.3905 10.9978 51.2694 10.8616C51.1483 10.7253 50.9667 10.6572 50.7245 10.6572H47.7273V15.8569C47.7273 16.1445 47.6592 16.3564 47.5229 16.4927C47.4018 16.6138 47.1975 16.6743 46.9099 16.6743Z" fill="black"/>
<path d="M25.4664 11.3463L28.3367 6.13071C29.3076 4.36638 31.4523 5.08072 31.6759 7.2429L31.9411 9.80766C32.1646 11.9698 34.3093 12.6842 35.2803 10.9199L38.1505 5.70428" stroke="#7B00FF" stroke-width="4.3" stroke-linecap="round" stroke-linejoin="round"/>
</svg>
