<svg xmlns="http://www.w3.org/2000/svg" width="28" height="28" viewBox="0 0 28 28">
  <path id="패스_8000" data-name="패스 8000" d="M155.788,17.225l2.044,7.065a1.47,1.47,0,0,1-1.93,1.8l-6.785-2.656a1.447,1.447,0,0,0-1.352.159l-6.007,4.15a1.462,1.462,0,0,1-2.284-1.3l.4-7.35a1.488,1.488,0,0,0-.566-1.253l-5.757-4.5a1.487,1.487,0,0,1,.519-2.6L141.1,8.845a1.47,1.47,0,0,0,1-.932L144.549.982a1.456,1.456,0,0,1,2.606-.3L151.1,6.86a1.46,1.46,0,0,0,1.185.677l7.271.215a1.482,1.482,0,0,1,1.091,2.413l-4.592,5.71a1.493,1.493,0,0,0-.269,1.35" transform="translate(-132.979 0)" fill="#ffd153"/>
</svg>
