<svg xmlns="http://www.w3.org/2000/svg" width="278" height="228.671" viewBox="0 0 278 228.671">
  <g id="그룹_37366" data-name="그룹 37366" transform="translate(-3842.799 -1803.995)">
    <path id="패스_7718" data-name="패스 7718" d="M223.347,9.2c-3.022-.344,56.594,7.559,52.662,24.794s-56.288,38.7-122.261,58.958S0,135.887,0,135.887,228.793,84.335,271.465,44.27C271.465,44.27,304.145,18.414,223.347,9.2Z" transform="translate(3842.799 1801.73)"/>
    <circle id="타원_81" data-name="타원 81" cx="5.327" cy="5.327" r="5.327" transform="translate(4020.451 1803.995)"/>
    <path id="패스_7719" data-name="패스 7719" d="M151.192,145.1c-8.468-6.2-7.865-30.388-7.865-30.388L141.814,60.89,140.3,114.712s.6,24.19-7.865,30.388-11.189,5.595-32.956,6.8c21.767,1.208,24.488.6,32.956,6.8s7.865,30.388,7.865,30.388l1.513,53.822,1.513-53.822s-.6-24.19,7.865-30.388,11.189-5.595,32.956-6.8C162.382,150.687,159.661,151.3,151.192,145.1Z" transform="translate(3819.45 1789.751)"/>
    <path id="패스_7720" data-name="패스 7720" d="M237.3,138.279c-4.357-3.195-4.051-15.645-4.051-15.645l-.78-27.713-.78,27.713s.313,12.458-4.051,15.645-5.763,2.881-16.967,3.5c11.212.619,12.611.313,16.967,3.5s4.051,15.645,4.051,15.645l.78,27.713.78-27.713s-.313-12.458,4.051-15.645,5.763-2.881,16.967-3.5C243.053,141.16,241.655,141.466,237.3,138.279Z" transform="translate(3793.316 1781.634)"/>
  </g>
</svg>
