<svg width="36" height="36" viewBox="0 0 36 36" fill="none" xmlns="http://www.w3.org/2000/svg">
<path fill-rule="evenodd" clip-rule="evenodd" d="M8.21552 11.2422C8.23299 11.2422 8.25053 11.2422 8.26811 11.2422L26.6132 11.2422C27.1688 11.2421 27.6694 11.2421 28.0777 11.295C28.5245 11.3528 28.9795 11.4861 29.3671 11.8403C29.7548 12.1946 29.9284 12.6358 30.0261 13.0755C30.1155 13.4775 30.1604 13.976 30.2102 14.5294L30.7017 19.9781C30.9508 22.74 31.1463 24.9076 31.0648 26.6065C30.9812 28.3459 30.6034 29.7444 29.58 30.8643C28.5566 31.9841 27.1976 32.4861 25.4728 32.7255C23.7881 32.9594 21.6116 32.9594 18.8386 32.9594H15.9901C13.217 32.9594 11.0406 32.9594 9.35589 32.7255C7.63104 32.4861 6.2721 31.9841 5.24869 30.8643C4.22528 29.7444 3.84743 28.3459 3.76391 26.6065C3.68234 24.9076 3.87787 22.7399 4.12699 19.9781L4.61372 14.5818C4.6153 14.5643 4.61687 14.5468 4.61844 14.5294C4.6683 13.976 4.71322 13.4775 4.80255 13.0755C4.90029 12.6358 5.0739 12.1946 5.46156 11.8403C5.84922 11.4861 6.30419 11.3528 6.75094 11.295C7.1593 11.2421 7.65983 11.2421 8.21552 11.2422ZM6.67584 13.1691C6.66449 13.1792 6.61332 13.2247 6.55968 13.466C6.49868 13.7405 6.46259 14.1209 6.40644 14.7435L5.92617 20.0682C5.6692 22.9172 5.48695 24.9606 5.56184 26.5201C5.63549 28.0538 5.95385 28.9676 6.57742 29.65C7.20099 30.3323 8.08252 30.7315 9.60339 30.9426C11.1499 31.1573 13.2014 31.1594 16.0619 31.1594H18.7667C21.6273 31.1594 23.6788 31.1573 25.2253 30.9426C26.7462 30.7315 27.6277 30.3323 28.2513 29.65C28.8748 28.9676 29.1932 28.0538 29.2668 26.5201C29.3417 24.9606 29.1595 22.9172 28.9025 20.0682L28.4222 14.7435C28.3661 14.1209 28.33 13.7405 28.269 13.466C28.2154 13.2247 28.1652 13.1801 28.1538 13.17C28.1535 13.1696 28.1541 13.1702 28.1538 13.17C28.1535 13.1697 28.1522 13.1685 28.1519 13.1682C28.1408 13.1578 28.0918 13.1118 27.8466 13.0801C27.5678 13.044 27.1857 13.0422 26.5606 13.0422H8.26811C7.643 13.0422 7.2609 13.044 6.98203 13.0801C6.73685 13.1118 6.68692 13.1587 6.67584 13.1691Z" fill="white"/>
<path fill-rule="evenodd" clip-rule="evenodd" d="M17.4143 3.04196C21.3451 2.98023 24.6771 5.94422 24.7579 9.77957L24.7583 9.79853L24.7581 13.8996C24.7581 14.3966 24.3552 14.7996 23.8581 14.7996C23.3611 14.7996 22.9581 14.3966 22.9581 13.8996V9.80844C22.895 7.058 20.4702 4.78787 17.4303 4.84195C17.4197 4.84214 17.409 4.84214 17.3983 4.84195C14.3585 4.78787 11.9337 7.05799 11.8706 9.80842V13.8996C11.8706 14.3966 11.4676 14.7996 10.9706 14.7996C10.4735 14.7996 10.0706 14.3966 10.0706 13.8996V9.77957C10.1514 5.94422 13.4836 2.98023 17.4143 3.04196Z" fill="white"/>
<path d="M14.5998 21.7712C14.4328 21.7712 14.2949 21.9081 14.2949 22.0704V25.4662C14.2949 25.632 14.4292 25.7618 14.5998 25.7618H20.7786C20.9456 25.7618 21.0835 25.6284 21.0835 25.4662V22.0704C21.0835 21.9081 20.9492 21.7712 20.7786 21.7712H14.5998ZM22.1871 27.2615H13.2203C12.6249 27.2615 12.1421 26.7784 12.1421 26.1872V16.9838L14.2985 15.6572V19.9759C14.2985 20.1417 14.4328 20.2751 14.6034 20.2751H22.1908C22.7861 20.2751 23.269 20.7582 23.269 21.3494V26.1872C23.269 26.7784 22.7861 27.2615 22.1908 27.2615H22.1871Z" fill="white"/>
<path fill-rule="evenodd" clip-rule="evenodd" d="M11.8652 16.8285L14.5755 15.1611V19.9753C14.5755 19.9816 14.5775 19.986 14.5814 19.9898C14.5852 19.9935 14.5919 19.9976 14.6035 19.9976H22.1908C22.9385 19.9976 23.546 20.604 23.546 21.3488V26.1866C23.546 26.9314 22.9385 27.5378 22.1908 27.5378H13.2204C12.4727 27.5378 11.8652 26.9314 11.8652 26.1866V16.8285ZM14.5791 22.0566C14.5724 22.0633 14.5719 22.0686 14.5719 22.0698V25.4656C14.5719 25.4693 14.5725 25.4713 14.573 25.4724C14.5735 25.4736 14.5744 25.4751 14.5761 25.4767C14.579 25.4795 14.586 25.4843 14.5999 25.4843H20.7786C20.7875 25.4843 20.7954 25.4808 20.8011 25.4753C20.8067 25.4699 20.8067 25.4663 20.8067 25.4656V22.0698C20.8067 22.0664 20.8054 22.0612 20.8 22.0558C20.795 22.0509 20.7881 22.0475 20.7786 22.0475H14.5999C14.5933 22.0475 14.5857 22.0501 14.5791 22.0566ZM14.2986 19.9753C14.2986 20.1411 14.4329 20.2745 14.6035 20.2745H22.1908C22.7862 20.2745 23.269 20.7576 23.269 21.3488V26.1866C23.269 26.7778 22.7862 27.2608 22.1908 27.2608H13.2204C12.625 27.2608 12.1422 26.7778 12.1422 26.1866V16.9832L14.2986 15.6566V19.9753ZM14.2949 22.0698C14.2949 21.9075 14.4329 21.7706 14.5999 21.7706H20.7786C20.9493 21.7706 21.0836 21.9075 21.0836 22.0698V25.4656C21.0836 25.6278 20.9456 25.7612 20.7786 25.7612H14.5999C14.4292 25.7612 14.2949 25.6314 14.2949 25.4656V22.0698Z" fill="white"/>
</svg>
