<svg width="22" height="22" viewBox="0 0 22 22" fill="none" xmlns="http://www.w3.org/2000/svg">
<rect width="22" height="22" rx="4" fill="#E31937"/>
<path d="M9.92383 12.2656H11.5508L12.3984 13.373C12.9521 12.7852 13.2871 11.8623 13.2871 10.6387C13.2871 8.38281 12.1523 7.15234 10.5391 7.15234C8.92578 7.15234 7.79102 8.38281 7.79102 10.6387C7.79102 12.8945 8.92578 14.125 10.5391 14.125C10.7988 14.125 11.0449 14.0908 11.2773 14.0293L9.92383 12.2656ZM15.0781 10.6387C15.0781 12.4365 14.4629 13.8174 13.4785 14.6855L14.8457 16.4492H13.1094L12.2891 15.3965C11.7559 15.6152 11.168 15.7246 10.5391 15.7246C7.94141 15.7246 6 13.8242 6 10.6387C6 7.43945 7.94141 5.55273 10.5391 5.55273C13.1367 5.55273 15.0781 7.43945 15.0781 10.6387Z" fill="white"/>
</svg>
