<svg width="36" height="36" viewBox="0 0 36 36" fill="none" xmlns="http://www.w3.org/2000/svg">
<path fill-rule="evenodd" clip-rule="evenodd" d="M27.9089 11.1011C25.6891 8.23998 21.2333 8.71981 19.6735 11.9879C19.0018 13.3954 16.9983 13.3954 16.3265 11.9879C14.7667 8.71981 10.311 8.23998 8.09117 11.1011L7.66284 11.6532C5.73505 14.1379 6.0134 17.6812 8.30552 19.8344L17.9322 28.8776C17.9564 28.9004 17.9789 28.9215 18 28.9413C18.0211 28.9215 18.0436 28.9004 18.0678 28.8776L27.6945 19.8344C29.9866 17.6812 30.265 14.1379 28.3372 11.6531L27.9089 11.1011ZM18 10.4256C20.5123 6.22523 26.5718 5.7637 29.6592 9.74304L30.0875 10.2951C32.7158 13.6827 32.3363 18.5135 29.2113 21.4491L19.5596 30.5158C19.4162 30.6507 19.2562 30.8011 19.1047 30.9178C18.9294 31.0527 18.6805 31.2121 18.3466 31.2776C18.1177 31.3225 17.8823 31.3225 17.6534 31.2776C17.3196 31.2121 17.0706 31.0527 16.8954 30.9178C16.7439 30.8011 16.5839 30.6507 16.4405 30.5159L6.7887 21.4491C3.66372 18.5135 3.28423 13.6827 5.9125 10.2951L6.34083 9.74305C9.42825 5.7637 15.4878 6.22523 18 10.4256Z" fill="#333333"/>
</svg>
