<svg width="36" height="36" viewBox="0 0 36 36" fill="none" xmlns="http://www.w3.org/2000/svg">
<path fill-rule="evenodd" clip-rule="evenodd" d="M27.9089 11.1015C25.6891 8.24041 21.2333 8.72023 19.6735 11.9883C19.0018 13.3958 16.9983 13.3958 16.3265 11.9883C14.7667 8.72023 10.311 8.24041 8.09117 11.1015L7.66284 11.6536C5.73505 14.1383 6.0134 17.6816 8.30552 19.8348L17.9322 28.8781C17.9564 28.9008 17.9789 28.9219 18 28.9417C18.0211 28.9219 18.0436 28.9008 18.0678 28.8781L27.6945 19.8348C29.9866 17.6816 30.265 14.1383 28.3372 11.6536L27.9089 11.1015ZM18 10.426C20.5123 6.22565 26.5718 5.76413 29.6592 9.74347L30.0875 10.2955C32.7158 13.6831 32.3363 18.5139 29.2113 21.4495L19.5596 30.5163C19.4162 30.6511 19.2562 30.8015 19.1047 30.9182C18.9294 31.0532 18.6805 31.2125 18.3466 31.278C18.1177 31.3229 17.8823 31.3229 17.6534 31.278C17.3196 31.2125 17.0706 31.0532 16.8954 30.9182C16.7439 30.8015 16.5839 30.6512 16.4405 30.5163L6.7887 21.4495C3.66372 18.5139 3.28423 13.6831 5.9125 10.2956L6.34083 9.74348C9.42825 5.76413 15.4878 6.22565 18 10.426Z" fill="#E31937"/>
<path fill-rule="evenodd" clip-rule="evenodd" d="M18 10.426C20.5123 6.22565 26.5718 5.76413 29.6592 9.74347L30.0875 10.2955C32.7158 13.6831 32.3363 18.5139 29.2113 21.4495L19.5596 30.5163C19.4162 30.6511 19.2562 30.8015 19.1047 30.9182C18.9294 31.0532 18.6805 31.2125 18.3466 31.278C18.1177 31.3229 17.8823 31.3229 17.6534 31.278C17.3196 31.2125 17.0706 31.0532 16.8954 30.9182C16.7439 30.8015 16.5839 30.6512 16.4405 30.5163L6.7887 21.4495C3.66372 18.5139 3.28423 13.6831 5.9125 10.2956L6.34083 9.74348C9.42826 5.76413 15.4878 6.22565 18 10.426Z" fill="#E31937"/>
</svg>
