<?xml version="1.0" encoding="utf-8"?>
<!-- Generator: Adobe Illustrator 24.0.1, SVG Export Plug-In . SVG Version: 6.00 Build 0)  -->
<svg version="1.1" id="레이어_1" xmlns="http://www.w3.org/2000/svg" xmlns:xlink="http://www.w3.org/1999/xlink" x="0px"
	 y="0px" viewBox="0 0 417.8 394.3" style="enable-background:new 0 0 417.8 394.3;" xml:space="preserve">
<style type="text/css">
	.st0{fill:#FFFFFF;}
</style>
<title>대지 5</title>
<path class="st0" d="M149.6,312.6c5.8,0,8.7,3.9,8.7,11.7c-0.1,6.9-2.2,13.5-6,19.2c-5.4,11.6-16.2,22.6-32.4,33
	c-18.4,11.8-36.9,17.7-55.5,17.7c-32.2,0-52.6-14.4-61.3-43.2C-6,320.7,5,260.3,36,169.7c5.9-17.1-3-34.7-19-43.1
	c-3-1.6-4.8-3.3-5.5-5.3c-0.6-1.9-0.9-3.9-0.9-5.8c0-2.1,0.9-4.6,2.9-7.4c2.1-3,4.6-5.7,7.4-8.1c7-5.8,14.1-8.7,21.3-8.7l0,0
	c14.2,0,27.1-8.3,33-21.3c16.8-37.5,29.1-59.2,36.9-65.2c4.3-3.2,9.4-4.8,14.7-4.8c4.6-0.1,9.2,0.6,13.5,2.1c3.6,1.4,6.8,3.4,9.6,6
	c6.4,6,9.6,12.7,9.6,20.1c0,4-1.2,8.6-3.6,13.8l-22.2,48.3h7.2c12.4,0,22.4-0.1,30-0.3l17.1-0.3c3.8-0.2,8.6-0.3,14.3-0.3
	s8.6,2.1,8.6,6.3c0,26.4-31.2,39.6-93.7,39.6h-2.4l-20.4,52.8c-23,62.5-34.5,106.2-34.5,131.2c0,7,1.6,12.5,4.8,16.4
	c3.2,3.9,9.2,5.9,18,5.9c8.2,0.1,16.4-1.4,24-4.5c6.6-2.7,13-6.1,18.9-10.1c5.4-3.7,10.1-7.1,14-10.1S146.8,312.6,149.6,312.6z"/>
<path class="st0" d="M195,385.4c-3.3-2.4-6.1-5.4-8.4-8.8c-2.1-3.2-3.2-6-3.4-8.4c-0.1-2.9,0.4-5.9,1.4-8.6
	c1.1-3.4,2.7-7.6,4.6-12.5c35.7-87.7,53.5-146.6,53.5-176.7c-0.5-8.4-3.4-14.3-8.6-17.8l-5.2-3.7c-1.6-1.2-2.4-3.4-2.5-6.4
	c0-3.2,1.1-6.4,3.3-8.8c2.5-3,5.5-5.5,8.9-7.3c7.1-3.9,15.1-6,23.2-6c7.9,0,14.2,0.9,18.6,2.6c4.2,1.6,8.1,4,11.4,7.1
	c6.7,6.3,10,12.9,10.1,19.9c0.1,7.1-0.7,14.3-2.4,21.2c-1.7,7.2-3.6,14.2-5.9,21.1s-4.5,13.5-6.8,19.6c-1.7,4.5-3.2,9.1-4.5,13.8
	c-1.4,6.1-1.9,10-1.6,11.5c4.2-3.7,6.7-7.3,7.6-10.8l10.2-19.4c22.7-40.9,44.9-68,66.6-81.3c6.3-3.7,13.9-5.5,22.7-5.5
	s15.9,3.1,21.4,9.3c5.4,6.2,8.3,13.1,8.5,20.6c0.3,7.5-0.3,13.8-1.6,18.8c-1.3,4.9-3.3,9.6-5.9,14c-5.8,9.8-12.8,14.7-21,14.7
	c-2.3,0-4.5-0.9-6.2-2.4l-5.8-5c-5.8-5.1-11.3-7.6-16.6-7.6s-11.8,3.5-19.4,10.5c-8.7,8.3-16.7,17.3-23.7,27
	c-27.6,36.5-50.2,77.4-67.7,122.7l-11.5,30.4c-3,7.5-5.6,12.9-7.9,16.1c-2.3,3.2-5.6,4.9-10.1,4.9c-4.6,0-9.1-0.9-13.3-2.5
	C202.7,390.2,198.7,388.1,195,385.4z"/>
</svg>
