<svg width="160" height="40" viewBox="0 0 160 40" fill="none" xmlns="http://www.w3.org/2000/svg">
<path d="M150.862 39.5998C147.926 39.5998 145.706 38.7748 144.201 37.1248C142.696 35.4381 141.944 33.0364 141.944 29.9198V27.7198H147.669V30.3598C147.669 32.8531 148.715 34.0998 150.807 34.0998C151.834 34.0998 152.605 33.8064 153.119 33.2198C153.669 32.5964 153.945 31.6064 153.945 30.2498C153.945 28.6364 153.578 27.2248 152.844 26.0148C152.11 24.7681 150.752 23.2831 148.77 21.5598C146.274 19.3598 144.531 17.3798 143.54 15.6198C142.549 13.8231 142.054 11.8064 142.054 9.56976C142.054 6.52642 142.825 4.17976 144.366 2.52976C145.907 0.843089 148.146 -0.000244141 151.082 -0.000244141C153.981 -0.000244141 156.165 0.843089 157.633 2.52976C159.138 4.17976 159.89 6.56309 159.89 9.67976V11.2748H154.165V9.29476C154.165 7.97476 153.908 7.02142 153.394 6.43475C152.88 5.81142 152.128 5.49976 151.137 5.49976C149.119 5.49976 148.109 6.72809 148.109 9.18476C148.109 10.5781 148.476 11.8798 149.21 13.0898C149.981 14.2998 151.357 15.7664 153.339 17.4898C155.871 19.6898 157.615 21.6881 158.569 23.4848C159.523 25.2814 160 27.3898 160 29.8098C160 32.9631 159.211 35.3831 157.633 37.0698C156.092 38.7564 153.835 39.5998 150.862 39.5998Z" fill="#93B273"/>
<path d="M128.773 6.04956H122.442V0.549561H141.159V6.04956H134.828V39.0496H128.773V6.04956Z" fill="#93B273"/>
<path d="M101.646 0.549561H109.243L115.134 23.5946H115.244V0.549561H120.639V39.0496H114.418L107.151 10.9446H107.041V39.0496H101.646V0.549561Z" fill="#93B273"/>
<path d="M82.749 0.549316H99.2639V6.04932H88.8045V16.2243H97.117V21.7243H88.8045V33.5493H99.2639V39.0493H82.749V0.549316Z" fill="#93B273"/>
<path d="M68.5321 6.04956H62.2014V0.549561H80.9183V6.04956H74.5876V39.0496H68.5321V6.04956Z" fill="#93B273"/>
<path d="M41.406 0.549561H49.0029L54.8932 23.5946H55.0033V0.549561H60.3981V39.0496H54.1775L46.911 10.9446H46.8009V39.0496H41.406V0.549561Z" fill="#93B273"/>
<path d="M29.2184 39.5998C26.2458 39.5998 23.9704 38.7564 22.3923 37.0698C20.8142 35.3831 20.0251 32.9998 20.0251 29.9198V9.67976C20.0251 6.59976 20.8142 4.21642 22.3923 2.52976C23.9704 0.843089 26.2458 -0.000244141 29.2184 -0.000244141C32.1911 -0.000244141 34.4665 0.843089 36.0446 2.52976C37.6227 4.21642 38.4117 6.59976 38.4117 9.67976V29.9198C38.4117 32.9998 37.6227 35.3831 36.0446 37.0698C34.4665 38.7564 32.1911 39.5998 29.2184 39.5998ZM29.2184 34.0998C31.3103 34.0998 32.3563 32.8348 32.3563 30.3048V9.29476C32.3563 6.76476 31.3103 5.49976 29.2184 5.49976C27.1265 5.49976 26.0806 6.76476 26.0806 9.29476V30.3048C26.0806 32.8348 27.1265 34.0998 29.2184 34.0998Z" fill="#93B273"/>
<path d="M8.91804 39.5998C6.01876 39.5998 3.79842 38.7748 2.25703 37.1248C0.752345 35.4748 0 33.1464 0 30.1398V9.45975C0 6.45309 0.752345 4.12476 2.25703 2.47476C3.79842 0.824757 6.01876 -0.000244141 8.91804 -0.000244141C11.8173 -0.000244141 14.0193 0.824757 15.524 2.47476C17.0654 4.12476 17.8361 6.45309 17.8361 9.45975V13.5298H12.1109V9.07476C12.1109 6.69142 11.1017 5.49976 9.08319 5.49976C7.0647 5.49976 6.05546 6.69142 6.05546 9.07476V30.5798C6.05546 32.9264 7.0647 34.0998 9.08319 34.0998C11.1017 34.0998 12.1109 32.9264 12.1109 30.5798V24.6948H17.8361V30.1398C17.8361 33.1464 17.0654 35.4748 15.524 37.1248C14.0193 38.7748 11.8173 39.5998 8.91804 39.5998Z" fill="#93B273"/>
</svg>
