<?xml version="1.0" encoding="UTF-8"?>
<svg id="_레이어_2" data-name="레이어 2" xmlns="http://www.w3.org/2000/svg" viewBox="0 0 26 15.43" fill="currentColor">
  <defs>
    <style>
      .cls-1 {
        stroke-linecap: round;
        stroke-linejoin: round;
      }

      .cls-1, .cls-2 {
        fill: none;
        stroke: #777;
        stroke-width: 2px;
      }

      .cls-2 {
        stroke-miterlimit: 10;
      }
    </style>
  </defs>
  <g id="Layer_1" data-name="Layer 1">
    <path class="cls-1" d="m22.13,6.26l.94-.94c.47.38,1.15.36,1.58-.08.46-.46.46-1.21,0-1.68-.61-.61-.84-.42-1.05-.63-.29-.28-.12-.54-.63-1.05-.46-.46-1.21-.46-1.68,0-.46.46-.46,1.21,0,1.68.03.03.06.05.1.07l-1.13,1.13"/>
    <path class="cls-2" d="m13.85,13.24c1.58,1.58,4.15,1.58,5.73,0,.11-.11.2-.22.3-.33.02-.02.04-.05.06-.08.06-.08.13-.17.18-.25,1.2-1.79,1.3-4.45,1.78-4.93l.14-.14c.38-.38.38-.99,0-1.36l-1.09-1.09c-.38-.38-.99-.38-1.36,0l-.14.14c-.52.52-3.39.46-5.28,2.04-.11.09-.21.18-.32.28-1.58,1.58-1.58,4.15,0,5.73Z"/>
    <path class="cls-2" d="m20.07,4.78C17.76.74,6.5-2.48,1.42,8.45-.03,11.66,2.48,14.43,5.69,14.43h11.19"/>
  </g>
</svg>