<svg xmlns="http://www.w3.org/2000/svg" xmlns:xlink="http://www.w3.org/1999/xlink" width="310" height="24" viewBox="0 0 310 24">
  <defs>
    <clipPath id="clip-path">
      <rect id="사각형_58661" data-name="사각형 58661" width="310" height="24" transform="translate(-27 25.999)" fill="#fff" stroke="#707070" stroke-width="1"/>
    </clipPath>
    <clipPath id="clip-path-2">
      <path id="패스_133047" data-name="패스 133047" d="M0,0,310,.262l.014,17.783-310-.262Z" fill="#2189ff"/>
    </clipPath>
  </defs>
  <g id="마스크_그룹_91307" data-name="마스크 그룹 91307" transform="translate(27 -25.999)" clip-path="url(#clip-path)">
    <g id="그룹_91149" data-name="그룹 91149" transform="matrix(1, 0.017, -0.017, 1, -26.704, 23.999)">
      <g id="그룹_91148" data-name="그룹 91148" clip-path="url(#clip-path-2)">
        <path id="패스_14650" data-name="패스 14650" d="M.7.42C.856.272.758-.063.309.011L0,.583Z" transform="translate(309.238 2.019)" fill="#2189ff"/>
        <path id="패스_14651" data-name="패스 14651" d="M.876,0C.353.285-.247.777.107,1.292.619.739.751.963,1.3.306c.449-.073.79.17.718.379.155-.147.7.114.937-.246A1.973,1.973,0,0,0,.85.379C.683.256.84.105.876,0" transform="translate(306.008 1.438)" fill="#2189ff"/>
        <path id="패스_14652" data-name="패스 14652" d="M0,0,.283.06A.851.851,0,0,0,0,0" transform="translate(262.855 1.412)" fill="#2189ff"/>
        <path id="패스_14653" data-name="패스 14653" d="M.009.13C.216.112.3.052.308,0,.117.043-.039.082.009.13" transform="translate(235.569 1.7)" fill="#2189ff"/>
        <path id="패스_14654" data-name="패스 14654" d="M0,.023.275.052C.17,0,.062-.021,0,.023" transform="translate(230.898 1.32)" fill="#2189ff"/>
        <path id="패스_14655" data-name="패스 14655" d="M.74.16,0,0C-.042.185.383.127.74.16" transform="translate(262.116 1.252)" fill="#2189ff"/>
        <path id="패스_14656" data-name="패스 14656" d="M0,.156A1.139,1.139,0,0,0,.391,0L.022.067Z" transform="translate(300.848 2.749)" fill="#2189ff"/>
        <path id="패스_14657" data-name="패스 14657" d="M0,.24l.221,0A1.457,1.457,0,0,0,.4,0Z" transform="translate(274.859 0.437)" fill="#2189ff"/>
        <path id="패스_14658" data-name="패스 14658" d="M.343,0C.134-.017.074.466,0,.679A.653.653,0,0,1,.447.34.732.732,0,0,0,.343,0" transform="translate(283.74 0.401)" fill="#2189ff"/>
        <path id="패스_14659" data-name="패스 14659" d="M0,.072.257,0,0,.072" transform="translate(298.736 0.914)" fill="#2189ff"/>
        <path id="패스_14660" data-name="패스 14660" d="M.09.17A.389.389,0,0,0,0,0,.268.268,0,0,0,.09.17" transform="translate(268.163 0.548)" fill="#2189ff"/>
        <path id="패스_14661" data-name="패스 14661" d="M.05.086A.569.569,0,0,0,.04,0C-.008.053-.022.089.05.086" transform="translate(10.954 17.202)" fill="#2189ff"/>
        <path id="패스_14662" data-name="패스 14662" d="M0,.308.146.271A1.754,1.754,0,0,0,.148,0Z" transform="translate(0.098 15.438)" fill="#2189ff"/>
        <path id="패스_14663" data-name="패스 14663" d="M0,.035.038.044C.259-.02.134-.006,0,.035" transform="translate(222.349 0.969)" fill="#2189ff"/>
        <path id="패스_14664" data-name="패스 14664" d="M.48,0c.914.386-1.4.622-.037,1.035C.305.853,1.6.226.48,0" transform="translate(143.712 4.554)" fill="#2189ff"/>
        <path id="패스_14665" data-name="패스 14665" d="M.377,0C.253.007.126.014,0,.012A1.322,1.322,0,0,0,.377,0" transform="translate(300.232 2.844)" fill="#2189ff"/>
        <path id="패스_14666" data-name="패스 14666" d="M0,0V0l.142.04C.084.024.05.015,0,0" transform="translate(144.155 5.589)" fill="#2189ff"/>
        <path id="패스_14667" data-name="패스 14667" d="M0,0A.61.61,0,0,0,.212.2C.2.154.154.1,0,0" transform="translate(202.735 1.974)" fill="#2189ff"/>
        <path id="패스_14668" data-name="패스 14668" d="M.365.053,0,0A1.457,1.457,0,0,0,.365.053" transform="translate(217.024 2.089)" fill="#2189ff"/>
        <path id="패스_14669" data-name="패스 14669" d="M.535.054A.921.921,0,0,0,0,.034.35.35,0,0,0,.086.091.464.464,0,0,1,.535.054" transform="translate(194.646 2.878)" fill="#2189ff"/>
        <path id="패스_14670" data-name="패스 14670" d="M0,0A1.484,1.484,0,0,0,.152.091L.4.055Z" transform="translate(187.282 3.249)" fill="#2189ff"/>
        <path id="패스_14671" data-name="패스 14671" d="M.7.4A1.474,1.474,0,0,1,.294,0C.45.333-.693.541.7.4" transform="translate(34.189 14.844)" fill="#2189ff"/>
        <path id="패스_14672" data-name="패스 14672" d="M.229,0A.29.29,0,0,1,0,.211L.261.182C.283.11.287.041.229,0" transform="translate(300.609 2.634)" fill="#2189ff"/>
        <path id="패스_14673" data-name="패스 14673" d="M1.257.025,0,0A9.886,9.886,0,0,0,1.257.025" transform="translate(193.808 6.713)" fill="#2189ff"/>
        <path id="패스_14674" data-name="패스 14674" d="M.283,0,0,.075A.409.409,0,0,0,.283,0" transform="translate(91.098 11.413)" fill="#2189ff"/>
        <path id="패스_14675" data-name="패스 14675" d="M.864.3A2,2,0,0,0,.14,0,.519.519,0,0,0,0,.13Z" transform="translate(189.227 6.631)" fill="#2189ff"/>
        <path id="패스_14676" data-name="패스 14676" d="M0,0,0,.005Z" transform="translate(34.481 14.84)" fill="#2189ff"/>
        <path id="패스_14677" data-name="패스 14677" d="M26.361,16.225c1.193-.076.5-.659.711-1.039,1.4-.285.707.415,1.223.7.872-.232,1.493-.862,2.158-.887.06.1.192.129.054.271.887-.571,2.785-.232,3.815-.942a.4.4,0,0,1,.158.146,1.4,1.4,0,0,1-.256-.853c.535-.049.951-.472,1.195-.074-.329.013-.339.181-.48.322l.542-.221c.563.554-.744.261-.7.7,1.073-.275,2.3-.86,3.149-.753.232.565-1.937.339-.769.772l-1.317-.126c1.082.842-.792,0,.214.906,1.72.043,1.875-.44,3.59-.389.351-.349-.174-.468.177-.817,2.359-.748,2.046,1.324,3.745.428.423-.418.528-1.164,1.831-.865l-.367.687c1.656-.05.849-1.008,2.619-.688-.281.279-1.274.307-1.017.367,1.169.44.756-.426,1.615-.487l.234.569c1.747-.214,3.642-.769,5.577-1.011-.092.18-.407.385.064.531a29.743,29.743,0,0,1,7.642-.1l.857-.559c.209-.008.411.2.192.312.94.129.018-.32.444-.546.521-.07.718.242.4.415,1.587-.533,4.551-1.221,6.315-.8l-.321.171c1.355.114,1.415-1.128,2.7-.741l-.229.1c2.917.025,6.08-.644,8.358-.019.358-.748,2.9.146,3-.873,1.7.4,1.239.606,3.6.8.626.009.875-.686,1.637-.838l.062.526,1-.618.609.595.712-.179c-.291-.012-.633-.2-.6-.353,1.107-.307,2.781.2,2.831.467l2.631-.609c-.042.214-.482.315-.826.472,1.38-.626.306.538,1.57-.035-.186-.108.07-.319.089-.426a7.341,7.341,0,0,0,3.244,0l-.181.377c1.989-.022,4.161-.414,6.383-.536-.81-.122-.679-.763-.031-.862l.3.542c.395-.368-.7-.17.133-.641.836.016.609.6.146.809l1-.251c.072.163-.157.264-.2.479.387-.37,1.786.459,2.336-.176l.07.163c2.222-.123,3.213-.372,5.021-.5,0-.481.714-.417,1.224-.833a29.85,29.85,0,0,0,4.447.256c1.109-.3.3-.426.783-.738.116.433,1.714.306.906.665a33.265,33.265,0,0,0,4.857-.7c-.277-.165-.579-.227-.437-.384.437-.1,1.02.129.97.343l-.112.051c2.682-.8,6.394.937,8.5-.084l-.12.051,2.222-.587c1.043.025-.6.361.188.595,2.383-.851,3.852-.084,5.822-.668,1.639,1.216,5.5-.362,7.647.361l-.142-.3c.52-.323.666.143,1.069.193-.072-.233-.6-.245-.28-.427,4.56-.589,9.492.015,14.207.074,1.724,0,.878-1.618,3.091-.989l-.582.594c3.428-.84,7.1-.289,10.458-1-.193.139-.189.308-.522.32.742.381,2.655-.089,2.647-.424.533.016.142.3.477.454.734.213,1.777-.6,2.182-.2.068.063-.2.14-.325.178.459-.217,2.188-.038,1.713-.494,1.287.174,2.425-.31,3.459-.071.634-.558,2.2.165,2.365-.592-.047.778,2.271.533,3.056.141-.257.245.714.216.415.552.92-.044,1.755-.218,1.573-.61,1.746.863,3.369-.871,4.387.281,2.711-.517,5.226-.89,7.677-1.162-.051.774-2.715.176-2.569.983,2.316-.4,3.63-1.116,5.952-1.014.6.083-.323.347-.518.486,2.314-.4,4.51-.078,6.565-.568,0,.072-.223.157-.433.224.409-.039.958.081.893-.268l-.393.109c-.677-.489,1.573-1.117,1.633-1.39-.645,1.029,2.063.187,1.019,1.493.267-.075.6-.251.524-.484.4.055.535.189.142.468,1.456-.239.917-.594,2.246-.63,0,.171-.261.245-.391.45a3.835,3.835,0,0,1,2.445-.6c-.064.1.072.235-.261.243,1.923-.115,3.243-.989,5.37-.739-.592.758.728.22.868.856l1.129-.223-.471-.3c1-.016,1.857-.507,2.721-.321l-.728.284,1.859-.175-1.065-.212c.993-.359-.142-.805,1.19-.665-.267.072,1-.021,1.53.34l0,0a2.654,2.654,0,0,1,1.723-.309c.2.2-.125.712,0,.845.464-.548,2.326-.214,2.918-.8a.455.455,0,0,0-.127.541l.391-.445c.467.125.537.191.473.459,1.39.041-.473-.8,1.187-.5-.128.039-.064.1-.329.176,1.66.135,3.183-.366,4.71-.2.473.631-1.32.2-.787.724,2.186-.181,4.508-.9,6.632-.8l-.4-.06c.261-.916,1.594.411,2.651-.044-.259.073-.325.512-.259.409a24.888,24.888,0,0,0,5.15-.635l-.263.24a31.551,31.551,0,0,0,3.184.148c.267-.24.8-.213.464-.546,2.894,1.261,5.411-.85,7.978.211-.3.008-.714.219-.475.215l2.148-.259c-.184-.392-.291-.235-.752-.533a2.435,2.435,0,0,1,1.4-.444c-.961.282.028.636.453.847-.074-.12.064-.257.026-.379,1.146.681.165-.8,1.715-.357l-.076.209a6.007,6.007,0,0,1,1.715-.357c.272.452-.606.226-.634.6.87-.044,1.693-.9,2.5-.462-.367.135-.9.148-1.265.282a2.552,2.552,0,0,0,1.61.454l-.064-.01,1.482.214-.381-.137c1.056-1.217,2.214-.264,3.66-1.076-1.406.77-.223.433-.318.954.379.137.952.287.794.436.682-.433,1.167.308,2.13-.325.048.166.742,0,.6.424.9-.148-.222-.286-.15-.5,1.374-.6,3.286.637,5.266-.179,1.715-.351,2.02-.92,3.616-1.225.547.257-.428.615-.428.615a4.288,4.288,0,0,0,2.35-.029c-.163.149.01.269.266.452.658-.054.426-.615,1.3-.383a2.413,2.413,0,0,1-.642.681c.774-.166,1.534-.49,2.333-.654.22.288-.474.45-.753.645.9-.147,2.334-.3,2.6-.767l-.583-.156c.329-.027.178.394-.063.481-.766.374-1.119-.141-1.167-.308l.57-.116c-.611-.972-2.3.193-3.451.155l.464-.719-1.168.611c-.257-.182-.437-.578.129-.694-.836-.338-.726.265-1.446-.116-.08-.06-.044-.094.028-.123l-.8.225c.155-.152-.146-.5.353-.406-1.461-.388-2.326.572-2.885.04l.12-.046c-2,.274-.181.527-1.673,1.165L292.8.328l-.183.526c-.207-.016-.62-.048-.549-.259-.764.371.138.226-.3.572-1.012-.463-2.747.272-2.995-.556-.349.4.964.287-.1.586-.328-.891-1.229.177-2.153-.214.267-.469,1.139-.242.215-.635-.53.793-1.781-.135-2.547.03-.019.622-1.665.293-2.952.527.076-.211-2.44-.293-3.649-.495l.032-.1c-.213.634-1.456.54-2.353.688.024-.377.181-.529.664-.707l-.848.02a1.575,1.575,0,0,1-1,.4l.2-.474c-1.129.05-2.258.6-3.72.317-.067.44,1.2,1.193-.332,1.523-.064-.235-.134-.639.265-.747a1.243,1.243,0,0,1-.732.114l.6-.414c-.668-.16-.337.342-.866.318,0-.339-.4-.232-.334-.5.136-.036.467.129.664-.01a3.026,3.026,0,0,1-1.572-.479c.058.192.016.456-.421.51-1.127.052-.4-.4-1.064-.554-.265.241-.993.015-.995.522-.331,0-.4-.23-.533-.364-.576.238-2.727.13-2.05.653l.152.031c-.03.009-.06.015-.1.024h0c-1.9.55-3.988-.188-5.881.074l0-.17a17.578,17.578,0,0,0-3.317.559c-.335.008-.8-.288-.669-.494a4,4,0,0,1-2.214.094c.859-.32-.311-.255.885-.239-1.133-.119-1.4-.38-2.589.116.395-.445-.87-.521-1.4-.376l.8.288a9.294,9.294,0,0,1-1.666.035l.269-.579c-2.335-.627-4.112,1.3-5.913.189-.594.416,1.263.244.737.725a12.989,12.989,0,0,1-2.534-.824c-1.466-.274-1.322.871-2.85.7.2.2.408.735-.719.959-1.065-.045-1.341-.815-.677-1,.253-.024.379.036.371.107.339-.084.786-.184.357-.392l-.13.207c-.535-.192-1.995-.13-1.666-.472-.794.217-.329.342.27.432-1.373-.255-2.126.048-3.537-.1.228.1.443.336.222.341-2.065-.185-.887.416-2.276.55-.8-.285.251-.748-1.139-.443-.864-.182-.206-.535.127-.711-1.258.434-2.4-.18-3.13-.227l.666-.186a4.129,4.129,0,0,1-1.063.128l.4.394c-.4-.059-.732-.049-.732-.218-.395.279.342.667-.448,1.057-.537-.189-1.594.273-1.8-.26,1.664.13-.208-.535,1.188-.667a2.485,2.485,0,0,1-1,.021c-.064-.058.05-.113.157-.147-1.608-.43-.7.633-2.343.675.193-.312-.407-.564-.673-.49.662-.015.34.5-.257.748-1.063-.2-1.135.213-1.687.2l.634.091c-.2.31-.728.287-1.458.406-.074-.233.66-.183.393-.279-.79.559-1.868-.493-2.986-.1-.537-.189-.078-.569-.549-.694-1.254.436-1.4-.368-2.721.006.405.394.467.292-.454.724l2.186-.368-1.384.646c.664-.018,1.388-.309,1.789-.252-.656.356-.592.253-.257.579-.938-.578-1.783.423-2.855.049l-.017-1.012c-1.6-.394-2.78.621-4.843.441l.666.153c-.253.411-1.263.1-1.917.29.044-.341-.377-.447-.673-.648.048.25-1.5.033-1.653.715l-.938-.412c-1.666-.121-1.838,1.031-3.436.975.46-.385-.276-.6.775-.9-.531.017-1.011-.027-1.007.206-.321-.2-1.45.509-1.955.207-.217.156-.271.514-.869.506-.068-.065-.006-.166-.006-.166.006.166-.921.261-.379.616-1.694-.99-4.57.262-6.045-.586-1.153.162-2.543.327-3.594.394.062-.1-.006-.168.2-.142-1.47-.255-.837,1.007-2.509.724-.876-.513.859-.332.323-.517-.294-1.1-1.985.233-3.134-.371l.265-.077c-.872-.342-2.05.507-3.443.484,0,0,.062-.1,0-.168a12.187,12.187,0,0,1-4.027,1.088c.389-.454.592-.256.313-.688-.594.09.218.7-.969.88-.4-.221-1.277-.39-1.421-.856l1.125-.076c-.613-.585-1.456.086-2.057.007l.06-.271c-1.723.165-1.7.838-3.564.874l.206.194c-.973.71-.874-.336-1.855.2l-.35-.663a28.744,28.744,0,0,1-3.494.939,12.72,12.72,0,0,1,2.886-1.186,6.038,6.038,0,0,0-2.577.5c.263-.077.59-.258.862-.165A5.615,5.615,0,0,1,157.513,5c.149-1.317-3.467-.178-4.493-1.143-2.306.6-4.654.022-7.373.234,1.036.97-.794.068-.556,1.1-.63.1-.872.093-.934.028L142.193,4.7c-.477-.281.586-.26.512-.491-1.394-.011-.615-.415-1.553-.647.214.365-.446.56-1.248.455l1.149.428c-1.9.653-1.74-.795-3.659-.147l.6-.359c-.991.242-3.708.173-4.631,1.07-.186-.112-.441-.384,0-.485-2.41,0-5.277,1.179-7.181.761l.163-.265c-.443.1-.744.522-1.322.294.02-.106.161-.264-.048-.267a3.686,3.686,0,0,1-1.761.392l.487-.315c-2.366-.209-3.54.893-5.489,1.172-.052-.752-1.914-.9-2.841-.972l.024-.108c-2.733.064-4.581.89-7.081,1.33-1.63-.728-5.332-.037-7.888-.351.4.115-.013.589-.456.692-.6-.119-1.589.615-1.552-.08h.211c-.5-.65-1.7-.4-2.649-.364l-.081.911c-2.588-1.158-6.455.882-7.906-.211-.578.263-1.32.307-1.895.569l-.008-.486a27.92,27.92,0,0,0-4.54.21l.389-.371c-1.159.04-1.339,1.484-2.4,1.579l-.384-.7c-2.015.132-4.11-.365-6.044.42a.415.415,0,0,1,.389-.371c-.951.044-3.715-.246-3.281.722-.08-.644-2.085.074-3.146.429l.125-.486A3.582,3.582,0,0,1,65.044,9.74c-.311-.043-.3-.363.113-.269-1.035-.182-.748.5-2,.331l.429-.335c-1.045.033-.947.191-1.488.583-.638.234-1.989.009-2.183-.411a1.3,1.3,0,0,1-1.278.576c-.1-.156.115-.272.223-.329-1.774-.212-2.539.731-3.78.346a.362.362,0,0,0-.23-.271,21.866,21.866,0,0,1,2.4-.094c-.042-.44-1.167-.438-.334-1.107-.867.393-2.333,1.219-3.442,1.09a.6.6,0,0,1-.16-.142l.11-.056a1.335,1.335,0,0,0-.682.119A4.443,4.443,0,0,0,51.83,9.7c-.164-.355-1.3-.106-1.859-.086.092.478-.646.452.076.8-.092-.027.1-.065.469-.111a1.019,1.019,0,0,0,.233-.067l-.034.045,1.382-.129a1.557,1.557,0,0,1-1.5.29,10.4,10.4,0,0,1-.7.828c-.826-.616-2.333-.876-2.576-1.273-1.675.387-3.993.457-4.974,1.433-.473.15-.581-.218-.776-.348.271-.109.6-.119.742-.26-.943.3-2.856.291-3.025.936-1.247-.2.628-.628-1.038-.407l.207-.209c-3.4-.762-5.193,2-8.976.984.261.06.391.088.453.189-4.221-.257-8.525,1.161-12.727.58-1.187-.092-1.27.321-1.95.682l-.308-.5-1.154.689c-1.681.571-3.127-1.029-5.227-.035l.319.326c-.792,0-2.465.4-2.376-.011-.074.07-.219.382-.546.224L5.91,14.01l-1.879.613c-1.518-.078.117-1.089-2.073-.97-.8.167-2.223.964-1.9,1.122.329-.013.856.1.91.369l-.726.2c-.047.8-.527,1.661,1.354,2.074l1.214-.585.451.353L2.2,17.294c.647.316,1-.035,1.4-.288a.867.867,0,0,0,.579.382l1.16-.856c.186.3-.49.659.364.766.546-.4-.635-.653.3-.959.647.312.5.621,1.181.256.122.2-.016.339-.287.45.606-.294,1.666-.235,1.946-.682.681.4,2.128-.284,2.147.473a3.9,3.9,0,0,1,1.631-.754c-.967.982,2.186-.118,2.008.868.7-.871,2.8-.582,4.152-1.141-.072.07-.211.214-.339.181a5.149,5.149,0,0,1,1.566.347c.031-.677,1.238-.919,1.854-1.381,1.03.575-.5.829-.136,1.425-.1-.538,1.615-.665,1.242-1.092.778.345.654.148,1.092.674.041-.846.67-.193,1.226-.753,1.109.333.356.764,1.5.423.583.215-.428.589-.428.589M54.05,12.78v.01l-.57.066.57-.077m2.34-.171c-.287,0-.642.023-1.017.052-.1-.159-.026-.337.211-.344-.118.12.443.177.806.292m-5.269-2.98c.365-.094.5-.008.557.086-.174.02-.377.051-.642.1L51,9.881a.586.586,0,0,1,.123-.252" transform="translate(0.001 0.364)" fill="#2189ff"/>
        <path id="패스_14678" data-name="패스 14678" d="M.15.022A.948.948,0,0,1,0,.069C.08.1.156.135.232.161L.349,0,.15.022" transform="translate(50.367 10.647)" fill="#2189ff"/>
        <path id="패스_14679" data-name="패스 14679" d="M.05.01,0,0A.283.283,0,0,1,.106.067C.072.045.072.029.05.01" transform="translate(263.141 1.472)" fill="#2189ff"/>
        <path id="패스_14680" data-name="패스 14680" d="M.21.122.2,0,0,.12Z" transform="translate(88.585 11.688)" fill="#2189ff"/>
        <path id="패스_14681" data-name="패스 14681" d="M0,0A.326.326,0,0,0,.174.12C.166.088.09.046,0,0" transform="translate(276.174 2.841)" fill="#2189ff"/>
        <path id="패스_14682" data-name="패스 14682" d="M0,0,.794.155A5.863,5.863,0,0,0,0,0" transform="translate(281.762 2.836)" fill="#2189ff"/>
        <path id="패스_14683" data-name="패스 14683" d="M0,.211A.583.583,0,0,0,.078,0L.07,0Z" transform="translate(286.062 2.776)" fill="#2189ff"/>
        <path id="패스_14684" data-name="패스 14684" d="M.357,0A.94.94,0,0,0,.193.028C-.191.133.07.087.357,0" transform="translate(217.481 5.351)" fill="#2189ff"/>
        <path id="패스_14685" data-name="패스 14685" d="M.644,0A4.573,4.573,0,0,1,0,.247C.363.273.645.275.644,0" transform="translate(237.45 3.59)" fill="#2189ff"/>
        <path id="패스_14686" data-name="패스 14686" d="M.138.009.14,0,0,.005Z" transform="translate(195.065 6.733)" fill="#2189ff"/>
        <path id="패스_14687" data-name="패스 14687" d="M0,.05A1.855,1.855,0,0,0,.946.032,2.825,2.825,0,0,0,0,.05" transform="translate(236.507 3.805)" fill="#2189ff"/>
        <path id="패스_14688" data-name="패스 14688" d="M0,.062.208.077A.11.11,0,0,1,.229,0Z" transform="translate(304.678 2.826)" fill="#2189ff"/>
        <path id="패스_14689" data-name="패스 14689" d="M0,.06.229,0C.124,0,.032.007,0,.06" transform="translate(304.908 2.766)" fill="#2189ff"/>
        <path id="패스_14690" data-name="패스 14690" d="M.481,0,0,.13C.168.129.375.139.481,0" transform="translate(305.137 2.636)" fill="#2189ff"/>
        <path id="패스_14691" data-name="패스 14691" d="M.062,0,0,.176A.264.264,0,0,0,.062,0" transform="translate(298.927 2.756)" fill="#2189ff"/>
        <path id="패스_14692" data-name="패스 14692" d="M0,.081A5.176,5.176,0,0,0,1.616.318l.05-.14C1.4.441.385-.221,0,.081" transform="translate(297.264 2.754)" fill="#2189ff"/>
        <path id="패스_14693" data-name="패스 14693" d="M0,.528,1.453.644C1.2.46.854.217,1.512.162-.327-.365,1.9.57,0,.528" transform="translate(289.994 0.266)" fill="#2189ff"/>
        <path id="패스_14694" data-name="패스 14694" d="M.393.375C1.169.273.377.1.415,0-.073.18-.191.224.393.375" transform="translate(285.103 0.24)" fill="#2189ff"/>
        <path id="패스_14695" data-name="패스 14695" d="M.207.44.268,0c-.6.078,0,.17-.061.44" transform="translate(252.84 0.905)" fill="#2189ff"/>
        <path id="패스_14696" data-name="패스 14696" d="M0,.154.595.41.856,0Z" transform="translate(246.931 3.625)" fill="#2189ff"/>
        <path id="패스_14697" data-name="패스 14697" d="M.734.071.993,0,0,.188Z" transform="translate(242.411 0.692)" fill="#2189ff"/>
        <path id="패스_14698" data-name="패스 14698" d="M0,.037.212.568C.611.456.662-.154,0,.037" transform="translate(188.664 2.729)" fill="#2189ff"/>
        <path id="패스_14699" data-name="패스 14699" d="M1.337.274A1.194,1.194,0,0,0,0,.156,8.292,8.292,0,0,0,1.337.274" transform="translate(163.849 4.036)" fill="#2189ff"/>
        <path id="패스_14700" data-name="패스 14700" d="M.421.209.878,0,0,.206Z" transform="translate(94.234 6.9)" fill="#2189ff"/>
      </g>
    </g>
  </g>
</svg>
