<svg xmlns="http://www.w3.org/2000/svg" xmlns:xlink="http://www.w3.org/1999/xlink" width="193" height="27.001" viewBox="0 0 193 27.001">
  <defs>
    <clipPath id="clip-path">
      <path id="패스_133192" data-name="패스 133192" d="M0,0,192.59.628l.027,23.015L.027,23.015Z" transform="matrix(1, -0.017, 0.017, 1, -1.341, 1.243)" fill="#fff" stroke="#707070" stroke-width="1"/>
    </clipPath>
    <clipPath id="clip-path-2">
      <path id="패스_133193" data-name="패스 133193" d="M.022.168,191.212,0l-.023,25.175L0,25.342Z" fill="#2189ff"/>
    </clipPath>
  </defs>
  <g id="마스크_그룹_91306" data-name="마스크 그룹 91306" transform="translate(1.341 2.119)" clip-path="url(#clip-path)">
    <g id="그룹_113410" data-name="그룹 113410" transform="translate(1.25 -9.224) rotate(3)">
      <g id="그룹_113409" data-name="그룹 113409" clip-path="url(#clip-path-2)">
        <path id="패스_133141" data-name="패스 133141" d="M.43.594C.528.383.468-.09.191.015L0,.824Z" transform="translate(190.732 2.513)" fill="#2189ff"/>
        <path id="패스_133142" data-name="패스 133142" d="M.541,0A2.071,2.071,0,0,0,.065,1.827c.317-.783.4-.465.738-1.4.277-.1.487.239.442.535.1-.208.433.16.578-.349C1.458.009,1,0,.525.535.422.361.519.148.541,0" transform="translate(188.741 1.696)" fill="#2189ff"/>
        <path id="패스_133143" data-name="패스 133143" d="M0,0,.175.085A.3.3,0,0,0,0,0" transform="translate(162.129 1.731)" fill="#2189ff"/>
        <path id="패스_133144" data-name="패스 133144" d="M.005.184A.209.209,0,0,0,.19,0C.072.061-.024.116.005.184" transform="translate(145.3 2.184)" fill="#2189ff"/>
        <path id="패스_133145" data-name="패스 133145" d="M0,.033C.063.047.114.062.17.074.1.006.038-.03,0,.033" transform="translate(142.42 1.654)" fill="#2189ff"/>
        <path id="패스_133146" data-name="패스 133146" d="M.456.225,0,0C-.026.262.236.179.456.225" transform="translate(161.673 1.506)" fill="#2189ff"/>
        <path id="패스_133147" data-name="패스 133147" d="M0,.221A.618.618,0,0,0,.241,0L.014.095Z" transform="translate(185.557 3.559)" fill="#2189ff"/>
        <path id="패스_133148" data-name="패스 133148" d="M0,.339.137.332A2.8,2.8,0,0,0,.246,0Z" transform="translate(169.533 0.332)" fill="#2189ff"/>
        <path id="패스_133149" data-name="패스 133149" d="M.212,0C.083-.024.046.66,0,.96.07.677.164.538.276.48A2.119,2.119,0,0,0,.212,0" transform="translate(175.01 0.267)" fill="#2189ff"/>
        <path id="패스_133150" data-name="패스 133150" d="M0,.1.159,0,0,.1" transform="translate(184.258 0.968)" fill="#2189ff"/>
        <path id="패스_133151" data-name="패스 133151" d="M.055.24A.915.915,0,0,0,0,0,.633.633,0,0,0,.055.24" transform="translate(165.403 0.5)" fill="#2189ff"/>
        <path id="패스_133152" data-name="패스 133152" d="M.031.121C.033.073.025.044.025,0,0,.075-.014.126.031.121" transform="translate(6.75 24.474)" fill="#2189ff"/>
        <path id="패스_133153" data-name="패스 133153" d="M0,.436.09.383C.092.252.1.126.091,0Z" transform="translate(0.058 21.998)" fill="#2189ff"/>
        <path id="패스_133154" data-name="패스 133154" d="M0,.049.023.062C.16-.028.082-.009,0,.049" transform="translate(137.148 1.171)" fill="#2189ff"/>
        <path id="패스_133155" data-name="패스 133155" d="M.3,0C.86.545-.569.882.272,1.463.188,1.206.989.317.3,0" transform="translate(88.645 6.37)" fill="#2189ff"/>
        <path id="패스_133156" data-name="패스 133156" d="M.233,0A1.491,1.491,0,0,1,0,.017.367.367,0,0,0,.233,0" transform="translate(185.177 3.695)" fill="#2189ff"/>
        <path id="패스_133157" data-name="패스 133157" d="M0,0V0L.087.06C.052.034.031.022,0,0" transform="translate(88.917 7.833)" fill="#2189ff"/>
        <path id="패스_133158" data-name="패스 133158" d="M0,0A.856.856,0,0,0,.13.286.6.6,0,0,0,0,0" transform="translate(125.05 2.625)" fill="#2189ff"/>
        <path id="패스_133159" data-name="패스 133159" d="M.225.075,0,0A.447.447,0,0,0,.225.075" transform="translate(133.862 2.764)" fill="#2189ff"/>
        <path id="패스_133160" data-name="패스 133160" d="M.33.075C.207.034.164-.056,0,.049a.325.325,0,0,0,.053.08C.111.029.189-.022.33.075" transform="translate(120.06 3.917)" fill="#2189ff"/>
        <path id="패스_133161" data-name="패스 133161" d="M0,0A1.228,1.228,0,0,0,.093.128C.141.111.2.094.247.077Z" transform="translate(115.518 4.454)" fill="#2189ff"/>
        <path id="패스_133162" data-name="패스 133162" d="M.432.571A2.169,2.169,0,0,1,.182,0c.1.47-.61.766.251.571" transform="translate(21.083 21.101)" fill="#2189ff"/>
        <path id="패스_133163" data-name="패스 133163" d="M.142,0C.114.172.074.259,0,.3L.161.257A.426.426,0,0,0,.142,0" transform="translate(185.41 3.397)" fill="#2189ff"/>
        <path id="패스_133164" data-name="패스 133164" d="M.775.033,0,0A2.676,2.676,0,0,0,.775.033" transform="translate(119.537 9.341)" fill="#2189ff"/>
        <path id="패스_133165" data-name="패스 133165" d="M.175,0,0,.107A.171.171,0,0,0,.175,0" transform="translate(56.186 16.156)" fill="#2189ff"/>
        <path id="패스_133166" data-name="패스 133166" d="M.533.428A1.114,1.114,0,0,0,.086,0,.718.718,0,0,0,0,.184Z" transform="translate(116.712 9.232)" fill="#2189ff"/>
        <path id="패스_133167" data-name="패스 133167" d="M0,0,0,.007Z" transform="translate(21.264 21.096)" fill="#2189ff"/>
        <path id="패스_133168" data-name="패스 133168" d="M16.247,23.023c.736-.11.307-.933.44-1.471.866-.405.435.586.753.99.538-.33.922-1.222,1.332-1.258.037.143.118.182.033.383.548-.809,1.718-.333,2.355-1.339a.554.554,0,0,1,.1.206,4.035,4.035,0,0,1-.157-1.206c.33-.07.587-.669.737-.107-.2.02-.209.257-.3.456l.335-.313c.346.782-.459.371-.433.991.662-.39,1.417-1.219,1.943-1.07.142.8-1.195.483-.476,1.093L22.1,20.2c.666,1.189-.488,0,.131,1.281,1.06.057,1.157-.626,2.215-.556.217-.494-.107-.661.11-1.156,1.456-1.062,1.26,1.869,2.309.6.261-.591.327-1.647,1.13-1.227l-.227.972c1.021-.073.525-1.427,1.616-.977-.174.395-.786.437-.628.521.72.62.467-.6,1-.691l.143.8c1.078-.306,2.247-1.094,3.441-1.439-.057.254-.251.545.039.751a8.152,8.152,0,0,1,4.713-.156l.53-.792c.129-.012.253.283.118.441.579.181.011-.453.275-.773.321-.1.443.341.247.586.98-.756,2.809-1.734,3.9-1.137l-.2.242c.835.159.875-1.6,1.664-1.053l-.142.148c1.8.03,3.751-.921,5.155-.04.222-1.059,1.787.2,1.85-1.239,1.047.559.763.855,2.219,1.122.386.012.541-.972,1.011-1.188l.038.744.617-.875.375.84.439-.255a.51.51,0,0,1-.37-.5,1.337,1.337,0,0,1,1.745.655l1.623-.866c-.026.3-.3.446-.51.669.852-.887.188.76.968-.052-.114-.153.043-.451.056-.6.417.4,1.331.278,2,0l-.112.533c1.227-.035,2.567-.593,3.937-.768-.5-.172-.417-1.078-.018-1.218l.186.765c.244-.521-.429-.239.083-.906.515.021.375.848.089,1.143l.614-.357c.044.23-.1.373-.126.678.239-.523,1.1.646,1.441-.253l.043.23c1.371-.178,1.982-.532,3.1-.722,0-.681.441-.591.756-1.18a8.238,8.238,0,0,0,2.742.354c.684-.427.185-.6.484-1.044.071.613,1.056.43.558.939a10.19,10.19,0,0,0,3-1c-.171-.232-.357-.319-.269-.542.27-.136.629.181.6.484l-.069.073c1.656-1.137,3.942,1.315,5.245-.132l-.074.073,1.371-.834c.643.033-.369.511.115.84,1.471-1.207,2.376-.125,3.592-.955,1.009,1.717,3.391-.521,4.715.5l-.087-.424c.321-.458.411.2.659.271-.044-.329-.373-.346-.172-.6,2.813-.84,5.854.005,8.762.081,1.063,0,.544-2.289,1.908-1.4l-.36.841c2.116-1.193,4.376-.42,6.451-1.431-.12.2-.117.436-.323.453.457.537,1.638-.13,1.633-.6.328.022.087.421.294.642.452.3,1.1-.849,1.346-.292.042.09-.121.2-.2.252.283-.308,1.35-.057,1.057-.7.793.244,1.5-.442,2.133-.106.392-.79,1.354.229,1.46-.842-.03,1.1,1.4.75,1.885.195-.159.347.44.3.255.78.567-.063,1.083-.311.971-.865,1.076,1.218,2.079-1.237,2.705.39A30.6,30.6,0,0,1,128.8,6.675c-.033,1.095-1.675.253-1.586,1.394,1.429-.575,2.24-1.583,3.672-1.444.373.116-.2.492-.32.688,1.428-.573,2.782-.118,4.049-.814,0,.1-.138.223-.267.318.252-.056.59.113.551-.381l-.243.155c-.417-.69.972-1.582,1.009-1.968-.4,1.456,1.272.261.626,2.109a.721.721,0,0,0,.324-.686c.247.077.329.266.087.661.9-.34.567-.841,1.386-.895,0,.242-.161.347-.242.637.405-.5.813-1,1.509-.854-.04.148.044.332-.161.344,1.186-.166,2-1.4,3.313-1.054-.366,1.073.449.31.534,1.208l.7-.318-.29-.421c.615-.025,1.146-.72,1.678-.459l-.449.4,1.147-.25-.657-.3c.613-.509-.086-1.138.735-.943-.165.1.614-.032.943.479v0c.3-.308.606-.63,1.063-.439.123.281-.078,1.008,0,1.194.287-.775,1.435-.306,1.8-1.137a1.288,1.288,0,0,0-.079.766l.242-.63c.288.177.331.269.291.649.857.055-.291-1.126.733-.7-.079.056-.039.145-.2.25,1.023.188,1.964-.522,2.9-.286.291.891-.815.279-.487,1.025,1.349-.26,2.781-1.279,4.092-1.137l-.245-.085c.162-1.3.983.578,1.635-.067-.16.1-.2.724-.16.579.9.154,1.826-.423,3.177-.906l-.163.339c.531.264,1.391.089,1.963.2.165-.339.491-.3.287-.773,1.782,1.779,3.339-1.211,4.92.285-.187.012-.441.31-.293.305l1.325-.369c-.113-.555-.179-.332-.463-.753a1.128,1.128,0,0,1,.865-.63c-.593.4.016.9.278,1.2-.045-.17.04-.363.016-.535.705.961.1-1.131,1.058-.507l-.047.3c.353-.167.675-.572,1.058-.507.167.639-.374.32-.392.855.536-.063,1.046-1.28,1.54-.658-.227.192-.555.211-.78.4.538.734.6.537.992.639l-.039-.015.914.3-.235-.194c.653-1.723,1.366-.376,2.259-1.528-.868,1.091-.138.613-.2,1.349.234.194.587.4.489.615.421-.613.719.433,1.314-.464.029.235.458,0,.367.6.554-.211-.136-.4-.092-.7.848-.851,2.026.895,3.248-.262,1.058-.5,1.247-1.3,2.232-1.738.337.363-.265.87-.265.87a1.249,1.249,0,0,0,1.449-.045c-.1.211.006.38.163.639.406-.078.264-.87.8-.543a3.835,3.835,0,0,1-.4.964c.477-.235.947-.7,1.44-.929.135.407-.293.637-.466.914.555-.209,1.44-.43,1.606-1.089l-.359-.22c.2-.039.109.557-.04.681-.473.531-.69-.2-.719-.433l.352-.165c-.375-1.373-1.417.277-2.129.224l.287-1.018-.722.865c-.159-.257-.269-.816.081-.981-.515-.477-.448.376-.892-.162a.122.122,0,0,1,.017-.174l-.5.32c.1-.216-.089-.71.218-.574-.9-.547-1.435.813-1.779.062l.074-.065c-1.237.391-.113.746-1.033,1.65L180.589.1l-.114.744c-.128-.022-.383-.068-.338-.366-.472.526.085.32-.188.809-.623-.654-1.694.389-1.846-.781-.216.572.594.4-.06.828-.2-1.259-.758.252-1.327-.3.165-.664.7-.344.134-.9-.328,1.122-1.1-.188-1.571.047-.013.879-1.028.417-1.821.75.047-.3-1.5-.411-2.25-.694l.02-.148c-.132.9-.9.766-1.453.977a1.118,1.118,0,0,1,.41-1L169.663.1a.907.907,0,0,1-.619.567L169.168,0c-.7.073-1.393.849-2.295.455-.042.623.736,1.685-.207,2.154-.039-.332-.082-.9.164-1.056-.08.049-.286.3-.452.163l.372-.586c-.412-.225-.208.485-.534.451,0-.48-.246-.327-.2-.71.084-.051.288.181.41-.015a1.35,1.35,0,0,1-.969-.675c.036.271.009.644-.26.722-.7.076-.246-.562-.655-.782-.164.342-.613.022-.614.739-.2.007-.247-.324-.328-.513-.356.337-1.682.188-1.265.926l.093.044c-.018.012-.037.022-.059.034h0c-1.171.781-2.459-.26-3.627.114v-.24c-.7.315-1.555.253-2.047.8-.207.012-.5-.407-.412-.7-.532.211-.587.482-1.366.137.531-.453-.192-.361.546-.34-.7-.167-.862-.535-1.6.168.244-.63-.536-.736-.863-.53l.494.407a2.529,2.529,0,0,1-1.027.052L152.631.4c-1.439-.883-2.538,1.843-3.647.276-.367.589.779.343.453,1.024-.656-.062-1.357-1.174-1.562-1.162-.9-.384-.817,1.234-1.759.992a1.016,1.016,0,0,1-.445,1.357.868.868,0,0,1-.416-1.409c.156-.034.234.051.229.15.209-.119.485-.262.221-.555l-.08.293C145.3,1.091,144.4,1.182,144.6.7c-.49.308-.2.485.166.61-.846-.358-1.312.071-2.181-.139.14.148.273.475.136.482-1.273-.258-.548.589-1.4.781-.5-.4.156-1.059-.7-.624-.532-.256-.126-.756.079-1.005-.777.616-1.479-.251-1.93-.316l.411-.264a1.23,1.23,0,0,1-.656.182l.247.557c-.245-.082-.451-.067-.451-.307-.244.4.21.942-.278,1.495-.331-.266-.983.388-1.109-.365,1.026.181-.127-.756.734-.945a.7.7,0,0,1-.614.032c-.039-.082.031-.16.1-.208-.991-.6-.434.9-1.446.958.12-.441-.25-.8-.414-.692.408-.022.209.7-.159,1.059-.656-.283-.7.3-1.041.291l.391.128c-.123.439-.449.407-.9.577-.045-.329.407-.259.243-.4-.488.792-1.151-.694-1.842-.132-.331-.266-.047-.8-.338-.981-.774.618-.862-.518-1.678.013.249.557.288.412-.281,1.025l1.349-.524-.855.916c.41-.027.857-.439,1.1-.359-.405.5-.366.359-.159.819-.578-.816-1.1.6-1.761.074l-.009-1.432c-.987-.554-1.716.883-2.988.632l.411.215c-.157.581-.779.146-1.183.413.027-.482-.232-.632-.414-.915.029.354-.926.049-1.021,1.013l-.578-.581c-1.027-.169-1.135,1.461-2.121,1.385.285-.545-.169-.845.48-1.274-.327.024-.624-.036-.622.294-.2-.281-.895.723-1.206.3-.134.221-.168.727-.537.717a.425.425,0,0,1,0-.235c0,.235-.569.371-.234.872-1.043-1.4-2.819.378-3.727-.818a15.354,15.354,0,0,1-2.217.564c.038-.148,0-.237.121-.2-.906-.358-.518,1.425-1.548,1.028-.54-.724.531-.47.2-.732-.18-1.557-1.224.333-1.932-.519l.164-.109c-.537-.482-1.265.72-2.124.689a.449.449,0,0,0,0-.237,4.913,4.913,0,0,1-2.485,1.545c.24-.642.366-.364.194-.974-.367.129.133.993-.6,1.246-.248-.312-.787-.549-.875-1.208l.694-.11c-.377-.826-.9.124-1.268.013l.037-.383c-1.063.236-1.053,1.188-2.2,1.242l.127.274c-.6,1.006-.538-.474-1.144.292l-.215-.937a11.424,11.424,0,0,1-2.156,1.334c.4-.751,1.257-1.2,1.782-1.682-.41.037-1.389.217-1.59.711.162-.109.364-.366.532-.235A2.455,2.455,0,0,1,97.15,6.94c.094-1.863-2.138-.246-2.769-1.609-1.423.851-2.87.038-4.547.342.637,1.371-.49.1-.344,1.563-.389.141-.538.134-.576.042L87.7,6.531c-.294-.4.362-.368.317-.7-.86-.014-.378-.586-.956-.913.131.516-.276.792-.771.645l.708.6c-1.174.926-1.072-1.121-2.256-.2l.368-.509c-.612.344-2.287.251-2.858,1.521-.114-.157-.271-.542,0-.686C80.766,6.3,79,7.971,77.822,7.383l.1-.376c-.273.138-.459.739-.816.417.012-.15.1-.373-.029-.378-.143.141-.714.725-1.087.558l.3-.446c-1.459-.292-2.185,1.268-3.387,1.667-.031-1.063-1.179-1.268-1.751-1.37l.015-.153C69.483,7.4,68.342,8.57,66.8,9.2c-1-1.026-3.288-.044-4.864-.483.245.162-.009.833-.282.979-.371-.167-.981.873-.957-.111h.13c-.308-.918-1.048-.566-1.633-.51l-.051,1.289c-1.594-1.634-3.982,1.258-4.875-.285-.357.373-.815.437-1.169.807l0-.688a7.666,7.666,0,0,0-2.8.3l.24-.526c-.715.059-.828,2.1-1.484,2.237l-.235-.993c-1.243.19-2.534-.509-3.728.6.015-.153.04-.453.24-.526-.587.063-2.29-.342-2.025,1.026-.049-.911-1.286.108-1.941.612l.078-.688c-.533.945-.542,1.185-1.324,1.544-.192-.06-.185-.513.07-.38-.638-.256-.462.713-1.233.471l.265-.475c-.645.049-.585.272-.918.827a.924.924,0,0,1-1.345-.578c-.072.385-.4.935-.789.817A.507.507,0,0,1,36.3,14c-1.093-.3-1.567,1.038-2.332.5a.576.576,0,0,0-.141-.383,5.941,5.941,0,0,1,1.481-.137c-.025-.623-.719-.617-.2-1.565-.536.558-1.441,1.728-2.125,1.547a.771.771,0,0,1-.1-.2l.068-.08a.453.453,0,0,0-.421.17,1.249,1.249,0,0,0-.565-.1c-.1-.5-.8-.147-1.147-.118.056.676-.4.64.046,1.131-.057-.039.062-.092.289-.158a.423.423,0,0,0,.144-.095l-.021.063.853-.185c-.259.39-.53.727-.925.412-.159.465-.334.945-.435,1.173-.509-.869-1.437-1.234-1.587-1.8-1.034.551-2.464.653-3.07,2.035-.292.213-.358-.307-.478-.491.167-.155.373-.17.458-.369-.582.424-1.762.416-1.867,1.329-.769-.278.388-.889-.639-.574l.128-.3c-2.093-1.072-3.206,2.844-5.537,1.407.161.085.241.123.279.266-2.6-.357-5.259,1.656-7.85.841-.732-.128-.784.456-1.2.967l-.189-.7-.713.977c-1.038.81-1.927-1.45-3.223-.041l.2.46c-.488,0-1.521.568-1.465-.011-.046.1-.136.54-.337.318l-.032-.378-1.16.87c-.936-.108.074-1.541-1.277-1.368-.494.238-1.373,1.367-1.172,1.59a.548.548,0,0,1,.561.52l-.448.284c-.03,1.136-.328,2.35.832,2.93l.75-.829.278.5-.657.153c.4.445.614-.051.864-.41a.794.794,0,0,0,.356.54l.717-1.212c.114.421-.3.933.223,1.083.338-.565-.391-.923.189-1.357.4.441.308.877.728.36a.6.6,0,0,1-.178.637c.374-.417,1.028-.335,1.2-.967.419.559,1.313-.405,1.323.665a2.5,2.5,0,0,1,1.007-1.069c-.6,1.391,1.349-.171,1.237,1.225.434-1.233,1.73-.827,2.563-1.62-.044.1-.131.3-.209.257.488.007.644.327.965.489.02-.957.765-1.3,1.146-1.956.634.811-.311,1.173-.086,2.015-.063-.761,1-.943.768-1.546.479.487.4.208.672.951.027-1.2.414-.274.757-1.066.684.469.218,1.08.925.6.359.3-.265.833-.265.833M33.33,18.106v.015l-.352.095.352-.109m1.443-.246a4.141,4.141,0,0,0-.627.076c-.06-.225-.016-.477.131-.487-.073.17.273.249.5.411m-3.245-4.205c.225-.133.306-.012.343.121a2.522,2.522,0,0,0-.4.148l-.023.087a1.452,1.452,0,0,1,.077-.356" transform="translate(0.006 0.56)" fill="#2189ff"/>
        <path id="패스_133169" data-name="패스 133169" d="M.092.032C.06.051.043.082,0,.1A1.376,1.376,0,0,0,.143.228L.215,0C.174.012.13.022.092.032" transform="translate(31.068 15.14)" fill="#2189ff"/>
        <path id="패스_133170" data-name="패스 133170" d="M.031.015,0,0A.25.25,0,0,1,.065.094.513.513,0,0,1,.031.015" transform="translate(162.304 1.815)" fill="#2189ff"/>
        <path id="패스_133171" data-name="패스 133171" d="M.129.172.121,0,0,.17Z" transform="translate(54.636 16.549)" fill="#2189ff"/>
        <path id="패스_133172" data-name="패스 133172" d="M0,0A.33.33,0,0,0,.107.169.41.41,0,0,0,0,0" transform="translate(170.34 3.73)" fill="#2189ff"/>
        <path id="패스_133173" data-name="패스 133173" d="M0,0,.489.218A1.944,1.944,0,0,0,0,0" transform="translate(173.786 3.713)" fill="#2189ff"/>
        <path id="패스_133174" data-name="패스 133174" d="M0,.3A1.613,1.613,0,0,0,.048,0l0,0Z" transform="translate(176.439 3.621)" fill="#2189ff"/>
        <path id="패스_133175" data-name="패스 133175" d="M.22,0a.3.3,0,0,0-.1.039C-.118.189.043.124.22,0" transform="translate(134.139 7.376)" fill="#2189ff"/>
        <path id="패스_133176" data-name="패스 133176" d="M.4,0A2.37,2.37,0,0,1,0,.349C.224.385.4.388.4,0" transform="translate(146.457 4.852)" fill="#2189ff"/>
        <path id="패스_133177" data-name="패스 133177" d="M.085.012V0L0,.007Z" transform="translate(120.312 9.367)" fill="#2189ff"/>
        <path id="패스_133178" data-name="패스 133178" d="M0,.07A.536.536,0,0,0,.583.043.785.785,0,0,0,0,.07" transform="translate(145.875 5.158)" fill="#2189ff"/>
        <path id="패스_133179" data-name="패스 133179" d="M0,.087.128.109A.314.314,0,0,1,.142,0Z" transform="translate(187.92 3.661)" fill="#2189ff"/>
        <path id="패스_133180" data-name="패스 133180" d="M0,.085.142,0C.076,0,.02.01,0,.085" transform="translate(188.061 3.577)" fill="#2189ff"/>
        <path id="패스_133181" data-name="패스 133181" d="M.3,0,0,.184C.1.182.231.2.3,0" transform="translate(188.203 3.392)" fill="#2189ff"/>
        <path id="패스_133182" data-name="패스 133182" d="M.038,0,0,.25A.717.717,0,0,0,.038,0" transform="translate(184.373 3.572)" fill="#2189ff"/>
        <path id="패스_133183" data-name="패스 133183" d="M0,.114c.255.046.643.5,1,.334l.031-.2C.863.622.238-.312,0,.114" transform="translate(183.347 3.573)" fill="#2189ff"/>
        <path id="패스_133184" data-name="패스 133184" d="M0,.747.9.908C.737.649.527.305.933.227-.2-.515,1.171.8,0,.747" transform="translate(178.867 0.066)" fill="#2189ff"/>
        <path id="패스_133185" data-name="패스 133185" d="M.242.53C.721.385.233.148.256,0c-.3.255-.374.318-.014.53" transform="translate(175.851 0.037)" fill="#2189ff"/>
        <path id="패스_133186" data-name="패스 133186" d="M.127.623.166,0C-.2.112.165.24.127.623" transform="translate(155.952 1.03)" fill="#2189ff"/>
        <path id="패스_133187" data-name="패스 133187" d="M0,.218.366.579.528,0Z" transform="translate(152.304 4.886)" fill="#2189ff"/>
        <path id="패스_133188" data-name="패스 133188" d="M.453.1.613,0,0,.267Z" transform="translate(149.521 0.747)" fill="#2189ff"/>
        <path id="패스_133189" data-name="패스 133189" d="M0,.053.13.8C.376.643.409-.219,0,.053" transform="translate(116.371 3.715)" fill="#2189ff"/>
        <path id="패스_133190" data-name="패스 133190" d="M.824.385C.656.022.241-.181,0,.221.327.238.66.5.824.385" transform="translate(101.065 5.605)" fill="#2189ff"/>
        <path id="패스_133191" data-name="패스 133191" d="M.26.3.542,0,0,.291Z" transform="translate(58.128 9.769)" fill="#2189ff"/>
      </g>
    </g>
  </g>
</svg>
