<svg xmlns="http://www.w3.org/2000/svg" xmlns:xlink="http://www.w3.org/1999/xlink" width="430" height="24" viewBox="0 0 430 24">
  <defs>
    <clipPath id="clip-path">
      <rect id="사각형_58661" data-name="사각형 58661" width="430" height="24" transform="translate(505 1541)" fill="#fff" stroke="#707070" stroke-width="1"/>
    </clipPath>
    <clipPath id="clip-path-2">
      <rect id="사각형_58660" data-name="사각형 58660" width="431.393" height="17.783" fill="#2189ff"/>
    </clipPath>
  </defs>
  <g id="마스크_그룹_91306" data-name="마스크 그룹 91306" transform="translate(-505 -1541)" clip-path="url(#clip-path)">
    <g id="그룹_91149" data-name="그룹 91149" transform="matrix(1, 0.017, -0.017, 1, 505.066, 1537.914)">
      <g id="그룹_91148" data-name="그룹 91148" clip-path="url(#clip-path-2)">
        <path id="패스_14650" data-name="패스 14650" d="M155.986,1.447c.222-.149.086-.483-.538-.409l-.43.572Z" transform="translate(275.308 0.731)" fill="#2189ff"/>
        <path id="패스_14651" data-name="패스 14651" d="M154.617.689c-.727.284-1.563.778-1.072,1.292.713-.553.9-.329,1.663-.987.625-.074,1.1.17,1,.379.217-.147.977.113,1.3-.247a3.673,3.673,0,0,0-2.931-.058c-.233-.123-.014-.274.036-.379" transform="translate(272.432 0.49)" fill="#2189ff"/>
        <path id="패스_14652" data-name="패스 14652" d="M131.766.695l.394.06a1.587,1.587,0,0,0-.394-.06" transform="translate(234.014 0.495)" fill="#2189ff"/>
        <path id="패스_14653" data-name="패스 14653" d="M118.1,1.007c.289-.019.405-.079.416-.13-.266.043-.483.082-.416.13" transform="translate(209.722 0.624)" fill="#2189ff"/>
        <path id="패스_14654" data-name="패스 14654" d="M115.746.681l.383.029a.569.569,0,0,0-.383-.029" transform="translate(205.563 0.468)" fill="#2189ff"/>
        <path id="패스_14655" data-name="패스 14655" d="M132.424.761,131.4.6c-.064.185.527.127,1.024.159" transform="translate(233.356 0.428)" fill="#2189ff"/>
        <path id="패스_14656" data-name="패스 14656" d="M150.811,1.613a1.982,1.982,0,0,0,.544-.156l-.514.067Z" transform="translate(267.838 1.038)" fill="#2189ff"/>
        <path id="패스_14657" data-name="패스 14657" d="M137.784.36l.308-.005a1.632,1.632,0,0,0,.247-.235Z" transform="translate(244.702 0.085)" fill="#2189ff"/>
        <path id="패스_14658" data-name="패스 14658" d="M142.714.1c-.292-.017-.375.466-.478.678a.939.939,0,0,1,.622-.339A.591.591,0,0,0,142.714.1" transform="translate(252.609 0.067)" fill="#2189ff"/>
        <path id="패스_14659" data-name="패스 14659" d="M149.753.459l.358-.072-.358.072" transform="translate(265.959 0.275)" fill="#2189ff"/>
        <path id="패스_14660" data-name="패스 14660" d="M134.552.358a.373.373,0,0,0-.125-.17.254.254,0,0,0,.125.17" transform="translate(238.74 0.133)" fill="#2189ff"/>
        <path id="패스_14661" data-name="패스 14661" d="M5.553,10.123c.006-.034-.014-.055-.014-.086-.067.053-.086.089.014.086" transform="translate(9.739 7.156)" fill="#2189ff"/>
        <path id="패스_14662" data-name="패스 14662" d="M.043,9.321l.2-.038a1.263,1.263,0,0,0,0-.271Z" transform="translate(0.076 6.426)" fill="#2189ff"/>
        <path id="패스_14663" data-name="패스 14663" d="M111.461.492l.053.009c.308-.063.133-.05-.053-.009" transform="translate(197.953 0.325)" fill="#2189ff"/>
        <path id="패스_14664" data-name="패스 14664" d="M72.707,2.588c1.271.385-1.951.624-.053,1.035-.191-.182,1.616-.81.053-1.035" transform="translate(127.941 1.844)" fill="#2189ff"/>
        <path id="패스_14665" data-name="패스 14665" d="M151.027,1.513c-.172.007-.35.014-.525.012a2.551,2.551,0,0,0,.525-.012" transform="translate(267.289 1.078)" fill="#2189ff"/>
        <path id="패스_14666" data-name="패스 14666" d="M72.261,3.192v0l.2.039c-.081-.019-.128-.027-.2-.043" transform="translate(128.334 2.275)" fill="#2189ff"/>
        <path id="패스_14667" data-name="패스 14667" d="M101.628,1.053a.79.79,0,0,0,.294.2c-.014-.048-.08-.106-.294-.2" transform="translate(180.49 0.75)" fill="#2189ff"/>
        <path id="패스_14668" data-name="패스 14668" d="M109.3,1.166l-.508-.053a2.775,2.775,0,0,0,.508.053" transform="translate(193.211 0.793)" fill="#2189ff"/>
        <path id="패스_14669" data-name="패스 14669" d="M98.317,1.638a1.763,1.763,0,0,0-.744-.019.532.532,0,0,0,.119.057.863.863,0,0,1,.625-.038" transform="translate(173.288 1.129)" fill="#2189ff"/>
        <path id="패스_14670" data-name="패스 14670" d="M93.881,1.8c.061.034.139.06.211.091l.347-.036Z" transform="translate(166.731 1.286)" fill="#2189ff"/>
        <path id="패스_14671" data-name="패스 14671" d="M18.108,9.053a1.875,1.875,0,0,1-.566-.4c.217.332-1.374.541.566.4" transform="translate(30.427 6.166)" fill="#2189ff"/>
        <path id="패스_14672" data-name="패스 14672" d="M151.01,1.39a.381.381,0,0,1-.319.211l.364-.029c.031-.072.036-.14-.044-.182" transform="translate(267.625 0.99)" fill="#2189ff"/>
        <path id="패스_14673" data-name="패스 14673" d="M98.9,3.848l-1.749-.024c.491.034,1.127.041,1.749.024" transform="translate(172.539 2.726)" fill="#2189ff"/>
        <path id="패스_14674" data-name="패스 14674" d="M46.056,6.618l-.394.075a.742.742,0,0,0,.394-.075" transform="translate(81.095 4.718)" fill="#2189ff"/>
        <path id="패스_14675" data-name="패스 14675" d="M96.057,4.081a3.435,3.435,0,0,0-1.008-.3.685.685,0,0,0-.194.13Z" transform="translate(168.461 2.693)" fill="#2189ff"/>
        <path id="패스_14676" data-name="패스 14676" d="M17.279,8.647l.006.005Z" transform="translate(30.687 6.165)" fill="#2189ff"/>
        <path id="패스_14677" data-name="패스 14677" d="M36.665,16.416c1.66-.077.691-.66.991-1.04,1.954-.286.983.415,1.7.7,1.213-.233,2.079-.863,3-.889.083.1.266.128.075.271,1.235-.572,3.875-.235,5.31-.946a.521.521,0,0,1,.219.146,1.134,1.134,0,0,1-.355-.853c.744-.05,1.324-.473,1.663-.075-.458.014-.472.182-.669.322l.755-.221c.783.553-1.035.262-.974.7a20.3,20.3,0,0,1,4.383-.755c.322.565-2.7.341-1.072.773l-1.832-.125c1.5.841-1.1,0,.3.906,2.393.041,2.609-.442,5-.392.489-.349-.242-.468.247-.817,3.284-.75,2.845,1.322,5.211.425.589-.418.736-1.165,2.548-.867l-.511.687c2.3-.051,1.183-1.009,3.645-.69-.391.279-1.774.308-1.416.368,1.627.439,1.052-.427,2.249-.488l.325.569c2.432-.216,5.069-.773,7.762-1.016-.128.18-.566.385.089.531a57.476,57.476,0,0,1,10.635-.108l1.194-.56c.291-.009.572.2.266.312,1.307.128.025-.32.619-.546.725-.07,1,.242.558.415,2.21-.534,6.335-1.225,8.789-.8l-.447.171c1.885.113,1.971-1.129,3.753-.743l-.319.1c4.058.022,8.461-.649,11.631-.026.5-.749,4.034.144,4.172-.875,2.362.4,1.724.6,5.008.795.872.009,1.219-.687,2.279-.839l.086.526,1.391-.618.847.594.991-.18c-.405-.012-.88-.2-.836-.353,1.541-.308,3.87.2,3.939.464l3.662-.612c-.058.214-.672.315-1.149.473,1.921-.627.425.538,2.185-.036-.258-.108.1-.319.125-.427a14.13,14.13,0,0,0,4.514,0l-.253.377c2.768-.024,5.791-.418,8.883-.541-1.127-.122-.944-.762-.042-.862l.422.541c.55-.368-.969-.17.186-.641,1.163.015.847.6.2.809l1.385-.252c.1.163-.219.264-.283.48.539-.37,2.485.457,3.251-.178l.1.163c3.092-.125,4.472-.375,6.987-.509,0-.481.994-.418,1.7-.834a57.609,57.609,0,0,0,6.188.252c1.543-.3.416-.427,1.091-.738.161.433,2.385.3,1.26.665a63.475,63.475,0,0,0,6.76-.707c-.386-.164-.805-.226-.608-.384.608-.1,1.419.128,1.349.343l-.155.051c3.734-.8,8.9.932,11.834-.091l-.167.051,3.093-.589c1.452.024-.833.361.261.594,3.317-.853,5.36-.087,8.1-.673,2.279,1.215,7.651-.367,10.64.355l-.2-.3c.725-.324.927.142,1.488.192-.1-.233-.841-.245-.389-.427,6.346-.593,13.208.007,19.771.062,2.4,0,1.224-1.619,4.3-.992l-.811.594c4.772-.843,9.874-.295,14.555-1.009-.269.139-.264.308-.727.32,1.033.38,3.695-.091,3.684-.427.741.015.2.3.663.454,1.022.212,2.473-.6,3.037-.206.094.063-.272.14-.452.178.638-.218,3.045-.039,2.385-.5,1.791.173,3.376-.312,4.814-.074.883-.558,3.056.163,3.292-.594-.067.778,3.159.531,4.253.139-.358.245.994.216.577.552,1.28-.045,2.443-.219,2.19-.612,2.429.862,4.689-.874,6.1.278,3.773-.519,7.273-.894,10.685-1.168-.072.774-3.778.178-3.575.985,3.223-.406,5.052-1.119,8.284-1.019.841.082-.45.348-.722.486,3.22-.4,6.276-.082,9.136-.574-.005.072-.311.158-.6.224.569-.039,1.332.081,1.244-.269l-.547.11c-.941-.488,2.19-1.119,2.273-1.391-.9,1.03,2.87.185,1.416,1.492.372-.075.83-.252.73-.485.558.055.744.188.2.468,2.026-.24,1.277-.594,3.126-.632,0,.171-.364.245-.544.451a7.008,7.008,0,0,1,3.4-.6c-.089.1.1.235-.364.243,2.676-.116,4.514-.992,7.473-.743-.824.759,1.013.219,1.208.855l1.571-.224-.655-.3c1.388-.017,2.585-.509,3.786-.324l-1.013.284,2.587-.176-1.482-.211c1.382-.36-.2-.805,1.657-.666a11.833,11.833,0,0,1,2.129.339l0,0a4.949,4.949,0,0,1,2.4-.31c.278.2-.175.713.006.845.647-.548,3.237-.216,4.061-.8-.278.139-.275.475-.178.541l.544-.445c.65.125.747.19.658.459,1.935.039-.658-.8,1.652-.5-.178.039-.089.1-.458.176,2.31.134,4.43-.368,6.554-.2.658.63-1.838.2-1.1.725,3.043-.183,6.274-.9,9.23-.8l-.553-.06c.364-.916,2.218.409,3.689-.046-.361.074-.452.512-.361.409a47.663,47.663,0,0,0,7.168-.639l-.366.24c1.2.187,3.14.063,4.431.146.372-.24,1.108-.214.647-.546,4.025,1.259,7.531-.855,11.1.2-.422.009-.994.219-.661.216l2.99-.26c-.255-.392-.405-.235-1.046-.533a4.346,4.346,0,0,1,1.951-.445c-1.338.283.039.636.63.846-.1-.12.089-.257.036-.379,1.593.68.23-.8,2.387-.358l-.105.209a11.265,11.265,0,0,1,2.387-.358c.378.452-.844.226-.883.6,1.21-.045,2.357-.9,3.473-.464-.511.135-1.252.149-1.76.283a4.645,4.645,0,0,0,2.24.452L392,2.435l2.063.212-.53-.137c1.471-1.218,3.081-.266,5.094-1.079-1.957.771-.311.433-.444.954.527.137,1.324.286,1.1.435.949-.433,1.624.307,2.965-.327.067.166,1.033,0,.83.423,1.249-.149-.308-.286-.208-.5,1.913-.6,4.572.634,7.329-.183,2.387-.353,2.812-.922,5.033-1.228.761.257-.6.615-.6.615a8.226,8.226,0,0,0,3.27-.031c-.228.149.014.269.369.452.916-.055.594-.615,1.81-.384a2.982,2.982,0,0,1-.894.682c1.077-.166,2.135-.492,3.248-.656.305.288-.661.451-1.049.646,1.252-.147,3.248-.3,3.623-.769l-.811-.156c.458-.027.247.394-.089.481-1.066.375-1.557-.14-1.624-.307l.794-.116c-.849-.971-3.2.2-4.8.158L419.131.9l-1.627.612c-.358-.182-.608-.577.18-.694-1.163-.337-1.01.266-2.013-.115-.111-.06-.061-.094.039-.123l-1.119.226c.216-.152-.2-.5.491-.406-2.032-.387-3.237.574-4.014.043L411.236.4c-2.79.276-.253.528-2.329,1.167L407.447.294l-.255.526c-.289-.015-.863-.048-.763-.259-1.063.372.192.226-.422.572C404.6.67,402.184,1.407,401.84.58c-.486.4,1.341.286-.133.586-.455-.891-1.71.178-3-.212.372-.469,1.585-.243.3-.636-.738.793-2.479-.134-3.545.033-.028.622-2.318.295-4.108.529.106-.211-3.395-.291-5.077-.492l.044-.1c-.3.634-2.026.541-3.276.69.033-.377.253-.529.924-.707l-1.18.021a2.686,2.686,0,0,1-1.4.4l.278-.475c-1.571.051-3.142.6-5.177.32-.094.44,1.663,1.192-.464,1.523-.089-.235-.186-.639.369-.747a2.334,2.334,0,0,1-1.019.115l.838-.415c-.93-.159-.469.343-1.2.319,0-.339-.555-.231-.464-.5.189-.036.65.128.924-.01a5.422,5.422,0,0,1-2.187-.478c.081.192.022.456-.586.51-1.568.053-.555-.4-1.48-.553-.369.242-1.382.015-1.385.522-.461.005-.558-.23-.741-.363-.8.238-3.795.132-2.854.654l.211.031c-.042.009-.083.015-.133.024h0c-2.64.552-5.549-.185-8.184.079l0-.17a33.325,33.325,0,0,0-4.616.562c-.466.009-1.119-.288-.93-.493a7.649,7.649,0,0,1-3.081.1c1.2-.32-.433-.255,1.232-.24-1.577-.118-1.946-.379-3.6.118.55-.445-1.21-.521-1.949-.375l1.116.288a17.975,17.975,0,0,1-2.318.036l.375-.579c-3.248-.625-5.724,1.3-8.228.194-.827.416,1.757.243,1.024.725a23.3,23.3,0,0,1-3.526-.822c-2.04-.272-1.84.872-3.967.7.28.2.566.735-1,.959-1.482-.045-1.865-.814-.941-1,.353-.024.527.036.516.106.472-.084,1.094-.185.5-.392l-.18.207c-.744-.192-2.776-.128-2.318-.471-1.1.218-.458.343.375.432-1.91-.254-2.959.05-4.922-.1.316.1.616.336.308.341-2.873-.183-1.235.416-3.167.552-1.119-.284.35-.749-1.585-.442-1.2-.182-.286-.534.178-.711-1.752.435-3.337-.178-4.356-.224L314,.355a7.9,7.9,0,0,1-1.48.128l.558.394c-.552-.058-1.019-.048-1.019-.218-.55.279.475.666-.625,1.057-.747-.188-2.218.274-2.5-.259,2.315.128-.289-.534,1.655-.668A4.785,4.785,0,0,1,309.2.813c-.089-.058.069-.113.219-.147-2.237-.428-.977.634-3.262.677.269-.312-.566-.564-.936-.49.922-.015.472.5-.358.749-1.48-.2-1.579.214-2.348.206l.883.091c-.278.31-1.013.288-2.029.408-.1-.233.919-.183.547-.279-1.1.56-2.6-.492-4.156-.094-.747-.188-.108-.569-.763-.694-1.746.437-1.946-.367-3.786.009.563.394.65.291-.633.725l3.043-.37-1.927.648c.924-.019,1.932-.31,2.49-.254-.913.356-.824.254-.358.579-1.3-.577-2.482.425-3.972.051l-.022-1.012c-2.229-.392-3.87.624-6.74.445l.927.152c-.353.411-1.757.1-2.668.291.061-.341-.525-.447-.936-.648.067.25-2.09.034-2.3.716l-1.3-.411c-2.318-.12-2.559,1.033-4.783.978.641-.385-.383-.6,1.08-.9-.738.017-1.407-.026-1.4.207-.447-.2-2.018.51-2.721.209-.3.156-.377.514-1.21.507-.094-.065-.008-.166-.008-.166.008.166-1.283.262-.527.617-2.357-.988-6.36.266-8.411-.581-1.6.163-3.539.329-5,.4.086-.1-.008-.168.272-.142-2.046-.254-1.166,1.007-3.492.726-1.219-.512,1.2-.332.45-.517-.408-1.1-2.762.235-4.361-.368l.369-.077c-1.213-.341-2.854.509-4.791.486,0,0,.086-.1,0-.168a22.365,22.365,0,0,1-5.6,1.091c.541-.454.824-.257.436-.689-.827.091.3.7-1.349.88-.561-.221-1.777-.389-1.977-.855l1.566-.077c-.852-.584-2.027.087-2.862.009l.083-.271c-2.4.166-2.373.839-4.961.877l.286.194c-1.355.711-1.216-.336-2.582.206l-.486-.663c-.916.194-3.206.761-4.863.942a22.075,22.075,0,0,1,4.017-1.189c-.924.026-3.134.152-3.587.5a2.914,2.914,0,0,1,1.2-.166,10.129,10.129,0,0,1-4.394.927c.208-1.317-4.825-.175-6.252-1.139-3.209.6-6.476.026-10.26.24,1.441.97-1.1.069-.775,1.1-.877.1-1.213.094-1.3.029l-2.734-.529c-.663-.281.816-.26.713-.492-1.94-.01-.855-.415-2.16-.646.3.365-.622.56-1.738.456l1.6.427c-2.648.654-2.421-.793-5.091-.144l.83-.36c-1.38.243-5.161.176-6.446,1.074-.258-.111-.613-.384-.006-.485-3.353.005-7.345,1.184-9.994.767l.228-.266c-.616.1-1.035.522-1.841.295.028-.106.225-.264-.067-.267a6.828,6.828,0,0,1-2.451.394l.677-.315c-3.292-.207-4.927.9-7.639,1.177-.072-.752-2.662-.9-3.953-.97l.033-.108c-3.8.067-6.376.894-9.855,1.336-2.268-.726-7.42-.033-10.976-.344.552.115-.019.589-.636.692-.838-.118-2.212.617-2.16-.079h.294c-.7-.649-2.365-.4-3.686-.361l-.114.911c-3.6-1.156-8.983.887-11-.2-.805.264-1.838.308-2.637.57l-.011-.486a53.953,53.953,0,0,0-6.318.214L114,7.206c-1.613.041-1.865,1.485-3.345,1.581l-.533-.7c-2.8.134-5.719-.361-8.411.425.033-.108.089-.32.541-.372-1.324.045-5.169-.243-4.566.725-.111-.644-2.9.075-4.378.432l.175-.486A5.847,5.847,0,0,1,90.5,9.9c-.433-.043-.419-.363.158-.269-1.441-.182-1.041.5-2.782.332l.6-.336a2.874,2.874,0,0,0-2.071.584c-.888.235-2.768.01-3.037-.409a2.1,2.1,0,0,1-1.779.577c-.136-.156.161-.272.311-.329-2.468-.211-3.534.733-5.26.349a.43.43,0,0,0-.319-.271c1.927-.086,3.481-.139,3.342-.1-.058-.44-1.624-.437-.464-1.107-1.208.394-3.248,1.221-4.791,1.093a.8.8,0,0,1-.222-.142l.153-.057a2.509,2.509,0,0,0-.949.12,8.555,8.555,0,0,0-1.274-.069c-.228-.355-1.81-.1-2.587-.084.128.478-.9.452.105.8-.128-.027.139-.065.652-.111a1.864,1.864,0,0,0,.325-.067l-.047.045,1.924-.13a2.842,2.842,0,0,1-2.088.291,12.334,12.334,0,0,1-.98.829c-1.149-.615-3.245-.874-3.584-1.271-2.332.389-5.557.461-6.923,1.437-.658.151-.808-.218-1.08-.348A4.956,4.956,0,0,0,58.864,11c-1.313.3-3.975.293-4.211.939-1.735-.2.874-.629-1.444-.406l.289-.209c-4.725-.759-7.229,2.009-12.492.992.364.06.544.087.63.188-5.874-.254-11.865,1.168-17.711.591-1.652-.091-1.768.322-2.715.683l-.427-.5-1.607.69c-2.34.572-4.35-1.026-7.273-.031l.444.325c-1.1,0-3.431.4-3.306-.009a.682.682,0,0,1-.761.224l-.072-.267-2.615.615c-2.113-.077.164-1.089-2.884-.968-1.113.168-3.1.966-2.643,1.124.458-.014,1.191.1,1.266.368l-1.01.2c-.067.8-.736,1.662,1.882,2.073l1.691-.586.627.353-1.482.108a2.212,2.212,0,0,0,1.949-.289,1.3,1.3,0,0,0,.805.382l1.616-.857c.258.3-.683.66.505.766.761-.4-.883-.653.425-.959.9.312.7.62,1.643.255.169.2-.022.339-.4.451.844-.295,2.318-.236,2.709-.683.947.4,2.962-.286,2.987.471a6.542,6.542,0,0,1,2.271-.755c-1.346.983,3.042-.12,2.793.867.977-.872,3.9-.584,5.78-1.144a.71.71,0,0,1-.472.182,9.58,9.58,0,0,1,2.179.346c.044-.677,1.724-.92,2.582-1.382,1.432.574-.7.829-.192,1.425-.144-.538,2.249-.666,1.729-1.093,1.083.344.911.147,1.518.673.058-.846.933-.194,1.707-.754,1.543.332.494.764,2.088.421.811.214-.6.589-.6.589M75.2,12.948v.01l-.794.067.794-.077m3.256-.173c-.4,0-.894.024-1.416.053-.136-.159-.036-.337.294-.344-.164.12.616.176,1.122.291M71.129,9.8c.508-.094.691-.009.774.086-.242.021-.525.051-.894.1l-.053.062a.545.545,0,0,1,.172-.252" transform="translate(0 0.151)" fill="#2189ff"/>
        <path id="패스_14678" data-name="패스 14678" d="M25.452,6.213a1.72,1.72,0,0,1-.208.046c.111.036.217.067.322.093l.164-.161-.278.022" transform="translate(44.833 4.413)" fill="#2189ff"/>
        <path id="패스_14679" data-name="패스 14679" d="M131.978.74l-.069-.01a.435.435,0,0,1,.147.067c-.047-.022-.047-.038-.078-.057" transform="translate(234.268 0.52)" fill="#2189ff"/>
        <path id="패스_14680" data-name="패스 14680" d="M44.693,6.9l-.019-.122L44.4,6.9Z" transform="translate(78.857 4.833)" fill="#2189ff"/>
        <path id="패스_14681" data-name="패스 14681" d="M138.442,1.523a.476.476,0,0,0,.242.12c-.011-.033-.117-.074-.242-.12" transform="translate(245.871 1.085)" fill="#2189ff"/>
        <path id="패스_14682" data-name="패스 14682" d="M141.243,1.517l1.1.154a11.051,11.051,0,0,0-1.1-.154" transform="translate(250.845 1.081)" fill="#2189ff"/>
        <path id="패스_14683" data-name="패스 14683" d="M143.4,1.691a.493.493,0,0,0,.108-.207l-.011,0Z" transform="translate(254.674 1.054)" fill="#2189ff"/>
        <path id="패스_14684" data-name="패스 14684" d="M109.516,3.017a1.783,1.783,0,0,0-.228.027c-.536.106-.172.06.228-.027" transform="translate(193.616 2.15)" fill="#2189ff"/>
        <path id="패스_14685" data-name="패스 14685" d="M119.927,1.979a8.056,8.056,0,0,1-.9.247c.505.026.9.027.9-.247" transform="translate(211.395 1.41)" fill="#2189ff"/>
        <path id="패스_14686" data-name="패스 14686" d="M97.973,3.843l0-.009-.194.005Z" transform="translate(173.658 2.733)" fill="#2189ff"/>
        <path id="패스_14687" data-name="패스 14687" d="M118.557,2.155a3.562,3.562,0,0,0,1.316-.019,5.451,5.451,0,0,0-1.316.019" transform="translate(210.555 1.5)" fill="#2189ff"/>
        <path id="패스_14688" data-name="패스 14688" d="M152.731,1.562l.289.015a.089.089,0,0,1,.031-.077Z" transform="translate(271.248 1.069)" fill="#2189ff"/>
        <path id="패스_14689" data-name="패스 14689" d="M152.846,1.525l.319-.06c-.147,0-.275.007-.319.06" transform="translate(271.452 1.044)" fill="#2189ff"/>
        <path id="패스_14690" data-name="패스 14690" d="M153.63,1.389l-.669.13a1.05,1.05,0,0,0,.669-.13" transform="translate(271.656 0.99)" fill="#2189ff"/>
        <path id="패스_14691" data-name="패스 14691" d="M149.934,1.462l-.086.176a.226.226,0,0,0,.086-.176" transform="translate(266.128 1.042)" fill="#2189ff"/>
        <path id="패스_14692" data-name="패스 14692" d="M149.014,1.543a9.828,9.828,0,0,0,2.248.236l.069-.14c-.369.264-1.782-.4-2.318-.1" transform="translate(264.646 1.042)" fill="#2189ff"/>
        <path id="패스_14693" data-name="패스 14693" d="M145.371.541l2.021.115c-.358-.183-.833-.427.083-.481-2.559-.526.538.408-2.1.367" transform="translate(258.176 0.008)" fill="#2189ff"/>
        <path id="패스_14694" data-name="패스 14694" d="M143.466.375c1.08-.1-.022-.271.031-.375-.68.18-.844.224-.031.375" transform="translate(253.822 -0.001)" fill="#2189ff"/>
        <path id="패스_14695" data-name="패스 14695" d="M127.033.844l.086-.44c-.833.079,0,.17-.086.44" transform="translate(225.098 0.287)" fill="#2189ff"/>
        <path id="패스_14696" data-name="패스 14696" d="M123.783,2.149l.827.255.364-.409Z" transform="translate(219.836 1.421)" fill="#2189ff"/>
        <path id="패스_14697" data-name="패스 14697" d="M122.539.355l.361-.07-1.382.188Z" transform="translate(215.814 0.202)" fill="#2189ff"/>
        <path id="패스_14698" data-name="패스 14698" d="M94.574,1.537l.294.531c.555-.113.627-.723-.294-.531" transform="translate(167.962 1.069)" fill="#2189ff"/>
        <path id="패스_14699" data-name="패스 14699" d="M83.994,2.548a2.2,2.2,0,0,0-1.86-.116,15.959,15.959,0,0,0,1.86.116" transform="translate(145.869 1.622)" fill="#2189ff"/>
        <path id="패스_14700" data-name="패스 14700" d="M47.822,4.191l.636-.209-1.221.206Z" transform="translate(83.89 2.838)" fill="#2189ff"/>
      </g>
    </g>
  </g>
</svg>
