<?xml version="1.0" encoding="UTF-8"?><svg id="Layer_2" xmlns="http://www.w3.org/2000/svg" viewBox="0 0 50.05 50.05"><defs><style>.cls-1{fill:#fff;}</style></defs><g id="Layer_1-2"><path class="cls-1" d="m21.51,30.79h7.01c.19,0,.35-.15.35-.34v-3.88c0-.19-.16-.34-.35-.34h-7.01c-.19,0-.35.16-.35.34h0v3.88c0,.19.16.34.35.34Z"/><path class="cls-1" d="m44.48,0H5.57C2.49,0,0,2.49,0,5.57v38.91c0,3.08,2.49,5.57,5.57,5.57h38.91c3.08,0,5.57-2.49,5.57-5.57V5.57c0-3.08-2.49-5.57-5.57-5.57Zm-6.99,16.95l-1.86,19.3c-.12,1.23-1.14,2.15-2.37,2.15h-16.48c-1.23,0-2.25-.93-2.37-2.15l-1.86-19.3c-1.22-.25-2.15-1.33-2.15-2.62,0-1.47,1.2-2.68,2.68-2.68h23.87c1.47,0,2.68,1.2,2.68,2.68,0,1.3-.93,2.37-2.15,2.62Z"/><path class="cls-1" d="m16.46,36.05c.02.17.16.29.32.29h16.48c.17,0,.3-.12.32-.29l1.83-19.06H14.63l1.83,19.05Zm2.25-15.28l2.44-1.51v4.93c0,.19.16.34.35.34h8.6c.68,0,1.22.55,1.22,1.23v5.52c0,.68-.55,1.23-1.22,1.23h-10.17c-.68,0-1.22-.55-1.23-1.23v-10.51Z"/><path class="cls-1" d="m36.96,13.71H13.09c-.34,0-.62.28-.62.62s.28.62.62.62h23.87c.34,0,.62-.28.62-.62s-.28-.62-.62-.62Z"/></g></svg>