<?xml version="1.0" encoding="UTF-8"?><svg id="Layer_2" xmlns="http://www.w3.org/2000/svg" viewBox="0 0 50.05 50.05"><defs><style>.cls-1{fill:#ed203f;}.cls-2{fill:#fff;}</style></defs><g id="Layer_1-2"><rect class="cls-1" width="50.05" height="50.05" rx="5.57" ry="5.57"/><path class="cls-2" d="m39.64,14.32c0-1.47-1.2-2.68-2.68-2.68H13.09c-1.47,0-2.68,1.2-2.68,2.68,0,1.3.93,2.37,2.15,2.62l1.86,19.3c.12,1.23,1.14,2.15,2.37,2.15h16.48c1.23,0,2.25-.93,2.37-2.15l1.86-19.3c1.22-.25,2.15-1.33,2.15-2.62Zm-6.05,21.73c-.02.16-.15.29-.32.29h-16.48c-.16,0-.3-.12-.32-.29l-1.83-19.05h20.79l-1.83,19.06Zm3.38-21.12H13.09c-.34,0-.62-.28-.62-.62s.28-.62.62-.62h23.87c.34,0,.62.28.62.62s-.28.62-.62.62Z"/><path class="cls-2" d="m19.94,32.51h10.17c.68,0,1.22-.55,1.22-1.23v-5.52c0-.68-.55-1.23-1.22-1.23h-8.6c-.19,0-.35-.15-.35-.34v-4.93l-2.44,1.51v10.51c0,.68.55,1.23,1.23,1.23Zm1.22-5.93c0-.19.15-.34.35-.34h7.01c.19,0,.35.16.35.34v3.88c0,.19-.15.34-.35.34h-7.01c-.19,0-.35-.15-.35-.34v-3.88h0Z"/></g></svg>