<svg xmlns="http://www.w3.org/2000/svg" xmlns:xlink="http://www.w3.org/1999/xlink" width="192" height="123" viewBox="0 0 192 123"><defs><clipPath id="a"><rect width="192" height="123" fill="none"/></clipPath></defs><g clip-path="url(#a)"><path d="M29.807,44.755c-.21.3.049.764.754.489l.326-.993Z" transform="translate(43.793 75.19)" fill="#3d98ff"/><path d="M33.948,46.034c.764-.629,1.612-1.614.905-2.284-.687,1.047-.962.745-1.674,1.965-.7.278-1.323.027-1.266-.324-.21.286-1.172.084-1.444.723a3.406,3.406,0,0,0,3.417-.675c.307.127.091.418.062.594" transform="translate(44.872 74.34)" fill="#3d98ff"/><path d="M60.922,39.2l-.472.094a1.505,1.505,0,0,0,.472-.094" transform="translate(89.025 66.604)" fill="#3d98ff"/><path d="M75.43,28.361c-.178.372-.193.572-.141.634.141-.372.247-.678.141-.634" transform="translate(110.839 48.184)" fill="#3d98ff"/><path d="M76.893,25.355c-.059.184-.106.335-.161.5a.727.727,0,0,0,.161-.5" transform="translate(113.003 43.084)" fill="#3d98ff"/><path d="M60.641,39.419l1.222-.235c-.025-.3-.653.054-1.222.235" transform="translate(89.306 66.382)" fill="#3d98ff"/><path d="M36.066,43.045a1.935,1.935,0,0,0-.608.356,6.2,6.2,0,0,1,.591-.211c0-.051.01-.092.017-.146" transform="translate(52.219 73.142)" fill="#3d98ff"/><path d="M53.347,41.8l-.359.086a2.187,2.187,0,0,0-.227.424Z" transform="translate(77.701 71.025)" fill="#3d98ff"/><path d="M47.075,43.713c.346-.024.351-.794.433-1.144a1.1,1.1,0,0,1-.663.64,1.057,1.057,0,0,0,.23.5" transform="translate(68.988 72.334)" fill="#3d98ff"/><path d="M37.491,43.952l-.406.178c.106-.049.282-.124.406-.178" transform="translate(54.615 74.684)" fill="#3d98ff"/><path d="M57.309,40.723a.5.5,0,0,0,.208.211.381.381,0,0,0-.208-.211" transform="translate(84.399 69.197)" fill="#3d98ff"/><path d="M46.176,34.456a.819.819,0,0,0,0,.135c.089-.076.114-.13,0-.135" transform="translate(67.996 58.548)" fill="#3d98ff"/><path d="M53.433,35.54l-.24.059a2.286,2.286,0,0,0-.017.429Z" transform="translate(78.305 60.39)" fill="#3d98ff"/><path d="M77.3,19.266v.076c.156.424.1.178,0-.076" transform="translate(113.832 32.737)" fill="#3d98ff"/><path d="M31.6.273c1.516.556-2.329,1.063-.067,1.636-.23-.281,1.931-1.347.067-1.636" transform="translate(45.365 0.464)" fill="#3d98ff"/><path d="M35.868,43.13l.616-.116a2.3,2.3,0,0,0-.616.116" transform="translate(52.823 73.09)" fill="#3d98ff"/><path d="M31.1.879V.884l.232.054L31.1.879" transform="translate(45.801 1.494)" fill="#3d98ff"/><path d="M69.077,8.385a1.118,1.118,0,0,0,.079.486c.037-.067.03-.194-.079-.486" transform="translate(101.722 14.248)" fill="#3d98ff"/><path d="M75.71,16.462l-.168-.656a3.707,3.707,0,0,0,.168.656" transform="translate(111.25 26.858)" fill="#3d98ff"/><path d="M65.038,6.11a1.731,1.731,0,0,0-.757-.524.694.694,0,0,0,.079.154.871.871,0,0,1,.678.37" transform="translate(94.666 9.492)" fill="#3d98ff"/><path d="M59.773,3.409a2.18,2.18,0,0,0,.178.232,3.223,3.223,0,0,1,.4.135c-.185-.143-.388-.243-.581-.367" transform="translate(88.028 5.793)" fill="#3d98ff"/><path d="M30.477,33.267a2.372,2.372,0,0,1,.487.78c-.116-.57,1.773-.418-.487-.78" transform="translate(44.883 56.528)" fill="#3d98ff"/><path d="M35.791,43.446a.489.489,0,0,1,.334-.389q-.219.061-.423.113c-.02.119-.012.227.089.275" transform="translate(52.566 73.163)" fill="#3d98ff"/><path d="M64.288,8.31,62.6,7.171A16.613,16.613,0,0,0,64.288,8.31" transform="translate(92.194 12.185)" fill="#3d98ff"/><path d="M2.782,17.8l-.032.467a.734.734,0,0,0,.032-.467" transform="translate(4.05 30.246)" fill="#3d98ff"/><path d="M61.118,6.756a3.469,3.469,0,0,0-.821-.983.711.711,0,0,0-.282.076Z" transform="translate(88.384 9.81)" fill="#3d98ff"/><path d="M30.676,33.564l0-.008Z" transform="translate(45.174 57.019)" fill="#3d98ff"/><path d="M89.383,90.753c-1.921-.265-1,.856-1.474,1.371-2.337-.011-.989-.864-1.716-1.471-1.464.092-2.675.845-3.741.629-.059-.173-.26-.265.01-.432-1.62.537-4.513-.632-6.417.022a.635.635,0,0,1-.2-.289,2.137,2.137,0,0,1,.074,1.4c-.868-.14-1.7.329-1.931-.375.529.116.613-.135.89-.292l-.95.116c-.675-1.074,1.286-.094,1.387-.78-1.805-.022-3.988.375-5.3-.14-.136-.945,3.212.273,1.536-.856l2.037.723c-1.377-1.714,1.254.329.022-1.46-2.7-.756-3.143-.089-5.826-.926-.7.375.077.783-.623,1.158-4.055.089-2.653-2.877-5.712-2.338-.848.429-1.355,1.5-3.266.432l.89-.853c-2.619-.713-1.805,1.123-4.426-.254.574-.273,2.139.186,1.766-.035-1.622-1.247-1.38.256-2.757-.089l-.1-.966c-2.831-.543-6.051-.737-9.186-1.422.232-.219.828-.354.168-.823a47.184,47.184,0,0,1-11.871-4.168l-1.622.324c-.331-.113-.527-.534-.129-.572-1.38-.737-.2.459-.982.545-.843-.2-.974-.788-.393-.842-2.69-.213-7.8-.9-9.933-2.748l.556-.016c-1.766-1.112-2.762.561-4.184-1.066l.386.057a30.3,30.3,0,0,1-5.408-4.208A9.923,9.923,0,0,1,8.115,64.8c-.633,0-.957-1.115-1.268-2.146C6.61,61.58,6.308,60.6,5.6,60.63a11.417,11.417,0,0,1,.383-2.58c.138-.632.21-1.393.41-3.207.116-.95-.915-1.476-.912-2.756l.762.062a17.546,17.546,0,0,1-.566-1.792l1.056-.677A11.462,11.462,0,0,1,6.8,48.515c-.161.426-.569.856-.759.737.049-1.925,1.756-4.111,2.154-3.938a30.623,30.623,0,0,1,1.229-4.181c.218.256-.027.95-.119,1.544.408-2.418.846.07,1.276-2.119-.289.138-.3-.4-.408-.532a19.334,19.334,0,0,0,3.2-4.057l.183.64c1.039-1.185,2.028-2.4,3.281-3.676a48.622,48.622,0,0,1,3.872-3.809c-1.152.632-1.5-.327-.725-1.1l.831.413c.227-.877-1.053.467-.331-.98,1.118-.812,1.264.2.826.929l1.1-1.312c.22.146,0,.507.1.839.208-.912,2.678-1.072,2.97-2.4l.21.159c1.439-1.09,2.465-1.916,3.467-2.629a35.676,35.676,0,0,1,3.14-2.227c-.284-.694.784-1.117,1.288-2.1,1.973-.92,4.374-1.393,6.676-2.589,1.538-1.077.26-.807.861-1.552.366.583,2.717-.516,1.649.489,1.395-.7,2.334-1.031,3.326-1.517l3.885-1.9c-.482-.14-.977-.111-.8-.413.658-.329,1.634-.224,1.62.127l-.161.127c4.021-2.378,10.227-.74,13.419-2.707l-.183.105c1.155-.47,2.317-.939,3.5-1.347,1.679-.124-.932.661.351.9,3.759-1.73,6.172-.645,9.342-1.684,2.609,1.754,8.9-.672,12.406.507l-.21-.472c.87-.5,1.078.229,1.733.324-.1-.375-.972-.4-.428-.683,7.487-.807,15.464.437,22.947,1.436,2.735.345,1.758-2.429,5.141-.866l-1.063.772c5.68-.529,11.236,1.668,16.683,2.14-.361.121-.428.381-.945.254.994.818,4.05,1.255,4.221.726.8.313.064.518.492.931.989.7,2.992.073,3.363.956.067.14-.361.078-.571.049.789-.016,3.219,1.377,2.787.408a11.705,11.705,0,0,0,2.722,1.112,7.894,7.894,0,0,1,2.329,1.247c1.283-.283,3,1.925,3.783,1.015-.618,1.018,2.693,2.74,4.085,2.918-.544.094.8.918.126,1.093,1.308.7,2.478,1.414,2.586.7,1.5,2.856,5.215,2.213,5.381,4.837,1.882,1.207,3.761,2.311,5.447,3.609,1.667,1.325,3.276,2.651,4.846,3.992-.87.783-3.338-3.1-3.986-2.016,1.536,1.166,2.873,1.952,4.154,2.815a18.937,18.937,0,0,1,3.571,3.544c.564.872-.732-.065-1.093-.173a28.648,28.648,0,0,1,2.062,2.024l.935,1.031a6.679,6.679,0,0,1,.465.775c.769,1.449,1.491,3.161,2.406,4.664-.1.035-.341-.273-.551-.57.292.632.43,1.576.87,1.3l-.368-.58c.287-1.379,2.408,1.989,2.789,1.995-1.694-.572.685,3.474-1.6,2.313.213.381.566.8.868.61.042.594-.129.861-.621.351.682,2.219,1.11,1.331,1.362,3.533-.247.022-.393-.413-.707-.6a6.007,6.007,0,0,1,1.011,4.07c-.148-.113-.339.108-.344-.456.1,3.188,1.137,5.73-.037,9.237-.828-1.293-.579,1.126-1.54,1.034-.054.637-.131,1.266-.227,1.892l.64-.58c-.445,1.584-.339,3.261-1.2,4.375.052-.426.109-.834.131-1.269a13.817,13.817,0,0,1-1.12,2.61,8.636,8.636,0,0,0,1.071-1.166c-.359,1.657,1.162.537-.22,2.219.22-.426-1.09,1.325-2.065,1.63l0-.008A5.3,5.3,0,0,1,180,80.93c-.425.038-.589-.953-.868-.934.049,1.215-2.307,3.255-2.532,4.556a.665.665,0,0,0-.368-.783l-.045.977c-.69.4-.836.4-1.014.005-1.721,1.566,1.325.4-.977,1.976.119-.194-.017-.2.237-.6a25.859,25.859,0,0,0-2.829,2.929,18.963,18.963,0,0,1-2.962,2.481c-1.137-.335,1.568-1.6.428-1.736-1.353,1.209-2.611,2.691-3.964,4.038a28.887,28.887,0,0,1-4.382,3.328l.6-.27c.245,1.5-2.47.907-3.754,2.267.336-.3.156-.972.124-.775a17.206,17.206,0,0,0-3.264,1.935c-.566.416-1.165.856-1.81,1.328-.675.413-1.4.853-2.181,1.331l.282-.518c-1.4.262-3.449,1.309-4.889,1.763-.307.5-1.145.729-.485,1.058-2.527-.213-4.513.8-6.478,1.817-1.993.9-3.941,1.841-6.122,1.563.475-.14,1.063-.637.685-.532-1.1.453-2.216.842-3.341,1.207.4.545.527.265,1.35.567a4.243,4.243,0,0,1-2.136,1.171c1.474-.767-.213-.974-.945-1.161.148.159-.04.421.054.6-2.01-.667-.067,1.3-2.671,1.142l.072-.351a9.064,9.064,0,0,1-2.693,1.072c-.537-.629.932-.524.893-1.12-1.392.313-2.547,1.887-3.937,1.425.566-.313,1.424-.483,1.988-.8a4.2,4.2,0,0,0-2.7-.254h.1l-2.431.073.64.119c-1.486,2.162-3.541.953-5.749,2.578,2.154-1.547.289-.731.354-1.571-.638-.119-1.595-.213-1.365-.486-1.029.848-1.948-.211-3.407,1-.106-.248-1.209.167-1.043-.526-1.437.437.408.4.329.742-2.139,1.247-5.457-.232-8.553,1.512-2.742.945-3.138,1.922-5.672,2.813-.937-.265.581-1.074.581-1.074a7.428,7.428,0,0,0-3.82.651c.235-.273-.074-.416-.527-.637-1.063.254-.569,1.08-2.04.974a4.162,4.162,0,0,1,.905-1.255c-1.229.491-2.4,1.228-3.66,1.722-.425-.381.67-.842,1.083-1.231-1.437.5-3.741,1.177-4.063,1.981l.987.065c-.527.14-.386-.556-.015-.767,1.16-.812,1.859-.119,1.973.127l-.9.354c1.214,1.328,3.679-1,5.573-1.274l-.606,1.255,1.775-1.266c.453.219.823.788-.074,1.115,1.422.313,1.128-.6,2.371-.192.138.073.089.138-.02.2l1.259-.556c-.223.278.331.745-.495.723,2.433.227,3.669-1.487,4.673-.783l-.188.1c3.217-.9.205-.866,2.527-2.216l1.921,1.746.213-.866c.341-.024,1.016-.07.935.275,1.182-.758-.26-.319.4-.964,1.723.486,4.431-1.058,4.973.181.5-.71-1.617-.229.059-.937.682,1.315,1.971-.548,3.541-.167-.354.8-1.815.656-.24,1.045.724-1.368,2.93-.227,4.152-.672-.084-.974,2.663-.858,4.708-1.611-.084.332,4.035-.194,6.046-.316l-.03.175c.2-1.061,2.235-1.344,3.652-1.884.059.594-.156.883-.9,1.328l1.375-.327a2.809,2.809,0,0,1,1.523-.966l-.193.8c1.827-.486,3.467-1.871,5.917-2.041-.045-.7-2.3-1.333.022-2.472.183.335.433.923-.171,1.252.2-.105.67-.513,1.132-.478l-.823.883c1.128-.035.423-.661,1.281-.848.124.529.717.162.707.607-.2.135-.791.022-1.063.313a5.8,5.8,0,0,1,2.688-.043c-.163-.259-.193-.686.477-1,1.775-.667.791.394,1.914.286.329-.5,1.587-.548,1.377-1.312.524-.181.734.135,1,.267.826-.645,4.211-1.93,2.913-2.251l-.25.049.136-.1-.007,0,.007,0a15.633,15.633,0,0,1,4.483-2.113,24.58,24.58,0,0,0,4.451-2.17l.106.24c1.6-1.117,3.62-2.348,4.488-3.622.472-.316,1.353-.337,1.3.07a8.113,8.113,0,0,1,3.108-2.192c-.972,1.266.65.065-1.083,1.161,1.746-.845,2.24-.929,3.491-2.807-.183,1.007,1.615-.254,2.22-1.009l-1.333.486a18.617,18.617,0,0,1,2.238-1.822l.129,1.02c1.934-.8,2.851-2.618,3.855-4.06.972-1.5,1.9-2.791,3.568-3.271.321-1.223-1.805,1.288-1.627.065,1.392-1.2,3.385-1.949,3.8-2.378,1.978-1.687.618-2.74,2.539-4.6-.455.038-1.219-.175-.242-2.022,1.063-1.582,2.2-1.557,1.855-.221-.225.47-.425.634-.5.556-.262.664-.752,1.59.03,1.02l-.072-.443c.922-.78,1.973-3.463,2.146-2.626.326-1.6-.2-.821-.759.175,1.377-2.292,1.4-3.849,2.263-6.365-.24.378-.663.661-.569.254,1.105-3.72-.2-1.795.059-4.365.6-1.4,1.031.683.9-1.995.425-1.587.8-.283.989.4-.331-2.489.559-4.6.613-6.071.106.437.178.877.267,1.323a19.816,19.816,0,0,1-.215-2.108l-.539.791c.054-.775.012-1.431.257-1.439-.445-.748-.915.68-1.578-.794.21-1.047-.715-2.942-.037-3.447.277,3.2.749-.521,1.264,2.176a9.3,9.3,0,0,1-.284-1.946c.067-.132.178.076.26.278.087-1.579-.25-2.019-.648-2.327a3.134,3.134,0,0,1-1.33-2.03c.537.213.556-.993.3-1.433.4,1.19-.487.829-1.177-.084-.349-1.96-.969-1.86-1.308-2.81l.277,1.136c-.544-.175-.836-1.085-1.491-2.246.27-.267.687,1.007.638.5-1.345-1.012-.428-3.414-2.507-5.293-.393-.907.551-.672.158-1.431-1.906-1.252-1.184-2.275-3.1-3.687.035.964.213.934-1.293.143l2.863,2.572-2.26-1.2c.764.872,1.894,1.549,2.285,2.146-1.133-.521-.942-.537-.93.246-.415-1.854-2.45-1.949-3.239-3.771l1.058-1.1c-1.434-2.57-4-2.872-6.288-5.69l.658,1.015c-.72.146-1.612-1.5-2.673-2,.388-.345-.052-.958-.242-1.539-.178.351-1.991-1.719-2.821-1.072l-.838-1.59c-2.129-2-3.427-.675-5.531-2.424.954-.011.121-1.058,1.83-.332-.747-.54-1.375-1.1-1.565-.8-.267-.626-2.421-.85-2.925-1.676-.438.005-.8.426-1.649-.135-.047-.151.121-.227.121-.227-.121.227-1.521-.5-1.021.47-1.627-3.037-6.854-3.525-8.5-5.9-1.889-.57-4.134-1.285-5.8-1.908.153-.108.084-.251.381-.073-2.173-1.3-1.85.983-4.325-.4-1.132-1.255,1.523,0,.764-.583.062-1.771-3.244-.866-4.844-2.216l.462.005c-1.278-.9-3.531-.213-5.779-.8,0,0,.138-.135.059-.259-1.721.629-4.693.324-6.916.3.762-.6,1.043-.24.7-.983-1-.019.156,1.144-1.827,1.1-.6-.448-1.986-.942-2.107-1.706l1.872.181c-.863-1.069-2.426-.254-3.393-.537l.161-.4c-2.891-.124-3,.969-6.063.664l.3.34c-1.721.926-1.38-.686-3.083.04l-.472-1.082c-1.12.243-3.909.858-5.887,1.093,1.125-.812,3.459-1.136,4.918-1.557-1.1-.038-3.751-.051-4.325.5.443-.1,1-.37,1.439-.184a10.015,10.015,0,0,1-5.306,1.212c.371-2.1-5.692-.443-7.312-2-3.848.885-7.653-.081-12.21.316,1.7,1.506-1.323.132-.945,1.773-1.041.192-1.442.2-1.543.1-1.083-.235-2.171-.5-3.264-.694-.8-.394.972-.475.846-.831C72.161.985,73.456.265,71.876,0c.371.553-.727.931-2.072.856L71.74,1.4c-3.133,1.22-2.947-1-6.11.308l.967-.664c-1.637.518-6.2,1.034-7.581,2.726-.326-.121-.8-.475-.089-.756-4.05.607-8.452,3.606-11.654,3.817l.185-.48c-.7.337-1.051,1.134-2.057,1.093,0-.175.173-.491-.168-.389a7.066,7.066,0,0,1-2.71,1.52l.67-.734c-3.912,1-5.329,3.4-8.182,5.172-.225-.54-1.083-.543-2.08-.337a21.7,21.7,0,0,0-2.814,1.042l-.025-.175c-4.2,2.259-6.387,5.207-9.626,8.219-1.39.362-3.291,1.722-5.227,3.379-1.934,1.736-4.018,3.6-5.724,5.134.621-.389.527.723.082,1.431-.875.68-1.264,2.894-1.931,2.078l.247-.3c-1.273-.019-2.394,2.086-3.318,3.657l.959,1.007c-1.958,1.474-3.16,4.516-3.771,7.366-.658,2.872-.7,5.493-1.689,6.767A33.09,33.09,0,0,0,.7,56.165L0,56.138A22.167,22.167,0,0,0,1.62,65.2c-.26-.2-.517-.41-.749-.632.762,2.354,2.9,1.952,3.848,3.7l-.564,1.139c1.973,3.425,4.419,7.137,8.049,8.322a.656.656,0,0,1-.91.019,27.1,27.1,0,0,0,3.343,2.273c1.246.632,2.3.883,2.292.024-.339.993,3.435,1.56,5.254,1.614l-.467.634c1.711-.451,1.825-.688,3.927-.286.455.248.265.715-.324.324,1.5.893,1.432-.278,3.276.729l-.848.229a2.857,2.857,0,0,0,2.628.027c1.115.03,3.093,1.15,3.172,1.881a2.213,2.213,0,0,1,2.3-.108c.072.286-.324.337-.522.359,2.663,1.306,4.345.359,6.085,1.63a.59.59,0,0,0,.22.529,38.341,38.341,0,0,1-3.8-1.225c-.166.669,1.6,1.309-.054,1.819,1.568-.089,4.278-.456,5.959.319a.956.956,0,0,1,.178.3l-.2.024a2.353,2.353,0,0,0,1.135.194,8.026,8.026,0,0,0,1.4.6c.084.61,2,.872,2.891,1.123.089-.756,1.241-.34.27-1.228.131.086-.19.049-.794-.078a1.653,1.653,0,0,0-.4-.03l.077-.046c-.591-.148-1.362-.34-2.238-.556a2.693,2.693,0,0,1,2.5.381c.564-.346,1.179-.713,1.513-.869,1,1.339,3.261,2.494,3.459,3.215,2.831.305,6.567,1.25,8.556.27.816,0,.826.6,1.081.885-.482.051-1.014-.1-1.3.043,1.634,0,4.7.837,5.235-.057,1.909.853-1.269.672,1.486,1.074l-.418.224c5.156,2.626,9.114-.869,14.829,2.054-.4-.189-.6-.278-.665-.459,6.76,1.868,14.181.934,20.907,2.7,1.926.418,2.166-.259,3.36-.691l.393.829,2.045-.877c2.856-.556,4.955,2.032,8.59.745l-.477-.548c1.308.119,4.115-.47,3.917.186.131-.105.408-.588.927-.324l.054.426,3.168-.872c2.492.113-.3,1.722,3.338,1.517,1.345-.27,3.746-1.541,3.215-1.784-.544.022-1.4-.157-1.476-.578l1.2-.319c.126-1.271.932-2.624-2.087-3.266l-2.008.929-.7-.553,1.728-.175c-1.019-.5-1.607.059-2.285.462a1.315,1.315,0,0,0-.9-.6c-.65.467-1.308.866-1.968,1.3-.265-.48.865-1.009-.5-1.228-.927.6.957,1.066-.606,1.5-1.011-.532-.734-1.01-1.882-.475-.171-.316.069-.532.522-.694-1.019.424-2.72.292-3.244.95-1.039-.7-3.491.194-3.393-1a6.683,6.683,0,0,1-2.774.993c1.751-1.385-3.553-.178-3.059-1.7-1.313,1.247-4.639.435-6.941.956.131-.092.391-.281.588-.2a8.463,8.463,0,0,1-2.426-.893c-.227,1.045-2.235,1.169-3.358,1.692-1.494-1.169,1.043-1.147.618-2.17.02.861-2.777.588-2.3,1.352-1.145-.745-1.006-.4-1.548-1.339-.324,1.3-1.132.119-2.2.826-1.667-.866-.324-1.288-2.26-1.128-.858-.518.87-.769.87-.769m-45.067-6.88,0-.013c.386.086.715.159.925.208l-.927-.194m-3.721-1.045c.445.162,1.006.329,1.6.5.072.289-.134.51-.5.389.245-.111-.6-.513-1.1-.888m6.736,7.3c-.621-.057-.789-.256-.836-.429.284.062.621.127,1.063.194l.091-.07a.9.9,0,0,1-.319.305" transform="translate(0 0)" fill="#3d98ff"/><path d="M19.855,33.294a1.479,1.479,0,0,1,.257.013,2.792,2.792,0,0,0-.319-.262c-.089.059-.178.119-.262.173.109.024.223.051.324.076" transform="translate(28.763 56.152)" fill="#3d98ff"/><path d="M60.484,39.269l.082-.016a.448.448,0,0,1-.2-.032.65.65,0,0,1,.114.049" transform="translate(88.907 66.643)" fill="#3d98ff"/><path d="M2.7,19.336l-.176-.016.116.337Z" transform="translate(3.719 32.829)" fill="#3d98ff"/><path d="M52.1,40.8a.486.486,0,0,0-.309-.127c.022.046.153.086.309.127" transform="translate(76.265 69.119)" fill="#3d98ff"/><path d="M49.059,41.371l-1.313-.019a9.214,9.214,0,0,0,1.313.019" transform="translate(70.315 70.266)" fill="#3d98ff"/><path d="M45.5,41.675a1.007,1.007,0,0,0-.091.346l.015,0Z" transform="translate(66.878 70.815)" fill="#3d98ff"/><path d="M74.165,17.31a1.472,1.472,0,0,0-.134-.246c-.371-.551-.153-.159.134.246" transform="translate(108.736 28.534)" fill="#3d98ff"/><path d="M73.507,29.718a9.488,9.488,0,0,1,.45-1.1c-.428.44-.739.8-.45,1.1" transform="translate(108.088 48.635)" fill="#3d98ff"/><path d="M63.469,7.718l.01-.011-.2-.113Z" transform="translate(93.198 12.903)" fill="#3d98ff"/><path d="M74.632,28.165A3.7,3.7,0,0,0,73.623,29.4a5.055,5.055,0,0,0,1.009-1.234" transform="translate(108.424 47.858)" fill="#3d98ff"/><path d="M33.39,43.483l-.344.038a.158.158,0,0,1-.017.127Z" transform="translate(48.642 73.887)" fill="#3d98ff"/><path d="M33.243,43.545l-.359.165c.173-.035.319-.073.359-.165" transform="translate(48.428 73.992)" fill="#3d98ff"/><path d="M32.58,43.961l.752-.356c-.272.051-.613.1-.752.356" transform="translate(47.98 74.094)" fill="#3d98ff"/><path d="M36.946,43.137l.067-.292a.437.437,0,0,0-.067.292" transform="translate(54.408 72.803)" fill="#3d98ff"/><path d="M39.712,42.805a8.712,8.712,0,0,0-2.685.049l-.054.229c.383-.48,2.169.292,2.74-.278" transform="translate(54.449 72.564)" fill="#3d98ff"/><path d="M44.441,43.286l-2.384.157c.45.224,1.043.529-.02.769,3.086.391-.7-.551,2.4-.926" transform="translate(61.909 73.552)" fill="#3d98ff"/><path d="M46.309,43c-1.249.351.074.418.032.594.767-.4.95-.5-.032-.594" transform="translate(67.408 73.063)" fill="#3d98ff"/><path d="M66.609,36.375l.225.659c.814-.661-.124-.232-.225-.659" transform="translate(98.095 61.809)" fill="#3d98ff"/><path d="M69.778,32.914l-1,.283.007.785Z" transform="translate(101.294 55.929)" fill="#3d98ff"/><path d="M72.365,33.277l-.265.4,1.088-1.441Z" transform="translate(106.182 54.779)" fill="#3d98ff"/><path d="M60.767,3.562l-.032.918c.675.165,1.165-.64.032-.918" transform="translate(89.444 6.053)" fill="#3d98ff"/><path d="M46.478.878a1.991,1.991,0,0,0-2.188-.4,21.974,21.974,0,0,0,2.188.4" transform="translate(65.226 0.498)" fill="#3d98ff"/><path d="M1.708,15.269c.047-.327.126-.632.19-.953-.215.543-.4,1.107-.571,1.668Z" transform="translate(1.954 24.326)" fill="#3d98ff"/></g></svg>