<?xml version="1.0" encoding="UTF-8"?>
<svg xmlns="http://www.w3.org/2000/svg" version="1.1" viewBox="0 0 342.63 63.79">
  <defs>
    <style>
      .cls-1 {
        fill: #231f20;
      }
    </style>
  </defs>
  <!-- Generator: Adobe Illustrator 28.6.0, SVG Export Plug-In . SVG Version: 1.2.0 Build 709)  -->
  <g>
    <g id="Layer_1">
      <g>
        <g>
          <path class="cls-1" d="M73.98,17.26c-2.44-2.96-6.45-4.76-10.93-4.76-8.61,0-16.86,6.45-16.86,17.73s8.55,17.67,16.75,17.67c4.47,0,8.54-1.97,11.04-5.17v4.48h7.85V13.2h-7.85v4.07ZM64.21,40.7c-5.81,0-10.29-4.65-10.29-10.58s4.48-10.46,10.29-10.46,10.17,4.71,10.17,10.46-4.36,10.58-10.17,10.58Z"/>
          <path class="cls-1" d="M126.99,17.26c-2.45-2.96-6.45-4.76-10.93-4.76-8.6,0-16.86,6.45-16.86,17.73s8.54,17.67,16.74,17.67c4.48,0,8.55-1.97,11.04-5.17v4.48h7.85V13.2h-7.85v4.07ZM117.22,40.7c-5.81,0-10.29-4.65-10.29-10.58s4.47-10.46,10.29-10.46,10.17,4.71,10.17,10.46-4.36,10.58-10.17,10.58Z"/>
          <polygon class="cls-1" points="190.46 36.1 180.99 13.2 172.62 13.2 186.57 45.4 180.46 60.05 188.55 60.05 207.67 13.2 199.42 13.2 190.46 36.1"/>
          <polygon class="cls-1" points="171.75 13.2 162.45 13.2 154.78 23.95 147.04 13.2 137.45 13.2 149.78 29.88 136.99 47.21 146.58 47.21 154.66 35.87 162.97 47.21 172.56 47.21 159.54 29.94 171.75 13.2"/>
          <rect class="cls-1" x="87.23" y="4.19" width="7.9" height="43.02"/>
          <path class="cls-1" d="M20.75,31.01h13.54c-1.51,5.58-5.93,9.18-12.27,9.18-8.25,0-14.18-6.27-14.18-14.12s5.99-14.13,13.89-14.13c5.58,0,9.65,2.56,12.26,7.38l6.97-4.18c-3.6-6.4-10.52-10.87-19.3-10.87C9.13,4.28,0,13.98,0,26.08s8.78,21.8,22.03,21.8,20.75-9.82,20.75-21.28v-3.14h-22.03v7.56Z"/>
        </g>
        <g>
          <path class="cls-1" d="M222.89,47.29V4.83h13.61c10.06,0,15.88,5.99,15.88,14.78,0,5.12-2.56,9.89-7.15,12.39l8.49,15.3h-9.02l-6.8-12.97h-7.1v12.97h-7.91ZM235.8,27.05c6.51,0,8.67-3.55,8.67-7.74s-2.62-7.1-8.67-7.1h-5v14.83h5Z"/>
          <path class="cls-1" d="M261.41,0c3.08,0,4.94,1.98,4.94,4.94s-1.86,4.89-4.94,4.89-4.95-1.98-4.95-4.89,1.92-4.94,4.95-4.94ZM257.46,13.26h7.91v34.03h-7.91V13.26Z"/>
          <path class="cls-1" d="M271.42,13.26h7.8v4.19c2.27-2.97,5.82-4.89,10.18-4.89,8.38,0,13.49,5.47,13.49,14.54v20.18h-7.97v-19.37c0-5.23-2.56-8.55-7.68-8.55-4.48,0-7.97,3.32-7.97,9.25v18.67h-7.85V13.26Z"/>
          <path class="cls-1" d="M334.83,42.75c-2.5,3.2-6.57,5.24-11.11,5.24-8.2,0-16.75-6.57-16.75-17.68s8.26-17.74,16.87-17.74c4.48,0,8.49,1.98,10.94,5.06v-4.36h7.85v33.16c0,9.54-6.05,17.33-17.57,17.33-8.84,0-14.31-4.07-17.45-9.77l6.98-4.25c2.44,4.54,5.18,6.81,10.59,6.81,5.93,0,9.66-4.65,9.66-9.83v-3.96ZM335.18,30.19c0-5.76-4.36-10.47-10.18-10.47s-10.29,4.6-10.29,10.47,4.48,10.59,10.29,10.59,10.18-4.71,10.18-10.59Z"/>
        </g>
      </g>
    </g>
  </g>
</svg>