<?xml version="1.0" encoding="UTF-8"?>
<svg xmlns="http://www.w3.org/2000/svg" version="1.1" viewBox="0 0 600 65">
  <defs>
    <style>
      .cls-1 {
        fill: none;
      }

      .cls-1, .cls-2, .cls-3 {
        stroke-width: 0px;
      }

      .cls-2 {
        fill: #231f20;
      }

      .cls-3 {
        fill: #fff;
      }

      .cls-4 {
        display: none;
      }
    </style>
  </defs>
  <g id="b1" class="cls-4">
    <rect class="cls-2" y="297.64" width="878.74" height="297.64"/>
    <rect class="cls-1" y=".22" width="878.74" height="297.64"/>
  </g>
  <g id="b2" class="cls-4">
    <rect class="cls-1" x="0" width="878.74" height="595.28"/>
  </g>
  <g id="Logo">
    <g>
      <g>
        <path class="cls-2" d="M71.84,20.79c-2.37-2.87-6.26-4.61-10.61-4.61-8.36,0-16.37,6.25-16.37,17.16s8.3,17.1,16.26,17.1c4.34,0,8.3-1.91,10.72-5.01v4.34h7.62V16.86h-7.62v3.94ZM62.36,43.47c-5.64,0-9.99-4.5-9.99-10.24s4.35-10.13,9.99-10.13,9.88,4.56,9.88,10.13-4.23,10.24-9.88,10.24Z"/>
        <path class="cls-2" d="M123.33,20.79c-2.37-2.87-6.27-4.61-10.61-4.61-8.36,0-16.37,6.25-16.37,17.16s8.3,17.1,16.26,17.1c4.35,0,8.3-1.91,10.73-5.01v4.34h7.62V16.86h-7.62v3.94ZM113.84,43.47c-5.64,0-9.99-4.5-9.99-10.24s4.35-10.13,9.99-10.13,9.88,4.56,9.88,10.13-4.23,10.24-9.88,10.24Z"/>
        <polygon class="cls-2" points="184.97 39.03 175.77 16.86 167.64 16.86 181.19 48.03 175.26 62.21 183.11 62.21 201.68 16.86 193.66 16.86 184.97 39.03"/>
        <polygon class="cls-2" points="166.79 16.86 157.76 16.86 150.31 27.27 142.8 16.86 133.49 16.86 145.46 33.01 133.04 49.77 142.35 49.77 150.2 38.8 158.27 49.77 167.59 49.77 154.94 33.06 166.79 16.86"/>
        <rect class="cls-2" x="84.72" y="8.14" width="7.67" height="41.64"/>
        <path class="cls-2" d="M20.15,34.1h13.15c-1.47,5.4-5.76,8.89-11.91,8.89-8.01,0-13.77-6.07-13.77-13.67s5.81-13.67,13.49-13.67c5.42,0,9.37,2.47,11.91,7.14l6.77-4.05c-3.5-6.19-10.22-10.52-18.74-10.52C8.86,8.22,0,17.62,0,29.32s8.53,21.1,21.4,21.1,20.15-9.51,20.15-20.59v-3.04h-21.39v7.31Z"/>
      </g>
      <g>
        <path class="cls-2" d="M211.91,42.82l18.25-26.74h-17.63v-7.32h26.66v6.98l-18.25,26.8h18.25v7.32h-27.28v-7.04Z"/>
        <path class="cls-2" d="M255.81,8.76h23.33v7.32h-15.65v9.46h15.65v7.32h-15.65v17h-7.68V8.76Z"/>
        <path class="cls-2" d="M282.05,33.42c0-9.57,7.57-17.17,17.12-17.17s17.12,7.6,17.12,17.17-7.63,17.12-17.12,17.12-17.12-7.6-17.12-17.12ZM308.77,33.42c0-5.52-4.24-10.02-9.6-10.02s-9.6,4.5-9.6,10.02,4.12,9.97,9.6,9.97,9.6-4.5,9.6-9.97Z"/>
        <path class="cls-2" d="M320.45,8.19h7.68v41.66h-7.68V8.19Z"/>
        <path class="cls-2" d="M332.3,33.42c0-10.92,8.02-17.17,16.38-17.17,4.29,0,8.19,1.74,10.56,4.56v-12.61h7.68v41.66h-7.63v-4.28c-2.43,3.04-6.38,4.95-10.73,4.95-7.96,0-16.27-6.36-16.27-17.12ZM359.7,33.3c0-5.57-4.24-10.14-9.89-10.14s-10,4.45-10,10.14,4.35,10.25,10,10.25,9.89-4.56,9.89-10.25Z"/>
        <path class="cls-2" d="M371.21,36.46c0-3.83,1.24-7.77,3.16-10.64l10.68-17.06h9.04l-9.04,13.96c.79-.22,1.58-.34,2.43-.34,7.17,0,13.05,5.8,13.05,14.02s-6.27,14.02-14.57,14.02-14.74-6.14-14.74-13.96ZM392.96,36.23c0-3.94-3.28-7.15-7.17-7.15s-7.06,3.21-7.06,7.21,3.16,7.21,7.06,7.21,7.17-3.27,7.17-7.26Z"/>
      </g>
      <g>
        <path class="cls-2" d="M435.69,42.82l18.25-26.74h-17.63v-7.32h26.66v6.98l-18.25,26.8h18.25v7.32h-27.28v-7.04Z"/>
        <path class="cls-2" d="M479.59,8.76h23.33v7.32h-15.65v9.46h15.65v7.32h-15.65v17h-7.68V8.76Z"/>
        <path class="cls-2" d="M506.93,8.19h7.68v41.66h-7.68V8.19Z"/>
        <path class="cls-2" d="M524.07,4.08c2.99,0,4.8,1.91,4.8,4.78s-1.81,4.73-4.8,4.73-4.8-1.91-4.8-4.73,1.86-4.78,4.8-4.78ZM520.23,16.92h7.68v32.93h-7.68V16.92Z"/>
        <path class="cls-2" d="M541.06,45.97v19.03h-7.57V16.92h7.57v4.39c2.32-3.04,6.27-5.07,10.73-5.07,8.3,0,16.27,6.25,16.27,17.17s-8.19,17.12-16.21,17.12c-4.52,0-8.47-1.63-10.79-4.56ZM560.54,33.3c0-5.69-4.35-10.14-9.94-10.14s-9.83,4.56-9.83,10.14,4.12,10.25,9.83,10.25,9.94-4.5,9.94-10.25Z"/>
        <path class="cls-2" d="M570.68,36.46c0-3.83,1.24-7.77,3.16-10.64l10.68-17.06h9.04l-9.04,13.96c.79-.22,1.58-.34,2.43-.34,7.17,0,13.05,5.8,13.05,14.02s-6.27,14.02-14.57,14.02-14.74-6.14-14.74-13.96ZM592.43,36.23c0-3.94-3.28-7.15-7.17-7.15s-7.06,3.21-7.06,7.21,3.16,7.21,7.06,7.21,7.17-3.27,7.17-7.26Z"/>
      </g>
      <rect class="cls-2" x="417.08" width="2.06" height="58.69"/>
    </g>
    <g>
      <g>
        <path class="cls-3" d="M204.44,822.25c-2.44-2.96-6.45-4.76-10.93-4.76-8.61,0-16.86,6.45-16.86,17.73s8.55,17.67,16.75,17.67c4.47,0,8.54-1.97,11.04-5.17v4.48h7.85v-34.01h-7.85v4.07ZM194.67,845.68c-5.81,0-10.29-4.65-10.29-10.58s4.48-10.46,10.29-10.46,10.17,4.71,10.17,10.46-4.36,10.58-10.17,10.58Z"/>
        <path class="cls-3" d="M257.45,822.25c-2.45-2.96-6.45-4.76-10.93-4.76-8.6,0-16.86,6.45-16.86,17.73s8.54,17.67,16.74,17.67c4.48,0,8.55-1.97,11.04-5.17v4.48h7.85v-34.01h-7.85v4.07ZM247.68,845.68c-5.81,0-10.29-4.65-10.29-10.58s4.47-10.46,10.29-10.46,10.17,4.71,10.17,10.46-4.36,10.58-10.17,10.58Z"/>
        <polygon class="cls-3" points="320.92 841.09 311.45 818.18 303.07 818.18 317.03 850.39 310.92 865.03 319.01 865.03 338.13 818.18 329.87 818.18 320.92 841.09"/>
        <polygon class="cls-3" points="302.21 818.18 292.91 818.18 285.23 828.94 277.5 818.18 267.91 818.18 280.24 834.87 267.45 852.19 277.04 852.19 285.12 840.85 293.43 852.19 303.02 852.19 290 834.92 302.21 818.18"/>
        <rect class="cls-3" x="217.69" y="809.17" width="7.9" height="43.02"/>
        <path class="cls-3" d="M151.21,836h13.54c-1.51,5.58-5.93,9.18-12.27,9.18-8.25,0-14.18-6.27-14.18-14.12s5.99-14.13,13.89-14.13c5.58,0,9.65,2.56,12.26,7.38l6.97-4.18c-3.6-6.4-10.52-10.87-19.3-10.87-12.55,0-21.68,9.71-21.68,21.8s8.78,21.8,22.03,21.8,20.75-9.82,20.75-21.28v-3.14h-22.03v7.56Z"/>
      </g>
      <g>
        <path class="cls-3" d="M348.66,845l18.79-27.63h-18.15v-7.56h27.46v7.21l-18.79,27.69h18.79v7.56h-28.1v-7.27Z"/>
        <path class="cls-3" d="M393.86,809.81h24.02v7.56h-16.11v9.77h16.11v7.56h-16.11v17.57h-7.91v-42.46Z"/>
        <path class="cls-3" d="M420.89,835.29c0-9.89,7.79-17.74,17.63-17.74s17.63,7.85,17.63,17.74-7.85,17.68-17.63,17.68-17.63-7.85-17.63-17.68ZM448.41,835.29c0-5.7-4.36-10.35-9.89-10.35s-9.89,4.65-9.89,10.35,4.25,10.3,9.89,10.3,9.89-4.65,9.89-10.3Z"/>
        <path class="cls-3" d="M460.43,809.23h7.91v43.05h-7.91v-43.05Z"/>
        <path class="cls-3" d="M472.63,835.29c0-11.28,8.26-17.74,16.87-17.74,4.42,0,8.44,1.8,10.88,4.71v-13.03h7.91v43.05h-7.85v-4.42c-2.5,3.14-6.57,5.12-11.05,5.12-8.2,0-16.75-6.57-16.75-17.68ZM500.85,835.17c0-5.76-4.36-10.47-10.18-10.47s-10.3,4.6-10.3,10.47,4.48,10.59,10.3,10.59,10.18-4.71,10.18-10.59Z"/>
        <path class="cls-3" d="M512.69,838.43c0-3.95,1.28-8.03,3.26-10.99l10.99-17.63h9.31l-9.31,14.43c.81-.23,1.63-.35,2.5-.35,7.39,0,13.44,5.99,13.44,14.48s-6.46,14.48-15.01,14.48-15.18-6.34-15.18-14.43ZM535.09,838.2c0-4.07-3.37-7.39-7.39-7.39s-7.27,3.32-7.27,7.45,3.26,7.45,7.27,7.45,7.39-3.37,7.39-7.5Z"/>
      </g>
      <g>
        <path class="cls-3" d="M579.1,845l18.79-27.63h-18.15v-7.56h27.46v7.21l-18.79,27.69h18.79v7.56h-28.1v-7.27Z"/>
        <path class="cls-3" d="M624.3,809.81h24.02v7.56h-16.11v9.77h16.11v7.56h-16.11v17.57h-7.91v-42.46Z"/>
        <path class="cls-3" d="M652.45,809.23h7.91v43.05h-7.91v-43.05Z"/>
        <path class="cls-3" d="M670.1,804.98c3.08,0,4.94,1.98,4.94,4.94s-1.86,4.89-4.94,4.89-4.94-1.98-4.94-4.89,1.92-4.94,4.94-4.94ZM666.14,818.24h7.91v34.03h-7.91v-34.03Z"/>
        <path class="cls-3" d="M687.59,848.26v19.66h-7.79v-49.68h7.79v4.54c2.38-3.14,6.46-5.23,11.05-5.23,8.55,0,16.75,6.46,16.75,17.74s-8.43,17.68-16.69,17.68c-4.65,0-8.73-1.69-11.11-4.71ZM707.65,835.17c0-5.88-4.48-10.47-10.24-10.47s-10.12,4.71-10.12,10.47,4.25,10.59,10.12,10.59,10.24-4.65,10.24-10.59Z"/>
        <path class="cls-3" d="M718.09,838.43c0-3.95,1.28-8.03,3.26-10.99l10.99-17.63h9.31l-9.31,14.43c.81-.23,1.63-.35,2.5-.35,7.39,0,13.44,5.99,13.44,14.48s-6.46,14.48-15.01,14.48-15.18-6.34-15.18-14.43ZM740.49,838.2c0-4.07-3.37-7.39-7.39-7.39s-7.27,3.32-7.27,7.45,3.26,7.45,7.27,7.45,7.39-3.37,7.39-7.5Z"/>
      </g>
      <rect class="cls-3" x="559.93" y="800.76" width="2.13" height="60.63"/>
    </g>
  </g>
</svg>