<svg width="26" height="26" viewBox="0 0 26 26" fill="none" xmlns="http://www.w3.org/2000/svg">
<g id="Basket">
<path id="Rectangle 1 (Stroke)" fill-rule="evenodd" clip-rule="evenodd" d="M5.93333 8.11914C5.94596 8.11914 5.95862 8.11915 5.97132 8.11915L19.2205 8.11914C19.6218 8.11911 19.9833 8.11907 20.2783 8.15725C20.6009 8.19902 20.9295 8.29528 21.2095 8.55114C21.4895 8.807 21.6149 9.12561 21.6854 9.44321C21.75 9.73351 21.7824 10.0935 21.8184 10.4932L22.1733 14.4284C22.3533 16.4231 22.4945 17.9886 22.4356 19.2156C22.3752 20.4718 22.1024 21.4819 21.3632 22.2906C20.6241 23.0994 19.6426 23.462 18.3969 23.6349C17.1802 23.8038 15.6083 23.8038 13.6055 23.8038H11.5483C9.54554 23.8038 7.97364 23.8038 6.75694 23.6349C5.51121 23.462 4.52975 23.0994 3.79062 22.2906C3.05149 21.4819 2.77861 20.4718 2.71829 19.2156C2.65937 17.9886 2.80059 16.4231 2.98051 14.4284L3.33203 10.5311C3.33317 10.5184 3.33431 10.5058 3.33544 10.4933C3.37146 10.0935 3.4039 9.73351 3.46842 9.44321C3.539 9.12561 3.66439 8.807 3.94437 8.55114C4.22434 8.29528 4.55293 8.19902 4.87558 8.15725C5.17051 8.11907 5.532 8.11911 5.93333 8.11914ZM4.82135 9.51078C4.81315 9.51807 4.77619 9.55095 4.73745 9.72525C4.69339 9.9235 4.66733 10.1982 4.62678 10.6479L4.27992 14.4935C4.09433 16.5511 3.96271 18.0269 4.01679 19.1532C4.06998 20.2609 4.2999 20.9209 4.75026 21.4137C5.20062 21.9065 5.83728 22.1948 6.93568 22.3472C8.05263 22.5023 9.53423 22.5038 11.6002 22.5038H13.5536C15.6196 22.5038 17.1012 22.5023 18.2182 22.3472C19.3166 22.1948 19.9532 21.9065 20.4036 21.4137C20.8539 20.9209 21.0839 20.2609 21.1371 19.1532C21.1911 18.0269 21.0595 16.5511 20.8739 14.4935L20.5271 10.6479C20.4865 10.1982 20.4605 9.9235 20.4164 9.72525C20.3777 9.55095 20.3414 9.51872 20.3332 9.51143C20.333 9.51119 20.3334 9.51162 20.3332 9.51143C20.333 9.51124 20.3321 9.51037 20.3318 9.51012C20.3238 9.50261 20.2885 9.46942 20.1114 9.44649C19.91 9.42042 19.634 9.41915 19.1825 9.41915H5.97132C5.51985 9.41915 5.24389 9.42042 5.04248 9.44649C4.8654 9.46942 4.82934 9.50327 4.82135 9.51078Z" fill="#333333"/>
<path id="Vector-2 (Stroke)" fill-rule="evenodd" clip-rule="evenodd" d="M12.5769 2.196C15.4158 2.15141 17.8222 4.29207 17.8806 7.06205L17.8809 7.07574L17.8808 10.0376C17.8808 10.3966 17.5897 10.6876 17.2308 10.6876C16.8718 10.6876 16.5808 10.3966 16.5808 10.0376V7.08289C16.5351 5.09646 14.7839 3.45693 12.5885 3.49598C12.5808 3.49612 12.5731 3.49612 12.5654 3.49598C10.3699 3.45693 8.6187 5.09646 8.57307 7.08288V10.0376C8.57307 10.3966 8.28206 10.6876 7.92307 10.6876C7.56409 10.6876 7.27307 10.3966 7.27307 10.0376V7.06204C7.33144 4.29207 9.73807 2.15141 12.5769 2.196Z" fill="#333333"/>
<path id="Vector" d="M10.5443 15.7242C10.4237 15.7242 10.3241 15.8231 10.3241 15.9403V18.3929C10.3241 18.5126 10.4211 18.6063 10.5443 18.6063H15.0068C15.1274 18.6063 15.227 18.51 15.227 18.3929V15.9403C15.227 15.8231 15.13 15.7242 15.0068 15.7242H10.5443ZM16.024 19.6894H9.54799C9.118 19.6894 8.76929 19.3405 8.76929 18.9136V12.2667L10.3267 11.3086V14.4276C10.3267 14.5474 10.4237 14.6437 10.5469 14.6437H16.0267C16.4567 14.6437 16.8054 14.9926 16.8054 15.4196V18.9136C16.8054 19.3405 16.4567 19.6894 16.0267 19.6894H16.024Z" fill="#333333"/>
<path id="Vector (Stroke)" fill-rule="evenodd" clip-rule="evenodd" d="M8.56934 12.1534L10.5267 10.9492V14.4261C10.5267 14.4307 10.5282 14.4339 10.531 14.4366C10.5337 14.4393 10.5386 14.4422 10.547 14.4422H16.0267C16.5667 14.4422 17.0054 14.8802 17.0054 15.4181V18.912C17.0054 19.4499 16.5667 19.8879 16.0267 19.8879H9.54804C9.00804 19.8879 8.56934 19.4499 8.56934 18.912V12.1534ZM10.5293 15.9293C10.5245 15.9341 10.5241 15.9379 10.5241 15.9388V18.3913C10.5241 18.394 10.5246 18.3954 10.5249 18.3962C10.5253 18.3971 10.526 18.3982 10.5272 18.3993C10.5292 18.4013 10.5343 18.4048 10.5444 18.4048H15.0068C15.0132 18.4048 15.0189 18.4023 15.023 18.3984C15.027 18.3945 15.027 18.3918 15.027 18.3913V15.9388C15.027 15.9363 15.0261 15.9326 15.0222 15.9287C15.0186 15.9251 15.0136 15.9227 15.0068 15.9227H10.5444C10.5396 15.9227 10.5341 15.9246 10.5293 15.9293ZM10.3267 14.4261C10.3267 14.5459 10.4237 14.6422 10.547 14.6422H16.0267C16.4567 14.6422 16.8054 14.9911 16.8054 15.4181V18.912C16.8054 19.339 16.4567 19.6879 16.0267 19.6879H9.54804C9.11805 19.6879 8.76934 19.339 8.76934 18.912V12.2652L10.3267 11.3071V14.4261ZM10.3241 15.9388C10.3241 15.8216 10.4237 15.7227 10.5444 15.7227H15.0068C15.13 15.7227 15.227 15.8216 15.227 15.9388V18.3913C15.227 18.5085 15.1274 18.6048 15.0068 18.6048H10.5444C10.4211 18.6048 10.3241 18.5111 10.3241 18.3913V15.9388Z" fill="#333333"/>
</g>
</svg>
