<svg width="26" height="26" viewBox="0 0 26 26" fill="none" xmlns="http://www.w3.org/2000/svg">
<g id="Favorite_light">
<path id="Vector 15 (Stroke)" fill-rule="evenodd" clip-rule="evenodd" d="M20.1564 8.01711C18.5532 5.95077 15.3352 6.29731 14.2087 8.65761C13.7235 9.67414 12.2766 9.67414 11.7914 8.65761C10.6649 6.29731 7.44686 5.95077 5.84367 8.01712L5.53431 8.41584C4.14202 10.2103 4.34305 12.7694 5.99847 14.3245L12.9511 20.8557C12.9686 20.8722 12.9848 20.8874 13.0001 20.9017C13.0153 20.8874 13.0316 20.8722 13.049 20.8557L20.0016 14.3245C21.6571 12.7694 21.8581 10.2103 20.4658 8.41584L20.1564 8.01711ZM13.0001 7.52926C14.8145 4.49567 19.1908 4.16235 21.4206 7.03632L21.7299 7.43504C23.6281 9.8816 23.3541 13.3705 21.0971 15.4907L14.1264 22.0389C14.0228 22.1363 13.9073 22.2449 13.7978 22.3292C13.6713 22.4267 13.4915 22.5417 13.2504 22.589C13.0851 22.6215 12.915 22.6215 12.7497 22.589C12.5086 22.5417 12.3288 22.4267 12.2023 22.3292C12.0928 22.2449 11.9773 22.1363 11.8737 22.0389L4.90299 15.4907C2.64606 13.3705 2.37199 9.8816 4.27018 7.43504L4.57953 7.03632C6.80934 4.16235 11.1856 4.49567 13.0001 7.52926Z" fill="#333333"/>
</g>
</svg>
