<svg width="88" height="40" viewBox="0 0 88 40" fill="none" xmlns="http://www.w3.org/2000/svg">
<g id="&#235;&#185;&#132;&#235;&#185;&#132;&#237;&#129;&#144;&#235;&#170;&#176;">
<mask id="mask0_718_20188" style="mask-type:alpha" maskUnits="userSpaceOnUse" x="0" y="0" width="88" height="40">
<rect id="Rectangle 4892" width="87.5" height="40" fill="#D9D9D9"/>
</mask>
<g mask="url(#mask0_718_20188)">
<g id="&#235;&#185;&#132;&#235;&#185;&#132;&#237;&#129;&#144;&#235;&#170;&#176;_&#235;&#161;&#156;&#234;&#179;&#160;">
<g id="Group">
<path id="Vector" d="M32.1002 8.81445H26.9619C26.8241 8.81445 26.7103 8.92878 26.7103 9.06358V11.9068C26.7103 12.0446 26.8241 12.1554 26.9619 12.1554H32.1002C32.2398 12.1554 32.3511 12.0446 32.3511 11.9068V9.06358C32.3511 8.92878 32.2398 8.81445 32.1002 8.81445Z" fill="#333333"/>
<path id="Vector_2" d="M10.2562 8.81445H5.11791C4.9783 8.81445 4.86517 8.92878 4.86517 9.06358V11.9068C4.86517 12.0446 4.9783 12.1554 5.11791 12.1554H10.2562C10.3958 12.1554 10.509 12.0446 10.509 11.9068V9.06358C10.509 8.92878 10.3958 8.81445 10.2562 8.81445Z" fill="#333333"/>
<path id="Vector_3" d="M20.0086 8.81445H14.8709C14.7313 8.81445 14.6176 8.92878 14.6176 9.06358V11.9068C14.6176 12.0446 14.7307 12.1554 14.8709 12.1554H20.0086C20.147 12.1554 20.2613 12.0446 20.2613 11.9068V9.06358C20.2613 8.92878 20.1476 8.81445 20.0086 8.81445Z" fill="#333333"/>
<path id="Vector_4" d="M34.296 1.25H2.92569C1.31241 1.25 0 2.56121 0 4.17028V16.0728C0 17.6867 1.31241 18.9937 2.92569 18.9937H34.296C35.9068 18.9937 37.2174 17.6867 37.2174 16.0728V4.17028C37.2174 2.5606 35.9068 1.25 34.296 1.25ZM12.322 12.5123C12.322 13.0069 11.9194 13.4101 11.4242 13.4101H3.96852C3.47328 13.4101 3.07192 13.0069 3.07192 12.5123V4.80693L4.86452 3.6973V7.3114C4.86452 7.451 4.97765 7.56232 5.11725 7.56232H11.4236C11.9194 7.56232 12.3214 7.9661 12.3214 8.46194V12.5123H12.322ZM22.0745 12.5123C22.0745 13.0069 21.6713 13.4101 21.1779 13.4101H13.7222C13.2276 13.4101 12.8244 13.0069 12.8244 12.5123V4.80693L14.6176 3.6973V7.3114C14.6176 7.451 14.7308 7.56232 14.871 7.56232H21.1797C21.6725 7.56232 22.0769 7.9661 22.0769 8.46194L22.0751 12.5123H22.0745ZM23.4862 11.434C22.9849 11.434 22.5787 11.0278 22.5787 10.5295C22.5787 10.0313 22.9849 9.6203 23.4862 9.6203C23.9874 9.6203 24.393 10.0283 24.393 10.5295C24.393 11.0308 23.9856 11.434 23.4862 11.434ZM34.1449 16.1643L32.3505 17.2757V13.664C32.3505 13.5226 32.2392 13.4101 32.0996 13.4101H25.7909C25.2974 13.4101 24.8955 13.0069 24.8955 12.5123V8.46194C24.8955 7.9667 25.2974 7.56232 25.7927 7.56232H33.2501C33.7436 7.56232 34.1449 7.9661 34.1449 8.46194V16.1643Z" fill="#333333"/>
</g>
<path id="Vector_5" d="M78.2643 9.6875L71.9935 13.564V39.7881H78.2643V9.6875Z" fill="#E31937"/>
<path id="Vector_6" d="M87.5 9.6875L81.2292 13.564V39.7881H87.5V9.6875Z" fill="#E31937"/>
<path id="Vector_7" d="M0.0475464 39.7881H6.31835V26.2199H15.554V39.7881H21.8248V26.2199H31.0604V39.7881H37.3312V24.6842C37.3312 22.9506 35.9255 21.5449 34.1919 21.5449H3.18686C1.45262 21.5449 0.0475464 22.9506 0.0475464 24.6842V39.7881Z" fill="#E31937"/>
<path id="Vector_8" d="M43.4358 39.7875H65.5476C67.2812 39.7875 68.6869 38.3818 68.6869 36.6482V24.6842C68.6869 22.9506 67.2812 21.5449 65.5476 21.5449H43.4358C41.7022 21.5449 40.2965 22.9506 40.2965 24.6842V26.2193H62.4161V28.3284H43.4358C41.7022 28.3284 40.2965 29.7341 40.2965 31.4677V36.6476C40.2965 38.3818 41.7022 39.7869 43.4358 39.7869V39.7875ZM46.5673 35.1125V33.0034H62.4161V35.1125H46.5673Z" fill="#E31937"/>
</g>
</g>
</g>
</svg>
