<svg width="35" height="35" viewBox="0 0 35 35" fill="none" xmlns="http://www.w3.org/2000/svg">
<g id="icon_my 1" clip-path="url(#clip0_301_420)">
<path id="Vector" d="M17.5 0C7.85 0 0 7.85 0 17.5C0 27.15 7.85 35 17.5 35C27.15 35 35 27.15 35 17.5C35 7.85 27.15 0 17.5 0ZM17.5 2C26.05 2 33 8.95 33 17.5C33 20.62 32.07 23.52 30.48 25.95C29.1 21.72 25.7 18.42 21.49 17.12C23.02 15.93 24 14.08 24 12C24 8.42 21.08 5.5 17.5 5.5C13.92 5.5 11 8.42 11 12C11 14.08 11.98 15.93 13.51 17.12C9.31 18.43 5.9 21.72 4.52 25.95C2.93 23.51 2 20.62 2 17.5C2 8.95 8.95 2 17.5 2ZM13 12C13 9.52 15.02 7.5 17.5 7.5C19.98 7.5 22 9.52 22 12C22 14.48 19.98 16.5 17.5 16.5C15.02 16.5 13 14.48 13 12ZM17.5 33C12.97 33 8.91 31.04 6.07 27.94C7.12 22.53 11.94 18.5 17.5 18.5C23.06 18.5 27.88 22.53 28.93 27.94C26.09 31.04 22.03 33 17.5 33Z" fill="white"/>
</g>
<defs>
<clipPath id="clip0_301_420">
<rect width="35" height="35" fill="white"/>
</clipPath>
</defs>
</svg>
