<svg width="61" height="60" viewBox="0 0 61 60" fill="none" xmlns="http://www.w3.org/2000/svg">
<g clip-path="url(#clip0_847_838)">
<circle cx="30.7677" cy="30" r="30" fill="#CD2125"/>
<path d="M17.465 24.5195V26.0918H7.12903V24.5195H11.34V23.2617H13.2814V24.5195H17.465ZM18.0665 31.3691V32.9551H13.2814V35.8262H11.34V32.9551H6.59583V31.3691H18.0665ZM12.3107 26.5156C15.0587 26.5156 16.713 27.2676 16.713 28.6758C16.713 30.084 15.0587 30.8359 12.3107 30.8359C9.56262 30.8359 7.90833 30.084 7.90833 28.6758C7.90833 27.2676 9.56262 26.5156 12.3107 26.5156ZM12.3107 27.9512C10.6974 27.9512 9.94543 28.1699 9.95911 28.6758C9.94543 29.1816 10.6974 29.3867 12.3107 29.3867C13.9103 29.3867 14.6622 29.1816 14.6759 28.6758C14.6622 28.1699 13.9103 27.9512 12.3107 27.9512ZM29.4142 23.2754V32.7363H27.4318V31.834H25.0939V30.5078H27.4318V23.2754H29.4142ZM29.674 34.0352V35.6074H20.1857V31.834H21.9083V30.248C20.8282 30.2891 19.796 30.3027 18.8732 30.3027L18.6544 28.7578C20.9513 28.7305 24.0275 28.7031 26.6661 28.375L26.7755 29.7695C25.8322 29.9336 24.8546 30.0498 23.8907 30.125V32.4766H22.1544V34.0352H29.674ZM22.715 23.6719C24.547 23.6719 25.8595 24.6152 25.8595 25.9414C25.8595 27.2949 24.547 28.1699 22.715 28.1699C20.8556 28.1699 19.5568 27.2949 19.5568 25.9414C19.5568 24.6152 20.8556 23.6719 22.715 23.6719ZM22.715 25.1074C21.9357 25.1074 21.4161 25.3809 21.4161 25.9414C21.4161 26.4883 21.9357 26.7617 22.715 26.7617C23.4532 26.7617 23.9865 26.4883 24.0001 25.9414C23.9865 25.3809 23.4532 25.1074 22.715 25.1074ZM40.7482 23.2617V28.0879H42.5255V29.7148H40.7482V35.8125H38.8068V23.2617H40.7482ZM38.0685 25.0938V26.6523H30.7267V25.0938H33.4474V23.4668H35.4161V25.0938H38.0685ZM34.4318 27.2539C36.2638 27.2539 37.6583 28.5117 37.672 30.2754C37.6583 32.0527 36.2638 33.2969 34.4318 33.2969C32.545 33.2969 31.1642 32.0527 31.1779 30.2754C31.1642 28.5117 32.545 27.2539 34.4318 27.2539ZM34.4318 28.8398C33.6251 28.8535 33.0509 29.373 33.0646 30.2754C33.0509 31.2051 33.6251 31.6973 34.4318 31.6973C35.2111 31.6973 35.7716 31.2051 35.7853 30.2754C35.7716 29.373 35.2111 28.8535 34.4318 28.8398ZM53.4904 23.2617V35.8125H51.4943V23.2617H53.4904ZM49.7169 24.5605C49.7169 28.4297 48.4865 31.5742 43.92 33.7207L42.8947 32.1621C46.087 30.6514 47.4269 28.7988 47.7072 26.0918H43.6056V24.5605H49.7169Z" fill="white"/>
</g>
<defs>
<clipPath id="clip0_847_838">
<rect width="60" height="60" fill="white" transform="translate(0.7677)"/>
</clipPath>
</defs>
</svg>
