<svg width="27" height="36" viewBox="0 0 27 36" fill="none" xmlns="http://www.w3.org/2000/svg">
<g clip-path="url(#clip0_533_3453)">
<path fill-rule="evenodd" clip-rule="evenodd" d="M26.384 6.1601C26.061 6.5371 25.601 6.7311 25.137 6.7311C24.765 6.7311 24.391 6.6061 24.084 6.3501C24.064 6.3331 24.049 6.3111 24.029 6.2921L23.216 7.1931L23.803 7.7341L23.614 8.1401C23.57 8.2361 22.859 9.7431 21.768 11.2611C23.147 13.0541 23.879 15.1081 23.879 17.2491V17.8641H1.588V17.2491C1.588 14.1061 2.349 11.4151 3.788 9.4691C5.395 7.2941 7.793 6.1451 10.724 6.1451C11.574 6.1451 12.419 6.2201 13.249 6.3591C15.039 4.9181 17.169 4.2701 17.263 4.2421L17.553 4.1551L18.084 4.5341L18.603 3.8521C17.857 3.3581 17.648 2.3491 18.137 1.6021C18.635 0.854099 19.649 0.645099 20.399 1.1331C20.402 1.1341 20.404 1.1361 20.407 1.1381C20.598 1.2661 20.759 1.4311 20.88 1.6221C21.105 1.6581 21.322 1.7401 21.515 1.8661C21.882 2.1041 22.132 2.4711 22.221 2.8991C22.309 3.3251 22.225 3.7601 21.984 4.1231C21.669 4.5951 21.147 4.8521 20.614 4.8521C20.308 4.8521 19.999 4.7671 19.725 4.5891C19.722 4.5871 19.719 4.5851 19.717 4.5831C19.69 4.5651 19.668 4.5411 19.642 4.5221L19.087 5.2521L19.788 5.7531L19.347 6.6041C20.542 6.1561 21.49 5.9911 21.542 5.9811L21.842 5.9301L22.309 6.3591L23.081 5.5031C23.076 5.4991 23.07 5.4961 23.065 5.4921C22.382 4.9131 22.296 3.8861 22.873 3.2011C23.456 2.5181 24.487 2.4331 25.175 3.0071C25.352 3.1571 25.494 3.3411 25.592 3.5451C25.812 3.6071 26.017 3.7151 26.193 3.8641C26.527 4.1441 26.731 4.5361 26.768 4.9691C26.804 5.4041 26.668 5.8261 26.384 6.1601ZM19.285 2.8261C19.389 2.8931 19.495 2.8971 19.565 2.8881C19.868 2.8501 20.153 3.0381 20.236 3.3311C20.262 3.4231 20.321 3.5051 20.403 3.5611C20.59 3.6801 20.831 3.6281 20.955 3.4431C21.013 3.3561 21.033 3.2511 21.012 3.1471C20.99 3.0431 20.93 2.9541 20.841 2.8971C20.737 2.8291 20.629 2.8251 20.558 2.8341C20.255 2.8711 19.97 2.6831 19.888 2.3911C19.861 2.2981 19.802 2.2161 19.721 2.1611C19.534 2.0421 19.292 2.0931 19.169 2.2781C19.05 2.4601 19.099 2.7021 19.285 2.8261ZM17.337 5.5151C16.864 5.6821 15.861 6.0791 14.852 6.7231C15.677 6.9571 16.476 7.2621 17.24 7.6341C17.326 7.5801 17.416 7.5271 17.506 7.4741L18.202 6.1331L17.337 5.5151ZM21.462 7.2541C20.909 7.3791 19.651 7.7121 18.433 8.3661L18.423 8.3851L18.409 8.3781C17.006 9.1371 15.662 10.3231 15.517 12.1131C15.48 12.5791 15.648 13.0391 15.989 13.4061C16.381 13.8291 16.962 14.0811 17.543 14.0811V15.3111C16.61 15.3111 15.713 14.9211 15.083 14.2411C14.505 13.6191 14.223 12.8301 14.286 12.0161C14.395 10.6701 15.025 9.4721 16.126 8.4751C14.447 7.7551 12.6 7.3751 10.724 7.3751C5.943 7.3751 3.024 10.8231 2.833 16.6341H22.621C22.504 15.0891 21.942 13.6041 20.981 12.2661C20.59 12.7211 20.17 13.1471 19.725 13.5001L18.957 12.5361C20.506 11.3101 21.814 8.9581 22.296 8.0211L21.462 7.2541ZM25.399 4.8051C25.397 4.8041 25.395 4.8031 25.395 4.8031C25.322 4.7411 25.235 4.7101 25.136 4.7131C25.132 4.7131 25.127 4.7131 25.123 4.7131C24.818 4.7131 24.557 4.4901 24.513 4.1871C24.499 4.0941 24.451 4.0091 24.379 3.9471C24.209 3.8051 23.96 3.8251 23.816 3.9951C23.674 4.1631 23.694 4.4111 23.864 4.5541C23.937 4.6161 24.023 4.6461 24.123 4.6441C24.127 4.6441 24.132 4.6441 24.136 4.6441C24.441 4.6441 24.702 4.8681 24.747 5.1701C24.76 5.2641 24.808 5.3481 24.88 5.4101C25.05 5.5521 25.299 5.5321 25.443 5.3621C25.513 5.2811 25.546 5.1781 25.537 5.0731C25.529 4.9681 25.479 4.8731 25.399 4.8051ZM16.067 12.2801C16.067 11.2581 16.898 10.1931 16.992 10.0761L17.956 10.8431L17.474 10.4591L17.957 10.8431C17.704 11.1611 17.301 11.8321 17.301 12.2801H16.067ZM6.817 9.5431C7.119 9.0631 7.703 8.6321 7.768 8.5841L8.182 9.1521L8.495 9.5791C8.321 9.7051 7.997 9.9841 7.864 10.1951L6.817 9.5431ZM4.85 12.4161C4.907 11.8581 5.289 10.8461 5.332 10.7331L6.486 11.1711C6.344 11.5411 6.109 12.2401 6.079 12.5381L4.85 12.4161ZM8.354 13.5591H7.119V12.2801H8.354V13.5591ZM23.298 18.6891C24.354 18.6891 25.214 19.5451 25.214 20.5971C25.214 21.6501 24.354 22.5061 23.298 22.5061H22.883L20.939 35.5031C20.897 35.7891 20.651 35.9991 20.362 35.9991H4.85C4.561 35.9991 4.316 35.7891 4.274 35.5031L2.33 22.5061H1.915C0.859001 22.5061 -0.000999451 21.6501 -0.000999451 20.5971C-0.000999451 19.5451 0.859001 18.6891 1.915 18.6891H23.298ZM5.354 34.8371H19.86L21.704 22.5061H3.509L5.354 34.8371ZM1.166 20.5971C1.166 21.0091 1.502 21.3441 1.915 21.3441H23.298C23.711 21.3441 24.047 21.0091 24.047 20.5971C24.047 20.1861 23.711 19.8511 23.298 19.8511H1.915C1.502 19.8511 1.166 20.1861 1.166 20.5971Z" fill="#3D3B36"/>
</g>
<defs>
<clipPath id="clip0_533_3453">
<rect width="27" height="36" fill="white"/>
</clipPath>
</defs>
</svg>
