<svg width="238" height="40" viewBox="0 0 238 40" fill="none" xmlns="http://www.w3.org/2000/svg">
<path d="M224.622 22.6826L217.299 0.550293H223.741L227.87 14.6995H227.98L232.109 0.550293H238L230.678 22.6826V39.0891H224.622V22.6826Z" fill="#93B273"/>
<path d="M205.271 0.550293H213.474L219.751 39.0891H213.694L212.593 31.4364V31.5465H205.711L204.61 39.0891H198.995L205.271 0.550293ZM211.878 26.3162L209.18 7.26706H209.07L206.427 26.3162H211.878Z" fill="#93B273"/>
<path d="M182.552 0.550293H188.608V33.5836H198.573V39.0891H182.552V0.550293Z" fill="#93B273"/>
<path d="M163.652 0.550293H180.169V6.05584H169.708V16.2411H178.022V21.7466H169.708V33.5836H180.169V39.0891H163.652V0.550293Z" fill="#93B273"/>
<path d="M142.549 0.550293H151.523C154.643 0.550293 156.918 1.28437 158.35 2.75251C159.781 4.18395 160.497 6.40452 160.497 9.41422V11.7816C160.497 15.7823 159.176 18.3148 156.533 19.3793V19.4894C158.001 19.9298 159.029 20.829 159.616 22.1871C160.24 23.5451 160.552 25.3619 160.552 27.6376V34.4094C160.552 35.5105 160.589 36.4097 160.662 37.1071C160.735 37.7678 160.919 38.4284 161.213 39.0891H155.046C154.826 38.4651 154.679 37.8779 154.606 37.3273C154.533 36.7768 154.496 35.7858 154.496 34.3543V27.3072C154.496 25.5455 154.202 24.3159 153.615 23.6185C153.064 22.9212 152.092 22.5725 150.697 22.5725H148.605V39.0891H142.549V0.550293ZM150.807 17.0669C152.018 17.0669 152.918 16.7549 153.505 16.131C154.129 15.507 154.441 14.461 154.441 12.9928V10.0198C154.441 8.62509 154.184 7.61574 153.67 6.99178C153.193 6.36782 152.422 6.05584 151.358 6.05584H148.605V17.0669H150.807Z" fill="#93B273"/>
<path d="M112.438 0.550293H120.036L125.927 23.6185H126.037V0.550293H131.433V39.0891H125.211L117.944 10.9558H117.834V39.0891H112.438V0.550293Z" fill="#93B273"/>
<path d="M93.5386 0.550293H110.055V6.05584H99.5947V16.2411H107.908V21.7466H99.5947V33.5836H110.055V39.0891H93.5386V0.550293Z" fill="#93B273"/>
<path d="M71.8433 0.550293H77.8994V16.7916L85.6071 0.550293H91.6632L84.451 14.6995L91.7733 39.0891H85.442L80.3218 21.9118L77.8994 26.8117V39.0891H71.8433V0.550293Z" fill="#93B273"/>
<path d="M60.4024 39.6399C57.5028 39.6399 55.2822 38.8141 53.7407 37.1624C52.2358 35.5108 51.4834 33.1801 51.4834 30.1704V9.46953C51.4834 6.45984 52.2358 4.12916 53.7407 2.4775C55.2822 0.825832 57.5028 0 60.4024 0C63.302 0 65.5042 0.825832 67.009 2.4775C68.5506 4.12916 69.3214 6.45984 69.3214 9.46953V13.5436H63.5956V9.08415C63.5956 6.69841 62.5862 5.50555 60.5675 5.50555C58.5488 5.50555 57.5395 6.69841 57.5395 9.08415V30.6108C57.5395 32.9599 58.5488 34.1344 60.5675 34.1344C62.5862 34.1344 63.5956 32.9599 63.5956 30.6108V24.7199H69.3214V30.1704C69.3214 33.1801 68.5506 35.5108 67.009 37.1624C65.5042 38.8141 63.302 39.6399 60.4024 39.6399Z" fill="#93B273"/>
<path d="M42.3779 0.550293H48.434V39.0891H42.3779V0.550293Z" fill="#93B273"/>
<path d="M20.3604 0.550293H26.4165V16.2411H32.913V0.550293H38.9691V39.0891H32.913V21.7466H26.4165V39.0891H20.3604V0.550293Z" fill="#93B273"/>
<path d="M8.91898 39.6399C6.0194 39.6399 3.79883 38.8141 2.25727 37.1624C0.752424 35.5108 0 33.1801 0 30.1704V9.46953C0 6.45984 0.752424 4.12916 2.25727 2.4775C3.79883 0.825832 6.0194 0 8.91898 0C11.8186 0 14.0208 0.825832 15.5256 2.4775C17.0672 4.12916 17.838 6.45984 17.838 9.46953V13.5436H12.1122V9.08415C12.1122 6.69841 11.1028 5.50555 9.08415 5.50555C7.06545 5.50555 6.0561 6.69841 6.0561 9.08415V30.6108C6.0561 32.9599 7.06545 34.1344 9.08415 34.1344C11.1028 34.1344 12.1122 32.9599 12.1122 30.6108V24.7199H17.838V30.1704C17.838 33.1801 17.0672 35.5108 15.5256 37.1624C14.0208 38.8141 11.8186 39.6399 8.91898 39.6399Z" fill="#93B273"/>
</svg>
