<svg width="32" height="32" viewBox="0 0 32 32" fill="none" xmlns="http://www.w3.org/2000/svg">
<g id="File_dock_light">
<path id="Vector 55" d="M11.333 16.6667L20.6663 16.6667" stroke="#B92C35" stroke-width="1.8" stroke-linecap="round"/>
<path id="Vector 58" d="M11.333 20.6667L16.6663 20.6667" stroke="#B92C35" stroke-width="1.8" stroke-linecap="round"/>
<path id="Rectangle 4152" d="M7.33301 7.06675C7.33301 6.22667 7.33301 5.80663 7.4965 5.48576C7.64031 5.20352 7.86978 4.97405 8.15202 4.83024C8.47289 4.66675 8.89293 4.66675 9.73301 4.66675H17.0056C17.3724 4.66675 17.5559 4.66675 17.7285 4.70819C17.8816 4.74494 18.0279 4.80554 18.1621 4.88779C18.3135 4.98055 18.4432 5.11026 18.7026 5.36969L23.9634 10.6305C24.2228 10.8899 24.3525 11.0196 24.4453 11.171C24.5275 11.3052 24.5882 11.4515 24.6249 11.6046C24.6663 11.7772 24.6663 11.9606 24.6663 12.3275V24.9334C24.6663 25.7735 24.6663 26.1935 24.5029 26.5144C24.359 26.7966 24.1296 27.0261 23.8473 27.1699C23.5265 27.3334 23.1064 27.3334 22.2663 27.3334H9.73301C8.89293 27.3334 8.47289 27.3334 8.15202 27.1699C7.86978 27.0261 7.64031 26.7966 7.4965 26.5144C7.33301 26.1935 7.33301 25.7735 7.33301 24.9334V7.06675Z" stroke="#B92C35" stroke-width="1.8"/>
<path id="Vector 317" d="M16.667 4.66675V10.2667C16.667 11.1068 16.667 11.5269 16.8305 11.8477C16.9743 12.13 17.2038 12.3594 17.486 12.5033C17.8069 12.6667 18.2269 12.6667 19.067 12.6667H24.667" stroke="#B92C35" stroke-width="1.8"/>
</g>
</svg>
