<svg width="27" height="39" viewBox="0 0 27 39" fill="none" xmlns="http://www.w3.org/2000/svg">
<g clip-path="url(#clip0_533_3451)">
<path fill-rule="evenodd" clip-rule="evenodd" d="M25.803 38.809H1.188C0.839999 38.809 0.556999 38.528 0.556999 38.181C0.556999 37.834 0.839999 37.553 1.188 37.553H4.011C1.824 35.517 0.556999 32.67 0.556999 29.636C0.556999 26.521 1.905 23.553 4.255 21.492C7.027 19.062 8.616 15.689 8.616 12.24V9.60896H8.516C7.599 9.60896 6.853 8.86596 6.853 7.95296V6.23196C6.853 5.47096 7.374 4.83496 8.077 4.64196L7.543 2.45796C7.408 1.90696 7.532 1.33596 7.884 0.889965C8.236 0.443965 8.764 0.188965 9.334 0.188965H13.606C14.175 0.188965 14.704 0.443965 15.056 0.889965C15.408 1.33596 15.533 1.90696 15.398 2.45796L14.864 4.64196C15.567 4.83496 16.088 5.47096 16.088 6.23196V7.95296C16.088 8.86596 15.341 9.60896 14.424 9.60896H14.324V12.241C14.324 13.854 14.66 15.438 15.322 16.946C15.461 17.264 15.315 17.633 14.996 17.773C14.677 17.912 14.305 17.766 14.166 17.448C13.434 15.78 13.063 14.028 13.063 12.241V9.60896H9.878V12.24C9.878 16.05 8.132 19.766 5.089 22.434C3.011 24.257 1.819 26.881 1.819 29.636C1.819 32.811 3.388 35.756 6.021 37.553H9.875C8.788 36.493 8.087 34.858 8.087 33.024C8.087 30.064 9.907 27.62 12.243 27.282C12.396 26.386 12.833 24.459 13.971 22.339C13.741 22.396 13.501 22.437 13.247 22.454C13.156 22.46 13.065 22.463 12.975 22.463C11.871 22.463 10.801 22.01 9.791 21.115C9.655 20.994 9.578 20.82 9.58 20.638C9.582 20.457 9.664 20.285 9.802 20.168C9.909 20.077 12.353 18.065 15.807 19.628C16.705 18.565 17.82 17.544 19.205 16.667C19.211 16.663 19.219 16.663 19.226 16.659C19.282 16.626 19.343 16.599 19.406 16.585C19.413 16.583 19.42 16.583 19.427 16.582C19.484 16.571 19.541 16.57 19.599 16.576C19.615 16.577 19.631 16.578 19.646 16.58C19.658 16.582 19.669 16.582 19.681 16.585C23.025 17.327 23.491 20.109 23.51 20.227C23.537 20.406 23.486 20.589 23.368 20.728C23.25 20.866 23.077 20.947 22.895 20.95C22.867 20.95 22.84 20.95 22.813 20.95C21.653 20.95 20.717 20.607 20.03 19.928C19.677 19.58 19.436 19.185 19.271 18.806C18.972 19.364 18.644 20.089 18.399 20.93C19.458 20.75 20.396 20.896 21.194 21.37C22.897 22.382 23.267 24.507 23.282 24.597C23.311 24.771 23.265 24.948 23.156 25.086C23.048 25.224 22.886 25.311 22.71 25.325C22.433 25.347 22.167 25.358 21.916 25.358C19.964 25.358 18.772 24.723 18.046 23.994C18.117 25.054 18.406 26.179 19.033 27.317C20.043 27.111 21.117 27.322 22.111 27.94C23.227 28.634 24.113 29.763 24.603 31.118C25.094 32.474 25.134 33.906 24.719 35.149C24.356 36.235 23.681 37.067 22.795 37.553H25.803C26.151 37.553 26.434 37.834 26.434 38.181C26.434 38.528 26.151 38.809 25.803 38.809ZM14.064 1.66596C13.953 1.52496 13.786 1.44396 13.606 1.44396H9.334C9.154 1.44396 8.988 1.52496 8.876 1.66496C8.765 1.80596 8.726 1.98696 8.768 2.16096L9.359 4.57596H13.581L14.172 2.16096C14.214 1.98696 14.175 1.80696 14.064 1.66596ZM13.693 8.35296H14.424C14.645 8.35296 14.826 8.17396 14.826 7.95296V6.23196C14.826 6.01096 14.645 5.83196 14.424 5.83196H14.077H8.864H8.516C8.295 5.83196 8.114 6.01096 8.114 6.23196V7.95296C8.114 8.17396 8.295 8.35296 8.516 8.35296H9.247H13.693ZM20.925 19.044C21.196 19.308 21.539 19.493 21.951 19.596C21.685 19.116 21.206 18.529 20.357 18.13C20.468 18.436 20.643 18.769 20.925 19.044ZM21.829 24.102C21.621 23.566 21.231 22.851 20.541 22.445C19.948 22.094 19.207 22.021 18.333 22.223C18.619 22.914 19.454 24.07 21.829 24.102ZM19.07 37.553C18.271 37.155 17.544 36.517 16.971 35.687C16.663 36.414 16.234 37.048 15.716 37.553H19.07ZM9.348 33.024C9.348 35.522 10.895 37.553 12.795 37.553C14.46 37.553 15.853 35.994 16.173 33.929C16.174 33.924 16.173 33.918 16.174 33.914C16.22 33.615 16.243 33.315 16.243 33.024C16.243 32.861 16.236 32.699 16.222 32.539C16.22 32.515 16.216 32.492 16.214 32.468C16.2 32.328 16.184 32.188 16.16 32.049C16.158 32.04 16.156 32.031 16.155 32.022C16.099 31.708 16.019 31.4 15.911 31.102C15.91 31.099 15.91 31.096 15.909 31.093C15.356 29.56 14.17 28.495 12.795 28.495C10.895 28.495 9.348 30.526 9.348 33.024ZM11.332 20.703C11.934 21.072 12.542 21.237 13.152 21.202C13.829 21.159 14.41 20.869 14.825 20.585C13.29 20.048 12.056 20.371 11.332 20.703ZM16.937 21.805C16.936 21.722 16.951 21.644 16.98 21.57C17.12 20.853 17.323 20.189 17.55 19.6C14.727 22.446 13.796 25.926 13.524 27.316C14.676 27.537 15.692 28.267 16.408 29.319C16.762 28.667 17.253 28.144 17.852 27.783C16.73 25.665 16.63 23.581 16.937 21.805ZM23.522 34.752C23.848 33.775 23.811 32.635 23.416 31.544C23.021 30.452 22.32 29.55 21.442 29.005C20.613 28.489 19.724 28.36 18.944 28.639C18.063 28.955 17.418 29.757 17.158 30.852C17.174 30.899 17.185 30.948 17.2 30.995C17.236 31.115 17.273 31.234 17.303 31.357C17.319 31.424 17.331 31.491 17.345 31.557C17.369 31.67 17.395 31.782 17.413 31.897C17.429 31.995 17.438 32.096 17.45 32.196C17.46 32.281 17.474 32.365 17.481 32.452C17.496 32.641 17.504 32.832 17.504 33.024C17.504 33.195 17.496 33.368 17.483 33.542C17.477 33.617 17.469 33.69 17.462 33.763C17.455 33.82 17.452 33.876 17.445 33.933C18.29 35.993 20.23 37.192 21.831 36.62C22.612 36.34 23.213 35.677 23.522 34.752ZM20.906 35.391C20.889 35.391 20.871 35.391 20.854 35.389C19.28 35.26 18.701 33.908 18.615 33.212C18.572 32.867 18.818 32.554 19.164 32.512C19.508 32.466 19.822 32.712 19.867 33.054C19.882 33.162 20.04 34.063 20.957 34.138C21.305 34.166 21.563 34.469 21.534 34.815C21.507 35.143 21.231 35.391 20.906 35.391ZM12.542 35.964C12.455 35.964 12.366 35.946 12.281 35.908C10.782 35.226 10.693 33.694 10.856 32.979C10.933 32.641 11.269 32.428 11.611 32.506C11.949 32.582 12.162 32.916 12.087 33.253C12.064 33.368 11.888 34.349 12.805 34.765C13.122 34.909 13.261 35.281 13.117 35.597C13.011 35.828 12.782 35.964 12.542 35.964Z" fill="#3D3B36"/>
</g>
<defs>
<clipPath id="clip0_533_3451">
<rect width="27" height="39" fill="white"/>
</clipPath>
</defs>
</svg>
