<?xml version="1.0" encoding="UTF-8"?><svg id="Layer_2" xmlns="http://www.w3.org/2000/svg" viewBox="0 0 22.93 16.4"><defs><style>.cls-1{fill:none;stroke:#324266;stroke-linecap:round;stroke-miterlimit:10;stroke-width:1.4px;}.cls-2{fill:#324266;}</style></defs><g id="Layer_1-2"><rect class="cls-2" x="4.78" y="3.46" width="1.57" height="5.84" rx=".33" ry=".33"/><rect class="cls-2" x="6.96" y="3.46" width="1.31" height="5.84" rx=".33" ry=".33"/><rect class="cls-2" x="11.38" y="3.46" width=".98" height="5.84" rx=".33" ry=".33"/><rect class="cls-2" x="8.87" y="3.46" width="1.9" height="5.84" rx=".33" ry=".33"/><rect class="cls-2" x="13.55" y="3.46" width="2.62" height="5.84" rx=".33" ry=".33"/><rect class="cls-2" x="16.91" y="3.46" width="1.25" height="5.84" rx=".33" ry=".33"/><path class="cls-1" d="m6.7.7h-1.86C3.25.7,1.96,1.99,1.96,3.58v2.86"/><path class="cls-1" d="m20.96,6.44v-2.86c0-1.59-1.29-2.88-2.88-2.88h-1.86"/><path class="cls-1" d="m6.7,15.7h-1.86c-1.59,0-2.88-1.29-2.88-2.88v-.86"/><path class="cls-1" d="m20.96,11.96v.86c0,1.59-1.29,2.88-2.88,2.88h-1.86"/><line class="cls-1" x1=".7" y1="9.2" x2="22.23" y2="9.2"/></g></svg>