<?xml version="1.0" encoding="utf-8"?>
<!-- Generator: Adobe Illustrator 27.7.0, SVG Export Plug-In . SVG Version: 6.00 Build 0)  -->
<svg version="1.1" id="Layer_1" xmlns="http://www.w3.org/2000/svg" xmlns:xlink="http://www.w3.org/1999/xlink" x="0px" y="0px"
	 viewBox="0 0 71 65" style="enable-background:new 0 0 71 65;" xml:space="preserve">
<style type="text/css">
	.st0{fill:#FFFFFF;}
</style>
<g>
	<path class="st0" d="M71,6.5C71,2.92,68.08,0,64.5,0h-58C2.92,0,0,2.92,0,6.5c0,3.15,2.25,5.77,5.22,6.37l4.51,46.9
		c0.29,2.98,2.76,5.23,5.75,5.23h40.04c2.99,0,5.47-2.25,5.75-5.23l4.51-46.9C68.75,12.27,71,9.65,71,6.5z M56.3,59.3
		c-0.04,0.4-0.37,0.7-0.78,0.7H15.48c-0.4,0-0.74-0.3-0.78-0.71L10.25,13h50.5L56.3,59.3z M64.5,8h-1h-56h-1C5.67,8,5,7.33,5,6.5
		S5.67,5,6.5,5h58C65.33,5,66,5.67,66,6.5S65.33,8,64.5,8z"/>
	<path class="st0" d="M23.15,50.68h24.7c1.64,0,2.97-1.34,2.97-2.98V34.28c0-1.64-1.33-2.98-2.97-2.98h-20.9
		c-0.46,0-0.84-0.37-0.84-0.83V18.49l-5.94,3.68V47.7C20.18,49.34,21.5,50.68,23.15,50.68z M26.12,36.27c0-0.45,0.37-0.83,0.84-0.83
		h17.02c0.46,0,0.84,0.38,0.84,0.83v9.42c0,0.46-0.37,0.82-0.84,0.82H26.95c-0.46,0-0.84-0.37-0.84-0.82v-9.42H26.12z"/>
</g>
</svg>
