<?xml version="1.0" encoding="UTF-8"?><svg id="Layer_2" xmlns="http://www.w3.org/2000/svg" viewBox="0 0 58.5 53.5"><defs><style>.cls-1{stroke-linecap:round;stroke-linejoin:round;}.cls-1,.cls-2{fill:none;stroke:#000;stroke-width:3.5px;}.cls-2{stroke-miterlimit:10;}</style></defs><g id="Layer_1-2"><rect class="cls-1" x="1.75" y="1.75" width="55" height="6.67" rx="2.67" ry="2.67"/><path class="cls-1" d="m45.93,51.75H12.57c-1.41,0-2.59-1.07-2.72-2.47L5.92,8.42h46.67l-3.93,40.86c-.13,1.4-1.31,2.47-2.72,2.47Z"/><path class="cls-1" d="m21.53,34.37l-2.32,2.32c-.88-.72-2.18-.68-3.01.14-.88.88-.88,2.3,0,3.18,1.16,1.16,1.59.8,1.99,1.19.54.54.23,1.02,1.19,1.99.88.88,2.3.88,3.18,0,.88-.88.88-2.3,0-3.18-.06-.05-.12-.09-.18-.14l2.32-2.32"/><path class="cls-2" d="m41.66,17.72c-3.76-3.76-9.85-3.76-13.61,0-.25.25-.48.52-.7.79-.05.06-.09.12-.13.18-.15.2-.3.4-.44.6-2.84,4.26-3.09,10.57-4.24,11.71l-.32.32c-.9.9-.9,2.35,0,3.24l2.59,2.59c.89.89,2.35.89,3.24,0l.33-.33c1.23-1.23,8.04-1.1,12.53-4.83.26-.21.51-.43.75-.68,3.76-3.76,3.76-9.85,0-13.61Z"/><line class="cls-1" x1="31.56" y1="21.83" x2="31.56" y2="21.83"/><line class="cls-1" x1="37.14" y1="25.62" x2="37.14" y2="25.61"/><line class="cls-1" x1="36.83" y1="20.38" x2="36.83" y2="20.38"/></g></svg>