<?xml version="1.0" encoding="UTF-8"?><svg id="Layer_2" xmlns="http://www.w3.org/2000/svg" viewBox="0 0 100 145"><defs><style>.cls-1{opacity:.3;}.cls-1,.cls-2,.cls-3{stroke-width:0px;}.cls-2{fill:#fff;}.cls-3{fill:#e60013;}</style></defs><g id="_레이어_1"><ellipse class="cls-1" cx="50" cy="125" rx="35" ry="20"/><path class="cls-3" d="m99.76,54.76c.15-1.57.24-3.16.24-4.76C100,22.39,77.61,0,50,0S0,22.39,0,50c0,1.64.1,3.26.24,4.86.02.19.04.38.06.57,3.98,39.47,49.69,69.56,49.69,69.56,0,0,45.54-30.45,49.67-69.41.03-.28.07-.55.09-.83Z"/><path class="cls-2" d="m68.87,41.47h-31.93c-.13,0-.24-.11-.24-.24v-17.21c0-1.29-1.41-2.08-2.51-1.4l-7.57,4.69c-.67.41-1.08,1.15-1.08,1.93v38.33c0,3.07,2.51,5.59,5.59,5.59h37.75c3.09,0,5.59-2.5,5.59-5.59v-20.51c0-3.08-2.52-5.59-5.59-5.59Zm-5.67,8.64v14.4c0,.12-.1.22-.22.22h-26.04c-.13,0-.24-.11-.24-.24v-14.38c0-.1.1-.22.24-.22h26.02c.14,0,.24.12.24.22Z"/></g></svg>