<svg width="28" height="28" viewBox="0 0 28 28" fill="none" xmlns="http://www.w3.org/2000/svg">
<g clip-path="url(#clip0_4995_94156)">
<path d="M21.1111 28.0002H15.7778C15.4095 28.0002 15.1111 27.7078 15.1111 27.3469V17.7647C15.1111 17.4038 15.4095 17.1113 15.7778 17.1113H21.1111C21.4793 17.1113 21.7778 17.4038 21.7778 17.7647V27.3469C21.7778 27.7078 21.4793 28.0002 21.1111 28.0002ZM16.4444 26.6936H20.4444V18.418H16.4444V26.6936Z" fill="#BBBBBB"/>
<path d="M24.6635 28.0001H3.33018C2.96193 28.0001 2.66351 27.7076 2.66351 27.3468V15.1543C2.66351 14.7934 2.96193 14.501 3.33018 14.501C3.69843 14.501 3.99685 14.7934 3.99685 15.1543V26.6934H23.9968V15.1543C23.9968 14.7934 24.2953 14.501 24.6635 14.501C25.0318 14.501 25.3302 14.7934 25.3302 15.1543V27.3468C25.3302 27.7076 25.0318 28.0001 24.6635 28.0001Z" fill="#BBBBBB"/>
<path d="M13.1048 23.6447H6.88572C6.51747 23.6447 6.21906 23.3522 6.21906 22.9913V17.7647C6.21906 17.4038 6.51747 17.1113 6.88572 17.1113H13.1048C13.473 17.1113 13.7714 17.4038 13.7714 17.7647V22.9913C13.7714 23.3522 13.473 23.6447 13.1048 23.6447ZM7.55239 22.338H12.4381V18.418H7.55239V22.338Z" fill="#BBBBBB"/>
<path d="M24 15.8047C22.6095 15.8047 21.3841 15.1079 20.6667 14.0501C19.9492 15.1079 18.7238 15.8047 17.3333 15.8047C15.9429 15.8047 14.7175 15.1079 14 14.0501C13.2825 15.1079 12.0571 15.8047 10.6667 15.8047C9.27619 15.8047 8.05079 15.1079 7.33333 14.0501C6.61587 15.1079 5.3873 15.8047 3.99683 15.8047C1.79048 15.8047 -0.00317383 14.047 -0.00317383 11.8847C-0.00317383 11.7727 0.0253976 11.6607 0.0825405 11.5612L4.25079 4.37763C4.36826 4.1723 4.59048 4.04785 4.83175 4.04785H23.1619C23.4 4.04785 23.6222 4.17541 23.7429 4.37763L27.9143 11.5643C27.9714 11.6639 28 11.7727 28 11.8879C28 14.0501 26.2064 15.8079 24 15.8079V15.8047ZM20.6667 11.2314C21.0349 11.2314 21.3333 11.5239 21.3333 11.8847C21.3333 13.3252 22.5302 14.4981 24 14.4981C25.4698 14.4981 26.5746 13.4154 26.6603 12.0496L22.7714 5.35141H5.21905L1.33968 12.0496C1.4254 13.4154 2.5873 14.4981 4 14.4981C5.4127 14.4981 6.66984 13.3252 6.66984 11.8847C6.66984 11.5239 6.96826 11.2314 7.33651 11.2314C7.70476 11.2314 8.00318 11.5239 8.00318 11.8847C8.00318 13.3252 9.2 14.4981 10.6698 14.4981C12.1397 14.4981 13.3365 13.3252 13.3365 11.8847C13.3365 11.5239 13.6349 11.2314 14.0032 11.2314C14.3714 11.2314 14.6698 11.5239 14.6698 11.8847C14.6698 13.3252 15.8667 14.4981 17.3365 14.4981C18.8064 14.4981 20.0032 13.3252 20.0032 11.8847C20.0032 11.5239 20.3016 11.2314 20.6698 11.2314H20.6667Z" fill="#BBBBBB"/>
<path d="M27.3333 12.3203H0.666667C0.298413 12.3203 0 12.0279 0 11.667C0 11.3061 0.298413 11.0137 0.666667 11.0137H27.3333C27.7016 11.0137 28 11.3061 28 11.667C28 12.0279 27.7016 12.3203 27.3333 12.3203Z" fill="#BBBBBB"/>
<path d="M13.9968 12.5383C13.6286 12.5383 13.3301 12.2458 13.3301 11.8849V4.69826C13.3301 4.33737 13.6286 4.04492 13.9968 4.04492C14.3651 4.04492 14.6635 4.33737 14.6635 4.69826V11.8849C14.6635 12.2458 14.3651 12.5383 13.9968 12.5383Z" fill="#BBBBBB"/>
<path d="M7.33332 12.538C7.26983 12.538 7.20634 12.5286 7.13967 12.51C6.78729 12.4073 6.58729 12.0402 6.69523 11.6949L8.9111 4.50819C9.01904 4.16286 9.39047 3.96686 9.74285 4.07263C10.0952 4.1753 10.2952 4.54241 10.1873 4.88774L7.97142 12.0744C7.8857 12.3575 7.61904 12.538 7.33332 12.538Z" fill="#BBBBBB"/>
<path d="M20.6572 12.538C20.3715 12.538 20.108 12.3575 20.0191 12.0744L17.8032 4.88774C17.6953 4.54241 17.8953 4.17841 18.2476 4.07263C18.6032 3.96686 18.9715 4.16286 19.0794 4.50819L21.2953 11.6949C21.4032 12.0402 21.2032 12.4042 20.8508 12.51C20.7873 12.5286 20.7207 12.538 20.6572 12.538Z" fill="#BBBBBB"/>
<path d="M22.673 2.01308H18.473C17.8286 2.01308 17.254 2.31797 16.8889 2.78464C16.8349 2.71619 16.7778 2.64775 16.7143 2.58553C16.3365 2.21531 15.8381 2.01308 15.3047 2.01308H13.092V1.60864C13.092 1.02686 12.7682 0.485528 12.2508 0.202416C11.7301 -0.0806947 11.092 -0.0682502 10.5873 0.23975L9.91427 0.647305C9.42538 0.942861 9.13014 1.45308 9.11109 2.01308H7.31109V1.60864C7.31109 1.02686 6.98728 0.485528 6.46982 0.202416C5.94919 -0.0806947 5.31427 -0.0682502 4.80633 0.23975L4.13331 0.647305C3.62855 0.952194 3.32697 1.48108 3.32697 2.06286V6.20375C3.32697 7.28019 4.2222 8.15753 5.32062 8.15753H9.52062C9.79998 8.15753 10.0666 8.09842 10.3111 7.99575C10.5524 8.09842 10.819 8.15753 11.1016 8.15753H15.3016C15.946 8.15753 16.5206 7.85264 16.8857 7.38597C17.2508 7.85575 17.8222 8.15753 18.4698 8.15753H20.6793V8.56197C20.6793 9.14686 21.0032 9.68508 21.5238 9.96819C21.7714 10.1051 22.0476 10.1704 22.3238 10.1704C22.6254 10.1704 22.9238 10.0895 23.1873 9.93086L23.8603 9.52331C24.3651 9.21842 24.6635 8.68953 24.6635 8.10775V3.96997C24.6635 2.89353 23.7682 2.01619 22.6698 2.01619L22.673 2.01308Z" fill="#BBBBBB"/>
<path d="M16.8889 4.53613C16.5682 4.53613 16.3079 4.79124 16.3079 5.10858C16.3079 5.42591 16.5682 5.67791 16.8889 5.67791C17.2095 5.67791 17.4698 5.4228 17.4698 5.10858C17.4698 4.79436 17.2095 4.53613 16.8889 4.53613Z" fill="#EAEAEA"/>
<path d="M9.52698 3.40043H5.9746C5.93651 3.40043 5.90159 3.36932 5.90159 3.32887V1.60843C5.90159 1.43421 5.70794 1.32843 5.55556 1.41865L4.88254 1.82621C4.8 1.87599 4.74921 1.96621 4.74921 2.06265V6.20354C4.74921 6.51465 5.00952 6.76976 5.32698 6.76976H9.52698C9.84444 6.76976 10.1048 6.51776 10.1048 6.20354V3.96665C10.1048 3.65554 9.84444 3.40043 9.52698 3.40043ZM5.90159 5.87065V4.29954C5.90159 4.26221 5.93333 4.2311 5.9746 4.2311H8.86984C8.90794 4.2311 8.94286 4.26221 8.94286 4.29954V5.87065C8.94286 5.90799 8.91111 5.9391 8.86984 5.9391H5.9746C5.93651 5.9391 5.90159 5.90799 5.90159 5.87065Z" fill="#EAEAEA"/>
<path d="M22.673 3.40039H18.473C18.1556 3.40039 17.8953 3.65239 17.8953 3.96661V6.2035C17.8953 6.51461 18.1556 6.76972 18.473 6.76972H22.0254C22.0667 6.76972 22.0984 6.80084 22.0984 6.84128V8.56172C22.0984 8.73595 22.2921 8.84172 22.4445 8.7515L23.1175 8.34395C23.2 8.29417 23.2508 8.20395 23.2508 8.1075V3.96972C23.2508 3.65861 22.9905 3.4035 22.673 3.4035V3.40039ZM22.0984 4.2995V5.87061C22.0984 5.90795 22.0667 5.93906 22.0286 5.93906H19.1334C19.0953 5.93906 19.0635 5.90795 19.0635 5.87061V4.2995C19.0635 4.26217 19.0953 4.23106 19.1334 4.23106H22.0286C22.0667 4.23106 22.0984 4.26217 22.0984 4.2995Z" fill="#EAEAEA"/>
<path d="M15.3079 3.40043H11.7524C11.7111 3.40043 11.6794 3.36932 11.6794 3.32887V1.60843C11.6794 1.43421 11.4857 1.32843 11.3333 1.41865L10.6603 1.82621C10.5778 1.87599 10.527 1.96621 10.527 2.06265V6.20354C10.527 6.51465 10.7841 6.76976 11.1048 6.76976H15.3048C15.6222 6.76976 15.8794 6.51776 15.8794 6.20665V3.96665C15.8794 3.65554 15.6222 3.40043 15.3048 3.40043H15.3079ZM14.7206 4.29954V5.87065C14.7206 5.90799 14.6889 5.9391 14.6476 5.9391H11.7524C11.7143 5.9391 11.6794 5.90799 11.6794 5.87065V4.29954C11.6794 4.26221 11.7111 4.2311 11.7524 4.2311H14.6476C14.6857 4.2311 14.7206 4.26221 14.7206 4.29954Z" fill="#EAEAEA"/>
</g>
<defs>
<clipPath id="clip0_4995_94156">
<rect width="28" height="28" fill="white"/>
</clipPath>
</defs>
</svg>
