<?xml version="1.0" encoding="UTF-8"?><svg id="Layer_2" xmlns="http://www.w3.org/2000/svg" viewBox="0 0 42 42.86"><defs><style>.cls-1{fill:#ecac4a;}.cls-2{fill:#ff5751;}.cls-3{fill:#fff;}.cls-4{fill:#8fa9d8;}.cls-5{fill:#e0eafc;}.cls-6{fill:#2a1c18;}.cls-7{opacity:.15;}.cls-8{stroke:#4f0053;}.cls-8,.cls-9{fill:none;stroke-linejoin:round;stroke-width:2px;}.cls-9{stroke:#2b3966;}</style></defs><g id="_격리_모드"><path class="cls-5" d="m31,18.19c0,2.76-2.24,5-5,5s-5-2.24-5-5c0,2.76-2.24,5-5,5s-5-2.24-5-5c0,2.76-2.24,5-5,5-.34,0-.68-.04-1-.1v18.77h32v-18.76c-.32.07-.65.1-.99.1-2.76,0-5-2.24-5-5Z"/><path class="cls-2" d="m34.74,7.19H7.25L1,18.19c0,2.76,2.24,5,5,5s5-2.24,5-5c0,2.76,2.24,5,5,5s5-2.24,5-5c0,2.76,2.24,5,5,5s5-2.24,5-5c0,2.76,2.24,5,5,5s5-2.24,5-5l-6.26-11Z"/><rect class="cls-4" x="23.67" y="27.19" width="8" height="14.67"/><rect class="cls-4" x="10.33" y="27.19" width="9.33" height="8"/><g class="cls-7"><path d="m1.19,17.83l-.19.35c0,2.76,2.24,5.01,5,5.01s5-2.23,5-5c0,2.76,2.24,5,5,5s5-2.24,5-5c0,2.76,2.24,5,5,5s5-2.24,5-5c0,2.76,2.24,5,5,5s5-2.25,5-5.01l-.19-.35H1.19Z"/></g><path class="cls-7" d="m36,23.19c-2.76,0-5-2.24-5-5,0,2.76-2.24,5-5,5s-5-2.24-5-5c0,2.76-2.24,5-5,5s-5-2.24-5-5c0,2.76-2.24,5-5,5-.34,0-1-.04-1-.1v3.43h32v-3.43c0,.07-.66.1-1,.1Z"/><path class="cls-1" d="m16,23.19c2.69,0,4.88-2.13,4.99-4.79V7.19h-6.87l-3.12,11c0,2.76,2.24,5,5,5Z"/><path class="cls-1" d="m31,18.22c.01,2.75,2.25,4.97,5,4.97s5-2.24,5-5l-6.26-11h-6.87l3.14,11v.03Z"/><rect class="cls-9" x="23.67" y="27.19" width="8" height="14.67"/><polyline class="cls-9" points="37 23.19 37 41.86 5 41.86 5 23.19"/><rect class="cls-9" x="10.33" y="27.19" width="9.33" height="8"/><path class="cls-8" d="m34.74,7.19H7.25L1,18.19c0,2.76,2.24,5,5,5s5-2.24,5-5c0,2.76,2.24,5,5,5s5-2.24,5-5c0,2.76,2.24,5,5,5s5-2.24,5-5c0,2.76,2.24,5,5,5s5-2.24,5-5l-6.26-11Z"/><line class="cls-8" x1="1" y1="17.86" x2="41" y2="17.86"/><line class="cls-8" x1="21" y1="7.19" x2="21" y2="18.19"/><line class="cls-8" x1="11" y1="18.19" x2="14.33" y2="7.19"/><line class="cls-8" x1="30.99" y1="18.19" x2="27.66" y2="7.19"/><path class="cls-6" d="m34.01,3.08h-6.3c-.97,0-1.83.47-2.37,1.18-.08-.11-.17-.21-.26-.3-.56-.57-1.32-.88-2.11-.88h-3.32v-.62c0-.89-.48-1.72-1.26-2.15-.78-.43-1.74-.41-2.5.06l-1.01.62c-.73.45-1.18,1.23-1.2,2.09h-2.7v-.62c0-.89-.48-1.72-1.26-2.15-.78-.43-1.74-.41-2.5.06l-1.01.62c-.76.47-1.21,1.28-1.21,2.17v6.34c0,1.65,1.34,2.99,2.99,2.99h6.3c.42,0,.82-.09,1.18-.25.36.16.76.25,1.18.25h6.3c.97,0,1.83-.47,2.38-1.18.55.72,1.41,1.18,2.38,1.18h3.31v.62c0,.89.48,1.72,1.27,2.15.37.21.79.31,1.2.31.45,0,.9-.12,1.3-.37l1.01-.63c.75-.47,1.21-1.28,1.21-2.17v-6.33c0-1.65-1.34-2.99-2.99-2.99Z"/><path class="cls-3" d="m25.34,6.94c-.48,0-.87.39-.87.87s.39.87.87.87.87-.39.87-.87-.39-.87-.87-.87Z"/><path class="cls-3" d="m14.29,5.21h-5.33c-.06,0-.11-.05-.11-.11v-2.63c0-.27-.29-.43-.52-.29l-1.01.62c-.13.08-.2.21-.2.36v6.34c0,.48.39.87.87.87h6.3c.48,0,.87-.39.87-.87v-3.43c0-.48-.39-.87-.87-.87Zm-5.44,3.78v-2.4c0-.06.05-.1.11-.1h4.34c.06,0,.11.05.11.1v2.4c0,.06-.05.1-.11.1h-4.34c-.06,0-.11-.05-.11-.1Z"/><path class="cls-3" d="m34.01,5.21h-6.3c-.48,0-.86.39-.86.86v3.43c0,.48.39.87.87.87h5.33c.06,0,.11.05.11.11v2.63c0,.27.29.43.52.29l1.01-.63c.13-.08.2-.21.2-.36v-6.33c0-.48-.39-.87-.87-.87Zm-.86,1.38v2.4c0,.06-.05.1-.11.1h-4.34c-.06,0-.11-.05-.11-.1v-2.4c0-.06.05-.1.11-.1h4.34c.06,0,.11.05.11.1Z"/><path class="cls-3" d="m22.96,5.21h-5.33c-.06,0-.11-.05-.11-.11v-2.63c0-.27-.29-.43-.52-.29l-1.01.62c-.13.08-.2.21-.2.36v6.34c0,.48.39.87.87.87h6.3c.48,0,.86-.39.86-.86v-3.43c0-.48-.39-.86-.86-.86Zm-.88,1.38v2.4c0,.06-.05.1-.11.1h-4.34c-.06,0-.11-.05-.11-.1v-2.4c0-.06.05-.1.11-.1h4.34c.06,0,.11.05.11.1Z"/></g></svg>