<?xml version="1.0" encoding="UTF-8"?><svg id="Layer_2" xmlns="http://www.w3.org/2000/svg" viewBox="0 0 61.25 63"><defs><style>.cls-1{opacity:.2;}.cls-1,.cls-2{fill:#000064;}.cls-1,.cls-2,.cls-3,.cls-4,.cls-5,.cls-6,.cls-7,.cls-8,.cls-9{stroke-width:0px;}.cls-2{opacity:.15;}.cls-10{opacity:.25;}.cls-3{fill:#4f0053;}.cls-4{fill:#7b8baf;}.cls-5{fill:#fff;}.cls-6{fill:#ff4557;}.cls-7{fill:#ffc93a;}.cls-8{fill:#fc6;}.cls-9{fill:#00b9b9;}</style></defs><g id="_레이어_1"><path class="cls-6" d="m15.11,40.1c-7.51,0-13.6,6.07-13.61,13.58l31.07.03c0-7.51-6.07-13.6-13.58-13.61h-3.88Z"/><path class="cls-4" d="m22.82,32.35l-21.3-.02c.99,5.94,6.65,7.77,13.51,7.78h3.91c3.37,0,6.44-.44,8.82-1.59,3-1.71,3.23-6.16-4.94-6.17Z"/><path class="cls-6" d="m59.75,51.8s-.23-9.71-9.7-9.72c-1.01,0-5.83,0-5.83,0v.19c0,2.53-1.86,7.64-7.29,9.51h0s22.82.03,22.82.03Z"/><path class="cls-4" d="m20.92,53.7c0,4.29-3.49,7.76-7.78,7.76-4.29,0-7.76-3.48-7.76-7.78l15.53.02Z"/><path class="cls-4" d="m56.6,51.8c.16.62.25,1.27.24,1.94,0,4.29-3.49,7.76-7.78,7.76-4.29,0-7.76-3.48-7.76-7.78,0-.67.09-1.32.25-1.94l15.04.02Z"/><path class="cls-2" d="m15.03,40.1h3.91c3.37,0,6.44-.44,8.82-1.59.6-.34,1.09-.8,1.42-1.31-2.27,0-7.03,0-13.1-.01-8.58,0-12.62-4.87-12.62-4.87h-1.94c.99,5.94,6.65,7.77,13.51,7.78Z"/><g class="cls-10"><path class="cls-5" d="m47.14,44.02c6.75,0,8.8,4.94,9.43,7.78h3.19s-.23-9.71-9.7-9.72c-1.01,0-5.83,0-5.83,0v.19c0,.5-.08,1.1-.23,1.75,1.29,0,2.66,0,3.14,0Z"/><path class="cls-5" d="m37.48,51.78c.15-.12.29-.26.43-.39-.31.14-.63.27-.96.38h0s.54,0,.54,0Z"/></g><path class="cls-1" d="m56.6,51.8l-15.04-.02c-.16.62-.25,1.27-.25,1.94s.09,1.32.25,1.94l15.02.02c.16-.62.26-1.27.26-1.94s-.08-1.32-.24-1.94Z"/><path class="cls-1" d="m5.38,53.69c0,1.42.38,2.74,1.04,3.89h13.44c.66-1.13,1.05-2.45,1.05-3.87l-15.53-.02Z"/><path class="cls-2" d="m15.11,40.1c-7.51,0-13.6,6.07-13.61,13.58h6.8c0-5.17,2.28-10.59,6.24-10.58,2.87,0,9.5.01,12.95.01-2.33-1.87-5.28-3-8.5-3h-3.88Z"/><path class="cls-3" d="m13.15,62.96h-.01c-2.48,0-4.8-.97-6.55-2.72-1.75-1.75-2.71-4.08-2.71-6.56,0-.83.67-1.5,1.5-1.5h0c.83,0,1.5.67,1.5,1.5,0,1.67.65,3.25,1.83,4.43,1.18,1.18,2.76,1.84,4.43,1.84h0c1.67,0,3.24-.65,4.43-1.83,1.19-1.18,1.84-2.76,1.84-4.43,0-.83.67-1.5,1.5-1.5h0c.83,0,1.5.67,1.5,1.5,0,2.48-.97,4.8-2.72,6.55-1.75,1.75-4.07,2.71-6.54,2.71Z"/><path class="cls-3" d="m49.07,63h-.01c-2.48,0-4.8-.97-6.55-2.72s-2.71-4.08-2.71-6.56c0-.79.1-1.57.3-2.32.21-.8,1.03-1.28,1.83-1.07.8.21,1.28,1.03,1.07,1.83-.13.51-.2,1.03-.2,1.56,0,1.67.65,3.25,1.83,4.43,1.18,1.18,2.76,1.84,4.43,1.84h0c1.67,0,3.24-.65,4.43-1.83,1.18-1.18,1.84-2.76,1.84-4.43,0-.53-.07-1.06-.2-1.56-.21-.8.27-1.62,1.08-1.83.8-.21,1.62.27,1.83,1.08.19.75.29,1.53.29,2.32,0,2.48-.97,4.8-2.72,6.55-1.75,1.75-4.07,2.71-6.54,2.71Z"/><path class="cls-3" d="m32.47,53.97c-.84.03-1.52-.67-1.52-1.5,0-.83.67-1.5,1.5-1.5,0,0,.01,0,.02,0,3.46,0,6.17-1.14,8.07-3.39,1.51-1.78,2.18-3.95,2.18-5.31l.02-17.67c0-.73-.3-1.31-.92-1.78-.61-.46-1.27-.61-1.44-.61h-3.91s0-3,0-3h3.91c1,0,2.28.48,3.25,1.22,1.36,1.03,2.1,2.51,2.1,4.17l-.02,17.67c0,1.77-.76,4.73-2.89,7.25-1.72,2.03-4.91,4.46-10.37,4.46Z"/><path class="cls-3" d="m59.75,53.3h0l-22.82-.02c-.83,0-1.5-.67-1.5-1.5s.67-1.5,1.5-1.5h0l21.1.02c-.16-.78-.45-1.78-.97-2.75-1.38-2.63-3.74-3.96-7.02-3.96h-5.83s0-3.01,0-3.01h5.83c8.64.02,11.1,7.33,11.2,11.19,0,.4-.14.8-.43,1.08-.28.29-.67.45-1.07.45Z"/><path class="cls-3" d="m32.57,55.22h0l-31.07-.03c-.4,0-.78-.16-1.06-.44S0,54.08,0,53.68c0-8.32,6.78-15.08,15.09-15.08h3.9c8.32.01,15.09,6.79,15.08,15.11,0,.83-.67,1.5-1.5,1.5Zm-29.47-3.03l27.88.03c-.73-5.96-5.83-10.6-11.99-10.6h-3.88s0,0-.01,0c-6.15,0-11.25,4.62-12,10.58Z"/><path class="cls-3" d="m18.98,41.61h-3.96c-8.95-.01-13.99-3.05-14.99-9.04-.07-.44.05-.88.34-1.22.28-.34.7-.53,1.14-.53h0l21.3.02h0c6.27,0,7.85,2.45,8.23,3.91.5,1.88-.53,3.92-2.55,5.07-.03.02-.06.03-.09.05-2.4,1.16-5.57,1.74-9.43,1.74Zm-15.51-7.78c.88,2.05,3.41,4.77,11.55,4.78h3.91s.03,0,.04,0c3.38,0,6.1-.48,8.08-1.42.76-.45,1.22-1.16,1.09-1.67-.16-.62-1.47-1.67-5.33-1.67l-19.34-.02Z"/><path class="cls-3" d="m49.1,32.9h0c-.83,0-1.5-.67-1.5-1.5v-5.83c0-.83.68-1.5,1.51-1.5h0c.83,0,1.5.67,1.5,1.5v5.83c0,.83-.68,1.5-1.51,1.5Z"/><path class="cls-7" d="m14.4,1.5C7.28,1.5,1.5,7.28,1.5,14.4s5.78,12.9,12.9,12.9,12.9-5.78,12.9-12.9"/><path class="cls-9" d="m18.74,13.64c-.58.95-1.63,1.58-2.82,1.58h-5.84s0-6.61,0-6.61h4.5"/><path class="cls-2" d="m27.3,14.4s-7.95,7.09-14.19.86c-6.23-6.23,1.29-13.76,1.29-13.76l12.9,12.9Z"/><path class="cls-8" d="m27.3,14.4L14.4,1.5c-1.72,9.46,3.44,14.62,12.9,12.9Z"/><path class="cls-6" d="m27.3,14.4L14.4,1.5c-1.72,9.46,3.44,14.62,12.9,12.9Z"/><path class="cls-3" d="m14.4,28.8C6.46,28.8,0,22.34,0,14.4S6.46,0,14.4,0v3c-6.29,0-11.4,5.11-11.4,11.4s5.11,11.4,11.4,11.4,11.4-5.11,11.4-11.4h3c0,7.94-6.46,14.4-14.4,14.4Z"/><path class="cls-3" d="m23.86,16.23c-3.44,0-6.25-1.02-8.26-3.03-2.69-2.68-3.61-6.82-2.68-11.97.1-.55.5-1,1.03-1.16.53-.17,1.11-.02,1.51.37l12.9,12.9c.39.39.54.98.37,1.51-.17.53-.61.93-1.16,1.03-1.3.24-2.54.35-3.71.35ZM15.57,4.79c-.03,2.7.7,4.84,2.15,6.29,1.45,1.45,3.61,2.19,6.29,2.15L15.57,4.79Z"/><path class="cls-3" d="m10.08,22.75c-.83,0-1.5-.67-1.5-1.5v-6.04c0-.83.67-1.5,1.5-1.5s1.5.67,1.5,1.5v6.04c0,.83-.67,1.5-1.5,1.5Z"/><path class="cls-3" d="m15.92,16.71h-5.84c-.83,0-1.5-.67-1.5-1.5v-6.61c0-.83.67-1.5,1.5-1.5h4.5v3h-3v3.61h4.34c.63,0,1.21-.32,1.54-.86l2.55,1.57c-.88,1.43-2.41,2.29-4.09,2.29Z"/></g></svg>