<?xml version="1.0" encoding="utf-8"?>
<!-- Generator: Adobe Illustrator 27.7.0, SVG Export Plug-In . SVG Version: 6.00 Build 0)  -->
<svg version="1.1" id="Layer_1" xmlns="http://www.w3.org/2000/svg" xmlns:xlink="http://www.w3.org/1999/xlink" x="0px" y="0px"
	 viewBox="0 0 22 17.34" style="enable-background:new 0 0 22 17.34;" xml:space="preserve">
<style type="text/css">
	.st0{fill:#8E93AD;}
</style>
<path class="st0" d="M21,15.34h-0.33V12c0-1.24-0.85-2.28-2-2.57V8.67c0-1.24-0.85-2.27-2-2.57V5.33c0-1.47-1.2-2.67-2.67-2.67h-2V1
	c0-0.55-0.45-1-1-1s-1,0.45-1,1v1.67H8c-1.47,0-2.67,1.2-2.67,2.67V6.1c-1.15,0.3-2,1.33-2,2.57v0.76c-1.15,0.3-2,1.33-2,2.57v3.33
	H1c-0.55,0-1,0.45-1,1s0.45,1,1,1h20c0.55,0,1-0.45,1-1S21.55,15.34,21,15.34z M8,4.67h6c0.37,0,0.67,0.3,0.67,0.67V6H7.33V5.33
	C7.33,4.97,7.63,4.67,8,4.67z M6,8h10c0.37,0,0.67,0.3,0.67,0.67v0.67H5.33V8.67C5.33,8.3,5.63,8,6,8z M4,11.34h14
	c0.37,0,0.67,0.3,0.67,0.67v0.63c-0.1,0.02-0.2,0.04-0.29,0.04c-0.09-0.01-0.35-0.13-0.53-0.22c-0.41-0.2-0.93-0.45-1.52-0.45
	c-0.6,0-1.09,0.25-1.48,0.45c-0.16,0.08-0.43,0.22-0.52,0.22c-0.08,0-0.33-0.13-0.5-0.21c-0.4-0.2-0.89-0.45-1.5-0.45
	c-0.61,0-1.1,0.25-1.5,0.45c-0.17,0.08-0.41,0.21-0.5,0.21c-0.1,0-0.4-0.15-0.57-0.23C9.37,12.24,8.89,12,8.33,12
	c-0.56,0-1.04,0.24-1.43,0.43c-0.17,0.09-0.47,0.23-0.57,0.23c-0.11,0-0.41-0.15-0.59-0.24C5.34,12.23,4.87,12,4.33,12
	c-0.38,0-0.71,0.1-1,0.22V12C3.33,11.63,3.63,11.34,4,11.34z M3.33,14.43c0.15-0.07,0.29-0.13,0.42-0.2C3.96,14.13,4.21,14,4.33,14
	c0.1,0.01,0.36,0.14,0.53,0.22c0.4,0.2,0.9,0.44,1.47,0.44c0.57,0,1.06-0.24,1.46-0.44c0.18-0.09,0.45-0.22,0.54-0.23
	c0.1,0,0.36,0.14,0.54,0.22c0.4,0.2,0.89,0.44,1.46,0.44c0.57,0,1.04-0.24,1.41-0.43C11.96,14.13,12.2,14,12.33,14
	c0.13,0,0.38,0.12,0.59,0.23c0.38,0.19,0.84,0.43,1.41,0.43s1.04-0.24,1.42-0.43c0.2-0.1,0.46-0.23,0.58-0.23
	c0.14,0,0.42,0.14,0.65,0.25c0.4,0.2,0.86,0.42,1.39,0.42c0.1,0,0.2-0.01,0.29-0.02v0.68H3.33V14.43z"/>
</svg>
