<?xml version="1.0" encoding="UTF-8"?><svg id="Layer_2" xmlns="http://www.w3.org/2000/svg" viewBox="0 0 21.8 20.75"><defs><style>.cls-1{fill:#8e93ad;}.cls-2{fill:none;stroke:#8e93ad;stroke-linecap:round;stroke-linejoin:round;stroke-width:1.8px;}</style></defs><g id="Layer_1-2"><path class="cls-2" d="m2.23,19.85v-10c0-.37.3-.67.67-.67h16c.37,0,.67.3.67.67v10"/><line class="cls-2" x1=".9" y1="19.85" x2="20.9" y2="19.85"/><path class="cls-2" d="m2.23,11.51c0,1.29,1.05,2.33,2.33,2.33s2.33-.71,2.33-2"/><path class="cls-2" d="m6.9,11.85c0,1.29,1.04,2,2.33,2s2.33-.71,2.33-2"/><path class="cls-2" d="m11.57,11.85c0,1.29,1.04,2,2.33,2s2.33-.71,2.33-2"/><path class="cls-2" d="m16.23,11.85c0,1.29,1.04,2,2.33,2,.36,0,.7-.08,1-.23"/><line class="cls-2" x1="10.9" y1="5.85" x2="10.9" y2="9.18"/><line class="cls-2" x1="5.57" y1="5.85" x2="5.57" y2="9.18"/><line class="cls-2" x1="16.23" y1="5.85" x2="16.23" y2="9.18"/><path class="cls-1" d="m7.13,3.13c0-2.12-1.57-3.13-1.57-3.13,0,0-1.57,1.4-1.57,3.13,0,.86.7,1.57,1.57,1.57.71,0,1.3-.47,1.49-1.11.04-.13.07-.27.07-.45Z"/><path class="cls-1" d="m12.46,3.13c0-2.12-1.57-3.13-1.57-3.13,0,0-1.57,1.4-1.57,3.13,0,.86.7,1.57,1.57,1.57.71,0,1.3-.47,1.49-1.11.04-.13.07-.27.07-.45Z"/><path class="cls-1" d="m17.8,3.13c0-2.12-1.57-3.13-1.57-3.13,0,0-1.57,1.4-1.57,3.13,0,.86.7,1.57,1.57,1.57.71,0,1.3-.47,1.49-1.11.04-.13.07-.27.07-.45Z"/></g></svg>