<?xml version="1.0" encoding="utf-8"?>
<!-- Generator: Adobe Illustrator 27.7.0, SVG Export Plug-In . SVG Version: 6.00 Build 0)  -->
<svg version="1.1" id="Layer_1" xmlns="http://www.w3.org/2000/svg" xmlns:xlink="http://www.w3.org/1999/xlink" x="0px" y="0px"
	 viewBox="0 0 85 63.67" style="enable-background:new 0 0 85 63.67;" xml:space="preserve">
<style type="text/css">
	.st0{fill:#202020;}
</style>
<g>
	<path class="st0" d="M78.5,10.67h-2.08l-7.99-9.75C67.96,0.34,67.25,0,66.5,0H45.17c-0.75,0-1.46,0.34-1.93,0.92l-7.99,9.75h-8.91
		V2.5c0-1.38-1.12-2.5-2.5-2.5H10.5C9.12,0,8,1.12,8,2.5v8.17H6.5c-3.58,0-6.5,2.92-6.5,6.5v40c0,3.58,2.92,6.5,6.5,6.5h72
		c3.58,0,6.5-2.92,6.5-6.5v-40C85,13.58,82.08,10.67,78.5,10.67z M13,5h8.33v5.67H13V5z M80,57.17c0,0.83-0.67,1.5-1.5,1.5h-72
		c-0.83,0-1.5-0.67-1.5-1.5v-40c0-0.83,0.67-1.5,1.5-1.5h29.93c0.75,0,1.46-0.34,1.93-0.92L46.35,5h18.97l7.99,9.75
		c0.47,0.58,1.18,0.92,1.93,0.92h3.26c0.83,0,1.5,0.67,1.5,1.5V57.17z"/>
	<path class="st0" d="M15.83,18.67C11.51,18.67,8,22.18,8,26.5s3.51,7.83,7.83,7.83s7.83-3.51,7.83-7.83S20.15,18.67,15.83,18.67z
		 M15.83,29.33c-1.56,0-2.83-1.27-2.83-2.83s1.27-2.83,2.83-2.83c1.56,0,2.83,1.27,2.83,2.83S17.4,29.33,15.83,29.33z"/>
	<path class="st0" d="M55.83,13.33c-11.67,0-21.17,9.5-21.17,21.17s9.5,21.17,21.17,21.17S77,46.17,77,34.5S67.5,13.33,55.83,13.33z
		 M55.83,50.67c-8.91,0-16.17-7.25-16.17-16.17c0-8.91,7.25-16.17,16.17-16.17C64.75,18.33,72,25.59,72,34.5
		C72,43.41,64.75,50.67,55.83,50.67z"/>
	<path class="st0" d="M55.83,24c-5.79,0-10.5,4.71-10.5,10.5c0,5.79,4.71,10.5,10.5,10.5s10.5-4.71,10.5-10.5
		C66.33,28.71,61.62,24,55.83,24z M55.83,40c-3.03,0-5.5-2.47-5.5-5.5c0-3.03,2.47-5.5,5.5-5.5s5.5,2.47,5.5,5.5
		C61.33,37.53,58.87,40,55.83,40z"/>
</g>
</svg>
