<?xml version="1.0" encoding="UTF-8"?><svg id="Layer_2" xmlns="http://www.w3.org/2000/svg" viewBox="0 0 17.06 24.68"><defs><style>.cls-1{fill:#202020;}</style></defs><g id="Layer_1-2"><path class="cls-1" d="m15.55,10.48c-.57-.57-2.43-2.42-3.11-3.09V1.62c0-.89-.73-1.62-1.62-1.62H1.62C.72,0,0,.73,0,1.62v14.57c0,.89.72,1.62,1.62,1.62h2.25c.08,1.14.38,2.52,1.36,4.02.92,1.42.92,1.82.91,2.03,0,.47.38.83.84.83h0c.46,0,.84-.4.85-.86,0-.52-.08-1.21-1.19-2.92-.74-1.14-1-2.18-1.08-3.1h1.43c.31,1.13,1.01,2.43,2.52,3.64.16.13.35.19.53.19.25,0,.49-.11.66-.32.29-.36.24-.9-.13-1.2-2.75-2.22-2.03-4.7-2-4.79l.16-.5-3.67-3.67c-.41-.41-.41-1.08,0-1.49.41-.41,1.08-.41,1.49,0l6.02,6.02c.33.33.87.33,1.2,0,.33-.33.33-.87,0-1.2l-1.35-1.35v-3.36c.74.74,1.56,1.55,1.91,1.9.65.65,1.02,1.46,1.02,3.74,0,3.3-.02,8.43-.02,8.43h1.7s.02-5.13.02-8.43c0-2.11-.25-3.68-1.52-4.94Zm-11.67-2.01c-1.07,1.07-1.07,2.82,0,3.89l2.98,2.98c-.03.21-.06.46-.07.76h-2.1s0,0,0,0,0,0,0,0H1.7V1.7h5.2v6.19c-1-.43-2.21-.24-3.03.58Zm4.73.84V1.7h2.14v9.74l-2.14-2.14Z"/></g></svg>