<?xml version="1.0" encoding="UTF-8"?>
<svg id="Layer_1" data-name="Layer 1" xmlns="http://www.w3.org/2000/svg" viewBox="0 0 24 24">
  <defs>
    <style>
      .cls-1 {
        fill: #777;
      }
    </style>
  </defs>
  <path class="cls-1" d="m19.71,10.16c.13-.46.22-.93.25-1.43.08-1.71-.52-3.34-1.7-4.57-1.18-1.24-2.77-1.92-4.48-1.92h-6.92C3.4,2.24.56,4.97.5,8.33c-.04,2.43,1.35,4.66,3.54,5.7v1.85c0,.65.39,1.24.99,1.49.2.08.41.12.62.12.42,0,.83-.16,1.14-.47l2.27-2.26c.09-.09.2-.13.33-.13h.32c0,.11,0,.21,0,.32.08,2.55,2.28,4.63,4.91,4.63h1.4c.12,0,.24.05.33.14l1.57,1.57c.31.31.72.47,1.14.47.21,0,.42-.04.62-.12.61-.25,1-.84,1-1.49v-.98c1.75-.78,2.86-2.52,2.83-4.43-.03-2.22-1.65-4.08-3.79-4.58Zm-11.89,3.35l-2.01,2v-1.54c0-.65-.38-1.25-.97-1.53-1.59-.74-2.59-2.34-2.56-4.09.04-2.4,2.09-4.34,4.58-4.34h6.92c1.22,0,2.36.49,3.2,1.37.84.88,1.27,2.04,1.22,3.27-.11,2.32-2.16,4.21-4.57,4.21h-4.23c-.59,0-1.15.23-1.57.65Zm12.12,4.05c-.63.28-1.03.89-1.03,1.55v.66l-1.31-1.3c-.42-.42-.98-.65-1.58-.65h-1.4c-1.68,0-3.09-1.31-3.14-2.92,0-.09,0-.18.01-.27h2.14c2.23,0,4.18-1.12,5.31-2.81,1.55.16,2.78,1.42,2.8,2.94.02,1.21-.69,2.31-1.8,2.8Z"/>
  <circle class="cls-1" cx="6.51" cy="8.6" r="1.07"/>
  <circle class="cls-1" cx="10.23" cy="8.6" r="1.07"/>
  <circle class="cls-1" cx="13.95" cy="8.6" r="1.07"/>
</svg>