<?xml version="1.0" encoding="UTF-8"?><svg id="Layer_2" xmlns="http://www.w3.org/2000/svg" xmlns:xlink="http://www.w3.org/1999/xlink" viewBox="0 0 20 20"><defs><style>.cls-1{fill:#e52143;}.cls-2{fill:#b92c35;}.cls-3{fill:url(#_무제_그라디언트_5);filter:url(#drop-shadow-1);}</style><linearGradient id="_무제_그라디언트_5" x1="10" y1="6.74" x2="10" y2="13.26" gradientUnits="userSpaceOnUse"><stop offset="0" stop-color="#fff"/><stop offset="1" stop-color="#f7f7f7"/></linearGradient><filter id="drop-shadow-1" filterUnits="userSpaceOnUse"><feOffset dx="0" dy=".5"/><feGaussianBlur result="blur" stdDeviation=".6"/><feFlood flood-color="#000" flood-opacity=".3"/><feComposite in2="blur" operator="in"/><feComposite in="SourceGraphic"/></filter></defs><g id="_레이어_1"><rect class="cls-1" x=".5" y=".5" width="19" height="19" rx="6.5" ry="6.5"/><path class="cls-2" d="m13,1c3.31,0,6,2.69,6,6v6c0,3.31-2.69,6-6,6h-6c-3.31,0-6-2.69-6-6v-6C1,3.69,3.69,1,7,1h6m0-1h-6C3.13,0,0,3.13,0,7v6c0,3.87,3.13,7,7,7h6c3.87,0,7-3.13,7-7v-6c0-3.87-3.13-7-7-7h0Z"/><polygon class="cls-3" points="9.01 13.26 5.7 9.99 7.11 8.56 9.03 10.47 12.91 6.74 14.3 8.18 9.01 13.26"/></g></svg>