<?xml version="1.0" encoding="UTF-8"?><svg id="Layer_2" xmlns="http://www.w3.org/2000/svg" viewBox="0 0 41.74 47"><defs><style>.cls-1{fill:#ff5751;}.cls-2{fill:#e7a400;}.cls-3{fill:#fff;}.cls-4{fill:#ffee92;}.cls-5{fill:#ffc863;}.cls-6{fill:#e53333;}.cls-7{fill:#67a854;}.cls-8{fill:#78c565;}.cls-9{stroke:#0c3301;}.cls-9,.cls-10,.cls-11,.cls-12,.cls-13,.cls-14,.cls-15{fill:none;stroke-linecap:round;stroke-width:2px;}.cls-9,.cls-10,.cls-12,.cls-13,.cls-14,.cls-15{stroke-linejoin:round;}.cls-10{stroke:#164f07;}.cls-11{stroke:#3d1f01;stroke-miterlimit:10;}.cls-12{stroke:#470202;}.cls-13{stroke:#2a1c18;}.cls-14{stroke:#560505;}.cls-15{stroke:#2b2726;}</style></defs><g id="_격리_모드"><polygon class="cls-8" points="18.89 7.28 16.21 17.69 37.77 26.57 40.71 14.38 18.89 7.28"/><polygon class="cls-7" points="31.36 24.24 36.91 26.23 30.98 29.29 31.36 24.24"/><path class="cls-5" d="m20.57,20.06c.03.53-.62,1.37.12,1.93s.69,1.31.69,1.87c0,.56-1.12,1.31-.69,1.87s.58.92,1.56.19,1.62-1.31,3.74-1.75,3.06-.62,3.43-.94,1.06-.75.12-1.62-1.5-1.18-2.24-2c-.75-.81-1.12-1.62-1.31-1.93s-.87-.81-1.43-.75-4.12,1.18-3.99,3.12Z"/><path class="cls-2" d="m22.01,28.54c-.25.62-.69,1.81-.69,2.31,0,.5.94,1.31,1.37,1.68s2.24.31,3.18,0,3.99-2.06,4.3-2.37,1.06-.62,1-1.31-.25-3.18-.5-3.8-.31-1.18-.94-1.18-3.14-.07-3.74.31-2.43,1.12-2.74,1.37-1.56,1.18-1.56,1.18l-.5,1.25.81.56Z"/><path class="cls-4" d="m9.72,27.79c-.12-.87-.37-3.43.62-3.93s1.35-1.41,1.87-1.81,1.18-1.56,2.18-1.75,2.43-.37,3.49.06,1.06.19,1.93,1.31,1.68,2,1.56,2.74c-.12.75-.75,1.25-.37,2.24s.56,3.62.31,4.18-1.06,1.12-1.68.87-9.91-3.93-9.91-3.93Z"/><path class="cls-5" d="m2.57,25.77c1.6.28,4.03,1.03,5.15,1.34s1.25.19,1.37-1,.75-2.74,2.06-3.68,2.43-.75,1.56-2.31c-.87-1.56-.69-2.12-1.93-2.62-1.25-.5-5.18.19-5.67.69s-1.31,1.68-1.37,2-1.16,5.58-1.16,5.58Z"/><path class="cls-3" d="m2.93,9.9c-.37.56,0,2.18.69,2.43s1.51.2,2.12.06,1.06-.31,1.68.62c.62.94,1.18,2.18,1.68,2.68s2.99.69,3.55.31,1.25-1.5.31-2.93c-.94-1.43-2.99-4.12-3.06-4.61s-.19-1.93-.62-2.37-1.16-.77-1.81-.5-.99,1.2-1.5,1.68-1.27,1.46-1.93,1.5-1.12,1.12-1.12,1.12Z"/><path class="cls-2" d="m9.35,17.88s2.68.31,4.05,2.68c3.62-.06,5.92.75,6.42,1.12s.62-1.93,1.31-2.99,1.75-2,1.31-2.37-2.37-.56-3.3-.94c-.94-.37-1.37-.94-2.31-1.12s-2.37-.5-3.12-.19-2.24.94-2.74,1.43-1.62,2.37-1.62,2.37Z"/><polygon class="cls-1" points="24.39 46 2.57 38.69 2.57 25.77 24.39 33.08 24.39 46"/><polygon class="cls-6" points="37.77 26.57 24.39 33.08 24.39 46 37.77 39.49 37.77 26.57"/><path class="cls-7" d="m39.43,9.65L20.32,3.25c-.69-.23-1.39.28-1.39,1v2.74l21.81,7.31v-2.83c0-.82-.53-1.56-1.31-1.82Z"/><line class="cls-13" x1="10.18" y1="2.13" x2="10.27" y2="1.23"/><line class="cls-13" x1="4.81" y1="1" x2="5.46" y2="2.36"/><line class="cls-13" x1="1" y1="4.88" x2="1.98" y2="5.38"/><path class="cls-15" d="m13.45,13.22l-3.52-4.09c.79-.83.85-2.14.08-3.03-.82-.95-2.25-1.06-3.2-.24-1.26,1.08-.92,1.54-1.35,1.91-.58.5-1.05.15-2.09,1.05-.95.82-1.06,2.25-.24,3.2.82.95,2.25,1.06,3.2.24.06-.05.1-.12.15-.17l3.36,3.91"/><path class="cls-11" d="m2.57,25.77c0-3.77.24-4.8,1.04-5.83.8-1.03,5.87-5.25,9.86.74"/><path class="cls-11" d="m9.78,28.18c.05-.31-.56-2.48,0-3.28s1.59-1.54,1.99-2.11c.4-.57.74-.74.97-1.14s1.37-1.77,3.25-1.71c1.88.06,5.7,2.82,5.07,4.12-.63,1.3-.46,1.89-.11,2.51s1.61,3.75-.36,5.24"/><path class="cls-11" d="m20.55,19.94c.34-1.71,1.82-2.74,2.79-2.91s2.22-.41,2.74.51.91,2.06,1.82,2.4,2.11.8,2.28,1.43.57,1.4,0,2.18"/><path class="cls-13" d="m14.73,16.78c.09,0,.13.24.28.38"/><path class="cls-13" d="m23.7,20.43s.22.07.2.2"/><path class="cls-13" d="m13.78,25.59s.04.32.3.28"/><path class="cls-13" d="m24.96,28.15s.14.1.22.16.11-.02.17,0"/><polyline class="cls-10" points="17.18 14.23 18.93 6.99 40.74 14.3 37.77 26.57"/><polyline class="cls-10" points="18.93 6.99 40.74 14.3 37.77 26.57 31.08 24.32"/><path class="cls-9" d="m39.43,9.65L20.32,3.25c-.69-.23-1.39.28-1.39,1v2.74l21.81,7.31v-2.83c0-.82-.53-1.56-1.31-1.82Z"/><path class="cls-11" d="m9.94,17.54c.06-.39.97-1.93,1.71-2.56.74-.63,2.88-.97,3.95-.97s1.7.17,2.61.68c.91.51.8.91,2.05,1.08s2,.99,2.17,1.61"/><path class="cls-11" d="m31.88,29.43c-.1-1.62.02-2.53-.32-3.22s0-2.85-2.28-2.79-2.91.91-3.88,1.14c-.97.23-1.2.29-2.17.63s-.91,1.79-2.28,1.38"/><polygon class="cls-12" points="37.77 26.57 24.39 33.08 24.39 46 37.77 39.49 37.77 26.57"/><polygon class="cls-14" points="24.39 46 2.57 38.69 2.57 25.77 24.39 33.08 24.39 46"/></g></svg>