<?xml version="1.0" encoding="UTF-8"?><svg id="Layer_2" xmlns="http://www.w3.org/2000/svg" viewBox="0 0 21 21"><defs><style>.cls-1{stroke-linejoin:round;}.cls-1,.cls-2{fill:none;stroke:#202020;stroke-linecap:round;}.cls-2{stroke-miterlimit:10;}</style></defs><g id="Layer_1-2"><path class="cls-1" d="m9.19,7.47c0,.92-.75,1.67-1.67,1.67s-1.67-.75-1.67-1.67.75-1.67,1.67-1.67,1.67.75,1.67,1.67Z"/><circle class="cls-1" cx="13.53" cy="13.49" r="1.67"/><line class="cls-1" x1="12.28" y1="8.73" x2="5.85" y2="15.16"/><path class="cls-2" d="m.51,10.95c.23,5.1,4.43,9.3,9.54,9.54,5.4.25,9.91-3.78,10.44-8.98.06-.63-.17-1.25-.61-1.7L11.19,1.12c-.45-.45-1.07-.68-1.7-.61C4.29,1.04.26,5.55.51,10.95Z"/><path class="cls-1" d="m10.49.66c-1.21,7.16,2.7,11.07,9.86,9.86"/></g></svg>