<?xml version="1.0" encoding="UTF-8"?><svg id="Layer_2" xmlns="http://www.w3.org/2000/svg" viewBox="0 0 24 24"><defs><style>.cls-1{fill:#202020;}</style></defs><g id="Layer_1-2"><path class="cls-1" d="m12,0C5.37,0,0,5.37,0,12,0,18.63,5.37,24,12,24s12-5.37,12-12S18.63,0,12,0Zm4.77,15.71c.29.29.29.77,0,1.06-.15.15-.34.22-.53.22s-.38-.07-.53-.22l-3.71-3.71-3.71,3.71c-.15.15-.34.22-.53.22s-.38-.07-.53-.22c-.29-.29-.29-.77,0-1.06l3.71-3.71-3.71-3.71c-.29-.29-.29-.77,0-1.06s.77-.29,1.06,0l3.71,3.71,3.71-3.71c.29-.29.77-.29,1.06,0,.29.29.29.77,0,1.06l-3.71,3.71,3.71,3.71Z"/></g></svg>