<?xml version="1.0" encoding="utf-8"?>
<!-- Generator: Adobe Illustrator 27.7.0, SVG Export Plug-In . SVG Version: 6.00 Build 0)  -->
<svg version="1.1" id="Layer_1" xmlns="http://www.w3.org/2000/svg" xmlns:xlink="http://www.w3.org/1999/xlink" x="0px" y="0px"
	 viewBox="0 0 85 63.31" style="enable-background:new 0 0 85 63.31;" xml:space="preserve">
<g>
	<path d="M71.73,63.31l-58.88,0c-1.38,0-2.5-1.12-2.5-2.5c0-4.44-3.49-8.05-7.95-8.23C1.06,52.52,0,51.42,0,50.08V13.22
		c0-1.34,1.06-2.45,2.4-2.5c4.45-0.18,7.94-3.79,7.94-8.23c0-1.38,1.12-2.5,2.5-2.5h58.89c0.66,0,1.3,0.26,1.77,0.73
		c0.47,0.47,0.73,1.11,0.73,1.77c0,2.21,0.86,4.29,2.42,5.85c1.56,1.56,3.64,2.42,5.84,2.42c0,0,0,0,0,0h0
		c0.66,0,1.3,0.26,1.77,0.73c0.47,0.47,0.73,1.1,0.73,1.77l0,36.77c0,0.66-0.26,1.3-0.73,1.77s-1.1,0.73-1.77,0.73h0c0,0,0,0,0,0
		c-2.21,0-4.28,0.86-5.84,2.42c-1.56,1.56-2.42,3.64-2.42,5.85c0,0.66-0.26,1.3-0.73,1.77C73.03,63.04,72.39,63.31,71.73,63.31z
		 M15.11,58.31l54.35,0c0.49-2.59,1.75-4.98,3.65-6.88c1.91-1.91,4.29-3.16,6.88-3.65l0-32.24c-2.59-0.49-4.98-1.75-6.88-3.65
		C71.21,9.98,69.95,7.59,69.46,5H15.11C14.13,10.17,10.15,14.27,5,15.41v32.48C10.15,49.04,14.13,53.14,15.11,58.31z"/>
	<path d="M62.5,51l-40,0c0,0,0,0,0,0c-3.92,0-7.11-3.19-7.11-7.11V19.42c0-3.92,3.19-7.11,7.12-7.11h40c3.92,0,7.11,3.19,7.12,7.11
		v24.46C69.62,47.8,66.42,51,62.5,51z M22.5,46l40,0c1.17,0,2.12-0.95,2.12-2.12V19.42c0-1.17-0.95-2.11-2.12-2.11h-40
		c-1.17,0-2.12,0.95-2.12,2.11v24.46C20.39,45.05,21.34,46,22.5,46L22.5,46z"/>
</g>
<g>
	<path d="M31.91,24.05c-0.51-0.34-1.18-0.37-1.88-0.09l-3.23,1.1c-1.32,0.41-1.66,1.47-1.41,2.28c0.28,0.92,1.31,1.65,2.59,1.27
		l0.71-0.26v9.53c0,0.99,0.84,1.7,2,1.7c1.01,0,2.04-0.58,2.04-1.7V25.92C32.72,24.82,32.28,24.3,31.91,24.05z"/>
	<path d="M44.89,35.75h-2.67c-0.4,0-0.83,0.02-1.27,0.04c0.9-0.57,1.76-1.19,2.82-2.03c2.2-1.99,3.02-4.47,2.18-6.64
		c-0.8-2.09-3.01-3.39-5.77-3.39c-2.47,0-4.47,1.05-5.49,2.91c-0.57,1.19-0.09,2.15,0.63,2.56c0.79,0.46,2,0.36,2.65-0.59
		c0.5-0.74,1.37-1.21,2.21-1.21c1.02,0,1.7,0.37,1.91,1.04c0.28,0.85-0.23,1.97-1.19,2.67l-0.03,0.02c-0.77,0.65-1.51,1.23-2.23,1.8
		c-1.38,1.09-2.69,2.12-4.06,3.48c-0.6,0.58-0.8,1.33-0.53,1.99c0.28,0.69,1,1.11,1.89,1.11h8.93c0.74,0,1.19-0.31,1.44-0.56
		c0.31-0.33,0.48-0.77,0.48-1.25C46.8,36.75,46.13,35.75,44.89,35.75z"/>
	<path d="M58.24,30.88c-0.75-0.7-1.73-1.16-2.8-1.33l2.89-2.5c0.62-0.58,0.83-1.38,0.55-2.11c-0.29-0.75-1.02-1.21-1.9-1.21h-7.05
		c-1.24,0-1.91,0.96-1.91,1.86c0,0.47,0.17,0.92,0.49,1.24c0.24,0.26,0.69,0.56,1.42,0.56h2.59l-2.56,2.19
		c-0.71,0.51-0.97,1.42-0.64,2.21c0.28,0.65,1.08,1.33,2.36,1.11l0.13-0.01c1.05-0.1,2.79-0.27,3.5,0.38
		c0.22,0.2,0.33,0.49,0.33,0.87c0,1.44-1.24,1.74-2.29,1.74c-0.93,0-1.74-0.33-2.22-0.91c-0.88-1.06-2.19-0.97-2.99-0.36
		c-0.79,0.61-0.92,1.62-0.32,2.44c1.08,1.56,2.95,2.46,5.13,2.46c4.96,0,6.72-2.89,6.72-5.37C59.69,32.91,59.17,31.75,58.24,30.88z"
		/>
</g>
</svg>
