<?xml version="1.0" encoding="UTF-8"?><svg id="Layer_2" xmlns="http://www.w3.org/2000/svg" viewBox="0 0 31.5 32.3"><defs><style>.cls-1,.cls-2{fill:none;stroke:#2a1c18;stroke-linecap:round;stroke-linejoin:round;stroke-width:1.5px;}.cls-3{fill:#f9a75d;}.cls-4{fill:#f78e2f;}.cls-5{fill:#fff4e7;}.cls-6{fill:#fbc89a;}.cls-7{fill:#c3d6f9;}.cls-8{fill:#44d88d;}.cls-2{stroke-dasharray:0 0 6.72 6.72;}</style></defs><g id="_격리_모드"><path class="cls-7" d="m28.83,9.41c0-1.06.86-1.92,1.92-1.92V2.8c0-1.13-.92-2.05-2.05-2.05H2.8C1.67.75.75,1.67.75,2.8v4.68c1.06,0,1.92.86,1.92,1.92s-.86,1.92-1.92,1.92v18.16c0,1.13.92,2.05,2.05,2.05h25.89c1.13,0,2.05-.92,2.05-2.05V11.33c-1.06,0-1.92-.86-1.92-1.92Z"/><path class="cls-8" d="m28.7.75H2.8C1.67.75.75,1.67.75,2.8v4.68c1.06,0,1.92.86,1.92,1.92h26.15c0-1.06.86-1.92,1.92-1.92V2.8c0-1.13-.92-2.05-2.05-2.05Z"/><path d="m11.86,22.43h-6.17c-.08,0-.14-.06-.14-.14v-3.73l-1.97,1.22v7.59c0,.54.44.99.98.99h7.29c.54,0,.98-.44.98-.99v-3.96c0-.54-.44-.99-.98-.99Zm-6.31,4.36v-2.78c0-.08.06-.14.14-.14h5.03c.08,0,.14.06.14.14v2.78c0,.08-.06.14-.14.14h-5.03c-.08,0-.14-.06-.14-.14Z"/><path class="cls-5" d="m19.52,24.33l-1.2,1.2c-.46-.37-1.13-.35-1.56.07-.45.45-.45,1.19,0,1.65.6.6.83.41,1.03.62.28.28.12.53.62,1.03.45.45,1.19.45,1.65,0,.45-.45.45-1.19,0-1.65-.03-.03-.06-.05-.09-.07l1.2-1.2"/><path class="cls-3" d="m30.75,13.43c-2.3-1.59-5.48-1.37-7.53.68-.15.15-.3.32-.43.48-.03.04-.05.08-.08.11-.09.12-.19.24-.27.37-1.74,2.62-1.9,6.49-2.6,7.19l-.2.2c-.55.55-.55,1.44,0,1.99l1.59,1.59c.55.55,1.44.55,1.99,0l.2-.2c.72-.72,4.58-.68,7.33-2.69v-9.72Z"/><path class="cls-6" d="m29.36,14.63c0,.62-.63,1.12-1.41,1.12s-1.41-.5-1.41-1.12.63-1.13,1.41-1.13,1.41.5,1.41,1.13Z"/><circle class="cls-4" cx="28.24" cy="14.62" r=".28"/><circle class="cls-4" cx="25.99" cy="15.18" r=".28"/><circle class="cls-4" cx="28.8" cy="16.87" r=".28"/><path class="cls-4" d="m30.75,21.28c-.06.06-.11.13-.17.19-.15.15-.3.29-.46.42-2.7,2.35-6.38,2.78-7.13,3.53l-.2.2c-.55.55-1.33.66-1.75.24l-.61-.61.8.8c.55.55,1.44.55,1.99,0l.2-.2c.72-.72,4.58-.68,7.33-2.69v-1.87Z"/><path class="cls-1" d="m19.52,24.33l-1.2,1.2c-.46-.37-1.13-.35-1.56.07-.45.45-.45,1.19,0,1.65.6.6.83.41,1.03.62.28.28.12.53.62,1.03.45.45,1.19.45,1.65,0,.45-.45.45-1.19,0-1.65-.03-.03-.06-.05-.09-.07l1.2-1.2"/><circle class="cls-1" cx="28.24" cy="14.62" r=".28"/><circle class="cls-1" cx="25.99" cy="15.18" r=".28"/><circle class="cls-1" cx="28.8" cy="16.87" r=".28"/><path class="cls-1" d="m30.75,13.43c-2.3-1.59-5.48-1.37-7.53.68-.15.15-.3.32-.43.48-.03.04-.05.08-.08.11-.09.12-.19.24-.27.37-1.74,2.62-1.9,6.49-2.6,7.19l-.2.2c-.55.55-.55,1.44,0,1.99l1.59,1.59c.55.55,1.44.55,1.99,0l.2-.2c.72-.72,4.58-.68,7.33-2.69"/><line class="cls-1" x1="2.67" y1="9.41" x2="5.67" y2="9.41"/><line class="cls-2" x1="12.39" y1="9.41" x2="22.47" y2="9.41"/><line class="cls-1" x1="25.83" y1="9.41" x2="28.83" y2="9.41"/><line class="cls-1" x1="5.06" y1="3.72" x2="5.06" y2="6.44"/><line class="cls-1" x1="7.53" y1="3.72" x2="7.53" y2="6.44"/><line class="cls-1" x1="9.99" y1="3.72" x2="9.99" y2="6.44"/><line class="cls-1" x1="5.06" y1="13" x2="11.62" y2="13"/><line class="cls-1" x1="5.06" y1="15.78" x2="16.06" y2="15.78"/><path class="cls-1" d="m28.83,9.41c0-1.06.86-1.92,1.92-1.92V2.8c0-1.13-.92-2.05-2.05-2.05H2.8C1.67.75.75,1.67.75,2.8v4.68c1.06,0,1.92.86,1.92,1.92s-.86,1.92-1.92,1.92v18.16c0,1.13.92,2.05,2.05,2.05h25.89c1.13,0,2.05-.92,2.05-2.05V11.33c-1.06,0-1.92-.86-1.92-1.92Z"/></g></svg>