<?xml version="1.0" encoding="UTF-8"?><svg id="Layer_2" xmlns="http://www.w3.org/2000/svg" viewBox="0 0 33.5 24.31"><defs><style>.cls-1{fill:#324266;}.cls-2{fill:none;stroke:#324266;stroke-linecap:round;stroke-linejoin:round;stroke-width:1.5px;}</style></defs><g id="_격리_모드"><path class="cls-1" d="m12.87,4.43h-3.72s-.03-.01-.03-.03v-1.21l-1.29.76v3.39c0,.34.29.62.64.62h4.4c.36,0,.64-.28.64-.62v-2.29c0-.34-.29-.62-.64-.62Zm-.66.96v1.61s-.02.03-.03.03h-3.03s-.03-.01-.03-.03v-1.61s.01-.03.03-.03h3.03s.03.02.03.03Z"/><path class="cls-2" d="m25.3,4.54h1.82c.52,0,1.67.53,1.36,1.81-.31,1.28-1.83,7.55-1.99,8.24-.35,1.46-2.47,4.77-6.64,4.77"/><path class="cls-2" d="m26.49,14.56h2.72c4.42,0,3.45,4.46,3.45,4.46h-10.64"/><path class="cls-2" d="m14.35,19.93c-.48,2-2.5,3.62-4.5,3.62s-3.23-1.62-2.75-3.62"/><path class="cls-2" d="m13.16,13.59c-3.5,0-7.03,2.84-7.87,6.34h14.49c.85-3.5-1.31-6.34-4.81-6.34h-1.81Z"/><path class="cls-2" d="m31.64,19.03c0,.29-.03.59-.1.91-.48,2-2.5,3.62-4.5,3.62s-3.23-1.62-2.75-3.62c.08-.31.19-.62.33-.91"/><path class="cls-2" d="m17.64,9.97h-9.26c-.35,0-.63.28-.6.63.18,2.27,2.46,3,5.38,3h1.81c1.56,0,3.03-.21,4.27-.75,1.58-.8,2.19-2.88-1.6-2.88Z"/><line class="cls-2" x1="31.2" y1="6.35" x2="30.54" y2="9.06"/><path class="cls-2" d="m14.95.75h-5.43c-2.34,0-4.23,1.89-4.23,4.23v4.99h10.6V1.69c0-.52-.42-.94-.94-.94Z"/><line class="cls-2" x1="5.44" y1="13.29" x2="2.42" y2="13.29"/><line class="cls-2" x1="4.35" y1="16.61" x2="3.19" y2="16.61"/><line class="cls-2" x1="2.93" y1="19.93" x2=".75" y2="19.93"/></g></svg>