<?xml version="1.0" encoding="UTF-8"?><svg id="Layer_2" xmlns="http://www.w3.org/2000/svg" viewBox="0 0 52 37.63"><defs><style>.cls-1{fill:#f53d3d;}.cls-2{fill:#fff;}.cls-3{fill:#fff222;}.cls-4{fill:#7b8baf;}.cls-5{stroke:#061c44;}.cls-5,.cls-6{fill:none;stroke-linecap:round;stroke-linejoin:round;stroke-width:2px;}.cls-7{opacity:.15;}.cls-7,.cls-8{fill:#000064;}.cls-6{stroke:#560404;}.cls-8{opacity:.2;}.cls-9{opacity:.25;}</style></defs><g id="_격리_모드"><path class="cls-1" d="m41.23,22.58h4.25c6.9,0,5.39,6.98,5.39,6.98h-16.63s4.07-.21,6.99-6.98Z"/><path class="cls-4" d="m49.26,29.56c0,.45-.04.93-.16,1.42-.76,3.13-3.9,5.66-7.03,5.66s-5.05-2.53-4.29-5.66c.12-.49.3-.96.52-1.42"/><path class="cls-4" d="m27.39,15.41h-14.48c-.55,0-.98.44-.94.98.29,3.55,3.85,4.68,8.41,4.68h2.83c2.44,0,4.74-.33,6.67-1.17,2.47-1.25,3.42-4.49-2.5-4.49Z"/><path class="cls-4" d="m22.24,30.97c-.76,3.13-3.9,5.66-7.03,5.66s-5.05-2.53-4.29-5.66"/><path class="cls-1" d="m20.39,21.07c-5.47,0-10.98,4.44-12.3,9.91h22.64c1.32-5.47-2.04-9.91-7.51-9.91h-2.83Z"/><path class="cls-7" d="m20.31,20.92h2.88c2.48,0,4.8-.33,6.68-1.18.48-.25.89-.59,1.19-.96h-9.66c-6.32,0-8.75-3.58-8.75-3.58h-1.43c.06,4.38,4.03,5.72,9.08,5.72Z"/><path class="cls-8" d="m49.63,29.51h-11.09c-.19.46-.33.94-.4,1.43s-.08.97-.03,1.43h11.07c.19-.46.33-.94.41-1.43s.09-.97.04-1.43Z"/><path class="cls-8" d="m11.67,30.94c-.16,1.04-.03,2.02.33,2.86h9.9c.62-.84,1.05-1.82,1.21-2.86h-11.45Z"/><path class="cls-7" d="m20.37,20.92c-5.53,0-10.71,4.49-11.56,10.02h5.01c.59-3.82,2.87-7.81,5.79-7.81h9.54c-1.5-1.38-3.55-2.21-5.92-2.21h-2.86Z"/><g class="cls-9"><path class="cls-2" d="m43.3,24.17c4.44,0,5.3,3.25,5.42,5.11h2.1s.82-6.39-5.41-6.39h-3.83l-.02.13c-.05.33-.16.72-.33,1.15h2.07Z"/><path class="cls-2" d="m36.16,29.28c.11-.08.21-.17.32-.25-.22.09-.44.18-.67.25h0s.35,0,.35,0Z"/></g><path class="cls-1" d="m22.6,1h-5.27c-5.1,0-9.24,4.14-9.24,9.24v5.17h16.57V3.06c0-1.14-.92-2.06-2.06-2.06Z"/><path class="cls-3" d="m20.22,7.63h-5.39s-.05-.02-.05-.04v-3.25l-1.86,1.1v6.4c0,.5.42.9.93.9h6.37c.51,0,.93-.4.93-.9v-3.31c0-.5-.42-.9-.93-.9Zm-.95,1.39v2.33s-.02.04-.05.04h-4.39s-.05-.02-.05-.04v-2.33s.02-.04.05-.04h4.39s.05.02.05.04Z"/><path class="cls-5" d="m22.24,30.97c-.76,3.13-3.9,5.66-7.03,5.66s-5.05-2.53-4.29-5.66"/><path class="cls-5" d="m49.26,29.56c0,.45-.04.93-.16,1.42-.76,3.13-3.9,5.66-7.03,5.66s-5.05-2.53-4.29-5.66c.12-.49.3-.96.52-1.42"/><path class="cls-6" d="m41.23,22.58h4.25c6.9,0,5.39,6.98,5.39,6.98h-16.63"/><path class="cls-5" d="m39.36,6.92h2.85c.81,0,2.61.83,2.13,2.83-.48,2-2.85,11.8-3.12,12.88-.55,2.28-3.86,7.45-10.38,7.45"/><path class="cls-6" d="m20.39,21.07c-5.47,0-10.98,4.44-12.3,9.91h22.64c1.32-5.47-2.04-9.91-7.51-9.91h-2.83Z"/><path class="cls-5" d="m27.39,15.41h-14.48c-.55,0-.98.44-.94.98.29,3.55,3.85,4.68,8.41,4.68h2.83c2.44,0,4.74-.33,6.67-1.17,2.47-1.25,3.42-4.49-2.5-4.49Z"/><line class="cls-5" x1="48.58" y1="9.74" x2="47.55" y2="13.99"/><path class="cls-6" d="m22.6,1h-5.27c-5.1,0-9.24,4.14-9.24,9.24v5.17h16.57V3.06c0-1.14-.92-2.06-2.06-2.06Z"/><line class="cls-5" x1="8.33" y1="20.59" x2="3.62" y2="20.59"/><line class="cls-5" x1="6.63" y1="25.78" x2="4.81" y2="25.78"/><line class="cls-5" x1="4.41" y1="30.97" x2="1" y2="30.97"/></g></svg>