<?xml version="1.0" encoding="UTF-8"?>
<svg id="Layer_1" data-name="Layer 1" xmlns="http://www.w3.org/2000/svg" viewBox="0 0 24 24">
  <defs>
    <style>
      .cls-1 {
        fill: #B92C35;
      }
    </style>
  </defs>
  <path class="cls-1" d="m20.87,0h-.01s-.01,0-.02,0h-12.53C6.58,0,5.17,1.41,5.17,3.14v13.84H.92C.41,16.98,0,17.4,0,17.91v1.48C0,21.93,2.07,24,4.62,24h10.34c2.54,0,4.61-2.07,4.61-4.62V5.53h3.51c.51,0,.92-.41.92-.92v-1.47C24,1.41,22.6,0,20.87,0ZM4.62,22.15c-1.53,0-2.77-1.24-2.77-2.77v-.55h8.49v.55c0,1.04.34,2,.93,2.77h-6.65Zm13.11-2.77c0,1.53-1.24,2.77-2.77,2.77s-2.77-1.24-2.77-2.77v-1.48c0-.51-.41-.92-.92-.92h-4.25V3.14c0-.71.58-1.29,1.29-1.29h9.7c-.18.39-.28.83-.28,1.29v16.25Zm4.43-15.7h-2.58v-.55c0-.71.57-1.28,1.28-1.29h.01c.71,0,1.29.58,1.29,1.29v.55Z"/>
  <path class="cls-1" d="m14.96,3.69h-5.91c-.51,0-.92.41-.92.92s.41.92.92.92h5.91c.51,0,.92-.41.92-.92s-.41-.92-.92-.92Z"/>
  <path class="cls-1" d="m14.96,9.6h-5.91c-.51,0-.92.41-.92.92s.41.92.92.92h5.91c.51,0,.92-.41.92-.92s-.41-.92-.92-.92Z"/>
  <path class="cls-1" d="m9.05,8.49h4.43c.51,0,.92-.41.92-.92s-.41-.92-.92-.92h-4.43c-.51,0-.92.41-.92.92s.41.92.92.92Z"/>
  <path class="cls-1" d="m13.48,12.55h-4.43c-.51,0-.92.41-.92.92s.41.92.92.92h4.43c.51,0,.92-.41.92-.92s-.41-.92-.92-.92Z"/>
</svg>