<?xml version="1.0" encoding="UTF-8"?>
<svg id="Layer_1" data-name="Layer 1" xmlns="http://www.w3.org/2000/svg" viewBox="0 0 24 24">
  <defs>
    <style>
      .cls-1 {
        fill: #354263;
      }
    </style>
  </defs>
  <path class="cls-1" d="m6.01,7.43c.51,0,.92-.41.92-.92v-1.05c0-.51-.41-.92-.92-.92s-.92.41-.92.92v1.05c0,.51.41.92.92.92Z"/>
  <path class="cls-1" d="m6.01,10.93c.51,0,.92-.41.92-.92v-1.05c0-.51-.41-.92-.92-.92s-.92.41-.92.92v1.05c0,.51.41.92.92.92Z"/>
  <path class="cls-1" d="m6.01,14.42c.51,0,.92-.41.92-.92v-1.05c0-.51-.41-.92-.92-.92s-.92.41-.92.92v1.05c0,.51.41.92.92.92Z"/>
  <path class="cls-1" d="m9.46,13.11c.18.18.42.27.65.27s.47-.09.65-.27l5.96-5.96c.36-.36.36-.94,0-1.31-.36-.36-.94-.36-1.31,0l-5.96,5.96c-.36.36-.36.94,0,1.31Z"/>
  <path class="cls-1" d="m10.12,8.9c1.32,0,2.4-1.08,2.4-2.4s-1.08-2.4-2.4-2.4-2.4,1.08-2.4,2.4,1.08,2.4,2.4,2.4Zm0-2.95c.31,0,.55.25.55.55s-.25.55-.55.55-.55-.25-.55-.55.25-.55.55-.55Z"/>
  <path class="cls-1" d="m13.68,12.46c0,1.32,1.08,2.4,2.4,2.4s2.4-1.08,2.4-2.4-1.08-2.4-2.4-2.4-2.4,1.08-2.4,2.4Zm2.95,0c0,.31-.25.55-.55.55s-.55-.25-.55-.55.25-.55.55-.55.55.25.55.55Z"/>
  <path class="cls-1" d="m21.05,6.89v-.74c0-2.54-2.07-4.62-4.62-4.62H4.62C2.07,1.54,0,3.61,0,6.16v6.65c0,1.96,1.23,3.63,2.95,4.3v.74c0,2.54,2.07,4.62,4.62,4.62h11.82c2.54,0,4.62-2.07,4.62-4.62v-6.65c0-1.92-1.21-3.63-2.95-4.31ZM1.85,12.8v-6.65c0-1.53,1.24-2.77,2.77-2.77h.55c.14.33.47.55.85.55s.7-.23.85-.55h9.58c1.53,0,2.77,1.24,2.77,2.77v6.65c0,1.53-1.24,2.77-2.77,2.77H6.86c-.14-.33-.47-.55-.85-.55s-.7.23-.85.55h-.55c-1.53,0-2.77-1.24-2.77-2.77Zm20.31,5.04c0,1.53-1.24,2.77-2.77,2.77h-9.5v-.59c0-.51-.41-.92-.92-.92s-.92.41-.92.92v.59h-.47c-1.53,0-2.77-1.24-2.77-2.77v-.43h3.27c.1.4.46.69.89.69s.79-.29.89-.69h6.58c2.54,0,4.62-2.07,4.62-4.62v-3.82c.68.51,1.11,1.32,1.11,2.21v6.65Z"/>
</svg>