<?xml version="1.0" encoding="UTF-8"?><svg id="Layer_2" xmlns="http://www.w3.org/2000/svg" viewBox="0 0 39.5 34.75"><defs><style>.cls-1{stroke-linecap:round;}.cls-1,.cls-2{fill:none;stroke:#4f0053;stroke-linejoin:round;stroke-width:1.5px;}.cls-3{fill:#00b9b9;}.cls-4{fill:#ffc93a;}.cls-5{fill:#ff4557;}</style></defs><g id="_레이어_1"><path class="cls-5" d="m13.22.75l-3.84,3.84c1.32,1.32,1.32,3.47,0,4.8s-3.47,1.32-4.8,0l-3.84,3.84,20.78,20.78,12.47-12.47L13.22.75Z"/><rect class="cls-4" x="12.69" y="12.71" width="17.66" height="17.63" transform="translate(21.52 -8.91) rotate(45)"/><circle class="cls-3" cx="21.51" cy="16.77" r="1.96"/><circle class="cls-3" cx="21.51" cy="26.3" r="1.96"/><line class="cls-2" x1="9.03" y1="21.53" x2="21.51" y2="9.04"/><line class="cls-1" x1="26.57" y1="21.53" x2="16.46" y2="21.53"/><circle class="cls-2" cx="21.51" cy="16.77" r="1.96"/><circle class="cls-2" cx="21.51" cy="26.3" r="1.96"/><line class="cls-1" x1="11.39" y1="11.39" x2="12.97" y2="12.97"/><line class="cls-1" x1="13.44" y1="9.35" x2="15.02" y2="10.93"/><line class="cls-1" x1="9.35" y1="13.44" x2="10.93" y2="15.02"/><path class="cls-2" d="m13.22.75l-3.84,3.84c1.32,1.32,1.32,3.47,0,4.8s-3.47,1.32-4.8,0l-3.84,3.84,20.78,20.78,12.47-12.47L13.22.75Z"/><path class="cls-5" d="m17.97.75l-3.84,3.84c1.32,1.32,1.32,3.47,0,4.8-1.32,1.32-3.47,1.32-4.8,0l-3.84,3.84,20.78,20.78,12.47-12.47L17.97.75Z"/><rect class="cls-4" x="17.44" y="12.71" width="17.66" height="17.63" transform="translate(22.91 -12.27) rotate(45)"/><circle class="cls-3" cx="26.26" cy="16.77" r="1.96"/><circle class="cls-3" cx="26.26" cy="26.3" r="1.96"/><line class="cls-2" x1="13.78" y1="21.53" x2="26.26" y2="9.04"/><line class="cls-1" x1="31.32" y1="21.53" x2="21.21" y2="21.53"/><circle class="cls-2" cx="26.26" cy="16.77" r="1.96"/><circle class="cls-2" cx="26.26" cy="26.3" r="1.96"/><line class="cls-1" x1="16.14" y1="11.39" x2="17.72" y2="12.97"/><line class="cls-1" x1="18.19" y1="9.35" x2="19.77" y2="10.93"/><line class="cls-1" x1="14.1" y1="13.44" x2="15.68" y2="15.02"/><path class="cls-2" d="m17.97.75l-3.84,3.84c1.32,1.32,1.32,3.47,0,4.8-1.32,1.32-3.47,1.32-4.8,0l-3.84,3.84,20.78,20.78,12.47-12.47L17.97.75Z"/></g></svg>