<?xml version="1.0" encoding="utf-8"?>
<!-- Generator: Adobe Illustrator 27.7.0, SVG Export Plug-In . SVG Version: 6.00 Build 0)  -->
<svg version="1.1" id="Layer_1" xmlns="http://www.w3.org/2000/svg" xmlns:xlink="http://www.w3.org/1999/xlink" x="0px" y="0px"
	 viewBox="0 0 20 12.51" style="enable-background:new 0 0 20 12.51;" xml:space="preserve">
<style type="text/css">
	.st0{fill:#8E93AD;}
</style>
<g>
	<path class="st0" d="M10,12.51c-5.72,0-9.69-5.57-9.86-5.81c-0.19-0.27-0.19-0.63,0-0.9C0.31,5.57,4.28,0,10,0
		c5.72,0,9.69,5.57,9.86,5.81c0.19,0.27,0.19,0.63,0,0.9C19.69,6.94,15.72,12.51,10,12.51z M1.77,6.26c1.02,1.25,4.2,4.69,8.23,4.69
		c4.04,0,7.21-3.44,8.23-4.69C17.21,5,14.03,1.56,10,1.56C5.97,1.56,2.79,5,1.77,6.26z"/>
	<path class="st0" d="M10,10.01c-2.15,0-3.91-1.75-3.91-3.91S7.85,2.2,10,2.2s3.91,1.75,3.91,3.91S12.15,10.01,10,10.01z M10,3.76
		c-1.29,0-2.34,1.05-2.34,2.34S8.71,8.45,10,8.45s2.34-1.05,2.34-2.34S11.29,3.76,10,3.76z"/>
</g>
</svg>
