<?xml version="1.0" encoding="utf-8"?>
<!-- Generator: Adobe Illustrator 27.7.0, SVG Export Plug-In . SVG Version: 6.00 Build 0)  -->
<svg version="1.1" id="Layer_1" xmlns="http://www.w3.org/2000/svg" xmlns:xlink="http://www.w3.org/1999/xlink" x="0px" y="0px"
	 viewBox="0 0 20 19.85" style="enable-background:new 0 0 20 19.85;" xml:space="preserve">
<style type="text/css">
	.st0{fill:#8E93AD;}
</style>
<g>
	<path class="st0" d="M19.86,9.64c-0.05-0.07-1.2-1.69-3.13-3.21l-0.97,1.23c1.16,0.91,2.02,1.88,2.47,2.43
		c-1.02,1.25-4.19,4.69-8.23,4.69c-0.57,0-1.15-0.07-1.72-0.21L7.92,16.1c0.69,0.16,1.39,0.25,2.08,0.25c5.72,0,9.69-5.57,9.86-5.81
		C20.05,10.27,20.05,9.91,19.86,9.64z"/>
	<path class="st0" d="M10,12.28v1.56c2.15,0,3.91-1.75,3.91-3.91h-1.56C12.34,11.23,11.29,12.28,10,12.28z"/>
	<path class="st0" d="M18.82,0l-4.77,4.77C12.71,4.15,11.35,3.83,10,3.83c-5.72,0-9.69,5.57-9.86,5.81c-0.19,0.27-0.19,0.63,0,0.9
		c0.07,0.1,1.64,2.3,4.18,3.96l-4.25,4.25l1.1,1.1L19.93,1.1L18.82,0z M1.77,10.09C2.79,8.84,5.97,5.4,10,5.4
		c0.94,0,1.9,0.19,2.86,0.56l-0.71,0.71C11.52,6.25,10.78,6.03,10,6.03c-2.15,0-3.91,1.75-3.91,3.91c0,0.78,0.23,1.52,0.64,2.15
		l-1.28,1.28C3.67,12.27,2.36,10.81,1.77,10.09z M7.66,9.94c0-1.29,1.05-2.34,2.34-2.34c0.35,0,0.69,0.08,1,0.23l-3.12,3.12
		C7.74,10.63,7.66,10.29,7.66,9.94z"/>
</g>
</svg>
