<?xml version="1.0" encoding="UTF-8"?><svg id="Layer_2" xmlns="http://www.w3.org/2000/svg" viewBox="0 0 23.5 24.73"><defs><style>.cls-1{fill:none;stroke:#324266;stroke-linejoin:round;stroke-width:1.5px;}</style></defs><g id="_격리_모드"><ellipse class="cls-1" cx="12.42" cy="12.31" rx="1.45" ry="6.72" transform="translate(-5.06 12.39) rotate(-45)"/><polyline class="cls-1" points="7.67 7.56 .75 23.98 17.17 17.06"/><path class="cls-1" d="m10.06,9.95s3.8-3.17,3.49-9.21"/><path class="cls-1" d="m14.5,14.38s3.18-1.67,4.85-1.82"/><circle class="cls-1" cx="21.55" cy="10.11" r="1.2"/><circle class="cls-1" cx="18.37" cy="1.95" r="1.2"/><path class="cls-1" d="m17.95,7.66s1.55-1.61,4.63-1.99"/><line class="cls-1" x1="15.62" y1="7.13" x2="15.62" y2="10.54"/><line class="cls-1" x1="17.32" y1="8.83" x2="13.92" y2="8.83"/><line class="cls-1" x1="9.43" y1="2.06" x2="9.43" y2="5.46"/><line class="cls-1" x1="11.14" y1="3.76" x2="7.73" y2="3.76"/><path class="cls-1" d="m3.99,22.61s1.06-2.7-.65-4.79"/><path class="cls-1" d="m6.5,21.55c1.72-3.21.06-6.03-1.28-8.18"/><path class="cls-1" d="m9.13,20.45c1.45-3.56,1.73-6.43.45-9.12"/><path class="cls-1" d="m12.74,18.93c.91-.96,1.2-2.35,1.17-3.26"/><path class="cls-1" d="m8.33,14.87c.06.32.09.65.08.98"/><path class="cls-1" d="m6.27,10.89s.87.97,1.5,2.3"/></g></svg>