<?xml version="1.0" encoding="UTF-8"?><svg id="Layer_2" xmlns="http://www.w3.org/2000/svg" viewBox="0 0 24 24"><defs><style>.cls-1{fill:#8e93ad;}</style></defs><g id="Layer_1-2"><path class="cls-1" d="m4.06,17.86V2.4c0-.51-.41-.92-.92-.92s-.92.41-.92.92v15.46c-1.28.4-2.22,1.59-2.22,3,0,1.73,1.41,3.14,3.14,3.14s3.14-1.41,3.14-3.14c0-1.41-.93-2.6-2.22-3Zm-.92,4.29c-.71,0-1.29-.58-1.29-1.29s.58-1.29,1.29-1.29,1.29.58,1.29,1.29-.58,1.29-1.29,1.29Z"/><path class="cls-1" d="m24,3.14c0-1.73-1.41-3.14-3.14-3.14s-3.14,1.41-3.14,3.14c0,1.41.93,2.6,2.22,3v15.46c0,.51.41.92.92.92s.92-.41.92-.92V6.14c1.28-.4,2.22-1.59,2.22-3Zm-3.14,1.29c-.71,0-1.29-.58-1.29-1.29s.58-1.29,1.29-1.29,1.29.58,1.29,1.29-.58,1.29-1.29,1.29Z"/><path class="cls-1" d="m12.92,9V2.4c0-.51-.41-.92-.92-.92s-.92.41-.92.92v6.6c-1.28.4-2.22,1.59-2.22,3s.93,2.6,2.22,3v6.6c0,.51.41.92.92.92s.92-.41.92-.92v-6.6c1.28-.4,2.22-1.59,2.22-3s-.93-2.6-2.22-3Zm-.92,4.29c-.71,0-1.29-.58-1.29-1.29s.58-1.29,1.29-1.29c0,0,0,0,0,0s0,0,0,0c.71,0,1.29.58,1.29,1.29s-.58,1.29-1.29,1.29Z"/></g></svg>