<?xml version="1.0" encoding="UTF-8"?><svg id="Layer_2" xmlns="http://www.w3.org/2000/svg" viewBox="0 0 29.41 21.5"><defs><style>.cls-1{stroke-linecap:round;}.cls-1,.cls-2{fill:none;stroke:#324266;stroke-miterlimit:10;stroke-width:1.5px;}</style></defs><g id="Layer_1-2"><path class="cls-1" d="m9.42,9.73h8.87c1.09,0,1.98.89,1.98,1.98h0c0,1.09-.89,1.98-1.98,1.98h-4.87s-1.53,3-5.89,2.54"/><path class="cls-1" d="m16.01,5.49s-3.91-.01-4.93-.01c-1.39,0-2.51.64-4.13,2.26C4.51,10.17.75,13.97.75,13.97"/><path class="cls-1" d="m14.31,17.36c-.85.85-2.08,1.88-4.17,2.33-2.09.45-2.4.86-2.61,1.06"/><path class="cls-2" d="m12.09,15.15l4.48,4.48c.31.31.82.31,1.13,0l10.73-10.73c.31-.31.31-.82,0-1.13L21.65.98c-.31-.31-.82-.31-1.13,0l-8.75,8.75"/><line class="cls-2" x1="23.91" y1="3.24" x2="17.42" y2="9.73"/></g></svg>