<?xml version="1.0" encoding="UTF-8"?><svg id="Layer_2" xmlns="http://www.w3.org/2000/svg" viewBox="0 0 26 26"><defs><style>.cls-1{fill:none;stroke:#000;stroke-linecap:round;stroke-linejoin:round;stroke-width:2px;}</style></defs><g id="Layer_1-2"><path class="cls-1" d="m18.6,25c0-.8-.53-2.58-3.45-3.08-3.27-.56-2.95-1.4-2.95-1.96v-1.02c.97-.92,1.6-2.38,1.6-4.03v-2.69c0-2.91-2.11-4.03-4-4.03s-4,1.12-4,4.03v2.69c0,1.66.64,3.13,1.62,4.05v.99c0,.56.3,1.4-2.97,1.96-2.92.5-3.45,2.28-3.45,3.08"/><line class="cls-1" x1="17.4" y1="6.2" x2="17.4" y2="6.2"/><line class="cls-1" x1="20.6" y1="6.2" x2="20.6" y2="6.2"/><line class="cls-1" x1="14.2" y1="6.2" x2="14.2" y2="6.2"/><path class="cls-1" d="m13.71,11.24c.41.11.85.16,1.29.16h.65c.74,0,1.35.6,1.35,1.35h0c0,.55.66.84,1.06.46l1.4-1.3c.31-.29.7-.51,1.12-.57,2.69-.4,4.7-2.86,4.39-5.72-.29-2.67-2.69-4.62-5.38-4.62h-4.37c-2.74,0-5.17,2.03-5.4,4.76-.07.88.08,1.71.39,2.45"/></g></svg>