<?xml version="1.0" encoding="UTF-8"?><svg id="Layer_2" xmlns="http://www.w3.org/2000/svg" viewBox="0 0 24 24"><defs><style>.cls-1{fill:#8e93ad;}</style></defs><g id="_레이어_1"><path class="cls-1" d="m12,0C5.38,0,0,5.38,0,12s5.38,12,12,12,12-5.38,12-12S18.62,0,12,0Zm0,1.85c5.6,0,10.15,4.55,10.15,10.15,0,2.18-.69,4.19-1.86,5.85-1.16-1.83-2.88-3.2-4.88-3.94,1.19-.98,1.94-2.47,1.94-4.12,0-2.95-2.4-5.35-5.35-5.35s-5.35,2.4-5.35,5.35c0,1.66.76,3.14,1.94,4.12-2,.74-3.72,2.12-4.88,3.94-1.17-1.66-1.86-3.67-1.86-5.85C1.85,6.4,6.4,1.85,12,1.85Zm-3.51,7.94c0-1.93,1.57-3.51,3.51-3.51s3.51,1.57,3.51,3.51-1.57,3.51-3.51,3.51-3.51-1.57-3.51-3.51Zm-3.51,9.54c1.38-2.56,4.07-4.19,7.02-4.19s5.63,1.63,7.02,4.19c-1.82,1.75-4.3,2.83-7.02,2.83s-5.19-1.08-7.02-2.83Z"/></g></svg>