<?xml version="1.0" encoding="UTF-8"?><svg id="Layer_2" xmlns="http://www.w3.org/2000/svg" viewBox="0 0 30 30"><defs><style>.cls-1{fill:#777;}</style></defs><g id="_레이어_1"><path class="cls-1" d="m0,30h2.4c0-4.63,3.77-8.4,8.4-8.4h4.8v-2.4h-4.8c-5.95,0-10.8,4.84-10.8,10.8Z"/><path class="cls-1" d="m24,8.4C24,3.77,20.23,0,15.6,0S7.2,3.77,7.2,8.4s3.77,8.4,8.4,8.4,8.4-3.77,8.4-8.4Zm-8.4,6c-3.31,0-6-2.69-6-6s2.69-6,6-6,6,2.69,6,6-2.69,6-6,6Z"/><polygon class="cls-1" points="30 23.28 25.68 23.28 25.68 18.96 23.28 18.96 23.28 23.28 18.96 23.28 18.96 25.68 23.28 25.68 23.28 30 25.68 30 25.68 25.68 30 25.68 30 23.28"/></g></svg>