<?xml version="1.0" encoding="UTF-8"?><svg id="Layer_2" xmlns="http://www.w3.org/2000/svg" viewBox="0 0 56 60"><defs><style>.cls-1{fill:#e52143;}.cls-2{fill:#202020;opacity:.3;}</style></defs><g id="Layer_1-2"><path class="cls-1" d="m34,6c0,3.31-2.69,6-6,6s-6-2.69-6-6S24.69,0,28,0s6,2.69,6,6Z"/><path class="cls-1" d="m38,15.99h-20c-1.11,0-2,.9-2,2v12c0,1.1.89,2,2,2h4v15c0,1.66,1.34,3,3,3h6c1.66,0,3-1.34,3-3v-15h4c1.1,0,2-.9,2-2v-12c0-1.1-.9-2-2-2Z"/><path class="cls-2" d="m37.99,44.53v2.47c0,3.86-3.14,7-7,7h-6c-3.86,0-7-3.14-7-7v-2.47c-10.51,1.15-17.99,4.06-17.99,7.47,0,4.42,12.54,8,28,8s28-3.58,28-8c0-3.41-7.48-6.32-18.01-7.47Z"/></g></svg>