<?xml version="1.0" encoding="UTF-8"?><svg id="Layer_2" xmlns="http://www.w3.org/2000/svg" viewBox="0 0 30 30"><defs><style>.cls-1{fill:#000;}</style></defs><g id="_레이어_1"><path class="cls-1" d="m15,0C6.73,0,0,6.73,0,15s6.73,15,15,15,15-6.73,15-15S23.27,0,15,0Zm0,2.31c7,0,12.69,5.69,12.69,12.69,0,2.72-.86,5.24-2.33,7.31-1.45-2.28-3.6-4-6.1-4.93,1.48-1.23,2.43-3.08,2.43-5.15,0-3.69-3-6.69-6.69-6.69s-6.69,3-6.69,6.69c0,2.07.95,3.92,2.43,5.15-2.5.93-4.65,2.65-6.1,4.93-1.46-2.07-2.33-4.59-2.33-7.31,0-7,5.69-12.69,12.69-12.69Zm-4.38,9.92c0-2.42,1.97-4.38,4.38-4.38s4.38,1.97,4.38,4.38-1.97,4.38-4.38,4.38-4.38-1.97-4.38-4.38Zm-4.39,11.93c1.73-3.2,5.09-5.24,8.77-5.24s7.04,2.03,8.77,5.24c-2.28,2.19-5.37,3.53-8.77,3.53s-6.49-1.35-8.77-3.53Z"/></g></svg>