<?xml version="1.0" encoding="UTF-8"?><svg id="Layer_2" xmlns="http://www.w3.org/2000/svg" viewBox="0 0 22 22"><defs><style>.cls-1{stroke-width:0px;}</style></defs><g id="_레이어_1"><path class="cls-1" d="m14.08,14.08h-6.16c-4.37,0-7.92,3.55-7.92,7.92h1.76c0-3.4,2.76-6.16,6.16-6.16h6.16c3.4,0,6.16,2.76,6.16,6.16h1.76c0-4.37-3.55-7.92-7.92-7.92Z"/><path class="cls-1" d="m17.16,6.16c0-3.4-2.76-6.16-6.16-6.16s-6.16,2.76-6.16,6.16,2.76,6.16,6.16,6.16,6.16-2.76,6.16-6.16Zm-6.16,4.4c-2.43,0-4.4-1.97-4.4-4.4s1.97-4.4,4.4-4.4,4.4,1.97,4.4,4.4-1.97,4.4-4.4,4.4Z"/></g></svg>