<?xml version="1.0" encoding="UTF-8"?>
<svg id="Layer_1" data-name="Layer 1" xmlns="http://www.w3.org/2000/svg" viewBox="0 0 24 24">
  <defs>
    <style>
      .cls-1 {
        fill: #B92C35;
      }
    </style>
  </defs>
  <path class="cls-1" d="m12,.5C5.66.5.5,5.66.5,12s5.16,11.5,11.5,11.5,11.5-5.16,11.5-11.5S18.34.5,12,.5Zm0,21.23c-5.37,0-9.73-4.37-9.73-9.73S6.63,2.27,12,2.27s9.73,4.37,9.73,9.73-4.37,9.73-9.73,9.73Z"/>
  <polygon class="cls-1" points="12.88 9.61 10.59 9.61 10.59 11.38 11.12 11.38 11.12 16.78 10.59 16.78 10.59 18.55 12 18.55 12.88 18.55 13.42 18.55 13.42 16.78 12.88 16.78 12.88 9.61"/>
  <circle class="cls-1" cx="12" cy="6.77" r="1.59"/>
</svg>