<?xml version="1.0" encoding="utf-8"?>
<!-- Generator: Adobe Illustrator 27.7.0, SVG Export Plug-In . SVG Version: 6.00 Build 0)  -->
<svg version="1.1" id="Layer_1" xmlns="http://www.w3.org/2000/svg" xmlns:xlink="http://www.w3.org/1999/xlink" x="0px" y="0px"
	 viewBox="0 0 20 15.08" style="enable-background:new 0 0 20 15.08;" xml:space="preserve">
<style type="text/css">
	.st0{fill:#8E93AD;}
</style>
<g>
	<path class="st0" d="M19.23,0h-3.08c-0.42,0-0.77,0.34-0.77,0.77v0.31c0,0.42-0.34,0.77-0.77,0.77c-0.42,0-0.77-0.35-0.77-0.77
		V0.77C13.85,0.34,13.5,0,13.08,0H6.92C6.49,0,6.15,0.34,6.15,0.77v0.31c0,0.42-0.34,0.77-0.77,0.77S4.61,1.5,4.61,1.08V0.77
		C4.61,0.34,4.27,0,3.84,0H0.77C0.34,0,0,0.34,0,0.77v13.54c0,0.42,0.34,0.77,0.77,0.77h18.46c0.42,0,0.77-0.34,0.77-0.77V0.77
		C20,0.34,19.66,0,19.23,0z M18.46,13.54H1.54v-12h1.58c0.21,1.05,1.15,1.85,2.26,1.85s2.05-0.79,2.26-1.85h4.72
		c0.21,1.05,1.15,1.85,2.26,1.85c1.11,0,2.05-0.79,2.26-1.85h1.58V13.54z"/>
	<path class="st0" d="M11.85,4.92c-0.42,0-0.77,0.34-0.77,0.77c0,0.42,0.34,0.77,0.77,0.77h4.92c0.42,0,0.77-0.34,0.77-0.77
		c0-0.42-0.34-0.77-0.77-0.77H11.85z"/>
	<path class="st0" d="M16.77,7.39h-4.92c-0.42,0-0.77,0.34-0.77,0.77c0,0.42,0.34,0.77,0.77,0.77h4.92c0.42,0,0.77-0.34,0.77-0.77
		C17.54,7.73,17.19,7.39,16.77,7.39z"/>
	<path class="st0" d="M14.31,9.85h-2.46c-0.42,0-0.77,0.34-0.77,0.77c0,0.42,0.34,0.77,0.77,0.77h2.46c0.42,0,0.77-0.34,0.77-0.77
		C15.08,10.19,14.73,9.85,14.31,9.85z"/>
	<path class="st0" d="M8.32,7.98c0.38-0.45,0.6-1.04,0.6-1.67c0-1.44-1.17-2.62-2.62-2.62S3.69,4.87,3.69,6.31
		c0,0.63,0.23,1.22,0.6,1.67c-1.05,0.65-1.83,1.81-1.83,3.34v0.53c0,0.42,0.34,0.77,0.77,0.77h6.15c0.42,0,0.77-0.34,0.77-0.77
		v-0.53C10.15,9.79,9.36,8.63,8.32,7.98z M5.23,6.31c0-0.59,0.48-1.08,1.08-1.08s1.08,0.48,1.08,1.08c0,0.59-0.48,1.08-1.08,1.08
		S5.23,6.9,5.23,6.31z M4.01,11.08c0.12-1.34,1.25-2.15,2.3-2.15c1.05,0,2.18,0.82,2.3,2.15H4.01z"/>
</g>
</svg>
