<svg 
 xmlns="http://www.w3.org/2000/svg"
 xmlns:xlink="http://www.w3.org/1999/xlink"
 width="17px" height="17px">
<path fill-rule="evenodd"  fill="rgb(50, 66, 102)"
 d="M11.586,16.286 L4.701,16.286 C2.104,16.286 -0.001,14.181 -0.001,11.585 L-0.001,4.700 C-0.001,2.104 2.104,-0.001 4.701,-0.001 L11.586,-0.001 C14.182,-0.001 16.286,2.104 16.286,4.700 L16.286,11.585 C16.286,14.181 14.182,16.286 11.586,16.286 ZM14.786,4.660 C14.786,2.937 13.390,1.539 11.666,1.539 L4.620,1.539 C2.896,1.539 1.500,2.937 1.500,4.660 L1.500,11.706 C1.500,13.429 2.896,14.826 4.620,14.826 L11.666,14.826 C13.390,14.826 14.786,13.429 14.786,11.706 L14.786,4.660 ZM12.509,4.781 C11.966,4.781 11.525,4.340 11.525,3.796 C11.525,3.253 11.966,2.812 12.509,2.812 C13.054,2.812 13.494,3.253 13.494,3.796 C13.494,4.340 13.054,4.781 12.509,4.781 ZM8.142,12.408 C5.809,12.408 3.917,10.517 3.917,8.183 C3.917,5.849 5.809,3.957 8.142,3.957 C10.476,3.957 12.368,5.849 12.368,8.183 C12.368,10.517 10.476,12.408 8.142,12.408 ZM8.142,5.443 C6.630,5.443 5.403,6.671 5.403,8.183 C5.403,9.696 6.630,10.922 8.142,10.922 C9.655,10.922 10.882,9.696 10.882,8.183 C10.882,6.671 9.655,5.443 8.142,5.443 Z"/>
</svg>