<?xml version="1.0" encoding="UTF-8"?><svg id="Layer_2" xmlns="http://www.w3.org/2000/svg" viewBox="0 0 65 45"><defs><style>.cls-1{fill:#8e93ad;}</style></defs><g id="Layer_1-2"><path class="cls-1" d="m64.99,2.36c0-.11-.01-.22-.03-.33-.01-.07-.04-.14-.06-.22-.02-.08-.04-.17-.08-.25-.03-.08-.08-.15-.12-.22-.04-.07-.07-.14-.11-.21-.06-.09-.13-.17-.2-.25-.03-.04-.06-.08-.1-.12,0,0,0,0,0,0-.11-.11-.23-.21-.35-.29-.05-.04-.11-.06-.16-.09-.1-.06-.19-.11-.29-.16-.11-.05-.23-.08-.35-.11-.05-.01-.09-.03-.13-.04-.16-.03-.32-.05-.48-.05,0,0,0,0-.01,0H2.5s0,0-.01,0c-.16,0-.33.02-.48.05-.03,0-.05.02-.08.02-.13.03-.26.07-.39.12-.09.04-.17.09-.25.14-.07.04-.15.08-.22.13-.12.08-.23.18-.34.28,0,0,0,0,0,0-.04.04-.06.08-.1.12-.07.08-.14.16-.2.25-.04.07-.08.14-.11.21-.04.07-.08.14-.11.22-.03.08-.05.17-.08.25-.02.07-.05.14-.06.21-.02.11-.03.22-.03.33,0,.05-.01.09-.01.14v40s0,0,0,.01c0,.15.02.31.05.46.01.06.03.12.05.18.03.11.06.22.1.32.05.11.11.21.17.31.03.05.05.09.08.14.09.13.19.25.3.36,0,0,0,0,0,0,.04.04.09.07.13.11.08.07.15.13.24.19.07.05.14.08.22.12.07.04.14.08.21.11.09.04.18.06.27.08.07.02.13.04.2.06.16.03.32.05.49.05h60c.16,0,.33-.02.49-.05.07-.01.13-.04.2-.06.09-.03.18-.05.27-.08.07-.03.14-.07.21-.11.07-.04.15-.07.21-.12.09-.06.16-.12.24-.19.04-.04.09-.07.13-.11,0,0,0,0,0,0,.11-.11.21-.23.3-.36.03-.04.05-.09.08-.13.06-.1.12-.21.17-.32.04-.1.07-.21.1-.31.02-.06.04-.12.05-.18.03-.15.05-.3.05-.46,0,0,0,0,0-.01V2.5s-.01-.1-.01-.14Zm-24.23,17.94s0,0,0,0,0,0,0,0l-8.25,8.08-8.25-8.08s0,0,0,0,0,0,0,0L8.63,5h47.75l-15.62,15.3Zm-21.79,1.82l-13.96,14.25V8.45l13.96,13.68Zm3.57,3.5l8.21,8.04c.49.48,1.12.71,1.75.71s1.26-.24,1.75-.71l8.21-8.04,14.09,14.38H8.45l14.09-14.38Zm23.5-3.5l13.96-13.68v27.93l-13.96-14.25Z"/></g></svg>