<?xml version="1.0" encoding="UTF-8"?><svg id="Layer_2" xmlns="http://www.w3.org/2000/svg" viewBox="0 0 20 20"><defs><style>.cls-1{fill:#9599af;}</style></defs><g id="Layer_1-2"><path class="cls-1" d="m3.54,5.23h-1.85c-.93,0-1.69-.76-1.69-1.69v-1.85C0,.76.76,0,1.69,0h1.85c.93,0,1.69.76,1.69,1.69v1.85c0,.93-.76,1.69-1.69,1.69ZM1.69,1.54c-.08,0-.15.07-.15.15v1.85c0,.08.07.15.15.15h1.85c.08,0,.15-.07.15-.15v-1.85c0-.08-.07-.15-.15-.15h-1.85Z"/><path class="cls-1" d="m18.31,5.23h-9.23c-.93,0-1.69-.76-1.69-1.69v-1.85c0-.93.76-1.69,1.69-1.69h9.23c.93,0,1.69.76,1.69,1.69v1.85c0,.93-.76,1.69-1.69,1.69ZM9.08,1.54c-.08,0-.15.07-.15.15v1.85c0,.08.07.15.15.15h9.23c.08,0,.15-.07.15-.15v-1.85c0-.08-.07-.15-.15-.15h-9.23Z"/><path class="cls-1" d="m3.54,20h-1.85c-.93,0-1.69-.76-1.69-1.69v-1.85c0-.93.76-1.69,1.69-1.69h1.85c.93,0,1.69.76,1.69,1.69v1.85c0,.93-.76,1.69-1.69,1.69Zm-1.85-3.69c-.08,0-.15.07-.15.15v1.85c0,.08.07.15.15.15h1.85c.08,0,.15-.07.15-.15v-1.85c0-.08-.07-.15-.15-.15h-1.85Z"/><path class="cls-1" d="m18.31,20h-9.23c-.93,0-1.69-.76-1.69-1.69v-1.85c0-.93.76-1.69,1.69-1.69h9.23c.93,0,1.69.76,1.69,1.69v1.85c0,.93-.76,1.69-1.69,1.69Zm-9.23-3.69c-.08,0-.15.07-.15.15v1.85c0,.08.07.15.15.15h9.23c.08,0,.15-.07.15-.15v-1.85c0-.08-.07-.15-.15-.15h-9.23Z"/><path class="cls-1" d="m3.54,12.61h-1.85c-.93,0-1.69-.76-1.69-1.69v-1.85c0-.93.76-1.69,1.69-1.69h1.85c.93,0,1.69.76,1.69,1.69v1.85c0,.93-.76,1.69-1.69,1.69Zm-1.85-3.69c-.08,0-.15.07-.15.15v1.85c0,.08.07.15.15.15h1.85c.08,0,.15-.07.15-.15v-1.85c0-.08-.07-.15-.15-.15h-1.85Z"/><path class="cls-1" d="m18.31,12.61h-9.23c-.93,0-1.69-.76-1.69-1.69v-1.85c0-.93.76-1.69,1.69-1.69h9.23c.93,0,1.69.76,1.69,1.69v1.85c0,.93-.76,1.69-1.69,1.69Zm-9.23-3.69c-.08,0-.15.07-.15.15v1.85c0,.08.07.15.15.15h9.23c.08,0,.15-.07.15-.15v-1.85c0-.08-.07-.15-.15-.15h-9.23Z"/></g></svg>