<?xml version="1.0" encoding="UTF-8"?><svg id="Layer_2" xmlns="http://www.w3.org/2000/svg" viewBox="0 0 16.62 24"><defs><style>.cls-1{fill:#8e93ad;}</style></defs><g id="Layer_1-2"><path class="cls-1" d="m8.31,12.92c-.51,0-.92.41-.92.92v3.69c0,.51.41.92.92.92s.92-.41.92-.92v-3.69c0-.51-.41-.92-.92-.92Z"/><path class="cls-1" d="m14.03,9.68v-3.96c0-3.16-2.57-5.72-5.72-5.72S2.58,2.57,2.58,5.72v3.96c-1.59,1.51-2.58,3.65-2.58,6.01,0,4.58,3.73,8.31,8.31,8.31s8.31-3.73,8.31-8.31c0-2.36-.99-4.5-2.58-6.01Zm-9.6-3.96c0-2.14,1.74-3.88,3.88-3.88s3.88,1.74,3.88,3.88v2.62c-1.16-.61-2.48-.96-3.88-.96s-2.72.35-3.88.96v-2.62Zm3.88,16.43c-3.56,0-6.46-2.9-6.46-6.46s2.9-6.46,6.46-6.46,6.46,2.9,6.46,6.46-2.9,6.46-6.46,6.46Z"/></g></svg>