<?xml version="1.0" encoding="utf-8"?>
<!-- Generator: Adobe Illustrator 27.7.0, SVG Export Plug-In . SVG Version: 6.00 Build 0)  -->
<svg version="1.1" id="Layer_1" xmlns="http://www.w3.org/2000/svg" xmlns:xlink="http://www.w3.org/1999/xlink" x="0px" y="0px"
	 viewBox="0 0 16.62 24" style="enable-background:new 0 0 16.62 24;" xml:space="preserve">
<style type="text/css">
	.st0{fill:#8E93AD;}
</style>
<g>
	<path class="st0" d="M14.03,9.68V5.72C14.03,2.57,11.46,0,8.31,0S2.58,2.57,2.58,5.72v3.96C0.99,11.19,0,13.33,0,15.69
		C0,20.27,3.73,24,8.31,24s8.31-3.73,8.31-8.31C16.62,13.33,15.62,11.19,14.03,9.68z M4.43,5.72c0-2.14,1.74-3.88,3.88-3.88
		s3.88,1.74,3.88,3.88v2.62c-1.16-0.61-2.48-0.96-3.88-0.96S5.59,7.73,4.43,8.35V5.72z M8.31,22.15c-3.56,0-6.46-2.9-6.46-6.46
		s2.9-6.46,6.46-6.46s6.46,2.9,6.46,6.46S11.87,22.15,8.31,22.15z"/>
	<path class="st0" d="M10.24,13.39l-2.65,2.65l-1.21-1.21c-0.36-0.36-0.94-0.36-1.31,0c-0.36,0.36-0.36,0.94,0,1.31L6.93,18
		c0.18,0.18,0.42,0.27,0.65,0.27S8.06,18.18,8.24,18l3.31-3.31c0.36-0.36,0.36-0.95,0-1.31C11.18,13.03,10.6,13.03,10.24,13.39z"/>
</g>
</svg>
