<?xml version="1.0" encoding="UTF-8"?>
<svg id="Layer_2" xmlns="http://www.w3.org/2000/svg" viewBox="0 0 12 12">
  <defs>
    <style>.cls-1{fill:#fff;stroke-width:0px;}</style>
  </defs>
  <g id="_격리_모드">
    <path class="cls-1"
      d="m10.31,3.93H3.55c-.1,0-.18-.08-.18-.18V.32c0-.25-.27-.4-.49-.27L.15,1.74c-.09.06-.15.16-.15.27v8.3c0,.93.76,1.69,1.69,1.69h8.62c.93,0,1.69-.76,1.69-1.69v-4.68c0-.93-.76-1.69-1.69-1.69Zm-1.71,2.95v2.16c0,.11-.09.2-.2.2H3.58c-.11,0-.2-.09-.2-.2v-2.16c0-.11.09-.2.2-.2h4.82c.11,0,.2.09.2.2Z" />
  </g>
</svg>