<?xml version="1.0" encoding="UTF-8"?><svg id="Layer_2" xmlns="http://www.w3.org/2000/svg" viewBox="0 0 20.5 15.5"><defs><style>.cls-1{fill:none;stroke:#777;stroke-linecap:round;stroke-linejoin:round;stroke-width:1.5px;}.cls-2{fill:#777;stroke-width:0px;}</style></defs><g id="Layer_1-2"><path class="cls-1" d="m.75,5.06L13.14,1.83v11.85l-5.04-1.39c.08,1.24-.83,2.33-2.07,2.46-1.26-.14-2.18-1.26-2.07-2.52v-.86l-3.21-.92v-5.38Z"/><path class="cls-2" d="m19.75,7.91c.41,0,.75-.34.75-.75s-.34-.75-.75-.75v1.5Zm-1.86-1.5c-.41,0-.75.34-.75.75s.34.75.75.75v-1.5Zm-.85,6.61c.29.29.77.3,1.06,0s.3-.77,0-1.06l-1.07,1.05Zm-.25-2.39c-.29-.29-.77-.3-1.06,0-.29.29-.3.77,0,1.06l1.07-1.05Zm1.32-8.27c.29-.29.29-.77,0-1.06-.29-.29-.77-.29-1.06,0l1.07,1.05Zm-2.38.28c-.29.29-.29.77,0,1.06.29.29.77.29,1.06,0l-1.07-1.05Zm-1.83,11.04c0-.41-.34-.75-.75-.75s-.75.34-.75.75h1.5Zm-1.5,1.08c0,.41.34.75.75.75s.75-.34.75-.75h-1.5Zm0-12.92c0,.41.34.75.75.75s.75-.34.75-.75h-1.5Zm1.5-1.08c0-.41-.34-.75-.75-.75s-.75.34-.75.75h1.5ZM0,5.06c0,.41.34.75.75.75s.75-.34.75-.75H0Zm1.5-1.08c0-.41-.34-.75-.75-.75s-.75.34-.75.75h1.5Zm-1.5,7.54c0,.41.34.75.75.75s.75-.34.75-.75H0Zm1.5-1.08c0-.41-.34-.75-.75-.75s-.75.34-.75.75h1.5Zm2.62.19c-.4-.09-.81.16-.9.57-.09.4.16.81.57.9l.33-1.46Zm3.82,2.39c.4.09.81-.16.9-.57.09-.4-.16-.81-.57-.9l-.33,1.46Zm11.81-6.61h-1.86v1.5h1.86v-1.5Zm-1.65,5.55l-1.32-1.33-1.07,1.05,1.32,1.33,1.07-1.05Zm-1.07-10.66l-1.32,1.33,1.07,1.05,1.32-1.33-1.07-1.05Zm-4.64,12.37v1.08h1.5v-1.08h-1.5Zm1.5-11.85V.75h-1.5v1.08h1.5ZM1.5,5.06v-1.08H0v1.08h1.5Zm0,6.46v-1.08H0v1.08h1.5Zm2.29.58l4.14.92.33-1.46-4.14-.92-.33,1.46Z"/></g></svg>