<?xml version="1.0" encoding="UTF-8"?><svg id="Layer_2" xmlns="http://www.w3.org/2000/svg" viewBox="0 0 21.8 21.8"><defs><style>.cls-1{fill:none;stroke:#8e93ad;stroke-linecap:round;stroke-linejoin:round;stroke-width:1.8px;}</style></defs><g id="Layer_1-2"><path class="cls-1" d="m6.23,3.23c0,1.29-1.04,2.33-2.33,2.33s-2.33-1.04-2.33-2.33S2.61.9,3.9.9s2.33,1.04,2.33,2.33Z"/><path class="cls-1" d="m3.9,5.57c-1.66,0-3,1.34-3,3v7.65s0,.01,0,.02v3.33c0,.74.6,1.33,1.33,1.33s1.33-.6,1.33-1.33v-4h.67v4c0,.74.6,1.33,1.33,1.33s1.33-.6,1.33-1.33v-11c0-1.66-1.34-3-3-3Z"/><path class="cls-1" d="m18.9,3.23c0,1.29-1.04,2.33-2.33,2.33s-2.33-1.04-2.33-2.33,1.05-2.33,2.33-2.33,2.33,1.04,2.33,2.33Z"/><path class="cls-1" d="m20.9,16.56l-1.33-8c-.21-1.64-1.34-3-3-3s-2.71,1.38-3,3l-1.33,8h1.33v3c0,.74.6,1.33,1.33,1.33s1.33-.6,1.33-1.33v-3h.67v3c0,.74.6,1.33,1.33,1.33s1.33-.6,1.33-1.33v-3h1.33Z"/><line class="cls-1" x1="10.23" y1=".9" x2="10.23" y2="20.87"/></g></svg>