<svg 
 xmlns="http://www.w3.org/2000/svg"
 xmlns:xlink="http://www.w3.org/1999/xlink"
 width="20px" height="18px">
<path fill-rule="evenodd"  fill="rgb(50, 66, 102)"
 d="M16.645,13.174 L11.927,13.174 L10.309,16.969 C10.309,16.969 10.197,17.297 9.927,17.297 C9.657,17.297 9.546,16.969 9.546,16.969 L7.927,13.174 L3.166,13.174 C1.807,13.174 0.704,12.077 0.704,10.726 L0.704,2.768 C0.704,1.416 1.807,0.320 3.166,0.320 L16.645,0.320 C18.004,0.320 19.106,1.416 19.106,2.768 L19.106,10.726 C19.106,12.077 18.004,13.174 16.645,13.174 ZM5.059,5.503 C5.059,5.503 4.310,5.495 4.052,5.934 L4.052,4.206 C4.052,4.206 3.018,4.221 2.950,4.209 L2.950,8.726 L4.052,8.726 L4.052,8.464 C4.052,8.464 4.381,8.849 4.966,8.849 C4.966,8.849 6.477,8.807 6.486,7.353 C6.486,7.353 6.689,5.654 5.059,5.503 ZM6.827,4.060 L6.827,5.140 C6.827,5.140 7.347,5.256 7.347,5.672 L7.347,8.734 L8.424,8.734 L8.424,5.642 C8.424,5.642 8.548,4.129 6.827,4.060 ZM10.979,5.543 C9.981,5.543 9.172,6.283 9.172,7.197 C9.172,8.111 9.981,8.852 10.979,8.852 C11.977,8.852 12.785,8.111 12.785,7.197 C12.785,6.283 11.977,5.543 10.979,5.543 ZM16.883,5.587 L15.790,5.587 L15.790,5.919 C15.433,5.441 14.852,5.503 14.852,5.503 C13.379,5.610 13.348,6.960 13.348,6.960 L13.348,7.454 C13.348,8.756 14.689,8.852 14.689,8.852 C15.635,8.852 15.766,8.433 15.766,8.433 C15.774,9.466 15.100,9.404 15.100,9.404 L14.805,9.404 L14.805,10.423 L15.293,10.423 C16.898,10.423 16.883,8.852 16.883,8.852 L16.883,5.587 ZM15.169,7.861 C14.801,7.861 14.502,7.564 14.502,7.197 C14.502,6.831 14.801,6.534 15.169,6.534 C15.538,6.534 15.836,6.831 15.836,7.197 C15.836,7.564 15.538,7.861 15.169,7.861 ZM10.979,7.876 C10.603,7.876 10.297,7.572 10.297,7.197 C10.297,6.823 10.603,6.519 10.979,6.519 C11.356,6.519 11.661,6.823 11.661,7.197 C11.661,7.572 11.356,7.876 10.979,7.876 ZM4.720,7.845 C4.370,7.845 4.087,7.562 4.087,7.215 C4.087,6.867 4.370,6.585 4.720,6.585 C5.071,6.585 5.354,6.867 5.354,7.215 C5.354,7.562 5.071,7.845 4.720,7.845 Z"/>
</svg>