<?xml version="1.0" encoding="UTF-8"?><svg id="Layer_2" xmlns="http://www.w3.org/2000/svg" viewBox="0 0 25.3 25.3"><defs><style>.cls-1{fill:#ebf5ff;}.cls-2{fill:#dda991;}.cls-3{fill:#c3d1ff;}.cls-4{fill:#5edc89;}.cls-5{fill:#000064;opacity:.15;}.cls-6{fill:none;stroke:#2e4369;stroke-linecap:round;stroke-linejoin:round;stroke-width:1.3px;}.cls-7{fill:#fff;opacity:.25;}</style></defs><g id="_격리_모드"><path class="cls-3" d="m12.65,2.25h-1.24c-.19-.91-.99-1.6-1.96-1.6s-1.77.69-1.96,1.6h-1.24c-.44,0-.8.36-.8.8v2.4h8v-2.4c0-.44-.36-.8-.8-.8Z"/><circle class="cls-4" cx="18.25" cy="18.25" r="6.4"/><path class="cls-2" d="m15.05,5.45v7.26h0c.94-.54,2.03-.86,3.2-.86V3.85c0-.44-.36-.8-.8-.8h-4v2.4h1.6Z"/><path class="cls-2" d="m12.06,19.85H3.85V5.45h1.6v-2.4H1.45c-.44,0-.8.36-.8.8v18.4c0,.44.36.8.8.8h12.58c-.95-.83-1.64-1.94-1.97-3.2Z"/><path class="cls-1" d="m15.05,5.45H3.85v14.4h8.21c-.13-.51-.21-1.05-.21-1.6,0-2.37,1.29-4.43,3.2-5.54h0v-7.26Z"/><path class="cls-5" d="m3.85,4.25v2.4h8v-1.2h-6.4v-2h-.8c-.44,0-.8.36-.8.8Z"/><path class="cls-5" d="m12.06,19.85c-.13-.51-.21-1.05-.21-1.6,0-2.32,1.24-4.34,3.08-5.46-2.9.61-5.08,3.18-5.08,6.26,0,.27.02.54.06.8H3.85V6.65h-1.2v14.4h7.52c.24.73.61,1.41,1.08,2h2.77c-.95-.83-1.64-1.94-1.97-3.2Z"/><path class="cls-7" d="m18.25,11.85c-2.02,0-3.82.94-4.99,2.4,1.1-.88,2.48-1.4,3.99-1.4,3.54,0,6.4,2.86,6.4,6.4,0,1.51-.53,2.9-1.4,3.99,1.46-1.17,2.4-2.97,2.4-4.99,0-3.54-2.86-6.4-6.4-6.4Z"/><path class="cls-6" d="m14.02,23.05H1.45c-.44,0-.8-.36-.8-.8V3.85c0-.44.36-.8.8-.8h3.94"/><path class="cls-6" d="m13.45,3.05h4c.44,0,.8.36.8.8v8"/><path class="cls-6" d="m12.65,2.25h-1.24c-.19-.91-.99-1.6-1.96-1.6s-1.77.69-1.96,1.6h-1.24c-.44,0-.8.36-.8.8v2.4h8v-2.4c0-.44-.36-.8-.8-.8Z"/><polyline class="cls-6" points="15.05 12.71 15.05 5.45 13.45 5.45"/><polyline class="cls-6" points="5.45 5.45 3.85 5.45 3.85 19.85 12.05 19.85"/><line class="cls-6" x1="7.05" y1="8.65" x2="11.85" y2="8.65"/><line class="cls-6" x1="7.05" y1="12.65" x2="11.85" y2="12.65"/><line class="cls-6" x1="7.05" y1="16.65" x2="11.85" y2="16.65"/><circle class="cls-6" cx="18.25" cy="18.25" r="6.4"/><polyline class="cls-6" points="21.04 16.65 17.85 20.25 15.85 18.25"/></g></svg>