<?xml version="1.0" encoding="UTF-8"?><svg id="Layer_2" xmlns="http://www.w3.org/2000/svg" viewBox="0 0 84.27 62.33"><defs><style>.cls-1{fill:#fff;}</style></defs><g id="Layer_1-2"><path class="cls-1" d="m82.87,20.83L63.45,1.4c-1.87-1.87-4.91-1.87-6.77,0l-12.2,12.2c-2.85,0-10.71-.03-13.1-.04-5.32,0-9.15,2.76-13.61,7.22C10.79,27.75,0,38.64,0,38.64l3.55,3.52s10.78-10.88,17.75-17.85c4.25-4.25,6.88-5.75,10.07-5.75,1.46,0,4.96.01,8.12.02l-7.17,7.17h-5.7c-1.38,0-2.5,1.12-2.5,2.5s1.12,2.5,2.5,2.5h25.41c1.75,0,3.18,1.43,3.18,3.18,0,1.75-1.43,3.18-3.18,3.18h-13.96s-1.51.02-1.51.02l-.71,1.33c-.15.29-3.87,7.06-14.39,5.94-1.37-.15-2.6.85-2.75,2.22-.15,1.37.85,2.6,2.22,2.75,1,.11,1.95.15,2.86.15,4.32,0,7.65-1.11,10.15-2.55l3.07,3.07c-2.11,1.78-4.86,3.44-8.87,4.3-5.93,1.27-7.57,2.55-8.65,3.65l-.07.07c-.98.98-.98,2.56,0,3.54.49.49,1.13.73,1.77.73s1.28-.24,1.77-.73l.11-.11c.32-.33,1.16-1.19,6.11-2.25,5.24-1.12,8.79-3.41,11.37-5.64l4.77,4.77c.93.93,2.16,1.4,3.39,1.4s2.45-.47,3.39-1.4l30.76-30.76c1.87-1.87,1.87-4.91,0-6.77Zm-22.81-15.74l4.56,4.56-16.11,16.11h-9.12L60.06,5.08Zm-11.33,49.59l-6.32-6.31s0,0-.01-.01c0,0,0,0-.01-.01l-4.45-4.45c.63-.65,1.13-1.27,1.5-1.78h12.59c4.51,0,8.17-3.67,8.17-8.18,0-3.46-2.16-6.41-5.2-7.61l13.14-13.14,11.04,11.04-30.46,30.46Z"/></g></svg>