<?xml version="1.0" encoding="UTF-8"?><svg id="Layer_2" xmlns="http://www.w3.org/2000/svg" viewBox="0 0 64.69 64.69"><defs><style>.cls-1{fill:#202020;}</style></defs><g id="Layer_1-2"><rect class="cls-1" x="45.31" y="5.99" width="4.15" height="22.63" transform="translate(1.64 38.57) rotate(-45)"/><path class="cls-1" d="m44.5,23.01l-23.18,23.18c-2.84,2.85-2.83,7.48.01,10.33l1.41,1.41,28.34-28.34-6.59-6.59Z"/><path class="cls-1" d="m18.51,59.36c-2.73-2.73-3.76-6.52-3.12-10.05-.67.12-1.36.19-2.05.19-3.02,0-5.86-1.18-8-3.31l-.79-.79L0,64.69l19.29-4.54-.79-.79Z"/><path class="cls-1" d="m35.09,13.6L6.75,41.94l1.41,1.41c1.38,1.38,3.22,2.14,5.17,2.14s3.79-.76,5.17-2.14h0s23.17-23.17,23.17-23.17l-6.59-6.59Z"/><path class="cls-1" d="m64.63,11.14c-.28-2.56-1.62-5.16-3.77-7.31-2.47-2.47-5.44-3.83-8.35-3.83-2.5,0-4.82,1-6.71,2.89l-2.12,2.12,16,16,2.11-2.11c2.17-2.17,3.15-4.85,2.83-7.75Z"/></g></svg>