<?xml version="1.0" encoding="UTF-8"?><svg id="Layer_2" xmlns="http://www.w3.org/2000/svg" viewBox="0 0 24 24"><defs><style>.cls-1{fill:#8e93ad;}</style></defs><g id="Layer_1-2"><path class="cls-1" d="m23.98,4.28c-.11-.99-.62-1.99-1.45-2.81-1.82-1.82-4.21-1.96-5.82-.35L1.77,16.06c-.12.12-.21.27-.25.44L.02,22.86c-.07.31.02.64.25.86.17.18.41.27.65.27.07,0,.14,0,.21-.02l6.36-1.5c.17-.04.32-.12.44-.25l14.94-14.94c.83-.83,1.22-1.9,1.1-3.01ZM6.63,16.06c-.47.48-1.11.74-1.78.74-.35,0-.69-.07-1-.21L13.93,6.51l1.13,1.13-8.42,8.42h0Zm1.31,1.31h0s8.42-8.42,8.42-8.42l1.13,1.13-10.08,10.08c-.4-.92-.22-2.03.53-2.78Zm7.3-12.16l.82-.82,3.56,3.56-.82.82-3.56-3.56ZM3.01,18.23c.57.27,1.19.41,1.84.41.18,0,.36-.02.54-.04-.1.81.03,1.63.37,2.38l-3.61.85.85-3.6ZM21.57,5.98l-.65.65-3.56-3.56.65-.65c1.06-1.06,2.35-.51,3.21.35.53.53.85,1.13.92,1.71.06.56-.13,1.07-.57,1.51Z"/></g></svg>