<?xml version="1.0" encoding="utf-8"?>
<!-- Generator: Adobe Illustrator 27.7.0, SVG Export Plug-In . SVG Version: 6.00 Build 0)  -->
<svg version="1.1" id="Layer_1" xmlns="http://www.w3.org/2000/svg" xmlns:xlink="http://www.w3.org/1999/xlink" x="0px" y="0px"
	 viewBox="0 0 22 22" style="enable-background:new 0 0 22 22;" xml:space="preserve">
<style type="text/css">
	.st0{fill:#8E93AD;}
</style>
<g>
	<path class="st0" d="M20.67,15.45l-0.09-0.06c-0.33-0.22-1.77-1.17-2.73-1.79c-0.38-0.25-0.68-0.44-0.8-0.52
		c-0.74-0.49-2.25-0.73-3.33,0.61l-0.11,0.14c-0.36,0.46-0.61,0.74-0.97,0.76c-0.39,0.02-1.3-0.22-3.15-2.07
		c-1.85-1.85-2.09-2.77-2.07-3.15c0.02-0.36,0.3-0.6,0.76-0.97l0.14-0.11c1.34-1.08,1.1-2.59,0.61-3.33
		C8.84,4.83,8.65,4.53,8.4,4.15C7.77,3.19,6.83,1.74,6.61,1.42L6.55,1.33c-0.33-0.49-1.01-1.51-2.43-1.3C2.91,0.2,0,2.01,0,5.44
		c0,4.11,3.71,8.43,5.92,10.64C8.13,18.29,12.45,22,16.56,22c3.43,0,5.23-2.91,5.41-4.12C22.17,16.46,21.15,15.78,20.67,15.45z
		 M20.29,17.63c-0.05,0.32-1.14,2.67-3.73,2.67c-2.56,0-6-1.98-9.44-5.42c-3.45-3.45-5.42-6.89-5.42-9.45
		c0-2.59,2.36-3.68,2.67-3.73C4.4,1.7,4.44,1.69,4.47,1.69c0.23,0,0.37,0.14,0.67,0.58l0.07,0.1c0.21,0.31,1.19,1.81,1.77,2.7
		c0.25,0.38,0.45,0.69,0.52,0.8c0.04,0.06,0.36,0.59-0.26,1.09l-0.13,0.1c-0.53,0.42-1.33,1.06-1.4,2.2
		c-0.07,1.22,0.74,2.63,2.56,4.45c1.82,1.82,3.23,2.63,4.45,2.56c1.14-0.07,1.78-0.87,2.2-1.4l0.11-0.13
		c0.5-0.62,1.03-0.3,1.09-0.26l0,0c0.12,0.08,0.42,0.27,0.8,0.52c0.9,0.58,2.39,1.56,2.7,1.77l0.1,0.07
		C20.23,17.2,20.34,17.33,20.29,17.63z"/>
	<path class="st0" d="M16.42,11.17c3.08,0,5.58-2.5,5.58-5.58S19.5,0,16.42,0s-5.58,2.5-5.58,5.58S13.34,11.17,16.42,11.17z
		 M16.42,1.69c2.15,0,3.89,1.75,3.89,3.89s-1.75,3.89-3.89,3.89s-3.89-1.75-3.89-3.89S14.27,1.69,16.42,1.69z"/>
	<path class="st0" d="M15.87,7.86l3.09-3.09c0.33-0.33,0.33-0.87,0-1.2c-0.33-0.33-0.87-0.33-1.2,0l-1.9,1.9l-0.81-0.81
		c-0.33-0.33-0.87-0.33-1.2,0c-0.33,0.33-0.33,0.87,0,1.2L15.87,7.86z"/>
</g>
</svg>
