<?xml version="1.0" encoding="UTF-8"?><svg id="Layer_2" xmlns="http://www.w3.org/2000/svg" viewBox="0 0 22.02 22"><defs><style>.cls-1{fill:#b92c35;stroke-width:0px;}</style></defs><g id="Layer_1-2"><path class="cls-1" d="m20.69,15.46l-.09-.06c-.32-.22-1.7-1.11-2.71-1.77-.4-.26-.71-.46-.83-.54-.74-.49-2.25-.73-3.33.61l-.12.14c-.37.46-.61.74-.97.76-.39.02-1.31-.22-3.16-2.07-1.85-1.86-2.09-2.78-2.07-3.16.02-.36.3-.61.76-.97l.14-.12c1.34-1.08,1.1-2.59.61-3.34-.07-.11-.27-.42-.52-.8-.63-.95-1.57-2.4-1.79-2.72l-.06-.09C6.22.84,5.53-.17,4.12.03,2.91.2,0,2.01,0,5.44c0,4.11,3.71,8.43,5.92,10.64,2.21,2.21,6.53,5.92,10.64,5.92,3.43,0,5.24-2.91,5.43-4.11.21-1.42-.81-2.1-1.3-2.43Z"/></g></svg>