<?xml version="1.0" encoding="utf-8"?>
<!-- Generator: Adobe Illustrator 27.7.0, SVG Export Plug-In . SVG Version: 6.00 Build 0)  -->
<svg version="1.1" id="Layer_1" xmlns="http://www.w3.org/2000/svg" xmlns:xlink="http://www.w3.org/1999/xlink" x="0px" y="0px"
	 viewBox="0 0 22 22" style="enable-background:new 0 0 22 22;" xml:space="preserve">
<style type="text/css">
	.st0{fill:#8E93AD;}
</style>
<path class="st0" d="M16.56,22c-4.11,0-8.43-3.71-10.64-5.92C3.71,13.87,0,9.55,0,5.44C0,2.01,2.91,0.2,4.12,0.03
	c1.41-0.2,2.1,0.81,2.43,1.3l0.06,0.09C6.83,1.74,7.77,3.19,8.4,4.14c0.25,0.38,0.45,0.69,0.52,0.8C9.41,5.69,9.65,7.2,8.31,8.28
	L8.17,8.4C7.71,8.76,7.43,9.01,7.41,9.37c-0.02,0.38,0.22,1.3,2.07,3.16c1.85,1.85,2.77,2.09,3.16,2.07c0.36-0.02,0.6-0.3,0.97-0.76
	l0.12-0.14c1.08-1.34,2.59-1.1,3.33-0.61c0.12,0.08,0.43,0.28,0.83,0.54c1.01,0.66,2.39,1.55,2.71,1.77l0.09,0.06
	c0.49,0.33,1.51,1.01,1.3,2.43C21.8,19.09,19.99,22,16.56,22z M4.47,1.69c-0.03,0-0.07,0-0.11,0.01C4.05,1.75,1.69,2.84,1.69,5.44
	c0,2.56,1.98,6,5.42,9.45c3.45,3.45,6.89,5.42,9.45,5.42c2.59,0,3.68-2.36,3.74-2.67c0.04-0.3-0.06-0.43-0.57-0.78l-0.1-0.07
	c-0.31-0.21-1.73-1.14-2.68-1.75c-0.4-0.26-0.71-0.46-0.83-0.54v0c-0.06-0.04-0.59-0.36-1.09,0.26l-0.11,0.13
	c-0.42,0.53-1.06,1.33-2.2,1.4c-1.22,0.07-2.63-0.74-4.45-2.56c-1.82-1.82-2.63-3.23-2.56-4.45c0.07-1.14,0.87-1.78,1.4-2.2
	l0.13-0.1c0.62-0.5,0.3-1.03,0.26-1.09C7.43,5.76,7.23,5.45,6.98,5.07c-0.62-0.95-1.56-2.39-1.77-2.7l-0.07-0.1
	C4.85,1.83,4.7,1.69,4.47,1.69z"/>
</svg>
