<?xml version="1.0" encoding="UTF-8"?><svg id="Layer_2" xmlns="http://www.w3.org/2000/svg" viewBox="0 0 38 38"><defs><style>.cls-1{fill:#f26161;}.cls-2{fill:#9bbbf5;}.cls-3{fill:#d34545;}.cls-4{fill:#c3d6f9;}.cls-5{stroke:#7c0b0b;}.cls-5,.cls-6{fill:none;stroke-linecap:round;stroke-linejoin:round;stroke-width:2px;}.cls-6{stroke:#2e4369;}</style></defs><g id="_격리_모드"><polygon class="cls-4" points="26.2 16.54 37 20.14 37 36.94 26.2 33.34 11.8 37 1 33.34 1 16.54 11.8 20.14 26.2 16.54"/><polygon class="cls-2" points="1 16.54 1 33.34 11.8 37 11.8 20.14 1 16.54"/><polygon class="cls-2" points="26.2 16.54 26.2 33.34 37 36.94 37 20.14 26.2 16.54"/><path class="cls-1" d="m19,1c-4.64,0-8.4,3.76-8.4,8.4,0,7.56,8.4,15.6,8.4,15.6,0,0,8.4-8.04,8.4-15.6,0-4.64-3.76-8.4-8.4-8.4Zm0,10.8c-1.33,0-2.4-1.07-2.4-2.4s1.07-2.4,2.4-2.4,2.4,1.07,2.4,2.4-1.08,2.4-2.4,2.4Z"/><path class="cls-3" d="m12.4,8.2c0-2.53,1.12-4.78,2.88-6.32-2.77,1.37-4.68,4.22-4.68,7.53,0,7.63,8.56,15.75,8.4,15.6,0,0,.59-.57,1.46-1.54-1.57-1.6-8.06-8.61-8.06-15.26Z"/><path class="cls-2" d="m14.42,19.49l-2.62.67h0,0c2.1,2.26,6.15,4.31,7.2,4.84-.53-.52-2.63-2.65-4.58-5.51Z"/><polyline class="cls-6" points="14.42 19.49 11.8 20.14 1 16.54 1 33.34 11.8 37 26.2 33.34 37 36.94 37 20.14 29.8 17.75"/><line class="cls-6" x1="11.8" y1="20.14" x2="11.8" y2="37"/><line class="cls-6" x1="26.2" y1="22.6" x2="26.2" y2="33.34"/><path class="cls-5" d="m19,1c-4.64,0-8.4,3.76-8.4,8.4,0,7.56,8.4,15.6,8.4,15.6,0,0,8.4-8.04,8.4-15.6,0-4.64-3.76-8.4-8.4-8.4Z"/><circle class="cls-5" cx="19" cy="9.4" r="2.4"/></g></svg>