<?xml version="1.0" encoding="UTF-8"?><svg id="Layer_2" xmlns="http://www.w3.org/2000/svg" viewBox="0 0 19.41 24"><defs><style>.cls-1{fill:#202020;}</style></defs><g id="Layer_1-2"><path class="cls-1" d="m9.71,24l-.48-.31c-.34-.23-8.43-5.63-9.17-12.93v-.11c-.04-.34-.06-.65-.06-.94C0,4.35,4.35,0,9.7,0s9.7,4.35,9.7,9.7c0,.28-.01.57-.05.92l-.02.17c-.76,7.2-8.82,12.66-9.16,12.89l-.48.32Zm0-22.27C5.31,1.73,1.73,5.31,1.73,9.7c0,.23.01.49.04.78v.07c.57,5.55,6.24,10.1,7.93,11.35,1.69-1.26,7.35-5.84,7.93-11.3l.02-.14c.03-.29.04-.53.04-.76,0-4.4-3.58-7.98-7.98-7.98Z"/><path class="cls-1" d="m9.7,14.99c-2.91,0-5.28-2.37-5.28-5.28s2.37-5.28,5.28-5.28,5.28,2.37,5.28,5.28-2.37,5.28-5.28,5.28Zm0-8.84c-1.96,0-3.56,1.6-3.56,3.56s1.6,3.56,3.56,3.56,3.56-1.6,3.56-3.56-1.6-3.56-3.56-3.56Z"/></g></svg>