<?xml version="1.0" encoding="UTF-8"?><svg id="Layer_2" xmlns="http://www.w3.org/2000/svg" viewBox="0 0 19.4 24"><defs><style>.cls-1{stroke-width:0px;}</style></defs><g id="Layer_2-2"><polygon class="cls-1" points="9.71 24 9.7 23.99 9.69 24 9.71 24"/><path class="cls-1" d="m9.7,0C4.35,0,0,4.35,0,9.71c0,.29.02.6.06.94v.11c.74,7.3,8.83,12.7,9.17,12.93l.47.3.47-.31c.34-.23,8.4-5.69,9.16-12.89l.02-.17c.04-.35.05-.64.05-.92C19.4,4.35,15.05,0,9.7,0Zm3.56,9.71c0,1.96-1.6,3.56-3.56,3.56s-3.56-1.6-3.56-3.56,1.6-3.56,3.56-3.56,3.56,1.6,3.56,3.56Z"/></g></svg>