<?xml version="1.0" encoding="utf-8"?>
<!-- Generator: Adobe Illustrator 27.7.0, SVG Export Plug-In . SVG Version: 6.00 Build 0)  -->
<svg version="1.1" id="Layer_1" xmlns="http://www.w3.org/2000/svg" xmlns:xlink="http://www.w3.org/1999/xlink" x="0px" y="0px"
	 viewBox="0 0 19.41 24" style="enable-background:new 0 0 19.41 24;" xml:space="preserve">
<style type="text/css">
	.st0{fill:#8E93AD;}
</style>
<g>
	<path class="st0" d="M9.71,24l-0.48-0.31c-0.34-0.23-8.43-5.63-9.17-12.93l-0.01-0.11C0.02,10.3,0,9.99,0,9.7C0,4.35,4.35,0,9.7,0
		c5.35,0,9.7,4.35,9.7,9.7c0,0.28-0.01,0.57-0.05,0.92l-0.02,0.17c-0.76,7.2-8.82,12.66-9.16,12.89L9.71,24z M9.7,1.73
		c-4.4,0-7.98,3.58-7.98,7.98c0,0.23,0.01,0.49,0.04,0.78l0.01,0.07C2.33,16.1,8,20.66,9.7,21.9c1.69-1.26,7.35-5.84,7.93-11.3
		l0.02-0.14c0.03-0.29,0.04-0.53,0.04-0.76C17.68,5.31,14.1,1.73,9.7,1.73z"/>
	<path class="st0" d="M9.7,14.99c-2.91,0-5.28-2.37-5.28-5.28S6.79,4.42,9.7,4.42s5.28,2.37,5.28,5.28S12.62,14.99,9.7,14.99z
		 M9.7,6.15c-1.96,0-3.56,1.6-3.56,3.56s1.6,3.56,3.56,3.56s3.56-1.6,3.56-3.56S11.67,6.15,9.7,6.15z"/>
</g>
</svg>
