<?xml version="1.0" encoding="UTF-8"?>
<svg id="Layer_1" data-name="Layer 1" xmlns="http://www.w3.org/2000/svg" viewBox="0 0 24 24">
  <defs>
    <style>
      .cls-1 {
        fill: #ffffff;
      }
    </style>
  </defs>
  <path class="cls-1" d="m18.56,10.29c-.46-.15-.95.09-1.1.55s.1.95.55,1.1l3.59,1.2v7.94l-4.54-1.51v-5.62c0-.48-.39-.87-.87-.87s-.87.39-.87.87v5.57l-6.63,1.68v-8l.28-.07c1.19,1.64,2.33,2.75,2.43,2.84l.6.58.6-.58c.21-.2,5.16-4.99,5.16-9.71,0-3.18-2.58-5.76-5.76-5.76s-5.76,2.58-5.76,5.76c0,1.86.77,3.72,1.71,5.32l-.1.03L.65,9.21v11.61l7.12,2.41,8.38-2.13,7.19,2.4v-11.62l-4.79-1.59ZM12,2.25c2.21,0,4.02,1.8,4.02,4.02,0,3.09-2.76,6.45-4.02,7.82-1.25-1.37-4.02-4.73-4.02-7.82,0-2.21,1.8-4.02,4.02-4.02ZM2.4,11.63l4.54,1.51v7.96l-4.54-1.54v-7.94Z"/>
  <path class="cls-1" d="m14.27,6.26c0-1.25-1.02-2.27-2.27-2.27s-2.27,1.02-2.27,2.27,1.02,2.27,2.27,2.27,2.27-1.02,2.27-2.27Zm-2.79,0c0-.29.23-.52.52-.52s.52.23.52.52-.23.52-.52.52-.52-.23-.52-.52Z"/>
</svg>