<?xml version="1.0" encoding="UTF-8"?>
<svg id="Layer_1" data-name="Layer 1" xmlns="http://www.w3.org/2000/svg" viewBox="0 0 50 50">
  <path d="m38.69,21.43c-.95-.32-1.99.2-2.3,1.15s.2,1.99,1.15,2.3l7.5,2.5v16.56l-9.47-3.16v-11.74c0-1.01-.82-1.82-1.82-1.82s-1.82.82-1.82,1.82v11.63l-13.84,3.52v-16.71l.59-.15c2.48,3.42,4.87,5.74,5.08,5.94l1.26,1.21,1.26-1.21c.44-.42,10.76-10.41,10.76-20.26,0-6.63-5.39-12.02-12.02-12.02s-12.02,5.39-12.02,12.02c0,3.88,1.6,7.77,3.57,11.1l-.22.05L1.32,19.17v24.24l14.86,5.03,17.49-4.44,15.01,5v-24.24l-9.99-3.33ZM25,4.64c4.62,0,8.38,3.76,8.38,8.38,0,6.44-5.77,13.46-8.38,16.32-2.61-2.85-8.38-9.88-8.38-16.32,0-4.62,3.76-8.38,8.38-8.38ZM4.96,24.23l9.47,3.16v16.62l-9.47-3.21v-16.57Z"/>
  <path d="m29.73,13.02c0-2.61-2.12-4.74-4.74-4.74s-4.74,2.12-4.74,4.74,2.12,4.74,4.74,4.74,4.74-2.12,4.74-4.74Zm-5.83,0c0-.6.49-1.09,1.09-1.09s1.09.49,1.09,1.09-.49,1.09-1.09,1.09-1.09-.49-1.09-1.09Z"/>
</svg>