<?xml version="1.0" encoding="UTF-8"?><svg id="Layer_2" xmlns="http://www.w3.org/2000/svg" viewBox="0 0 37.63 38.71"><defs><style>.cls-1{stroke-linecap:round;}.cls-1,.cls-2{fill:none;stroke:#4f0053;stroke-linejoin:round;stroke-width:1.5px;}.cls-3{fill:#00b9b9;}.cls-4{fill:#fff;}.cls-5{fill:#ffc93a;}.cls-6{fill:#fc6;}.cls-7{fill:#ff4557;}.cls-8{fill:#7b8baf;}.cls-9{opacity:.15;}.cls-9,.cls-10{fill:#000064;}.cls-10{opacity:.2;}.cls-11{opacity:.25;}</style></defs><g id="_레이어_1"><path class="cls-7" d="m9.19,24.69c-4.65,0-8.43,3.77-8.44,8.42l19.27.02c0-4.65-3.77-8.43-8.42-8.44h-2.41Z"/><path class="cls-8" d="m13.97,19.88H.76c.61,3.67,4.12,4.81,8.38,4.81h2.43c2.09,0,3.99-.27,5.47-.99,1.86-1.06,2-3.82-3.07-3.83Z"/><path class="cls-7" d="m36.88,31.95s-.14-6.02-6.01-6.03c-.62,0-3.61,0-3.61,0v.12c0,1.57-1.15,4.74-4.52,5.9h0s14.15.02,14.15.02Z"/><path class="cls-8" d="m12.79,33.13c0,2.66-2.16,4.81-4.82,4.81-2.66,0-4.81-2.16-4.81-4.82h9.63Z"/><path class="cls-8" d="m34.92,31.94c.1.38.15.79.15,1.2,0,2.66-2.16,4.81-4.82,4.81s-4.81-2.16-4.81-4.82c0-.42.05-.82.15-1.2h9.33Z"/><path class="cls-9" d="m9.14,24.69h2.43c2.09,0,3.99-.27,5.47-.99.37-.21.67-.5.88-.81-1.41,0-4.36,0-8.13,0-5.32,0-7.82-3.02-7.82-3.02H.76c.61,3.68,4.12,4.82,8.38,4.82Z"/><g class="cls-11"><path class="cls-4" d="m29.06,27.12c4.19,0,5.46,3.07,5.85,4.82h1.98s-.14-6.02-6.01-6.03c-.62,0-3.61,0-3.61,0v.12c0,.31-.05.68-.14,1.09h1.95Z"/><path class="cls-4" d="m23.06,31.93c.09-.08.18-.16.26-.24-.19.09-.39.16-.6.24h0s.33,0,.33,0Z"/></g><path class="cls-10" d="m34.92,31.94h-9.33c-.1.37-.15.78-.15,1.19s.06.82.16,1.2h9.32c.1-.38.16-.78.16-1.19s-.05-.82-.15-1.2Z"/><path class="cls-10" d="m3.16,33.11c0,.88.24,1.7.65,2.41h8.33c.41-.7.65-1.52.65-2.4H3.16Z"/><path class="cls-9" d="m9.19,24.69c-4.65,0-8.43,3.77-8.44,8.42h4.21c0-3.21,1.41-6.57,3.87-6.56,1.78,0,5.89,0,8.03,0-1.44-1.16-3.27-1.86-5.27-1.86h-2.41Z"/><path class="cls-1" d="m12.79,33.13c0,2.66-2.16,4.81-4.82,4.81-2.66,0-4.81-2.16-4.81-4.82"/><path class="cls-1" d="m34.92,31.94c.1.38.15.79.15,1.2,0,2.66-2.16,4.81-4.82,4.81s-4.81-2.16-4.81-4.82c0-.42.05-.82.15-1.2"/><path class="cls-1" d="m22.45,12.66h2.42c.69,0,2.39.71,2.39,2.41v10.96c-.01,1.94-1.77,6.34-7.31,6.33"/><path class="cls-1" d="m27.25,25.92s2.99,0,3.61,0c5.87,0,6.01,6.03,6.01,6.03h-14.15"/><path class="cls-1" d="m9.19,24.69c-4.65,0-8.43,3.77-8.44,8.42l19.27.02c0-4.65-3.77-8.43-8.42-8.44h-2.41Z"/><path class="cls-1" d="m13.97,19.88H.76c.61,3.67,4.12,4.81,8.38,4.81h2.43c2.09,0,3.99-.27,5.47-.99,1.86-1.06,2-3.82-3.07-3.83Z"/><line class="cls-1" x1="30.27" y1="15.68" x2="30.27" y2="19.3"/><path class="cls-5" d="m8.75.75C4.33.75.75,4.33.75,8.75s3.58,8,8,8,8-3.58,8-8"/><path class="cls-3" d="m11.44,8.28c-.36.59-1.01.98-1.75.98h-3.62s0-4.1,0-4.1h2.79"/><path class="cls-9" d="m16.75,8.75s-4.93,4.4-8.8.53c-3.87-3.87.8-8.53.8-8.53l8,8Z"/><path class="cls-6" d="m16.75,8.75L8.75.75c-1.06,5.87,2.14,9.07,8,8Z"/><path class="cls-7" d="m16.75,8.75L8.75.75c-1.06,5.87,2.14,9.07,8,8Z"/><path class="cls-2" d="m8.75.75C4.33.75.75,4.33.75,8.75s3.58,8,8,8,8-3.58,8-8"/><path class="cls-2" d="m16.75,8.75L8.75.75c-1.06,5.87,2.14,9.07,8,8Z"/><line class="cls-1" x1="6.07" y1="9.25" x2="6.07" y2="13"/><path class="cls-2" d="m11.44,8.28c-.36.59-1.01.98-1.75.98h-3.62s0-4.1,0-4.1h2.79"/></g></svg>