<?xml version="1.0" encoding="UTF-8"?><svg id="Layer_2" xmlns="http://www.w3.org/2000/svg" viewBox="0 0 82 69.88"><defs><style>.cls-1{fill:#ccc;}.cls-2{fill:#e0e0e0;}.cls-3{fill:#777;}.cls-4{fill:none;stroke:#777;stroke-miterlimit:10;stroke-width:2px;}</style></defs><g id="Layer_1-2"><path class="cls-1" d="m36.22,41c-.4,1.4-.59,2.89-.55,4.43.23,8.05,7.28,14.24,15.33,14.24h4.73c1.61,0,3.15.64,4.28,1.77l6.84,6.84c1.28,1.28,3.48.37,3.48-1.44v-4.44c0-1.89,1.13-3.54,2.81-4.42,5.04-2.65,8.36-8.14,7.8-14.34-.69-7.65-7.49-13.3-15.17-13.3h-.41"/><path class="cls-2" d="m47.67,1h-26c-10.59,0-19.85,7.95-20.61,18.51-.6,8.29,3.86,15.58,10.6,19.15,1.63.86,2.68,2.51,2.68,4.35v7.75c0,1.81,2.19,2.73,3.48,1.45l9.48-9.44c1.14-1.13,2.67-1.76,4.27-1.76h15.26c10.95,0,20.5-8.44,20.83-19.38.34-11.33-8.74-20.62-19.99-20.62Z"/><path class="cls-4" d="m47.67,1h-26c-10.59,0-19.85,7.95-20.61,18.51-.6,8.29,3.86,15.58,10.6,19.15,1.63.86,2.68,2.51,2.68,4.35v7.75c0,1.81,2.19,2.73,3.48,1.45l9.48-9.44c1.14-1.13,2.67-1.76,4.27-1.76h15.26c10.95,0,20.5-8.44,20.83-19.38.34-11.33-8.74-20.62-19.99-20.62Z"/><path class="cls-4" d="m36.22,41c-.4,1.4-.59,2.89-.55,4.43.23,8.05,7.28,14.24,15.33,14.24h4.73c1.61,0,3.15.64,4.28,1.77l6.84,6.84c1.28,1.28,3.48.37,3.48-1.44v-4.44c0-1.89,1.13-3.54,2.81-4.42,5.04-2.65,8.36-8.14,7.8-14.34-.69-7.65-7.49-13.3-15.17-13.3h-.41"/><circle class="cls-3" cx="20.41" cy="21.4" r="3.99"/><circle class="cls-3" cx="34.33" cy="21.4" r="3.99"/><circle class="cls-3" cx="48.26" cy="21.4" r="3.99"/></g></svg>