<?xml version="1.0" encoding="utf-8"?>
<!-- Generator: Adobe Illustrator 27.7.0, SVG Export Plug-In . SVG Version: 6.00 Build 0)  -->
<svg version="1.1" id="Layer_1" xmlns="http://www.w3.org/2000/svg" xmlns:xlink="http://www.w3.org/1999/xlink" x="0px" y="0px"
	 viewBox="0 0 85 72.98" style="enable-background:new 0 0 85 72.98;" xml:space="preserve">
<style type="text/css">
	.st0{fill:#202020;}
</style>
<g>
	<path class="st0" d="M11.01,9.91c0-2.71,2.2-4.91,4.91-4.91h6.99V0h-6.99c-5.46,0-9.91,4.44-9.91,9.91v6.99h5V9.91z"/>
	<path class="st0" d="M73.99,9.91v6.99h5V9.91c0-5.46-4.44-9.91-9.91-9.91h-6.99v5h6.99C71.79,5,73.99,7.2,73.99,9.91z"/>
	<path class="st0" d="M11.01,63.07v-6.99h-5v6.99c0,5.46,4.44,9.91,9.91,9.91h6.99v-5h-6.99C13.21,67.98,11.01,65.78,11.01,63.07z"
		/>
	<path class="st0" d="M73.99,63.07c0,2.71-2.2,4.91-4.91,4.91h-6.99v5h6.99c5.46,0,9.91-4.44,9.91-9.91v-6.99h-5V63.07z"/>
	<path class="st0" d="M15.23,26.72h17.46V9.25H15.23V26.72z M20.23,14.25h7.46v7.46h-7.46V14.25z"/>
	<path class="st0" d="M69.77,9.25H52.31v17.46h17.46V9.25z M64.77,21.72h-7.46v-7.46h7.46V21.72z"/>
	<polygon class="st0" points="41.39,14.25 46.5,14.25 46.5,9.25 36.39,9.25 36.39,19.88 41.39,19.88 	"/>
	<polygon class="st0" points="44,26.71 38.89,26.71 38.89,31.71 49,31.71 49,21.08 44,21.08 	"/>
	<polygon class="st0" points="36.76,41.71 36.76,31.6 26.13,31.6 26.13,36.6 31.76,36.6 31.76,41.71 	"/>
	<polygon class="st0" points="69.29,41.88 69.29,36.88 63.54,36.88 63.54,31.6 52.91,31.6 52.91,36.6 58.54,36.6 58.54,41.88 	"/>
	<rect x="42.44" y="36.88" class="st0" width="9.99" height="5"/>
	<polygon class="st0" points="26.13,41.88 26.13,36.88 21.07,36.88 21.07,32.07 15.71,32.07 15.71,37.07 20.77,37.07 20.77,41.88 	
		"/>
	<path class="st0" d="M82.5,43.28h-80c-1.38,0-2.5,1.12-2.5,2.5s1.12,2.5,2.5,2.5h80c1.38,0,2.5-1.12,2.5-2.5
		S83.88,43.28,82.5,43.28z"/>
</g>
</svg>
