<?xml version="1.0" encoding="utf-8"?>
<!-- Generator: Adobe Illustrator 27.7.0, SVG Export Plug-In . SVG Version: 6.00 Build 0)  -->
<svg version="1.1" id="Layer_2" xmlns="http://www.w3.org/2000/svg" xmlns:xlink="http://www.w3.org/1999/xlink" x="0px" y="0px"
	 viewBox="0 0 40 40" style="enable-background:new 0 0 40 40;" xml:space="preserve">
<style type="text/css">
	.st0{fill:#FFFFFF;}
</style>
<g>
	<g>
		<path d="M31.75,40H8.25C3.71,40,0,36.29,0,31.75V8.25C0,3.71,3.71,0,8.25,0h23.49C36.29,0,40,3.71,40,8.25v23.49
			C40,36.29,36.29,40,31.75,40z"/>
	</g>
	<g>
		<g>
			<path class="st0" d="M26.03,19.69c-0.03-2.8,2.28-4.14,2.39-4.2c-1.3-1.9-3.32-2.17-4.04-2.2c-1.72-0.17-3.36,1.02-4.23,1.02
				c-0.87,0-2.22-0.99-3.65-0.96c-1.88,0.03-3.61,1.09-4.57,2.77c-1.95,3.38-0.5,8.4,1.4,11.14c0.93,1.34,2.03,2.85,3.49,2.8
				c1.4-0.05,1.93-0.9,3.62-0.9c1.69,0,2.17,0.9,3.65,0.88c1.51-0.03,2.46-1.37,3.38-2.72c1.06-1.56,1.51-3.07,1.53-3.15
				C28.97,24.15,26.06,23.04,26.03,19.69z"/>
			<path class="st0" d="M23.25,11.48c0.77-0.93,1.29-2.23,1.15-3.53c-1.11,0.04-2.46,0.74-3.25,1.67c-0.72,0.83-1.35,2.16-1.18,3.42
				C21.21,13.14,22.48,12.41,23.25,11.48z"/>
		</g>
	</g>
</g>
</svg>
