<?xml version="1.0" encoding="utf-8"?>
<!-- Generator: Adobe Illustrator 27.7.0, SVG Export Plug-In . SVG Version: 6.00 Build 0)  -->
<svg version="1.1" id="Layer_2" xmlns="http://www.w3.org/2000/svg" xmlns:xlink="http://www.w3.org/1999/xlink" x="0px" y="0px"
	 viewBox="0 0 40 40" style="enable-background:new 0 0 40 40;" xml:space="preserve">
<style type="text/css">
	.st0{fill:#3E82F1;}
	.st1{fill-rule:evenodd;clip-rule:evenodd;fill:#FFFFFF;}
</style>
<g>
	<path class="st0" d="M31.75,40H8.25C3.71,40,0,36.29,0,31.75V8.25C0,3.71,3.71,0,8.25,0h23.49C36.29,0,40,3.71,40,8.25v23.49
		C40,36.29,36.29,40,31.75,40z"/>
</g>
<path class="st1" d="M28.87,18.32h-8.68v3.57h4.96c-0.21,1.15-0.86,2.13-1.84,2.78c-0.83,0.55-1.88,0.88-3.12,0.88
	c-2.4,0-4.43-1.62-5.16-3.8c-0.18-0.55-0.29-1.14-0.29-1.75c0-0.61,0.1-1.2,0.29-1.75c0.72-2.18,2.76-3.8,5.16-3.8
	c1.35,0,2.57,0.47,3.52,1.38l2.64-2.64c-1.6-1.49-3.68-2.4-6.17-2.4c-3.6,0-6.72,2.07-8.24,5.08c-0.62,1.24-0.98,2.65-0.98,4.14
	s0.36,2.9,0.98,4.14c1.52,3.01,4.64,5.08,8.24,5.08c2.49,0,4.58-0.83,6.1-2.23c1.74-1.61,2.75-3.97,2.75-6.78
	C29.04,19.56,28.98,18.93,28.87,18.32z"/>
</svg>
