<?xml version="1.0" encoding="utf-8"?>
<!-- Generator: Adobe Illustrator 27.7.0, SVG Export Plug-In . SVG Version: 6.00 Build 0)  -->
<svg version="1.1" id="Layer_2" xmlns="http://www.w3.org/2000/svg" xmlns:xlink="http://www.w3.org/1999/xlink" x="0px" y="0px"
	 viewBox="0 0 40 40" style="enable-background:new 0 0 40 40;" xml:space="preserve">
<style type="text/css">
	.st0{fill:#FAE300;}
	.st1{fill:#391B1B;}
</style>
<g>
	<g>
		<path class="st0" d="M31.75,40H8.25C3.71,40,0,36.29,0,31.75V8.25C0,3.71,3.71,0,8.25,0h23.49C36.29,0,40,3.71,40,8.25v23.49
			C40,36.29,36.29,40,31.75,40z"/>
	</g>
	<path class="st1" d="M20,10.81c-5.52,0-10,3.54-10,7.91c0,2.84,1.9,5.33,4.74,6.73c-0.21,0.78-0.76,2.83-0.87,3.27
		c-0.14,0.54,0.2,0.54,0.42,0.39c0.17-0.11,2.74-1.86,3.85-2.61c0.6,0.09,1.22,0.14,1.86,0.14c5.52,0,10-3.54,10-7.91
		C30,14.35,25.52,10.81,20,10.81"/>
</g>
</svg>
