<?xml version="1.0" encoding="utf-8"?>
<!-- Generator: Adobe Illustrator 27.7.0, SVG Export Plug-In . SVG Version: 6.00 Build 0)  -->
<svg version="1.1" id="격리_모드" xmlns="http://www.w3.org/2000/svg" xmlns:xlink="http://www.w3.org/1999/xlink" x="0px"
	 y="0px" viewBox="0 0 105 76.27" style="enable-background:new 0 0 105 76.27;" xml:space="preserve">
<style type="text/css">
	.st0{fill:#F53D3D;}
	.st1{fill:#7B8BAF;}
	.st2{opacity:0.15;fill:#000064;}
	.st3{opacity:0.2;fill:#000064;}
	.st4{opacity:0.25;}
	.st5{fill:#FFFFFF;}
	.st6{fill:#FFF222;}
	.st7{fill:#061C44;}
	.st8{fill:#560404;}
</style>
<g>
	<path class="st0" d="M82.95,45.67c0,0,7.03,0,8.49,0c13.8,0,10.78,13.95,10.78,13.95H68.96C68.96,59.62,77.1,59.2,82.95,45.67z"/>
	<path class="st1" d="M99.03,59.62c0.02,0.9-0.09,1.85-0.33,2.83c-1.51,6.25-7.81,11.32-14.06,11.32c-6.25,0-10.1-5.07-8.58-11.32
		c0.24-0.98,0.59-1.93,1.04-2.83"/>
	<path class="st1" d="M55.29,31.31H26.34c-1.09,0-1.97,0.87-1.88,1.96c0.57,7.1,7.7,9.36,16.83,9.36h5.66
		c4.88,0,9.48-0.66,13.33-2.34C65.23,37.81,67.12,31.31,55.29,31.31z"/>
	<path class="st1" d="M44.99,62.45c-1.51,6.25-7.81,11.32-14.06,11.32c-6.25,0-10.1-5.07-8.58-11.32"/>
	<path class="st0" d="M41.29,42.63c-10.94,0-21.96,8.87-24.61,19.81h45.29c2.65-10.94-4.08-19.81-15.02-19.81H41.29z"/>
	<g>
		<path class="st2" d="M41.12,42.34h5.76c4.97,0,9.59-0.66,13.37-2.36c0.97-0.51,1.78-1.18,2.39-1.93c-3.35,0-10.37,0-19.31,0
			c-12.64,0-17.5-7.16-17.5-7.16h-2.86C23.08,39.65,31.01,42.34,41.12,42.34z"/>
		<path class="st3" d="M99.76,59.52H77.59c-0.38,0.91-0.65,1.87-0.8,2.86c-0.15,0.99-0.16,1.95-0.07,2.86h22.15
			c0.38-0.92,0.66-1.87,0.82-2.86C99.84,61.39,99.86,60.43,99.76,59.52z"/>
		<path class="st3" d="M23.84,62.38c-0.32,2.09-0.05,4.04,0.66,5.73h19.81c1.24-1.69,2.11-3.64,2.43-5.73H23.84z"/>
		<path class="st2" d="M41.23,42.35c-11.06,0-21.42,8.97-23.12,20.04h10.02c1.18-7.63,5.75-15.62,11.59-15.62c4.23,0,14,0,19.09,0
			c-3.01-2.76-7.1-4.41-11.85-4.41H41.23z"/>
		<g class="st4">
			<path class="st5" d="M87.11,48.84c8.88,0,10.59,6.49,10.84,10.22h4.19c0,0,1.65-12.78-10.81-12.78c-1.32,0-7.67,0-7.67,0
				c-0.02,0.1-0.03,0.19-0.04,0.25c-0.1,0.66-0.32,1.45-0.66,2.31C84.67,48.84,86.47,48.84,87.11,48.84z"/>
			<path class="st5" d="M72.82,59.06c0.22-0.16,0.43-0.34,0.64-0.51c-0.43,0.18-0.88,0.35-1.34,0.5l0,0.01H72.82z"/>
		</g>
	</g>
	<path class="st0" d="M45.7,2.5H35.16c-10.21,0-18.48,8.27-18.48,18.48v10.33h33.14V6.62C49.82,4.34,47.97,2.5,45.7,2.5z"/>
	<path class="st6" d="M40.93,15.75H30.15c-0.06,0-0.1-0.04-0.1-0.08V9.18l-3.73,2.21v12.79c0,0.99,0.84,1.8,1.86,1.8h12.75
		c1.03,0,1.87-0.81,1.87-1.8v-6.62C42.8,16.56,41.96,15.75,40.93,15.75z M39.04,18.54v4.65c0,0.04-0.05,0.08-0.1,0.08h-8.78
		c-0.05,0-0.1-0.03-0.1-0.08v-4.65c0-0.03,0.04-0.08,0.1-0.08h8.78C39,18.46,39.04,18.51,39.04,18.54z"/>
	<g>
		<path class="st7" d="M30.93,76.27c-3.75,0-6.97-1.48-9.08-4.16c-2.14-2.73-2.85-6.46-1.93-10.25c0.32-1.34,1.67-2.17,3.02-1.84
			c1.34,0.32,2.17,1.68,1.84,3.02c-0.56,2.32-0.21,4.45,1,5.99c1.14,1.45,2.97,2.25,5.15,2.25c5.07,0,10.4-4.31,11.63-9.41
			c0.32-1.34,1.67-2.17,3.02-1.84c1.34,0.32,2.17,1.68,1.84,3.02C45.62,70.46,38.38,76.27,30.93,76.27z"/>
		<path class="st7" d="M84.64,76.27c-3.75,0-6.97-1.48-9.08-4.16c-2.15-2.73-2.85-6.46-1.93-10.25c0.28-1.15,0.7-2.28,1.24-3.37
			c0.62-1.23,2.12-1.73,3.36-1.11c1.23,0.62,1.73,2.12,1.11,3.36c-0.38,0.75-0.66,1.52-0.85,2.3c-0.56,2.32-0.21,4.45,1,5.98
			c1.14,1.45,2.97,2.25,5.15,2.25c5.07,0,10.4-4.31,11.63-9.41c0.18-0.75,0.27-1.49,0.26-2.2c-0.02-1.38,1.07-2.52,2.46-2.54
			c0.02,0,0.03,0,0.05,0c1.36,0,2.47,1.09,2.5,2.46c0.02,1.13-0.11,2.29-0.4,3.46C99.34,70.46,92.1,76.27,84.64,76.27z"/>
		<path class="st8" d="M102.22,62.12H68.96c-1.38,0-2.5-1.12-2.5-2.5s1.12-2.5,2.5-2.5h31.03c0.07-1.82-0.13-4.51-1.69-6.42
			c-1.36-1.68-3.67-2.53-6.86-2.53h-8.49c-1.38,0-2.5-1.12-2.5-2.5s1.12-2.5,2.5-2.5h8.49c4.78,0,8.4,1.48,10.76,4.41
			c4.04,5.01,2.52,12.27,2.46,12.57C104.41,61.3,103.4,62.12,102.22,62.12z"/>
		<path class="st7" d="M62.18,63.14c-1.38,0-2.5-1.12-2.5-2.5s1.12-2.5,2.5-2.5c11.36,0,17.34-8.92,18.32-12.98l6.23-25.75
			c0.23-0.96-0.02-1.42-0.23-1.69c-0.47-0.61-1.34-0.88-1.6-0.88h-5.7c-1.38,0-2.5-1.12-2.5-2.5s1.12-2.5,2.5-2.5h5.7
			c1.66,0,4.01,0.86,5.52,2.78c0.91,1.16,1.85,3.13,1.16,5.97l-6.23,25.75C84.04,51.81,76.62,63.14,62.18,63.14z"/>
		<path class="st8" d="M61.97,64.95H16.68c-0.77,0-1.49-0.35-1.96-0.95c-0.47-0.6-0.65-1.39-0.46-2.13
			c2.9-11.98,15.03-21.72,27.04-21.72h5.66c5.97,0,11.09,2.33,14.42,6.56c3.45,4.38,4.52,10.18,3.03,16.34
			C64.13,64.16,63.12,64.95,61.97,64.95z M20.12,59.95H59.9c0.52-3.9-0.33-7.45-2.46-10.16c-2.36-3-6.08-4.65-10.49-4.65h-5.66
			C32.5,45.13,23.62,51.54,20.12,59.95z"/>
		<path class="st7" d="M46.95,45.13h-5.66c-8.39,0-18.55-2.02-19.32-11.66c-0.1-1.21,0.3-2.37,1.12-3.25
			c0.83-0.9,2.01-1.41,3.25-1.41h28.95c8.2,0,10.61,2.93,11.2,5.39c0.72,3.04-1.37,6.46-5.08,8.33c-0.04,0.02-0.08,0.04-0.13,0.06
			C57.41,44.28,52.58,45.13,46.95,45.13z M60.28,40.3L60.28,40.3L60.28,40.3z M27.03,33.81c0.34,2.17,2.08,6.32,14.26,6.32h5.66
			c4.91,0,9.04-0.71,12.27-2.1c1.75-0.91,2.51-2.24,2.41-2.68c-0.08-0.33-1.38-1.54-6.33-1.54H27.03z"/>
		<path class="st7" d="M95.6,30.98c-0.19,0-0.39-0.02-0.59-0.07c-1.34-0.32-2.17-1.68-1.84-3.02l2.05-8.49
			c0.32-1.34,1.67-2.17,3.02-1.84c1.34,0.32,2.17,1.68,1.84,3.02l-2.05,8.49C97.75,30.21,96.73,30.98,95.6,30.98z"/>
		<path class="st8" d="M49.82,33.81H16.68c-1.38,0-2.5-1.12-2.5-2.5V20.98C14.18,9.41,23.59,0,35.16,0H45.7
			c3.65,0,6.62,2.97,6.62,6.62v24.69C52.32,32.69,51.2,33.81,49.82,33.81z M19.18,28.81h28.14V6.62C47.32,5.73,46.59,5,45.7,5H35.16
			c-8.81,0-15.98,7.17-15.98,15.98V28.81z"/>
		<path class="st7" d="M17.17,44.18H7.73c-1.38,0-2.5-1.12-2.5-2.5s1.12-2.5,2.5-2.5h9.43c1.38,0,2.5,1.12,2.5,2.5
			S18.55,44.18,17.17,44.18z"/>
		<path class="st7" d="M13.76,54.56h-3.65c-1.38,0-2.5-1.12-2.5-2.5s1.12-2.5,2.5-2.5h3.65c1.38,0,2.5,1.12,2.5,2.5
			S15.14,54.56,13.76,54.56z"/>
		<path class="st7" d="M9.32,64.95H2.5c-1.38,0-2.5-1.12-2.5-2.5s1.12-2.5,2.5-2.5h6.82c1.38,0,2.5,1.12,2.5,2.5
			S10.7,64.95,9.32,64.95z"/>
	</g>
</g>
</svg>
