<?xml version="1.0" encoding="utf-8"?>
<!-- Generator: Adobe Illustrator 27.7.0, SVG Export Plug-In . SVG Version: 6.00 Build 0)  -->
<svg version="1.1" id="격리_모드" xmlns="http://www.w3.org/2000/svg" xmlns:xlink="http://www.w3.org/1999/xlink" x="0px"
	 y="0px" viewBox="0 0 92.48 92.06" style="enable-background:new 0 0 92.48 92.06;" xml:space="preserve">
<style type="text/css">
	.st0{fill:#FF5751;}
	.st1{fill:#470505;}
	.st2{fill:#FDF2EA;}
	.st3{fill:#2A1C18;}
	.st4{fill:#E7A400;}
	.st5{fill:#492202;}
	.st6{fill:#78C565;}
	.st7{fill:#1E560F;}
	.st8{fill:#FFFFFF;}
</style>
<g>
	<g>
		<g>
			<path class="st0" d="M50.83,5.43L50.83,5.43c1.41,3.06,5.37,3.9,7.91,1.68l0,0c3.24-2.84,8.32-0.58,8.38,3.73v0
				c0.05,3.37,3.32,5.75,6.54,4.75l0,0c4.11-1.28,7.83,2.86,6.14,6.81l0,0c-1.33,3.1,0.69,6.61,4.04,7l0,0
				c4.28,0.51,5.99,5.79,2.83,8.72l0,0c-2.48,2.29-2.05,6.32,0.85,8.04l0,0c3.7,2.2,3.12,7.73-0.96,9.12l0,0
				c-3.19,1.09-4.44,4.94-2.5,7.69l0,0c2.48,3.52-0.29,8.33-4.58,7.94h0c-3.36-0.31-6.07,2.7-5.41,6.01v0
				c0.84,4.22-3.66,7.49-7.42,5.39l0,0c-2.94-1.65-6.64,0-7.39,3.29l0,0c-0.95,4.2-6.39,5.36-8.97,1.91l0,0
				c-2.02-2.7-6.07-2.7-8.09,0l0,0c-2.58,3.45-8.02,2.29-8.97-1.91l0,0c-0.75-3.29-4.45-4.94-7.39-3.29l0,0
				c-3.76,2.1-8.26-1.16-7.42-5.39l0,0c0.66-3.31-2.05-6.32-5.41-6.01h0c-4.29,0.39-7.07-4.42-4.58-7.94l0,0
				c1.95-2.76,0.69-6.61-2.5-7.69l0,0c-4.08-1.39-4.66-6.91-0.96-9.12l0,0c2.9-1.73,3.32-5.75,0.85-8.04l0,0
				c-3.16-2.93-1.44-8.21,2.83-8.72l0,0c3.35-0.4,5.37-3.91,4.04-7l0,0c-1.7-3.96,2.02-8.09,6.14-6.81l0,0
				c3.22,1,6.5-1.38,6.54-4.75v0c0.06-4.31,5.14-6.57,8.38-3.73l0,0c2.54,2.22,6.5,1.38,7.91-1.68l0,0
				C43.46,1.52,49.02,1.52,50.83,5.43z"/>
			<path class="st1" d="M54.29,92.06c-2.35,0-4.55-1.09-6.01-3.04C47.8,88.37,47.05,88,46.24,88s-1.56,0.37-2.04,1.02
				c-1.78,2.39-4.7,3.48-7.62,2.86c-2.91-0.62-5.13-2.81-5.79-5.71c-0.18-0.79-0.71-1.43-1.45-1.77c-0.74-0.33-1.57-0.29-2.28,0.1
				c-2.6,1.45-5.71,1.27-8.12-0.48c-2.41-1.75-3.55-4.65-2.97-7.58c0.16-0.8-0.06-1.6-0.61-2.2c-0.54-0.6-1.32-0.91-2.13-0.83
				c-2.96,0.27-5.73-1.16-7.22-3.74s-1.35-5.69,0.37-8.13c0.47-0.66,0.59-1.49,0.34-2.26c-0.25-0.77-0.84-1.36-1.6-1.63
				c-2.82-0.96-4.77-3.39-5.08-6.36s1.09-5.75,3.65-7.28c0.7-0.42,1.15-1.12,1.23-1.92s-0.21-1.59-0.8-2.14
				c-2.19-2.02-2.97-5.04-2.05-7.87c0.92-2.83,3.33-4.81,6.29-5.16c0.81-0.1,1.5-0.55,1.91-1.26c0.41-0.7,0.46-1.53,0.14-2.28
				c-1.17-2.74-0.67-5.81,1.33-8.03c1.99-2.21,5-3.04,7.85-2.16c0.78,0.24,1.6,0.1,2.25-0.37c0.66-0.48,1.04-1.22,1.05-2.03
				c0.04-2.98,1.76-5.58,4.48-6.79c2.72-1.21,5.81-0.75,8.05,1.22C36,5.77,36.81,5.98,37.6,5.81c0.79-0.17,1.44-0.69,1.78-1.43
				C40.64,1.68,43.26,0,46.24,0c2.98,0,5.61,1.68,6.85,4.39c0.34,0.74,0.99,1.26,1.78,1.43c0.79,0.17,1.6-0.04,2.21-0.58
				c2.24-1.96,5.32-2.43,8.05-1.22c2.72,1.21,4.44,3.81,4.48,6.79c0.01,0.81,0.39,1.55,1.05,2.03c0.66,0.48,1.48,0.61,2.25,0.37
				c2.85-0.88,5.85-0.06,7.85,2.16c1.99,2.21,2.5,5.29,1.33,8.03c-0.32,0.75-0.27,1.58,0.14,2.28c0.41,0.7,1.1,1.16,1.91,1.26
				c2.96,0.35,5.37,2.33,6.29,5.16c0.92,2.83,0.13,5.85-2.05,7.87c-0.6,0.55-0.89,1.33-0.8,2.14c0.08,0.81,0.53,1.51,1.23,1.92
				c2.56,1.52,3.96,4.31,3.65,7.28s-2.26,5.4-5.08,6.36c-0.77,0.26-1.35,0.85-1.6,1.63c-0.25,0.77-0.13,1.59,0.34,2.26
				c1.72,2.43,1.86,5.55,0.37,8.13s-4.26,4.01-7.23,3.74c-0.81-0.07-1.58,0.23-2.13,0.83c-0.54,0.6-0.76,1.41-0.61,2.2
				c0.58,2.92-0.56,5.83-2.97,7.58c-2.41,1.75-5.52,1.94-8.12,0.48c-0.71-0.4-1.54-0.43-2.28-0.1c-0.74,0.33-1.27,0.97-1.45,1.77
				c-0.66,2.91-2.88,5.1-5.79,5.71C55.36,92,54.82,92.06,54.29,92.06z M28.3,79.18c1.04,0,2.09,0.22,3.08,0.66
				c2.2,0.98,3.76,2.88,4.29,5.23c0.33,1.48,1.58,1.85,1.96,1.93c0.37,0.08,1.67,0.25,2.57-0.97c1.44-1.92,3.64-3.03,6.05-3.03
				c2.4,0,4.61,1.1,6.05,3.03c0.91,1.21,2.2,1.05,2.57,0.97c0.37-0.08,1.62-0.45,1.96-1.93c0.53-2.34,2.1-4.25,4.29-5.23
				c2.19-0.98,4.66-0.87,6.76,0.31c1.32,0.74,2.43,0.06,2.74-0.16c0.31-0.22,1.3-1.07,1-2.56c-0.47-2.36,0.19-4.73,1.79-6.52
				s3.9-2.69,6.3-2.47c1.51,0.14,2.25-0.93,2.44-1.26c0.19-0.33,0.75-1.51-0.13-2.75c-1.39-1.96-1.76-4.4-1.01-6.69
				c0.74-2.29,2.47-4.04,4.75-4.81c1.43-0.49,1.67-1.77,1.71-2.15c0.04-0.38,0.07-1.68-1.23-2.46c-2.06-1.23-3.39-3.31-3.65-5.7
				c-0.25-2.39,0.62-4.7,2.38-6.33c1.11-1.03,0.81-2.29,0.69-2.66s-0.62-1.56-2.12-1.74c-2.39-0.28-4.44-1.64-5.65-3.72
				c-1.2-2.08-1.35-4.54-0.4-6.75c0.6-1.39-0.19-2.43-0.45-2.71c-0.26-0.28-1.21-1.18-2.65-0.73c-2.3,0.71-4.73,0.31-6.67-1.1
				c-1.94-1.41-3.08-3.6-3.11-6c-0.02-1.51-1.16-2.14-1.51-2.29C62.75,8.43,61.52,8,60.38,9c-1.81,1.58-4.19,2.21-6.54,1.71
				c-2.35-0.5-4.28-2.04-5.28-4.22l0,0C47.92,5.11,46.62,5,46.24,5c-0.38,0-1.68,0.11-2.31,1.48c-1.01,2.18-2.93,3.72-5.29,4.22
				c-2.35,0.5-4.74-0.12-6.54-1.71c-1.14-1-2.37-0.57-2.72-0.41c-0.35,0.16-1.49,0.78-1.51,2.29c-0.03,2.4-1.17,4.59-3.11,6
				c-1.94,1.41-4.38,1.82-6.67,1.1c-1.45-0.45-2.39,0.44-2.65,0.73c-0.26,0.28-1.04,1.32-0.45,2.71c0.95,2.21,0.8,4.67-0.4,6.75
				c-1.2,2.08-3.26,3.44-5.65,3.72c-1.5,0.18-2.01,1.38-2.12,1.74S6.4,35.27,7.51,36.3c1.76,1.63,2.63,3.94,2.38,6.33
				c-0.25,2.39-1.58,4.47-3.65,5.7c-1.3,0.77-1.27,2.08-1.23,2.46s0.28,1.66,1.71,2.15c2.28,0.77,4.01,2.53,4.75,4.81
				c0.74,2.29,0.37,4.72-1.01,6.69c-0.87,1.24-0.32,2.41-0.13,2.75c0.19,0.33,0.93,1.4,2.44,1.26c2.4-0.22,4.69,0.68,6.3,2.47
				c1.61,1.79,2.26,4.16,1.79,6.52c-0.29,1.48,0.69,2.33,1,2.56s1.42,0.9,2.74,0.16C25.77,79.51,27.03,79.18,28.3,79.18z"/>
		</g>
		<g>
			<path class="st2" d="M69.92,81.75c0.2-0.79,0.56-1.53,1.06-2.15l-7.67-7.67l5.56-7.18l6.33,6.33c-2.45,0.68-4.14,3.17-3.61,5.85
				C71.98,78.9,71.21,80.64,69.92,81.75z"/>
			<path class="st3" d="M70.98,82.1c-0.64,0-1.28-0.24-1.77-0.73l-7.67-7.67c-0.98-0.98-0.98-2.56,0-3.54
				c0.98-0.98,2.56-0.98,3.54,0l7.67,7.67c0.98,0.98,0.98,2.56,0,3.54C72.26,81.86,71.62,82.1,70.98,82.1z"/>
			<path class="st3" d="M75.2,73.59c-0.64,0-1.28-0.24-1.77-0.73l-6.33-6.33c-0.98-0.98-0.98-2.56,0-3.54
				c0.98-0.98,2.56-0.98,3.54,0l6.33,6.33c0.98,0.98,0.98,2.56,0,3.54C76.48,73.35,75.84,73.59,75.2,73.59z"/>
			<path class="st4" d="M17.57,45.87c-1.64-0.93-2.76-2.79-2.76-4.93c0-2.06,1.04-3.86,2.59-4.82c-0.13-0.49-0.21-1.01-0.21-1.54
				c0-2.16,1.14-4.03,2.81-4.95c-0.27-0.68-0.42-1.42-0.42-2.21c0-3.08,2.32-5.57,5.17-5.57c0.92,0,1.78,0.26,2.53,0.71
				c0.85-1.84,2.6-3.1,4.63-3.1c0.5,0,0.98,0.08,1.43,0.22c1.07-1.57,2.88-2.61,4.93-2.61c1.99,0,3.75,0.98,4.84,2.48
				c0.91-0.56,1.98-0.89,3.12-0.89c2.66,0,4.91,1.74,5.68,4.15c0.48-0.11,0.97-0.17,1.48-0.17c3.74,0,6.76,3.03,6.76,6.76
				c0,0.17-0.01,0.34-0.03,0.51c3.18,0.55,5.6,3.32,5.6,6.66c0,1.35-0.4,2.6-1.08,3.66c2.86,0.44,5.06,2.91,5.06,5.89
				c0,1.43-0.5,2.74-1.34,3.76c2.6,0.65,4.52,2.99,4.52,5.78c0,3.1-2.37,5.65-5.4,5.94c0.89,1.09,1.42,2.49,1.42,4.01
				c0,3.52-2.85,6.37-6.37,6.37c-1.35,0-2.6-0.42-3.63-1.14c-0.93,2.06-3.23,3.53-5.92,3.53c-3.1,0-5.67-1.93-6.25-4.5
				c-1.11,0.82-2.54,1.31-4.1,1.31c-3.07,0-5.64-1.91-6.24-4.44c-0.78,0.3-1.63,0.46-2.52,0.46c-3.83,0-6.96-3.01-7.14-6.8
				c-0.62,0.28-1.3,0.44-2.01,0.44c-2.86,0-5.17-2.49-5.17-5.57c0-0.58,0.08-1.14,0.24-1.67c-2.4-0.38-4.22-2.16-4.22-4.3
				C15.61,47.91,16.38,46.67,17.57,45.87z"/>
			<path class="st5" d="M53.01,76.87c-3.05,0-5.8-1.43-7.41-3.64c-0.94,0.3-1.93,0.46-2.94,0.46c-3.22,0-6.13-1.6-7.68-4.04
				c-0.36,0.04-0.71,0.06-1.07,0.06c-4.16,0-7.73-2.64-9.08-6.37c-4.23,0.06-7.71-3.56-7.75-8.01c-2.4-1.18-3.98-3.46-3.98-6.03
				c0-1.17,0.32-2.29,0.92-3.28c-1.09-1.41-1.71-3.2-1.71-5.08c0-2.23,0.89-4.35,2.4-5.86c-0.01-0.17-0.02-0.34-0.02-0.51
				c0-2.29,0.92-4.43,2.48-5.94c-0.06-0.4-0.09-0.81-0.09-1.23c0-4.45,3.44-8.07,7.67-8.07c0.52,0,1.05,0.06,1.56,0.17
				c1.52-1.73,3.74-2.69,6.06-2.54c1.57-1.53,3.68-2.4,5.91-2.4c2,0,3.92,0.72,5.43,1.98c0.81-0.26,1.67-0.39,2.53-0.39
				c2.98,0,5.66,1.54,7.18,3.98c4.63,0.01,8.48,3.44,9.14,7.89c3.38,1.41,5.67,4.74,5.67,8.54c0,0.75-0.09,1.49-0.27,2.2
				c2.57,1.46,4.25,4.21,4.25,7.35c0,0.89-0.14,1.78-0.42,2.62c2.21,1.55,3.6,4.1,3.6,6.93c0,3.19-1.73,5.97-4.35,7.41
				c0.25,0.82,0.37,1.67,0.37,2.54c0,4.89-3.98,8.87-8.87,8.87c-0.96,0-1.9-0.15-2.79-0.45C58.12,75.81,55.67,76.87,53.01,76.87z
				 M46.77,67.38c0.29,0,0.59,0.05,0.88,0.16c0.79,0.3,1.38,0.97,1.56,1.8c0.32,1.45,1.96,2.54,3.81,2.54
				c1.62,0,3.08-0.83,3.64-2.06c0.31-0.68,0.9-1.18,1.61-1.38c0.72-0.2,1.48-0.07,2.09,0.36c0.65,0.45,1.41,0.69,2.2,0.69
				c2.13,0,3.87-1.73,3.87-3.87c0-0.9-0.3-1.74-0.86-2.43c-0.58-0.72-0.72-1.69-0.36-2.54c0.36-0.85,1.15-1.43,2.07-1.52
				c1.79-0.17,3.14-1.65,3.14-3.45c0-1.59-1.08-2.97-2.63-3.36c-0.83-0.21-1.5-0.82-1.77-1.64c-0.27-0.81-0.11-1.71,0.43-2.37
				c0.51-0.62,0.78-1.38,0.78-2.19c0-1.69-1.26-3.16-2.94-3.42c-0.84-0.13-1.55-0.67-1.9-1.44c-0.35-0.77-0.28-1.67,0.18-2.38
				c0.45-0.69,0.68-1.49,0.68-2.3c0-2.07-1.48-3.84-3.53-4.19c-1.26-0.22-2.16-1.36-2.06-2.64c0.01-0.13,0.02-0.23,0.02-0.32
				c0-2.65-2.41-4.78-5.2-4.16c-1.26,0.28-2.53-0.45-2.93-1.68c-0.46-1.44-1.79-2.41-3.3-2.41c-0.64,0-1.26,0.18-1.81,0.52
				c-1.11,0.69-2.57,0.4-3.34-0.66c-0.66-0.92-1.69-1.44-2.81-1.44c-1.15,0-2.22,0.57-2.87,1.52c-0.62,0.91-1.76,1.3-2.81,0.98
				c-1.25-0.39-2.48,0.29-3.05,1.54c-0.3,0.65-0.86,1.14-1.54,1.34c-0.68,0.21-1.42,0.12-2.03-0.25c-0.39-0.23-0.8-0.35-1.23-0.35
				c-1.47,0-2.67,1.38-2.67,3.07c0,0.44,0.08,0.87,0.24,1.28c0.47,1.17,0,2.51-1.11,3.12c-0.94,0.52-1.52,1.58-1.52,2.77
				c0,0.3,0.04,0.6,0.12,0.9c0.28,1.06-0.16,2.19-1.09,2.77c-0.87,0.54-1.41,1.58-1.41,2.7c0,1.17,0.57,2.23,1.5,2.75
				c0.75,0.43,1.23,1.22,1.26,2.08c0.03,0.87-0.39,1.69-1.11,2.17c-0.26,0.17-0.86,0.65-0.86,1.35c0,0.85,0.91,1.64,2.11,1.83
				c0.71,0.11,1.34,0.52,1.72,1.13c0.38,0.61,0.49,1.35,0.29,2.04c-0.09,0.31-0.14,0.64-0.14,0.97c0,1.69,1.2,3.07,2.67,3.07
				c0.34,0,0.66-0.07,0.97-0.21c0.75-0.34,1.63-0.29,2.33,0.14c0.71,0.43,1.15,1.18,1.2,2.01c0.12,2.48,2.17,4.43,4.65,4.43
				c0.55,0,1.1-0.1,1.64-0.3c0.67-0.25,1.42-0.21,2.06,0.13c0.63,0.34,1.09,0.93,1.26,1.63c0.34,1.43,1.97,2.52,3.8,2.52
				c0.97,0,1.9-0.29,2.62-0.82C45.72,67.54,46.24,67.38,46.77,67.38z"/>
			<path class="st5" d="M28.74,38.34c-1.38,0-2.5-1.12-2.5-2.5v-3.25c0-1.38,1.12-2.5,2.5-2.5s2.5,1.12,2.5,2.5v3.25
				C31.24,37.23,30.12,38.34,28.74,38.34z"/>
			<path class="st5" d="M42.56,36.72c-0.72,0-1.43-0.31-1.92-0.9l-2.67-3.22c-0.88-1.06-0.74-2.64,0.33-3.52
				c1.06-0.88,2.64-0.74,3.52,0.33l2.67,3.22c0.88,1.06,0.74,2.64-0.33,3.52C43.69,36.53,43.12,36.72,42.56,36.72z"/>
			<path class="st5" d="M41.22,44.9h-2.1c-1.38,0-2.5-1.12-2.5-2.5s1.12-2.5,2.5-2.5h2.1c1.38,0,2.5,1.12,2.5,2.5
				S42.6,44.9,41.22,44.9z"/>
			<path class="st5" d="M32.72,49.41c-0.64,0-1.28-0.24-1.77-0.73l-2.39-2.39c-0.98-0.98-0.98-2.56,0-3.54
				c0.98-0.98,2.56-0.98,3.54,0l2.39,2.39c0.98,0.98,0.98,2.56,0,3.54C34,49.17,33.36,49.41,32.72,49.41z"/>
			<path class="st5" d="M55,39.54c-0.52,0-1.05-0.16-1.5-0.5l-3.18-2.39c-1.1-0.83-1.33-2.4-0.5-3.5c0.83-1.1,2.4-1.33,3.5-0.5
				l3.18,2.39c1.1,0.83,1.33,2.4,0.5,3.5C56.51,39.19,55.76,39.54,55,39.54z"/>
			<path class="st5" d="M55.8,50.98c-1.38,0-2.5-1.12-2.5-2.5v-3.95c0-1.38,1.12-2.5,2.5-2.5s2.5,1.12,2.5,2.5v3.95
				C58.3,49.86,57.18,50.98,55.8,50.98z"/>
			<path class="st5" d="M47.04,58.17c-0.64,0-1.28-0.24-1.77-0.73l-2.39-2.39c-0.98-0.98-0.98-2.56,0-3.54
				c0.98-0.98,2.56-0.98,3.54,0l2.39,2.39c0.98,0.98,0.98,2.56,0,3.54C48.32,57.92,47.68,58.17,47.04,58.17z"/>
			<path class="st5" d="M38.72,60.31c-1.38,0-2.5-1.12-2.5-2.5v-3.34c0-1.38,1.12-2.5,2.5-2.5s2.5,1.12,2.5,2.5v3.34
				C41.22,59.19,40.1,60.31,38.72,60.31z"/>
			<path class="st5" d="M62.96,60.56c-0.55,0-1.11-0.18-1.57-0.56l-2.94-2.39c-1.07-0.87-1.23-2.45-0.36-3.52
				c0.87-1.07,2.44-1.23,3.52-0.36l2.94,2.39c1.07,0.87,1.23,2.45,0.36,3.52C64.41,60.24,63.69,60.56,62.96,60.56z"/>
			<path class="st5" d="M53.41,68.38c-1.38,0-2.5-1.12-2.5-2.5v-3.85c0-1.38,1.12-2.5,2.5-2.5s2.5,1.12,2.5,2.5v3.85
				C55.91,67.26,54.79,68.38,53.41,68.38z"/>
		</g>
	</g>
	<g>
		<g>
			<circle class="st6" cx="69.98" cy="69.56" r="20"/>
			<path class="st7" d="M69.98,92.06c-12.41,0-22.5-10.09-22.5-22.5s10.09-22.5,22.5-22.5s22.5,10.09,22.5,22.5
				S82.39,92.06,69.98,92.06z M69.98,52.06c-9.65,0-17.5,7.85-17.5,17.5s7.85,17.5,17.5,17.5s17.5-7.85,17.5-17.5
				S79.63,52.06,69.98,52.06z"/>
		</g>
		<g>
			<path class="st7" d="M76.17,63.36c0.51,0,1.02,0.2,1.41,0.59c0.78,0.78,0.78,2.05,0,2.83l-8.4,8.4
				c-0.38,0.38-0.88,0.59-1.41,0.59c-0.53,0-1.04-0.21-1.41-0.59l-3.97-3.97c-0.78-0.78-0.78-2.05,0-2.83
				c0.39-0.39,0.9-0.59,1.41-0.59c0.51,0,1.02,0.2,1.41,0.59l2.56,2.56l6.99-6.99C75.14,63.55,75.65,63.36,76.17,63.36 M76.17,58.36
				c-1.87,0-3.63,0.73-4.95,2.05l-3.54,3.54c-1.14-0.76-2.47-1.17-3.87-1.17c-1.87,0-3.63,0.73-4.95,2.05
				c-1.32,1.32-2.05,3.08-2.05,4.95c0,1.87,0.73,3.63,2.05,4.95l3.97,3.97c1.32,1.32,3.08,2.05,4.95,2.05
				c1.87,0,3.63-0.73,4.95-2.05l8.4-8.4c1.32-1.32,2.05-3.08,2.05-4.95s-0.73-3.63-2.05-4.95C79.8,59.09,78.04,58.36,76.17,58.36
				L76.17,58.36z"/>
			<path class="st8" d="M67.77,75.76L67.77,75.76c-0.53,0-1.04-0.21-1.41-0.59l-3.97-3.97c-0.78-0.78-0.78-2.05,0-2.83
				c0.78-0.78,2.05-0.78,2.83,0l2.56,2.56l6.99-6.99c0.78-0.78,2.05-0.78,2.83,0c0.78,0.78,0.78,2.05,0,2.83l-8.4,8.4
				C68.8,75.55,68.3,75.76,67.77,75.76z"/>
		</g>
	</g>
</g>
</svg>
