<?xml version="1.0" encoding="utf-8"?>
<!-- Generator: Adobe Illustrator 27.7.0, SVG Export Plug-In . SVG Version: 6.00 Build 0)  -->
<svg version="1.1" id="격리_모드" xmlns="http://www.w3.org/2000/svg" xmlns:xlink="http://www.w3.org/1999/xlink" x="0px"
	 y="0px" viewBox="0 0 105 76.67" style="enable-background:new 0 0 105 76.67;" xml:space="preserve">
<style type="text/css">
	.st0{fill:#78D1F4;}
	.st1{opacity:0.15;fill:#000064;}
	.st2{fill:#7B8BAF;}
	.st3{fill:#FFD4C7;}
	.st4{fill:#704311;}
	.st5{fill:#122D5B;}
</style>
<g>
	<g>
		<path class="st0" d="M101.6,27.56c1.12,1.12,1.12,2.93,0,4.05L63.15,70.05c-1.12,1.12-2.93,1.12-4.05,0L43.07,54.03
			c3.36-2.49,4.74-5.21,4.74-5.21l17.44,0c3.92,0,7.09-3.18,7.1-7.1c0-3.92-3.18-7.1-7.1-7.1l-3.11,0l23.26-23.26L101.6,27.56z"/>
		<path class="st1" d="M47.81,48.82l17.44,0c2.01,0,3.81-0.84,5.1-2.18c0.08,0.43,0.13,0.87,0.13,1.32c0,3.92-3.18,7.09-7.1,7.1
			l-17.44,0c0,0-0.23,0.44-0.72,1.13l-2.17-2.17C46.43,51.53,47.81,48.82,47.81,48.82z"/>
		<path class="st2" d="M73.27,3.27c1.12-1.12,2.93-1.12,4.05,0l8.09,8.09L62.15,34.63H41.91L73.27,3.27z"/>
		<g>
			<path class="st3" d="M39.5,19.45c3.49,0,16.27,0.04,17.54,0.05L41.91,34.63h20.24l3.11,0c3.92,0,7.1,3.18,7.1,7.1
				c0,3.92-3.18,7.09-7.1,7.1l-17.44,0c0,0-1.38,2.71-4.74,5.21l8,8c-3.05,3.05-7.45,6.74-14.94,8.34c-7.5,1.6-8.62,3.08-9.34,3.8
				L2.5,49.88c0,0,13.48-13.61,22.2-22.33C30.52,21.74,34.5,19.45,39.5,19.45z"/>
			<path class="st1" d="M43.92,54.88l7.15,7.15c-3.05,3.05-7.45,6.74-14.94,8.34c-7.5,1.6-8.62,3.08-9.34,3.8l-8.16-8.16
				c0,0,6.07-6.07,9.11-9.11C32.79,59.94,43.92,54.88,43.92,54.88z"/>
		</g>
	</g>
	<g>
		<path class="st4" d="M2.5,52.38c-0.64,0-1.27-0.24-1.76-0.72c-0.98-0.97-0.99-2.55-0.02-3.54c0.13-0.14,13.58-13.71,22.21-22.33
			c6.44-6.44,10.93-8.84,16.57-8.84c0.02,0,0.04,0,0.05,0c3.75,0,17.62,0.05,17.62,0.05l-0.02,5c0,0-13.97-0.02-17.66-0.05
			c-4.18,0-7.59,1.93-13.03,7.37C17.85,37.94,4.41,51.5,4.28,51.64C3.79,52.13,3.14,52.38,2.5,52.38z"/>
		<path class="st4" d="M26.79,76.67c-0.64,0-1.28-0.24-1.77-0.73c-0.98-0.98-0.98-2.56,0-3.54l0.09-0.1
			c1.28-1.31,3.25-2.83,10.49-4.38c6.76-1.44,10.72-4.69,13.7-7.67c0.98-0.98,2.56-0.98,3.54,0c0.98,0.98,0.98,2.56,0,3.54
			c-3.29,3.29-8.11,7.3-16.19,9.02c-6.37,1.36-7.48,2.5-7.96,2.99l-0.14,0.14C28.07,76.42,27.43,76.67,26.79,76.67z"/>
		<path class="st5" d="M61.19,73.45c-1.37,0-2.75-0.52-3.79-1.57L41.36,55.85c-0.98-0.98-0.98-2.56,0-3.54
			c0.98-0.98,2.56-0.98,3.54,0l16.03,16.03c0.14,0.14,0.37,0.14,0.51,0L99.89,29.9c0.14-0.14,0.14-0.37,0-0.51L75.61,5.1
			c-0.14-0.14-0.37-0.14-0.51,0L43.74,36.46c-0.98,0.98-2.56,0.98-3.54,0c-0.98-0.98-0.98-2.56,0-3.54L71.56,1.57
			c2.09-2.09,5.49-2.09,7.58,0l24.28,24.28c2.09,2.09,2.09,5.49,0,7.58L64.98,71.89C63.93,72.93,62.56,73.45,61.19,73.45z"/>
		<path class="st5" d="M62.21,37.19c-0.64,0-1.28-0.24-1.77-0.73c-0.98-0.98-0.98-2.56,0-3.54L83.7,9.66c0.98-0.98,2.56-0.98,3.54,0
			c0.98,0.98,0.98,2.56,0,3.54L63.98,36.45C63.49,36.94,62.85,37.19,62.21,37.19z"/>
		<path class="st4" d="M30.03,60.65c-1.11,0-2.28-0.06-3.51-0.19c-1.37-0.15-2.37-1.38-2.22-2.75c0.15-1.37,1.37-2.36,2.75-2.22
			c13.6,1.44,18.41-7.38,18.61-7.76c0.43-0.82,1.29-1.35,2.22-1.35l17.44,0c2.53,0,4.6-2.06,4.6-4.6c0-1.23-0.48-2.38-1.35-3.25
			c-0.87-0.87-2.02-1.35-3.25-1.35H33.55c-1.38,0-2.5-1.12-2.5-2.5s1.12-2.5,2.5-2.5h31.77c2.56,0,4.97,1,6.79,2.81
			c1.81,1.81,2.81,4.22,2.81,6.79c0,5.29-4.31,9.59-9.59,9.6l-16.06,0C47.25,54.26,41.51,60.65,30.03,60.65z"/>
	</g>
</g>
</svg>
