<?xml version="1.0" encoding="utf-8"?>
<!-- Generator: Adobe Illustrator 27.7.0, SVG Export Plug-In . SVG Version: 6.00 Build 0)  -->
<svg version="1.1" id="격리_모드" xmlns="http://www.w3.org/2000/svg" xmlns:xlink="http://www.w3.org/1999/xlink" x="0px"
	 y="0px" viewBox="0 0 85 76.11" style="enable-background:new 0 0 85 76.11;" xml:space="preserve">
<style type="text/css">
	.st0{fill:#E0EAFC;}
	.st1{opacity:0.15;fill:#000064;}
	.st2{fill:#2B3966;}
	.st3{fill:#78C565;}
	.st4{fill:#1E560F;}
	.st5{fill:#FFFFFF;}
</style>
<g>
	<g>
		<g>
			<g>
				<g>
					<polygon class="st0" points="53.18,73.61 53.17,73.61 53.17,73.61 					"/>
					<path class="st0" d="M21.18,10.51v44.38h18.67v5.39c0,7.36,5.97,13.33,13.33,13.33c7.36,0,13.33-5.97,13.33-13.33v-5.33
						l0-44.47c0-4.38,3.53-8.03,7.89-8.03H29.18C24.76,2.45,21.18,6.09,21.18,10.51z"/>
					<path class="st0" d="M74.5,2.5L74.5,2.5c0.01,0,0.01,0,0.01,0H74.5z"/>
					<path class="st0" d="M74.5,2.5c-0.03,0-0.06,0.01-0.09,0.01h0.1L74.5,2.5z"/>
				</g>
			</g>
			<path class="st0" d="M53.17,73.61L53.17,73.61c-7.36,0-13.33-5.97-13.33-13.33v-5.33H2.5v5.33c0,7.36,5.97,13.33,13.33,13.33
				H53.17"/>
			<path class="st0" d="M66.51,10.5c0-4.42,3.58-8,8-8H74.5c4.42,0,8,3.58,8,8v5.3H66.51L66.51,10.5z"/>
			<path class="st1" d="M53.17,73.61L53.17,73.61c-7.36,0-13.33-5.97-13.33-13.33v-5.33H2.5v5.33c0,7.36,5.97,13.33,13.33,13.33
				H53.17"/>
			<path class="st1" d="M66.51,10.5c0-4.42,3.58-8,8-8H74.5c4.42,0,8,3.58,8,8v5.3H66.51L66.51,10.5z"/>
		</g>
		<g>
			<path class="st2" d="M21.18,57.44c-1.38,0-2.5-1.12-2.5-2.5V10.51c0-5.79,4.71-10.5,10.5-10.5h45.33c1.38,0,2.5,1.12,2.5,2.5
				s-1.12,2.5-2.5,2.5H29.18c-3.03,0-5.5,2.47-5.5,5.5v44.44C23.68,56.32,22.56,57.44,21.18,57.44z"/>
			<path class="st2" d="M53.18,76.11H15.83C7.1,76.11,0,69.01,0,60.27v-5.33c0-1.38,1.12-2.5,2.5-2.5h37.34c1.38,0,2.5,1.12,2.5,2.5
				v5.33c0,5.97,4.86,10.83,10.83,10.83c5.97,0,10.83-4.86,10.83-10.83l0-44.37c0-0.03,0-0.06,0-0.1c0-0.03,0-0.06,0-0.1l0-5.21
				c0-5.78,4.7-10.49,10.47-10.5c0.01,0,0.01,0,0.02,0c0,0,0.01,0,0.02,0C80.3,0.01,85,4.72,85,10.5v5.31c0,1.38-1.12,2.5-2.5,2.5
				H69.01l0,41.97C69.01,69,61.91,76.1,53.18,76.11C53.18,76.11,53.18,76.11,53.18,76.11z M5,57.44v2.83
				c0,5.97,4.86,10.83,10.83,10.83h25.81c-2.66-2.83-4.3-6.65-4.3-10.83v-2.83H5z M69.01,13.31H80V10.5C80,7.47,77.54,5,74.51,5
				c-3.03,0-5.49,2.47-5.49,5.5L69.01,13.31z"/>
			<path class="st2" d="M53.18,18.33H31.84c-1.38,0-2.5-1.12-2.5-2.5s1.12-2.5,2.5-2.5h21.33c1.38,0,2.5,1.12,2.5,2.5
				S54.56,18.33,53.18,18.33z"/>
			<path class="st2" d="M53.18,39.67H31.84c-1.38,0-2.5-1.12-2.5-2.5s1.12-2.5,2.5-2.5h21.33c1.38,0,2.5,1.12,2.5,2.5
				S54.56,39.67,53.18,39.67z"/>
			<path class="st2" d="M47.85,29h-16c-1.38,0-2.5-1.12-2.5-2.5s1.12-2.5,2.5-2.5h16c1.38,0,2.5,1.12,2.5,2.5S49.23,29,47.85,29z"/>
		</g>
	</g>
	<g>
		<g>
			<circle class="st3" cx="64.2" cy="55.31" r="18.3"/>
			<path class="st4" d="M64.2,76.11c-11.47,0-20.8-9.33-20.8-20.8s9.33-20.8,20.8-20.8S85,43.83,85,55.31S75.67,76.11,64.2,76.11z
				 M64.2,39.5c-8.71,0-15.8,7.09-15.8,15.8s7.09,15.8,15.8,15.8S80,64.02,80,55.31S72.91,39.5,64.2,39.5z"/>
		</g>
		<g>
			<path class="st4" d="M69.86,49.63c0.47,0,0.94,0.18,1.29,0.54c0.71,0.71,0.71,1.87,0,2.59l-7.69,7.69
				c-0.34,0.34-0.81,0.54-1.29,0.54s-0.95-0.19-1.29-0.54l-3.63-3.63c-0.71-0.71-0.71-1.87,0-2.59c0.36-0.36,0.83-0.54,1.29-0.54
				s0.94,0.18,1.29,0.54l2.34,2.34l6.39-6.39C68.92,49.81,69.39,49.63,69.86,49.63 M69.86,44.63c-1.83,0-3.54,0.71-4.83,2l-3,3
				c-1.04-0.62-2.24-0.95-3.48-0.95c-1.82,0-3.54,0.71-4.83,2c-2.66,2.66-2.66,7,0,9.66l3.63,3.63c1.29,1.29,3.01,2,4.83,2
				c1.83,0,3.54-0.71,4.83-2l7.69-7.69c1.29-1.29,2-3,2-4.83s-0.71-3.54-2-4.83C73.4,45.34,71.68,44.63,69.86,44.63L69.86,44.63z"/>
			<path class="st5" d="M62.17,60.98L62.17,60.98c-0.49,0-0.95-0.19-1.29-0.54l-3.63-3.63c-0.71-0.71-0.71-1.87,0-2.59
				c0.71-0.71,1.87-0.71,2.59,0l2.34,2.34l6.39-6.39c0.71-0.71,1.87-0.71,2.59,0c0.71,0.71,0.71,1.87,0,2.59l-7.69,7.69
				C63.12,60.79,62.66,60.98,62.17,60.98z"/>
		</g>
	</g>
</g>
</svg>
