<?xml version="1.0" encoding="utf-8"?>
<!-- Generator: Adobe Illustrator 27.7.0, SVG Export Plug-In . SVG Version: 6.00 Build 0)  -->
<svg version="1.1" id="격리_모드" xmlns="http://www.w3.org/2000/svg" xmlns:xlink="http://www.w3.org/1999/xlink" x="0px"
	 y="0px" viewBox="0 0 84.47 95" style="enable-background:new 0 0 84.47 95;" xml:space="preserve">
<style type="text/css">
	.st0{fill:#78C565;}
	.st1{fill:#67A854;}
	.st2{fill:#FFC863;}
	.st3{fill:#E7A400;}
	.st4{fill:#FFEE92;}
	.st5{fill:#FFFFFF;}
	.st6{fill:#FF5751;}
	.st7{fill:#E53333;}
	.st8{fill:#2A1C18;}
	.st9{fill:#2B2726;}
	.st10{fill:#3D1F01;}
	.st11{fill:#164F07;}
	.st12{fill:#0C3301;}
	.st13{fill:#470202;}
	.st14{fill:#560505;}
</style>
<g>
	<polygon class="st0" points="38.28,15.05 32.92,35.88 76.04,53.63 81.92,29.27 	"/>
	<polygon class="st1" points="63.22,48.97 74.32,52.96 62.47,59.07 	"/>
	<path class="st2" d="M41.64,40.62c0.07,1.06-1.25,2.74,0.25,3.87s1.37,2.62,1.37,3.74s-2.24,2.62-1.37,3.74s1.17,1.84,3.12,0.37
		c1.95-1.47,3.24-2.62,7.48-3.49s6.11-1.25,6.86-1.87c0.75-0.62,2.12-1.5,0.25-3.24c-1.87-1.75-2.99-2.37-4.49-3.99
		c-1.5-1.62-2.24-3.24-2.62-3.87c-0.37-0.62-1.75-1.62-2.87-1.5S41.39,36.75,41.64,40.62z"/>
	<path class="st3" d="M44.51,57.58c-0.5,1.25-1.37,3.62-1.37,4.61s1.87,2.62,2.74,3.37c0.87,0.75,4.49,0.62,6.36,0
		c1.87-0.62,7.98-4.12,8.6-4.74c0.62-0.62,2.12-1.25,2-2.62c-0.12-1.37-0.5-6.36-1-7.61c-0.5-1.25-0.62-2.37-1.87-2.37
		c-1.25,0-6.28-0.15-7.48,0.62c-1.2,0.77-4.86,2.24-5.49,2.74c-0.62,0.5-3.12,2.37-3.12,2.37l-1,2.49L44.51,57.58z"/>
	<path class="st4" d="M19.95,56.08c-0.25-1.75-0.75-6.86,1.25-7.86s2.7-2.81,3.74-3.62s2.37-3.12,4.36-3.49s4.86-0.75,6.98,0.12
		s2.12,0.37,3.87,2.62c1.75,2.24,3.37,3.99,3.12,5.49c-0.25,1.5-1.5,2.49-0.75,4.49c0.75,2,1.12,7.23,0.62,8.36
		c-0.5,1.12-2.12,2.24-3.37,1.75S19.95,56.08,19.95,56.08z"/>
	<path class="st2" d="M5.65,52.03c3.2,0.56,8.06,2.05,10.31,2.68c2.24,0.62,2.49,0.37,2.74-2c0.25-2.37,1.5-5.49,4.12-7.36
		c2.62-1.87,4.86-1.5,3.12-4.61c-1.75-3.12-1.37-4.24-3.87-5.24s-10.35,0.37-11.35,1.37s-2.62,3.37-2.74,3.99
		C7.85,41.49,5.65,52.03,5.65,52.03z"/>
	<path class="st5" d="M6.35,20.29c-0.75,1.12,0,4.36,1.37,4.86c1.37,0.5,3.02,0.4,4.24,0.12s2.12-0.62,3.37,1.25
		s2.37,4.36,3.37,5.36c1,1,5.99,1.37,7.11,0.62c1.12-0.75,2.49-2.99,0.62-5.86c-1.87-2.87-5.99-8.23-6.11-9.23
		c-0.12-1-0.37-3.87-1.25-4.74c-0.87-0.87-2.31-1.53-3.62-1c-1.31,0.53-1.98,2.39-2.99,3.37s-2.55,2.91-3.87,2.99
		C7.28,18.13,6.35,20.29,6.35,20.29z"/>
	<path class="st3" d="M19.2,36.25c0,0,5.36,0.62,8.11,5.36c7.23-0.12,11.85,1.5,12.84,2.24c1,0.75,1.25-3.87,2.62-5.99
		s3.49-3.99,2.62-4.74c-0.87-0.75-4.74-1.12-6.61-1.87s-2.74-1.87-4.61-2.24c-1.87-0.37-4.74-1-6.24-0.37
		c-1.5,0.62-4.49,1.87-5.49,2.87C21.44,32.51,19.2,36.25,19.2,36.25z"/>
	<polygon class="st6" points="49.27,92.5 5.65,77.88 5.65,52.03 49.27,66.65 	"/>
	<polygon class="st7" points="76.04,53.63 49.27,66.65 49.27,92.5 76.04,79.48 	"/>
	<path class="st1" d="M79.36,19.8L41.14,6.99C39.77,6.53,38.35,7.55,38.35,9v5.48l43.62,14.62v-5.66
		C81.97,21.78,80.92,20.32,79.36,19.8z"/>
	<g>
		<g>
			<path class="st8" d="M20.86,7.26c-0.08,0-0.16,0-0.24-0.01c-1.37-0.13-2.38-1.35-2.25-2.73l0.17-1.8
				c0.13-1.37,1.34-2.39,2.73-2.25c1.37,0.13,2.38,1.35,2.25,2.73L23.35,5C23.23,6.29,22.14,7.26,20.86,7.26z"/>
			<path class="st8" d="M11.43,7.73c-0.93,0-1.82-0.52-2.25-1.42L7.86,3.58c-0.6-1.24-0.07-2.74,1.17-3.34
				c1.25-0.6,2.74-0.07,3.34,1.17l1.31,2.73c0.6,1.24,0.07,2.74-1.17,3.34C12.16,7.65,11.79,7.73,11.43,7.73z"/>
			<path class="st8" d="M4.45,13.76c-0.39,0-0.78-0.09-1.14-0.28l-1.95-1c-1.23-0.63-1.71-2.14-1.08-3.37
				C0.91,7.88,2.41,7.4,3.64,8.03l1.95,1c1.23,0.63,1.71,2.14,1.08,3.37C6.23,13.26,5.36,13.76,4.45,13.76z"/>
		</g>
		<g>
			<path class="st9" d="M20.21,34.98c-0.7,0-1.4-0.29-1.9-0.87L13.07,28c-1.05,0.46-2.19,0.66-3.36,0.57c-1.87-0.14-3.58-1-4.8-2.43
				c-2.53-2.94-2.19-7.39,0.75-9.92c1.63-1.4,2.87-1.72,3.7-1.94c0.16-0.04,0.26-0.07,0.33-0.09c0.38-1.02,0.94-2.25,2.85-3.88
				c2.94-2.53,7.39-2.19,9.92,0.75c1.83,2.13,2.17,5.06,1.06,7.49l5.81,6.75c0.9,1.05,0.78,2.62-0.26,3.53
				c-1.05,0.9-2.63,0.78-3.53-0.26l-7.03-8.18c-0.84-0.97-0.8-2.42,0.08-3.35c0.72-0.76,0.76-1.93,0.08-2.71
				c-0.73-0.85-2.01-0.94-2.87-0.21c-1.09,0.94-1.26,1.4-1.42,1.84c-0.19,0.51-0.47,1.28-1.28,1.98c-0.94,0.81-1.83,1.04-2.48,1.21
				c-0.57,0.15-0.95,0.25-1.69,0.89c-0.85,0.73-0.95,2.02-0.22,2.87c0.35,0.41,0.85,0.66,1.39,0.7c0.5,0.04,0.98-0.11,1.38-0.41
				c0.08-0.09,0.14-0.17,0.21-0.25c0.49-0.51,1.15-0.8,1.88-0.78c0.71,0.02,1.37,0.33,1.83,0.87l6.72,7.82
				c0.9,1.05,0.78,2.63-0.27,3.53C21.37,34.78,20.79,34.98,20.21,34.98z M9.82,14.14C9.82,14.14,9.82,14.14,9.82,14.14
				C9.82,14.14,9.82,14.14,9.82,14.14z"/>
		</g>
		<path class="st10" d="M5.65,54.53c-1.38,0-2.5-1.12-2.5-2.5c0-7.9,0.51-10.49,2.61-13.19c1.53-1.97,6.56-5.97,12.3-5.76
			c3.06,0.11,7.54,1.49,11.48,7.39c0.77,1.15,0.46,2.7-0.69,3.47c-1.15,0.77-2.7,0.46-3.47-0.69c-2.22-3.33-4.74-5.07-7.5-5.17
			c-3.82-0.16-7.37,2.8-8.17,3.83c-1.08,1.39-1.55,2.77-1.55,10.12C8.15,53.42,7.03,54.53,5.65,54.53z"/>
		<path class="st10" d="M41.67,66.6c-0.76,0-1.51-0.34-2-1c-0.83-1.1-0.61-2.67,0.5-3.5c2.34-1.76,0.48-6.47,0.05-7.26
			c-1.22-2.21-1.23-4.24-0.01-6.93c-0.72-1.54-5.36-4.95-7.8-5.03c-2.72-0.08-4.24,2.14-4.25,2.17c-0.39,0.69-0.87,1.16-1.25,1.54
			c-0.29,0.29-0.54,0.54-0.81,0.93c-0.51,0.73-1.24,1.42-2.01,2.15c-0.71,0.67-1.45,1.37-1.92,2.01c-0.23,0.69,0.12,2.85,0.23,3.57
			c0.15,0.93,0.23,1.44,0.15,2c-0.21,1.36-1.48,2.3-2.85,2.09c-1.27-0.19-2.17-1.31-2.12-2.56c-0.02-0.18-0.06-0.43-0.11-0.73
			c-0.42-2.62-0.73-5.34,0.57-7.17c0.75-1.07,1.74-2.01,2.62-2.83c0.53-0.5,1.13-1.07,1.35-1.38c0.53-0.75,1.02-1.24,1.38-1.6
			c0.24-0.24,0.38-0.38,0.44-0.48c0.77-1.35,3.85-4.81,8.75-4.68c3.74,0.11,9.71,3.81,11.84,7.32c1.22,2.02,0.94,3.56,0.48,4.5
			c-0.84,1.73-0.63,2.1-0.29,2.71c1.28,2.31,3.77,9.79-1.41,13.68C42.72,66.44,42.19,66.6,41.67,66.6z M17.59,56.49
			C17.59,56.49,17.59,56.49,17.59,56.49C17.59,56.49,17.59,56.49,17.59,56.49z"/>
		<path class="st10" d="M60.87,50.1c-0.51,0-1.03-0.16-1.47-0.48c-1.12-0.81-1.36-2.38-0.54-3.49c0.17-0.23,0.17-0.45-0.18-1.52
			c-0.05-0.15-0.1-0.3-0.14-0.45c-0.56-0.47-2.33-1.14-3.11-1.43c-2.37-0.89-3.5-3.11-4.41-4.88c-0.18-0.35-0.36-0.7-0.55-1.04
			c-0.38-0.2-2.04,0.09-2.74,0.21l-0.11,0.02c-0.98,0.17-3.11,1.52-3.57,3.84c-0.27,1.35-1.59,2.23-2.94,1.96
			c-1.35-0.27-2.23-1.59-1.96-2.94c0.87-4.34,4.57-7.25,7.6-7.78l0.11-0.02c2.14-0.38,6.11-1.08,7.98,2.28
			c0.22,0.39,0.43,0.8,0.63,1.2c0.51,1.01,1.15,2.26,1.71,2.48c2.41,0.91,5.41,2.04,6.09,4.54c0.04,0.16,0.1,0.34,0.16,0.51
			c0.41,1.27,1.16,3.65-0.55,5.99C62.4,49.75,61.64,50.1,60.87,50.1z M58.46,43.89C58.46,43.89,58.46,43.89,58.46,43.89
			C58.46,43.89,58.46,43.89,58.46,43.89z"/>
		<path class="st8" d="M30.53,37.32c-0.61,0-1.21-0.22-1.69-0.66c-0.35-0.32-0.57-0.67-0.72-0.93c-0.43-0.48-0.68-1.12-0.64-1.81
			c0.08-1.38,1.24-2.43,2.63-2.36c0.69,0.04,1.64,0.35,2.31,1.62c0.82,0.95,0.82,2.39-0.05,3.33C31.87,37.05,31.2,37.32,30.53,37.32
			z M29.83,36.55C29.83,36.55,29.83,36.55,29.83,36.55C29.83,36.55,29.83,36.55,29.83,36.55z M29.83,36.55
			C29.83,36.55,29.83,36.55,29.83,36.55S29.83,36.55,29.83,36.55z M32.22,32.98C32.22,32.98,32.23,32.98,32.22,32.98
			C32.23,32.98,32.22,32.98,32.22,32.98z"/>
		<path class="st8" d="M48.3,44.25c-0.13,0-0.26-0.01-0.4-0.03c-0.64-0.1-1.19-0.44-1.56-0.91c-0.78-0.62-1.14-1.68-0.82-2.69
			c0.41-1.31,1.8-2.05,3.11-1.65c1.46,0.44,2.36,1.78,2.14,3.18C50.57,43.38,49.51,44.25,48.3,44.25z M47.15,43.74L47.15,43.74
			L47.15,43.74z M45.83,41.36C45.83,41.36,45.83,41.36,45.83,41.36C45.83,41.36,45.83,41.36,45.83,41.36z"/>
		<path class="st8" d="M28.59,54.75c-0.65,0-1.28-0.21-1.8-0.61c-0.94-0.73-1.16-1.76-1.2-2.17c-0.16-1.37,0.82-2.61,2.19-2.77
			c0.91-0.11,1.76,0.29,2.28,0.97c0.57,0.38,0.99,1,1.09,1.73c0.19,1.37-0.76,2.63-2.13,2.83C28.88,54.74,28.74,54.75,28.59,54.75z"
			/>
		<path class="st8" d="M50.98,59.68c-0.59,0-1.17-0.2-1.66-0.59c-0.11-0.09-0.3-0.22-0.31-0.22l2.77-4.05
			c-0.57-0.2-1.21-0.19-1.76,0.07c0.83-0.39,1.56-0.28,2.02-0.12c1.3,0.46,1.99,1.89,1.53,3.19c-0.31,0.88-1.06,1.48-1.92,1.63
			C51.43,59.65,51.2,59.68,50.98,59.68z M50.39,59.49L50.39,59.49L50.39,59.49z M52.41,55.16C52.41,55.16,52.41,55.16,52.41,55.16
			C52.41,55.16,52.41,55.16,52.41,55.16z"/>
		<path class="st11" d="M76.04,56.13c-0.19,0-0.39-0.02-0.59-0.07c-1.34-0.32-2.17-1.68-1.84-3.02L79,30.74L40.14,17.71l-2.86,11.83
			c-0.32,1.34-1.67,2.17-3.02,1.84c-1.34-0.32-2.17-1.68-1.84-3.02l3.5-14.47c0.16-0.68,0.61-1.26,1.22-1.6
			c0.61-0.34,1.34-0.41,2-0.18l43.62,14.62c1.23,0.41,1.94,1.7,1.64,2.96l-5.93,24.54C78.2,55.36,77.17,56.13,76.04,56.13z"/>
		<path class="st11" d="M76.04,56.13c-0.27,0-0.54-0.04-0.79-0.13l-13.39-4.49c-1.31-0.44-2.01-1.86-1.58-3.17
			c0.44-1.31,1.86-2.01,3.17-1.58l10.8,3.62L79,30.74L37.56,16.85c-1.31-0.44-2.01-1.86-1.58-3.17c0.44-1.31,1.86-2.01,3.17-1.58
			l43.62,14.62c1.23,0.41,1.94,1.7,1.64,2.96l-5.93,24.54c-0.16,0.68-0.61,1.26-1.22,1.6C76.88,56.03,76.46,56.13,76.04,56.13z"/>
		<path class="st12" d="M81.97,31.59c-0.27,0-0.54-0.04-0.79-0.13L37.56,16.85c-1.02-0.34-1.71-1.3-1.71-2.37V9
			c0-1.48,0.72-2.88,1.92-3.75c1.2-0.87,2.76-1.1,4.16-0.63l38.21,12.8l0,0c2.59,0.87,4.32,3.28,4.32,6.01v5.66
			c0,0.8-0.39,1.56-1.04,2.03C83,31.43,82.49,31.59,81.97,31.59z M40.85,12.68l38.62,12.94v-2.19c0-0.57-0.37-1.08-0.91-1.27
			L40.85,9.53V12.68z"/>
		<path class="st10" d="M20.39,38.08c-0.12,0-0.24-0.01-0.36-0.03c-1.37-0.2-2.31-1.47-2.11-2.83c0.24-1.62,2.52-5.17,4.28-6.67
			c2.48-2.1,8.13-2.53,9.51-2.53c2.54,0,4.22,0.44,6.44,1.69c0.86,0.48,1.39,0.94,1.77,1.27c0.46,0.39,0.55,0.47,1.45,0.6
			c3.61,0.5,5.85,2.96,6.41,5.04c0.36,1.33-0.43,2.71-1.76,3.06c-1.33,0.36-2.71-0.43-3.06-1.76c-0.05-0.18-0.66-1.16-2.27-1.39
			c-2.17-0.3-3.07-0.94-4.01-1.75c-0.3-0.26-0.55-0.47-0.98-0.71c-1.48-0.83-2.3-1.05-3.99-1.05c-2.33,0-5.62,0.78-6.28,1.35
			c-1,0.85-2.35,3.07-2.59,3.73C22.59,37.26,21.56,38.08,20.39,38.08z M22.86,35.94c-0.01,0.04-0.01,0.07-0.02,0.11
			C22.85,36.01,22.86,35.97,22.86,35.94z"/>
		<path class="st10" d="M64.26,61.86c-1.31,0-2.42-1.03-2.49-2.35c-0.06-0.99-0.08-1.85-0.1-2.6c-0.03-1.34-0.06-2.39-0.29-2.86
			c-0.33-0.66-0.45-1.38-0.57-2.08c-0.36-2.1-0.57-2.16-1.69-2.13c-2.5,0.06-3.7,0.67-4.86,1.26c-0.72,0.36-1.46,0.74-2.39,0.96
			c-1.89,0.45-2.26,0.54-4.07,1.18c-0.06,0.05-0.29,0.38-0.45,0.59c-0.69,0.96-2.3,3.21-5.66,2.2c-1.32-0.4-2.07-1.79-1.68-3.11
			c0.39-1.3,1.75-2.05,3.05-1.7c0.08-0.1,0.16-0.22,0.23-0.31c0.53-0.74,1.33-1.86,2.84-2.39c2.04-0.72,2.59-0.86,4.59-1.33
			c0.35-0.08,0.76-0.29,1.27-0.55c1.42-0.72,3.36-1.7,6.99-1.8c5.62-0.16,6.44,4.52,6.74,6.28c0.05,0.27,0.11,0.65,0.15,0.77
			c0.7,1.38,0.73,2.93,0.78,4.9c0.02,0.71,0.04,1.51,0.09,2.43c0.08,1.38-0.97,2.56-2.35,2.64C64.35,61.86,64.31,61.86,64.26,61.86z
			"/>
		<path class="st13" d="M49.27,95c-0.46,0-0.92-0.13-1.33-0.38c-0.73-0.46-1.17-1.26-1.17-2.12V66.65c0-0.96,0.55-1.83,1.41-2.25
			l26.77-13.02c0.77-0.38,1.69-0.33,2.42,0.13c0.73,0.46,1.17,1.26,1.17,2.12v25.85c0,0.96-0.55,1.83-1.41,2.25L50.36,94.75
			C50.02,94.92,49.64,95,49.27,95z M51.77,68.22V88.5l21.77-10.59V57.63L51.77,68.22z"/>
		<path class="st14" d="M49.27,95c-0.27,0-0.54-0.04-0.79-0.13L4.86,80.25c-1.02-0.34-1.71-1.3-1.71-2.37V52.03
			c0-0.8,0.39-1.56,1.04-2.03c0.65-0.47,1.49-0.6,2.25-0.34l43.62,14.62c1.02,0.34,1.71,1.3,1.71,2.37V92.5
			c0,0.8-0.39,1.56-1.04,2.03C50.3,94.84,49.79,95,49.27,95z M8.15,76.09l38.62,12.94V68.45L8.15,55.51V76.09z"/>
	</g>
</g>
</svg>
