<?xml version="1.0" encoding="UTF-8"?><svg id="Layer_2" xmlns="http://www.w3.org/2000/svg" viewBox="0 0 84.99 63.32"><defs><style>.cls-1{fill:#324266;}</style></defs><g id="Layer_1-2"><path class="cls-1" d="m71.73,63.32H12.85c-1.38,0-2.5-1.12-2.5-2.5,0-4.44-3.49-8.05-7.95-8.23-1.34-.06-2.4-1.16-2.4-2.5V13.23c0-1.34,1.06-2.45,2.4-2.5,4.45-.18,7.94-3.79,7.94-8.23,0-1.38,1.12-2.5,2.5-2.5h58.89c.66,0,1.3.26,1.77.73.47.47.73,1.11.73,1.77,0,2.21.86,4.29,2.42,5.85s3.64,2.42,5.84,2.42h0c.66,0,1.3.26,1.77.73.47.47.73,1.1.73,1.77v36.77c0,.66-.26,1.3-.73,1.77s-1.1.73-1.77.73h0c-2.21,0-4.28.86-5.84,2.42-1.56,1.56-2.42,3.64-2.42,5.85,0,.66-.26,1.3-.73,1.77-.47.47-1.11.74-1.77.74Zm-56.62-5h54.35c.49-2.59,1.75-4.98,3.65-6.88,1.91-1.91,4.29-3.16,6.88-3.65V15.55c-2.59-.49-4.98-1.75-6.88-3.65-1.9-1.91-3.16-4.3-3.65-6.89H15.11c-.98,5.17-4.96,9.27-10.11,10.41v32.48c5.15,1.15,9.13,5.25,10.11,10.42Z"/><path class="cls-1" d="m62.5,51.01H22.5c-3.92,0-7.11-3.19-7.11-7.11v-24.47c0-3.92,3.19-7.11,7.12-7.11h40c3.92,0,7.11,3.19,7.12,7.11v24.46c0,3.92-3.21,7.12-7.13,7.12Zm-40-5h40c1.17,0,2.12-.95,2.12-2.12v-24.46c0-1.17-.95-2.11-2.12-2.11H22.5c-1.17,0-2.12.95-2.12,2.11v24.46c0,1.17.96,2.12,2.12,2.12h0Z"/><path class="cls-1" d="m31.91,24.06c-.51-.34-1.18-.37-1.88-.09l-3.23,1.1c-1.32.41-1.66,1.47-1.41,2.28.28.92,1.31,1.65,2.59,1.27l.71-.26v9.53c0,.99.84,1.7,2,1.7,1.01,0,2.04-.58,2.04-1.7v-11.96c0-1.1-.45-1.62-.82-1.87Z"/><path class="cls-1" d="m44.89,35.76h-2.67c-.4,0-.83.02-1.27.04.9-.57,1.76-1.19,2.82-2.03,2.2-1.99,3.02-4.47,2.18-6.64-.8-2.09-3.01-3.39-5.77-3.39-2.47,0-4.47,1.05-5.49,2.91-.57,1.19-.09,2.15.63,2.56.79.46,2,.36,2.65-.59.5-.74,1.37-1.21,2.21-1.21,1.02,0,1.7.37,1.91,1.04.28.85-.23,1.97-1.19,2.67l-.03.02c-.77.65-1.51,1.23-2.23,1.8-1.38,1.09-2.69,2.12-4.06,3.48-.6.58-.8,1.33-.53,1.99.28.69,1,1.11,1.89,1.11h8.93c.74,0,1.19-.31,1.44-.56.31-.33.48-.77.48-1.25,0-.95-.66-1.95-1.9-1.95Z"/><path class="cls-1" d="m58.24,30.89c-.75-.7-1.73-1.16-2.8-1.33l2.89-2.5c.62-.58.83-1.38.55-2.11-.29-.75-1.02-1.21-1.9-1.21h-7.05c-1.24,0-1.91.96-1.91,1.86,0,.47.17.92.49,1.24.24.26.69.56,1.42.56h2.59l-2.56,2.19c-.71.51-.97,1.42-.64,2.21.28.65,1.08,1.33,2.36,1.11h.13c1.05-.11,2.79-.28,3.5.37.22.2.33.49.33.87,0,1.44-1.24,1.74-2.29,1.74-.93,0-1.74-.33-2.22-.91-.88-1.06-2.19-.97-2.99-.36-.79.61-.92,1.62-.32,2.44,1.08,1.56,2.95,2.46,5.13,2.46,4.96,0,6.72-2.89,6.72-5.37.02-1.23-.5-2.39-1.43-3.26Z"/></g></svg>