<svg 
 xmlns="http://www.w3.org/2000/svg"
 xmlns:xlink="http://www.w3.org/1999/xlink"
 width="22px" height="15px">
<path fill-rule="evenodd"  fill="rgb(50, 66, 102)"
 d="M20.745,2.547 C20.508,1.655 19.806,0.952 18.916,0.714 C17.300,0.281 10.825,0.281 10.825,0.281 C10.825,0.281 4.350,0.281 2.736,0.714 C1.844,0.952 1.143,1.655 0.905,2.547 C0.472,4.165 0.472,7.539 0.472,7.539 C0.472,7.539 0.472,10.913 0.905,12.530 C1.143,13.423 1.844,14.125 2.736,14.364 C4.350,14.797 10.825,14.797 10.825,14.797 C10.825,14.797 17.300,14.797 18.916,14.364 C19.806,14.125 20.508,13.423 20.745,12.530 C21.178,10.913 21.178,7.539 21.178,7.539 C21.178,7.539 21.178,4.165 20.745,2.547 ZM8.754,10.650 L8.754,4.428 L14.134,7.539 L8.754,10.650 Z"/>
</svg>