<svg xmlns="http://www.w3.org/2000/svg" width="30" height="29" viewBox="0 0 30 29">
  <g id="ICON_arlam" data-name="ICON arlam" transform="translate(-66.699 -294.323)">
    <path id="Ellipse_3" data-name="Ellipse 3" d="M85.679,321a3.542,3.542,0,0,1-7,0" transform="translate(-0.032 -0.677)" fill="#aaa"/>
    <g id="Group_57" data-name="Group 57" transform="translate(66.699 294.323)">
      <g id="Rectangle_37" data-name="Rectangle 37" transform="translate(11.95)">
        <path id="패스_77" data-name="패스 77" d="M82.679,296.323h2v-1a.945.945,0,0,0-1-1h-4a.945.945,0,0,0-1,1v3h2v-2Z" transform="translate(-78.679 -294.323)" fill="#aaa"/>
      </g>
      <g id="그룹_44" data-name="그룹 44" transform="translate(3.98 3)">
        <path id="패스_78" data-name="패스 78" d="M80.679,297.323a11.094,11.094,0,0,0-10,10v9h2v-8.8a9.014,9.014,0,0,1,8-8.1Z" transform="translate(-70.679 -297.323)" fill="#aaa"/>
        <rect id="사각형_2284" data-name="사각형 2284" width="2" height="4" transform="translate(19.939 15)" fill="#aaa"/>
      </g>
      <path id="패스_79" data-name="패스 79" d="M96.618,320.323l-2.2-4.2c-.3-.4-.6-.8-1.2-.8H90.63v2h2.2l1,2H69.374l.9-2H87.637v-2H69.873c-.6,0-.8.2-1.2.8l-1.9,4.2c-.3.5.3,1,.8,1H95.82C96.319,321.323,96.918,320.923,96.618,320.323Z" transform="translate(-66.699 -295)" fill="#aaa"/>
      <path id="패스_80" data-name="패스 80" d="M76.679,306.823h-2a5.121,5.121,0,0,1,5.1-5.1v2A3.116,3.116,0,0,0,76.679,306.823Z" transform="translate(-66.718 -294.552)" fill="#aaa"/>
    </g>
    <g id="그룹_45" data-name="그룹 45" transform="translate(81.618 296.323)">
      <g id="Ellipse_1" data-name="Ellipse 1">
        <path id="패스_81" data-name="패스 81" d="M89.179,311.323a7.5,7.5,0,1,1,7.5-7.5A7.555,7.555,0,0,1,89.179,311.323Zm0-13a5.5,5.5,0,1,0,5.5,5.5A5.549,5.549,0,0,0,89.179,298.323Z" transform="translate(-81.679 -296.323)" fill="#aaa"/>
      </g>
      <path id="패스_82" data-name="패스 82" d="M90.479,306.623l-1.8-1.8a.908.908,0,0,1-.3-.7v-2.9h2v2.5l1.5,1.5Z" transform="translate(-81.679 -296.323)" fill="#aaa"/>
    </g>
  </g>
</svg>
