<svg xmlns="http://www.w3.org/2000/svg" width="60" height="60" viewBox="0 0 60 60">
    <g fill="none" fill-rule="evenodd">
        <g fill="#FFF">
            <path d="M32.389 47.907c-.586 0-1.062-.48-1.062-1.07 0-6.026-3.956-7.843-3.996-7.861-.537-.238-.782-.868-.546-1.409.235-.54.862-.785 1.398-.55.215.096 5.267 2.412 5.267 9.82 0 .59-.475 1.07-1.061 1.07m25.218-26.378c-.96-.95-2.076-1.45-3.098-1.383-1.05.056-2.038.645-2.935 1.747-1.098 1.35-2.676 3.439-3.828 4.965-1.01 1.336-1.503 1.988-1.692 2.198-.351.388-.931.462-1.367.176-.436-.288-.6-.853-.387-1.332.038-.085 3.778-8.504 4.877-11.85 1.84-5.607.627-7.232-2.09-8.145-1.375-.461-2.504-.433-3.453.086-1.405.768-2.505 2.664-3.27 5.635-1.087 4.218-3.031 9.927-3.05 9.984-.177.514-.707.811-1.234.697-.528-.118-.883-.616-.826-1.158.009-.084.898-8.573 1.072-12.743.123-2.977-.388-5.07-1.521-6.218-.845-.855-2.072-1.244-3.76-1.181-1.417.05-2.462.465-3.194 1.266-1.056 1.155-1.524 3.217-1.39 6.13.14 3.064 1.426 12.603 1.439 12.7.075.554-.288 1.073-.832 1.19-.541.115-1.084-.21-1.239-.748-.284-.982-.749-2.232-1.288-3.678-.716-1.925-1.528-4.107-2.23-6.491-.932-3.163-2.207-5.171-3.79-5.97-1.042-.524-2.233-.526-3.642-.004-1.468.546-2.477 1.44-2.999 2.655-.744 1.732-.522 4.116.643 6.895.576 1.374 1.27 3.015 1.997 4.737 2.271 5.376 4.846 11.47 5.305 12.859.124.374.033.787-.236 1.073-.27.287-.673.4-1.05.296-1.689-.466-4.265-1.398-6.95-3.188-1.901-1.27-4.355-1.378-6.564-.287-1.726.85-2.905 2.259-3.005 3.588-.2 2.662 1.073 4.182 4 6.58.843.692 1.511 1.35 2.219 2.045 1.123 1.105 2.285 2.246 4.32 3.68 1.336.938 2.687 1.547 3.995 2.137 1.124.507 2.186.985 3.205 1.646 1.576 1.023 2.265 2.445 2.557 3.344 1.577.168 5.554.538 9.992.538 4.289 0 7.423-.386 8.72-.579.218-.692.657-1.76 1.511-2.874.048-.064 5.609-7.577 6.264-14.65.003-.031.007-.062.013-.094.208-1.14 1.794-2.855 5.364-6.495 1.283-1.308 2.61-2.66 3.58-3.762 2.63-2.985.334-5.536-.153-6.017" transform="translate(-213 -67) translate(213 67)"/>
        </g>
    </g>
</svg>
