<svg xmlns="http://www.w3.org/2000/svg" width="60" height="60" viewBox="0 0 60 60">
    <g fill="none" fill-rule="evenodd">
        <g fill="#FFF">
            <path d="M55.746 24.516c-.383 2.299-1.163 3.818-2.318 4.515-1.14.69-2.846.684-5.066-.013-.47-.148-.845-.35-1.182-.58.02-.036.043-.064.062-.1 1.462-2.802 2.664-9.603 2.48-14.012.763-.119 1.653-.078 2.663.13 3.344.686 4.087 5.696 3.361 10.06M45.03 49.544c-1.108 1.438-1.678 2.816-1.96 3.71-1.684.249-5.751.746-11.317.746-5.876 0-11.13-.497-13.087-.708-.436-.979-1.34-2.61-3.009-4.156C10.521 44.382 5.026 37.382 5 31.996c-.02-4.35 1.734-7.1 5.864-9.198 3.41-1.734 8.79-2.873 12.547-1.281l.813.342c4.58 1.92 7.356 3.287 6.748 7.043-.323 1.992-1.266 3.513-2.804 4.52-2.305 1.507-5.815 1.758-9.885.704-.735-.186-1.489.252-1.679.992-.19.738.252 1.49.989 1.681 4.208 1.09 8.005.94 10.873-.398.005.013.003.027.01.04.77 1.658 1.16 3.585 1.16 5.732 0 .762.617 1.38 1.378 1.38.76 0 1.377-.618 1.377-1.38 0-2.553-.478-4.873-1.42-6.898-.063-.138-.158-.246-.257-.35.614-.543 1.15-1.157 1.588-1.846.023-.004.045-.002.067-.008.986-.254 1.854-.672 2.609-1.24.108.062.214.13.341.162 1.455.364 3.13.691 4.798.691 1.976 0 3.932-.48 5.501-1.878.582.424 1.254.767 2.02 1.01 1.378.442 2.622.663 3.743.663.548 0 1.06-.066 1.551-.171-1.48 8.602-7.845 17.159-7.903 17.236M10.383 14.518c.086-2.587 2.03-5.444 6.091-5.598 2.239-.087 5.051.414 5.782 3.237-.2 2.341-.14 4.549-.057 5.953-3.79-.756-8.144.067-11.52 1.5-.175-1.184-.365-3.007-.296-5.092M30.86 7.001L31.01 7c3.135 0 4.854 1.8 5.254 5.494.53 4.893-.19 11.928-1.138 14.49-.342.922-.792 1.638-1.364 2.179.96-6.011-4.234-8.17-8.41-9.904l-.26-.109c-.081-.896-.291-3.754-.01-6.73.232-2.457 1.884-5.35 5.777-5.419M42.225 9.69c3.187.184 4.802 1.847 4.938 5.083.175 4.174-1.004 10.363-2.092 12.503-.945 1.859-2.573 3.395-7.86 2.268.255-.451.488-.931.681-1.462 1.174-3.221 1.793-10.872 1.274-15.744-.076-.713-.208-1.37-.374-1.995.967-.493 2.136-.73 3.433-.653" transform="translate(-50 -67) translate(50 67)"/>
        </g>
    </g>
</svg>
