<svg xmlns="http://www.w3.org/2000/svg" width="60" height="60" viewBox="0 0 60 60">
    <g fill="none" fill-rule="evenodd">
        <g fill="#FFF">
            <path d="M50.476 38.153c-.397.785-.822 1.415-1.268 1.902-.117.082-.22.182-.3.302-.442.407-.903.681-1.384.803-1.077.267-2.428-.136-4.018-1.211-.336-.228-.583-.475-.793-.735 2.04-1.703 4.528-6.896 5.496-10.515.639.087 1.33.33 2.081.732 2.486 1.333 1.839 5.456.186 8.722m-8.225 15.74c-.94 1.19-1.425 2.33-1.664 3.07-1.43.205-4.882.616-9.607.616-5.144 0-9.727-.437-11.257-.6-.406-.614-1.194-1.784-2.245-3.243-1.831-2.537-2.903-6.093-3.1-10.278-.09-1.902.085-4.044.253-6.115.264-3.245.514-6.309-.258-8.346-1.58-4.175-3.597-9.44-5.19-13.118-1.283-2.968-1.528-5.514-.708-7.363.576-1.298 1.687-2.253 3.305-2.836 1.55-.558 2.863-.556 4.011.004 1.744.853 3.148 2.997 4.175 6.375.774 2.546 1.669 4.877 2.458 6.932.593 1.545 1.105 2.88 1.418 3.929.151.506.633.867 1.176.821.539-.023.991-.405 1.095-.921.02-.103 2.045-10.225 2.857-13.429.766-3.022 1.902-4.99 3.377-5.85 1.02-.593 2.253-.699 3.768-.316 1.798.453 2.976 1.225 3.601 2.361.84 1.523.729 3.821-.33 6.832-1.484 4.222-5.48 13.996-5.52 14.094-.073.179-.082.363-.062.542l-.187.434c-3.737-.66-8.636-.093-11.76 1.454-.576.286-.806.974-.514 1.536.292.562.998.786 1.572.501 2.987-1.48 8.082-1.935 11.355-1.014 6.44 1.814 7.363 3.535 6.86 6.274-.329 1.791-1.023 2.99-2.185 3.772-1.955 1.318-5.34 1.51-10.345.585-1.62-.29-3.651.833-4.042 1.062-.553.325-.732 1.027-.4 1.567.22.357.607.554 1.004.554.205 0 .413-.054.601-.164.65-.381 1.812-.86 2.367-.773.04.158.107.311.218.446.985 1.19 1.484 2.736 1.484 4.594 0 .63.524 1.142 1.17 1.142.645 0 1.169-.512 1.169-1.142 0-1.74-.36-3.282-1.065-4.614 4.132.455 7.099.015 9.166-1.376.363-.244.689-.52.991-.82.271.269.57.523.912.755 1.687 1.14 3.219 1.703 4.646 1.703.382 0 .755-.048 1.122-.128-2 5.655-5.657 10.445-5.692 10.49m.904-31.06c2.579.931 3.494 2.655 2.797 5.269-.514 1.933-1.46 4.206-2.45 6.065-.484-3.139-3.378-4.81-7.595-6.104.348-.808.86-2.018 1.441-3.451.681-1.68 2.894-2.83 5.807-1.778" transform="translate(-135 -67) translate(135 67)"/>
        </g>
    </g>
</svg>
