<svg width="192" height="200" viewBox="0 0 192 200" fill="none" xmlns="http://www.w3.org/2000/svg">
<path d="M97.5218 129.463C119.11 129.463 134.442 112.07 136.61 90.3904C142.411 32.411 119.11 20.4941 97.5218 20.4941C75.9338 20.4941 52.6331 32.411 58.4333 90.3904C60.6021 112.07 75.9338 129.463 97.5218 129.463Z" fill="#000000"/>
<path d="M74.5283 84.4761C74.5283 91.6538 68.7097 95.9729 61.532 95.9729C54.3543 95.9729 48.5356 88.6547 48.5356 81.477C48.5356 74.2993 54.3543 69.9802 61.532 69.9802C68.7097 69.9802 74.5283 77.2985 74.5283 84.4761Z" fill="#000000"/>
<path d="M120.515 84.4761C120.515 91.6538 126.334 95.9729 133.512 95.9729C140.689 95.9729 146.508 88.6547 146.508 81.477C146.508 74.2993 140.689 69.9802 133.512 69.9802C126.334 69.9802 120.515 77.2985 120.515 84.4761Z" fill="#000000"/>
<path d="M83.1259 114.468H111.918L115.517 158.455L97.072 170.202L79.5269 158.455L83.1259 114.468Z" fill="#000000"/>
<path fill-rule="evenodd" clip-rule="evenodd" d="M116.101 143.122C115.047 143.014 114.186 142.195 114.1 141.14C114.011 140.05 113.1 139.211 112.007 139.211H83.0883C81.9657 139.211 81.0309 140.072 80.9393 141.191C80.8525 142.252 80.002 143.083 78.946 143.221C62.1634 145.41 48.0955 161.161 43.7512 183.296C43.2798 185.698 44.6755 187.947 46.5094 187.947H149.39C151.224 187.947 152.619 185.698 152.148 183.296C147.73 160.788 133.258 144.88 116.101 143.122Z" fill="#000000"/>
<path d="M121.466 140.797C121.357 140.466 121.08 140.208 120.722 140.142C119.52 139.918 118.261 139.758 117.017 139.701C116.465 139.675 116.021 140.126 115.988 140.677C115.471 149.322 108.296 156.172 99.522 156.172H95.5231C86.7487 156.172 79.5745 149.322 79.0576 140.677C79.0246 140.126 78.58 139.675 78.0285 139.701C76.7846 139.758 75.5248 139.918 74.3227 140.142C73.9655 140.208 73.688 140.466 73.5793 140.797C50.0398 142.346 34.111 158.793 28.0675 181.513C27.4286 183.915 29.3202 186.164 31.8057 186.164H163.239C165.725 186.164 167.616 183.915 166.977 181.513C160.934 158.793 145.005 142.346 121.466 140.797Z" fill="#000000"/>
<path d="M120.723 140.142C121.186 140.228 121.516 140.637 121.516 141.109V141.562C121.516 152.888 112.334 162.069 101.008 162.069H94.0371C82.711 162.069 73.5294 152.888 73.5294 141.562V141.109C73.5294 140.637 73.8588 140.228 74.3227 140.142C75.5248 139.918 76.7847 139.758 78.0285 139.701C78.58 139.675 79.0247 140.126 79.0576 140.677C79.5745 149.321 86.7488 156.172 95.5232 156.172H99.522C108.296 156.172 115.471 149.321 115.988 140.677C116.021 140.126 116.465 139.675 117.017 139.701C118.261 139.758 119.52 139.918 120.723 140.142Z" fill="#000000"/>
</svg>
