<svg width="82" height="20" viewBox="0 0 82 20" fill="none" xmlns="http://www.w3.org/2000/svg">
<path d="M21.9076 14.8473C21.9076 13.7428 22.2703 12.8691 22.9956 12.2262C23.7209 11.5833 24.7924 11.2618 26.2101 11.2618C26.7047 11.2618 27.2075 11.3113 27.7185 11.4102C28.246 11.5091 28.6746 11.641 29.0043 11.8058V8.51709C29.0043 7.8577 28.8395 7.38788 28.5098 7.10764C28.1801 6.81091 27.735 6.66255 27.1745 6.66255C26.6305 6.66255 26.1854 6.79442 25.8392 7.05818C26.1524 7.15709 26.3832 7.33018 26.5316 7.57745C26.6964 7.80824 26.7789 8.072 26.7789 8.36873C26.7789 8.89624 26.5893 9.32485 26.2101 9.65455C25.831 9.98424 25.3529 10.1491 24.776 10.1491C24.1495 10.1491 23.6467 9.96776 23.2676 9.60509C22.8884 9.24242 22.6989 8.77261 22.6989 8.19564C22.6989 7.61867 22.8967 7.07467 23.2923 6.56364C23.688 6.05261 24.2897 5.64048 25.0974 5.32727C25.9217 5.01406 26.9355 4.85745 28.1389 4.85745C29.7709 4.85745 31.0072 5.19539 31.848 5.87127C32.6887 6.53067 33.109 7.50327 33.109 8.78909V15.3418C33.109 16.1331 33.4882 16.6112 34.2465 16.776V17.5673C34.0322 17.864 33.6778 18.0948 33.1832 18.2596C32.6887 18.4245 32.1859 18.5069 31.6749 18.5069C30.5539 18.5069 29.7626 18.1195 29.301 17.3447C28.9219 17.6744 28.4603 17.9547 27.9163 18.1855C27.3723 18.3998 26.7541 18.5069 26.0618 18.5069C24.8254 18.5069 23.8198 18.169 23.045 17.4931C22.2867 16.8007 21.9076 15.9188 21.9076 14.8473ZM29.0043 13.7098C28.823 13.5944 28.6004 13.4955 28.3367 13.4131C28.0894 13.3307 27.8504 13.2895 27.6196 13.2895C27.158 13.2895 26.7789 13.4378 26.4821 13.7345C26.1854 14.0148 26.037 14.4269 26.037 14.9709C26.037 15.416 26.1854 15.7869 26.4821 16.0836C26.7789 16.3639 27.1745 16.504 27.669 16.504C27.9163 16.504 28.1554 16.471 28.3861 16.4051C28.6334 16.3227 28.8395 16.2238 29.0043 16.1084V13.7098Z" fill="black"/>
<path d="M40.6041 11.6822L41.7416 16.0095L42.879 11.6822L43.8434 8.31927C43.9093 8.05551 43.9423 7.8577 43.9423 7.72582C43.9423 7.37964 43.8269 7.12412 43.5961 6.95927C43.3818 6.77794 43.0686 6.68727 42.6565 6.68727C42.6565 6.01139 42.8131 5.51685 43.1263 5.20364H47.9234C48.2531 5.53333 48.4179 6.02788 48.4179 6.68727C48.0058 6.68727 47.6926 6.78618 47.4783 6.984C47.264 7.18182 47.0827 7.51152 46.9343 7.97309L44.3627 15.8611C44.0824 16.8337 43.7692 17.5178 43.423 17.9135C43.0768 18.3091 42.5493 18.5069 41.8405 18.5069H39.2688L35.3619 7.97309C35.1806 7.49503 34.9993 7.16533 34.8179 6.984C34.6366 6.78618 34.3399 6.68727 33.9278 6.68727C33.9278 6.04436 34.1008 5.54982 34.447 5.20364H40.0848C40.2662 5.38497 40.4063 5.61576 40.5052 5.896C40.6041 6.15976 40.6536 6.42352 40.6536 6.68727C40.3074 6.68727 40.0271 6.78618 39.8128 6.984C39.5985 7.16533 39.4914 7.43733 39.4914 7.8C39.4914 7.91539 39.5244 8.08848 39.5903 8.31927L40.6041 11.6822Z" fill="black"/>
<path d="M48.2528 14.8473C48.2528 13.7428 48.6154 12.8691 49.3408 12.2262C50.0661 11.5833 51.1376 11.2618 52.5553 11.2618C53.0499 11.2618 53.5526 11.3113 54.0637 11.4102C54.5912 11.5091 55.0198 11.641 55.3495 11.8058V8.51709C55.3495 7.8577 55.1846 7.38788 54.8549 7.10764C54.5252 6.81091 54.0802 6.66255 53.5197 6.66255C52.9757 6.66255 52.5306 6.79442 52.1844 7.05818C52.4976 7.15709 52.7284 7.33018 52.8768 7.57745C53.0416 7.80824 53.124 8.072 53.124 8.36873C53.124 8.89624 52.9345 9.32485 52.5553 9.65455C52.1762 9.98424 51.6981 10.1491 51.1211 10.1491C50.4947 10.1491 49.9919 9.96776 49.6128 9.60509C49.2336 9.24242 49.044 8.77261 49.044 8.19564C49.044 7.61867 49.2419 7.07467 49.6375 6.56364C50.0331 6.05261 50.6348 5.64048 51.4426 5.32727C52.2668 5.01406 53.2806 4.85745 54.484 4.85745C56.116 4.85745 57.3524 5.19539 58.1931 5.87127C59.0339 6.53067 59.4542 7.50327 59.4542 8.78909V15.3418C59.4542 16.1331 59.8334 16.6112 60.5917 16.776V17.5673C60.3774 17.864 60.0229 18.0948 59.5284 18.2596C59.0339 18.4245 58.5311 18.5069 58.02 18.5069C56.8991 18.5069 56.1078 18.1195 55.6462 17.3447C55.2671 17.6744 54.8055 17.9547 54.2615 18.1855C53.7175 18.3998 53.0993 18.5069 52.4069 18.5069C51.1706 18.5069 50.165 18.169 49.3902 17.4931C48.6319 16.8007 48.2528 15.9188 48.2528 14.8473ZM55.3495 13.7098C55.1682 13.5944 54.9456 13.4955 54.6819 13.4131C54.4346 13.3307 54.1956 13.2895 53.9648 13.2895C53.5032 13.2895 53.124 13.4378 52.8273 13.7345C52.5306 14.0148 52.3822 14.4269 52.3822 14.9709C52.3822 15.416 52.5306 15.7869 52.8273 16.0836C53.124 16.3639 53.5197 16.504 54.0142 16.504C54.2615 16.504 54.5005 16.471 54.7313 16.4051C54.9786 16.3227 55.1846 16.2238 55.3495 16.1084V13.7098Z" fill="black"/>
<path d="M66.702 7.42909V14.4022C66.702 14.8967 66.8009 15.2429 66.9987 15.4407C67.1966 15.6221 67.4768 15.7127 67.8395 15.7127C68.1527 15.7127 68.4824 15.6303 68.8286 15.4655C69.1747 15.3006 69.4467 15.0945 69.6446 14.8473C69.8094 14.9792 69.9248 15.177 69.9907 15.4407C70.0732 15.7045 70.1144 15.9435 70.1144 16.1578C70.1144 16.537 69.9825 16.9079 69.7187 17.2705C69.455 17.6332 69.0593 17.9299 68.5318 18.1607C68.0043 18.3915 67.3696 18.5069 66.6278 18.5069C65.4739 18.5069 64.5425 18.1772 63.8336 17.5178C63.1413 16.8584 62.7951 15.7622 62.7951 14.2291V7.42909H61.2373V5.92073C61.6659 5.85479 62.078 5.58279 62.4736 5.10473C62.8858 4.61018 63.232 4.00024 63.5122 3.27491C63.8089 2.53309 63.9985 1.79952 64.0809 1.07418C64.3776 1.02473 64.6496 1 64.8969 1C65.4904 1 65.9272 1.17309 66.2075 1.51927C66.5042 1.84897 66.6526 2.21988 66.6526 2.632V5.22836H69.5209C69.5209 5.72291 69.4962 6.15152 69.4467 6.51418C69.3973 6.86036 69.2901 7.16533 69.1253 7.42909H66.702Z" fill="black"/>
<path d="M79.4107 4.90691C80.1525 4.90691 80.6965 5.09648 81.0427 5.47564C81.3889 5.85479 81.5619 6.37406 81.5619 7.03345C81.5619 7.7423 81.3724 8.31927 80.9932 8.76436C80.6306 9.20945 80.136 9.432 79.5096 9.432C78.9656 9.432 78.5205 9.27539 78.1743 8.96218C77.8446 8.64897 77.6798 8.27806 77.6798 7.84945C77.6798 7.5857 77.7045 7.37964 77.7539 7.23127C77.1605 7.37964 76.6577 7.63515 76.2456 7.99782V15.416C76.2456 15.8281 76.3033 16.1413 76.4187 16.3556C76.5341 16.5699 76.7566 16.7348 77.0863 16.8502C77.4325 16.9491 77.9435 16.9985 78.6194 16.9985C78.6194 17.2953 78.5864 17.5508 78.5205 17.7651C78.4545 17.9629 78.3309 18.1525 78.1496 18.3338H71.5474C71.1682 17.9547 70.9787 17.5096 70.9787 16.9985C71.4567 16.9985 71.7947 16.8996 71.9925 16.7018C72.2068 16.4875 72.3139 16.1331 72.3139 15.6385V8.49236C72.3139 8.04727 72.1903 7.73406 71.943 7.55273C71.7122 7.37139 71.2919 7.28073 70.6819 7.28073V6.168C71.2259 5.85479 71.943 5.58279 72.8332 5.352C73.7399 5.10473 74.4405 4.98109 74.935 4.98109C75.3307 4.98109 75.6109 5.12121 75.7758 5.40146C75.9406 5.6817 76.023 6.24218 76.023 7.08291C76.3198 6.52242 76.7896 6.01964 77.4325 5.57455C78.0754 5.12945 78.7348 4.90691 79.4107 4.90691Z" fill="black"/>
<g clip-path="url(#clip0_20_1130)">
<path d="M8 19.7344C12.4183 19.7344 16 16.1527 16 11.7344C16 7.3161 12.4183 3.73438 8 3.73438C3.58172 3.73438 0 7.3161 0 11.7344C0 16.1527 3.58172 19.7344 8 19.7344Z" fill="#E97000"/>
<path d="M5.46484 10.5039C5.94809 10.5039 6.33984 10.1122 6.33984 9.62891C6.33984 9.14566 5.94809 8.75391 5.46484 8.75391C4.98159 8.75391 4.58984 9.14566 4.58984 9.62891C4.58984 10.1122 4.98159 10.5039 5.46484 10.5039Z" fill="white" stroke="white" stroke-width="0.845094"/>
<path d="M10.5377 10.5039C11.021 10.5039 11.4127 10.1122 11.4127 9.62891C11.4127 9.14566 11.021 8.75391 10.5377 8.75391C10.0545 8.75391 9.66272 9.14566 9.66272 9.62891C9.66272 10.1122 10.0545 10.5039 10.5377 10.5039Z" fill="white" stroke="white" stroke-width="0.845094"/>
<path fill-rule="evenodd" clip-rule="evenodd" d="M4.3678 13.4002C4.53504 13.31 4.74377 13.3724 4.83403 13.5396C5.43756 14.6579 6.63476 15.4215 8.0156 15.4215C9.39644 15.4215 10.5936 14.6579 11.1972 13.5396C11.2874 13.3724 11.4962 13.31 11.6634 13.4002C11.8306 13.4905 11.893 13.6992 11.8028 13.8665C11.082 15.2021 9.65529 16.1096 8.0156 16.1096C6.37591 16.1096 4.94925 15.2021 4.22842 13.8665C4.13817 13.6992 4.20057 13.4905 4.3678 13.4002Z" fill="white" stroke="white" stroke-width="0.845094" stroke-linecap="round"/>
</g>
<defs>
<clipPath id="clip0_20_1130">
<rect width="16" height="16" fill="white" transform="translate(0 3.73438)"/>
</clipPath>
</defs>
</svg>
