<svg width="24" height="24" viewBox="0 0 24 24" fill="none" xmlns="http://www.w3.org/2000/svg">
<path d="M2.02917 5.35295H5.46374M21.9709 5.35295H11.4637M11.4637 5.35295C11.4637 7.0098 10.1206 8.35295 8.46373 8.35295C6.80688 8.35295 5.46374 7.0098 5.46374 5.35295M11.4637 5.35295C11.4637 3.6961 10.1206 2.35295 8.46373 2.35295C6.80688 2.35295 5.46374 3.6961 5.46374 5.35295" stroke="black" stroke-width="1.7" stroke-linecap="round" stroke-linejoin="round"/>
<path d="M2.02917 18.6469H5.46374M21.9709 18.6469H11.4637M11.4637 18.6469C11.4637 20.3037 10.1206 21.6469 8.46373 21.6469C6.80688 21.6469 5.46374 20.3037 5.46374 18.6469M11.4637 18.6469C11.4637 16.99 10.1206 15.6469 8.46373 15.6469C6.80688 15.6469 5.46374 16.99 5.46374 18.6469" stroke="black" stroke-width="1.7" stroke-linecap="round" stroke-linejoin="round"/>
<path d="M21.9708 11.9999H18.4567M2.02914 11.9999H12.4567M12.4567 11.9999C12.4567 13.6568 13.7999 14.9999 15.4567 14.9999C17.1136 14.9999 18.4567 13.6568 18.4567 11.9999M12.4567 11.9999C12.4567 10.3431 13.7999 8.99992 15.4567 8.99992C17.1136 8.99992 18.4567 10.3431 18.4567 11.9999" stroke="black" stroke-width="1.7" stroke-linecap="round" stroke-linejoin="round"/>
</svg>
