<svg xmlns="http://www.w3.org/2000/svg" width="284.498" height="55.953" viewBox="0 0 284.498 55.953">
  <g id="그룹_36916" data-name="그룹 36916" transform="translate(-180 -1497)">
    <path id="사각형_33670" data-name="사각형 33670" d="M20,0H258a20,20,0,0,1,20,20v5a20,20,0,0,1-20,20H0a0,0,0,0,1,0,0V20A20,20,0,0,1,20,0Z" transform="translate(186.498 1497)" fill="#ffe853"/>
    <path id="패스_13157" data-name="패스 13157" d="M13438,1547.378s-1.365,12-6.627,14.733,14.942-1.263,17.89-10.944S13438,1547.378,13438,1547.378Z" transform="translate(-13250.503 -10)" fill="#ffe853"/>
    <text id="롯데GRS에_뼈를_묻을_인재구먼" data-name="롯데GRS에 뼈를 묻을 인재구먼" transform="translate(325 1528)" font-size="20" font-family="NotoSansKR-Regular, Noto Sans KR" letter-spacing="-0.05em"><tspan x="-118.99" y="0">롯데GRS에 뼈를 묻을 인재구먼</tspan></text>
  </g>
</svg>
