<?xml version="1.0" encoding="utf-8"?>
<!-- Generator: Adobe Illustrator 26.3.1, SVG Export Plug-In . SVG Version: 6.00 Build 0)  -->
<svg version="1.1" id="레이어_1" xmlns="http://www.w3.org/2000/svg" xmlns:xlink="http://www.w3.org/1999/xlink" x="0px"
	 y="0px" viewBox="0 0 284.5 56" style="enable-background:new 0 0 284.5 56;" xml:space="preserve">
<style type="text/css">
	.st0{fill:#FFE853;}
	.st1{enable-background:new    ;}
</style>
<g id="그룹_36916" transform="translate(-180 -1497)">
	<g id="사각형_33670">
		<path class="st0" d="M206.5,1497h238c11,0,20,9,20,20v5c0,11-9,20-20,20h-258l0,0v-25C186.5,1506,195.5,1497,206.5,1497z"/>
	</g>
	<g id="패스_13157">
		<path class="st0" d="M187.5,1537.4c0,0-1.4,12-6.6,14.7s14.9-1.3,17.9-10.9S187.5,1537.4,187.5,1537.4z"/>
	</g>
	<g class="st1">
		<path d="M223.3,1521.2v1.3H207v-1.3h7.3v-1.8h-5.2v-4.3h10.5v-1.8h-10.5v-1.3h12.1v4.3h-10.5v1.8h10.9v1.3H216v1.8H223.3z
			 M216.1,1523.8c0,2.3,2.7,3.9,6,4.3l-0.6,1.3c-2.8-0.4-5.2-1.6-6.3-3.4c-1.1,1.8-3.5,3-6.3,3.4l-0.6-1.3c3.3-0.4,6-2,6-4.3v-0.3
			h1.7V1523.8z"/>
		<path d="M226.8,1523.8c2.5,0,4.1-0.1,6-0.5l0.2,1.3c-2,0.4-3.8,0.5-6.6,0.5h-1.2v-11.4h6.7v1.3h-5.1V1523.8z M234.5,1512h1.5v16.6
			h-1.5v-8.8h-3.9v-1.4h3.9V1512z M239.7,1511.5v17.9h-1.6v-17.9H239.7z"/>
		<path d="M242,1520.7c0-4.7,2.8-7.6,6.7-7.6c2,0,3.4,0.9,4.2,1.8l-1,1.2c-0.7-0.8-1.7-1.4-3.2-1.4c-2.9,0-4.9,2.3-4.9,5.9
			c0,3.7,1.7,6,4.9,6c1,0,2.1-0.3,2.6-0.9v-3.8h-3.1v-1.5h4.8v6.2c-0.9,1-2.6,1.7-4.5,1.7C244.7,1528.3,242,1525.4,242,1520.7z"/>
		<path d="M255.6,1513.3h4.6c3,0,5.1,1.1,5.1,4.1c0,2.3-1.3,3.6-3.3,4.1l3.8,6.4h-2.1l-3.6-6.2h-2.6v6.2h-1.9V1513.3z M259.9,1520.3
			c2.3,0,3.6-0.9,3.6-2.8c0-1.9-1.3-2.6-3.6-2.6h-2.5v5.4H259.9z"/>
		<path d="M266,1526.1l1.1-1.3c1,1.1,2.5,1.8,4,1.8c1.9,0,3.1-1,3.1-2.4c0-1.5-1.1-2-2.4-2.6l-2.1-0.9c-1.4-0.6-3-1.6-3-3.8
			c0-2.3,2-3.9,4.6-3.9c1.7,0,3.3,0.7,4.3,1.8l-1,1.2c-0.9-0.8-2-1.4-3.3-1.4c-1.7,0-2.7,0.8-2.7,2.2c0,1.4,1.3,2,2.4,2.4l2.1,0.9
			c1.7,0.7,3,1.7,3,3.9c0,2.3-1.9,4.2-5,4.2C269,1528.3,267.2,1527.4,266,1526.1z"/>
		<path d="M287.1,1511.9h1.6v16.7h-1.6v-8.7h-2.3c-0.1,3.5-1.6,5.7-3.8,5.7c-2.3,0-3.8-2.4-3.8-6.3c0-3.8,1.5-6.2,3.8-6.2
			c2.2,0,3.6,2.1,3.8,5.5h2.3V1511.9z M283.4,1519.3c0-2.9-0.9-4.7-2.3-4.7c-1.4,0-2.3,1.8-2.3,4.7c0,2.9,0.9,4.8,2.3,4.8
			C282.5,1524,283.4,1522.2,283.4,1519.3z M292.3,1511.5v17.9h-1.6v-17.9H292.3z"/>
		<path d="M301.8,1513.2h1.4v11.9h-4.9v-11.9h1.4v4.6h2.1V1513.2z M301.8,1519.1h-2.1v4.7h2.1V1519.1z M313,1511.6v17.9h-1.6v-7.4
			h-2.2v3h-4.9v-11.9h1.4v4.6h2.1v-4.6h1.4v2.9h2.2v-4.5H313z M307.9,1519.1h-2.1v4.7h2.1V1519.1z M311.4,1520.8v-3.4h-2.2v3.4
			H311.4z"/>
		<path d="M331.6,1519.9v1.2h-16.3v-1.2H331.6z M318.9,1528.1h11.2v1.2h-12.8v-4h10.6v-1.5h-10.7v-1.2h12.3v3.8h-10.6V1528.1z
			 M327.9,1513.2h-10.5v-1.2h12.1v3.7H319v1.5h10.8v1.2h-12.4v-3.8h10.5V1513.2z"/>
		<path d="M345.1,1521.3v2.1h5.4v1.3h-10.7v3.2h10.8v1.3h-12.5v-5.8h5.3v-2.1h-7.3v-1.3h16.2v1.3H345.1z M350.3,1518.2h-12.1v-6
			h12.1V1518.2z M348.7,1513.5h-8.8v3.4h8.8V1513.5z"/>
		<path d="M369.8,1519.3v1.3h-16.2v-1.3H369.8z M355.4,1515c0-2,2.4-3.1,6.3-3.1c3.9,0,6.3,1.1,6.3,3.1s-2.4,3.1-6.3,3.1
			C357.7,1518.1,355.4,1517,355.4,1515z M357.2,1528h11.1v1.3h-12.7v-4.3h10.5v-1.6h-10.6v-1.2h12.2v4h-10.5V1528z M357,1515
			c0,1.2,1.7,1.9,4.6,1.9s4.6-0.7,4.6-1.9s-1.7-1.9-4.6-1.9S357,1513.8,357,1515z"/>
		<path d="M379.5,1521.6c-2.7,0-4.7-1.8-4.7-4.4c0-2.6,2-4.4,4.7-4.4c2.7,0,4.7,1.8,4.7,4.4C384.2,1519.8,382.2,1521.6,379.5,1521.6
			z M379.5,1520.2c1.8,0,3.1-1.2,3.1-3c0-1.7-1.3-3-3.1-3c-1.7,0-3.1,1.2-3.1,3C376.5,1519,377.8,1520.2,379.5,1520.2z
			 M389.7,1527.7v1.3h-12.1v-5.8h1.6v4.4H389.7z M389.2,1524.7h-1.6v-13.1h1.6V1524.7z"/>
		<path d="M397.2,1516.4c0,3.3,1.3,6.2,3.8,7.5l-1,1.3c-1.8-1-3-2.7-3.6-4.8c-0.6,2.4-1.9,4.4-3.7,5.5l-1-1.2
			c2.6-1.4,3.9-4.5,3.9-8.1v-1.4h-3.5v-1.3h8.3v1.3h-3.3V1516.4z M407.2,1511.5v18h-1.6v-9.3h-2.4v8.5h-1.5v-16.7h1.5v6.8h2.4v-7.3
			H407.2z"/>
		<path d="M425.5,1521.8h-7.3v7.7h-1.7v-7.7h-7.2v-1.3h11.9c0.6-2.6,0.6-4.5,0.6-6.2v-0.2h-10.4v-1.3h12v1.6c0,1.7,0,3.6-0.5,6.2
			h2.7V1521.8z"/>
		<path d="M435.7,1521.4h-8.2v-8.3h8.2v3.4h4.1v-5h1.7v13.1h-1.7v-6.8h-4.1V1521.4z M434.1,1514.4h-5v5.7h5V1514.4z M441.9,1527.7
			v1.3h-12v-5.6h1.7v4.3H441.9z"/>
	</g>
</g>
</svg>
