<?xml version="1.0" encoding="utf-8"?>
<!-- Generator: Adobe Illustrator 26.3.1, SVG Export Plug-In . SVG Version: 6.00 Build 0)  -->
<svg version="1.1" id="레이어_1" xmlns="http://www.w3.org/2000/svg" xmlns:xlink="http://www.w3.org/1999/xlink" x="0px"
	 y="0px" viewBox="0 0 211 56" style="enable-background:new 0 0 211 56;" xml:space="preserve">
<style type="text/css">
	.st0{fill:#FFE853;}
	.st1{enable-background:new    ;}
</style>
<g id="그룹_36917" transform="translate(-180 -1557)">
	<g id="사각형_33672">
		<path class="st0" d="M206.5,1557H371c11,0,20,9,20,20v5c0,11-9,20-20,20H186.5l0,0v-25C186.5,1566,195.5,1557,206.5,1557z"/>
	</g>
	<g id="패스_13158">
		<path class="st0" d="M187.5,1597.4c0,0-1.4,12-6.6,14.7s14.9-1.3,17.9-10.9S187.5,1597.4,187.5,1597.4z"/>
	</g>
	<g class="st1">
		<path d="M223.3,1583.1H216v6.4h-1.6v-6.4h-7.2v-1.3h16.2L223.3,1583.1z M208,1579c3.1-0.5,6.2-2.5,6.2-4.9v-0.1h-5.7v-1.3h13.1
			v1.3h-5.6v0.1c0,2.4,3.1,4.4,6.3,4.9l-0.6,1.3c-2.8-0.5-5.4-2-6.5-4.1c-1.1,2.1-3.7,3.6-6.5,4.1L208,1579z"/>
		<path d="M224.6,1584.2c3.3,0,7.8,0,11.7-0.6l0.1,1.2c-4,0.7-8.4,0.8-11.6,0.8L224.6,1584.2z M235.1,1577.1c0,2.5-2,4.2-4.8,4.2
			c-2.8,0-4.8-1.7-4.8-4.2c0-2.5,2-4.2,4.8-4.2C233.1,1572.9,235.1,1574.6,235.1,1577.1z M227.1,1577.1c0,1.7,1.4,2.8,3.2,2.8
			c1.9,0,3.2-1.2,3.2-2.8c0-1.7-1.3-2.8-3.2-2.8C228.4,1574.3,227.1,1575.4,227.1,1577.1z M239.1,1571.5v18h-1.6v-18H239.1z"/>
		<path d="M254.9,1572.8c0,4.5-3.3,7.6-8.5,8.9l-0.6-1.3c4.4-1.1,7.1-3.4,7.4-6.3h-6.6v-1.3H254.9z M260.5,1587.9v1.3h-12.4v-1.3
			h2.6v-4.2h-2.5v-1.3h12v1.3h-2.5v4.2H260.5z M252.4,1587.9h3.8v-4.2h-3.8V1587.9z M260,1581.4h-1.6v-9.8h1.6V1581.4z"/>
		<path d="M272.7,1572h1.6v16.6h-1.6v-8.4H269c-1.1,2.1-2.8,3.9-5.3,5.4l-1-1.2c3.8-2.3,5.8-5.5,6.1-9.3h-5.3v-1.3h6.9
			c0,1.8-0.3,3.5-0.9,5.1h3.1V1572z M278,1571.5v17.9h-1.6v-17.9H278z"/>
		<path d="M290,1577c0,3,2.2,6.1,4.8,7.3l-0.9,1.3c-2.1-1-3.8-3-4.7-5.5c-0.8,2.6-2.6,4.9-4.6,5.9l-1-1.3c2.6-1.2,4.8-4.6,4.8-7.7
			v-2.3h-4.2v-1.4h10v1.4H290V1577z M298.3,1571.6v17.9h-1.6v-17.9H298.3z"/>
		<path d="M315.8,1571.5v17.9h-1.6v-6.8h-4.9v-1.3h4.9v-3.5h-4.6c-0.9,3.4-3.1,6.4-7.6,8.7l-0.9-1.3c3.3-1.6,5.2-3.7,6.3-6.1l-6,0.6
			l-0.3-1.4l6.8-0.4c0.3-1,0.5-2,0.6-3.1H302v-1.3h8.1c0,1.1-0.1,2.1-0.3,3.2h4.3v-5H315.8z"/>
		<path d="M334.7,1585.8v1.3h-16.3v-1.3h7.3v-3.9h-5.4v-9.2h1.6v3.2h9.2v-3.2h1.6v9.2h-5.4v3.9H334.7z M322,1580.7h9.2v-3.3H322
			V1580.7z"/>
		<path d="M342.3,1578c-1.2,1.8-3,3.2-5.5,4.3l-0.9-1.2c3.7-1.5,5.7-3.8,6-6.8h-5.3v-1.3h6.9c0,1.4-0.2,2.6-0.7,3.8h2.8v-4.7h1.5
			v9.7h-1.5v-3.7H342.3z M348.7,1583.7c0,1.9,1.3,3.7,3.6,4.5l-0.8,1.2c-1.8-0.6-3-1.9-3.6-3.4c-0.5,1.5-1.6,2.9-3.3,3.6
			c-1.7-0.7-2.8-2-3.3-3.5c-0.7,1.4-1.9,2.7-3.6,3.3l-0.8-1.2c2.3-0.8,3.6-2.8,3.6-4.5v-1.2h1.6v1.2c0,1.6,0.8,3.3,2.5,4.3
			c1.7-1.1,2.5-2.9,2.5-4.3v-1.2h1.6V1583.7z M351,1581.9h-1.6v-10.3h1.6V1581.9z"/>
		<path d="M369.5,1585.8v1.3h-16.3v-1.3h7.2v-4.4h1.6v4.4H369.5z M368,1581.7c-2.7-0.6-5.6-2.4-6.7-5c-1.2,2.6-4,4.4-6.7,5l-0.7-1.4
			c3.1-0.6,6.5-3.2,6.5-6.2v-1.4h1.7v1.4c0,3,3.4,5.6,6.6,6.2L368,1581.7z"/>
	</g>
</g>
</svg>
