<svg xmlns="http://www.w3.org/2000/svg" width="42.5" height="38.5" viewBox="0 0 42.5 38.5">
  <g id="icon" transform="translate(6040.749 -4831.574)">
    <rect id="사각형_25939" data-name="사각형 25939" width="40" height="10" rx="1" transform="translate(-6039.499 4839.824)" fill="none" stroke="#000" stroke-miterlimit="10" stroke-width="2.5"/>
    <path id="패스_8203" data-name="패스 8203" d="M4657,4868.82v17.6a.472.472,0,0,1-.517.4h-30.967a.471.471,0,0,1-.516-.4v-17.6" transform="translate(-10660.5 -17.996)" fill="none" stroke="#000" stroke-miterlimit="10" stroke-width="2.5"/>
    <line id="선_1878" data-name="선 1878" y2="28" transform="translate(-6024.499 4839.824)" fill="none" stroke="#000" stroke-miterlimit="10" stroke-width="2.5"/>
    <line id="선_1879" data-name="선 1879" y2="28" transform="translate(-6014.499 4839.824)" fill="none" stroke="#000" stroke-miterlimit="10" stroke-width="2.5"/>
    <path id="패스_8204" data-name="패스 8204" d="M4630.747,4839.82a3.791,3.791,0,0,1-1.746-3.173,3.9,3.9,0,0,1,3.961-3.827,4.05,4.05,0,0,1,2.023.537,48.315,48.315,0,0,1,8.016,5.249" transform="translate(-10662.5 0.004)" fill="none" stroke="#000" stroke-miterlimit="10" stroke-width="2.5"/>
    <path id="패스_8205" data-name="패스 8205" d="M4668.253,4839.82a3.788,3.788,0,0,0,1.746-3.173,3.9,3.9,0,0,0-3.96-3.827,4.055,4.055,0,0,0-2.024.537,48.34,48.34,0,0,0-8.016,5.249" transform="translate(-10675.289 0.004)" fill="none" stroke="#000" stroke-miterlimit="10" stroke-width="2.5"/>
  </g>
</svg>
