<svg xmlns="http://www.w3.org/2000/svg" width="15" height="16" viewBox="0 0 15 16">
  <g id="그룹_89779" data-name="그룹 89779" transform="translate(-968 13411.481)">
    <rect id="사각형_54888" data-name="사각형 54888" width="4" height="11" rx="0.5" transform="translate(968 -13406.796)"/>
    <path id="합치기_877" data-name="합치기 877" d="M1.2,15.686a1.2,1.2,0,0,1-1.2-1.2V6.075A1.2,1.2,0,0,1,.607,5.029H.6s1.507-1.6,2.668-3.1C4.111.837,3.948-.021,5.177,0S6.3.9,6.269,1.571L5.614,3.989s-.231.875.655.881a.6.6,0,0,1,.082,0H9.566a1.418,1.418,0,0,1,1.427,1.2,32.588,32.588,0,0,1-.231,4.618,13.115,13.115,0,0,1-.969,3.792c-.305.657-.762,1.2-1.423,1.2Z" transform="translate(972 -13411.481)"/>
    <path id="패스_131553" data-name="패스 131553" d="M972-13406.872v11.7" transform="translate(0 -0.313)" fill="none" stroke="#fff" stroke-width="1"/>
  </g>
</svg>
