<svg xmlns="http://www.w3.org/2000/svg" width="19" height="19" viewBox="0 0 19 19">
  <g id="그룹_92604" data-name="그룹 92604" transform="translate(5713 14157.332)">
    <g id="사각형_54092" data-name="사각형 54092" transform="translate(-5713 -14157.332)" fill="#b100ff" stroke="#707070" stroke-width="3" opacity="0">
      <rect width="19" height="19" stroke="none"/>
      <rect x="1.5" y="1.5" width="16" height="16" fill="none"/>
    </g>
    <g id="그룹_89155" data-name="그룹 89155" transform="translate(-0.073 0.002)">
      <g id="그룹_780" data-name="그룹 780" transform="translate(-5711 -14155.333)" opacity="0.997">
        <path id="합치기_780" data-name="합치기 780" d="M0,8.433a6.638,6.638,0,0,1,.219-1.7C.254,6.519.3,6.31.3,6.179V6.146L.31,6.114.946.862A.938.938,0,0,1,2.384.148l.01.006L2.4.161l2.113,1.5a3.527,3.527,0,0,1,.345.248,7.549,7.549,0,0,1,4.66-.01,3.665,3.665,0,0,1,.333-.238l2.113-1.5.009-.007.01-.006a.938.938,0,0,1,1.438.714l.636,5.252.006.032v.033a1.813,1.813,0,0,0,.024.2,6.626,6.626,0,0,1,.323,2.05,7.058,7.058,0,0,1-7.207,6.9A7.058,7.058,0,0,1,0,8.433Z" transform="translate(0 0)"/>
      </g>
      <rect id="사각형_54093" data-name="사각형 54093" width="1" transform="translate(-5706.861 -14148.176)"/>
      <path id="사각형_54093_-_윤곽선" data-name="사각형 54093 - 윤곽선" d="M-1.111-2a.89.89,0,0,1,.889.889.89.89,0,0,1-.889.889A.89.89,0,0,1-2-1.111.89.89,0,0,1-1.111-2Z" transform="translate(-5705.082 -14147.067)" fill="#fff"/>
      <rect id="사각형_54094" data-name="사각형 54094" width="1" transform="translate(-5701.743 -14148.176)"/>
      <path id="사각형_54094_-_윤곽선" data-name="사각형 54094 - 윤곽선" d="M-1.111-2a.89.89,0,0,1,.889.889.89.89,0,0,1-.889.889A.89.89,0,0,1-2-1.111.89.89,0,0,1-1.111-2Z" transform="translate(-5699.845 -14147.067)" fill="#fff"/>
      <path id="패스_131109" data-name="패스 131109" d="M-5738.026-15236.111a1.932,1.932,0,0,1-1.522-.664,1.946,1.946,0,0,1-.387-.691l.643-.177v0a1.3,1.3,0,0,0,.266.454,1.28,1.28,0,0,0,1,.415h.026a1,1,0,0,0,.74-.254.8.8,0,0,0,.2-.511.334.334,0,0,1,.321-.346h.012a.333.333,0,0,1,.333.321,1.454,1.454,0,0,1-.385,1,1.635,1.635,0,0,1-1.213.461Z" transform="translate(36.194 1093.035)" fill="#fff"/>
      <path id="패스_131362" data-name="패스 131362" d="M.064,1.045,0,.382,3.971,0l.064.664Z" transform="translate(-5712.552 -14148.63) rotate(21)"/>
      <path id="패스_131363" data-name="패스 131363" d="M3.971,1.045,0,.664.064,0,4.034.381Z" transform="translate(-5712.927 -14144.218) rotate(-21)"/>
      <path id="패스_131364" data-name="패스 131364" d="M-5738.354-15236.112h-.036a1.635,1.635,0,0,1-1.213-.461,1.456,1.456,0,0,1-.385-1l.667.023v0a.807.807,0,0,0,.206.52,1.007,1.007,0,0,0,.734.249h.027a1.277,1.277,0,0,0,1.017-.433,1.329,1.329,0,0,0,.25-.433.332.332,0,0,1,.409-.233.333.333,0,0,1,.233.409,1.921,1.921,0,0,1-.387.692A1.935,1.935,0,0,1-5738.354-15236.112Z" transform="translate(33.267 1093.037)" fill="#fff"/>
      <path id="패스_131365" data-name="패스 131365" d="M3642.174,3734.194a2.008,2.008,0,0,1-1.555-1.444c0-.552.961-.556,1.555-.556s1.556,0,1.556.556a2.007,2.007,0,0,1-1.556,1.444" transform="translate(-9345.634 -17878.979)" fill="#fff"/>
      <path id="패스_131366" data-name="패스 131366" d="M3.971,1.045,0,.664.064,0,4.034.382Z" transform="translate(-5693.927 -14147.654) rotate(159)"/>
      <path id="패스_131367" data-name="패스 131367" d="M.064,1.045,0,.381,3.971,0l.064.664Z" transform="translate(-5694.301 -14143.242) rotate(-159)"/>
    </g>
  </g>
</svg>
