<svg xmlns="http://www.w3.org/2000/svg" width="19" height="19" viewBox="0 0 19 19">
  <g id="그룹_89780" data-name="그룹 89780" transform="translate(5882 14124.072)">
    <rect id="사각형_54890" data-name="사각형 54890" width="19" height="19" transform="translate(-5882 -14124.072)" fill="#fff" opacity="0"/>
    <path id="패스_131554" data-name="패스 131554" d="M2.322-12.337A8.382,8.382,0,0,1,6.4-13.74L4.39-5.008c0,.941-1.157,1.7-2.188,1.7H1.866A1.791,1.791,0,0,1,0-5.008C.694-8.9.72-11.077,2.322-12.337Z" transform="translate(-5882 -14107.291)"/>
    <path id="패스_131256_-_윤곽선" data-name="패스 131256 - 윤곽선" d="M5.479-12.894c-.111.022-.229.047-.352.076a6.277,6.277,0,0,0-2.365,1.041,3.325,3.325,0,0,0-1.086,1.706A22.746,22.746,0,0,0,1.036-6.9c-.093.582-.2,1.24-.323,1.945a1.1,1.1,0,0,0,1.153.939H2.2a1.881,1.881,0,0,0,1.058-.36.872.872,0,0,0,.418-.633v-.081l1.8-7.805M6.4-13.74,4.39-5.008c0,.941-1.157,1.7-2.188,1.7H1.866A1.791,1.791,0,0,1,0-5.008c.694-3.89.72-6.069,2.322-7.329A8.382,8.382,0,0,1,6.4-13.74Z" transform="translate(-5882 -14107.291)"/>
    <path id="패스_131555" data-name="패스 131555" d="M4.083-12.337A8.382,8.382,0,0,0,0-13.74L2.015-5.008c0,.941,1.157,1.7,2.188,1.7h.335A1.791,1.791,0,0,0,6.4-5.008C5.71-8.9,5.684-11.077,4.083-12.337Z" transform="translate(-5869.48 -14107.291)" fill="#006ff2"/>
    <path id="패스_131101_-_윤곽선" data-name="패스 131101 - 윤곽선" d="M.926-12.894l1.8,7.8v.081a.872.872,0,0,0,.418.633,1.881,1.881,0,0,0,1.058.36h.335a1.1,1.1,0,0,0,1.153-.939c-.125-.705-.23-1.363-.323-1.945a22.746,22.746,0,0,0-.64-3.172,3.325,3.325,0,0,0-1.086-1.706A6.578,6.578,0,0,0,.926-12.894M0-13.74a8.382,8.382,0,0,1,4.083,1.4C5.684-11.077,5.71-8.9,6.4-5.008A1.791,1.791,0,0,1,4.538-3.3H4.2c-1.031,0-2.188-.763-2.188-1.7Z" transform="translate(-5869.48 -14107.291)" fill="#fff"/>
    <path id="패스_131556" data-name="패스 131556" d="M-6051.359-15096.842l3.392-1.965,3.012,1.965a3.6,3.6,0,0,1-3.216,1.828A3.241,3.241,0,0,1-6051.359-15096.842Z" transform="translate(175.732 987.567)"/>
    <path id="패스_131099_-_윤곽선" data-name="패스 131099 - 윤곽선" d="M-6049.756-15096a3.925,3.925,0,0,1-1.587-.315,3.531,3.531,0,0,1-1.041-.7,3.322,3.322,0,0,1-.737-1.037l-.116-.288.267-.153,3.582-2.074,3.452,2.252-.128.278a3.361,3.361,0,0,1-.789,1,3.979,3.979,0,0,1-1.09.688,4.643,4.643,0,0,1-1.648.349Zm-2.559-2.051a2.883,2.883,0,0,0,.449.544,2.948,2.948,0,0,0,2.11.795l.14,0a3.376,3.376,0,0,0,2.747-1.362l-2.542-1.657Z" transform="translate(177.164 988.91)" fill="#fff"/>
    <path id="합치기_878" data-name="합치기 878" d="M5.794,11.332c-1.387,2.432-2.882,2.191-3.03,2.182C.3,13.382.032,10.965,0,10.136S.328,5.878.434,4.607A5.356,5.356,0,0,1,5.653.011v0c.226,0,.59-.016.715,0a5.528,5.528,0,0,1,4.787,4.6c.106,1.27.462,4.7.432,5.53s-.3,3.246-2.763,3.379c-.026,0-.095.011-.2.011C8.149,13.525,6.935,13.333,5.794,11.332Z" transform="translate(-5878 -14121.597)"/>
    <rect id="사각형_54891" data-name="사각형 54891" height="1" transform="translate(-5875.35 -14116.493)" fill="#fff"/>
    <path id="사각형_54090_-_윤곽선" data-name="사각형 54090 - 윤곽선" d="M-1.051-2A.95.95,0,0,1-.1-1.051.95.95,0,0,1-1.051-.1.95.95,0,0,1-2-1.051.95.95,0,0,1-1.051-2Z" transform="translate(-5873.501 -14114.382)" fill="#fff"/>
    <rect id="사각형_54892" data-name="사각형 54892" width="1" height="1" rx="0.5" transform="translate(-5869.684 -14116.493)"/>
    <path id="사각형_54091_-_윤곽선" data-name="사각형 54091 - 윤곽선" d="M-1.051-2A.95.95,0,0,1-.1-1.051.95.95,0,0,1-1.051-.1.95.95,0,0,1-2-1.051.95.95,0,0,1-1.051-2Z" transform="translate(-5869.02 -14114.382)" fill="#fff"/>
    <path id="패스_131559" data-name="패스 131559" d="M3642.278,3734.328a2.144,2.144,0,0,1-1.66-1.542c0-.59,1.025-.593,1.66-.593s1.661,0,1.661.593a2.142,2.142,0,0,1-1.661,1.542" transform="translate(-9514.591 -17845.223)" fill="#fff"/>
    <path id="패스_131560" data-name="패스 131560" d="M4.083-12.337A8.382,8.382,0,0,0,0-13.74L2.015-5.008c0,.941,1.157,1.7,2.188,1.7h.335A1.791,1.791,0,0,0,6.4-5.008C5.71-8.9,5.684-11.077,4.083-12.337Z" transform="translate(-5869.601 -14107.291)"/>
    <path id="합치기_779_-_윤곽선" data-name="합치기 779 - 윤곽선" d="M7.482,12.522v-.679c.066,0,.114,0,.146-.007l.033,0h0a2.516,2.516,0,0,0,1.306-.4,2.283,2.283,0,0,0,.723-.828,4.263,4.263,0,0,0,.431-1.773c.021-.587-.172-2.626-.313-4.115-.05-.524-.092-.977-.12-1.3a5.084,5.084,0,0,0-1.108-2.39A5.109,5.109,0,0,0,7.2-.167,5.01,5.01,0,0,0,5.182-.817h0c-.012,0-.052,0-.166,0l-.185,0v.007H4.5a4.916,4.916,0,0,0-2.213.5A4.8,4.8,0,0,0,.788.875a5.071,5.071,0,0,0-1.2,2.538c-.027.321-.07.774-.12,1.3C-.669,6.2-.862,8.241-.84,8.828A4.263,4.263,0,0,0-.409,10.6a2.283,2.283,0,0,0,.723.828,2.516,2.516,0,0,0,1.306.4h0l.033,0c.032,0,.08.007.146.007a2.016,2.016,0,0,0,1.009-.3,4.528,4.528,0,0,0,1.549-1.7l.282-.487.282.487a4.528,4.528,0,0,0,1.549,1.7,2.016,2.016,0,0,0,1.009.3v.679a2.657,2.657,0,0,1-1.332-.385,4.754,4.754,0,0,1-1.509-1.493,4.754,4.754,0,0,1-1.509,1.493,2.658,2.658,0,0,1-1.332.385c-.095,0-.165-.006-.2-.01H1.584a3.147,3.147,0,0,1-1.633-.517,2.947,2.947,0,0,1-.937-1.067A4.874,4.874,0,0,1-1.5,8.853c-.023-.632.165-2.614.315-4.207.049-.523.092-.974.119-1.291A5.729,5.729,0,0,1,.294.427,5.362,5.362,0,0,1,4.171-1.481v-.01l.327,0,.216,0c.1,0,.208,0,.3,0a2.29,2.29,0,0,1,.236.008A5.624,5.624,0,0,1,9.087.587,6.369,6.369,0,0,1,10,2.091a4.317,4.317,0,0,1,.349,1.264c.027.318.07.769.119,1.291.151,1.592.338,3.574.315,4.207a4.873,4.873,0,0,1-.512,2.075,2.947,2.947,0,0,1-.937,1.067,3.147,3.147,0,0,1-1.633.517H7.685C7.647,12.516,7.577,12.522,7.482,12.522Z" transform="translate(-5877.061 -14120.481)" fill="#fff"/>
  </g>
</svg>
