<svg xmlns="http://www.w3.org/2000/svg" width="13" height="16" viewBox="0 0 13 16">
  <g id="그룹_89854" data-name="그룹 89854" transform="translate(-1012 13266.995)">
    <path id="합치기_903" data-name="합치기 903" d="M1.27,13.834a.915.915,0,0,1-.142-.178A7.565,7.565,0,0,1,.022,10.937,6.52,6.52,0,0,1,.781,7.475,9.4,9.4,0,0,1,2.667,5.158,9.912,9.912,0,0,0,4.1,3.54,4.534,4.534,0,0,0,4.9.529s-.1-.4.065-.5.5.139.5.139A7.712,7.712,0,0,1,8.5,3.261,3.75,3.75,0,0,1,8.67,5.493a5.079,5.079,0,0,0-.055,1.4,1.267,1.267,0,0,0,.679.9,2.789,2.789,0,0,0,1.736.122c.827-.3.751-1.258.863-1.3s.137-.008.249.22c-.107-.218,2.323,4.369-.557,6.937a9.578,9.578,0,0,1-1.462,1.139A6.98,6.98,0,0,1,6.287,16,6.361,6.361,0,0,1,1.27,13.834Z" transform="translate(1012 -13266.995)"/>
    <path id="패스_131656" data-name="패스 131656" d="M1077.268-13272.4c.107.046.062.2.093.441a4.687,4.687,0,0,0,1.632,2.957,2.758,2.758,0,0,0,2.733.286c.258-.093.34-.325.438-.286s.066.088.134.286a3.355,3.355,0,0,1-.311,2.341,4.1,4.1,0,0,1-4.417,1.688,3.651,3.651,0,0,1-2.723-4.742,6.384,6.384,0,0,1,2.1-2.8C1077.068-13272.341,1077.161-13272.449,1077.268-13272.4Z" transform="translate(-60.209 12.293)" fill="#fff"/>
  </g>
</svg>
