<svg width="64" height="64" viewBox="0 0 64 64" fill="none" xmlns="http://www.w3.org/2000/svg">
<circle cx="32" cy="32" r="32" fill="#DADADA"/>
<path d="M26.7387 28.7915H24.8596C24.8092 28.7915 24.7676 28.8337 24.7676 28.8834V29.9327C24.7676 29.9836 24.8092 30.0244 24.8596 30.0244H26.7387C26.7898 30.0244 26.8305 29.9836 26.8305 29.9327V28.8834C26.8305 28.8337 26.7898 28.7915 26.7387 28.7915Z" fill="white"/>
<path d="M18.7509 28.7915H16.8717C16.8207 28.7915 16.7793 28.8337 16.7793 28.8834V29.9327C16.7793 29.9836 16.8207 30.0244 16.8717 30.0244H18.7509C18.8019 30.0244 18.8433 29.9836 18.8433 29.9327V28.8834C18.8433 28.8337 18.8019 28.7915 18.7509 28.7915Z" fill="white"/>
<path d="M22.3173 28.7915H20.4384C20.3873 28.7915 20.3457 28.8337 20.3457 28.8834V29.9327C20.3457 29.9836 20.3871 30.0244 20.4384 30.0244H22.3173C22.3679 30.0244 22.4097 29.9836 22.4097 29.9327V28.8834C22.4097 28.8337 22.3681 28.7915 22.3173 28.7915Z" fill="white"/>
<path d="M27.5425 26H16.07C15.48 26 15 26.4839 15 27.0777V31.4702C15 32.0658 15.48 32.5481 16.07 32.5481H27.5425C28.1316 32.5481 28.6109 32.0658 28.6109 31.4702V27.0777C28.6109 26.4837 28.1316 26 27.5425 26ZM19.5063 30.1562C19.5063 30.3388 19.3591 30.4876 19.178 30.4876H16.4513C16.2702 30.4876 16.1234 30.3388 16.1234 30.1562V27.3126L16.779 26.9032V28.2369C16.779 28.2884 16.8204 28.3295 16.8715 28.3295H19.1778C19.3591 28.3295 19.5061 28.4785 19.5061 28.6615L19.5063 30.1562ZM23.0729 30.1562C23.0729 30.3388 22.9255 30.4876 22.745 30.4876H20.0184C19.8375 30.4876 19.6901 30.3388 19.6901 30.1562V27.3126L20.3459 26.9032V28.2369C20.3459 28.2884 20.3872 28.3295 20.4385 28.3295H22.7457C22.9259 28.3295 23.0738 28.4785 23.0738 28.6615L23.0729 30.1562ZM23.5892 29.7583C23.4059 29.7583 23.2574 29.6084 23.2574 29.4245C23.2574 29.2406 23.4059 29.089 23.5892 29.089C23.7725 29.089 23.9209 29.2395 23.9209 29.4245C23.9209 29.6095 23.7719 29.7583 23.5892 29.7583ZM27.4873 31.504L26.831 31.9141V30.5813C26.831 30.5291 26.7903 30.4876 26.7393 30.4876H24.4321C24.2516 30.4876 24.1046 30.3388 24.1046 30.1562V28.6615C24.1046 28.4787 24.2516 28.3295 24.4327 28.3295H27.16C27.3405 28.3295 27.4873 28.4785 27.4873 28.6615V31.504Z" fill="white"/>
<path d="M43.6214 29.1138L41.3281 30.5443V40.2221H43.6214V29.1138Z" fill="white"/>
<path d="M47.0004 29.1138L44.707 30.5443V40.2221H47.0004V29.1138Z" fill="white"/>
<path d="M15.0176 40.2222H17.3109V35.215H20.6885V40.2222H22.9818V35.215H26.3594V40.2222H28.6527V34.6483C28.6527 34.0085 28.1387 33.4897 27.5046 33.4897H16.1657C15.5314 33.4897 15.0176 34.0085 15.0176 34.6483V40.2222Z" fill="white"/>
<path d="M30.8844 40.222H38.971C39.605 40.222 40.1191 39.7032 40.1191 39.0634V34.6483C40.1191 34.0085 39.605 33.4897 38.971 33.4897H30.8844C30.2504 33.4897 29.7363 34.0085 29.7363 34.6483V35.2148H37.8258V35.9931H30.8844C30.2504 35.9931 29.7363 36.5119 29.7363 37.1517V39.0632C29.7363 39.7032 30.2504 40.2218 30.8844 40.2218V40.222ZM32.0297 38.4967V37.7184H37.8258V38.4967H32.0297Z" fill="white"/>
</svg>
