<?xml version="1.0" encoding="utf-8"?>
<!-- Generator: Adobe Illustrator 28.3.0, SVG Export Plug-In . SVG Version: 6.00 Build 0)  -->
<svg version="1.1" id="watch_logo-01" xmlns="http://www.w3.org/2000/svg" xmlns:xlink="http://www.w3.org/1999/xlink" x="0px"
	 y="0px" viewBox="0 0 84.3 14" style="enable-background:new 0 0 84.3 14;" xml:space="preserve">
<style type="text/css">
	.st0{fill:#A3A3A3;}
</style>
<g>
	<g>
		<g>
			<g>
				<g>
					<g>
						<g>
							<g>
								<g>
									<g>
										<path class="st0" d="M16,4.7c-0.5-0.6-1.4-1-2.4-1C11.8,3.6,10,5,10,7.5c0,2.4,1.9,3.8,3.6,3.8c1,0,1.9-0.4,2.4-1.1v1h1.7
											V3.8H16V4.7z M13.9,9.7c-1.3,0-2.2-1-2.2-2.3c0-1.3,1-2.3,2.2-2.3c1.3,0,2.2,1,2.2,2.3C16.1,8.7,15.2,9.7,13.9,9.7z"/>
										<path class="st0" d="M27.5,4.7c-0.5-0.6-1.4-1-2.4-1c-1.9,0-3.7,1.4-3.7,3.8c0,2.4,1.9,3.8,3.6,3.8c1,0,1.9-0.4,2.4-1.1v1
											h1.7V3.8h-1.7V4.7z M25.4,9.7c-1.3,0-2.2-1-2.2-2.3c0-1.3,1-2.3,2.2-2.3c1.3,0,2.2,1,2.2,2.3C27.6,8.7,26.7,9.7,25.4,9.7z
											"/>
										<polygon class="st0" points="41.3,8.7 39.2,3.8 37.4,3.8 40.4,10.8 39.1,13.9 40.9,13.9 45,3.8 43.2,3.8 										"/>
										<polygon class="st0" points="37.2,3.8 35.2,3.8 33.5,6.1 31.9,3.8 29.8,3.8 32.5,7.4 29.7,11.1 31.8,11.1 33.5,8.7 
											35.3,11.1 37.4,11.1 34.6,7.4 										"/>
										<rect x="18.9" y="1.8" class="st0" width="1.7" height="9.3"/>
										<path class="st0" d="M4.5,7.6h2.9c-0.3,1.2-1.3,2-2.7,2C3,9.6,1.7,8.3,1.7,6.6c0-1.7,1.3-3.1,3-3.1c1.2,0,2.1,0.6,2.7,1.6
											l1.5-0.9C8.1,2.8,6.6,1.8,4.7,1.8C2,1.8,0,3.9,0,6.6c0,2.5,1.9,4.7,4.8,4.7c2.7,0,4.5-2.1,4.5-4.6V6H4.5V7.6z"/>
									</g>
								</g>
							</g>
						</g>
					</g>
				</g>
			</g>
		</g>
	</g>
	<g>
		<path class="st0" d="M47.3,9.6l1.6-1.2c0.5,0.8,1.2,1.2,2,1.2c0.9,0,1.4-0.6,1.4-1.2c0-0.8-0.9-1-1.9-1.3
			c-1.2-0.4-2.6-0.9-2.6-2.6c0-1.5,1.3-2.6,3.1-2.6c1.5,0,2.3,0.6,3.1,1.3l-1.4,1.1c-0.4-0.6-0.9-0.9-1.7-0.9c-0.8,0-1.3,0.5-1.3,1
			c0,0.7,0.9,1,1.9,1.3c1.2,0.4,2.7,1,2.7,2.7c0,1.4-1.2,2.9-3.2,2.9C49.2,11.3,48.1,10.6,47.3,9.6z"/>
		<path class="st0" d="M54.7,9.5C54.7,8,56,7,57.1,6.3c0.9-0.6,1.7-1.1,1.7-1.9c0-0.6-0.4-1.1-1.3-1.1c-0.8,0-1.3,0.5-1.6,1.3
			l-1.5-0.7c0.6-1.2,1.6-2,3.1-2c1.9,0,3,1.1,3,2.6c0,1.5-1.2,2.3-2.3,3c-1,0.6-1.9,1.2-1.9,2.1h4.1v1.6h-5.9V9.5z"/>
		<path class="st0" d="M65.1,9h-3.9V7.5L65.1,2h1.8v5.5h1.3V9h-1.3v2.1h-1.7V9z M65.1,7.5v-3l-2.1,3H65.1z"/>
		<path class="st0" d="M71.9,2h5.2v1.6h-3.5v2.1h3.5v1.6h-3.5v3.8h-1.7V2z"/>
		<path class="st0" d="M78.1,2h5.5v1.6h-3.7v2.1h3.7v1.6h-3.7v2.2h3.7v1.6h-5.5V2z"/>
	</g>
</g>
</svg>
