<svg id="watch_logo-01" xmlns="http://www.w3.org/2000/svg" width="172" height="14" viewBox="0 0 172 14">
  <g id="그룹_90968" data-name="그룹 90968" transform="translate(0 1.799)">
    <path id="패스_8479" data-name="패스 8479" d="M52.152,17.759A2.92,2.92,0,0,0,49.819,16.7,3.673,3.673,0,0,0,46.2,20.606a3.692,3.692,0,0,0,3.576,3.906c1.756,0,1.82-.441,2.355-1.148v.993H53.8v-7.5h-1.67v.9Zm-2.1,5.164a2.332,2.332,0,0,1,0-4.656,2.333,2.333,0,0,1,0,4.656Z" transform="translate(-36.308 -14.923)" fill="#a3a3a3"/>
    <path id="패스_8480" data-name="패스 8480" d="M105.152,17.759a2.951,2.951,0,0,0-2.334-1.059A3.673,3.673,0,0,0,99.2,20.606a3.692,3.692,0,0,0,3.576,3.906c1.756,0,1.82-.441,2.355-1.148v.993h1.67v-7.5h-1.67v.9Zm-2.1,5.164a2.332,2.332,0,0,1,0-4.656,2.333,2.333,0,0,1,0,4.656Z" transform="translate(-77.96 -14.923)" fill="#a3a3a3"/>
    <path id="패스_8481" data-name="패스 8481" d="M176.433,22.3,174.4,17.4h-1.8l3,6.894-1.306,3.147H176L180.115,17.4h-1.777Z" transform="translate(-135.644 -15.241)" fill="#a3a3a3"/>
    <path id="패스_8482" data-name="패스 8482" d="M144.43,17.4h-1.97l-1.649,2.386-1.67-2.386h-2.034l2.634,3.69L137,24.912h2.055l1.734-2.5,1.777,2.5h2.056l-2.8-3.8Z" transform="translate(-107.666 -15.473)" fill="#a3a3a3"/>
    <rect id="사각형_30543" data-name="사각형 30543" width="1.692" height="9.207" transform="translate(18.671)" fill="#a3a3a3"/>
    <path id="패스_8483" data-name="패스 8483" d="M4.454,14.217H7.344a2.566,2.566,0,0,1-2.634,1.97,3.246,3.246,0,0,1-3.04-3.019,2.966,2.966,0,0,1,2.976-3.019A2.419,2.419,0,0,1,7.28,11.733l1.5-.9A4.631,4.631,0,0,0,4.646,8.5,4.567,4.567,0,0,0,0,13.168a4.545,4.545,0,0,0,4.711,4.668,4.3,4.3,0,0,0,4.432-4.561v-.664H4.432v1.627Z" transform="translate(0 -8.479)" fill="#a3a3a3"/>
  </g>
  <rect id="사각형_30544" data-name="사각형 30544" width="0.45" height="13.208" transform="translate(96.284)" fill="#a3a3a3"/>
  <g id="그룹_90969" data-name="그룹 90969" transform="translate(100.443 1.477)">
    <path id="패스_8484" data-name="패스 8484" d="M468.6,9h1.777l1.713,6.359L474,9h1.67l1.884,6.338L479.263,9h1.713l-2.569,9.1h-1.692l-1.906-6.423L472.9,18.1h-1.713Z" transform="translate(-468.6 -8.55)" fill="#a3a3a3"/>
    <path id="패스_8485" data-name="패스 8485" d="M524.321,20.59a3.6,3.6,0,0,1,3.619-3.79c1.841,0,1.82.407,2.334,1.028V16.95h1.691v7.28h-1.691v-.942A3.06,3.06,0,0,1,527.9,24.38a3.661,3.661,0,0,1-3.6-3.79Zm6.038-.021a2.2,2.2,0,1,0-4.389,0,2.2,2.2,0,1,0,4.389,0Z" transform="translate(-512.374 -14.68)" fill="#a3a3a3"/>
    <path id="패스_8486" data-name="패스 8486" d="M563.8,9.17h1.242V8.056L566.733,6.9V9.17h1.477v1.5h-1.477v2.719c0,1.263.171,1.477,1.477,1.477V16.45h-.236c-2.248,0-2.933-.728-2.933-3.04V10.668H563.8V9.17Z" transform="translate(-543.416 -6.9)" fill="#a3a3a3"/>
    <path id="패스_8487" data-name="패스 8487" d="M587.1,20.59a3.756,3.756,0,0,1,3.79-3.79,3.264,3.264,0,0,1,3.469,2.248l-1.5.642a2.1,2.1,0,0,0-1.948-1.306,2.421,2.421,0,0,0-2.163,2.227,2.14,2.14,0,0,0,2.163,2.205,1.847,1.847,0,0,0,1.97-1.349l1.5.642a3.664,3.664,0,0,1-3.49,2.291,4.071,4.071,0,0,1-3.79-3.79Z" transform="translate(-561.727 -14.68)" fill="#a3a3a3"/>
    <path id="패스_8488" data-name="패스 8488" d="M625.3,8.5h1.691v2.8a2.879,2.879,0,0,1,5.074,2.077v4.325h-1.713V13.575c0-1.135-.557-1.841-1.649-1.841s-1.692.707-1.692,1.97v4h-1.692V8.5Z" transform="translate(-591.748 -8.157)" fill="#a3a3a3"/>
    <path id="패스_8489" data-name="패스 8489" d="M673.822,14.974V9h1.692v6.059a1.537,1.537,0,0,0,1.563,1.584,1.567,1.567,0,0,0,1.584-1.584V9h1.692v5.952a3.276,3.276,0,0,1-6.552,0Z" transform="translate(-629.864 -8.55)" fill="#a3a3a3"/>
    <path id="패스_8490" data-name="패스 8490" d="M711.3,8.5h1.692v9.207H711.3Z" transform="translate(-659.334 -8.157)" fill="#a3a3a3"/>
    <path id="패스_8491" data-name="패스 8491" d="M722.1,9.17h1.242V8.056L725.033,6.9V9.17h1.477v1.5h-1.477v2.719c0,1.263.171,1.477,1.477,1.477V16.45h-.236c-2.248,0-2.933-.728-2.933-3.04V10.668H722.1V9.17Z" transform="translate(-667.822 -6.9)" fill="#a3a3a3"/>
    <path id="패스_8492" data-name="패스 8492" d="M747.621,17.5h1.67v1.092a1.858,1.858,0,0,1,1.863-1.092c.921,0,.964.128,1.285.321l-.642,1.584a1.656,1.656,0,0,0-1.006-.278c-.964,0-1.5.514-1.5,1.777V24.78H747.6V17.5Z" transform="translate(-687.862 -15.23)" fill="#a3a3a3"/>
    <path id="패스_8493" data-name="패스 8493" d="M767.021,20.59a3.6,3.6,0,0,1,3.619-3.79c1.841,0,1.82.407,2.334,1.028V16.95h1.691v7.28h-1.691v-.942A3.06,3.06,0,0,1,770.6,24.38a3.661,3.661,0,0,1-3.6-3.79Zm6.038-.021a2.2,2.2,0,1,0-4.389,0,2.2,2.2,0,1,0,4.389,0Z" transform="translate(-703.108 -14.68)" fill="#a3a3a3"/>
  </g>
  <g id="그룹_90970" data-name="그룹 90970" transform="translate(46.203 1.477)">
    <path id="패스_8494" data-name="패스 8494" d="M215.6,9h1.777l1.713,6.359L221,9h1.67l1.884,6.338L226.263,9h1.713l-2.569,9.1h-1.691l-1.906-6.423L219.9,18.1h-1.713Z" transform="translate(-215.6 -8.55)" fill="#a3a3a3"/>
    <path id="패스_8495" data-name="패스 8495" d="M271.321,20.59a3.6,3.6,0,0,1,3.619-3.79c1.841,0,1.82.407,2.334,1.028V16.95h1.692v7.28h-1.692v-.942A3.06,3.06,0,0,1,274.9,24.38a3.661,3.661,0,0,1-3.6-3.79Zm6.038-.021a2.2,2.2,0,1,0-4.389,0,2.2,2.2,0,1,0,4.389,0Z" transform="translate(-259.374 -14.68)" fill="#a3a3a3"/>
    <path id="패스_8496" data-name="패스 8496" d="M310.8,9.17h1.242V8.056L313.733,6.9V9.17h1.477v1.5h-1.477v2.719c0,1.263.171,1.477,1.477,1.477V16.45h-.236c-2.248,0-2.933-.728-2.933-3.04V10.668H310.8V9.17Z" transform="translate(-290.416 -6.9)" fill="#a3a3a3"/>
    <path id="패스_8497" data-name="패스 8497" d="M334.1,20.59a3.756,3.756,0,0,1,3.79-3.79,3.264,3.264,0,0,1,3.469,2.248l-1.5.642a2.1,2.1,0,0,0-1.948-1.306,2.421,2.421,0,0,0-2.163,2.227,2.14,2.14,0,0,0,2.163,2.205,1.847,1.847,0,0,0,1.97-1.349l1.5.642a3.664,3.664,0,0,1-3.49,2.291,4.071,4.071,0,0,1-3.79-3.79Z" transform="translate(-308.727 -14.68)" fill="#a3a3a3"/>
    <path id="패스_8498" data-name="패스 8498" d="M372.3,8.5h1.692v2.8a2.879,2.879,0,0,1,5.075,2.077v4.325h-1.713V13.575c0-1.135-.557-1.841-1.649-1.841s-1.692.707-1.692,1.97v4h-1.691V8.5Z" transform="translate(-338.748 -8.157)" fill="#a3a3a3"/>
    <path id="패스_8499" data-name="패스 8499" d="M372.3,8.5h1.692v2.8a2.879,2.879,0,0,1,5.075,2.077v4.325h-1.713V13.575c0-1.135-.557-1.841-1.649-1.841s-1.692.707-1.692,1.97v4h-1.691V8.5Z" transform="translate(-338.748 -8.157)" fill="#a3a3a3"/>
    <path id="패스_8500" data-name="패스 8500" d="M409.361,10.627H405.4V9h5.738v1.477L407.991,18.1h-1.8l3.169-7.473Z" transform="translate(-364.761 -8.55)" fill="#a3a3a3"/>
  </g>
</svg>
