<?xml version="1.0" encoding="utf-8"?>
<!-- Generator: Adobe Illustrator 28.3.0, SVG Export Plug-In . SVG Version: 6.00 Build 0)  -->
<svg version="1.1" id="watch_logo-01" xmlns="http://www.w3.org/2000/svg" xmlns:xlink="http://www.w3.org/1999/xlink" x="0px"
	 y="0px" viewBox="0 0 150.7 14" style="enable-background:new 0 0 150.7 14;" xml:space="preserve">
<style type="text/css">
	.st0{fill:#A3A3A3;}
</style>
<g>
	<g>
		<g>
			<g>
				<g>
					<g>
						<g>
							<g>
								<g>
									<g>
										<g>
											<path class="st0" d="M16,4.7c-0.5-0.6-1.4-1-2.4-1c-1.9,0-3.7,1.4-3.7,3.8c0,2.4,1.9,3.8,3.6,3.8c1,0,1.9-0.4,2.4-1.1v1
												h1.7V3.8H16V4.7z M13.9,9.8c-1.3,0-2.2-1-2.2-2.3c0-1.3,1-2.3,2.2-2.3c1.3,0,2.2,1,2.2,2.3C16.1,8.8,15.2,9.8,13.9,9.8z"
												/>
											<path class="st0" d="M27.5,4.7c-0.5-0.6-1.4-1-2.4-1c-1.9,0-3.7,1.4-3.7,3.8c0,2.4,1.9,3.8,3.6,3.8c1,0,1.9-0.4,2.4-1.1
												v1h1.7V3.8h-1.7V4.7z M25.4,9.8c-1.3,0-2.2-1-2.2-2.3c0-1.3,1-2.3,2.2-2.3c1.3,0,2.2,1,2.2,2.3
												C27.6,8.8,26.7,9.8,25.4,9.8z"/>
											<polygon class="st0" points="41.3,8.8 39.2,3.8 37.4,3.8 40.4,10.8 39.1,14 40.9,14 45,3.8 43.2,3.8 											"/>
											<polygon class="st0" points="37.2,3.8 35.2,3.8 33.6,6.2 31.9,3.8 29.8,3.8 32.5,7.4 29.7,11.2 31.8,11.2 33.5,8.7 
												35.3,11.2 37.4,11.2 34.6,7.4 											"/>
											<rect x="18.9" y="1.9" class="st0" width="1.7" height="9.3"/>
											<path class="st0" d="M4.5,7.7h2.9c-0.3,1.2-1.3,2-2.7,2C3,9.7,1.7,8.3,1.7,6.6c0-1.7,1.3-3.1,3-3.1
												c1.2,0,2.1,0.6,2.7,1.6l1.5-0.9C8.1,2.9,6.6,1.9,4.7,1.9C2,1.9,0,4,0,6.6c0,2.5,1.9,4.7,4.8,4.7c2.7,0,4.5-2.1,4.5-4.6V6
												H4.5V7.7z"/>
										</g>
									</g>
								</g>
							</g>
						</g>
					</g>
				</g>
			</g>
		</g>
	</g>
	<g>
		<path class="st0" d="M86.7,10.1l1.1-0.9c0.3,0.6,0.8,0.9,1.4,0.9c0.6,0,1-0.4,1-0.9c0-0.5-0.7-0.7-1.3-0.9C88,8.1,87,7.7,87,6.5
			c0-1,0.9-1.8,2.1-1.8c1,0,1.6,0.4,2.2,0.9l-1,0.8c-0.3-0.4-0.7-0.6-1.2-0.6c-0.6,0-0.9,0.3-0.9,0.7c0,0.5,0.6,0.7,1.3,0.9
			c0.9,0.3,1.9,0.7,1.9,1.9c0,1-0.8,2-2.2,2C88.1,11.3,87.3,10.8,86.7,10.1z"/>
		<path class="st0" d="M93.3,10.6v3h-1.2V6h1.2v0.7c0.4-0.5,1-0.8,1.7-0.8c1.3,0,2.5,1,2.5,2.7c0,1.7-1.3,2.7-2.5,2.7
			C94.3,11.3,93.7,11,93.3,10.6z M96.3,8.6c0-0.9-0.7-1.6-1.6-1.6c-0.9,0-1.5,0.7-1.5,1.6c0,0.9,0.6,1.6,1.5,1.6
			C95.7,10.2,96.3,9.5,96.3,8.6z"/>
		<path class="st0" d="M97.9,8.6c0-1.5,1.2-2.7,2.7-2.7c1.5,0,2.7,1.1,2.7,2.7V9h-4.2c0.2,0.7,0.7,1.2,1.6,1.2
			c0.7,0,1.2-0.4,1.4-0.9l1,0.6c-0.5,0.8-1.3,1.4-2.4,1.4C99,11.3,97.9,10.1,97.9,8.6z M99.1,8h2.9c-0.2-0.7-0.7-1.1-1.4-1.1
			C99.9,7,99.3,7.4,99.1,8z"/>
		<path class="st0" d="M103.7,8.6c0-1.5,1.2-2.7,2.7-2.7c1.2,0,2.1,0.7,2.5,1.6L107.8,8C107.5,7.4,107,7,106.4,7
			c-0.9,0-1.5,0.7-1.5,1.6c0,0.9,0.7,1.6,1.5,1.6c0.7,0,1.2-0.4,1.4-1l1.1,0.5c-0.4,1-1.3,1.6-2.5,1.6
			C104.9,11.3,103.7,10.1,103.7,8.6z"/>
		<path class="st0" d="M110,4c0.5,0,0.8,0.3,0.8,0.8c0,0.4-0.3,0.7-0.8,0.7c-0.5,0-0.8-0.3-0.8-0.7C109.3,4.3,109.6,4,110,4z
			 M109.4,6h1.2v5.2h-1.2V6z"/>
		<path class="st0" d="M111.3,8.6c0-1.7,1.3-2.7,2.6-2.7c0.7,0,1.3,0.3,1.7,0.7V6h1.2v5.2h-1.2v-0.7c-0.4,0.5-1,0.8-1.7,0.8
			C112.6,11.3,111.3,10.3,111.3,8.6z M115.5,8.6c0-0.9-0.7-1.6-1.5-1.6c-0.9,0-1.6,0.7-1.6,1.6c0,0.9,0.7,1.6,1.6,1.6
			C114.9,10.2,115.5,9.5,115.5,8.6z"/>
		<path class="st0" d="M117.6,4.7h1.2v6.5h-1.2V4.7z"/>
		<path class="st0" d="M121.4,4.7h3.8v1.1h-2.6v1.5h2.6v1.1h-2.6V10h2.6v1.1h-3.8V4.7z"/>
		<path class="st0" d="M125.8,8.6c0-1.7,1.3-2.7,2.6-2.7c0.7,0,1.3,0.3,1.7,0.7v-2h1.2v6.5H130v-0.7c-0.4,0.5-1,0.8-1.7,0.8
			C127.1,11.3,125.8,10.3,125.8,8.6z M130.1,8.6c0-0.9-0.7-1.6-1.5-1.6c-0.9,0-1.6,0.7-1.6,1.6c0,0.9,0.7,1.6,1.6,1.6
			C129.4,10.2,130.1,9.5,130.1,8.6z"/>
		<path class="st0" d="M132.8,4c0.5,0,0.8,0.3,0.8,0.8c0,0.4-0.3,0.7-0.8,0.7c-0.5,0-0.8-0.3-0.8-0.7C132.1,4.3,132.4,4,132.8,4z
			 M132.2,6h1.2v5.2h-1.2V6z"/>
		<path class="st0" d="M134,6h0.9V5.2l1.2-0.8V6h1.1v1.1h-1.1V9c0,0.9,0.1,1,1.1,1v1.1H137c-1.6,0-2.1-0.5-2.1-2.2V7.1H134V6z"/>
		<path class="st0" d="M138.5,4c0.5,0,0.8,0.3,0.8,0.8c0,0.4-0.3,0.7-0.8,0.7c-0.5,0-0.8-0.3-0.8-0.7C137.7,4.3,138,4,138.5,4z
			 M137.9,6h1.2v5.2h-1.2V6z"/>
		<path class="st0" d="M139.7,8.6c0-1.5,1.2-2.7,2.7-2.7c1.5,0,2.7,1.2,2.7,2.7c0,1.5-1.2,2.7-2.7,2.7
			C140.9,11.3,139.7,10.1,139.7,8.6z M143.9,8.6c0-0.9-0.7-1.6-1.5-1.6c-0.9,0-1.5,0.7-1.5,1.6c0,0.9,0.6,1.6,1.5,1.6
			C143.3,10.2,143.9,9.5,143.9,8.6z"/>
		<path class="st0" d="M145.6,6h1.2v0.6c0.3-0.5,0.9-0.7,1.5-0.7c1.3,0,2,0.8,2,2.2v3.1h-1.2V8.2c0-0.8-0.4-1.3-1.2-1.3
			c-0.7,0-1.2,0.5-1.2,1.4v2.8h-1.2V6z"/>
	</g>
	<g>
		<path class="st0" d="M47.3,9.6l4.1-6h-3.9V2h6v1.6l-4.1,6h4.1v1.6h-6.1V9.6z"/>
		<path class="st0" d="M57.1,2h5.2v1.6h-3.5v2.1h3.5v1.6h-3.5v3.8h-1.7V2z"/>
		<path class="st0" d="M63,7.5c0-2.1,1.7-3.8,3.8-3.8c2.1,0,3.8,1.7,3.8,3.8c0,2.1-1.7,3.8-3.8,3.8C64.7,11.4,63,9.7,63,7.5z
			 M68.9,7.5c0-1.2-0.9-2.2-2.1-2.2c-1.2,0-2.1,1-2.1,2.2c0,1.2,0.9,2.2,2.1,2.2C68,9.8,68.9,8.8,68.9,7.5z"/>
		<path class="st0" d="M71.5,1.9h1.7v9.3h-1.7V1.9z"/>
		<path class="st0" d="M74.2,7.5c0-2.4,1.8-3.8,3.7-3.8c1,0,1.8,0.4,2.4,1V1.9h1.7v9.3h-1.7v-1c-0.5,0.7-1.4,1.1-2.4,1.1
			C76,11.4,74.2,9.9,74.2,7.5z M80.3,7.5c0-1.2-0.9-2.3-2.2-2.3c-1.3,0-2.2,1-2.2,2.3c0,1.3,1,2.3,2.2,2.3
			C79.4,9.8,80.3,8.8,80.3,7.5z"/>
	</g>
</g>
</svg>
