<?xml version="1.0" encoding="utf-8"?>
<!-- Generator: Adobe Illustrator 28.3.0, SVG Export Plug-In . SVG Version: 6.00 Build 0)  -->
<svg version="1.1" id="mologo" xmlns="http://www.w3.org/2000/svg" xmlns:xlink="http://www.w3.org/1999/xlink" x="0px" y="0px"
	 viewBox="0 0 131.7 22" style="enable-background:new 0 0 131.7 22;" xml:space="preserve">
<style type="text/css">
	.st0{fill:#A3A3A3;}
</style>
<g>
	<g>
		<g>
			<g>
				<g>
					<g>
						<g>
							<g>
								<g>
									<g>
										<path class="st0" d="M25.2,7.4c-0.8-1-2.2-1.6-3.7-1.6c-2.9,0-5.7,2.2-5.7,6c0,3.8,2.9,6,5.7,6c1.5,0,2.9-0.7,3.8-1.8v1.5
											h2.7V6h-2.7V7.4z M21.8,15.4c-2,0-3.5-1.6-3.5-3.6c0-2,1.5-3.6,3.5-3.6c2,0,3.5,1.6,3.5,3.6
											C25.3,13.7,23.8,15.4,21.8,15.4z"/>
										<path class="st0" d="M43.2,7.4c-0.8-1-2.2-1.6-3.7-1.6c-2.9,0-5.7,2.2-5.7,6c0,3.8,2.9,6,5.7,6c1.5,0,2.9-0.7,3.8-1.8v1.5
											h2.7V6h-2.7V7.4z M39.9,15.4c-2,0-3.5-1.6-3.5-3.6c0-2,1.5-3.6,3.5-3.6c2,0,3.5,1.6,3.5,3.6
											C43.3,13.7,41.8,15.4,39.9,15.4z"/>
										<polygon class="st0" points="64.8,13.8 61.5,6 58.7,6 63.4,17 61.4,21.9 64.1,21.9 70.6,6 67.8,6 										"/>
										<polygon class="st0" points="58.4,6 55.2,6 52.6,9.7 50,6 46.7,6 50.9,11.7 46.6,17.6 49.8,17.6 52.6,13.7 55.4,17.6 
											58.7,17.6 54.2,11.7 										"/>
										<rect x="29.7" y="2.9" class="st0" width="2.7" height="14.6"/>
										<path class="st0" d="M7.1,12.1h4.6c-0.5,1.9-2,3.1-4.2,3.1c-2.8,0-4.8-2.1-4.8-4.8c0-2.6,2-4.8,4.7-4.8
											c1.9,0,3.3,0.9,4.2,2.5l2.4-1.4C12.7,4.5,10.4,3,7.4,3C3.1,3,0,6.3,0,10.4c0,4,3,7.4,7.5,7.4c4.3,0,7.1-3.3,7.1-7.2V9.5
											H7.1V12.1z"/>
									</g>
								</g>
							</g>
						</g>
					</g>
				</g>
			</g>
		</g>
	</g>
	<g>
		<path class="st0" d="M74.2,15.2l2.5-1.9c0.7,1.2,1.9,2,3.2,2c1.4,0,2.2-0.9,2.2-1.9c0-1.2-1.5-1.6-3-2.1c-1.9-0.6-4.1-1.4-4.1-4.1
			c0-2.3,2-4.1,4.8-4.1c2.3,0,3.7,0.9,4.8,2.1l-2.2,1.7c-0.6-0.9-1.5-1.4-2.6-1.4c-1.3,0-2,0.7-2,1.6c0,1.1,1.4,1.5,2.9,2
			c2,0.6,4.2,1.5,4.2,4.3c0,2.3-1.8,4.5-5,4.5C77.2,17.8,75.5,16.7,74.2,15.2z"/>
		<path class="st0" d="M85.8,15.1c0-2.5,2-4,3.8-5.2c1.4-1,2.7-1.8,2.7-2.9c0-0.9-0.7-1.7-2-1.7c-1.2,0-2,0.9-2.5,2.1l-2.3-1.2
			c0.9-2,2.5-3.2,4.9-3.2c2.9,0,4.7,1.8,4.7,4.1c0,2.3-1.9,3.6-3.6,4.7c-1.5,1-2.9,1.9-3,3.3H95v2.6h-9.2V15.1z"/>
		<path class="st0" d="M102.2,14.3H96v-2.5l6.1-8.7h2.7v8.7h2.1v2.5h-2.1v3.3h-2.6V14.3z M102.2,11.8V7.2l-3.3,4.6H102.2z"/>
		<path class="st0" d="M112.7,3.2h8.2v2.6h-5.5V9h5.5v2.6h-5.5v6h-2.7V3.2z"/>
		<path class="st0" d="M122.5,3.2h8.6v2.6h-5.9V9h5.9v2.6h-5.9V15h5.9v2.6h-8.6V3.2z"/>
	</g>
</g>
</svg>
