<svg id="mologo" xmlns="http://www.w3.org/2000/svg" width="275" height="22" viewBox="0 0 275 22">
  <rect id="bg" width="275" height="22" fill="none"/>
  <g id="vector">
    <g id="galaxy" transform="translate(0 2.869)">
      <path id="패스_8479" data-name="패스 8479" d="M55.694,18.339A4.717,4.717,0,0,0,51.971,16.7,5.764,5.764,0,0,0,46.2,22.745a5.792,5.792,0,0,0,5.7,6.045c2.8,0,2.9-.683,3.757-1.776V28.55h2.664V16.939H55.66v1.4ZM52.347,26.33a3.6,3.6,0,0,1,0-7.206,3.6,3.6,0,0,1,0,7.206Z" transform="translate(-30.423 -13.866)" fill="#a3a3a3"/>
      <path id="패스_8480" data-name="패스 8480" d="M108.694,18.339a4.768,4.768,0,0,0-3.722-1.639A5.764,5.764,0,0,0,99.2,22.745a5.792,5.792,0,0,0,5.7,6.045c2.8,0,2.9-.683,3.757-1.776V28.55h2.664V16.939H108.66v1.4Zm-3.347,7.991a3.6,3.6,0,0,1,0-7.206,3.6,3.6,0,0,1,0,7.206Z" transform="translate(-65.323 -13.866)" fill="#a3a3a3"/>
      <path id="패스_8481" data-name="패스 8481" d="M178.713,25.22l-3.244-7.82H172.6l4.781,11-2.083,5.02h2.732L184.587,17.4h-2.834Z" transform="translate(-113.657 -14.326)" fill="#a3a3a3"/>
      <path id="패스_8482" data-name="패스 8482" d="M148.85,17.4h-3.142l-2.63,3.688L140.415,17.4h-3.244l4.2,5.7L137,29.011h3.278l2.766-3.859,2.834,3.859h3.278l-4.474-5.874Z" transform="translate(-90.214 -14.326)" fill="#a3a3a3"/>
      <rect id="사각형_30543" data-name="사각형 30543" width="2.698" height="14.685" transform="translate(29.779)" fill="#a3a3a3"/>
      <path id="패스_8483" data-name="패스 8483" d="M7.1,17.618h4.61a4.093,4.093,0,0,1-4.2,3.142,5.177,5.177,0,0,1-4.849-4.815A4.73,4.73,0,0,1,7.411,11.13c2.7,0,3.278.888,4.2,2.527L14,12.222A7.387,7.387,0,0,0,7.411,8.5,7.284,7.284,0,0,0,0,15.945a7.248,7.248,0,0,0,7.513,7.445c4.508,0,7.069-3.347,7.069-7.274V15.057H7.069v2.6Z" transform="translate(0 -8.466)" fill="#a3a3a3"/>
    </g>
    <rect id="line" width="0.717" height="20.695" transform="translate(153.47)" fill="#a3a3a3"/>
    <g id="ultra" transform="translate(160.027 2.356)">
      <path id="패스_8484" data-name="패스 8484" d="M468.6,9h2.834l2.732,10.143L477.206,9h2.664l3.005,10.108L485.607,9h2.732l-4.1,14.514h-2.7L478.5,13.269l-3.039,10.245h-2.732Z" transform="translate(-468.6 -8.283)" fill="#a3a3a3"/>
      <path id="패스_8485" data-name="패스 8485" d="M524.334,22.845a5.744,5.744,0,0,1,5.771-6.045c2.937,0,2.9.649,3.722,1.639v-1.4h2.7V28.65h-2.7v-1.5a4.881,4.881,0,0,1-3.791,1.742,5.84,5.84,0,0,1-5.737-6.045Zm9.63-.034a3.5,3.5,0,1,0-7,0,3.5,3.5,0,1,0,7,0Z" transform="translate(-505.278 -13.419)" fill="#a3a3a3"/>
      <path id="패스_8486" data-name="패스 8486" d="M563.8,10.52h1.981V8.744l2.7-1.844v3.62h2.356V12.91h-2.356v4.337c0,2.015.273,2.356,2.356,2.356v2.527h-.376c-3.586,0-4.679-1.161-4.679-4.849V12.91H563.8V10.52Z" transform="translate(-531.289 -6.9)" fill="#a3a3a3"/>
      <path id="패스_8487" data-name="패스 8487" d="M587.1,22.845a5.991,5.991,0,0,1,6.045-6.045c3.381,0,4.644,1.5,5.532,3.586l-2.39,1.025a3.346,3.346,0,0,0-3.108-2.083,3.862,3.862,0,0,0-3.449,3.552,3.413,3.413,0,0,0,3.449,3.517,2.946,2.946,0,0,0,3.142-2.151l2.39,1.025a5.844,5.844,0,0,1-5.566,3.654c-2.7,0-6.045-2.7-6.045-6.045Z" transform="translate(-546.632 -13.419)" fill="#a3a3a3"/>
      <path id="패스_8488" data-name="패스 8488" d="M625.3,8.5H628v4.474a4.379,4.379,0,0,1,3.483-1.639c2.869,0,4.61,1.878,4.61,4.952v6.9h-2.732V16.594c0-1.81-.888-2.937-2.63-2.937s-2.7,1.127-2.7,3.142v6.386h-2.7V8.5Z" transform="translate(-571.787 -7.954)" fill="#a3a3a3"/>
      <path id="패스_8489" data-name="패스 8489" d="M673.834,18.528V9h2.7v9.664a2.451,2.451,0,0,0,2.493,2.527,2.5,2.5,0,0,0,2.527-2.527V9h2.7v9.494c0,3.415-2.22,5.191-5.225,5.191s-5.225-1.776-5.225-5.191Z" transform="translate(-603.724 -8.283)" fill="#a3a3a3"/>
      <path id="패스_8490" data-name="패스 8490" d="M711.3,8.5H714V23.185h-2.7Z" transform="translate(-628.418 -7.954)" fill="#a3a3a3"/>
      <path id="패스_8491" data-name="패스 8491" d="M722.1,10.52h1.981V8.744l2.7-1.844v3.62h2.356V12.91h-2.356v4.337c0,2.015.273,2.356,2.356,2.356v2.527h-.376c-3.586,0-4.679-1.161-4.679-4.849V12.91H722.1V10.52Z" transform="translate(-635.53 -6.9)" fill="#a3a3a3"/>
      <path id="패스_8492" data-name="패스 8492" d="M747.634,17.5H750.3v1.742a2.964,2.964,0,0,1,2.971-1.742c1.468,0,1.537.2,2.049.512l-1.025,2.527a2.642,2.642,0,0,0-1.605-.444c-1.537,0-2.391.82-2.391,2.834v6.181h-2.7V17.5Z" transform="translate(-652.321 -13.88)" fill="#a3a3a3"/>
      <path id="패스_8493" data-name="패스 8493" d="M767.034,22.845a5.744,5.744,0,0,1,5.771-6.045c2.937,0,2.9.649,3.722,1.639v-1.4h2.7V28.65h-2.7v-1.5a4.881,4.881,0,0,1-3.791,1.742A5.84,5.84,0,0,1,767,22.845Zm9.63-.034a3.5,3.5,0,1,0-7,0,3.5,3.5,0,1,0,7,0Z" transform="translate(-665.096 -13.419)" fill="#a3a3a3"/>
    </g>
    <g id="watch7" transform="translate(73.627 2.356)">
      <path id="패스_8494" data-name="패스 8494" d="M215.6,9h2.834l2.732,10.143L224.206,9h2.664l3.005,10.108L232.607,9h2.732l-4.1,14.514h-2.7L225.5,13.269l-3.039,10.245h-2.732Z" transform="translate(-215.6 -8.283)" fill="#a3a3a3"/>
      <path id="패스_8495" data-name="패스 8495" d="M271.334,22.845a5.744,5.744,0,0,1,5.771-6.045c2.937,0,2.9.649,3.722,1.639v-1.4h2.7V28.65h-2.7v-1.5a4.881,4.881,0,0,1-3.791,1.742,5.84,5.84,0,0,1-5.737-6.045Zm9.63-.034a3.5,3.5,0,1,0-7,0,3.5,3.5,0,1,0,7,0Z" transform="translate(-252.278 -13.419)" fill="#a3a3a3"/>
      <path id="패스_8496" data-name="패스 8496" d="M310.8,10.52h1.981V8.744l2.7-1.844v3.62h2.356V12.91h-2.356v4.337c0,2.015.273,2.356,2.356,2.356v2.527h-.376c-3.586,0-4.679-1.161-4.679-4.849V12.91H310.8V10.52Z" transform="translate(-278.289 -6.9)" fill="#a3a3a3"/>
      <path id="패스_8497" data-name="패스 8497" d="M334.1,22.845a5.991,5.991,0,0,1,6.045-6.045c3.381,0,4.644,1.5,5.532,3.586l-2.391,1.025a3.345,3.345,0,0,0-3.108-2.083,3.862,3.862,0,0,0-3.449,3.552,3.413,3.413,0,0,0,3.449,3.517,2.946,2.946,0,0,0,3.142-2.151l2.391,1.025a5.844,5.844,0,0,1-5.566,3.654c-2.7,0-6.045-2.7-6.045-6.045Z" transform="translate(-293.632 -13.419)" fill="#a3a3a3"/>
      <path id="패스_8498" data-name="패스 8498" d="M372.3,8.5H375v4.474a4.379,4.379,0,0,1,3.483-1.639c2.869,0,4.61,1.878,4.61,4.952v6.9h-2.732V16.594c0-1.81-.888-2.937-2.63-2.937s-2.7,1.127-2.7,3.142v6.386h-2.7V8.5Z" transform="translate(-318.787 -7.954)" fill="#a3a3a3"/>
      <path id="패스_8499" data-name="패스 8499" d="M372.3,8.5H375v4.474a4.379,4.379,0,0,1,3.483-1.639c2.869,0,4.61,1.878,4.61,4.952v6.9h-2.732V16.594c0-1.81-.888-2.937-2.63-2.937s-2.7,1.127-2.7,3.142v6.386h-2.7V8.5Z" transform="translate(-318.787 -7.954)" fill="#a3a3a3"/>
      <path id="패스_8500" data-name="패스 8500" d="M411.718,11.6H405.4V9h9.152v2.356l-5.02,12.157h-2.869L411.718,11.6Z" transform="translate(-340.583 -8.283)" fill="#a3a3a3"/>
    </g>
  </g>
</svg>
