<svg id="Logo" xmlns="http://www.w3.org/2000/svg" width="187.714" height="19.594" viewBox="0 0 187.714 19.594">
  <g id="그룹_90978" data-name="그룹 90978" transform="translate(0 0)">
    <g id="그룹_90976" data-name="그룹 90976" transform="translate(0 0.516)">
      <path id="패스_8516" data-name="패스 8516" d="M55.68,11.455A4.8,4.8,0,0,0,51.947,9.83a5.744,5.744,0,0,0-5.757,6.055,5.778,5.778,0,0,0,5.72,6.034,4.767,4.767,0,0,0,3.77-1.765v1.53h2.681V10.066H55.68Zm-3.336,8a3.519,3.519,0,0,1-3.514-3.613,3.494,3.494,0,1,1,6.987,0,3.523,3.523,0,0,1-3.473,3.613Z" transform="translate(-30.417 -6.989)" fill="#a3a3a3"/>
      <path id="패스_8517" data-name="패스 8517" d="M108.69,11.455a4.808,4.808,0,0,0-3.732-1.625A5.746,5.746,0,0,0,99.2,15.885a5.775,5.775,0,0,0,5.716,6.034,4.757,4.757,0,0,0,3.77-1.765v1.53h2.681V10.066h-2.681v1.39Zm-3.336,8a3.519,3.519,0,0,1-3.514-3.613,3.494,3.494,0,1,1,6.987,0,3.523,3.523,0,0,1-3.473,3.613Z" transform="translate(-65.325 -6.989)" fill="#a3a3a3"/>
      <path id="패스_8518" data-name="패스 8518" d="M178.712,18.343l-3.234-7.823H172.62l4.764,11-2.087,5h2.763l6.529-16h-2.817Z" transform="translate(-113.673 -7.443)" fill="#a3a3a3"/>
      <path id="패스_8519" data-name="패스 8519" d="M148.86,10.53h-3.176L143.065,14.2l-2.643-3.671h-3.275l4.211,5.7L136.99,22.14h3.275l2.759-3.869,2.838,3.869h3.275l-4.446-5.894Z" transform="translate(-90.21 -7.45)" fill="#a3a3a3"/>
      <rect id="사각형_30546" data-name="사각형 30546" width="2.698" height="14.691" transform="translate(29.788)" fill="#a3a3a3"/>
      <path id="패스_8520" data-name="패스 8520" d="M7.086,10.731H11.71a4.1,4.1,0,0,1-4.19,3.135A4.733,4.733,0,0,1,2.677,9.044,4.726,4.726,0,0,1,7.42,4.219a4.48,4.48,0,0,1,4.187,2.52l2.38-1.427A7.374,7.374,0,0,0,7.4,1.6,7.291,7.291,0,0,0,0,9.044a7.249,7.249,0,0,0,7.523,7.444c4.525,0,7.086-3.353,7.086-7.267V8.15H7.086Z" transform="translate(0 -1.569)" fill="#a3a3a3"/>
    </g>
    <g id="그룹_90977" data-name="그룹 90977" transform="translate(73.59)">
      <path id="패스_8521" data-name="패스 8521" d="M215.5,2.15h2.821L221.063,12.3,224.1,2.15h2.66l3.019,10.111L232.5,2.15h2.722l-4.091,14.5h-2.681L225.413,6.419l-3.039,10.231h-2.742L215.5,2.15Z" transform="translate(-215.5 -1.416)" fill="#a3a3a3"/>
      <path id="패스_8522" data-name="패스 8522" d="M271.35,15.948a5.75,5.75,0,0,1,5.761-6.058,4.875,4.875,0,0,1,3.736,1.629v-1.39h2.681V21.75h-2.681V20.24a4.818,4.818,0,0,1-3.773,1.748,5.818,5.818,0,0,1-5.72-6.037Zm9.633-.041a3.5,3.5,0,1,0-6.994,0,3.535,3.535,0,0,0,3.517,3.616,3.5,3.5,0,0,0,3.476-3.616Z" transform="translate(-252.278 -6.513)" fill="#a3a3a3"/>
      <path id="패스_8523" data-name="패스 8523" d="M310.723,3.616h1.987V1.847L315.412,0V3.616h2.363v2.4h-2.363v4.351c0,2.025.277,2.343,2.363,2.343v2.524H317.4c-3.6,0-4.689-1.151-4.689-4.846V6.02H310.72v-2.4Z" transform="translate(-278.204 0)" fill="#a3a3a3"/>
      <path id="패스_8524" data-name="패스 8524" d="M334.06,15.948A5.988,5.988,0,0,1,340.1,9.89a5.9,5.9,0,0,1,5.542,3.6l-2.4,1.014a3.332,3.332,0,0,0-3.118-2.086,3.433,3.433,0,0,0-3.435,3.534,3.423,3.423,0,0,0,3.456,3.517,3.36,3.36,0,0,0,3.138-2.165l2.4,1.035a5.864,5.864,0,0,1-5.583,3.654,6,6,0,0,1-6.037-6.037Z" transform="translate(-293.574 -6.513)" fill="#a3a3a3"/>
      <path id="패스_8525" data-name="패스 8525" d="M372.213,1.57h2.681V6.04a4.357,4.357,0,0,1,3.476-1.629c2.862,0,4.607,1.868,4.607,4.965v6.891h-2.742V9.673c0-1.806-.874-2.94-2.623-2.94-1.509,0-2.7,1.134-2.7,3.159v6.376h-2.7V1.57Z" transform="translate(-318.696 -1.034)" fill="#a3a3a3"/>
      <path id="패스_8526" data-name="패스 8526" d="M420.85,11.647V2.15h2.7V11.8a2.478,2.478,0,0,0,2.5,2.544A2.512,2.512,0,0,0,428.6,11.8V2.15h2.7v9.493c0,3.418-2.223,5.2-5.225,5.2s-5.225-1.786-5.225-5.2Z" transform="translate(-350.726 -1.416)" fill="#a3a3a3"/>
      <path id="패스_8527" data-name="패스 8527" d="M458.25,1.57h2.7v14.7h-2.7Z" transform="translate(-375.355 -1.034)" fill="#a3a3a3"/>
      <path id="패스_8528" data-name="패스 8528" d="M469.013,3.616H471V1.847L473.7,0V3.616h2.363v2.4H473.7v4.351c0,2.025.277,2.343,2.363,2.343v2.524h-.379c-3.6,0-4.689-1.151-4.689-4.846V6.02H469.01v-2.4Z" transform="translate(-382.44 0)" fill="#a3a3a3"/>
      <path id="패스_8529" data-name="패스 8529" d="M494.663,10.59h2.66v1.728A2.969,2.969,0,0,1,500.3,10.59a4.1,4.1,0,0,1,2.045.5l-1.014,2.544a2.707,2.707,0,0,0-1.608-.458c-1.55,0-2.383.833-2.383,2.841v6.2H494.66V10.59Z" transform="translate(-399.331 -6.974)" fill="#a3a3a3"/>
      <path id="패스_8530" data-name="패스 8530" d="M514.04,15.948A5.75,5.75,0,0,1,519.8,9.89a4.875,4.875,0,0,1,3.736,1.629v-1.39h2.681V21.75h-2.681V20.24a4.818,4.818,0,0,1-3.773,1.748,5.818,5.818,0,0,1-5.72-6.037Zm9.633-.041a3.5,3.5,0,1,0-6.994,0,3.535,3.535,0,0,0,3.517,3.616,3.5,3.5,0,0,0,3.476-3.616Z" transform="translate(-412.093 -6.513)" fill="#a3a3a3"/>
    </g>
  </g>
</svg>
