<svg id="Logo" xmlns="http://www.w3.org/2000/svg" width="117.955" height="12.313" viewBox="0 0 117.955 12.313">
  <g id="그룹_90975" data-name="그룹 90975" transform="translate(0 0)">
    <g id="그룹_90973" data-name="그룹 90973" transform="translate(0 0.324)">
      <path id="패스_8501" data-name="패스 8501" d="M52.153,10.851A3.018,3.018,0,0,0,49.808,9.83a3.609,3.609,0,0,0-3.618,3.8,3.631,3.631,0,0,0,3.594,3.792,3,3,0,0,0,2.369-1.109v.961h1.684v-7.3H52.153Zm-2.1,5.028a2.259,2.259,0,1,1,2.182-2.27,2.211,2.211,0,0,1-2.182,2.27Z" transform="translate(-36.279 -8.045)" fill="#a3a3a3"/>
      <path id="패스_8502" data-name="패스 8502" d="M105.163,10.851a3.021,3.021,0,0,0-2.345-1.021,3.611,3.611,0,0,0-3.618,3.8,3.629,3.629,0,0,0,3.592,3.792,2.989,2.989,0,0,0,2.369-1.109v.961h1.684v-7.3h-1.684v.873Zm-2.1,5.028a2.211,2.211,0,0,1-2.208-2.27,2.2,2.2,0,1,1,4.39,0,2.213,2.213,0,0,1-2.182,2.27Z" transform="translate(-77.914 -8.045)" fill="#a3a3a3"/>
      <path id="패스_8503" data-name="패스 8503" d="M176.448,15.436l-2.032-4.916h-1.8l2.993,6.912L174.3,20.575h1.736l4.1-10.055h-1.77Z" transform="translate(-135.579 -8.587)" fill="#a3a3a3"/>
      <path id="패스_8504" data-name="패스 8504" d="M144.449,10.53h-2l-1.646,2.307-1.661-2.307h-2.058l2.646,3.579-2.744,3.717h2.058l1.734-2.431,1.783,2.431h2.058l-2.794-3.7Z" transform="translate(-107.595 -8.594)" fill="#a3a3a3"/>
      <rect id="사각형_30545" data-name="사각형 30545" width="1.695" height="9.231" transform="translate(18.718)" fill="#a3a3a3"/>
      <path id="패스_8505" data-name="패스 8505" d="M4.453,7.338H7.358a2.577,2.577,0,0,1-2.633,1.97,2.974,2.974,0,0,1-3.043-3.03A2.969,2.969,0,0,1,4.663,3.246,2.815,2.815,0,0,1,7.294,4.829l1.5-.9A4.634,4.634,0,0,0,4.652,1.6,4.581,4.581,0,0,0,0,6.278a4.555,4.555,0,0,0,4.727,4.678A4.315,4.315,0,0,0,9.18,6.389V5.716H4.453V7.338Z" transform="translate(0 -1.581)" fill="#a3a3a3"/>
    </g>
    <g id="그룹_90974" data-name="그룹 90974" transform="translate(46.242)">
      <path id="패스_8506" data-name="패스 8506" d="M215.5,2.15h1.772L219,8.529l1.91-6.379h1.672l1.9,6.354,1.71-6.354h1.71l-2.571,9.111h-1.684l-1.91-6.429-1.91,6.429H218.1L215.5,2.15Z" transform="translate(-215.5 -1.689)" fill="#a3a3a3"/>
      <path id="패스_8507" data-name="패스 8507" d="M271.35,13.7a3.613,3.613,0,0,1,3.62-3.807,3.063,3.063,0,0,1,2.347,1.024V10.04H279v7.3h-1.684v-.948a3.027,3.027,0,0,1-2.371,1.1,3.656,3.656,0,0,1-3.594-3.794Zm6.053-.026a2.2,2.2,0,1,0-4.395,0,2.221,2.221,0,0,0,2.21,2.272A2.2,2.2,0,0,0,277.4,13.671Z" transform="translate(-259.366 -7.768)" fill="#a3a3a3"/>
      <path id="패스_8508" data-name="패스 8508" d="M310.722,2.272h1.249V1.161L313.668,0V2.272h1.485V3.783h-1.485V6.517c0,1.272.174,1.472,1.485,1.472V9.575h-.238c-2.259,0-2.946-.723-2.946-3.045V3.783H310.72V2.272Z" transform="translate(-290.288 0)" fill="#a3a3a3"/>
      <path id="패스_8509" data-name="패스 8509" d="M334.06,13.7a3.763,3.763,0,0,1,3.794-3.807,3.7,3.7,0,0,1,3.483,2.26l-1.511.637a2.094,2.094,0,0,0-1.959-1.311,2.216,2.216,0,0,0,.013,4.431,2.111,2.111,0,0,0,1.972-1.36l1.511.65a3.685,3.685,0,0,1-3.508,2.3A3.768,3.768,0,0,1,334.06,13.7Z" transform="translate(-308.619 -7.768)" fill="#a3a3a3"/>
      <path id="패스_8510" data-name="패스 8510" d="M372.212,1.57H373.9V4.379a2.738,2.738,0,0,1,2.184-1.024c1.8,0,2.895,1.174,2.895,3.12v4.33h-1.723V6.662c0-1.135-.549-1.848-1.648-1.848a1.749,1.749,0,0,0-1.7,1.985v4.006h-1.7V1.57Z" transform="translate(-338.583 -1.233)" fill="#a3a3a3"/>
      <path id="패스_8511" data-name="패스 8511" d="M420.85,8.117V2.15h1.7V8.216a1.557,1.557,0,0,0,1.573,1.6,1.578,1.578,0,0,0,1.6-1.6V2.15h1.7V8.115a3.283,3.283,0,0,1-6.566,0Z" transform="translate(-376.786 -1.689)" fill="#a3a3a3"/>
      <path id="패스_8512" data-name="패스 8512" d="M458.25,1.57h1.7v9.238h-1.7Z" transform="translate(-406.161 -1.233)" fill="#a3a3a3"/>
      <path id="패스_8513" data-name="패스 8513" d="M469.012,2.272h1.249V1.161L471.958,0V2.272h1.485V3.783h-1.485V6.517c0,1.272.174,1.472,1.485,1.472V9.575h-.238c-2.26,0-2.946-.723-2.946-3.045V3.783H469.01V2.272Z" transform="translate(-414.612 0)" fill="#a3a3a3"/>
      <path id="패스_8514" data-name="패스 8514" d="M494.662,10.59h1.672v1.086A1.866,1.866,0,0,1,498.2,10.59a2.577,2.577,0,0,1,1.285.311l-.637,1.6a1.7,1.7,0,0,0-1.011-.288c-.974,0-1.5.524-1.5,1.785v3.895H494.66v-7.3Z" transform="translate(-434.758 -8.318)" fill="#a3a3a3"/>
      <path id="패스_8515" data-name="패스 8515" d="M514.04,13.7a3.613,3.613,0,0,1,3.62-3.807,3.064,3.064,0,0,1,2.348,1.024V10.04h1.684v7.3h-1.684v-.948a3.028,3.028,0,0,1-2.371,1.1,3.656,3.656,0,0,1-3.594-3.794Zm6.053-.026a2.2,2.2,0,1,0-4.394,0,2.221,2.221,0,0,0,2.21,2.272A2.2,2.2,0,0,0,520.093,13.671Z" transform="translate(-449.979 -7.768)" fill="#a3a3a3"/>
    </g>
  </g>
</svg>
