<?xml version="1.0" encoding="utf-8"?>
<!-- Generator: Adobe Illustrator 28.3.0, SVG Export Plug-In . SVG Version: 6.00 Build 0)  -->
<svg version="1.1" id="mologo" xmlns="http://www.w3.org/2000/svg" xmlns:xlink="http://www.w3.org/1999/xlink" x="0px" y="0px"
	 viewBox="0 0 235.9 22" style="enable-background:new 0 0 235.9 22;" xml:space="preserve">
<style type="text/css">
	.st0{fill:#A3A3A3;}
</style>
<g>
	<g>
		<g>
			<g>
				<g>
					<g>
						<g>
							<g>
								<g>
									<g>
										<g>
											<path class="st0" d="M25.1,7.4c-0.8-1-2.2-1.6-3.7-1.6c-2.9,0-5.7,2.2-5.7,6c0,3.8,2.9,6,5.7,6c1.5,0,2.9-0.7,3.7-1.8
												v1.5h2.7V6h-2.7V7.4z M21.8,15.3c-2,0-3.5-1.6-3.5-3.6c0-2,1.5-3.6,3.5-3.6c2,0,3.5,1.6,3.5,3.6
												C25.2,13.7,23.8,15.3,21.8,15.3z"/>
											<path class="st0" d="M43.1,7.4c-0.8-1-2.2-1.6-3.7-1.6c-2.9,0-5.7,2.2-5.7,6c0,3.8,2.9,6,5.7,6c1.5,0,2.9-0.7,3.7-1.8
												v1.5h2.7V6h-2.7V7.4z M39.8,15.3c-2,0-3.5-1.6-3.5-3.6c0-2,1.5-3.6,3.5-3.6c2,0,3.5,1.6,3.5,3.6
												C43.2,13.7,41.8,15.3,39.8,15.3z"/>
											<polygon class="st0" points="64.6,13.8 61.4,6 58.6,6 63.3,16.9 61.2,21.9 64,21.9 70.5,6 67.7,6 											"/>
											<polygon class="st0" points="58.3,6 55.1,6 52.5,9.6 49.9,6 46.7,6 50.8,11.7 46.5,17.5 49.7,17.5 52.5,13.7 55.3,17.5 
												58.6,17.5 54.1,11.7 											"/>
											<rect x="29.6" y="2.9" class="st0" width="2.7" height="14.6"/>
											<path class="st0" d="M7,12h4.6c-0.5,1.9-2,3.1-4.2,3.1c-2.8,0-4.8-2.1-4.8-4.8c0-2.6,2-4.8,4.7-4.8
												c1.9,0,3.3,0.9,4.2,2.5l2.4-1.4C12.7,4.5,10.3,3,7.4,3C3.1,3,0,6.3,0,10.4c0,4,3,7.4,7.5,7.4c4.3,0,7-3.3,7-7.2V9.5H7V12
												z"/>
										</g>
									</g>
								</g>
							</g>
						</g>
					</g>
				</g>
			</g>
		</g>
	</g>
	<g>
		<path class="st0" d="M135.7,15.9l1.7-1.4c0.5,0.9,1.3,1.4,2.2,1.4c1,0,1.5-0.6,1.5-1.4c0-0.9-1-1.1-2.1-1.5
			c-1.4-0.4-2.9-1-2.9-2.9c0-1.6,1.4-2.9,3.3-2.9c1.6,0,2.6,0.6,3.4,1.5l-1.5,1.2c-0.4-0.6-1-1-1.8-1c-0.9,0-1.4,0.5-1.4,1.1
			c0,0.8,1,1.1,2.1,1.4c1.4,0.4,2.9,1.1,2.9,3c0,1.6-1.3,3.1-3.5,3.1C137.9,17.7,136.7,16.9,135.7,15.9z"/>
		<path class="st0" d="M146.1,16.6v4.7h-1.9V9.4h1.9v1.1c0.6-0.7,1.5-1.2,2.6-1.2c2,0,4,1.5,4,4.2c0,2.6-2,4.2-4,4.2
			C147.6,17.7,146.6,17.3,146.1,16.6z M150.8,13.5c0-1.4-1.1-2.5-2.4-2.5c-1.4,0-2.4,1.1-2.4,2.5c0,1.4,1,2.5,2.4,2.5
			C149.8,16,150.8,14.9,150.8,13.5z"/>
		<path class="st0" d="M153.3,13.5c0-2.4,1.8-4.2,4.2-4.2c2.4,0,4.2,1.8,4.2,4.2v0.7h-6.6c0.2,1.1,1.2,1.9,2.5,1.9
			c1,0,1.9-0.6,2.2-1.4l1.5,0.9c-0.7,1.3-2,2.2-3.8,2.2C155,17.7,153.3,15.8,153.3,13.5z M155.2,12.6h4.6c-0.3-1.1-1.1-1.7-2.3-1.7
			C156.4,10.9,155.5,11.6,155.2,12.6z"/>
		<path class="st0" d="M162.3,13.5c0-2.4,1.9-4.2,4.2-4.2c1.8,0,3.2,1,3.9,2.5l-1.7,0.7c-0.4-0.9-1.2-1.5-2.2-1.5
			c-1.4,0-2.4,1.1-2.4,2.5c0,1.3,1,2.4,2.4,2.4c1,0,1.8-0.6,2.2-1.5l1.7,0.7c-0.6,1.5-2,2.5-3.9,2.5
			C164.2,17.7,162.3,15.8,162.3,13.5z"/>
		<path class="st0" d="M172.2,6.3c0.7,0,1.2,0.5,1.2,1.2c0,0.7-0.4,1.2-1.2,1.2c-0.7,0-1.2-0.5-1.2-1.2C171,6.8,171.5,6.3,172.2,6.3
			z M171.3,9.4h1.9v8.1h-1.9V9.4z"/>
		<path class="st0" d="M174.2,13.5c0-2.7,2-4.2,4-4.2c1.1,0,2,0.4,2.6,1.1v-1h1.9v8.1h-1.9v-1.1c-0.6,0.7-1.6,1.2-2.6,1.2
			C176.2,17.7,174.2,16.1,174.2,13.5z M180.9,13.5c0-1.4-1-2.5-2.4-2.5c-1.4,0-2.4,1.1-2.4,2.5c0,1.4,1.1,2.5,2.4,2.5
			C179.8,16,180.9,14.9,180.9,13.5z"/>
		<path class="st0" d="M184.1,7.3h1.9v10.2h-1.9V7.3z"/>
		<path class="st0" d="M190,7.4h6v1.8h-4.1v2.3h4.1v1.8h-4.1v2.4h4.1v1.8h-6V7.4z"/>
		<path class="st0" d="M196.9,13.5c0-2.7,2-4.2,4-4.2c1.1,0,2,0.4,2.6,1.1V7.3h1.9v10.2h-1.9v-1.1c-0.6,0.7-1.6,1.2-2.6,1.2
			C198.9,17.7,196.9,16.1,196.9,13.5z M203.6,13.5c0-1.4-1-2.5-2.4-2.5c-1.4,0-2.4,1.1-2.4,2.5c0,1.4,1.1,2.5,2.4,2.5
			C202.6,16,203.6,14.9,203.6,13.5z"/>
		<path class="st0" d="M207.9,6.3c0.7,0,1.2,0.5,1.2,1.2c0,0.7-0.4,1.2-1.2,1.2c-0.7,0-1.2-0.5-1.2-1.2
			C206.8,6.8,207.2,6.3,207.9,6.3z M207,9.4h1.9v8.1H207V9.4z"/>
		<path class="st0" d="M209.9,9.4h1.4V8.2l1.9-1.3v2.5h1.6v1.7h-1.6v3c0,1.4,0.2,1.6,1.6,1.6v1.8h-0.3c-2.5,0-3.3-0.8-3.3-3.4v-3
			h-1.4V9.4z"/>
		<path class="st0" d="M216.8,6.3c0.7,0,1.2,0.5,1.2,1.2c0,0.7-0.4,1.2-1.2,1.2c-0.7,0-1.2-0.5-1.2-1.2
			C215.6,6.8,216.1,6.3,216.8,6.3z M215.9,9.4h1.9v8.1h-1.9V9.4z"/>
		<path class="st0" d="M218.8,13.5c0-2.4,1.9-4.2,4.2-4.2c2.3,0,4.2,1.9,4.2,4.2c0,2.3-1.9,4.2-4.2,4.2
			C220.6,17.7,218.8,15.8,218.8,13.5z M225.3,13.5c0-1.4-1-2.5-2.4-2.5c-1.3,0-2.4,1.1-2.4,2.5c0,1.3,1,2.4,2.4,2.4
			C224.3,15.9,225.3,14.8,225.3,13.5z"/>
		<path class="st0" d="M228,9.4h1.9v1c0.5-0.7,1.4-1.2,2.4-1.2c2,0,3.2,1.3,3.2,3.5v4.8h-1.9v-4.6c0-1.2-0.6-2-1.8-2
			c-1.1,0-1.9,0.8-1.9,2.2v4.4H228V9.4z"/>
	</g>
	<g>
		<path class="st0" d="M74.1,15.1l6.4-9.4h-6.2V3.2h9.3v2.4L77.2,15h6.4v2.6h-9.5V15.1z"/>
		<path class="st0" d="M89.4,3.2h8.2v2.6h-5.5V9h5.5v2.6h-5.5v6h-2.7V3.2z"/>
		<path class="st0" d="M98.6,11.8c0-3.4,2.6-6,6-6c3.3,0,6,2.7,6,6c0,3.3-2.7,6-6,6C101.2,17.8,98.6,15.1,98.6,11.8z M107.9,11.8
			c0-1.9-1.5-3.5-3.4-3.5c-1.9,0-3.4,1.6-3.4,3.5c0,1.9,1.4,3.5,3.4,3.5C106.4,15.3,107.9,13.7,107.9,11.8z"/>
		<path class="st0" d="M112,3h2.7v14.6H112V3z"/>
		<path class="st0" d="M116.1,11.8c0-3.8,2.8-6,5.7-6c1.5,0,2.9,0.6,3.7,1.6V3h2.7v14.6h-2.7v-1.5c-0.8,1.1-2.2,1.7-3.8,1.7
			C119,17.8,116.1,15.6,116.1,11.8z M125.7,11.8c0-2-1.5-3.6-3.5-3.6c-2,0-3.5,1.6-3.5,3.6c0,2,1.5,3.6,3.5,3.6
			C124.2,15.4,125.7,13.8,125.7,11.8z"/>
	</g>
</g>
</svg>
