<svg xmlns="http://www.w3.org/2000/svg" width="152.003" height="14.035" viewBox="0 0 152.003 14.035">
  <g id="buds3lbuds3pro" transform="translate(0.002)">
    <g id="그룹_1" data-name="그룹 1" transform="translate(0 1.844)">
      <path id="패스_1" data-name="패스 1" d="M52.282,17.756a3.093,3.093,0,0,0-2.4-1.036,3.674,3.674,0,0,0-3.7,3.86,3.7,3.7,0,0,0,3.672,3.847,3.068,3.068,0,0,0,2.42-1.126v.975H54v-7.4H52.282v.886Zm-2.142,5.1a2.291,2.291,0,1,1,2.229-2.3,2.251,2.251,0,0,1-2.229,2.3Z" transform="translate(-36.065 -14.898)" fill="#a3a3a3"/>
      <path id="패스_2" data-name="패스 2" d="M105.292,17.756a3.1,3.1,0,0,0-2.4-1.036,3.675,3.675,0,0,0-3.7,3.86,3.694,3.694,0,0,0,3.67,3.847,3.062,3.062,0,0,0,2.42-1.126v.975H107v-7.4H105.29v.886Zm-2.142,5.1a2.248,2.248,0,1,1,1.6-.683,2.251,2.251,0,0,1-1.6.683Z" transform="translate(-77.455 -14.898)" fill="#a3a3a3"/>
      <path id="패스_3" data-name="패스 3" d="M176.531,22.44l-2.076-5.02H172.62l3.058,7.058-1.339,3.211h1.773L180.3,17.42h-1.808Z" transform="translate(-134.781 -15.498)" fill="#a3a3a3"/>
      <path id="패스_4" data-name="패스 4" d="M144.61,17.42h-2.039l-1.681,2.342-1.7-2.342h-2.1l2.7,3.632-2.8,3.77h2.1l1.771-2.468,1.822,2.468h2.1l-2.854-3.759Z" transform="translate(-106.961 -15.445)" fill="#a3a3a3"/>
      <rect id="사각형_1" data-name="사각형 1" width="1.732" height="9.43" transform="translate(19.121)" fill="#a3a3a3"/>
      <path id="패스_5" data-name="패스 5" d="M4.549,14.352H7.517a2.632,2.632,0,0,1-2.69,2.012,3.1,3.1,0,0,1-.064-6.193A2.876,2.876,0,0,1,7.45,11.789l1.528-.916A4.741,4.741,0,0,0,4.748,8.49,4.681,4.681,0,0,0,0,13.271,4.652,4.652,0,0,0,4.829,18.05a4.408,4.408,0,0,0,4.549-4.665V12.7H4.549v1.657Z" transform="translate(0 -8.472)" fill="#a3a3a3"/>
    </g>
    <g id="그룹_5" data-name="그룹 5" transform="translate(47.849)">
      <g id="그룹_2" data-name="그룹 2" transform="translate(0 1.854)">
        <path id="패스_6" data-name="패스 6" d="M220.91,9.05h2.933c2.041,0,3.238.913,3.238,2.587a1.971,1.971,0,0,1-1.019,1.8,2.171,2.171,0,0,1,1.353,2.129c0,1.826-1.287,2.737-3.341,2.737H220.91Zm1.734,1.585v2.1h1.2c1.1,0,1.493-.445,1.493-1.1s-.434-1-1.493-1h-1.2Zm0,3.714V16.72h1.427c1.046,0,1.594-.432,1.594-1.192s-.381-1.179-1.67-1.179h-1.353Z" transform="translate(-220.91 -8.921)" fill="#a3a3a3"/>
        <path id="패스_7" data-name="패스 7" d="M261.7,24.94h-1.708v-.855a2.575,2.575,0,0,1-2.142,1.006c-1.76,0-2.869-1.2-2.869-3.187V17.48h1.747v4.246c0,1.149.511,1.874,1.594,1.874.943,0,1.657-.728,1.657-2.028V17.48H261.7Z" transform="translate(-247.512 -15.556)" fill="#a3a3a3"/>
        <path id="패스_8" data-name="패스 8" d="M289.94,14.141a3.68,3.68,0,0,1,3.7-3.867,3.116,3.116,0,0,1,2.385,1.027V8.46h1.734v9.384h-1.721V16.88A3.1,3.1,0,0,1,293.614,18a3.724,3.724,0,0,1-3.672-3.854Zm6.184-.024a2.239,2.239,0,1,0-.628,1.626A2.244,2.244,0,0,0,296.124,14.117Z" transform="translate(-274.808 -8.46)" fill="#a3a3a3"/>
        <path id="패스_9" data-name="패스 9" d="M328.98,22.689l1.594-.765a1.945,1.945,0,0,0,1.8,1.083c.8,0,1.276-.421,1.276-.905,0-.535-.829-.662-1.747-.855-1.289-.254-2.613-.688-2.613-2.245,0-1.2,1.149-2.3,2.933-2.282a3.322,3.322,0,0,1,3.047,1.543L333.8,19a1.768,1.768,0,0,0-1.58-.855c-.815,0-1.2.381-1.2.8,0,.5.6.625,1.708.866,1.223.254,2.626.675,2.626,2.245,0,1.046-.932,2.449-3.06,2.435a3.391,3.391,0,0,1-3.314-1.811Z" transform="translate(-305.29 -14.962)" fill="#a3a3a3"/>
        <path id="패스_10" data-name="패스 10" d="M359.63,16.686l1.5-1.116a1.7,1.7,0,0,0,1.466.837,1.235,1.235,0,0,0,1.377-1.229c0-.774-.651-1.28-1.594-1.28h-.956V12.313h.956c1.008,0,1.48-.571,1.48-1.229a1.162,1.162,0,0,0-1.313-1.116,1.473,1.473,0,0,0-1.416.887l-1.48-.761a3.207,3.207,0,0,1,2.869-1.624c1.811,0,3.023,1,3.023,2.6a2.373,2.373,0,0,1-1.059,1.99,2.358,2.358,0,0,1,1.223,2.117,2.767,2.767,0,0,1-3.1,2.8,3.692,3.692,0,0,1-2.976-1.291Z" transform="translate(-329.222 -8.468)" fill="#a3a3a3"/>
      </g>
      <rect id="사각형_2" data-name="사각형 2" width="0.467" height="13.237" transform="translate(39.847)" fill="#a3a3a3"/>
      <g id="그룹_3" data-name="그룹 3" transform="translate(44.413 1.854)">
        <path id="패스_11" data-name="패스 11" d="M423.52,9.05h2.933c2.041,0,3.238.913,3.238,2.587a1.971,1.971,0,0,1-1.019,1.8,2.171,2.171,0,0,1,1.353,2.129c0,1.826-1.287,2.737-3.341,2.737H423.52Zm1.734,1.585v2.1h1.2c1.1,0,1.493-.445,1.493-1.1s-.434-1-1.493-1h-1.2Zm0,3.714V16.72h1.427c1.046,0,1.594-.432,1.594-1.192s-.381-1.179-1.67-1.179h-1.353Z" transform="translate(-423.52 -8.921)" fill="#a3a3a3"/>
        <path id="패스_12" data-name="패스 12" d="M464.309,24.94H462.6v-.855a2.575,2.575,0,0,1-2.142,1.006c-1.76,0-2.869-1.2-2.869-3.187V17.48h1.747v4.246c0,1.149.511,1.874,1.594,1.874.943,0,1.657-.728,1.657-2.028V17.48h1.721Z" transform="translate(-450.122 -15.556)" fill="#a3a3a3"/>
        <path id="패스_13" data-name="패스 13" d="M492.55,14.141a3.68,3.68,0,0,1,3.7-3.867,3.116,3.116,0,0,1,2.385,1.027V8.46h1.734v9.384h-1.721V16.88A3.1,3.1,0,0,1,496.224,18a3.724,3.724,0,0,1-3.672-3.854Zm6.184-.024a2.239,2.239,0,1,0-.628,1.626,2.244,2.244,0,0,0,.628-1.626Z" transform="translate(-477.418 -8.46)" fill="#a3a3a3"/>
        <path id="패스_14" data-name="패스 14" d="M531.58,22.689l1.594-.765a1.945,1.945,0,0,0,1.8,1.083c.8,0,1.276-.421,1.276-.905,0-.535-.829-.662-1.747-.855-1.289-.254-2.613-.688-2.613-2.245,0-1.2,1.149-2.3,2.933-2.282a3.322,3.322,0,0,1,3.047,1.543L536.4,19a1.768,1.768,0,0,0-1.581-.855c-.815,0-1.2.381-1.2.8,0,.5.6.625,1.708.866,1.223.254,2.626.675,2.626,2.245,0,1.046-.932,2.449-3.06,2.435a3.391,3.391,0,0,1-3.314-1.811Z" transform="translate(-507.893 -14.962)" fill="#a3a3a3"/>
        <path id="패스_15" data-name="패스 15" d="M562.24,16.686l1.5-1.116a1.7,1.7,0,0,0,1.466.837,1.235,1.235,0,0,0,1.377-1.229c0-.774-.651-1.28-1.594-1.28h-.956V12.313h.956c1.008,0,1.48-.571,1.48-1.229a1.162,1.162,0,0,0-1.313-1.116,1.473,1.473,0,0,0-1.416.887l-1.48-.761a3.207,3.207,0,0,1,2.869-1.624c1.811,0,3.023,1,3.023,2.6a2.373,2.373,0,0,1-1.059,1.99,2.358,2.358,0,0,1,1.223,2.117,2.767,2.767,0,0,1-3.1,2.8,3.692,3.692,0,0,1-2.976-1.291Z" transform="translate(-531.832 -8.468)" fill="#a3a3a3"/>
      </g>
      <g id="그룹_4" data-name="그룹 4" transform="translate(84.462 1.984)">
        <path id="패스_16" data-name="패스 16" d="M606.22,9.05h3.187a3.3,3.3,0,0,1-.013,6.6h-1.44V18.3H606.22Zm1.734,1.6v3.411h1.326a1.7,1.7,0,1,0,0-3.409h-1.326Z" transform="translate(-606.22 -9.05)" fill="#a3a3a3"/>
        <path id="패스_17" data-name="패스 17" d="M639.252,17.48h1.708v1.109a1.906,1.906,0,0,1,1.911-1.109,2.633,2.633,0,0,1,1.313.318l-.651,1.633a1.738,1.738,0,0,0-1.032-.294c-1,0-1.53.535-1.53,1.824V24.94H639.25V17.48Z" transform="translate(-632.01 -15.685)" fill="#a3a3a3"/>
        <path id="패스_18" data-name="패스 18" d="M660.78,20.669a3.85,3.85,0,1,1,1.124,2.745,3.865,3.865,0,0,1-1.124-2.745Zm6.032,0a2.17,2.17,0,1,0-1.056,1.957,2.17,2.17,0,0,0,1.056-1.957Z" transform="translate(-648.82 -15.139)" fill="#a3a3a3"/>
      </g>
    </g>
  </g>
</svg>
