<svg xmlns="http://www.w3.org/2000/svg" xmlns:xlink="http://www.w3.org/1999/xlink" width="104" height="18.732" viewBox="0 0 104 18.732">
  <defs>
    <clipPath id="clip-path">
      <rect id="사각형_30543" data-name="사각형 30543" width="104" height="18.732" fill="none"/>
    </clipPath>
  </defs>
  <g id="그룹_90968" data-name="그룹 90968" transform="translate(-1055 -305)">
    <g id="그룹_90967" data-name="그룹 90967" transform="translate(1055 305)" clip-path="url(#clip-path)">
      <path id="패스_8469" data-name="패스 8469" d="M428.818,24.311h1.728v-1.7h1.514v1.7h1.715v1.541H432.06v1.715h-1.514V25.852h-1.728Z" transform="translate(-329.775 -15.902)" fill="#a3a3a3"/>
      <path id="패스_8470" data-name="패스 8470" d="M101.007,24.091a4.608,4.608,0,0,1-2.239-.5,5.71,5.71,0,0,1-1.57-1.25l1.657-1.31a2.762,2.762,0,0,0,.922.982,2.256,2.256,0,0,0,1.216.341,1.733,1.733,0,0,0,.635-.107,1.449,1.449,0,0,0,.468-.287,1.125,1.125,0,0,0,.288-.421,1.354,1.354,0,0,0,.093-.495.8.8,0,0,0-.174-.521,1.512,1.512,0,0,0-.455-.367,3.813,3.813,0,0,0-.648-.274q-.368-.12-.755-.24-.494-.161-.989-.347a3.28,3.28,0,0,1-.889-.5,2.475,2.475,0,0,1-.642-.775,2.429,2.429,0,0,1-.247-1.156,2.527,2.527,0,0,1,.241-1.1,2.722,2.722,0,0,1,.675-.889,3.184,3.184,0,0,1,1.022-.595,3.771,3.771,0,0,1,1.3-.214,4.871,4.871,0,0,1,1.062.107,4.151,4.151,0,0,1,.869.294,3.7,3.7,0,0,1,.722.448,6.191,6.191,0,0,1,.622.568l-1.5,1.136a2.007,2.007,0,0,0-1.764-.936A1.447,1.447,0,0,0,99.911,16a1.03,1.03,0,0,0-.347.788.766.766,0,0,0,.161.5,1.463,1.463,0,0,0,.434.354,3.677,3.677,0,0,0,.635.274l.762.254q.494.161,1,.368a3.706,3.706,0,0,1,.909.535,2.547,2.547,0,0,1,.661.809,2.494,2.494,0,0,1,.254,1.176,2.95,2.95,0,0,1-.882,2.092,3.278,3.278,0,0,1-1.056.682,3.707,3.707,0,0,1-1.43.261" transform="translate(-96.546 -9.893)" fill="#a3a3a3"/>
      <path id="패스_8471" data-name="패스 8471" d="M126.948,28.647a3.744,3.744,0,0,1-1.4-.274,3.834,3.834,0,0,1-1.236-.8,3.924,3.924,0,0,1-.882-1.276,4.2,4.2,0,0,1-.334-1.717,4.313,4.313,0,0,1,.327-1.731,3.9,3.9,0,0,1,.869-1.276,3.752,3.752,0,0,1,1.236-.8,3.9,3.9,0,0,1,1.443-.274,3.457,3.457,0,0,1,1.43.294,2.993,2.993,0,0,1,1.082.8v-.935h1.8v7.819h-1.8V27.472a2.964,2.964,0,0,1-1.1.862,3.354,3.354,0,0,1-1.443.314m.294-1.657a2.316,2.316,0,0,0,.929-.187,2.15,2.15,0,0,0,.742-.521,2.58,2.58,0,0,0,.488-.775,2.485,2.485,0,0,0,.18-.949,2.45,2.45,0,0,0-.18-.935,2.493,2.493,0,0,0-.488-.768,2.2,2.2,0,0,0-.742-.514,2.371,2.371,0,0,0-2.613.508,2.291,2.291,0,0,0-.5.762,2.485,2.485,0,0,0-.18.949,2.533,2.533,0,0,0,.18.956,2.334,2.334,0,0,0,1.25,1.29,2.3,2.3,0,0,0,.935.187" transform="translate(-114.762 -14.423)" fill="#a3a3a3"/>
      <path id="패스_8472" data-name="패스 8472" d="M154.406,20.669H156.2v.909a2.68,2.68,0,0,1,.942-.782,2.82,2.82,0,0,1,1.29-.288,3.156,3.156,0,0,1,1.557.355,2.454,2.454,0,0,1,.982,1,2.965,2.965,0,0,1,1.063-.983,3.506,3.506,0,0,1,3.883.508,3.417,3.417,0,0,1,.8,2.4v4.7h-1.845V23.93a2.022,2.022,0,0,0-.427-1.357,1.579,1.579,0,0,0-1.27-.5,1.646,1.646,0,0,0-1.23.508,2.124,2.124,0,0,0-.494,1.537v4.37H159.62V23.876a1.963,1.963,0,0,0-.414-1.324,1.533,1.533,0,0,0-1.23-.481,1.679,1.679,0,0,0-1.263.521,2.177,2.177,0,0,0-.5,1.564v4.33h-1.8Z" transform="translate(-136.78 -14.423)" fill="#a3a3a3"/>
      <path id="패스_8473" data-name="패스 8473" d="M201.035,28.616a4.294,4.294,0,0,1-2.152-.488,3.292,3.292,0,0,1-1.323-1.41l1.671-.8a2.056,2.056,0,0,0,.762.842,2.107,2.107,0,0,0,1.122.294,1.528,1.528,0,0,0,1-.281.848.848,0,0,0,.334-.668.439.439,0,0,0-.154-.347,1.423,1.423,0,0,0-.4-.234,3.217,3.217,0,0,0-.581-.167q-.334-.067-.7-.147a8.317,8.317,0,0,1-1-.247,3.387,3.387,0,0,1-.876-.414,2.049,2.049,0,0,1-.628-.668,1.984,1.984,0,0,1-.241-1.023,2.016,2.016,0,0,1,.214-.9,2.344,2.344,0,0,1,.615-.768,3.025,3.025,0,0,1,.969-.528,3.941,3.941,0,0,1,1.276-.194,3.992,3.992,0,0,1,1.958.434,3.282,3.282,0,0,1,1.236,1.183l-1.537.775a1.751,1.751,0,0,0-.668-.655,1.981,1.981,0,0,0-.989-.241,1.472,1.472,0,0,0-.949.254.747.747,0,0,0-.307.588.582.582,0,0,0,.455.555,10.354,10.354,0,0,0,1.337.354q.481.107.969.254a3.448,3.448,0,0,1,.889.407,2.068,2.068,0,0,1,.648.668,1.941,1.941,0,0,1,.247,1.023,2.228,2.228,0,0,1-.187.862,2.487,2.487,0,0,1-.581.829,3.033,3.033,0,0,1-1,.621,3.876,3.876,0,0,1-1.443.241" transform="translate(-167.131 -14.392)" fill="#a3a3a3"/>
      <path id="패스_8474" data-name="패스 8474" d="M229.513,28.868h-1.791v-.9a2.637,2.637,0,0,1-.935.775,2.9,2.9,0,0,1-1.31.28,3.274,3.274,0,0,1-1.25-.227,2.591,2.591,0,0,1-.949-.661,2.935,2.935,0,0,1-.6-1.049,4.38,4.38,0,0,1-.207-1.4V21.049H224.3V25.5a2.3,2.3,0,0,0,.408,1.437,1.5,1.5,0,0,0,1.263.528,1.6,1.6,0,0,0,1.243-.548,2.276,2.276,0,0,0,.495-1.577V21.05h1.8Z" transform="translate(-184.65 -14.804)" fill="#a3a3a3"/>
      <path id="패스_8475" data-name="패스 8475" d="M249.947,20.669h1.791v.962a2.883,2.883,0,0,1,.982-.815,2.914,2.914,0,0,1,1.357-.307,2.962,2.962,0,0,1,2.279.882,3.468,3.468,0,0,1,.822,2.459v4.638h-1.831v-4.45a2.173,2.173,0,0,0-.441-1.437,1.627,1.627,0,0,0-1.323-.528,1.738,1.738,0,0,0-1.3.548,2.182,2.182,0,0,0-.528,1.577v4.29h-1.8Z" transform="translate(-203.974 -14.423)" fill="#a3a3a3"/>
      <path id="패스_8476" data-name="패스 8476" d="M283.376,27.445a2.974,2.974,0,0,1-1.1.882,3.325,3.325,0,0,1-1.457.32,3.746,3.746,0,0,1-1.4-.274,3.84,3.84,0,0,1-1.236-.8A3.915,3.915,0,0,1,277.3,26.3a4.2,4.2,0,0,1-.335-1.717,4.313,4.313,0,0,1,.327-1.731,3.9,3.9,0,0,1,.869-1.276,3.747,3.747,0,0,1,1.236-.8,3.9,3.9,0,0,1,1.443-.274,3.268,3.268,0,0,1,1.43.314,3.061,3.061,0,0,1,1.083.849v-1h1.8V28.28a4.527,4.527,0,0,1-.261,1.551,3.529,3.529,0,0,1-2.031,2.118,4.52,4.52,0,0,1-1.745.314,5.318,5.318,0,0,1-1.383-.167,4.261,4.261,0,0,1-1.116-.468,3.962,3.962,0,0,1-.868-.708,4.469,4.469,0,0,1-.642-.9l1.6-.976a5.3,5.3,0,0,0,.441.682,2.141,2.141,0,0,0,1.163.782,3.1,3.1,0,0,0,.828.1,2.217,2.217,0,0,0,.922-.187,2.173,2.173,0,0,0,.7-.5,2.128,2.128,0,0,0,.441-.722,2.445,2.445,0,0,0,.154-.856Zm-2.259-.454a2.316,2.316,0,0,0,.929-.187,2.15,2.15,0,0,0,.742-.521,2.581,2.581,0,0,0,.488-.775,2.48,2.48,0,0,0,.18-.949,2.445,2.445,0,0,0-.18-.935,2.493,2.493,0,0,0-.488-.768,2.2,2.2,0,0,0-.742-.514,2.371,2.371,0,0,0-2.613.508,2.3,2.3,0,0,0-.5.762,2.484,2.484,0,0,0-.18.949,2.532,2.532,0,0,0,.18.956,2.334,2.334,0,0,0,1.25,1.29,2.3,2.3,0,0,0,.936.187" transform="translate(-222.983 -14.423)" fill="#a3a3a3"/>
      <path id="패스_8477" data-name="패스 8477" d="M322.528,24.091a5.2,5.2,0,0,1-2.052-.394,4.677,4.677,0,0,1-2.6-2.66,5.287,5.287,0,0,1-.361-1.958,5.112,5.112,0,0,1,.387-2.011,4.879,4.879,0,0,1,1.063-1.584,4.823,4.823,0,0,1,1.591-1.042,5.157,5.157,0,0,1,1.971-.374,4.971,4.971,0,0,1,1.316.174,5.18,5.18,0,0,1,1.189.488,4.651,4.651,0,0,1,1,.762,4.908,4.908,0,0,1,.768,1l-1.59,1.016a3.464,3.464,0,0,0-1.082-1.2,2.808,2.808,0,0,0-1.6-.441,3.276,3.276,0,0,0-1.283.247,3.085,3.085,0,0,0-1.016.682,3.128,3.128,0,0,0-.668,1.022,3.323,3.323,0,0,0-.241,1.27,3.238,3.238,0,0,0,.241,1.25,3.206,3.206,0,0,0,.661,1.016,3.039,3.039,0,0,0,1,.682,3.19,3.19,0,0,0,1.263.247,2.825,2.825,0,0,0,1.718-.514,3.484,3.484,0,0,0,1.089-1.317l1.657.869a5.208,5.208,0,0,1-1.811,2.011,4.825,4.825,0,0,1-1.23.568,4.739,4.739,0,0,1-1.383.2" transform="translate(-251.496 -9.893)" fill="#a3a3a3"/>
      <path id="패스_8478" data-name="패스 8478" d="M354.744,28.647a3.744,3.744,0,0,1-1.4-.274,3.833,3.833,0,0,1-1.236-.8,3.931,3.931,0,0,1-.882-1.276,4.2,4.2,0,0,1-.334-1.717,4.313,4.313,0,0,1,.327-1.731,3.891,3.891,0,0,1,.869-1.276,3.75,3.75,0,0,1,1.236-.8,3.907,3.907,0,0,1,1.443-.274,3.459,3.459,0,0,1,1.431.294,2.993,2.993,0,0,1,1.082.8v-.935h1.8v7.819h-1.8V27.472a2.965,2.965,0,0,1-1.1.862,3.354,3.354,0,0,1-1.443.314m.294-1.657a2.316,2.316,0,0,0,.929-.187,2.149,2.149,0,0,0,.741-.521,2.566,2.566,0,0,0,.488-.775,2.479,2.479,0,0,0,.181-.949,2.445,2.445,0,0,0-.181-.935,2.481,2.481,0,0,0-.488-.768,2.2,2.2,0,0,0-.741-.514,2.369,2.369,0,0,0-2.613.508,2.291,2.291,0,0,0-.5.762,2.484,2.484,0,0,0-.181.949,2.533,2.533,0,0,0,.181.956A2.335,2.335,0,0,0,354.1,26.8a2.3,2.3,0,0,0,.936.187" transform="translate(-274.971 -14.423)" fill="#a3a3a3"/>
      <path id="패스_8479" data-name="패스 8479" d="M382.2,21.049h1.791v1.163a2,2,0,0,1,2-1.163,2.907,2.907,0,0,1,.768.093,2.814,2.814,0,0,1,.609.241l-.682,1.711a2.01,2.01,0,0,0-.448-.22,1.948,1.948,0,0,0-.635-.087,1.537,1.537,0,0,0-1.2.448A2.146,2.146,0,0,0,384,24.7v4.17h-1.8Z" transform="translate(-296.99 -14.804)" fill="#a3a3a3"/>
      <path id="패스_8480" data-name="패스 8480" d="M403.088,28.647a4.381,4.381,0,0,1-1.684-.314,3.83,3.83,0,0,1-2.145-2.152,4.188,4.188,0,0,1-.3-1.584,4.1,4.1,0,0,1,.314-1.6,4,4,0,0,1,.862-1.3,4.116,4.116,0,0,1,1.29-.869,3.984,3.984,0,0,1,1.6-.321,4.253,4.253,0,0,1,1.611.3,3.759,3.759,0,0,1,1.276.842,3.9,3.9,0,0,1,.835,1.277,4.2,4.2,0,0,1,.3,1.6v.682h-6.362a2.318,2.318,0,0,0,.816,1.337,2.448,2.448,0,0,0,1.59.508,2.284,2.284,0,0,0,2.165-1.376l1.483.855a3.928,3.928,0,0,1-3.649,2.112m-.067-6.549a2.3,2.3,0,0,0-2.245,1.6h4.437a2.011,2.011,0,0,0-.775-1.2,2.388,2.388,0,0,0-1.417-.408" transform="translate(-308.775 -14.423)" fill="#a3a3a3"/>
    </g>
  </g>
</svg>
