<svg xmlns="http://www.w3.org/2000/svg" width="45.521" height="12.191" viewBox="0 0 45.521 12.191">
  <g id="galaxy" transform="translate(0.002)">
    <path id="패스_1" data-name="패스 1" d="M52.282,17.756a3.093,3.093,0,0,0-2.4-1.036,3.674,3.674,0,0,0-3.7,3.86,3.7,3.7,0,0,0,3.672,3.847,3.068,3.068,0,0,0,2.42-1.126v.975H54v-7.4H52.282v.886Zm-2.142,5.1a2.291,2.291,0,1,1,2.229-2.3,2.251,2.251,0,0,1-2.229,2.3Z" transform="translate(-36.065 -14.898)" fill="#a3a3a3"/>
    <path id="패스_2" data-name="패스 2" d="M105.292,17.756a3.1,3.1,0,0,0-2.4-1.036,3.675,3.675,0,0,0-3.7,3.86,3.694,3.694,0,0,0,3.67,3.847,3.062,3.062,0,0,0,2.42-1.126v.975H107v-7.4H105.29v.886Zm-2.142,5.1a2.248,2.248,0,1,1,1.6-.683,2.251,2.251,0,0,1-1.6.683Z" transform="translate(-77.455 -14.898)" fill="#a3a3a3"/>
    <path id="패스_3" data-name="패스 3" d="M176.531,22.44l-2.076-5.02H172.62l3.058,7.058-1.339,3.211h1.773L180.3,17.42h-1.808Z" transform="translate(-134.781 -15.498)" fill="#a3a3a3"/>
    <path id="패스_4" data-name="패스 4" d="M144.61,17.42h-2.039l-1.681,2.342-1.7-2.342h-2.1l2.7,3.632-2.8,3.77h2.1l1.771-2.468,1.822,2.468h2.1l-2.854-3.759Z" transform="translate(-106.961 -15.445)" fill="#a3a3a3"/>
    <rect id="사각형_1" data-name="사각형 1" width="1.732" height="9.43" transform="translate(19.121)" fill="#a3a3a3"/>
    <path id="패스_5" data-name="패스 5" d="M4.549,14.352H7.517a2.632,2.632,0,0,1-2.69,2.012,3.1,3.1,0,0,1-.064-6.193A2.876,2.876,0,0,1,7.45,11.789l1.528-.916A4.741,4.741,0,0,0,4.748,8.49,4.681,4.681,0,0,0,0,13.271,4.652,4.652,0,0,0,4.829,18.05a4.408,4.408,0,0,0,4.549-4.665V12.7H4.549v1.657Z" transform="translate(0 -8.472)" fill="#a3a3a3"/>
  </g>
</svg>
